G04 Layer_Color=0*
%FSLAX23Y23*%
%MOIN*%
%TF.FileFunction,Plated,1,2,PTH,Drill*%
%TF.Part,Single*%
G01*
G75*
%TA.AperFunction,OtherDrill,Pad Free-19 (1250mil,1250mil)*%
%ADD53C,0.200*%
%TA.AperFunction,OtherDrill,Pad Free-18 (4250mil,1250mil)*%
%ADD54C,0.200*%
%TA.AperFunction,OtherDrill,Pad Free-17 (4250mil,4250mil)*%
%ADD55C,0.200*%
%TA.AperFunction,OtherDrill,Pad Free-16 (1250mil,4250mil)*%
%ADD56C,0.200*%
%TA.AperFunction,OtherDrill,Pad Free-15 (1625mil,4000mil)*%
%ADD57C,0.060*%
%TA.AperFunction,OtherDrill,Pad Free-2 (3450mil,3075mil)*%
%ADD58C,0.060*%
%TA.AperFunction,OtherDrill,Pad Free-2 (3250mil,3075mil)*%
%ADD59C,0.060*%
%TA.AperFunction,OtherDrill,Pad Free-TP1 (3600mil,2175mil)*%
%ADD60C,0.060*%
%TA.AperFunction,OtherDrill,Pad Free-6 (3925mil,2150mil)*%
%ADD61C,0.060*%
%TA.AperFunction,OtherDrill,Pad Free-3 (1125mil,2350mil)*%
%ADD62C,0.060*%
%TA.AperFunction,OtherDrill,Pad Free-4 (1125mil,2550mil)*%
%ADD63C,0.060*%
%TA.AperFunction,OtherDrill,Pad Free-7 (2100mil,2150mil)*%
%ADD64C,0.060*%
%TA.AperFunction,OtherDrill,Pad Free-8 (2100mil,1450mil)*%
%ADD65C,0.060*%
%TA.AperFunction,OtherDrill,Pad Free-12 (2450mil,2000mil)*%
%ADD66C,0.060*%
%TA.AperFunction,ComponentDrill*%
%ADD67C,0.030*%
%ADD68C,0.030*%
%ADD69C,0.033*%
%ADD70C,0.033*%
%ADD71C,0.039*%
%ADD72C,0.040*%
%ADD73C,0.039*%
%ADD74C,0.031*%
%ADD75C,0.039*%
%ADD76C,0.031*%
D53*
X1250Y1250D02*
D03*
D54*
X4250Y1250D02*
D03*
D55*
X4250Y4250D02*
D03*
D56*
X1250Y4250D02*
D03*
D57*
X1625Y4000D02*
D03*
D58*
X3450Y3075D02*
D03*
D59*
X3250Y3075D02*
D03*
D60*
X3600Y2175D02*
D03*
D61*
X3925Y2150D02*
D03*
D62*
X1125Y2350D02*
D03*
D63*
X1125Y2550D02*
D03*
D64*
X2100Y2150D02*
D03*
D65*
X2100Y1450D02*
D03*
D66*
X2450Y2000D02*
D03*
D67*
X2662Y2620D02*
D03*
X2760D02*
D03*
X2800Y1920D02*
D03*
X2898D02*
D03*
X3520Y3880D02*
D03*
X3422D02*
D03*
X2769Y4300D02*
D03*
X2671D02*
D03*
D68*
X3480Y2480D02*
D03*
Y2578D02*
D03*
D69*
X2450Y1475D02*
D03*
Y1775D02*
D03*
X3925Y3025D02*
D03*
X4150D02*
D03*
Y3325D02*
D03*
Y3575D02*
D03*
X3925Y3325D02*
D03*
X4150Y3875D02*
D03*
X2325Y3825D02*
D03*
X2125D02*
D03*
Y3525D02*
D03*
X2325D02*
D03*
D70*
X1600Y1425D02*
D03*
Y1625D02*
D03*
Y1825D02*
D03*
Y2025D02*
D03*
X1900Y1825D02*
D03*
Y1625D02*
D03*
Y1425D02*
D03*
Y2025D02*
D03*
X2800Y1475D02*
D03*
X3100D02*
D03*
X1950Y3350D02*
D03*
Y3625D02*
D03*
Y3850D02*
D03*
X1650D02*
D03*
Y3625D02*
D03*
Y3350D02*
D03*
X2500Y3625D02*
D03*
X2800D02*
D03*
D71*
X2100Y1650D02*
D03*
Y1748D02*
D03*
Y1847D02*
D03*
X3425Y1753D02*
D03*
Y1852D02*
D03*
Y1950D02*
D03*
X4150Y2503D02*
D03*
Y2602D02*
D03*
Y2700D02*
D03*
D72*
X1200Y1700D02*
D03*
Y1800D02*
D03*
Y1900D02*
D03*
Y2000D02*
D03*
X1100D02*
D03*
Y1900D02*
D03*
Y1800D02*
D03*
Y1700D02*
D03*
X1550Y2425D02*
D03*
Y2525D02*
D03*
X1450D02*
D03*
Y2425D02*
D03*
X1325Y3375D02*
D03*
Y3475D02*
D03*
Y3575D02*
D03*
X1225D02*
D03*
Y3475D02*
D03*
Y3375D02*
D03*
X3825Y1750D02*
D03*
X3925D02*
D03*
Y1850D02*
D03*
X3825D02*
D03*
D73*
X2848Y3275D02*
D03*
X2750D02*
D03*
X2652D02*
D03*
D74*
X2380Y4075D02*
D03*
Y4175D02*
D03*
Y4275D02*
D03*
Y4375D02*
D03*
X2070D02*
D03*
Y4275D02*
D03*
Y4175D02*
D03*
Y4075D02*
D03*
D75*
X2325Y2425D02*
D03*
Y2525D02*
D03*
Y2625D02*
D03*
Y2725D02*
D03*
X2025D02*
D03*
Y2625D02*
D03*
Y2525D02*
D03*
Y2425D02*
D03*
D76*
X3425Y3270D02*
D03*
X3525D02*
D03*
X3625D02*
D03*
X3725D02*
D03*
Y3580D02*
D03*
X3625D02*
D03*
X3525D02*
D03*
X3425D02*
D03*
%TF.MD5,f388839064dfee6cbce5c70da0ef2fbb*%
M02*
