G04 Layer_Color=255*
%FSLAX23Y23*%
%MOIN*%
%TF.FileFunction,Pads,Bot*%
%TF.Part,Single*%
G01*
G75*
%TA.AperFunction,ViaPad*%
%ADD13C,0.300*%
%ADD14C,0.120*%
%TA.AperFunction,ComponentPad*%
%ADD15R,0.043X0.043*%
%ADD16C,0.043*%
%ADD17R,0.043X0.043*%
%ADD18C,0.055*%
%ADD19C,0.059*%
%ADD20R,0.059X0.059*%
%ADD21C,0.054*%
%ADD22R,0.054X0.054*%
%ADD23R,0.059X0.059*%
%ADD24C,0.051*%
%ADD25R,0.051X0.051*%
%ADD26C,0.059*%
%ADD27R,0.059X0.059*%
%ADD28R,0.051X0.051*%
D13*
X1250Y1250D02*
D03*
X4250D02*
D03*
Y4250D02*
D03*
X1250D02*
D03*
D14*
X2100Y1450D02*
D03*
X2450Y2000D02*
D03*
X2100Y2150D02*
D03*
X1125Y2550D02*
D03*
Y2350D02*
D03*
X1625Y4000D02*
D03*
X3250Y3075D02*
D03*
X3450D02*
D03*
X3600Y2175D02*
D03*
X3925Y2150D02*
D03*
D15*
X2662Y2620D02*
D03*
X2800Y1920D02*
D03*
X3422Y3880D02*
D03*
X2671Y4300D02*
D03*
D16*
X2760Y2620D02*
D03*
X2898Y1920D02*
D03*
X3480Y2578D02*
D03*
X3520Y3880D02*
D03*
X2769Y4300D02*
D03*
D17*
X3480Y2480D02*
D03*
D18*
X1600Y1425D02*
D03*
Y1625D02*
D03*
Y1825D02*
D03*
Y2025D02*
D03*
X1900Y1825D02*
D03*
Y1625D02*
D03*
Y1425D02*
D03*
X2450Y1475D02*
D03*
Y1775D02*
D03*
X2800Y1475D02*
D03*
X3100D02*
D03*
X1900Y2025D02*
D03*
X1950Y3350D02*
D03*
X2125Y3525D02*
D03*
X2325D02*
D03*
X2500Y3625D02*
D03*
X2325Y3825D02*
D03*
X2125D02*
D03*
X1950Y3850D02*
D03*
Y3625D02*
D03*
X1650Y3850D02*
D03*
Y3625D02*
D03*
Y3350D02*
D03*
X2800Y3625D02*
D03*
X3925Y3025D02*
D03*
X4150D02*
D03*
Y3325D02*
D03*
Y3575D02*
D03*
X3925Y3325D02*
D03*
X4150Y3875D02*
D03*
D19*
X2100Y1650D02*
D03*
Y1748D02*
D03*
X3425Y1852D02*
D03*
Y1950D02*
D03*
X4150Y2602D02*
D03*
Y2700D02*
D03*
X2750Y3275D02*
D03*
X2652D02*
D03*
D20*
X2100Y1847D02*
D03*
X3425Y1753D02*
D03*
X4150Y2503D02*
D03*
D21*
X1100Y1700D02*
D03*
X1200Y1800D02*
D03*
Y1900D02*
D03*
Y2000D02*
D03*
X1100D02*
D03*
Y1900D02*
D03*
Y1800D02*
D03*
X1550Y2425D02*
D03*
Y2525D02*
D03*
X1450Y2425D02*
D03*
X1225Y3375D02*
D03*
X1325Y3475D02*
D03*
Y3575D02*
D03*
X1225D02*
D03*
Y3475D02*
D03*
X3825Y1750D02*
D03*
X3925D02*
D03*
Y1850D02*
D03*
D22*
X1200Y1700D02*
D03*
X1450Y2525D02*
D03*
X1325Y3375D02*
D03*
X3825Y1850D02*
D03*
D23*
X2848Y3275D02*
D03*
D24*
X3525Y3270D02*
D03*
X3625D02*
D03*
X3725D02*
D03*
Y3580D02*
D03*
X3625D02*
D03*
X3525D02*
D03*
X3425D02*
D03*
X2380Y4375D02*
D03*
Y4275D02*
D03*
Y4175D02*
D03*
Y4075D02*
D03*
X2070Y4275D02*
D03*
Y4175D02*
D03*
Y4075D02*
D03*
D25*
X2070Y4375D02*
D03*
D26*
X2325Y2425D02*
D03*
Y2525D02*
D03*
Y2625D02*
D03*
Y2725D02*
D03*
X2025Y2625D02*
D03*
Y2525D02*
D03*
Y2425D02*
D03*
D27*
X2025Y2725D02*
D03*
D28*
X3425Y3270D02*
D03*
%TF.MD5,7e08e5e378cc435a4f88f558e28fc398*%
M02*
