G04 Layer_Color=65535*
%FSLAX23Y23*%
%MOIN*%
%TF.FileFunction,Legend,Top*%
%TF.Part,Single*%
G01*
G75*
%TA.AperFunction,NonConductor*%
%ADD47C,0.005*%
%ADD48C,0.008*%
%ADD49C,0.006*%
%ADD50C,0.040*%
%ADD51C,0.010*%
D47*
X2005Y1561D02*
Y1936D01*
X2195D01*
Y1561D01*
X2005D01*
X2973Y1920D02*
G03*
X2973Y1920I-124J0D01*
G01*
X3330Y1664D02*
Y2039D01*
X3520D01*
Y1664D01*
X3330D01*
X4055Y2414D02*
Y2789D01*
X4245D01*
Y2414D01*
X4055D01*
X3604Y2529D02*
G03*
X3604Y2529I-124J0D01*
G01*
X3764Y3300D02*
Y3550D01*
X3595Y3880D02*
G03*
X3595Y3880I-124J0D01*
G01*
X3386Y3550D02*
Y3300D01*
X2938Y3370D02*
X2562D01*
Y3180D01*
X2938D01*
Y3370D01*
X2835Y2620D02*
G03*
X2835Y2620I-124J0D01*
G01*
X1892Y2549D02*
Y2443D01*
X1758Y2549D02*
Y2443D01*
X1450Y3175D02*
Y3775D01*
X1087D01*
Y3175D01*
X1450D01*
X2350Y4036D02*
X2100D01*
X2350Y4414D02*
X2100D01*
X2844Y4300D02*
G03*
X2844Y4300I-124J0D01*
G01*
D48*
X1650Y1395D02*
X1850D01*
Y1455D01*
X1650D01*
Y1425D01*
X1641D01*
X1650D02*
Y1395D01*
X1850Y1425D02*
X1859D01*
X1850Y1595D02*
Y1655D01*
X1650D01*
Y1625D01*
X1641D01*
X1650D02*
Y1595D01*
X1850D01*
Y1625D02*
X1859D01*
X1850Y1795D02*
Y1855D01*
X1650D01*
Y1825D01*
X1641D01*
X1650D02*
Y1795D01*
X1850D01*
Y1825D02*
X1859D01*
X1850Y1995D02*
Y2055D01*
X1650D01*
Y2025D01*
X1641D01*
X1650D02*
Y1995D01*
X1850D01*
Y2025D02*
X1859D01*
X2104Y1965D02*
G03*
X2104Y1965I-4J0D01*
G01*
X2420Y1725D02*
X2480D01*
Y1525D01*
X2450D01*
Y1516D01*
Y1525D02*
X2420D01*
Y1725D01*
X2450D02*
Y1734D01*
X2700Y1920D02*
G03*
X2700Y1920I-4J0D01*
G01*
X2850Y1505D02*
X3050D01*
Y1475D01*
X3059D01*
X3050D02*
Y1445D01*
X2850D01*
Y1505D01*
Y1475D02*
X2841D01*
X3429Y1635D02*
G03*
X3429Y1635I-4J0D01*
G01*
X3775Y1700D02*
Y1900D01*
X3975D01*
Y1700D01*
X3775D01*
X3829Y1926D02*
G03*
X3829Y1926I-4J0D01*
G01*
X4154Y2385D02*
G03*
X4154Y2385I-4J0D01*
G01*
X4150Y3066D02*
Y3075D01*
X4180D02*
Y3275D01*
X4150D01*
Y3284D01*
Y3275D02*
X4120D01*
Y3075D01*
X4180D01*
X3955Y3275D02*
X3895D01*
Y3075D01*
X3925D01*
X3955D01*
Y3275D01*
X3925D02*
Y3284D01*
Y3075D02*
Y3066D01*
X4120Y3625D02*
X4150D01*
X4180D01*
Y3825D01*
X4120D01*
Y3625D01*
X4150D02*
Y3616D01*
Y3825D02*
Y3834D01*
X3321Y3880D02*
G03*
X3321Y3880I-4J0D01*
G01*
X2970Y3275D02*
G03*
X2970Y3275I-4J0D01*
G01*
X2750Y3595D02*
Y3625D01*
Y3655D01*
X2550D01*
Y3595D01*
X2750D01*
Y3625D02*
X2759D01*
X2550D02*
X2541D01*
X2355Y3775D02*
Y3575D01*
X2295D01*
Y3775D01*
X2325D01*
X2355D01*
X2325D02*
Y3784D01*
Y3575D02*
Y3566D01*
X2155Y3775D02*
Y3575D01*
X2095D01*
Y3775D01*
X2125D01*
X2155D01*
X2125D02*
Y3784D01*
Y3575D02*
Y3566D01*
X1909Y3625D02*
X1900D01*
Y3655D02*
Y3595D01*
X1700D01*
Y3625D01*
Y3655D01*
X1900D01*
Y3820D02*
Y3880D01*
X1700D01*
Y3850D01*
Y3820D01*
X1900D01*
Y3850D02*
X1909D01*
X1700D02*
X1691D01*
Y3625D02*
X1700D01*
X1691Y3350D02*
X1700D01*
Y3380D01*
X1900D01*
Y3320D01*
X1700D01*
Y3350D01*
X1900D02*
X1909D01*
X1329Y3149D02*
G03*
X1329Y3149I-4J0D01*
G01*
X1454Y2601D02*
G03*
X1454Y2601I-4J0D01*
G01*
X1400Y2575D02*
X1600D01*
Y2375D01*
X1400D01*
Y2575D01*
X1050Y2050D02*
X1250D01*
Y1650D01*
X1050D01*
Y2050D01*
X1204Y1624D02*
G03*
X1204Y1624I-4J0D01*
G01*
X2561Y2620D02*
G03*
X2561Y2620I-4J0D01*
G01*
X3388Y3234D02*
G03*
X3388Y3234I-4J0D01*
G01*
X3484Y2376D02*
G03*
X3484Y2376I-4J0D01*
G01*
X2570Y4300D02*
G03*
X2570Y4300I-4J0D01*
G01*
X2038Y4416D02*
G03*
X2038Y4416I-4J0D01*
G01*
D49*
X2315Y2375D02*
Y2384D01*
Y2375D02*
X2035D01*
Y2384D01*
Y2466D02*
Y2484D01*
Y2566D02*
Y2584D01*
Y2666D02*
Y2682D01*
X2163Y2775D02*
G03*
X2187Y2775I12J0D01*
G01*
X2315D01*
Y2766D01*
Y2684D02*
Y2666D01*
Y2584D02*
Y2566D01*
Y2484D02*
Y2466D01*
X2187Y2775D02*
X2163D01*
X2035D01*
Y2768D01*
D50*
X2950Y3450D02*
X3125Y3625D01*
Y4475D01*
X2950Y3450D02*
X1525D01*
D51*
X1575Y1050D02*
Y1077D01*
X1588Y1090D01*
X1602Y1077D01*
Y1050D01*
Y1070D01*
X1575D01*
X1615Y1057D02*
X1622D01*
Y1050D01*
X1615D01*
Y1057D01*
X1688D02*
X1695Y1050D01*
X1702D01*
X1708Y1057D01*
Y1090D01*
X1702D01*
X1715D01*
X1728D02*
Y1050D01*
X1755D01*
X1768D02*
Y1070D01*
X1782D01*
X1768D01*
Y1090D01*
X1795D01*
X1755D02*
X1728D01*
Y1070D02*
X1742D01*
X1808D02*
X1822D01*
X1808D01*
Y1050D01*
Y1070D02*
Y1090D01*
X1835D01*
X1848D02*
Y1050D01*
X1875D01*
X1888D02*
Y1090D01*
X1908D01*
X1915Y1083D01*
Y1070D01*
X1908Y1063D01*
X1888D01*
X1862Y1070D02*
X1848D01*
Y1090D02*
X1875D01*
X1902Y1063D02*
X1915Y1050D01*
X1935D02*
X1928Y1057D01*
X1935Y1050D02*
X1948D01*
X1955Y1057D01*
Y1063D01*
X1948Y1070D01*
X1935D01*
X1928Y1077D01*
Y1083D01*
X1935Y1090D01*
X1948D01*
X1955Y1083D01*
X1968D02*
Y1057D01*
X1975Y1050D01*
X1988D01*
X1995Y1057D01*
Y1083D01*
X1988Y1090D01*
X1975D01*
X1968Y1083D01*
X2008Y1090D02*
X2035Y1050D01*
Y1090D01*
X2008D02*
Y1050D01*
X2146Y1135D02*
Y1215D01*
X2173D01*
X2120D01*
X2200D02*
X2226D01*
X2213D01*
Y1135D01*
X2200D01*
X2226D01*
X2266Y1148D02*
X2280Y1135D01*
X2306D01*
X2320Y1148D01*
Y1202D01*
X2306Y1215D01*
X2280D01*
X2266Y1202D01*
Y1148D01*
X2268Y1077D02*
X2248Y1063D01*
X2268Y1050D01*
X2248D02*
Y1090D01*
X2221D02*
X2235Y1077D01*
Y1050D01*
Y1070D01*
X2208D01*
Y1077D02*
X2221Y1090D01*
X2208Y1077D02*
Y1050D01*
X2288Y1057D02*
X2295Y1050D01*
X2315D01*
Y1077D01*
X2328Y1090D02*
X2335D01*
Y1050D01*
X2341D01*
X2328D01*
X2368D02*
X2361Y1057D01*
X2368Y1063D01*
X2388D01*
Y1070D02*
Y1050D01*
X2368D01*
Y1077D02*
X2381D01*
X2388Y1070D01*
X2441Y1057D02*
Y1050D01*
X2468D01*
X2481Y1057D02*
X2488Y1050D01*
X2508D01*
Y1077D01*
X2521D02*
X2541D01*
X2548Y1070D01*
Y1063D01*
Y1057D01*
X2541Y1050D01*
X2521D01*
Y1090D01*
X2601D02*
X2628D01*
X2615D01*
Y1050D01*
X2648D02*
X2641Y1057D01*
Y1070D01*
X2648Y1077D01*
X2661D01*
X2668Y1070D01*
Y1063D01*
X2641D01*
X2648Y1050D02*
X2661D01*
X2681Y1057D02*
X2688Y1050D01*
X2708D01*
X2721D02*
Y1070D01*
X2728Y1077D01*
X2741D01*
X2748Y1070D01*
Y1050D01*
X2761D02*
Y1077D01*
X2781D01*
X2788Y1070D01*
Y1050D01*
X2721D02*
Y1090D01*
X2708Y1077D02*
X2688D01*
X2681Y1070D01*
Y1057D01*
X2746Y1135D02*
X2800D01*
X2746D02*
Y1215D01*
X2800D01*
X2720D02*
X2693D01*
Y1135D01*
X2640D02*
X2586D01*
Y1215D01*
X2640D01*
X2666D02*
X2720D01*
X2746Y1175D02*
X2773D01*
X2808Y1077D02*
X2801Y1070D01*
Y1057D01*
X2808Y1050D01*
X2821D01*
X2828Y1057D01*
Y1070D01*
X2821Y1077D01*
X2808D01*
X2841Y1090D02*
X2848D01*
Y1050D01*
X2855D01*
X2841D01*
X2881D02*
X2895D01*
X2901Y1057D01*
Y1070D01*
X2895Y1077D01*
X2881D01*
X2875Y1070D01*
Y1057D01*
X2881Y1050D01*
X2915Y1057D02*
X2921Y1050D01*
X2941D01*
Y1043D02*
Y1077D01*
X2921D01*
X2915Y1070D01*
Y1057D01*
X2928Y1037D02*
X2935D01*
X2941Y1043D01*
X2955Y1050D02*
X2968D01*
X2961D01*
Y1077D01*
X2955D01*
X2988Y1070D02*
X2995Y1077D01*
X3008D01*
X3015Y1070D01*
Y1063D01*
X2988D01*
Y1057D02*
Y1070D01*
Y1057D02*
X2995Y1050D01*
X3008D01*
X3028D02*
X3048D01*
X3055Y1057D01*
X3048Y1063D01*
X3035D01*
X3028Y1070D01*
X3035Y1077D01*
X3055D01*
X3148Y1083D02*
X3154Y1090D01*
X3168D01*
X3174Y1083D01*
Y1077D01*
X3148Y1050D01*
X3174D01*
X3194D02*
X3188Y1057D01*
Y1083D01*
X3194Y1090D01*
X3208D01*
X3214Y1083D01*
Y1057D01*
X3208Y1050D01*
X3194D01*
X3228D02*
X3254Y1077D01*
Y1083D01*
X3248Y1090D01*
X3234D01*
X3228Y1083D01*
Y1050D02*
X3254D01*
X3268D02*
X3294Y1077D01*
Y1083D01*
X3288Y1090D01*
X3274D01*
X3268Y1083D01*
Y1050D02*
X3294D01*
X3306Y1135D02*
X3333D01*
X3346Y1148D01*
X3373Y1135D02*
X3399D01*
X3386D02*
X3373D01*
X3386D02*
Y1215D01*
X3399D01*
X3373D01*
X3346Y1202D02*
X3333Y1215D01*
X3306D01*
X3293Y1202D01*
Y1148D01*
X3306Y1135D01*
X3439D02*
Y1215D01*
X3479D01*
X3493Y1202D01*
Y1175D01*
X3479Y1162D01*
X3439D01*
X3466D02*
X3493Y1135D01*
X3519Y1148D02*
X3533Y1135D01*
X3559D01*
X3573Y1148D01*
X3599D02*
X3613Y1135D01*
X3639D01*
X3653Y1148D01*
Y1215D01*
X3679D02*
X3706D01*
X3693D01*
Y1135D01*
X3679D01*
X3706D01*
X3773D02*
Y1215D01*
X3799D01*
X3746D01*
X3599D02*
Y1148D01*
X3519D02*
Y1202D01*
X3533Y1215D01*
X3559D01*
X3573Y1202D01*
X3605Y1575D02*
Y1588D01*
Y1575D01*
X3625D01*
X3605D02*
X3585D01*
Y1602D01*
Y1615D02*
Y1628D01*
Y1622D01*
X3625D01*
Y1615D01*
Y1628D01*
Y1648D02*
Y1675D01*
Y1648D02*
X3585D01*
Y1688D02*
Y1715D01*
Y1702D01*
X3625D01*
Y1728D02*
Y1755D01*
Y1768D02*
X3585D01*
Y1788D01*
X3592Y1795D01*
X3605D01*
X3612Y1788D01*
Y1768D01*
Y1782D02*
X3625Y1795D01*
Y1728D02*
X3585D01*
Y1755D01*
X3525Y1610D02*
X3515Y1600D01*
Y1550D02*
X3535D01*
X3525D01*
Y1610D01*
X3605Y1728D02*
Y1742D01*
X3782Y1665D02*
X3775Y1658D01*
Y1632D01*
X3782Y1625D01*
X3795D01*
X3802Y1632D01*
Y1645D01*
X3788D01*
X3795Y1665D02*
X3782D01*
X3795D02*
X3802Y1658D01*
X3815Y1652D02*
X3828Y1665D01*
X3842Y1652D01*
Y1625D01*
Y1645D01*
X3815D01*
Y1652D02*
Y1625D01*
X3855D02*
X3868D01*
X3862D02*
X3855D01*
X3862D02*
Y1665D01*
X3868D01*
X3855D01*
X3888D02*
X3915Y1625D01*
Y1665D01*
X3975D02*
X3968Y1658D01*
Y1652D01*
X3975Y1645D01*
X3988D01*
X3995Y1638D01*
Y1632D01*
X3988Y1625D01*
X3975D01*
X3968Y1632D01*
X3975Y1665D02*
X3988D01*
X3995Y1658D01*
X4008Y1665D02*
X4035D01*
X4022D01*
Y1625D01*
X4048D02*
Y1652D01*
X4062Y1665D01*
X4075Y1652D01*
Y1625D01*
Y1645D01*
X4048D01*
X4088Y1632D02*
X4095Y1625D01*
X4108D01*
X4115Y1632D01*
Y1645D01*
X4102D01*
X4115Y1658D02*
X4108Y1665D01*
X4095D01*
X4088Y1658D01*
Y1632D01*
X4128Y1625D02*
X4155D01*
X4128D02*
Y1665D01*
X4155D01*
X4142Y1645D02*
X4128D01*
X4067Y1725D02*
Y1765D01*
X4040D02*
X4067Y1725D01*
X4040D02*
Y1765D01*
X4020D02*
X4007D01*
X4000Y1758D01*
Y1732D01*
X4007Y1725D01*
X4020D01*
X4027Y1732D01*
Y1758D01*
X4020Y1765D01*
X4107Y1865D02*
X4080D01*
Y1845D01*
X4093D01*
X4080D01*
Y1825D01*
X4040D02*
Y1845D01*
X4053D01*
X4040D01*
Y1865D01*
X4067D01*
X4020D02*
X4007D01*
X4000Y1858D01*
Y1832D01*
X4007Y1825D01*
X4020D01*
X4027Y1832D01*
Y1858D01*
X4020Y1865D01*
X3970Y1985D02*
X3960Y1975D01*
X3940D01*
X3930Y1985D01*
X3910D02*
X3900Y1975D01*
X3880D01*
X3870Y1985D01*
Y2025D01*
X3880Y2035D01*
X3900D01*
X3910Y2025D01*
Y1985D01*
X3970D02*
Y1995D01*
X3960Y2005D01*
X3950D01*
X3960D01*
X3970Y2015D01*
Y2025D01*
X3960Y2035D01*
X3940D01*
X3930Y2025D01*
X4020Y2125D02*
Y2185D01*
X4040D01*
X4000D01*
X4060D02*
X4090D01*
X4100Y2175D01*
Y2155D01*
X4090Y2145D01*
X4060D01*
Y2125D02*
Y2185D01*
X4130D02*
X4120Y2175D01*
X4130Y2185D02*
X4150D01*
X4160Y2175D01*
Y2165D01*
X4120Y2125D01*
X4160D01*
X4318Y2400D02*
X4325Y2407D01*
Y2420D01*
X4318Y2427D01*
X4305D01*
Y2413D01*
X4318Y2400D02*
X4292D01*
X4285Y2407D01*
Y2420D01*
X4292Y2427D01*
X4298Y2440D02*
X4285Y2453D01*
X4298Y2467D01*
X4325D01*
X4305D01*
Y2440D01*
X4325D02*
X4298D01*
X4285Y2480D02*
Y2493D01*
Y2487D01*
X4325D01*
Y2480D01*
Y2493D01*
Y2513D02*
X4285D01*
X4325Y2540D01*
X4285D01*
X4298Y2593D02*
X4285Y2607D01*
X4298Y2620D01*
X4325D01*
X4305D01*
Y2593D01*
X4325D02*
X4298D01*
X4325Y2633D02*
Y2653D01*
X4318Y2660D01*
X4292D01*
X4285Y2653D01*
Y2633D01*
X4325D01*
Y2680D02*
X4318Y2673D01*
X4325Y2680D02*
Y2687D01*
X4318Y2693D01*
X4285D01*
Y2687D01*
Y2700D01*
X4318Y2713D02*
X4325Y2720D01*
Y2733D01*
X4318Y2740D01*
X4285D01*
Y2760D02*
X4292Y2753D01*
X4298D01*
X4305Y2760D01*
Y2773D01*
X4312Y2780D01*
X4318D01*
X4325Y2773D01*
Y2760D01*
X4318Y2753D01*
Y2713D02*
X4285D01*
Y2760D02*
Y2773D01*
X4292Y2780D01*
X4285Y2793D02*
Y2820D01*
Y2807D01*
X4325D01*
X4025Y2720D02*
X3965D01*
X3995Y2690D01*
Y2730D01*
X3975Y2670D02*
X4015D01*
X4025Y2660D01*
Y2640D01*
X4015Y2630D01*
X3975D01*
X3965Y2640D01*
Y2660D01*
X3975Y2670D01*
Y2610D02*
X3985D01*
X3995Y2600D01*
Y2590D01*
Y2600D01*
X4005Y2610D01*
X4015D01*
X4025Y2600D01*
Y2580D01*
X4015Y2570D01*
X4005Y2550D02*
X3965D01*
X3975Y2570D02*
X3965Y2580D01*
Y2600D01*
X3975Y2610D01*
X3965Y2510D02*
X4005D01*
X4025Y2530D01*
X4005Y2550D01*
Y2480D02*
Y2450D01*
X4025D02*
X3965D01*
Y2480D01*
X3975Y2490D01*
X3995D01*
X4005Y2480D01*
Y2470D02*
X4025Y2490D01*
X3790Y2035D02*
X3770D01*
X3780D01*
Y1985D01*
X3770Y1975D01*
X3760D01*
X3750Y1985D01*
X3810D02*
X3820Y1975D01*
X3840D01*
X3850Y1985D01*
Y1995D01*
X3840Y2005D01*
X3830D01*
X3840D01*
X3850Y2015D01*
Y2025D01*
X3840Y2035D01*
X3820D01*
X3810Y2025D01*
X3625Y2028D02*
Y2015D01*
X3618Y2008D01*
X3605Y2015D02*
Y2028D01*
X3612Y2035D01*
X3618D01*
X3625Y2028D01*
X3605Y2015D02*
X3598Y2008D01*
X3592D01*
X3585Y2015D01*
Y2028D01*
X3592Y2035D01*
X3585Y2048D02*
Y2075D01*
Y2062D01*
X3625D01*
Y1988D02*
X3618Y1995D01*
X3585D01*
Y1968D02*
X3618D01*
X3625Y1975D01*
Y1988D01*
X3618Y1948D02*
X3625Y1942D01*
Y1935D01*
X3618Y1928D01*
Y1915D02*
X3592D01*
X3585Y1908D01*
Y1888D01*
X3625D01*
Y1908D01*
X3618Y1915D01*
Y1948D02*
X3585D01*
Y1942D01*
Y1955D01*
Y1862D02*
X3598Y1875D01*
X3625D01*
X3605D01*
Y1848D01*
X3625D02*
X3598D01*
X3585Y1862D01*
X3485Y1610D02*
X3495Y1600D01*
Y1560D01*
X3485Y1550D01*
X3465D01*
X3455Y1560D01*
Y1600D01*
X3465Y1610D01*
X3485D01*
X3425D02*
X3435Y1600D01*
Y1590D01*
X3425Y1580D01*
X3415D01*
X3425D01*
X3435Y1570D01*
Y1560D01*
X3425Y1550D01*
X3405D01*
X3395Y1560D01*
X3375Y1570D02*
Y1610D01*
X3335D02*
Y1570D01*
X3355Y1550D01*
X3375Y1570D01*
X3395Y1600D02*
X3405Y1610D01*
X3425D01*
X3305D02*
X3315Y1600D01*
Y1580D01*
X3305Y1570D01*
X3275D01*
Y1550D02*
Y1610D01*
X3305D01*
X3315Y1550D02*
X3295Y1570D01*
X3045Y1410D02*
Y1400D01*
X3005Y1360D01*
Y1350D01*
X3013Y1215D02*
X3000D01*
Y1135D01*
X2986D01*
X3013D01*
X3053Y1148D02*
X3066Y1135D01*
X3093D01*
X3106Y1148D01*
Y1202D01*
X3093Y1215D01*
X3066D01*
X3053Y1202D01*
Y1148D01*
X3133Y1135D02*
Y1215D01*
X3186Y1135D01*
Y1215D01*
X3013D02*
X2986D01*
X2960D02*
X2933D01*
Y1135D01*
X2906Y1215D02*
X2960D01*
X2955Y1350D02*
X2945Y1360D01*
Y1400D01*
X2955Y1410D01*
X2975D01*
X2985Y1400D01*
Y1360D01*
X2975Y1350D01*
X2955D01*
X2925Y1360D02*
X2915Y1350D01*
X2895D01*
X2885Y1360D01*
X2865Y1350D02*
X2845Y1370D01*
X2855D02*
X2825D01*
Y1350D02*
Y1410D01*
X2855D01*
X2865Y1400D01*
Y1380D01*
X2855Y1370D01*
X2885Y1400D02*
X2895Y1410D01*
X2915D01*
X2925Y1400D01*
Y1390D01*
X2915Y1380D01*
X2905D01*
X2915D01*
X2925Y1370D01*
Y1360D01*
X3005Y1410D02*
X3045D01*
X2880Y1202D02*
X2866Y1215D01*
X2840D01*
X2826Y1202D01*
Y1148D01*
X2840Y1135D01*
X2866D01*
X2880Y1148D01*
X2613Y1175D02*
X2586D01*
X2560Y1148D02*
Y1202D01*
X2546Y1215D01*
X2506D01*
Y1135D01*
X2546D01*
X2560Y1148D01*
X2468Y1090D02*
Y1083D01*
X2441Y1057D01*
Y1090D02*
X2468D01*
X2481Y1077D02*
Y1057D01*
X2400Y1135D02*
Y1215D01*
X2346D02*
X2400Y1135D01*
X2346D02*
Y1215D01*
X2240Y1255D02*
X2226D01*
Y1268D01*
X2240D01*
Y1255D01*
X2200Y1335D02*
X2173D01*
Y1255D01*
X2146Y1335D02*
X2200D01*
X2220Y1411D02*
Y1471D01*
X2240D01*
X2200D01*
X2260D02*
X2290D01*
X2300Y1461D01*
Y1441D01*
X2290Y1431D01*
X2260D01*
Y1411D02*
Y1471D01*
X2340Y1461D02*
X2320Y1441D01*
Y1421D01*
X2330Y1411D01*
X2350D01*
X2360Y1421D01*
Y1431D01*
X2350Y1441D01*
X2320D01*
X2340Y1461D02*
X2360Y1471D01*
X2265Y1530D02*
Y1543D01*
X2225D01*
X2232Y1570D02*
X2225Y1577D01*
Y1590D01*
X2232Y1597D01*
X2252D02*
X2245Y1590D01*
Y1577D01*
X2238Y1570D01*
X2232D01*
X2258D02*
X2265Y1577D01*
Y1590D01*
X2258Y1597D01*
X2252D01*
X2265Y1557D02*
Y1530D01*
Y1610D02*
X2232D01*
X2225Y1617D01*
Y1630D01*
X2232Y1637D01*
X2265D01*
Y1650D02*
Y1663D01*
Y1657D01*
X2232D01*
X2225Y1663D01*
Y1670D01*
X2232Y1677D01*
Y1690D02*
X2258D01*
X2265Y1697D01*
Y1717D01*
X2225D01*
Y1697D01*
X2232Y1690D01*
X2225Y1730D02*
X2245D01*
Y1757D01*
X2252D02*
X2265Y1743D01*
X2252Y1730D01*
X2225D01*
Y1757D02*
X2252D01*
X2265Y1810D02*
X2225D01*
X2265Y1837D01*
X2225D01*
Y1857D02*
Y1870D01*
Y1863D01*
X2265D01*
Y1857D01*
Y1870D01*
Y1897D02*
X2252Y1883D01*
X2225D01*
X2245D01*
Y1910D01*
X2252D02*
X2265Y1897D01*
X2252Y1910D02*
X2225D01*
Y1930D02*
X2232Y1923D01*
X2245D01*
Y1937D01*
X2232Y1950D02*
X2225Y1943D01*
Y1930D01*
X2232Y1950D02*
X2258D01*
X2265Y1943D01*
Y1930D01*
X2258Y1923D01*
X2305Y2000D02*
X2265D01*
X2305Y2040D01*
Y2050D01*
X2295Y2060D01*
X2275D01*
X2265Y2050D01*
X2245D02*
Y2010D01*
X2235Y2000D01*
X2215D01*
X2205Y2010D01*
Y2050D01*
X2215Y2060D01*
X2235D01*
X2245Y2050D01*
X2395Y2100D02*
Y2160D01*
X2415D01*
X2375D01*
X2435D02*
X2465D01*
X2475Y2150D01*
Y2130D01*
X2465Y2120D01*
X2435D01*
Y2100D02*
Y2160D01*
X2495D02*
X2535D01*
Y2150D01*
X2495Y2110D01*
Y2100D01*
X2490Y1885D02*
X2500Y1875D01*
Y1865D01*
X2490Y1855D01*
X2480D01*
X2490D01*
X2500Y1845D01*
Y1835D01*
X2490Y1825D01*
X2470D01*
X2460Y1835D01*
X2440Y1825D02*
X2420Y1845D01*
X2430D02*
X2400D01*
Y1825D02*
Y1885D01*
X2430D01*
X2440Y1875D01*
Y1855D01*
X2430Y1845D01*
X2460Y1875D02*
X2470Y1885D01*
X2490D01*
X2520Y1875D02*
X2530Y1885D01*
X2550D01*
X2560Y1875D01*
Y1835D01*
X2550Y1825D01*
X2530D01*
X2520Y1835D01*
Y1875D01*
X2600D02*
X2580Y1855D01*
Y1835D01*
X2590Y1825D01*
X2610D01*
X2620Y1835D01*
Y1845D01*
X2610Y1855D01*
X2580D01*
X2600Y1875D02*
X2620Y1885D01*
X2750Y1760D02*
X2740Y1750D01*
Y1710D01*
X2750Y1700D01*
X2770D01*
X2780Y1710D01*
X2800D02*
X2810Y1700D01*
X2830D01*
X2840Y1710D01*
Y1720D01*
X2830Y1730D01*
X2820D01*
X2830D01*
X2840Y1740D01*
Y1750D01*
X2830Y1760D01*
X2810D01*
X2800Y1750D01*
X2780D02*
X2770Y1760D01*
X2750D01*
X2860Y1750D02*
X2870Y1760D01*
X2890D01*
X2900Y1750D01*
Y1710D01*
X2890Y1700D01*
X2870D01*
X2860Y1710D01*
Y1750D01*
X2920D02*
X2930Y1760D01*
Y1700D01*
X2940D01*
X2920D01*
X3370Y2175D02*
Y2235D01*
X3390D01*
X3350D01*
X3410Y2195D02*
X3440D01*
X3450Y2205D01*
Y2225D01*
X3440Y2235D01*
X3410D01*
Y2175D01*
X3470D02*
X3490D01*
X3480D01*
Y2235D01*
X3470Y2225D01*
X3510Y2680D02*
X3490D01*
X3480Y2690D01*
Y2730D01*
X3490Y2740D01*
X3510D01*
X3520Y2730D01*
Y2690D01*
X3510Y2680D01*
X3540D02*
X3580Y2720D01*
Y2730D01*
X3570Y2740D01*
X3550D01*
X3540Y2730D01*
Y2680D02*
X3580D01*
X3460Y2720D02*
X3450Y2710D01*
X3440D01*
X3450D01*
X3460Y2700D01*
Y2690D01*
X3450Y2680D01*
X3430D01*
X3420Y2690D01*
Y2730D02*
X3430Y2740D01*
X3450D01*
X3460Y2730D01*
Y2720D01*
X3400Y2730D02*
X3390Y2740D01*
X3370D01*
X3360Y2730D01*
Y2690D01*
X3370Y2680D01*
X3390D01*
X3400Y2690D01*
X3710Y3080D02*
X3670D01*
X3700Y3110D01*
Y3050D01*
X3650Y3080D02*
X3640Y3070D01*
X3610D01*
Y3050D02*
Y3110D01*
X3640D01*
X3650Y3100D01*
Y3080D01*
X3590Y3110D02*
X3570D01*
Y3050D01*
X3550Y3110D02*
X3590D01*
X3340Y3300D02*
X3350Y3310D01*
Y3330D01*
X3340Y3340D01*
X3290D01*
Y3370D02*
Y3390D01*
X3300Y3400D01*
X3310D01*
X3320Y3390D01*
Y3380D01*
Y3390D01*
X3330Y3400D01*
X3340D01*
X3350Y3390D01*
Y3370D01*
X3340Y3360D01*
X3300D02*
X3290Y3370D01*
Y3300D02*
X3340D01*
Y3420D02*
X3300D01*
X3290Y3430D01*
Y3450D01*
X3300Y3460D01*
X3340D01*
X3350Y3450D01*
Y3430D01*
X3340Y3420D01*
X3350Y3480D02*
X3310Y3520D01*
X3300D01*
X3290Y3510D01*
Y3490D01*
X3300Y3480D01*
X3350D02*
Y3520D01*
X3190Y3235D02*
X3200Y3225D01*
Y3205D01*
X3190Y3195D01*
X3160D01*
Y3175D02*
Y3235D01*
X3190D01*
X3140D02*
X3120D01*
Y3175D01*
X3230D02*
X3220Y3185D01*
X3230Y3175D02*
X3250D01*
X3260Y3185D01*
Y3195D01*
X3250Y3205D01*
X3240D01*
X3250D01*
X3260Y3215D01*
Y3225D01*
X3250Y3235D01*
X3230D01*
X3220Y3225D01*
X3140Y3235D02*
X3100D01*
X2987Y3147D02*
X2960D01*
Y3107D01*
X2987D01*
X2973Y3127D02*
X2960D01*
X2947D02*
X2933D01*
X2947D02*
Y3114D01*
X2940Y3107D01*
X2927D01*
X2920Y3114D01*
Y3140D01*
X2927Y3147D01*
X2940D01*
X2947Y3140D01*
X2907Y3134D02*
Y3107D01*
Y3127D01*
X2880D01*
Y3134D02*
X2893Y3147D01*
X2907Y3134D01*
X2880D02*
Y3107D01*
X2853D02*
Y3147D01*
X2867D01*
X2840D01*
X2827Y3107D02*
X2800D01*
Y3147D01*
X2780D02*
X2767D01*
X2760Y3140D01*
Y3114D01*
X2767Y3107D01*
X2780D01*
X2787Y3114D01*
Y3140D01*
X2780Y3147D01*
X2747D02*
Y3120D01*
X2733Y3107D01*
X2720Y3120D01*
Y3147D01*
X2727Y3075D02*
X2720Y3068D01*
Y3062D01*
X2727Y3055D01*
X2740D01*
X2747Y3048D01*
Y3042D01*
X2740Y3035D01*
X2727D01*
X2720Y3042D01*
X2707D02*
Y3075D01*
X2727D02*
X2740D01*
X2747Y3068D01*
X2760Y3075D02*
X2787D01*
X2773D01*
Y3035D01*
X2707Y3042D02*
X2700Y3035D01*
X2687D01*
X2680Y3042D01*
Y3075D01*
X2667D02*
X2653D01*
X2660D01*
Y3042D01*
X2653Y3035D01*
X2647D01*
X2640Y3042D01*
X2627D02*
Y3068D01*
X2620Y3075D01*
X2600D01*
Y3035D01*
X2620D01*
X2627Y3042D01*
Y3107D02*
X2600D01*
Y3147D01*
X2627D01*
X2640D02*
Y3127D01*
X2653D01*
X2640D01*
Y3107D01*
Y3147D02*
X2667D01*
X2613Y3127D02*
X2600D01*
X2587D02*
X2580Y3120D01*
X2560D01*
Y3107D02*
Y3147D01*
X2580D01*
X2587Y3140D01*
Y3127D01*
X2573Y3120D02*
X2587Y3107D01*
X2510Y3100D02*
Y3080D01*
X2500Y3070D01*
X2490D01*
X2480Y3080D01*
Y3090D01*
Y3080D01*
X2470Y3070D01*
X2460D01*
X2450Y3080D01*
Y3100D01*
X2460Y3110D01*
Y3130D02*
X2450Y3140D01*
Y3160D01*
X2460Y3170D01*
X2500D01*
X2510Y3160D01*
Y3140D01*
X2500Y3130D01*
X2460D01*
X2500Y3110D02*
X2510Y3100D01*
X2573Y3075D02*
X2587Y3062D01*
Y3035D01*
Y3055D01*
X2560D01*
Y3062D02*
X2573Y3075D01*
X2560Y3062D02*
Y3035D01*
X2500Y3190D02*
X2490D01*
X2480Y3200D01*
Y3210D01*
Y3200D01*
X2470Y3190D01*
X2460D01*
X2450Y3200D01*
Y3220D01*
X2460Y3230D01*
X2470Y3250D02*
X2510D01*
Y3220D02*
Y3200D01*
X2500Y3190D01*
X2510Y3220D02*
X2500Y3230D01*
X2470Y3250D02*
X2450Y3270D01*
X2470Y3290D01*
X2510D01*
Y3320D02*
X2500Y3310D01*
X2480D01*
X2470Y3320D01*
Y3350D01*
X2450D02*
X2510D01*
Y3320D01*
X2470Y3330D02*
X2450Y3310D01*
X2705Y3675D02*
Y3735D01*
X2695Y3725D01*
X2675D02*
Y3715D01*
X2665Y3705D01*
X2655D01*
X2665D01*
X2675Y3695D01*
Y3685D01*
X2665Y3675D01*
X2645D01*
X2635Y3685D01*
X2615Y3675D02*
X2595Y3695D01*
X2575D02*
X2605D01*
X2615Y3705D01*
Y3725D01*
X2605Y3735D01*
X2575D01*
Y3675D01*
X2695D02*
X2715D01*
X2705D01*
X2755D02*
X2745Y3685D01*
X2755Y3675D02*
X2775D01*
X2785Y3685D01*
Y3705D01*
X2775Y3715D01*
X2765D01*
X2745Y3705D01*
Y3735D01*
X2785D01*
X2665D02*
X2675Y3725D01*
X2665Y3735D02*
X2645D01*
X2635Y3725D01*
X2310Y4010D02*
X2320Y4000D01*
Y3990D01*
X2310Y3980D01*
X2300D01*
X2310D01*
X2320Y3970D01*
Y3960D01*
X2310Y3950D01*
X2290D01*
X2280Y3960D01*
X2260D02*
X2250Y3950D01*
X2230D01*
X2220Y3960D01*
Y4000D01*
X2230Y4010D01*
X2250D01*
X2260Y4000D01*
Y3960D01*
X2280Y4000D02*
X2290Y4010D01*
X2310D01*
X2190D02*
X2200Y4000D01*
Y3990D01*
X2190Y3980D01*
X2180D01*
X2190D01*
X2200Y3970D01*
Y3960D01*
X2190Y3950D01*
X2170D01*
X2160Y3960D01*
X2140D02*
Y4010D01*
X2170D02*
X2190D01*
X2170D02*
X2160Y4000D01*
X2140Y3960D02*
X2130Y3950D01*
X2110D01*
X2100Y3960D01*
Y4010D01*
X1925Y3985D02*
X1895Y3955D01*
X1935D01*
X1925Y3925D02*
Y3985D01*
X1855D02*
X1845Y3975D01*
X1825D02*
Y3965D01*
X1815Y3955D01*
X1805D01*
X1815D01*
X1825Y3945D01*
Y3935D01*
X1815Y3925D01*
X1795D01*
X1785Y3935D01*
X1765Y3925D02*
X1745Y3945D01*
X1755D02*
X1725D01*
Y3925D02*
Y3985D01*
X1755D01*
X1765Y3975D01*
Y3955D01*
X1755Y3945D01*
X1785Y3975D02*
X1795Y3985D01*
X1815D01*
X1825Y3975D01*
X1855Y3985D02*
Y3925D01*
X1865D01*
X1845D01*
X1790Y3760D02*
X1800Y3750D01*
Y3740D01*
X1790Y3730D01*
X1780D01*
X1790D01*
X1800Y3720D01*
Y3710D01*
X1790Y3700D01*
X1770D01*
X1760Y3710D01*
X1740Y3700D02*
X1720Y3720D01*
X1730D02*
X1700D01*
Y3700D02*
Y3760D01*
X1730D01*
X1740Y3750D01*
Y3730D01*
X1730Y3720D01*
X1760Y3750D02*
X1770Y3760D01*
X1790D01*
X1830D02*
X1820Y3750D01*
X1830Y3760D02*
Y3700D01*
X1840D01*
X1820D01*
X1870Y3710D02*
X1880Y3700D01*
X1900D01*
X1910Y3710D01*
Y3720D01*
X1900Y3730D01*
X1870D01*
Y3710D01*
Y3730D02*
X1890Y3750D01*
X1910Y3760D01*
X2025Y3695D02*
X2015Y3705D01*
X2075D01*
Y3715D01*
Y3695D01*
X2065Y3675D02*
X2075Y3665D01*
Y3645D01*
X2065Y3635D01*
X2075Y3615D02*
X2055Y3595D01*
Y3575D02*
Y3605D01*
X2045Y3615D01*
X2025D01*
X2015Y3605D01*
Y3575D01*
X2075D01*
X2025Y3635D02*
X2015Y3645D01*
Y3665D01*
X2025Y3675D01*
X2035D01*
X2045Y3665D01*
Y3655D01*
Y3665D01*
X2055Y3675D01*
X2065D01*
Y3745D02*
X2075Y3755D01*
Y3775D01*
X2065Y3785D01*
X2055D01*
X2045Y3775D01*
Y3765D01*
Y3775D01*
X2035Y3785D01*
X2025D01*
X2015Y3775D01*
Y3755D01*
X2025Y3745D01*
X2215Y3690D02*
X2225Y3700D01*
X2235D01*
X2245Y3690D01*
Y3680D01*
Y3690D01*
X2255Y3700D01*
X2265D01*
X2275Y3690D01*
Y3670D01*
X2265Y3660D01*
X2275Y3640D02*
X2255Y3620D01*
Y3630D02*
Y3600D01*
X2275D02*
X2215D01*
Y3630D01*
X2225Y3640D01*
X2245D01*
X2255Y3630D01*
X2225Y3660D02*
X2215Y3670D01*
Y3690D01*
Y3730D02*
X2225Y3720D01*
X2215Y3730D02*
X2275D01*
Y3740D01*
Y3720D01*
Y3770D02*
Y3790D01*
Y3780D01*
X2215D01*
X2225Y3770D01*
X1870Y4135D02*
X1860Y4145D01*
Y4175D01*
X1850D01*
X1870D01*
X1860D01*
Y4185D01*
X1810Y4175D02*
X1800D01*
X1780D02*
Y4135D01*
X1750D01*
X1740Y4145D01*
Y4175D01*
X1720D02*
X1690D01*
X1680Y4165D01*
Y4145D01*
X1690Y4135D01*
X1720D01*
X1800D02*
X1820D01*
X1810D01*
Y4175D01*
X1830Y4251D02*
X1800D01*
Y4231D02*
Y4291D01*
X1830D01*
X1840Y4281D01*
Y4261D01*
X1830Y4251D01*
X1770D02*
X1780Y4261D01*
Y4281D01*
X1770Y4291D01*
X1750D01*
X1740Y4281D01*
Y4261D01*
X1750Y4251D01*
X1770D01*
X1710D02*
X1700Y4261D01*
Y4291D01*
X1690D01*
X1710D01*
X1700D01*
Y4301D01*
X1670D02*
X1660Y4311D01*
X1640D01*
X1630Y4301D01*
Y4291D01*
X1640Y4281D01*
X1660D01*
X1670Y4271D01*
Y4261D01*
X1660Y4251D01*
X1640D01*
X1630Y4261D01*
X1610Y4281D02*
X1570D01*
X1530D02*
X1510D01*
Y4251D02*
X1550D01*
X1510D02*
Y4311D01*
X1550D01*
Y4185D02*
X1540Y4195D01*
X1520D01*
X1510Y4185D01*
Y4145D01*
X1520Y4135D01*
X1540D01*
X1550Y4145D01*
X1570Y4135D02*
X1590D01*
X1580D01*
Y4175D01*
X1570D01*
X1620D02*
Y4135D01*
Y4155D01*
X1630Y4165D01*
X1640Y4175D01*
X1650D01*
X1306Y3846D02*
X1266D01*
X1296Y3876D01*
Y3816D01*
X1246Y3826D02*
X1236Y3816D01*
X1216D01*
X1206Y3826D01*
Y3866D01*
X1216Y3876D01*
X1236D01*
X1246Y3866D01*
Y3826D01*
X1186D02*
X1176Y3816D01*
X1156D01*
X1146Y3826D01*
X1116D02*
X1106Y3816D01*
X1096D01*
X1086Y3826D01*
X1116D02*
Y3876D01*
X1106D01*
X1126D01*
X1146Y3866D02*
X1156Y3876D01*
X1176D01*
X1186Y3866D01*
Y3856D01*
X1176Y3846D01*
X1166D01*
X1176D01*
X1186Y3836D01*
Y3826D01*
X1725Y3285D02*
X1755D01*
X1765Y3275D01*
Y3255D01*
X1755Y3245D01*
X1725D01*
Y3225D02*
Y3285D01*
X1745Y3245D02*
X1765Y3225D01*
X1795D02*
X1785Y3235D01*
X1795Y3225D02*
X1815D01*
X1825Y3235D01*
Y3245D01*
X1815Y3255D01*
X1805D01*
X1815D01*
X1825Y3265D01*
Y3275D01*
X1815Y3285D01*
X1795D01*
X1785Y3275D01*
X1845D02*
X1855Y3285D01*
Y3225D01*
X1865D01*
X1845D01*
X1895D02*
X1935Y3265D01*
Y3275D01*
X1925Y3285D01*
X1905D01*
X1895Y3275D01*
Y3225D02*
X1935D01*
X1885Y3035D02*
X1925Y2975D01*
Y3035D01*
X1945D02*
Y2975D01*
X1975D01*
X1985Y2985D01*
Y3025D01*
X1975Y3035D01*
X1945D01*
X2002Y2901D02*
Y2851D01*
X2012Y2841D01*
X2032D01*
X2042Y2851D01*
Y2901D01*
X2072D02*
X2092D01*
X2102Y2891D01*
Y2881D01*
X2092Y2871D01*
X2082D01*
X2092D01*
X2102Y2861D01*
Y2851D01*
X2092Y2841D01*
X2072D01*
X2062Y2851D01*
Y2891D02*
X2072Y2901D01*
X2035Y2801D02*
X2002Y2768D01*
Y2784D02*
X2035D01*
Y2768D02*
X2002Y2801D01*
X2018D02*
Y2768D01*
X2132Y2841D02*
X2122Y2851D01*
Y2891D01*
X2132Y2901D01*
X2152D01*
X2162Y2891D01*
Y2851D01*
X2152Y2841D01*
X2132D01*
X2182D02*
X2202D01*
X2192D01*
Y2901D01*
X2182Y2891D01*
X1965Y2760D02*
X1955Y2750D01*
X1935D02*
Y2710D01*
X1925Y2700D01*
X1905D01*
X1895Y2710D01*
Y2750D01*
X1905Y2760D01*
X1925D01*
X1935Y2750D01*
X1965Y2760D02*
Y2700D01*
X1975D01*
X1955D01*
X1875Y2710D02*
X1865Y2700D01*
X1845D01*
X1835Y2710D01*
X1815Y2700D02*
X1795Y2720D01*
X1775D02*
X1805D01*
X1815Y2730D01*
Y2750D01*
X1805Y2760D01*
X1775D01*
Y2700D01*
X1835Y2750D02*
X1845Y2760D01*
X1865D01*
X1875Y2750D01*
Y2740D01*
X1865Y2730D01*
X1855D01*
X1865D01*
X1875Y2720D01*
Y2710D01*
X1885Y2975D02*
Y3035D01*
X1865Y3025D02*
X1855Y3035D01*
X1835D01*
X1825Y3025D01*
Y2985D01*
X1835Y2975D01*
X1855D01*
X1865Y2985D01*
Y3005D01*
X1845D01*
X1589Y2698D02*
X1579Y2688D01*
X1559D02*
Y2648D01*
X1549Y2638D01*
X1529D01*
X1519Y2648D01*
Y2688D01*
X1529Y2698D01*
X1549D01*
X1559Y2688D01*
X1589Y2698D02*
X1609D01*
X1619Y2688D01*
Y2678D01*
X1579Y2638D01*
X1619D01*
X1625Y2540D02*
Y2500D01*
X1645D01*
X1652Y2507D01*
Y2513D01*
X1645Y2520D01*
X1625D01*
X1645D01*
X1652Y2527D01*
Y2533D01*
X1645Y2540D01*
X1625D01*
X1638Y2440D02*
X1652Y2427D01*
Y2400D01*
Y2420D01*
X1625D01*
Y2427D02*
X1638Y2440D01*
X1625Y2427D02*
Y2400D01*
X1625Y2347D02*
X1652D01*
X1638D01*
Y2307D01*
X1612D02*
Y2347D01*
Y2307D02*
X1585Y2347D01*
Y2307D01*
X1572D02*
X1545D01*
Y2347D01*
X1572D01*
X1558Y2327D02*
X1545D01*
X1532D02*
X1525Y2320D01*
X1505D01*
Y2307D02*
Y2347D01*
X1525D01*
X1532Y2340D01*
Y2327D01*
X1518Y2320D02*
X1532Y2307D01*
X1525Y2275D02*
X1498D01*
Y2235D01*
X1525D01*
X1538Y2242D02*
X1545Y2235D01*
X1558D01*
X1565Y2242D01*
X1538D02*
Y2268D01*
X1545Y2275D01*
X1558D01*
X1565Y2268D01*
X1578Y2275D02*
X1605D01*
X1592D01*
Y2235D01*
X1512Y2255D02*
X1498D01*
X1485D02*
X1478Y2248D01*
X1458D01*
Y2235D02*
Y2275D01*
X1478D01*
X1485Y2268D01*
Y2255D01*
X1472Y2248D02*
X1485Y2235D01*
X1438D02*
X1425D01*
X1432D01*
Y2275D01*
X1438D01*
X1425D01*
X1412Y2268D02*
X1405Y2275D01*
X1385D01*
Y2235D01*
X1405D01*
X1412Y2242D01*
Y2268D01*
X1405Y2307D02*
X1412Y2314D01*
X1405Y2307D02*
X1392D01*
X1385Y2314D01*
Y2340D01*
X1392Y2347D01*
X1405D01*
X1412Y2340D01*
X1425Y2347D02*
Y2314D01*
X1432Y2307D01*
X1445D01*
X1452Y2314D01*
Y2347D01*
X1465D02*
X1485D01*
X1492Y2340D01*
Y2327D01*
X1485Y2320D01*
X1465D01*
Y2307D02*
Y2347D01*
X1478Y2320D02*
X1492Y2307D01*
X1618Y2275D02*
X1632D01*
X1625D01*
Y2235D01*
X1618D01*
X1632D01*
X1652Y2242D02*
X1658Y2235D01*
X1672D01*
X1678Y2242D01*
Y2268D01*
X1672Y2275D01*
X1658D01*
X1652Y2268D01*
Y2242D01*
X1692Y2235D02*
Y2275D01*
X1718Y2235D01*
Y2275D01*
X1730Y2135D02*
X1740Y2125D01*
Y2105D01*
X1730Y2095D01*
X1700D01*
Y2075D02*
Y2135D01*
X1730D01*
X1760Y2125D02*
X1770Y2135D01*
X1790D01*
X1800Y2125D01*
Y2115D01*
X1790Y2105D01*
X1780D01*
X1790D01*
X1800Y2095D01*
Y2085D01*
X1790Y2075D01*
X1770D01*
X1760Y2085D01*
X1740Y2075D02*
X1720Y2095D01*
X1730Y1935D02*
X1740Y1925D01*
Y1905D01*
X1730Y1895D01*
X1700D01*
Y1875D02*
Y1935D01*
X1730D01*
X1760Y1925D02*
X1770Y1935D01*
X1790D01*
X1800Y1925D01*
Y1915D01*
X1790Y1905D01*
X1780D01*
X1790D01*
X1800Y1895D01*
Y1885D01*
X1790Y1875D01*
X1770D01*
X1760Y1885D01*
X1740Y1875D02*
X1720Y1895D01*
X1730Y1735D02*
X1740Y1725D01*
Y1705D01*
X1730Y1695D01*
X1700D01*
Y1675D02*
Y1735D01*
X1730D01*
X1760Y1725D02*
X1770Y1735D01*
X1790D01*
X1800Y1725D01*
Y1715D01*
X1790Y1705D01*
X1780D01*
X1790D01*
X1800Y1695D01*
Y1685D01*
X1790Y1675D01*
X1770D01*
X1760Y1685D01*
X1740Y1675D02*
X1720Y1695D01*
X1730Y1535D02*
X1740Y1525D01*
Y1505D01*
X1730Y1495D01*
X1700D01*
Y1475D02*
Y1535D01*
X1730D01*
X1760Y1525D02*
X1770Y1535D01*
X1790D01*
X1800Y1525D01*
Y1515D01*
X1790Y1505D01*
X1780D01*
X1790D01*
X1800Y1495D01*
Y1485D01*
X1790Y1475D01*
X1770D01*
X1760Y1485D01*
X1740Y1475D02*
X1720Y1495D01*
X1707Y1335D02*
X1747D01*
X1760Y1322D01*
Y1295D01*
X1747Y1282D01*
X1707D01*
Y1255D02*
Y1335D01*
X1733Y1282D02*
X1760Y1255D01*
X1787D02*
Y1268D01*
X1800D01*
Y1255D01*
X1787D01*
X1800Y1215D02*
X1853D01*
X1827D01*
Y1135D01*
X1880D02*
Y1215D01*
X1920D01*
X1933Y1202D01*
Y1175D01*
X1920Y1162D01*
X1880D01*
X1907D02*
X1933Y1135D01*
X1960Y1148D02*
X1973Y1135D01*
X2000D01*
X2013Y1148D01*
Y1215D01*
X2053D02*
X2040Y1202D01*
Y1148D01*
X2053Y1135D01*
X2080D01*
X2093Y1148D01*
Y1202D02*
X2080Y1215D01*
X2053D01*
X2080Y1255D02*
Y1268D01*
X2093D01*
Y1255D01*
X2080D01*
X2027Y1295D02*
X2000D01*
X2027D01*
X2053Y1335D02*
X2000D01*
Y1295D01*
Y1255D01*
X1947D02*
X1933D01*
Y1268D01*
X1947D01*
Y1255D01*
X1907D02*
Y1295D01*
X1853D01*
Y1255D02*
Y1308D01*
X1880Y1335D01*
X1907Y1308D01*
Y1255D01*
X1960Y1215D02*
Y1148D01*
X1773Y1202D02*
X1760Y1215D01*
X1733D01*
X1720Y1202D01*
Y1188D01*
X1733Y1175D01*
X1760D01*
X1773Y1162D01*
Y1148D01*
X1760Y1135D01*
X1733D01*
X1720Y1148D01*
X1693Y1202D02*
X1680Y1215D01*
X1640D01*
Y1135D01*
X1680D01*
X1693Y1148D01*
Y1162D01*
X1680Y1175D01*
X1640D01*
X1680D01*
X1693Y1188D01*
Y1202D01*
X1613D02*
X1600Y1215D01*
X1573D01*
X1560Y1202D01*
Y1148D01*
X1573Y1135D01*
X1600D01*
X1613Y1148D01*
Y1202D01*
Y1268D02*
X1600Y1255D01*
X1573D01*
X1560Y1268D01*
Y1322D01*
X1573Y1335D01*
X1600D01*
X1613Y1322D01*
X1640Y1268D02*
X1653D01*
Y1255D01*
X1640D01*
Y1268D01*
X1830Y1475D02*
X1820Y1485D01*
Y1525D01*
X1830Y1535D01*
X1850D01*
X1860Y1525D01*
Y1485D01*
X1850Y1475D01*
X1830D01*
X1880D02*
X1920Y1515D01*
Y1525D01*
X1910Y1535D01*
X1890D01*
X1880Y1525D01*
Y1475D02*
X1920D01*
Y1685D02*
X1910Y1675D01*
X1890D01*
X1880Y1685D01*
X1860D02*
X1850Y1675D01*
X1830D01*
X1820Y1685D01*
Y1725D01*
X1830Y1735D01*
X1850D01*
X1860Y1725D01*
Y1685D01*
X1920D02*
Y1695D01*
X1910Y1705D01*
X1900D01*
X1910D01*
X1920Y1715D01*
Y1725D01*
X1910Y1735D01*
X1890D01*
X1880Y1725D01*
X1910Y1875D02*
Y1935D01*
X1880Y1905D01*
X1920D01*
X2025Y2000D02*
Y2060D01*
X2055D01*
X2065Y2050D01*
Y2030D01*
X2055Y2020D01*
X2025D01*
X2045D02*
X2065Y2000D01*
X2085Y2020D02*
X2105Y2000D01*
X2125Y2020D01*
Y2060D01*
X2145Y2050D02*
X2155Y2060D01*
X2175D01*
X2185Y2050D01*
Y2040D01*
X2175Y2030D01*
X2165D01*
X2175D01*
X2185Y2020D01*
Y2010D01*
X2175Y2000D01*
X2155D01*
X2145Y2010D01*
X2085Y2020D02*
Y2060D01*
X1920Y2105D02*
Y2085D01*
X1910Y2075D01*
X1890D01*
X1880Y2085D01*
X1860D02*
X1850Y2075D01*
X1830D01*
X1820Y2085D01*
Y2125D01*
X1830Y2135D01*
X1850D01*
X1860Y2125D01*
Y2085D01*
X1850Y1935D02*
X1860Y1925D01*
Y1885D01*
X1850Y1875D01*
X1830D01*
X1820Y1885D01*
Y1925D01*
X1830Y1935D01*
X1850D01*
X1910Y2115D02*
X1920Y2105D01*
X1910Y2115D02*
X1900D01*
X1880Y2105D01*
Y2135D01*
X1920D01*
X2045Y2225D02*
Y2285D01*
X2065D01*
X2025D01*
X2085D02*
X2115D01*
X2125Y2275D01*
Y2255D01*
X2115Y2245D01*
X2085D01*
Y2225D02*
Y2285D01*
X2145D02*
Y2255D01*
X2165Y2265D01*
X2175D01*
X2185Y2255D01*
Y2235D01*
X2175Y2225D01*
X2155D01*
X2145Y2235D01*
Y2285D02*
X2185D01*
X2600Y2790D02*
X2610Y2780D01*
X2630D01*
X2640Y2790D01*
X2660D02*
X2670Y2780D01*
X2690D01*
X2700Y2790D01*
Y2800D01*
X2690Y2810D01*
X2680D01*
X2690D01*
X2700Y2820D01*
Y2830D01*
X2690Y2840D01*
X2670D01*
X2660Y2830D01*
X2640D02*
X2630Y2840D01*
X2610D01*
X2600Y2830D01*
Y2790D01*
X2720D02*
Y2830D01*
X2730Y2840D01*
X2750D01*
X2760Y2830D01*
Y2790D01*
X2750Y2780D01*
X2730D01*
X2720Y2790D01*
X2780D02*
X2790Y2780D01*
X2810D01*
X2820Y2790D01*
Y2800D01*
X2810Y2810D01*
X2800D01*
X2810D01*
X2820Y2820D01*
Y2830D01*
X2810Y2840D01*
X2790D01*
X2780Y2830D01*
X3850Y3375D02*
Y3435D01*
X3880D01*
X3890Y3425D01*
Y3405D01*
X3880Y3395D01*
X3850D01*
X3870D02*
X3890Y3375D01*
X3920D02*
X3910Y3385D01*
X3920Y3375D02*
X3940D01*
X3950Y3385D01*
Y3395D01*
X3940Y3405D01*
X3930D01*
X3940D01*
X3950Y3415D01*
Y3425D01*
X3940Y3435D01*
X3920D01*
X3910Y3425D01*
X3970D02*
X3980Y3435D01*
Y3375D01*
X3990D01*
X3970D01*
X4030D02*
X4020Y3385D01*
Y3425D01*
X4030Y3435D01*
X4050D01*
X4060Y3425D01*
Y3385D01*
X4050Y3375D01*
X4030D01*
X4100D02*
Y3435D01*
X4130D01*
X4140Y3425D01*
Y3405D01*
X4130Y3395D01*
X4100D01*
X4120D02*
X4140Y3375D01*
X4170D02*
X4160Y3385D01*
X4170Y3375D02*
X4190D01*
X4200Y3385D01*
Y3395D01*
X4190Y3405D01*
X4180D01*
X4190D01*
X4200Y3415D01*
Y3425D01*
X4190Y3435D01*
X4170D01*
X4160Y3425D01*
X4220Y3385D02*
Y3425D01*
X4230Y3435D01*
X4250D01*
X4260Y3425D01*
Y3385D01*
X4250Y3375D01*
X4230D01*
X4220Y3385D01*
X4280D02*
X4290Y3375D01*
X4310D01*
X4320Y3385D01*
Y3425D01*
X4310Y3435D01*
X4290D01*
X4280Y3425D01*
Y3415D01*
X4290Y3405D01*
X4320D01*
X4410Y3700D02*
X4390D01*
X4380Y3710D01*
Y3720D01*
X4390Y3730D01*
X4380Y3740D01*
Y3750D01*
X4390Y3760D01*
X4410D01*
X4420Y3750D01*
Y3740D01*
X4410Y3730D01*
X4420Y3720D01*
Y3710D01*
X4410Y3700D01*
Y3730D02*
X4390D01*
X4360Y3750D02*
Y3710D01*
X4350Y3700D01*
X4330D01*
X4320Y3710D01*
Y3750D01*
X4330Y3760D01*
X4350D01*
X4360Y3750D01*
X4300D02*
Y3740D01*
X4290Y3730D01*
X4280D01*
X4290D01*
X4300Y3720D01*
Y3710D01*
X4290Y3700D01*
X4270D01*
X4260Y3710D01*
X4240Y3700D02*
X4220Y3720D01*
X4230D02*
X4200D01*
Y3700D02*
Y3760D01*
X4230D01*
X4240Y3750D01*
Y3730D01*
X4230Y3720D01*
X4260Y3750D02*
X4270Y3760D01*
X4290D01*
X4300Y3750D01*
X3572Y4040D02*
Y4100D01*
X3542Y4070D01*
X3582D01*
X3522Y4090D02*
Y4050D01*
X3512Y4040D01*
X3492D01*
X3482Y4050D01*
Y4090D01*
X3492Y4100D01*
X3512D01*
X3522Y4090D01*
X3462D02*
Y4080D01*
X3452Y4070D01*
X3442D01*
X3452D01*
X3462Y4060D01*
Y4050D01*
X3452Y4040D01*
X3432D01*
X3422Y4050D01*
X3402D02*
X3392Y4040D01*
X3372D01*
X3362Y4050D01*
Y4090D01*
X3372Y4100D01*
X3392D01*
X3402Y4090D01*
X3422D02*
X3432Y4100D01*
X3452D01*
X3462Y4090D01*
X2951Y4410D02*
Y4390D01*
X2941Y4380D01*
Y4360D02*
X2951Y4350D01*
Y4330D01*
X2941Y4320D01*
X2901D01*
X2891Y4330D01*
Y4350D01*
X2901Y4360D01*
X2941D01*
X2921Y4380D02*
X2911Y4400D01*
Y4410D01*
X2921Y4420D01*
X2941D01*
X2951Y4410D01*
X2921Y4380D02*
X2891D01*
Y4420D01*
Y4290D02*
X2901Y4300D01*
X2911D01*
X2921Y4290D01*
Y4280D01*
Y4290D01*
X2931Y4300D01*
X2941D01*
X2951Y4290D01*
Y4270D01*
X2941Y4260D01*
Y4240D02*
X2951Y4230D01*
Y4210D01*
X2941Y4200D01*
X2901D01*
X2891Y4210D01*
Y4230D01*
X2901Y4240D01*
Y4260D02*
X2891Y4270D01*
Y4290D01*
X1399Y2648D02*
X1409Y2638D01*
X1419D01*
X1429Y2648D01*
Y2698D01*
X1419D01*
X1439D01*
X1459Y2688D02*
X1469Y2698D01*
X1489D01*
X1499Y2688D01*
Y2678D01*
X1489Y2668D01*
X1479D01*
X1489D01*
X1499Y2658D01*
Y2648D01*
X1489Y2638D01*
X1469D01*
X1459Y2648D01*
X1265Y2575D02*
X1255Y2585D01*
X1225D01*
Y2525D01*
X1255D01*
X1265Y2535D01*
Y2545D01*
X1255Y2555D01*
X1225D01*
X1255D01*
X1265Y2565D01*
Y2575D01*
Y2365D02*
Y2325D01*
Y2355D01*
X1225D01*
Y2365D02*
X1245Y2385D01*
X1265Y2365D01*
X1225D02*
Y2325D01*
X1199Y2151D02*
X1209Y2141D01*
Y2101D01*
X1199Y2091D01*
X1179D01*
X1169Y2101D01*
Y2141D01*
X1179Y2151D01*
X1199D01*
X1139D02*
X1149Y2141D01*
Y2131D01*
X1139Y2121D01*
X1129D01*
X1139D01*
X1149Y2111D01*
Y2101D01*
X1139Y2091D01*
X1119D01*
X1109Y2101D01*
Y2141D02*
X1119Y2151D01*
X1139D01*
X1229Y2091D02*
X1249D01*
X1239D01*
Y2151D01*
X1229Y2141D01*
X1288Y2008D02*
X1275Y1995D01*
Y1982D01*
X1282Y1975D01*
X1295D01*
X1302Y1982D01*
Y1988D01*
X1295Y1995D01*
X1275D01*
X1282Y1915D02*
X1275Y1908D01*
X1282Y1915D02*
X1295D01*
X1302Y1908D01*
Y1902D01*
X1275Y1875D01*
X1302D01*
X1322D02*
X1315Y1882D01*
Y1908D01*
X1322Y1915D01*
X1335D01*
X1342Y1908D01*
Y1882D01*
X1335Y1875D01*
X1322D01*
X1315Y1815D02*
X1328D01*
X1335Y1808D01*
Y1782D01*
X1328Y1775D01*
X1315D01*
X1308Y1782D01*
Y1808D01*
X1315Y1815D01*
X1302Y1715D02*
X1275D01*
Y1695D01*
X1288Y1702D01*
X1295D01*
X1302Y1695D01*
Y1682D01*
X1295Y1675D01*
X1282D01*
X1275Y1682D01*
X1283Y1590D02*
Y1550D01*
X1310D01*
X1323D02*
X1350D01*
X1363D02*
X1390D01*
X1363D02*
Y1590D01*
X1390D01*
X1377Y1570D02*
X1363D01*
X1323Y1550D02*
Y1590D01*
X1310D02*
X1283D01*
X1270Y1583D02*
X1263Y1590D01*
X1250D01*
X1243Y1583D01*
Y1577D01*
X1250Y1570D01*
X1263D01*
X1270Y1563D01*
Y1557D01*
X1263Y1550D01*
X1250D01*
X1243Y1557D01*
X1283Y1570D02*
X1297D01*
X1190Y1550D02*
Y1590D01*
X1163D02*
X1190Y1550D01*
X1163D02*
Y1590D01*
X1143D02*
X1137D01*
Y1550D01*
X1130D01*
X1143D01*
X1117D02*
Y1570D01*
X1090D01*
Y1577D02*
X1103Y1590D01*
X1117Y1577D01*
Y1550D01*
X1130Y1590D02*
X1143D01*
X1090Y1577D02*
Y1550D01*
X1070D02*
X1077Y1557D01*
Y1570D01*
X1063D01*
X1050Y1557D02*
X1057Y1550D01*
X1070D01*
X1050Y1557D02*
Y1583D01*
X1057Y1590D01*
X1070D01*
X1077Y1583D01*
X1275Y1775D02*
X1288D01*
X1282D01*
Y1815D01*
X1275Y1808D01*
X1335Y1975D02*
X1315Y1995D01*
X1335Y2015D01*
X1355D02*
X1375Y1995D01*
X1355Y1975D01*
X1395D02*
X1388Y1982D01*
Y1995D02*
X1402Y2002D01*
X1408D01*
X1415Y1995D01*
Y1982D01*
X1408Y1975D01*
X1395D01*
X1388Y1995D02*
Y2015D01*
X1415D01*
X1428Y2008D02*
X1435Y2015D01*
X1448D01*
X1455Y2008D01*
Y1982D01*
X1448Y1975D01*
X1435D01*
X1428Y1982D01*
Y2008D01*
X1468D02*
X1475Y2015D01*
X1488D01*
X1495Y2008D01*
Y1982D01*
X1488Y1975D01*
X1475D01*
X1468Y1982D01*
Y2008D01*
X1302Y2015D02*
X1288Y2008D01*
X1079Y2101D02*
X1069Y2091D01*
X1059D01*
X1049Y2101D01*
X1079D02*
Y2151D01*
X1069D01*
X1089D01*
X1410Y1590D02*
X1403Y1583D01*
Y1557D01*
X1410Y1550D01*
X1423D01*
X1430Y1557D01*
Y1583D02*
X1423Y1590D01*
X1410D01*
X1443D02*
X1470D01*
X1457D01*
Y1550D01*
X2288Y1077D02*
Y1057D01*
X3888Y1625D02*
Y1665D01*
%TF.MD5,1dd77ba4371b09987994303c194b85f7*%
M02*
