G04 Layer_Color=2752767*
%FSLAX23Y23*%
%MOIN*%
%TF.FileFunction,Drawing*%
%TF.Part,Single*%
G01*
G75*
%TA.AperFunction,NonConductor*%
%ADD47C,0.005*%
%ADD78C,0.007*%
D47*
X1230Y1230D02*
Y1270D01*
X1270D01*
Y1230D01*
X1230D01*
X1580Y1415D02*
X1590D01*
X1600Y1405D01*
X1610Y1415D01*
X1620D01*
X1610Y1425D01*
X1620Y1435D01*
X1610D01*
X1600Y1445D01*
X1590Y1435D01*
X1580D01*
X1590Y1425D01*
X1580Y1415D01*
X1600Y1605D02*
X1610Y1615D01*
X1620D01*
X1610Y1625D01*
X1620Y1635D01*
X1610D01*
X1600Y1645D01*
X1590Y1635D01*
X1580D01*
X1590Y1625D01*
X1580Y1615D01*
X1590D01*
X1600Y1605D01*
X1880Y1435D02*
X1890Y1425D01*
X1880Y1415D01*
X1890D01*
X1900Y1405D01*
X1910Y1415D01*
X1920D01*
X1910Y1425D01*
X1920Y1435D01*
X1910D01*
X1900Y1445D01*
X1890Y1435D01*
X1880D01*
X2080Y1630D02*
X2090Y1650D01*
X2080Y1670D01*
X2100Y1660D01*
X2120Y1670D01*
X2110Y1650D01*
X2120Y1630D01*
X2100Y1640D01*
X2080Y1630D01*
X2100Y1738D02*
X2080Y1728D01*
X2090Y1748D01*
X2080Y1768D01*
X2100Y1758D01*
X2120Y1768D01*
X2110Y1748D01*
X2120Y1728D01*
X2100Y1738D01*
Y1837D02*
X2080Y1827D01*
X2090Y1847D01*
X2080Y1867D01*
X2100Y1857D01*
X2120Y1867D01*
X2110Y1847D01*
X2120Y1827D01*
X2100Y1837D01*
X1920Y2015D02*
X1910Y2025D01*
X1920Y2035D01*
X1910D01*
X1900Y2045D01*
X1890Y2035D01*
X1880D01*
X1890Y2025D01*
X1880Y2015D01*
X1890D01*
X1900Y2005D01*
X1910Y2015D01*
X1920D01*
X1890Y1835D02*
X1880D01*
X1890Y1825D01*
X1880Y1815D01*
X1890D01*
X1900Y1805D01*
X1910Y1815D01*
X1920D01*
X1910Y1825D01*
X1920Y1835D01*
X1910D01*
X1900Y1845D01*
X1890Y1835D01*
Y1635D02*
X1880D01*
X1890Y1625D01*
X1880Y1615D01*
X1890D01*
X1900Y1605D01*
X1910Y1615D01*
X1920D01*
X1910Y1625D01*
X1920Y1635D01*
X1910D01*
X1900Y1645D01*
X1890Y1635D01*
X1620Y1815D02*
X1610Y1825D01*
X1620Y1835D01*
X1610D01*
X1600Y1845D01*
X1590Y1835D01*
X1580D01*
X1590Y1825D01*
X1580Y1815D01*
X1590D01*
X1600Y1805D01*
X1610Y1815D01*
X1620D01*
Y2015D02*
X1610Y2025D01*
X1620Y2035D01*
X1610D01*
X1600Y2045D01*
X1590Y2035D01*
X1580D01*
X1590Y2025D01*
X1580Y2015D01*
X1590D01*
X1600Y2005D01*
X1610Y2015D01*
X1620D01*
X2005Y2425D02*
X2025Y2445D01*
X2045Y2425D01*
X2025Y2405D01*
X2005Y2425D01*
Y2525D02*
X2025Y2545D01*
X2045Y2525D01*
X2025Y2505D01*
X2005Y2525D01*
Y2625D02*
X2025Y2645D01*
X2045Y2625D01*
X2025Y2605D01*
X2005Y2625D01*
Y2725D02*
X2025Y2745D01*
X2045Y2725D01*
X2025Y2705D01*
X2005Y2725D01*
X2305Y2425D02*
X2325Y2445D01*
X2345Y2425D01*
X2325Y2405D01*
X2305Y2425D01*
Y2525D02*
X2325Y2545D01*
X2345Y2525D01*
X2325Y2505D01*
X2305Y2525D01*
Y2625D02*
X2325Y2645D01*
X2345Y2625D01*
X2325Y2605D01*
X2305Y2625D01*
Y2725D02*
X2325Y2745D01*
X2345Y2725D01*
X2325Y2705D01*
X2305Y2725D01*
X2642Y2640D02*
X2682D01*
X2662Y2600D01*
X2642Y2640D01*
X2740D02*
X2780D01*
X2760Y2600D01*
X2740Y2640D01*
X2828Y3255D02*
X2838Y3275D01*
X2828Y3295D01*
X2848Y3285D01*
X2868Y3295D01*
X2858Y3275D01*
X2868Y3255D01*
X2848Y3265D01*
X2828Y3255D01*
X2770D02*
X2750Y3265D01*
X2730Y3255D01*
X2740Y3275D01*
X2730Y3295D01*
X2750Y3285D01*
X2770Y3295D01*
X2760Y3275D01*
X2770Y3255D01*
X2672D02*
X2652Y3265D01*
X2632Y3255D01*
X2642Y3275D01*
X2632Y3295D01*
X2652Y3285D01*
X2672Y3295D01*
X2662Y3275D01*
X2672Y3255D01*
X2345Y3515D02*
X2335Y3525D01*
X2345Y3535D01*
X2335D01*
X2325Y3545D01*
X2315Y3535D01*
X2305D01*
X2315Y3525D01*
X2305Y3515D01*
X2315D01*
X2325Y3505D01*
X2335Y3515D01*
X2345D01*
X2480Y3615D02*
X2490D01*
X2500Y3605D01*
X2510Y3615D01*
X2520D01*
X2510Y3625D01*
X2520Y3635D01*
X2510D01*
X2500Y3645D01*
X2490Y3635D01*
X2480D01*
X2490Y3625D01*
X2480Y3615D01*
X2345Y3815D02*
X2335Y3825D01*
X2345Y3835D01*
X2335D01*
X2325Y3845D01*
X2315Y3835D01*
X2305D01*
X2315Y3825D01*
X2305Y3815D01*
X2315D01*
X2325Y3805D01*
X2335Y3815D01*
X2345D01*
X2360Y4055D02*
X2370D01*
X2380Y4065D01*
X2390Y4055D01*
X2400D01*
Y4065D01*
X2390Y4075D01*
X2400Y4085D01*
Y4095D01*
X2390D01*
X2380Y4085D01*
X2370Y4095D01*
X2360D01*
Y4085D01*
X2370Y4075D01*
X2360Y4065D01*
Y4055D01*
Y4155D02*
X2370D01*
X2380Y4165D01*
X2390Y4155D01*
X2400D01*
Y4165D01*
X2390Y4175D01*
X2400Y4185D01*
Y4195D01*
X2390D01*
X2380Y4185D01*
X2370Y4195D01*
X2360D01*
Y4185D01*
X2370Y4175D01*
X2360Y4165D01*
Y4155D01*
Y4255D02*
X2370D01*
X2380Y4265D01*
X2390Y4255D01*
X2400D01*
Y4265D01*
X2390Y4275D01*
X2400Y4285D01*
Y4295D01*
X2390D01*
X2380Y4285D01*
X2370Y4295D01*
X2360D01*
Y4285D01*
X2370Y4275D01*
X2360Y4265D01*
Y4255D01*
Y4355D02*
X2370D01*
X2380Y4365D01*
X2390Y4355D01*
X2400D01*
Y4365D01*
X2390Y4375D01*
X2400Y4385D01*
Y4395D01*
X2390D01*
X2380Y4385D01*
X2370Y4395D01*
X2360D01*
Y4385D01*
X2370Y4375D01*
X2360Y4365D01*
Y4355D01*
X2671Y4280D02*
X2651Y4320D01*
X2691D01*
X2671Y4280D01*
X2769D02*
X2749Y4320D01*
X2789D01*
X2769Y4280D01*
X2780Y3635D02*
X2790Y3625D01*
X2780Y3615D01*
X2790D01*
X2800Y3605D01*
X2810Y3615D01*
X2820D01*
X2810Y3625D01*
X2820Y3635D01*
X2810D01*
X2800Y3645D01*
X2790Y3635D01*
X2780D01*
X2145Y3815D02*
X2135Y3825D01*
X2145Y3835D01*
X2135D01*
X2125Y3845D01*
X2115Y3835D01*
X2105D01*
X2115Y3825D01*
X2105Y3815D01*
X2115D01*
X2125Y3805D01*
X2135Y3815D01*
X2145D01*
X2090Y4055D02*
Y4065D01*
X2080Y4075D01*
X2090Y4085D01*
Y4095D01*
X2080D01*
X2070Y4085D01*
X2060Y4095D01*
X2050D01*
Y4085D01*
X2060Y4075D01*
X2050Y4065D01*
Y4055D01*
X2060D01*
X2070Y4065D01*
X2080Y4055D01*
X2090D01*
Y4155D02*
Y4165D01*
X2080Y4175D01*
X2090Y4185D01*
Y4195D01*
X2080D01*
X2070Y4185D01*
X2060Y4195D01*
X2050D01*
Y4185D01*
X2060Y4175D01*
X2050Y4165D01*
Y4155D01*
X2060D01*
X2070Y4165D01*
X2080Y4155D01*
X2090D01*
Y4255D02*
Y4265D01*
X2080Y4275D01*
X2090Y4285D01*
Y4295D01*
X2080D01*
X2070Y4285D01*
X2060Y4295D01*
X2050D01*
Y4285D01*
X2060Y4275D01*
X2050Y4265D01*
Y4255D01*
X2060D01*
X2070Y4265D01*
X2080Y4255D01*
X2090D01*
Y4355D02*
Y4365D01*
X2080Y4375D01*
X2090Y4385D01*
Y4395D01*
X2080D01*
X2070Y4385D01*
X2060Y4395D01*
X2050D01*
Y4385D01*
X2060Y4375D01*
X2050Y4365D01*
Y4355D01*
X2060D01*
X2070Y4365D01*
X2080Y4355D01*
X2090D01*
X1670Y3860D02*
X1660D01*
X1650Y3870D01*
X1640Y3860D01*
X1630D01*
X1640Y3850D01*
X1630Y3840D01*
X1640D01*
X1650Y3830D01*
X1660Y3840D01*
X1670D01*
X1660Y3850D01*
X1670Y3860D01*
Y3635D02*
X1660D01*
X1650Y3645D01*
X1640Y3635D01*
X1630D01*
X1640Y3625D01*
X1630Y3615D01*
X1640D01*
X1650Y3605D01*
X1660Y3615D01*
X1670D01*
X1660Y3625D01*
X1670Y3635D01*
Y3360D02*
X1660D01*
X1650Y3370D01*
X1640Y3360D01*
X1630D01*
X1640Y3350D01*
X1630Y3340D01*
X1640D01*
X1650Y3330D01*
X1660Y3340D01*
X1670D01*
X1660Y3350D01*
X1670Y3360D01*
X1930D02*
X1940Y3350D01*
X1930Y3340D01*
X1940D01*
X1950Y3330D01*
X1960Y3340D01*
X1970D01*
X1960Y3350D01*
X1970Y3360D01*
X1960D01*
X1950Y3370D01*
X1940Y3360D01*
X1930D01*
X2105Y3515D02*
X2115D01*
X2125Y3505D01*
X2135Y3515D01*
X2145D01*
X2135Y3525D01*
X2145Y3535D01*
X2135D01*
X2125Y3545D01*
X2115Y3535D01*
X2105D01*
X2115Y3525D01*
X2105Y3515D01*
X1970Y3615D02*
X1960Y3625D01*
X1970Y3635D01*
X1960D01*
X1950Y3645D01*
X1940Y3635D01*
X1930D01*
X1940Y3625D01*
X1930Y3615D01*
X1940D01*
X1950Y3605D01*
X1960Y3615D01*
X1970D01*
Y3840D02*
X1960Y3850D01*
X1970Y3860D01*
X1960D01*
X1950Y3870D01*
X1940Y3860D01*
X1930D01*
X1940Y3850D01*
X1930Y3840D01*
X1940D01*
X1950Y3830D01*
X1960Y3840D01*
X1970D01*
X1345Y3585D02*
X1335D01*
Y3595D01*
X1315D01*
Y3585D01*
X1305D01*
Y3565D01*
X1315D01*
Y3555D01*
X1335D01*
Y3565D01*
X1345D01*
Y3585D01*
Y3485D02*
X1335D01*
Y3495D01*
X1315D01*
Y3485D01*
X1305D01*
Y3465D01*
X1315D01*
Y3455D01*
X1335D01*
Y3465D01*
X1345D01*
Y3485D01*
Y3385D02*
X1335D01*
Y3395D01*
X1315D01*
Y3385D01*
X1305D01*
Y3365D01*
X1315D01*
Y3355D01*
X1335D01*
Y3365D01*
X1345D01*
Y3385D01*
X1235Y3455D02*
Y3465D01*
X1245D01*
Y3485D01*
X1235D01*
Y3495D01*
X1215D01*
Y3485D01*
X1205D01*
Y3465D01*
X1215D01*
Y3455D01*
X1235D01*
Y3395D02*
X1215D01*
Y3385D01*
X1205D01*
Y3365D01*
X1215D01*
Y3355D01*
X1235D01*
Y3365D01*
X1245D01*
Y3385D01*
X1235D01*
Y3395D01*
Y3555D02*
Y3565D01*
X1245D01*
Y3585D01*
X1235D01*
Y3595D01*
X1215D01*
Y3585D01*
X1205D01*
Y3565D01*
X1215D01*
Y3555D01*
X1235D01*
X1230Y4230D02*
Y4270D01*
X1270D01*
Y4230D01*
X1230D01*
X1440Y2545D02*
Y2535D01*
X1430D01*
Y2515D01*
X1440D01*
Y2505D01*
X1460D01*
Y2515D01*
X1470D01*
Y2535D01*
X1460D01*
Y2545D01*
X1440D01*
Y2445D02*
Y2435D01*
X1430D01*
Y2415D01*
X1440D01*
Y2405D01*
X1460D01*
Y2415D01*
X1470D01*
Y2435D01*
X1460D01*
Y2445D01*
X1440D01*
X1540D02*
Y2435D01*
X1530D01*
Y2415D01*
X1540D01*
Y2405D01*
X1560D01*
Y2415D01*
X1570D01*
Y2435D01*
X1560D01*
Y2445D01*
X1540D01*
Y2505D02*
X1560D01*
Y2515D01*
X1570D01*
Y2535D01*
X1560D01*
Y2545D01*
X1540D01*
Y2535D01*
X1530D01*
Y2515D01*
X1540D01*
Y2505D01*
X1190Y2020D02*
Y2010D01*
X1180D01*
Y1990D01*
X1190D01*
Y1980D01*
X1210D01*
Y1990D01*
X1220D01*
Y2010D01*
X1210D01*
Y2020D01*
X1190D01*
X1120Y2010D02*
X1110D01*
Y2020D01*
X1090D01*
Y2010D01*
X1080D01*
Y1990D01*
X1090D01*
Y1980D01*
X1110D01*
Y1990D01*
X1120D01*
Y2010D01*
Y1910D02*
X1110D01*
Y1920D01*
X1090D01*
Y1910D01*
X1080D01*
Y1890D01*
X1090D01*
Y1880D01*
X1110D01*
Y1890D01*
X1120D01*
Y1910D01*
X1180D02*
Y1890D01*
X1190D01*
Y1880D01*
X1210D01*
Y1890D01*
X1220D01*
Y1910D01*
X1210D01*
Y1920D01*
X1190D01*
Y1910D01*
X1180D01*
X1190Y1820D02*
Y1810D01*
X1180D01*
Y1790D01*
X1190D01*
Y1780D01*
X1210D01*
Y1790D01*
X1220D01*
Y1810D01*
X1210D01*
Y1820D01*
X1190D01*
X1120Y1810D02*
X1110D01*
Y1820D01*
X1090D01*
Y1810D01*
X1080D01*
Y1790D01*
X1090D01*
Y1780D01*
X1110D01*
Y1790D01*
X1120D01*
Y1810D01*
Y1710D02*
X1110D01*
Y1720D01*
X1090D01*
Y1710D01*
X1080D01*
Y1690D01*
X1090D01*
Y1680D01*
X1110D01*
Y1690D01*
X1120D01*
Y1710D01*
X1180D02*
Y1690D01*
X1190D01*
Y1680D01*
X1210D01*
Y1690D01*
X1220D01*
Y1710D01*
X1210D01*
Y1720D01*
X1190D01*
Y1710D01*
X1180D01*
X2430Y1485D02*
X2440Y1475D01*
X2430Y1465D01*
X2440D01*
X2450Y1455D01*
X2460Y1465D01*
X2470D01*
X2460Y1475D01*
X2470Y1485D01*
X2460D01*
X2450Y1495D01*
X2440Y1485D01*
X2430D01*
X2780D02*
X2790Y1475D01*
X2780Y1465D01*
X2790D01*
X2800Y1455D01*
X2810Y1465D01*
X2820D01*
X2810Y1475D01*
X2820Y1485D01*
X2810D01*
X2800Y1495D01*
X2790Y1485D01*
X2780D01*
X3080D02*
X3090Y1475D01*
X3080Y1465D01*
X3090D01*
X3100Y1455D01*
X3110Y1465D01*
X3120D01*
X3110Y1475D01*
X3120Y1485D01*
X3110D01*
X3100Y1495D01*
X3090Y1485D01*
X3080D01*
X3405Y1733D02*
X3415Y1753D01*
X3405Y1773D01*
X3425Y1763D01*
X3445Y1773D01*
X3435Y1753D01*
X3445Y1733D01*
X3425Y1743D01*
X3405Y1733D01*
Y1832D02*
X3415Y1852D01*
X3405Y1872D01*
X3425Y1862D01*
X3445Y1872D01*
X3435Y1852D01*
X3445Y1832D01*
X3425Y1842D01*
X3405Y1832D01*
Y1930D02*
X3415Y1950D01*
X3405Y1970D01*
X3425Y1960D01*
X3445Y1970D01*
X3435Y1950D01*
X3445Y1930D01*
X3425Y1940D01*
X3405Y1930D01*
X3815Y1770D02*
Y1760D01*
X3805D01*
Y1740D01*
X3815D01*
Y1730D01*
X3835D01*
Y1740D01*
X3845D01*
Y1760D01*
X3835D01*
Y1770D01*
X3815D01*
X3915D02*
Y1760D01*
X3905D01*
Y1740D01*
X3915D01*
Y1730D01*
X3935D01*
Y1740D01*
X3945D01*
Y1760D01*
X3935D01*
Y1770D01*
X3915D01*
Y1830D02*
X3935D01*
Y1840D01*
X3945D01*
Y1860D01*
X3935D01*
Y1870D01*
X3915D01*
Y1860D01*
X3905D01*
Y1840D01*
X3915D01*
Y1830D01*
X3835D02*
Y1840D01*
X3845D01*
Y1860D01*
X3835D01*
Y1870D01*
X3815D01*
Y1860D01*
X3805D01*
Y1840D01*
X3815D01*
Y1830D01*
X3835D01*
X4230Y1270D02*
X4270D01*
Y1230D01*
X4230D01*
Y1270D01*
X4170Y2483D02*
X4150Y2493D01*
X4130Y2483D01*
X4140Y2503D01*
X4130Y2523D01*
X4150Y2513D01*
X4170Y2523D01*
X4160Y2503D01*
X4170Y2483D01*
Y2582D02*
X4150Y2592D01*
X4130Y2582D01*
X4140Y2602D01*
X4130Y2622D01*
X4150Y2612D01*
X4170Y2622D01*
X4160Y2602D01*
X4170Y2582D01*
Y2680D02*
X4150Y2690D01*
X4130Y2680D01*
X4140Y2700D01*
X4130Y2720D01*
X4150Y2710D01*
X4170Y2720D01*
X4160Y2700D01*
X4170Y2680D01*
Y3015D02*
X4160Y3025D01*
X4170Y3035D01*
X4160D01*
X4150Y3045D01*
X4140Y3035D01*
X4130D01*
X4140Y3025D01*
X4130Y3015D01*
X4140D01*
X4150Y3005D01*
X4160Y3015D01*
X4170D01*
X3945D02*
X3935Y3025D01*
X3945Y3035D01*
X3935D01*
X3925Y3045D01*
X3915Y3035D01*
X3905D01*
X3915Y3025D01*
X3905Y3015D01*
X3915D01*
X3925Y3005D01*
X3935Y3015D01*
X3945D01*
X3745Y3250D02*
Y3260D01*
X3735Y3270D01*
X3745Y3280D01*
Y3290D01*
X3735D01*
X3725Y3280D01*
X3715Y3290D01*
X3705D01*
Y3280D01*
X3715Y3270D01*
X3705Y3260D01*
Y3250D01*
X3715D01*
X3725Y3260D01*
X3735Y3250D01*
X3745D01*
X3645D02*
Y3260D01*
X3635Y3270D01*
X3645Y3280D01*
Y3290D01*
X3635D01*
X3625Y3280D01*
X3615Y3290D01*
X3605D01*
Y3280D01*
X3615Y3270D01*
X3605Y3260D01*
Y3250D01*
X3615D01*
X3625Y3260D01*
X3635Y3250D01*
X3645D01*
X3545D02*
Y3260D01*
X3535Y3270D01*
X3545Y3280D01*
Y3290D01*
X3535D01*
X3525Y3280D01*
X3515Y3290D01*
X3505D01*
Y3280D01*
X3515Y3270D01*
X3505Y3260D01*
Y3250D01*
X3515D01*
X3525Y3260D01*
X3535Y3250D01*
X3545D01*
X3445D02*
Y3260D01*
X3435Y3270D01*
X3445Y3280D01*
Y3290D01*
X3435D01*
X3425Y3280D01*
X3415Y3290D01*
X3405D01*
Y3280D01*
X3415Y3270D01*
X3405Y3260D01*
Y3250D01*
X3415D01*
X3425Y3260D01*
X3435Y3250D01*
X3445D01*
X3705Y3560D02*
X3715D01*
X3725Y3570D01*
X3735Y3560D01*
X3745D01*
Y3570D01*
X3735Y3580D01*
X3745Y3590D01*
Y3600D01*
X3735D01*
X3725Y3590D01*
X3715Y3600D01*
X3705D01*
Y3590D01*
X3715Y3580D01*
X3705Y3570D01*
Y3560D01*
X3645D02*
Y3570D01*
X3635Y3580D01*
X3645Y3590D01*
Y3600D01*
X3635D01*
X3625Y3590D01*
X3615Y3600D01*
X3605D01*
Y3590D01*
X3615Y3580D01*
X3605Y3570D01*
Y3560D01*
X3615D01*
X3625Y3570D01*
X3635Y3560D01*
X3645D01*
X3545D02*
Y3570D01*
X3535Y3580D01*
X3545Y3590D01*
Y3600D01*
X3535D01*
X3525Y3590D01*
X3515Y3600D01*
X3505D01*
Y3590D01*
X3515Y3580D01*
X3505Y3570D01*
Y3560D01*
X3515D01*
X3525Y3570D01*
X3535Y3560D01*
X3545D01*
X3445D02*
Y3570D01*
X3435Y3580D01*
X3445Y3590D01*
Y3600D01*
X3435D01*
X3425Y3590D01*
X3415Y3600D01*
X3405D01*
Y3590D01*
X3415Y3580D01*
X3405Y3570D01*
Y3560D01*
X3415D01*
X3425Y3570D01*
X3435Y3560D01*
X3445D01*
X3520Y3860D02*
X3500Y3900D01*
X3540D01*
X3520Y3860D01*
X3442Y3900D02*
X3422Y3860D01*
X3402Y3900D01*
X3442D01*
X3905Y3335D02*
X3915Y3325D01*
X3905Y3315D01*
X3915D01*
X3925Y3305D01*
X3935Y3315D01*
X3945D01*
X3935Y3325D01*
X3945Y3335D01*
X3935D01*
X3925Y3345D01*
X3915Y3335D01*
X3905D01*
X4130D02*
X4140Y3325D01*
X4130Y3315D01*
X4140D01*
X4150Y3305D01*
X4160Y3315D01*
X4170D01*
X4160Y3325D01*
X4170Y3335D01*
X4160D01*
X4150Y3345D01*
X4140Y3335D01*
X4130D01*
Y3565D02*
X4140D01*
X4150Y3555D01*
X4160Y3565D01*
X4170D01*
X4160Y3575D01*
X4170Y3585D01*
X4160D01*
X4150Y3595D01*
X4140Y3585D01*
X4130D01*
X4140Y3575D01*
X4130Y3565D01*
Y3865D02*
X4140D01*
X4150Y3855D01*
X4160Y3865D01*
X4170D01*
X4160Y3875D01*
X4170Y3885D01*
X4160D01*
X4150Y3895D01*
X4140Y3885D01*
X4130D01*
X4140Y3875D01*
X4130Y3865D01*
X4230Y4230D02*
Y4270D01*
X4270D01*
Y4230D01*
X4230D01*
X3460Y2598D02*
X3500D01*
X3480Y2558D01*
X3460Y2598D01*
Y2500D02*
X3500D01*
X3480Y2460D01*
X3460Y2500D01*
X2918Y1940D02*
X2898Y1900D01*
X2878Y1940D01*
X2918D01*
X2820D02*
X2800Y1900D01*
X2780Y1940D01*
X2820D01*
X2470Y1785D02*
X2460D01*
X2450Y1795D01*
X2440Y1785D01*
X2430D01*
X2440Y1775D01*
X2430Y1765D01*
X2440D01*
X2450Y1755D01*
X2460Y1765D01*
X2470D01*
X2460Y1775D01*
X2470Y1785D01*
D78*
X2120Y1450D02*
G03*
X2120Y1450I-20J0D01*
G01*
X2470Y2000D02*
G03*
X2470Y2000I-20J0D01*
G01*
X2120Y2150D02*
G03*
X2120Y2150I-20J0D01*
G01*
X1145Y2550D02*
G03*
X1145Y2550I-20J0D01*
G01*
Y2350D02*
G03*
X1145Y2350I-20J0D01*
G01*
X1645Y4000D02*
G03*
X1645Y4000I-20J0D01*
G01*
X3270Y3075D02*
G03*
X3270Y3075I-20J0D01*
G01*
X3470D02*
G03*
X3470Y3075I-20J0D01*
G01*
X3620Y2175D02*
G03*
X3620Y2175I-20J0D01*
G01*
X3945Y2150D02*
G03*
X3945Y2150I-20J0D01*
G01*
%TF.MD5,d937d3899c609c12e99f6875dc23e5b6*%
M02*
