G04 Layer_Physical_Order=2*
G04 Layer_Color=16711680*
%FSLAX23Y23*%
%MOIN*%
%TF.FileFunction,Copper,L2,Bot,Signal*%
%TF.Part,Single*%
G01*
G75*
%TA.AperFunction,ViaPad*%
%ADD13C,0.300*%
%ADD14C,0.120*%
%TA.AperFunction,ComponentPad*%
%ADD15R,0.043X0.043*%
%ADD16C,0.043*%
%ADD17R,0.043X0.043*%
%ADD18C,0.055*%
%ADD19C,0.059*%
%ADD20R,0.059X0.059*%
%ADD21C,0.054*%
%ADD22R,0.054X0.054*%
%ADD23R,0.059X0.059*%
%ADD24C,0.051*%
%ADD25R,0.051X0.051*%
%ADD26C,0.059*%
%ADD27R,0.059X0.059*%
%ADD28R,0.051X0.051*%
G36*
X4500Y1000D02*
X1000D01*
Y4500D01*
X4500D01*
Y1000D01*
D02*
G37*
%LPC*%
G36*
X2305Y2459D02*
X2297Y2453D01*
X2291Y2445D01*
X2305D01*
Y2459D01*
D02*
G37*
G36*
X2345D02*
Y2445D01*
X2359D01*
X2353Y2453D01*
X2345Y2459D01*
D02*
G37*
G36*
X2045D02*
Y2445D01*
X2059D01*
X2053Y2453D01*
X2045Y2459D01*
D02*
G37*
G36*
X1430Y2456D02*
X1424Y2451D01*
X1419Y2445D01*
X1430D01*
Y2456D01*
D02*
G37*
G36*
X2005Y2459D02*
X1997Y2453D01*
X1991Y2445D01*
X2005D01*
Y2459D01*
D02*
G37*
G36*
X1125Y2630D02*
X1109Y2629D01*
X1094Y2624D01*
X1081Y2617D01*
X1068Y2607D01*
X1058Y2594D01*
X1051Y2581D01*
X1046Y2566D01*
X1045Y2550D01*
X1046Y2534D01*
X1051Y2519D01*
X1058Y2506D01*
X1068Y2493D01*
X1081Y2483D01*
X1094Y2476D01*
X1109Y2471D01*
X1125Y2470D01*
X1141Y2471D01*
X1156Y2476D01*
X1169Y2483D01*
X1182Y2493D01*
X1192Y2506D01*
X1199Y2519D01*
X1204Y2534D01*
X1205Y2550D01*
X1204Y2566D01*
X1199Y2581D01*
X1192Y2594D01*
X1182Y2607D01*
X1169Y2617D01*
X1156Y2624D01*
X1141Y2629D01*
X1125Y2630D01*
D02*
G37*
G36*
X1550Y2572D02*
X1538Y2570D01*
X1526Y2566D01*
X1517Y2558D01*
X1509Y2549D01*
X1505Y2537D01*
X1503Y2525D01*
X1505Y2513D01*
X1509Y2501D01*
X1517Y2492D01*
X1526Y2484D01*
X1538Y2480D01*
X1550Y2478D01*
X1562Y2480D01*
X1574Y2484D01*
X1583Y2492D01*
X1591Y2501D01*
X1595Y2513D01*
X1597Y2525D01*
X1595Y2537D01*
X1591Y2549D01*
X1583Y2558D01*
X1574Y2566D01*
X1562Y2570D01*
X1550Y2572D01*
D02*
G37*
G36*
X4190Y2483D02*
X4170D01*
Y2463D01*
X4180D01*
X4184Y2464D01*
X4187Y2466D01*
X4189Y2470D01*
X4190Y2473D01*
Y2483D01*
D02*
G37*
G36*
X1470Y2456D02*
Y2445D01*
X1481D01*
X1476Y2451D01*
X1470Y2456D01*
D02*
G37*
G36*
X4130Y2483D02*
X4110D01*
Y2473D01*
X4111Y2470D01*
X4113Y2466D01*
X4116Y2464D01*
X4120Y2463D01*
X4130D01*
Y2483D01*
D02*
G37*
G36*
X3502Y2522D02*
X3458D01*
X3451Y2520D01*
X3444Y2516D01*
X3440Y2509D01*
X3438Y2502D01*
Y2458D01*
X3440Y2451D01*
X3444Y2444D01*
X3451Y2440D01*
X3458Y2438D01*
X3502D01*
X3509Y2440D01*
X3516Y2444D01*
X3520Y2451D01*
X3522Y2458D01*
Y2502D01*
X3520Y2509D01*
X3516Y2516D01*
X3509Y2520D01*
X3502Y2522D01*
D02*
G37*
G36*
X1550Y2472D02*
X1538Y2470D01*
X1526Y2466D01*
X1517Y2458D01*
X1509Y2449D01*
X1505Y2437D01*
X1503Y2425D01*
X1505Y2413D01*
X1509Y2401D01*
X1517Y2392D01*
X1526Y2384D01*
X1538Y2380D01*
X1550Y2378D01*
X1562Y2380D01*
X1574Y2384D01*
X1583Y2392D01*
X1591Y2401D01*
X1595Y2413D01*
X1597Y2425D01*
X1595Y2437D01*
X1591Y2449D01*
X1583Y2458D01*
X1574Y2466D01*
X1562Y2470D01*
X1550Y2472D01*
D02*
G37*
G36*
X2005Y2405D02*
X1991D01*
X1997Y2397D01*
X2005Y2391D01*
Y2405D01*
D02*
G37*
G36*
X1125Y2430D02*
X1109Y2429D01*
X1094Y2424D01*
X1081Y2417D01*
X1068Y2407D01*
X1058Y2394D01*
X1051Y2381D01*
X1046Y2366D01*
X1045Y2350D01*
X1046Y2334D01*
X1051Y2319D01*
X1058Y2306D01*
X1068Y2293D01*
X1081Y2283D01*
X1094Y2276D01*
X1109Y2271D01*
X1125Y2270D01*
X1141Y2271D01*
X1156Y2276D01*
X1169Y2283D01*
X1182Y2293D01*
X1192Y2306D01*
X1199Y2319D01*
X1204Y2334D01*
X1205Y2350D01*
X1204Y2366D01*
X1199Y2381D01*
X1192Y2394D01*
X1182Y2407D01*
X1169Y2417D01*
X1156Y2424D01*
X1141Y2429D01*
X1125Y2430D01*
D02*
G37*
G36*
X3925Y2230D02*
X3909Y2229D01*
X3894Y2224D01*
X3881Y2217D01*
X3868Y2207D01*
X3858Y2194D01*
X3851Y2181D01*
X3846Y2166D01*
X3845Y2150D01*
X3846Y2134D01*
X3851Y2119D01*
X3858Y2106D01*
X3868Y2093D01*
X3881Y2083D01*
X3894Y2076D01*
X3909Y2071D01*
X3925Y2070D01*
X3941Y2071D01*
X3956Y2076D01*
X3969Y2083D01*
X3982Y2093D01*
X3992Y2106D01*
X3999Y2119D01*
X4004Y2134D01*
X4005Y2150D01*
X4004Y2166D01*
X3999Y2181D01*
X3992Y2194D01*
X3982Y2207D01*
X3969Y2217D01*
X3956Y2224D01*
X3941Y2229D01*
X3925Y2230D01*
D02*
G37*
G36*
X3600Y2255D02*
X3584Y2254D01*
X3569Y2249D01*
X3556Y2242D01*
X3543Y2232D01*
X3533Y2219D01*
X3526Y2206D01*
X3521Y2191D01*
X3520Y2175D01*
X3521Y2159D01*
X3526Y2144D01*
X3533Y2131D01*
X3543Y2118D01*
X3556Y2108D01*
X3569Y2101D01*
X3584Y2096D01*
X3600Y2095D01*
X3616Y2096D01*
X3631Y2101D01*
X3644Y2108D01*
X3657Y2118D01*
X3667Y2131D01*
X3674Y2144D01*
X3679Y2159D01*
X3680Y2175D01*
X3679Y2191D01*
X3674Y2206D01*
X3667Y2219D01*
X3657Y2232D01*
X3644Y2242D01*
X3631Y2249D01*
X3616Y2254D01*
X3600Y2255D01*
D02*
G37*
G36*
X1430Y2405D02*
X1419D01*
X1424Y2399D01*
X1430Y2394D01*
Y2405D01*
D02*
G37*
G36*
X1481D02*
X1470D01*
Y2394D01*
X1476Y2399D01*
X1481Y2405D01*
D02*
G37*
G36*
X2359D02*
X2345D01*
Y2391D01*
X2353Y2397D01*
X2359Y2405D01*
D02*
G37*
G36*
X2059D02*
X2045D01*
Y2391D01*
X2053Y2397D01*
X2059Y2405D01*
D02*
G37*
G36*
X2305D02*
X2291D01*
X2297Y2397D01*
X2305Y2391D01*
Y2405D01*
D02*
G37*
G36*
X2780Y2645D02*
Y2640D01*
X2785D01*
X2783Y2643D01*
X2780Y2645D01*
D02*
G37*
G36*
X3925Y3073D02*
X3913Y3071D01*
X3901Y3066D01*
X3891Y3059D01*
X3884Y3049D01*
X3879Y3037D01*
X3877Y3025D01*
X3879Y3013D01*
X3884Y3001D01*
X3891Y2991D01*
X3901Y2984D01*
X3913Y2979D01*
X3925Y2977D01*
X3937Y2979D01*
X3949Y2984D01*
X3959Y2991D01*
X3966Y3001D01*
X3971Y3013D01*
X3973Y3025D01*
X3971Y3037D01*
X3966Y3049D01*
X3959Y3059D01*
X3949Y3066D01*
X3937Y3071D01*
X3925Y3073D01*
D02*
G37*
G36*
X2740Y2645D02*
X2737Y2643D01*
X2735Y2640D01*
X2740D01*
Y2645D01*
D02*
G37*
G36*
X3460Y2603D02*
X3457Y2601D01*
X3455Y2598D01*
X3460D01*
Y2603D01*
D02*
G37*
G36*
X3500D02*
Y2598D01*
X3505D01*
X3503Y2601D01*
X3500Y2603D01*
D02*
G37*
G36*
X3625Y3316D02*
X3613Y3314D01*
X3602Y3310D01*
X3593Y3302D01*
X3585Y3293D01*
X3581Y3282D01*
X3579Y3270D01*
X3581Y3258D01*
X3585Y3247D01*
X3593Y3238D01*
X3602Y3230D01*
X3613Y3226D01*
X3625Y3224D01*
X3637Y3226D01*
X3648Y3230D01*
X3657Y3238D01*
X3665Y3247D01*
X3669Y3258D01*
X3671Y3270D01*
X3669Y3282D01*
X3665Y3293D01*
X3657Y3302D01*
X3648Y3310D01*
X3637Y3314D01*
X3625Y3316D01*
D02*
G37*
G36*
X2632Y3255D02*
X2617D01*
X2617Y3255D01*
X2623Y3247D01*
X2632Y3240D01*
X2632Y3240D01*
Y3255D01*
D02*
G37*
G36*
X3525Y3316D02*
X3513Y3314D01*
X3502Y3310D01*
X3493Y3302D01*
X3485Y3293D01*
X3481Y3282D01*
X3479Y3270D01*
X3481Y3258D01*
X3485Y3247D01*
X3493Y3238D01*
X3502Y3230D01*
X3513Y3226D01*
X3525Y3224D01*
X3537Y3226D01*
X3548Y3230D01*
X3557Y3238D01*
X3565Y3247D01*
X3569Y3258D01*
X3571Y3270D01*
X3569Y3282D01*
X3565Y3293D01*
X3557Y3302D01*
X3548Y3310D01*
X3537Y3314D01*
X3525Y3316D01*
D02*
G37*
G36*
X4150Y3073D02*
X4138Y3071D01*
X4126Y3066D01*
X4116Y3059D01*
X4109Y3049D01*
X4104Y3037D01*
X4102Y3025D01*
X4104Y3013D01*
X4109Y3001D01*
X4116Y2991D01*
X4126Y2984D01*
X4138Y2979D01*
X4150Y2977D01*
X4162Y2979D01*
X4174Y2984D01*
X4184Y2991D01*
X4191Y3001D01*
X4196Y3013D01*
X4198Y3025D01*
X4196Y3037D01*
X4191Y3049D01*
X4184Y3059D01*
X4174Y3066D01*
X4162Y3071D01*
X4150Y3073D01*
D02*
G37*
G36*
X3450Y3155D02*
X3434Y3154D01*
X3419Y3149D01*
X3406Y3142D01*
X3393Y3132D01*
X3383Y3119D01*
X3376Y3106D01*
X3371Y3091D01*
X3370Y3075D01*
X3371Y3059D01*
X3376Y3044D01*
X3383Y3031D01*
X3393Y3018D01*
X3406Y3008D01*
X3419Y3001D01*
X3434Y2996D01*
X3450Y2995D01*
X3466Y2996D01*
X3481Y3001D01*
X3494Y3008D01*
X3507Y3018D01*
X3517Y3031D01*
X3524Y3044D01*
X3529Y3059D01*
X3530Y3075D01*
X3529Y3091D01*
X3524Y3106D01*
X3517Y3119D01*
X3507Y3132D01*
X3494Y3142D01*
X3481Y3149D01*
X3466Y3154D01*
X3450Y3155D01*
D02*
G37*
G36*
X2785Y2600D02*
X2780D01*
Y2595D01*
X2783Y2597D01*
X2785Y2600D01*
D02*
G37*
G36*
X4180Y2543D02*
X4170D01*
Y2523D01*
X4190D01*
Y2533D01*
X4189Y2537D01*
X4187Y2540D01*
X4184Y2542D01*
X4180Y2543D01*
D02*
G37*
G36*
X1430Y2562D02*
X1423D01*
X1419Y2561D01*
X1416Y2559D01*
X1414Y2556D01*
X1413Y2552D01*
Y2545D01*
X1430D01*
Y2562D01*
D02*
G37*
G36*
X4130Y2543D02*
X4120D01*
X4116Y2542D01*
X4113Y2540D01*
X4111Y2537D01*
X4110Y2533D01*
Y2523D01*
X4130D01*
Y2543D01*
D02*
G37*
G36*
X1430Y2505D02*
X1413D01*
Y2498D01*
X1414Y2494D01*
X1416Y2491D01*
X1419Y2489D01*
X1423Y2488D01*
X1430D01*
Y2505D01*
D02*
G37*
G36*
X1487D02*
X1470D01*
Y2488D01*
X1477D01*
X1481Y2489D01*
X1484Y2491D01*
X1486Y2494D01*
X1487Y2498D01*
Y2505D01*
D02*
G37*
G36*
X3505Y2558D02*
X3500D01*
Y2554D01*
X3503Y2556D01*
X3505Y2558D01*
D02*
G37*
G36*
X2740Y2600D02*
X2735D01*
X2737Y2597D01*
X2740Y2595D01*
Y2600D01*
D02*
G37*
G36*
X3460Y2558D02*
X3455D01*
X3457Y2556D01*
X3460Y2554D01*
Y2558D01*
D02*
G37*
G36*
X1477Y2562D02*
X1470D01*
Y2545D01*
X1487D01*
Y2552D01*
X1486Y2556D01*
X1484Y2559D01*
X1481Y2561D01*
X1477Y2562D01*
D02*
G37*
G36*
X4150Y2750D02*
X4137Y2748D01*
X4125Y2743D01*
X4115Y2735D01*
X4107Y2725D01*
X4102Y2713D01*
X4100Y2700D01*
X4102Y2687D01*
X4107Y2675D01*
X4115Y2665D01*
X4125Y2657D01*
X4133Y2653D01*
Y2648D01*
X4125Y2645D01*
X4115Y2637D01*
X4107Y2626D01*
X4102Y2614D01*
X4100Y2602D01*
X4102Y2589D01*
X4107Y2577D01*
X4115Y2566D01*
X4125Y2558D01*
X4137Y2553D01*
X4150Y2552D01*
X4163Y2553D01*
X4175Y2558D01*
X4185Y2566D01*
X4193Y2577D01*
X4198Y2589D01*
X4200Y2602D01*
X4198Y2614D01*
X4193Y2626D01*
X4185Y2637D01*
X4175Y2645D01*
X4167Y2648D01*
Y2653D01*
X4175Y2657D01*
X4185Y2665D01*
X4193Y2675D01*
X4198Y2687D01*
X4200Y2700D01*
X4198Y2713D01*
X4193Y2725D01*
X4185Y2735D01*
X4175Y2743D01*
X4163Y2748D01*
X4150Y2750D01*
D02*
G37*
G36*
X1600Y1673D02*
X1588Y1671D01*
X1576Y1666D01*
X1566Y1659D01*
X1559Y1649D01*
X1554Y1637D01*
X1552Y1625D01*
X1554Y1613D01*
X1559Y1601D01*
X1566Y1591D01*
X1576Y1584D01*
X1588Y1579D01*
X1600Y1577D01*
X1612Y1579D01*
X1624Y1584D01*
X1634Y1591D01*
X1641Y1601D01*
X1646Y1613D01*
X1648Y1625D01*
X1646Y1637D01*
X1641Y1649D01*
X1634Y1659D01*
X1624Y1666D01*
X1612Y1671D01*
X1600Y1673D01*
D02*
G37*
G36*
X1900D02*
X1888Y1671D01*
X1876Y1666D01*
X1866Y1659D01*
X1859Y1649D01*
X1854Y1637D01*
X1852Y1625D01*
X1854Y1613D01*
X1859Y1601D01*
X1866Y1591D01*
X1876Y1584D01*
X1888Y1579D01*
X1900Y1577D01*
X1912Y1579D01*
X1924Y1584D01*
X1934Y1591D01*
X1941Y1601D01*
X1946Y1613D01*
X1948Y1625D01*
X1946Y1637D01*
X1941Y1649D01*
X1934Y1659D01*
X1924Y1666D01*
X1912Y1671D01*
X1900Y1673D01*
D02*
G37*
G36*
X3100Y1523D02*
X3088Y1521D01*
X3076Y1516D01*
X3066Y1509D01*
X3059Y1499D01*
X3054Y1487D01*
X3052Y1475D01*
X3054Y1463D01*
X3059Y1451D01*
X3066Y1441D01*
X3076Y1434D01*
X3088Y1429D01*
X3100Y1427D01*
X3112Y1429D01*
X3124Y1434D01*
X3134Y1441D01*
X3141Y1451D01*
X3146Y1463D01*
X3148Y1475D01*
X3146Y1487D01*
X3141Y1499D01*
X3134Y1509D01*
X3124Y1516D01*
X3112Y1521D01*
X3100Y1523D01*
D02*
G37*
G36*
X2450D02*
X2438Y1521D01*
X2426Y1516D01*
X2416Y1509D01*
X2409Y1499D01*
X2404Y1487D01*
X2402Y1475D01*
X2404Y1463D01*
X2409Y1451D01*
X2416Y1441D01*
X2426Y1434D01*
X2438Y1429D01*
X2450Y1427D01*
X2462Y1429D01*
X2474Y1434D01*
X2484Y1441D01*
X2491Y1451D01*
X2496Y1463D01*
X2498Y1475D01*
X2496Y1487D01*
X2491Y1499D01*
X2484Y1509D01*
X2474Y1516D01*
X2462Y1521D01*
X2450Y1523D01*
D02*
G37*
G36*
X2800D02*
X2788Y1521D01*
X2776Y1516D01*
X2766Y1509D01*
X2759Y1499D01*
X2754Y1487D01*
X2752Y1475D01*
X2754Y1463D01*
X2759Y1451D01*
X2766Y1441D01*
X2776Y1434D01*
X2788Y1429D01*
X2800Y1427D01*
X2812Y1429D01*
X2824Y1434D01*
X2834Y1441D01*
X2841Y1451D01*
X2846Y1463D01*
X2848Y1475D01*
X2846Y1487D01*
X2841Y1499D01*
X2834Y1509D01*
X2824Y1516D01*
X2812Y1521D01*
X2800Y1523D01*
D02*
G37*
G36*
X3825Y1797D02*
X3813Y1795D01*
X3801Y1791D01*
X3792Y1783D01*
X3784Y1774D01*
X3780Y1762D01*
X3778Y1750D01*
X3780Y1738D01*
X3784Y1726D01*
X3792Y1717D01*
X3801Y1709D01*
X3813Y1705D01*
X3825Y1703D01*
X3837Y1705D01*
X3849Y1709D01*
X3858Y1717D01*
X3866Y1726D01*
X3870Y1738D01*
X3872Y1750D01*
X3870Y1762D01*
X3866Y1774D01*
X3858Y1783D01*
X3849Y1791D01*
X3837Y1795D01*
X3825Y1797D01*
D02*
G37*
G36*
X3925D02*
X3913Y1795D01*
X3901Y1791D01*
X3892Y1783D01*
X3884Y1774D01*
X3880Y1762D01*
X3878Y1750D01*
X3880Y1738D01*
X3884Y1726D01*
X3892Y1717D01*
X3901Y1709D01*
X3913Y1705D01*
X3925Y1703D01*
X3937Y1705D01*
X3949Y1709D01*
X3958Y1717D01*
X3966Y1726D01*
X3970Y1738D01*
X3972Y1750D01*
X3970Y1762D01*
X3966Y1774D01*
X3958Y1783D01*
X3949Y1791D01*
X3937Y1795D01*
X3925Y1797D01*
D02*
G37*
G36*
X1227Y1747D02*
X1173D01*
X1165Y1746D01*
X1159Y1741D01*
X1154Y1735D01*
X1153Y1727D01*
Y1673D01*
X1154Y1665D01*
X1159Y1659D01*
X1165Y1654D01*
X1173Y1653D01*
X1227D01*
X1235Y1654D01*
X1241Y1659D01*
X1246Y1665D01*
X1247Y1673D01*
Y1727D01*
X1246Y1735D01*
X1241Y1741D01*
X1235Y1746D01*
X1227Y1747D01*
D02*
G37*
G36*
X2130Y1897D02*
X2070D01*
X2063Y1895D01*
X2056Y1891D01*
X2052Y1884D01*
X2050Y1877D01*
Y1817D01*
X2052Y1809D01*
X2056Y1803D01*
X2063Y1799D01*
X2070Y1797D01*
X2075D01*
X2076Y1792D01*
X2075Y1792D01*
X2065Y1784D01*
X2057Y1773D01*
X2052Y1761D01*
X2050Y1748D01*
X2052Y1736D01*
X2057Y1724D01*
X2065Y1713D01*
X2075Y1705D01*
X2083Y1702D01*
Y1697D01*
X2075Y1693D01*
X2065Y1685D01*
X2057Y1675D01*
X2052Y1663D01*
X2050Y1650D01*
X2052Y1637D01*
X2057Y1625D01*
X2065Y1615D01*
X2075Y1607D01*
X2087Y1602D01*
X2100Y1600D01*
X2113Y1602D01*
X2125Y1607D01*
X2135Y1615D01*
X2143Y1625D01*
X2148Y1637D01*
X2150Y1650D01*
X2148Y1663D01*
X2143Y1675D01*
X2135Y1685D01*
X2125Y1693D01*
X2117Y1697D01*
Y1702D01*
X2125Y1705D01*
X2135Y1713D01*
X2143Y1724D01*
X2148Y1736D01*
X2150Y1748D01*
X2148Y1761D01*
X2143Y1773D01*
X2135Y1784D01*
X2125Y1792D01*
X2124Y1792D01*
X2125Y1797D01*
X2130D01*
X2137Y1799D01*
X2144Y1803D01*
X2148Y1809D01*
X2150Y1817D01*
Y1877D01*
X2148Y1884D01*
X2144Y1891D01*
X2137Y1895D01*
X2130Y1897D01*
D02*
G37*
G36*
X1100Y1747D02*
X1088Y1745D01*
X1076Y1741D01*
X1067Y1733D01*
X1059Y1724D01*
X1055Y1712D01*
X1053Y1700D01*
X1055Y1688D01*
X1059Y1676D01*
X1067Y1667D01*
X1076Y1659D01*
X1088Y1655D01*
X1100Y1653D01*
X1112Y1655D01*
X1124Y1659D01*
X1133Y1667D01*
X1141Y1676D01*
X1145Y1688D01*
X1147Y1700D01*
X1145Y1712D01*
X1141Y1724D01*
X1133Y1733D01*
X1124Y1741D01*
X1112Y1745D01*
X1100Y1747D01*
D02*
G37*
G36*
X1900Y1473D02*
X1888Y1471D01*
X1876Y1466D01*
X1866Y1459D01*
X1859Y1449D01*
X1854Y1437D01*
X1852Y1425D01*
X1854Y1413D01*
X1859Y1401D01*
X1866Y1391D01*
X1876Y1384D01*
X1888Y1379D01*
X1900Y1377D01*
X1912Y1379D01*
X1924Y1384D01*
X1934Y1391D01*
X1941Y1401D01*
X1946Y1413D01*
X1948Y1425D01*
X1946Y1437D01*
X1941Y1449D01*
X1934Y1459D01*
X1924Y1466D01*
X1912Y1471D01*
X1900Y1473D01*
D02*
G37*
G36*
X4409Y1230D02*
X4270D01*
Y1091D01*
X4275Y1091D01*
X4300Y1097D01*
X4323Y1107D01*
X4344Y1120D01*
X4363Y1137D01*
X4380Y1156D01*
X4393Y1177D01*
X4403Y1200D01*
X4409Y1225D01*
X4409Y1230D01*
D02*
G37*
G36*
X1230Y1409D02*
X1225Y1409D01*
X1200Y1403D01*
X1177Y1393D01*
X1156Y1380D01*
X1137Y1363D01*
X1120Y1344D01*
X1107Y1323D01*
X1097Y1300D01*
X1091Y1275D01*
X1091Y1270D01*
X1230D01*
Y1409D01*
D02*
G37*
G36*
X4230Y1230D02*
X4091D01*
X4091Y1225D01*
X4097Y1200D01*
X4107Y1177D01*
X4120Y1156D01*
X4137Y1137D01*
X4156Y1120D01*
X4177Y1107D01*
X4200Y1097D01*
X4225Y1091D01*
X4230Y1091D01*
Y1230D01*
D02*
G37*
G36*
X1230D02*
X1091D01*
X1091Y1225D01*
X1097Y1200D01*
X1107Y1177D01*
X1120Y1156D01*
X1137Y1137D01*
X1156Y1120D01*
X1177Y1107D01*
X1200Y1097D01*
X1225Y1091D01*
X1230Y1091D01*
Y1230D01*
D02*
G37*
G36*
X1409D02*
X1270D01*
Y1091D01*
X1275Y1091D01*
X1300Y1097D01*
X1323Y1107D01*
X1344Y1120D01*
X1363Y1137D01*
X1380Y1156D01*
X1393Y1177D01*
X1403Y1200D01*
X1409Y1225D01*
X1409Y1230D01*
D02*
G37*
G36*
X2100Y1530D02*
X2084Y1529D01*
X2069Y1524D01*
X2056Y1517D01*
X2043Y1507D01*
X2033Y1494D01*
X2026Y1481D01*
X2021Y1466D01*
X2020Y1450D01*
X2021Y1434D01*
X2026Y1419D01*
X2033Y1406D01*
X2043Y1393D01*
X2056Y1383D01*
X2069Y1376D01*
X2084Y1371D01*
X2100Y1370D01*
X2116Y1371D01*
X2131Y1376D01*
X2144Y1383D01*
X2157Y1393D01*
X2167Y1406D01*
X2174Y1419D01*
X2179Y1434D01*
X2180Y1450D01*
X2179Y1466D01*
X2174Y1481D01*
X2167Y1494D01*
X2157Y1507D01*
X2144Y1517D01*
X2131Y1524D01*
X2116Y1529D01*
X2100Y1530D01*
D02*
G37*
G36*
X1600Y1473D02*
X1588Y1471D01*
X1576Y1466D01*
X1566Y1459D01*
X1559Y1449D01*
X1554Y1437D01*
X1552Y1425D01*
X1554Y1413D01*
X1559Y1401D01*
X1566Y1391D01*
X1576Y1384D01*
X1588Y1379D01*
X1600Y1377D01*
X1612Y1379D01*
X1624Y1384D01*
X1634Y1391D01*
X1641Y1401D01*
X1646Y1413D01*
X1648Y1425D01*
X1646Y1437D01*
X1641Y1449D01*
X1634Y1459D01*
X1624Y1466D01*
X1612Y1471D01*
X1600Y1473D01*
D02*
G37*
G36*
X4270Y1409D02*
Y1270D01*
X4409D01*
X4409Y1275D01*
X4403Y1300D01*
X4393Y1323D01*
X4380Y1344D01*
X4363Y1363D01*
X4344Y1380D01*
X4323Y1393D01*
X4300Y1403D01*
X4275Y1409D01*
X4270Y1409D01*
D02*
G37*
G36*
X1270D02*
Y1270D01*
X1409D01*
X1409Y1275D01*
X1403Y1300D01*
X1393Y1323D01*
X1380Y1344D01*
X1363Y1363D01*
X1344Y1380D01*
X1323Y1393D01*
X1300Y1403D01*
X1275Y1409D01*
X1270Y1409D01*
D02*
G37*
G36*
X4230D02*
X4225Y1409D01*
X4200Y1403D01*
X4177Y1393D01*
X4156Y1380D01*
X4137Y1363D01*
X4120Y1344D01*
X4107Y1323D01*
X4097Y1300D01*
X4091Y1275D01*
X4091Y1270D01*
X4230D01*
Y1409D01*
D02*
G37*
G36*
X2878Y1945D02*
X2876Y1943D01*
X2874Y1940D01*
X2878D01*
Y1945D01*
D02*
G37*
G36*
X2918D02*
Y1940D01*
X2923D01*
X2921Y1943D01*
X2918Y1945D01*
D02*
G37*
G36*
X2450Y2080D02*
X2434Y2079D01*
X2419Y2074D01*
X2406Y2067D01*
X2393Y2057D01*
X2383Y2044D01*
X2376Y2031D01*
X2371Y2016D01*
X2370Y2000D01*
X2371Y1984D01*
X2376Y1969D01*
X2383Y1956D01*
X2393Y1943D01*
X2406Y1933D01*
X2419Y1926D01*
X2434Y1921D01*
X2450Y1920D01*
X2466Y1921D01*
X2481Y1926D01*
X2494Y1933D01*
X2507Y1943D01*
X2517Y1956D01*
X2524Y1969D01*
X2529Y1984D01*
X2530Y2000D01*
X2529Y2016D01*
X2524Y2031D01*
X2517Y2044D01*
X2507Y2057D01*
X2494Y2067D01*
X2481Y2074D01*
X2466Y2079D01*
X2450Y2080D01*
D02*
G37*
G36*
X2878Y1900D02*
X2874D01*
X2876Y1897D01*
X2878Y1895D01*
Y1900D01*
D02*
G37*
G36*
X2923D02*
X2918D01*
Y1895D01*
X2921Y1897D01*
X2923Y1900D01*
D02*
G37*
G36*
X1900Y2073D02*
X1888Y2071D01*
X1876Y2066D01*
X1866Y2059D01*
X1859Y2049D01*
X1854Y2037D01*
X1852Y2025D01*
X1854Y2013D01*
X1859Y2001D01*
X1866Y1991D01*
X1876Y1984D01*
X1888Y1979D01*
X1900Y1977D01*
X1912Y1979D01*
X1924Y1984D01*
X1934Y1991D01*
X1941Y2001D01*
X1946Y2013D01*
X1948Y2025D01*
X1946Y2037D01*
X1941Y2049D01*
X1934Y2059D01*
X1924Y2066D01*
X1912Y2071D01*
X1900Y2073D01*
D02*
G37*
G36*
X2100Y2230D02*
X2084Y2229D01*
X2069Y2224D01*
X2056Y2217D01*
X2043Y2207D01*
X2033Y2194D01*
X2026Y2181D01*
X2021Y2166D01*
X2020Y2150D01*
X2021Y2134D01*
X2026Y2119D01*
X2033Y2106D01*
X2043Y2093D01*
X2056Y2083D01*
X2069Y2076D01*
X2084Y2071D01*
X2100Y2070D01*
X2116Y2071D01*
X2131Y2076D01*
X2144Y2083D01*
X2157Y2093D01*
X2167Y2106D01*
X2174Y2119D01*
X2179Y2134D01*
X2180Y2150D01*
X2179Y2166D01*
X2174Y2181D01*
X2167Y2194D01*
X2157Y2207D01*
X2144Y2217D01*
X2131Y2224D01*
X2116Y2229D01*
X2100Y2230D01*
D02*
G37*
G36*
X1600Y2073D02*
X1588Y2071D01*
X1576Y2066D01*
X1566Y2059D01*
X1559Y2049D01*
X1554Y2037D01*
X1552Y2025D01*
X1554Y2013D01*
X1559Y2001D01*
X1566Y1991D01*
X1576Y1984D01*
X1588Y1979D01*
X1600Y1977D01*
X1612Y1979D01*
X1624Y1984D01*
X1634Y1991D01*
X1641Y2001D01*
X1646Y2013D01*
X1648Y2025D01*
X1646Y2037D01*
X1641Y2049D01*
X1634Y2059D01*
X1624Y2066D01*
X1612Y2071D01*
X1600Y2073D01*
D02*
G37*
G36*
X1100Y2047D02*
X1088Y2045D01*
X1076Y2041D01*
X1067Y2033D01*
X1059Y2024D01*
X1055Y2012D01*
X1053Y2000D01*
X1055Y1988D01*
X1059Y1976D01*
X1067Y1967D01*
X1076Y1959D01*
X1088Y1955D01*
X1100Y1953D01*
X1112Y1955D01*
X1124Y1959D01*
X1133Y1967D01*
X1141Y1976D01*
X1145Y1988D01*
X1147Y2000D01*
X1145Y2012D01*
X1141Y2024D01*
X1133Y2033D01*
X1124Y2041D01*
X1112Y2045D01*
X1100Y2047D01*
D02*
G37*
G36*
X1200D02*
X1188Y2045D01*
X1176Y2041D01*
X1167Y2033D01*
X1159Y2024D01*
X1155Y2012D01*
X1153Y2000D01*
X1155Y1988D01*
X1159Y1976D01*
X1167Y1967D01*
X1176Y1959D01*
X1188Y1955D01*
X1200Y1953D01*
X1212Y1955D01*
X1224Y1959D01*
X1233Y1967D01*
X1241Y1976D01*
X1245Y1988D01*
X1247Y2000D01*
X1245Y2012D01*
X1241Y2024D01*
X1233Y2033D01*
X1224Y2041D01*
X1212Y2045D01*
X1200Y2047D01*
D02*
G37*
G36*
X2822Y1962D02*
X2778D01*
X2771Y1960D01*
X2764Y1956D01*
X2760Y1949D01*
X2758Y1942D01*
Y1898D01*
X2760Y1891D01*
X2764Y1884D01*
X2771Y1880D01*
X2778Y1878D01*
X2822D01*
X2829Y1880D01*
X2836Y1884D01*
X2840Y1891D01*
X2842Y1898D01*
Y1942D01*
X2840Y1949D01*
X2836Y1956D01*
X2829Y1960D01*
X2822Y1962D01*
D02*
G37*
G36*
X1200Y1847D02*
X1188Y1845D01*
X1176Y1841D01*
X1167Y1833D01*
X1159Y1824D01*
X1155Y1812D01*
X1153Y1800D01*
X1155Y1788D01*
X1159Y1776D01*
X1167Y1767D01*
X1176Y1759D01*
X1188Y1755D01*
X1200Y1753D01*
X1212Y1755D01*
X1224Y1759D01*
X1233Y1767D01*
X1241Y1776D01*
X1245Y1788D01*
X1247Y1800D01*
X1245Y1812D01*
X1241Y1824D01*
X1233Y1833D01*
X1224Y1841D01*
X1212Y1845D01*
X1200Y1847D01*
D02*
G37*
G36*
X1600Y1873D02*
X1588Y1871D01*
X1576Y1866D01*
X1566Y1859D01*
X1559Y1849D01*
X1554Y1837D01*
X1552Y1825D01*
X1554Y1813D01*
X1559Y1801D01*
X1566Y1791D01*
X1576Y1784D01*
X1588Y1779D01*
X1600Y1777D01*
X1612Y1779D01*
X1624Y1784D01*
X1634Y1791D01*
X1641Y1801D01*
X1646Y1813D01*
X1648Y1825D01*
X1646Y1837D01*
X1641Y1849D01*
X1634Y1859D01*
X1624Y1866D01*
X1612Y1871D01*
X1600Y1873D01*
D02*
G37*
G36*
X1100Y1847D02*
X1088Y1845D01*
X1076Y1841D01*
X1067Y1833D01*
X1059Y1824D01*
X1055Y1812D01*
X1053Y1800D01*
X1055Y1788D01*
X1059Y1776D01*
X1067Y1767D01*
X1076Y1759D01*
X1088Y1755D01*
X1100Y1753D01*
X1112Y1755D01*
X1124Y1759D01*
X1133Y1767D01*
X1141Y1776D01*
X1145Y1788D01*
X1147Y1800D01*
X1145Y1812D01*
X1141Y1824D01*
X1133Y1833D01*
X1124Y1841D01*
X1112Y1845D01*
X1100Y1847D01*
D02*
G37*
G36*
X3425Y2000D02*
X3412Y1998D01*
X3400Y1993D01*
X3390Y1985D01*
X3382Y1975D01*
X3377Y1963D01*
X3375Y1950D01*
X3377Y1937D01*
X3382Y1925D01*
X3390Y1915D01*
X3400Y1907D01*
X3408Y1903D01*
Y1898D01*
X3400Y1895D01*
X3390Y1887D01*
X3382Y1876D01*
X3377Y1864D01*
X3375Y1852D01*
X3377Y1839D01*
X3382Y1827D01*
X3390Y1816D01*
X3400Y1808D01*
X3401Y1808D01*
X3400Y1803D01*
X3395D01*
X3388Y1801D01*
X3381Y1797D01*
X3377Y1791D01*
X3375Y1783D01*
Y1723D01*
X3377Y1716D01*
X3381Y1709D01*
X3388Y1705D01*
X3395Y1703D01*
X3455D01*
X3462Y1705D01*
X3469Y1709D01*
X3473Y1716D01*
X3475Y1723D01*
Y1783D01*
X3473Y1791D01*
X3469Y1797D01*
X3462Y1801D01*
X3455Y1803D01*
X3450D01*
X3449Y1808D01*
X3450Y1808D01*
X3460Y1816D01*
X3468Y1827D01*
X3473Y1839D01*
X3475Y1852D01*
X3473Y1864D01*
X3468Y1876D01*
X3460Y1887D01*
X3450Y1895D01*
X3442Y1898D01*
Y1903D01*
X3450Y1907D01*
X3460Y1915D01*
X3468Y1925D01*
X3473Y1937D01*
X3475Y1950D01*
X3473Y1963D01*
X3468Y1975D01*
X3460Y1985D01*
X3450Y1993D01*
X3438Y1998D01*
X3425Y2000D01*
D02*
G37*
G36*
X2450Y1823D02*
X2438Y1821D01*
X2426Y1816D01*
X2416Y1809D01*
X2409Y1799D01*
X2404Y1787D01*
X2402Y1775D01*
X2404Y1763D01*
X2409Y1751D01*
X2416Y1741D01*
X2426Y1734D01*
X2438Y1729D01*
X2450Y1727D01*
X2462Y1729D01*
X2474Y1734D01*
X2484Y1741D01*
X2491Y1751D01*
X2496Y1763D01*
X2498Y1775D01*
X2496Y1787D01*
X2491Y1799D01*
X2484Y1809D01*
X2474Y1816D01*
X2462Y1821D01*
X2450Y1823D01*
D02*
G37*
G36*
X1100Y1947D02*
X1088Y1945D01*
X1076Y1941D01*
X1067Y1933D01*
X1059Y1924D01*
X1055Y1912D01*
X1053Y1900D01*
X1055Y1888D01*
X1059Y1876D01*
X1067Y1867D01*
X1076Y1859D01*
X1088Y1855D01*
X1100Y1853D01*
X1112Y1855D01*
X1124Y1859D01*
X1133Y1867D01*
X1141Y1876D01*
X1145Y1888D01*
X1147Y1900D01*
X1145Y1912D01*
X1141Y1924D01*
X1133Y1933D01*
X1124Y1941D01*
X1112Y1945D01*
X1100Y1947D01*
D02*
G37*
G36*
X1200D02*
X1188Y1945D01*
X1176Y1941D01*
X1167Y1933D01*
X1159Y1924D01*
X1155Y1912D01*
X1153Y1900D01*
X1155Y1888D01*
X1159Y1876D01*
X1167Y1867D01*
X1176Y1859D01*
X1188Y1855D01*
X1200Y1853D01*
X1212Y1855D01*
X1224Y1859D01*
X1233Y1867D01*
X1241Y1876D01*
X1245Y1888D01*
X1247Y1900D01*
X1245Y1912D01*
X1241Y1924D01*
X1233Y1933D01*
X1224Y1941D01*
X1212Y1945D01*
X1200Y1947D01*
D02*
G37*
G36*
X3852Y1897D02*
X3798D01*
X3790Y1896D01*
X3784Y1891D01*
X3779Y1885D01*
X3778Y1877D01*
Y1823D01*
X3779Y1815D01*
X3784Y1809D01*
X3790Y1804D01*
X3798Y1803D01*
X3852D01*
X3860Y1804D01*
X3866Y1809D01*
X3871Y1815D01*
X3872Y1823D01*
Y1877D01*
X3871Y1885D01*
X3866Y1891D01*
X3860Y1896D01*
X3852Y1897D01*
D02*
G37*
G36*
X1900Y1873D02*
X1888Y1871D01*
X1876Y1866D01*
X1866Y1859D01*
X1859Y1849D01*
X1854Y1837D01*
X1852Y1825D01*
X1854Y1813D01*
X1859Y1801D01*
X1866Y1791D01*
X1876Y1784D01*
X1888Y1779D01*
X1900Y1777D01*
X1912Y1779D01*
X1924Y1784D01*
X1934Y1791D01*
X1941Y1801D01*
X1946Y1813D01*
X1948Y1825D01*
X1946Y1837D01*
X1941Y1849D01*
X1934Y1859D01*
X1924Y1866D01*
X1912Y1871D01*
X1900Y1873D01*
D02*
G37*
G36*
X3925Y1897D02*
X3913Y1895D01*
X3901Y1891D01*
X3892Y1883D01*
X3884Y1874D01*
X3880Y1862D01*
X3878Y1850D01*
X3880Y1838D01*
X3884Y1826D01*
X3892Y1817D01*
X3901Y1809D01*
X3913Y1805D01*
X3925Y1803D01*
X3937Y1805D01*
X3949Y1809D01*
X3958Y1817D01*
X3966Y1826D01*
X3970Y1838D01*
X3972Y1850D01*
X3970Y1862D01*
X3966Y1874D01*
X3958Y1883D01*
X3949Y1891D01*
X3937Y1895D01*
X3925Y1897D01*
D02*
G37*
G36*
X2325Y3873D02*
X2313Y3871D01*
X2301Y3866D01*
X2291Y3859D01*
X2284Y3849D01*
X2279Y3837D01*
X2277Y3825D01*
X2279Y3813D01*
X2284Y3801D01*
X2291Y3791D01*
X2301Y3784D01*
X2313Y3779D01*
X2325Y3777D01*
X2337Y3779D01*
X2349Y3784D01*
X2359Y3791D01*
X2366Y3801D01*
X2371Y3813D01*
X2373Y3825D01*
X2371Y3837D01*
X2366Y3849D01*
X2359Y3859D01*
X2349Y3866D01*
X2337Y3871D01*
X2325Y3873D01*
D02*
G37*
G36*
X1650Y3898D02*
X1638Y3896D01*
X1626Y3891D01*
X1616Y3884D01*
X1609Y3874D01*
X1604Y3862D01*
X1602Y3850D01*
X1604Y3838D01*
X1609Y3826D01*
X1616Y3816D01*
X1626Y3809D01*
X1638Y3804D01*
X1650Y3802D01*
X1662Y3804D01*
X1674Y3809D01*
X1684Y3816D01*
X1691Y3826D01*
X1696Y3838D01*
X1698Y3850D01*
X1696Y3862D01*
X1691Y3874D01*
X1684Y3884D01*
X1674Y3891D01*
X1662Y3896D01*
X1650Y3898D01*
D02*
G37*
G36*
X1245Y3606D02*
Y3595D01*
X1256D01*
X1251Y3601D01*
X1245Y3606D01*
D02*
G37*
G36*
X2125Y3873D02*
X2113Y3871D01*
X2101Y3866D01*
X2091Y3859D01*
X2084Y3849D01*
X2079Y3837D01*
X2077Y3825D01*
X2079Y3813D01*
X2084Y3801D01*
X2091Y3791D01*
X2101Y3784D01*
X2113Y3779D01*
X2125Y3777D01*
X2137Y3779D01*
X2149Y3784D01*
X2159Y3791D01*
X2166Y3801D01*
X2171Y3813D01*
X2173Y3825D01*
X2171Y3837D01*
X2166Y3849D01*
X2159Y3859D01*
X2149Y3866D01*
X2137Y3871D01*
X2125Y3873D01*
D02*
G37*
G36*
X1950Y3898D02*
X1938Y3896D01*
X1926Y3891D01*
X1916Y3884D01*
X1909Y3874D01*
X1904Y3862D01*
X1902Y3850D01*
X1904Y3838D01*
X1909Y3826D01*
X1916Y3816D01*
X1926Y3809D01*
X1938Y3804D01*
X1950Y3802D01*
X1962Y3804D01*
X1974Y3809D01*
X1984Y3816D01*
X1991Y3826D01*
X1996Y3838D01*
X1998Y3850D01*
X1996Y3862D01*
X1991Y3874D01*
X1984Y3884D01*
X1974Y3891D01*
X1962Y3896D01*
X1950Y3898D01*
D02*
G37*
G36*
X3545Y3860D02*
X3540D01*
Y3855D01*
X3543Y3857D01*
X3545Y3860D01*
D02*
G37*
G36*
X4130Y3907D02*
X4123Y3902D01*
X4118Y3895D01*
X4130D01*
Y3907D01*
D02*
G37*
G36*
Y3855D02*
X4118D01*
X4123Y3848D01*
X4130Y3843D01*
Y3855D01*
D02*
G37*
G36*
X4182D02*
X4170D01*
Y3843D01*
X4177Y3848D01*
X4182Y3855D01*
D02*
G37*
G36*
X2305Y3557D02*
X2298Y3552D01*
X2293Y3545D01*
X2305D01*
Y3557D01*
D02*
G37*
G36*
X2145D02*
Y3545D01*
X2157D01*
X2152Y3552D01*
X2145Y3557D01*
D02*
G37*
G36*
X1256Y3555D02*
X1245D01*
Y3544D01*
X1251Y3549D01*
X1256Y3555D01*
D02*
G37*
G36*
X2105Y3557D02*
X2098Y3552D01*
X2093Y3545D01*
X2105D01*
Y3557D01*
D02*
G37*
G36*
X2345D02*
Y3545D01*
X2357D01*
X2352Y3552D01*
X2345Y3557D01*
D02*
G37*
G36*
X2500Y3673D02*
X2488Y3671D01*
X2476Y3666D01*
X2466Y3659D01*
X2459Y3649D01*
X2454Y3637D01*
X2452Y3625D01*
X2454Y3613D01*
X2459Y3601D01*
X2466Y3591D01*
X2476Y3584D01*
X2488Y3579D01*
X2500Y3577D01*
X2512Y3579D01*
X2524Y3584D01*
X2534Y3591D01*
X2541Y3601D01*
X2546Y3613D01*
X2548Y3625D01*
X2546Y3637D01*
X2541Y3649D01*
X2534Y3659D01*
X2524Y3666D01*
X2512Y3671D01*
X2500Y3673D01*
D02*
G37*
G36*
X1205Y3606D02*
X1199Y3601D01*
X1194Y3595D01*
X1205D01*
Y3606D01*
D02*
G37*
G36*
X1650Y3673D02*
X1638Y3671D01*
X1626Y3666D01*
X1616Y3659D01*
X1609Y3649D01*
X1604Y3637D01*
X1602Y3625D01*
X1604Y3613D01*
X1609Y3601D01*
X1616Y3591D01*
X1626Y3584D01*
X1638Y3579D01*
X1650Y3577D01*
X1662Y3579D01*
X1674Y3584D01*
X1684Y3591D01*
X1691Y3601D01*
X1696Y3613D01*
X1698Y3625D01*
X1696Y3637D01*
X1691Y3649D01*
X1684Y3659D01*
X1674Y3666D01*
X1662Y3671D01*
X1650Y3673D01*
D02*
G37*
G36*
X1950D02*
X1938Y3671D01*
X1926Y3666D01*
X1916Y3659D01*
X1909Y3649D01*
X1904Y3637D01*
X1902Y3625D01*
X1904Y3613D01*
X1909Y3601D01*
X1916Y3591D01*
X1926Y3584D01*
X1938Y3579D01*
X1950Y3577D01*
X1962Y3579D01*
X1974Y3584D01*
X1984Y3591D01*
X1991Y3601D01*
X1996Y3613D01*
X1998Y3625D01*
X1996Y3637D01*
X1991Y3649D01*
X1984Y3659D01*
X1974Y3666D01*
X1962Y3671D01*
X1950Y3673D01*
D02*
G37*
G36*
X4170Y3907D02*
Y3895D01*
X4182D01*
X4177Y3902D01*
X4170Y3907D01*
D02*
G37*
G36*
X2070Y4221D02*
X2058Y4219D01*
X2047Y4215D01*
X2038Y4207D01*
X2030Y4198D01*
X2026Y4187D01*
X2024Y4175D01*
X2026Y4163D01*
X2030Y4152D01*
X2038Y4143D01*
X2047Y4135D01*
X2058Y4131D01*
X2070Y4129D01*
X2082Y4131D01*
X2093Y4135D01*
X2102Y4143D01*
X2110Y4152D01*
X2114Y4163D01*
X2116Y4175D01*
X2114Y4187D01*
X2110Y4198D01*
X2102Y4207D01*
X2093Y4215D01*
X2082Y4219D01*
X2070Y4221D01*
D02*
G37*
G36*
Y4321D02*
X2058Y4319D01*
X2047Y4315D01*
X2038Y4307D01*
X2030Y4298D01*
X2026Y4287D01*
X2024Y4275D01*
X2026Y4263D01*
X2030Y4252D01*
X2038Y4243D01*
X2047Y4235D01*
X2058Y4231D01*
X2070Y4229D01*
X2082Y4231D01*
X2093Y4235D01*
X2102Y4243D01*
X2110Y4252D01*
X2114Y4263D01*
X2116Y4275D01*
X2114Y4287D01*
X2110Y4298D01*
X2102Y4307D01*
X2093Y4315D01*
X2082Y4319D01*
X2070Y4321D01*
D02*
G37*
G36*
X2050Y4105D02*
X2045Y4100D01*
X2040Y4095D01*
X2050D01*
Y4105D01*
D02*
G37*
G36*
X2090D02*
Y4095D01*
X2100D01*
X2096Y4100D01*
X2090Y4105D01*
D02*
G37*
G36*
X1230Y4409D02*
X1225Y4409D01*
X1200Y4403D01*
X1177Y4393D01*
X1156Y4380D01*
X1137Y4363D01*
X1120Y4344D01*
X1107Y4323D01*
X1097Y4300D01*
X1091Y4275D01*
X1091Y4270D01*
X1230D01*
Y4409D01*
D02*
G37*
G36*
X4270D02*
Y4270D01*
X4409D01*
X4409Y4275D01*
X4403Y4300D01*
X4393Y4323D01*
X4380Y4344D01*
X4363Y4363D01*
X4344Y4380D01*
X4323Y4393D01*
X4300Y4403D01*
X4275Y4409D01*
X4270Y4409D01*
D02*
G37*
G36*
X2096Y4421D02*
X2044D01*
X2037Y4419D01*
X2030Y4415D01*
X2026Y4408D01*
X2024Y4401D01*
Y4349D01*
X2026Y4342D01*
X2030Y4335D01*
X2037Y4331D01*
X2044Y4329D01*
X2096D01*
X2104Y4331D01*
X2110Y4335D01*
X2114Y4342D01*
X2116Y4349D01*
Y4401D01*
X2114Y4408D01*
X2110Y4415D01*
X2104Y4419D01*
X2096Y4421D01*
D02*
G37*
G36*
X1270Y4409D02*
Y4270D01*
X1409D01*
X1409Y4275D01*
X1403Y4300D01*
X1393Y4323D01*
X1380Y4344D01*
X1363Y4363D01*
X1344Y4380D01*
X1323Y4393D01*
X1300Y4403D01*
X1275Y4409D01*
X1270Y4409D01*
D02*
G37*
G36*
X4230D02*
X4225Y4409D01*
X4200Y4403D01*
X4177Y4393D01*
X4156Y4380D01*
X4137Y4363D01*
X4120Y4344D01*
X4107Y4323D01*
X4097Y4300D01*
X4091Y4275D01*
X4091Y4270D01*
X4230D01*
Y4409D01*
D02*
G37*
G36*
X2380Y4121D02*
X2368Y4119D01*
X2357Y4115D01*
X2348Y4107D01*
X2340Y4098D01*
X2336Y4087D01*
X2334Y4075D01*
X2336Y4063D01*
X2340Y4052D01*
X2348Y4043D01*
X2357Y4035D01*
X2368Y4031D01*
X2380Y4029D01*
X2392Y4031D01*
X2403Y4035D01*
X2412Y4043D01*
X2420Y4052D01*
X2424Y4063D01*
X2426Y4075D01*
X2424Y4087D01*
X2420Y4098D01*
X2412Y4107D01*
X2403Y4115D01*
X2392Y4119D01*
X2380Y4121D01*
D02*
G37*
G36*
X2050Y4055D02*
X2040D01*
X2045Y4050D01*
X2050Y4045D01*
Y4055D01*
D02*
G37*
G36*
X3540Y3905D02*
Y3900D01*
X3545D01*
X3543Y3903D01*
X3540Y3905D01*
D02*
G37*
G36*
X1625Y4080D02*
X1609Y4079D01*
X1594Y4074D01*
X1581Y4067D01*
X1568Y4057D01*
X1558Y4044D01*
X1551Y4031D01*
X1546Y4016D01*
X1545Y4000D01*
X1546Y3984D01*
X1551Y3969D01*
X1558Y3956D01*
X1568Y3943D01*
X1581Y3933D01*
X1594Y3926D01*
X1609Y3921D01*
X1625Y3920D01*
X1641Y3921D01*
X1656Y3926D01*
X1669Y3933D01*
X1682Y3943D01*
X1692Y3956D01*
X1699Y3969D01*
X1704Y3984D01*
X1705Y4000D01*
X1704Y4016D01*
X1699Y4031D01*
X1692Y4044D01*
X1682Y4057D01*
X1669Y4067D01*
X1656Y4074D01*
X1641Y4079D01*
X1625Y4080D01*
D02*
G37*
G36*
X2100Y4055D02*
X2090D01*
Y4045D01*
X2096Y4050D01*
X2100Y4055D01*
D02*
G37*
G36*
X4230Y4230D02*
X4091D01*
X4091Y4225D01*
X4097Y4200D01*
X4107Y4177D01*
X4120Y4156D01*
X4137Y4137D01*
X4156Y4120D01*
X4177Y4107D01*
X4200Y4097D01*
X4225Y4091D01*
X4230Y4091D01*
Y4230D01*
D02*
G37*
G36*
X4409D02*
X4270D01*
Y4091D01*
X4275Y4091D01*
X4300Y4097D01*
X4323Y4107D01*
X4344Y4120D01*
X4363Y4137D01*
X4380Y4156D01*
X4393Y4177D01*
X4403Y4200D01*
X4409Y4225D01*
X4409Y4230D01*
D02*
G37*
G36*
X1230D02*
X1091D01*
X1091Y4225D01*
X1097Y4200D01*
X1107Y4177D01*
X1120Y4156D01*
X1137Y4137D01*
X1156Y4120D01*
X1177Y4107D01*
X1200Y4097D01*
X1225Y4091D01*
X1230Y4091D01*
Y4230D01*
D02*
G37*
G36*
X1409D02*
X1270D01*
Y4091D01*
X1275Y4091D01*
X1300Y4097D01*
X1323Y4107D01*
X1344Y4120D01*
X1363Y4137D01*
X1380Y4156D01*
X1393Y4177D01*
X1403Y4200D01*
X1409Y4225D01*
X1409Y4230D01*
D02*
G37*
G36*
X1205Y3555D02*
X1194D01*
X1199Y3549D01*
X1205Y3544D01*
Y3555D01*
D02*
G37*
G36*
X2632Y3310D02*
X2632Y3310D01*
X2623Y3303D01*
X2617Y3295D01*
X2617Y3295D01*
X2632D01*
Y3310D01*
D02*
G37*
G36*
X3745Y3300D02*
Y3290D01*
X3755D01*
X3750Y3296D01*
X3745Y3300D01*
D02*
G37*
G36*
X2672Y3310D02*
Y3295D01*
X2686D01*
X2686Y3295D01*
X2680Y3303D01*
X2672Y3310D01*
X2672Y3310D01*
D02*
G37*
G36*
X1950Y3398D02*
X1938Y3396D01*
X1926Y3391D01*
X1916Y3384D01*
X1909Y3374D01*
X1904Y3362D01*
X1902Y3350D01*
X1904Y3338D01*
X1909Y3326D01*
X1916Y3316D01*
X1926Y3309D01*
X1938Y3304D01*
X1950Y3302D01*
X1962Y3304D01*
X1974Y3309D01*
X1984Y3316D01*
X1991Y3326D01*
X1996Y3338D01*
X1998Y3350D01*
X1996Y3362D01*
X1991Y3374D01*
X1984Y3384D01*
X1974Y3391D01*
X1962Y3396D01*
X1950Y3398D01*
D02*
G37*
G36*
X1650D02*
X1638Y3396D01*
X1626Y3391D01*
X1616Y3384D01*
X1609Y3374D01*
X1604Y3362D01*
X1602Y3350D01*
X1604Y3338D01*
X1609Y3326D01*
X1616Y3316D01*
X1626Y3309D01*
X1638Y3304D01*
X1650Y3302D01*
X1662Y3304D01*
X1674Y3309D01*
X1684Y3316D01*
X1691Y3326D01*
X1696Y3338D01*
X1698Y3350D01*
X1696Y3362D01*
X1691Y3374D01*
X1684Y3384D01*
X1674Y3391D01*
X1662Y3396D01*
X1650Y3398D01*
D02*
G37*
G36*
X3705Y3300D02*
X3700Y3296D01*
X3695Y3290D01*
X3705D01*
Y3300D01*
D02*
G37*
G36*
Y3250D02*
X3695D01*
X3700Y3245D01*
X3705Y3240D01*
Y3250D01*
D02*
G37*
G36*
X2686Y3255D02*
X2672D01*
Y3240D01*
X2672Y3240D01*
X2680Y3247D01*
X2686Y3255D01*
X2686Y3255D01*
D02*
G37*
G36*
X3755Y3250D02*
X3745D01*
Y3240D01*
X3750Y3245D01*
X3755Y3250D01*
D02*
G37*
G36*
X4150Y3373D02*
X4138Y3371D01*
X4126Y3366D01*
X4116Y3359D01*
X4109Y3349D01*
X4104Y3337D01*
X4102Y3325D01*
X4104Y3313D01*
X4109Y3301D01*
X4116Y3291D01*
X4126Y3284D01*
X4138Y3279D01*
X4150Y3277D01*
X4162Y3279D01*
X4174Y3284D01*
X4184Y3291D01*
X4191Y3301D01*
X4196Y3313D01*
X4198Y3325D01*
X4196Y3337D01*
X4191Y3349D01*
X4184Y3359D01*
X4174Y3366D01*
X4162Y3371D01*
X4150Y3373D01*
D02*
G37*
G36*
X3925D02*
X3913Y3371D01*
X3901Y3366D01*
X3891Y3359D01*
X3884Y3349D01*
X3879Y3337D01*
X3877Y3325D01*
X3879Y3313D01*
X3884Y3301D01*
X3891Y3291D01*
X3901Y3284D01*
X3913Y3279D01*
X3925Y3277D01*
X3937Y3279D01*
X3949Y3284D01*
X3959Y3291D01*
X3966Y3301D01*
X3971Y3313D01*
X3973Y3325D01*
X3971Y3337D01*
X3966Y3349D01*
X3959Y3359D01*
X3949Y3366D01*
X3937Y3371D01*
X3925Y3373D01*
D02*
G37*
G36*
X3475Y4470D02*
X2325D01*
X2317Y4469D01*
X2311Y4464D01*
X2306Y4458D01*
X2305Y4450D01*
X2305Y4275D01*
X2306Y4267D01*
X2311Y4261D01*
X2316Y4256D01*
X2316Y4255D01*
X2317Y4255D01*
X2320Y4253D01*
X2322Y4251D01*
X2323Y4251D01*
X2324Y4251D01*
X2327Y4251D01*
X2330Y4250D01*
X2331Y4250D01*
X2331Y4250D01*
X2334Y4251D01*
X2338Y4251D01*
X2340Y4252D01*
X2348Y4243D01*
X2357Y4235D01*
X2356Y4233D01*
X2356Y4230D01*
X2355Y4226D01*
X2355Y4226D01*
X2355Y4225D01*
X2356Y4222D01*
X2356Y4219D01*
X2357Y4215D01*
X2348Y4207D01*
X2340Y4198D01*
X2336Y4187D01*
X2334Y4175D01*
X2336Y4163D01*
X2340Y4152D01*
X2348Y4143D01*
X2357Y4135D01*
X2368Y4131D01*
X2380Y4129D01*
X2392Y4131D01*
X2403Y4135D01*
X2412Y4143D01*
X2417Y4149D01*
X2422Y4149D01*
X2780Y3792D01*
Y3668D01*
X2776Y3666D01*
X2766Y3659D01*
X2759Y3649D01*
X2754Y3637D01*
X2752Y3625D01*
X2754Y3613D01*
X2759Y3601D01*
X2766Y3591D01*
X2776Y3584D01*
X2780Y3582D01*
Y3320D01*
X2775Y3318D01*
X2775Y3318D01*
X2763Y3323D01*
X2750Y3325D01*
X2737Y3323D01*
X2725Y3318D01*
X2715Y3310D01*
X2707Y3300D01*
X2702Y3288D01*
X2700Y3275D01*
X2702Y3262D01*
X2707Y3250D01*
X2715Y3240D01*
X2725Y3232D01*
X2737Y3227D01*
X2750Y3225D01*
X2763Y3227D01*
X2775Y3232D01*
X2775Y3232D01*
X2780Y3230D01*
Y3070D01*
X1470D01*
Y3425D01*
X1469Y3433D01*
X1464Y3439D01*
X1458Y3444D01*
X1450Y3445D01*
X1366D01*
X1364Y3450D01*
X1366Y3451D01*
X1370Y3463D01*
X1372Y3475D01*
X1370Y3487D01*
X1366Y3499D01*
X1358Y3508D01*
X1349Y3516D01*
X1337Y3520D01*
X1325Y3522D01*
X1313Y3520D01*
X1301Y3516D01*
X1292Y3508D01*
X1284Y3499D01*
X1280Y3487D01*
X1278Y3475D01*
X1280Y3463D01*
X1284Y3451D01*
X1286Y3450D01*
X1284Y3445D01*
X1275D01*
X1267Y3444D01*
X1265Y3442D01*
X1261Y3445D01*
X1261Y3446D01*
X1266Y3451D01*
X1270Y3463D01*
X1272Y3475D01*
X1270Y3487D01*
X1266Y3499D01*
X1258Y3508D01*
X1249Y3516D01*
X1237Y3520D01*
X1225Y3522D01*
X1213Y3520D01*
X1201Y3516D01*
X1192Y3508D01*
X1184Y3499D01*
X1180Y3487D01*
X1178Y3475D01*
X1180Y3463D01*
X1184Y3451D01*
X1186Y3450D01*
X1184Y3445D01*
X1100D01*
X1092Y3444D01*
X1086Y3439D01*
X1081Y3433D01*
X1080Y3425D01*
Y2825D01*
Y2700D01*
X1081Y2692D01*
X1086Y2686D01*
X1092Y2681D01*
X1100Y2680D01*
X1975D01*
X1982Y2681D01*
X1988Y2677D01*
X1995Y2675D01*
X2005D01*
X2006Y2670D01*
X2000Y2668D01*
X1990Y2660D01*
X1982Y2650D01*
X1977Y2638D01*
X1975Y2625D01*
X1977Y2612D01*
X1982Y2600D01*
X1990Y2590D01*
X2000Y2582D01*
X2011Y2578D01*
X2011Y2577D01*
Y2573D01*
X2011Y2572D01*
X2000Y2568D01*
X1990Y2560D01*
X1982Y2550D01*
X1977Y2538D01*
X1975Y2525D01*
X1977Y2512D01*
X1982Y2500D01*
X1990Y2490D01*
X2000Y2482D01*
X2012Y2477D01*
X2025Y2475D01*
X2038Y2477D01*
X2050Y2482D01*
X2060Y2490D01*
X2068Y2500D01*
X2073Y2512D01*
X2075Y2525D01*
X2073Y2538D01*
X2068Y2550D01*
X2060Y2560D01*
X2050Y2568D01*
X2039Y2572D01*
X2039Y2573D01*
Y2577D01*
X2039Y2578D01*
X2050Y2582D01*
X2060Y2590D01*
X2068Y2600D01*
X2073Y2612D01*
X2075Y2625D01*
X2073Y2638D01*
X2068Y2650D01*
X2060Y2660D01*
X2050Y2668D01*
X2044Y2670D01*
X2045Y2675D01*
X2055D01*
X2062Y2677D01*
X2068Y2681D01*
X2075Y2680D01*
X2242D01*
X2279Y2643D01*
X2277Y2638D01*
X2275Y2625D01*
X2277Y2612D01*
X2282Y2600D01*
X2290Y2590D01*
X2300Y2582D01*
X2311Y2578D01*
X2311Y2577D01*
Y2573D01*
X2311Y2572D01*
X2300Y2568D01*
X2290Y2560D01*
X2282Y2550D01*
X2277Y2538D01*
X2275Y2525D01*
X2277Y2512D01*
X2282Y2500D01*
X2290Y2490D01*
X2300Y2482D01*
X2312Y2477D01*
X2325Y2475D01*
X2338Y2477D01*
X2350Y2482D01*
X2360Y2490D01*
X2368Y2500D01*
X2373Y2512D01*
X2375Y2525D01*
X2373Y2538D01*
X2370Y2544D01*
X2374Y2547D01*
X2411Y2511D01*
X2417Y2506D01*
X2425Y2505D01*
X2700D01*
X2708Y2506D01*
X2714Y2511D01*
X2719Y2517D01*
X2720Y2525D01*
Y2550D01*
Y2825D01*
X2720Y2826D01*
X2723Y2830D01*
X2900D01*
X2908Y2831D01*
X2914Y2836D01*
X2964Y2886D01*
X2969Y2892D01*
X2969Y2892D01*
X2969Y2892D01*
X2975Y2897D01*
X3166Y3088D01*
X3171Y3086D01*
X3170Y3075D01*
X3171Y3059D01*
X3176Y3044D01*
X3183Y3031D01*
X3193Y3018D01*
X3206Y3008D01*
X3219Y3001D01*
X3234Y2996D01*
X3250Y2995D01*
X3266Y2996D01*
X3281Y3001D01*
X3294Y3008D01*
X3307Y3018D01*
X3317Y3031D01*
X3324Y3044D01*
X3329Y3059D01*
X3330Y3075D01*
X3329Y3091D01*
X3324Y3106D01*
X3317Y3119D01*
X3307Y3132D01*
X3294Y3142D01*
X3281Y3149D01*
X3266Y3154D01*
X3250Y3155D01*
X3239Y3154D01*
X3237Y3159D01*
X3374Y3296D01*
X3379Y3294D01*
Y3244D01*
X3381Y3237D01*
X3385Y3230D01*
X3392Y3226D01*
X3399Y3224D01*
X3451D01*
X3458Y3226D01*
X3465Y3230D01*
X3469Y3237D01*
X3471Y3244D01*
Y3296D01*
X3469Y3304D01*
X3465Y3310D01*
X3458Y3314D01*
X3451Y3316D01*
X3401D01*
X3399Y3321D01*
X3489Y3411D01*
X3494Y3417D01*
X3495Y3425D01*
Y3540D01*
X3500Y3542D01*
X3502Y3540D01*
X3513Y3536D01*
X3525Y3534D01*
X3537Y3536D01*
X3548Y3540D01*
X3557Y3548D01*
X3565Y3557D01*
X3569Y3568D01*
X3571Y3580D01*
X3569Y3592D01*
X3565Y3603D01*
X3557Y3612D01*
X3548Y3620D01*
X3537Y3624D01*
X3525Y3626D01*
X3513Y3624D01*
X3502Y3620D01*
X3500Y3618D01*
X3495Y3620D01*
Y3853D01*
X3500Y3855D01*
Y3880D01*
Y3905D01*
X3495Y3907D01*
Y4450D01*
X3494Y4458D01*
X3489Y4464D01*
X3483Y4469D01*
X3475Y4470D01*
D02*
G37*
G36*
X2305Y3505D02*
X2293D01*
X2298Y3498D01*
X2305Y3493D01*
Y3505D01*
D02*
G37*
G36*
X3625Y3626D02*
X3613Y3624D01*
X3602Y3620D01*
X3593Y3612D01*
X3585Y3603D01*
X3581Y3592D01*
X3579Y3580D01*
X3581Y3568D01*
X3585Y3557D01*
X3593Y3548D01*
X3602Y3540D01*
X3613Y3536D01*
X3625Y3534D01*
X3637Y3536D01*
X3648Y3540D01*
X3657Y3548D01*
X3665Y3557D01*
X3669Y3568D01*
X3671Y3580D01*
X3669Y3592D01*
X3665Y3603D01*
X3657Y3612D01*
X3648Y3620D01*
X3637Y3624D01*
X3625Y3626D01*
D02*
G37*
G36*
X2105Y3505D02*
X2093D01*
X2098Y3498D01*
X2105Y3493D01*
Y3505D01*
D02*
G37*
G36*
X1325Y3622D02*
X1313Y3620D01*
X1301Y3616D01*
X1292Y3608D01*
X1284Y3599D01*
X1280Y3587D01*
X1278Y3575D01*
X1280Y3563D01*
X1284Y3551D01*
X1292Y3542D01*
X1301Y3534D01*
X1313Y3530D01*
X1325Y3528D01*
X1337Y3530D01*
X1349Y3534D01*
X1358Y3542D01*
X1366Y3551D01*
X1370Y3563D01*
X1372Y3575D01*
X1370Y3587D01*
X1366Y3599D01*
X1358Y3608D01*
X1349Y3616D01*
X1337Y3620D01*
X1325Y3622D01*
D02*
G37*
G36*
X4150Y3623D02*
X4138Y3621D01*
X4126Y3616D01*
X4116Y3609D01*
X4109Y3599D01*
X4104Y3587D01*
X4102Y3575D01*
X4104Y3563D01*
X4109Y3551D01*
X4116Y3541D01*
X4126Y3534D01*
X4138Y3529D01*
X4150Y3527D01*
X4162Y3529D01*
X4174Y3534D01*
X4184Y3541D01*
X4191Y3551D01*
X4196Y3563D01*
X4198Y3575D01*
X4196Y3587D01*
X4191Y3599D01*
X4184Y3609D01*
X4174Y3616D01*
X4162Y3621D01*
X4150Y3623D01*
D02*
G37*
G36*
X2157Y3505D02*
X2145D01*
Y3493D01*
X2152Y3498D01*
X2157Y3505D01*
D02*
G37*
G36*
X2357D02*
X2345D01*
Y3493D01*
X2352Y3498D01*
X2357Y3505D01*
D02*
G37*
G36*
X3725Y3626D02*
X3713Y3624D01*
X3702Y3620D01*
X3693Y3612D01*
X3685Y3603D01*
X3681Y3592D01*
X3679Y3580D01*
X3681Y3568D01*
X3685Y3557D01*
X3693Y3548D01*
X3702Y3540D01*
X3713Y3536D01*
X3725Y3534D01*
X3737Y3536D01*
X3748Y3540D01*
X3757Y3548D01*
X3765Y3557D01*
X3769Y3568D01*
X3771Y3580D01*
X3769Y3592D01*
X3765Y3603D01*
X3757Y3612D01*
X3748Y3620D01*
X3737Y3624D01*
X3725Y3626D01*
D02*
G37*
%LPD*%
G36*
X1250Y3408D02*
X1246Y3406D01*
X1245Y3406D01*
Y3375D01*
Y3344D01*
X1246Y3344D01*
X1250Y3342D01*
Y2825D01*
X2700D01*
Y2550D01*
Y2525D01*
X2425D01*
X2353Y2597D01*
X2359Y2605D01*
X2325D01*
Y2625D01*
X2305D01*
Y2659D01*
X2297Y2653D01*
X2250Y2700D01*
X2075D01*
Y2754D01*
X2073Y2762D01*
X2069Y2769D01*
X2062Y2773D01*
X2055Y2775D01*
X1995D01*
X1988Y2773D01*
X1981Y2769D01*
X1977Y2762D01*
X1975Y2754D01*
Y2700D01*
X1100D01*
Y2825D01*
Y3425D01*
X1250D01*
Y3408D01*
D02*
G37*
G36*
X3475Y3425D02*
X2961Y2911D01*
X2939D01*
X2950Y2900D01*
X2900Y2850D01*
X1275D01*
Y3050D01*
Y3425D01*
X1450D01*
Y3050D01*
X2800D01*
Y3587D01*
X2810Y3588D01*
X2819Y3592D01*
X2827Y3598D01*
X2832Y3605D01*
X2800D01*
Y3645D01*
X2832D01*
X2827Y3652D01*
X2819Y3658D01*
X2810Y3662D01*
X2800Y3663D01*
Y3800D01*
X2426Y4174D01*
X2426Y4175D01*
X2424Y4187D01*
X2420Y4198D01*
X2412Y4207D01*
X2403Y4215D01*
X2392Y4219D01*
X2380Y4221D01*
X2379Y4221D01*
X2375Y4225D01*
X2377Y4230D01*
X2380Y4229D01*
X2392Y4231D01*
X2403Y4235D01*
X2412Y4243D01*
X2420Y4252D01*
X2424Y4263D01*
X2426Y4275D01*
X2424Y4287D01*
X2420Y4298D01*
X2412Y4307D01*
X2403Y4315D01*
X2392Y4319D01*
X2380Y4321D01*
X2368Y4319D01*
X2357Y4315D01*
X2348Y4307D01*
X2340Y4298D01*
X2336Y4287D01*
X2334Y4275D01*
X2334Y4272D01*
X2330Y4270D01*
X2325Y4275D01*
X2325Y4450D01*
X3475D01*
Y3425D01*
D02*
G37*
%LPC*%
G36*
X2325Y2775D02*
X2312Y2773D01*
X2300Y2768D01*
X2290Y2760D01*
X2282Y2750D01*
X2277Y2738D01*
X2275Y2725D01*
X2277Y2712D01*
X2282Y2700D01*
X2290Y2690D01*
X2300Y2682D01*
X2312Y2677D01*
X2325Y2675D01*
X2338Y2677D01*
X2350Y2682D01*
X2360Y2690D01*
X2368Y2700D01*
X2373Y2712D01*
X2375Y2725D01*
X2373Y2738D01*
X2368Y2750D01*
X2360Y2760D01*
X2350Y2768D01*
X2338Y2773D01*
X2325Y2775D01*
D02*
G37*
G36*
X2345Y2659D02*
Y2645D01*
X2359D01*
X2353Y2653D01*
X2345Y2659D01*
D02*
G37*
G36*
X1205Y3355D02*
X1194D01*
X1199Y3349D01*
X1205Y3344D01*
Y3355D01*
D02*
G37*
G36*
Y3406D02*
X1199Y3401D01*
X1194Y3395D01*
X1205D01*
Y3406D01*
D02*
G37*
G36*
X2683Y2652D02*
X2682D01*
Y2640D01*
X2693D01*
Y2642D01*
X2693Y2646D01*
X2690Y2649D01*
X2687Y2651D01*
X2683Y2652D01*
D02*
G37*
G36*
X2642D02*
X2640D01*
X2636Y2651D01*
X2633Y2649D01*
X2631Y2646D01*
X2630Y2642D01*
Y2640D01*
X2642D01*
Y2652D01*
D02*
G37*
G36*
X2693Y2600D02*
X2682D01*
Y2588D01*
X2683D01*
X2687Y2589D01*
X2690Y2591D01*
X2693Y2594D01*
X2693Y2598D01*
Y2600D01*
D02*
G37*
G36*
X2642D02*
X2630D01*
Y2598D01*
X2631Y2594D01*
X2633Y2591D01*
X2636Y2589D01*
X2640Y2588D01*
X2642D01*
Y2600D01*
D02*
G37*
G36*
X2360Y4405D02*
X2354Y4400D01*
X2350Y4395D01*
X2360D01*
Y4405D01*
D02*
G37*
G36*
X2410Y4355D02*
X2400D01*
Y4345D01*
X2405Y4350D01*
X2410Y4355D01*
D02*
G37*
G36*
X3455Y3560D02*
X3445D01*
Y3550D01*
X3450Y3554D01*
X3455Y3560D01*
D02*
G37*
G36*
X2400Y4405D02*
Y4395D01*
X2410D01*
X2405Y4400D01*
X2400Y4405D01*
D02*
G37*
G36*
X2360Y4355D02*
X2350D01*
X2354Y4350D01*
X2360Y4345D01*
Y4355D01*
D02*
G37*
G36*
X2651Y4332D02*
X2649D01*
X2645Y4331D01*
X2642Y4329D01*
X2640Y4326D01*
X2639Y4322D01*
Y4320D01*
X2651D01*
Y4332D01*
D02*
G37*
G36*
X2828Y3255D02*
X2809D01*
Y3245D01*
X2809Y3241D01*
X2812Y3238D01*
X2815Y3236D01*
X2819Y3235D01*
X2828D01*
Y3255D01*
D02*
G37*
G36*
X2888D02*
X2868D01*
Y3235D01*
X2878D01*
X2882Y3236D01*
X2885Y3238D01*
X2888Y3241D01*
X2888Y3245D01*
Y3255D01*
D02*
G37*
G36*
X2692Y4332D02*
X2691D01*
Y4320D01*
X2703D01*
Y4322D01*
X2702Y4326D01*
X2700Y4329D01*
X2696Y4331D01*
X2692Y4332D01*
D02*
G37*
G36*
X2769Y4342D02*
X2758Y4340D01*
X2748Y4336D01*
X2740Y4329D01*
X2733Y4321D01*
X2729Y4311D01*
X2728Y4300D01*
X2729Y4289D01*
X2733Y4279D01*
X2740Y4271D01*
X2748Y4264D01*
X2758Y4260D01*
X2769Y4258D01*
X2780Y4260D01*
X2790Y4264D01*
X2799Y4271D01*
X2805Y4279D01*
X2809Y4289D01*
X2811Y4300D01*
X2809Y4311D01*
X2805Y4321D01*
X2799Y4329D01*
X2790Y4336D01*
X2780Y4340D01*
X2769Y4342D01*
D02*
G37*
G36*
X2651Y4280D02*
X2639D01*
Y4278D01*
X2640Y4274D01*
X2642Y4271D01*
X2645Y4269D01*
X2649Y4268D01*
X2651D01*
Y4280D01*
D02*
G37*
G36*
X2703D02*
X2691D01*
Y4268D01*
X2692D01*
X2696Y4269D01*
X2700Y4271D01*
X2702Y4274D01*
X2703Y4278D01*
Y4280D01*
D02*
G37*
G36*
X1362Y3355D02*
X1345D01*
Y3338D01*
X1352D01*
X1356Y3339D01*
X1359Y3341D01*
X1361Y3344D01*
X1362Y3348D01*
Y3355D01*
D02*
G37*
G36*
X3402Y3860D02*
X3390D01*
Y3858D01*
X3391Y3854D01*
X3393Y3851D01*
X3396Y3849D01*
X3400Y3848D01*
X3402D01*
Y3860D01*
D02*
G37*
G36*
X1305Y3355D02*
X1288D01*
Y3348D01*
X1289Y3344D01*
X1291Y3341D01*
X1294Y3339D01*
X1298Y3338D01*
X1305D01*
Y3355D01*
D02*
G37*
G36*
Y3412D02*
X1298D01*
X1294Y3411D01*
X1291Y3409D01*
X1289Y3406D01*
X1288Y3402D01*
Y3395D01*
X1305D01*
Y3412D01*
D02*
G37*
G36*
X3445Y3610D02*
Y3600D01*
X3455D01*
X3450Y3605D01*
X3445Y3610D01*
D02*
G37*
G36*
X3405Y3610D02*
X3400Y3605D01*
X3395Y3600D01*
X3405D01*
Y3610D01*
D02*
G37*
G36*
X1352Y3412D02*
X1345D01*
Y3395D01*
X1362D01*
Y3402D01*
X1361Y3406D01*
X1359Y3409D01*
X1356Y3411D01*
X1352Y3412D01*
D02*
G37*
G36*
X3453Y3860D02*
X3442D01*
Y3848D01*
X3443D01*
X3447Y3849D01*
X3450Y3851D01*
X3453Y3854D01*
X3453Y3858D01*
Y3860D01*
D02*
G37*
G36*
X3405Y3560D02*
X3395D01*
X3400Y3554D01*
X3405Y3550D01*
Y3560D01*
D02*
G37*
G36*
X2828Y3315D02*
X2819D01*
X2815Y3314D01*
X2812Y3312D01*
X2809Y3309D01*
X2809Y3305D01*
Y3295D01*
X2828D01*
Y3315D01*
D02*
G37*
G36*
X2878D02*
X2868D01*
Y3295D01*
X2888D01*
Y3305D01*
X2888Y3309D01*
X2885Y3312D01*
X2882Y3314D01*
X2878Y3315D01*
D02*
G37*
G36*
X3443Y3912D02*
X3442D01*
Y3900D01*
X3453D01*
Y3902D01*
X3453Y3906D01*
X3450Y3909D01*
X3447Y3911D01*
X3443Y3912D01*
D02*
G37*
G36*
X3402D02*
X3400D01*
X3396Y3911D01*
X3393Y3909D01*
X3391Y3906D01*
X3390Y3902D01*
Y3900D01*
X3402D01*
Y3912D01*
D02*
G37*
%LPD*%
D13*
X1250Y1250D02*
D03*
X4250D02*
D03*
Y4250D02*
D03*
X1250D02*
D03*
D14*
X2100Y1450D02*
D03*
X2450Y2000D02*
D03*
X2100Y2150D02*
D03*
X1125Y2550D02*
D03*
Y2350D02*
D03*
X1625Y4000D02*
D03*
X3250Y3075D02*
D03*
X3450D02*
D03*
X3600Y2175D02*
D03*
X3925Y2150D02*
D03*
D15*
X2662Y2620D02*
D03*
X2800Y1920D02*
D03*
X3422Y3880D02*
D03*
X2671Y4300D02*
D03*
D16*
X2760Y2620D02*
D03*
X2898Y1920D02*
D03*
X3480Y2578D02*
D03*
X3520Y3880D02*
D03*
X2769Y4300D02*
D03*
D17*
X3480Y2480D02*
D03*
D18*
X1600Y1425D02*
D03*
Y1625D02*
D03*
Y1825D02*
D03*
Y2025D02*
D03*
X1900Y1825D02*
D03*
Y1625D02*
D03*
Y1425D02*
D03*
X2450Y1475D02*
D03*
Y1775D02*
D03*
X2800Y1475D02*
D03*
X3100D02*
D03*
X1900Y2025D02*
D03*
X1950Y3350D02*
D03*
X2125Y3525D02*
D03*
X2325D02*
D03*
X2500Y3625D02*
D03*
X2325Y3825D02*
D03*
X2125D02*
D03*
X1950Y3850D02*
D03*
Y3625D02*
D03*
X1650Y3850D02*
D03*
Y3625D02*
D03*
Y3350D02*
D03*
X2800Y3625D02*
D03*
X3925Y3025D02*
D03*
X4150D02*
D03*
Y3325D02*
D03*
Y3575D02*
D03*
X3925Y3325D02*
D03*
X4150Y3875D02*
D03*
D19*
X2100Y1650D02*
D03*
Y1748D02*
D03*
X3425Y1852D02*
D03*
Y1950D02*
D03*
X4150Y2602D02*
D03*
Y2700D02*
D03*
X2750Y3275D02*
D03*
X2652D02*
D03*
D20*
X2100Y1847D02*
D03*
X3425Y1753D02*
D03*
X4150Y2503D02*
D03*
D21*
X1100Y1700D02*
D03*
X1200Y1800D02*
D03*
Y1900D02*
D03*
Y2000D02*
D03*
X1100D02*
D03*
Y1900D02*
D03*
Y1800D02*
D03*
X1550Y2425D02*
D03*
Y2525D02*
D03*
X1450Y2425D02*
D03*
X1225Y3375D02*
D03*
X1325Y3475D02*
D03*
Y3575D02*
D03*
X1225D02*
D03*
Y3475D02*
D03*
X3825Y1750D02*
D03*
X3925D02*
D03*
Y1850D02*
D03*
D22*
X1200Y1700D02*
D03*
X1450Y2525D02*
D03*
X1325Y3375D02*
D03*
X3825Y1850D02*
D03*
D23*
X2848Y3275D02*
D03*
D24*
X3525Y3270D02*
D03*
X3625D02*
D03*
X3725D02*
D03*
Y3580D02*
D03*
X3625D02*
D03*
X3525D02*
D03*
X3425D02*
D03*
X2380Y4375D02*
D03*
Y4275D02*
D03*
Y4175D02*
D03*
Y4075D02*
D03*
X2070Y4275D02*
D03*
Y4175D02*
D03*
Y4075D02*
D03*
D25*
X2070Y4375D02*
D03*
D26*
X2325Y2425D02*
D03*
Y2525D02*
D03*
Y2625D02*
D03*
Y2725D02*
D03*
X2025Y2625D02*
D03*
Y2525D02*
D03*
Y2425D02*
D03*
D27*
X2025Y2725D02*
D03*
D28*
X3425Y3270D02*
D03*
%TF.MD5,34dc52c7f6af1387f4d7702f06e60a3a*%
M02*
