G04 Layer_Color=16711935*
%FSLAX23Y23*%
%MOIN*%
%TF.FileFunction,Soldermask,Bot*%
%TF.Part,Single*%
G01*
G75*
%TA.AperFunction,ViaPad*%
%ADD31C,0.308*%
%ADD32C,0.128*%
%TA.AperFunction,ComponentPad*%
%ADD33R,0.051X0.051*%
%ADD34C,0.051*%
%ADD35R,0.051X0.051*%
%ADD36C,0.063*%
%ADD37C,0.067*%
%ADD38R,0.067X0.067*%
%ADD39C,0.062*%
%ADD40R,0.062X0.062*%
%ADD41R,0.067X0.067*%
%ADD42C,0.059*%
%ADD43R,0.059X0.059*%
%ADD44C,0.067*%
%ADD45R,0.067X0.067*%
%ADD46R,0.059X0.059*%
D31*
X1250Y1250D02*
D03*
X4250D02*
D03*
Y4250D02*
D03*
X1250D02*
D03*
D32*
X2100Y1450D02*
D03*
X2450Y2000D02*
D03*
X2100Y2150D02*
D03*
X1125Y2550D02*
D03*
Y2350D02*
D03*
X1625Y4000D02*
D03*
X3250Y3075D02*
D03*
X3450D02*
D03*
X3600Y2175D02*
D03*
X3925Y2150D02*
D03*
D33*
X2662Y2620D02*
D03*
X2800Y1920D02*
D03*
X3422Y3880D02*
D03*
X2671Y4300D02*
D03*
D34*
X2760Y2620D02*
D03*
X2898Y1920D02*
D03*
X3480Y2578D02*
D03*
X3520Y3880D02*
D03*
X2769Y4300D02*
D03*
D35*
X3480Y2480D02*
D03*
D36*
X1600Y1425D02*
D03*
Y1625D02*
D03*
Y1825D02*
D03*
Y2025D02*
D03*
X1900Y1825D02*
D03*
Y1625D02*
D03*
Y1425D02*
D03*
X2450Y1475D02*
D03*
Y1775D02*
D03*
X2800Y1475D02*
D03*
X3100D02*
D03*
X1900Y2025D02*
D03*
X1950Y3350D02*
D03*
X2125Y3525D02*
D03*
X2325D02*
D03*
X2500Y3625D02*
D03*
X2325Y3825D02*
D03*
X2125D02*
D03*
X1950Y3850D02*
D03*
Y3625D02*
D03*
X1650Y3850D02*
D03*
Y3625D02*
D03*
Y3350D02*
D03*
X2800Y3625D02*
D03*
X3925Y3025D02*
D03*
X4150D02*
D03*
Y3325D02*
D03*
Y3575D02*
D03*
X3925Y3325D02*
D03*
X4150Y3875D02*
D03*
D37*
X2100Y1650D02*
D03*
Y1748D02*
D03*
X3425Y1852D02*
D03*
Y1950D02*
D03*
X4150Y2602D02*
D03*
Y2700D02*
D03*
X2750Y3275D02*
D03*
X2652D02*
D03*
D38*
X2100Y1847D02*
D03*
X3425Y1753D02*
D03*
X4150Y2503D02*
D03*
D39*
X1100Y1700D02*
D03*
X1200Y1800D02*
D03*
Y1900D02*
D03*
Y2000D02*
D03*
X1100D02*
D03*
Y1900D02*
D03*
Y1800D02*
D03*
X1550Y2425D02*
D03*
Y2525D02*
D03*
X1450Y2425D02*
D03*
X1225Y3375D02*
D03*
X1325Y3475D02*
D03*
Y3575D02*
D03*
X1225D02*
D03*
Y3475D02*
D03*
X3825Y1750D02*
D03*
X3925D02*
D03*
Y1850D02*
D03*
D40*
X1200Y1700D02*
D03*
X1450Y2525D02*
D03*
X1325Y3375D02*
D03*
X3825Y1850D02*
D03*
D41*
X2848Y3275D02*
D03*
D42*
X3525Y3270D02*
D03*
X3625D02*
D03*
X3725D02*
D03*
Y3580D02*
D03*
X3625D02*
D03*
X3525D02*
D03*
X3425D02*
D03*
X2380Y4375D02*
D03*
Y4275D02*
D03*
Y4175D02*
D03*
Y4075D02*
D03*
X2070Y4275D02*
D03*
Y4175D02*
D03*
Y4075D02*
D03*
D43*
X2070Y4375D02*
D03*
D44*
X2325Y2425D02*
D03*
Y2525D02*
D03*
Y2625D02*
D03*
Y2725D02*
D03*
X2025Y2625D02*
D03*
Y2525D02*
D03*
Y2425D02*
D03*
D45*
X2025Y2725D02*
D03*
D46*
X3425Y3270D02*
D03*
%TF.MD5,ff1b7bf266d9ccdaf68b26eeaf212691*%
M02*
