G04 Layer_Color=2752767*
%FSLAX23Y23*%
%MOIN*%
%TF.FileFunction,Drawing*%
%TF.Part,Single*%
G01*
G75*
%TA.AperFunction,NonConductor*%
%ADD52C,0.005*%
%ADD74C,0.007*%
%ADD75C,0.004*%
D52*
X1230Y4730D02*
Y4770D01*
X1270D01*
Y4730D01*
X1230D01*
X6730D02*
Y4770D01*
X6770D01*
Y4730D01*
X6730D01*
Y1230D02*
Y1270D01*
X6770D01*
Y1230D01*
X6730D01*
X1230D02*
Y1270D01*
X1270D01*
Y1230D01*
X1230D01*
X5028Y4080D02*
X5008Y4120D01*
X5048D01*
X5028Y4080D01*
X5225D02*
X5205Y4120D01*
X5245D01*
X5225Y4080D01*
X3889Y1365D02*
X3899Y1375D01*
X3909D01*
X3899Y1385D01*
X3909Y1395D01*
X3899D01*
X3889Y1405D01*
X3879Y1395D01*
X3869D01*
X3879Y1385D01*
X3869Y1375D01*
X3879D01*
X3889Y1365D01*
X3789D02*
X3799Y1375D01*
X3809D01*
X3799Y1385D01*
X3809Y1395D01*
X3799D01*
X3789Y1405D01*
X3779Y1395D01*
X3769D01*
X3779Y1385D01*
X3769Y1375D01*
X3779D01*
X3789Y1365D01*
X3889Y1465D02*
X3899Y1475D01*
X3909D01*
X3899Y1485D01*
X3909Y1495D01*
X3899D01*
X3889Y1505D01*
X3879Y1495D01*
X3869D01*
X3879Y1485D01*
X3869Y1475D01*
X3879D01*
X3889Y1465D01*
X3789D02*
X3799Y1475D01*
X3809D01*
X3799Y1485D01*
X3809Y1495D01*
X3799D01*
X3789Y1505D01*
X3779Y1495D01*
X3769D01*
X3779Y1485D01*
X3769Y1475D01*
X3779D01*
X3789Y1465D01*
X3889Y1565D02*
X3899Y1575D01*
X3909D01*
X3899Y1585D01*
X3909Y1595D01*
X3899D01*
X3889Y1605D01*
X3879Y1595D01*
X3869D01*
X3879Y1585D01*
X3869Y1575D01*
X3879D01*
X3889Y1565D01*
X3789D02*
X3799Y1575D01*
X3809D01*
X3799Y1585D01*
X3809Y1595D01*
X3799D01*
X3789Y1605D01*
X3779Y1595D01*
X3769D01*
X3779Y1585D01*
X3769Y1575D01*
X3779D01*
X3789Y1565D01*
X6400Y1880D02*
X6410Y1890D01*
X6420D01*
X6410Y1900D01*
X6420Y1910D01*
X6410D01*
X6400Y1920D01*
X6390Y1910D01*
X6380D01*
X6390Y1900D01*
X6380Y1890D01*
X6390D01*
X6400Y1880D01*
Y1980D02*
X6410Y1990D01*
X6420D01*
X6410Y2000D01*
X6420Y2010D01*
X6410D01*
X6400Y2020D01*
X6390Y2010D01*
X6380D01*
X6390Y2000D01*
X6380Y1990D01*
X6390D01*
X6400Y1980D01*
X6500Y1880D02*
X6510Y1890D01*
X6520D01*
X6510Y1900D01*
X6520Y1910D01*
X6510D01*
X6500Y1920D01*
X6490Y1910D01*
X6480D01*
X6490Y1900D01*
X6480Y1890D01*
X6490D01*
X6500Y1880D01*
Y1980D02*
X6510Y1990D01*
X6520D01*
X6510Y2000D01*
X6520Y2010D01*
X6510D01*
X6500Y2020D01*
X6490Y2010D01*
X6480D01*
X6490Y2000D01*
X6480Y1990D01*
X6490D01*
X6500Y1980D01*
X6600Y1880D02*
X6610Y1890D01*
X6620D01*
X6610Y1900D01*
X6620Y1910D01*
X6610D01*
X6600Y1920D01*
X6590Y1910D01*
X6580D01*
X6590Y1900D01*
X6580Y1890D01*
X6590D01*
X6600Y1880D01*
Y1980D02*
X6610Y1990D01*
X6620D01*
X6610Y2000D01*
X6620Y2010D01*
X6610D01*
X6600Y2020D01*
X6590Y2010D01*
X6580D01*
X6590Y2000D01*
X6580Y1990D01*
X6590D01*
X6600Y1980D01*
X5600Y3880D02*
X5610Y3890D01*
X5620D01*
X5610Y3900D01*
X5620Y3910D01*
X5610D01*
X5600Y3920D01*
X5590Y3910D01*
X5580D01*
X5590Y3900D01*
X5580Y3890D01*
X5590D01*
X5600Y3880D01*
Y3980D02*
X5610Y3990D01*
X5620D01*
X5610Y4000D01*
X5620Y4010D01*
X5610D01*
X5600Y4020D01*
X5590Y4010D01*
X5580D01*
X5590Y4000D01*
X5580Y3990D01*
X5590D01*
X5600Y3980D01*
X5700Y3880D02*
X5710Y3890D01*
X5720D01*
X5710Y3900D01*
X5720Y3910D01*
X5710D01*
X5700Y3920D01*
X5690Y3910D01*
X5680D01*
X5690Y3900D01*
X5680Y3890D01*
X5690D01*
X5700Y3880D01*
Y3980D02*
X5710Y3990D01*
X5720D01*
X5710Y4000D01*
X5720Y4010D01*
X5710D01*
X5700Y4020D01*
X5690Y4010D01*
X5680D01*
X5690Y4000D01*
X5680Y3990D01*
X5690D01*
X5700Y3980D01*
X5800Y3880D02*
X5810Y3890D01*
X5820D01*
X5810Y3900D01*
X5820Y3910D01*
X5810D01*
X5800Y3920D01*
X5790Y3910D01*
X5780D01*
X5790Y3900D01*
X5780Y3890D01*
X5790D01*
X5800Y3880D01*
Y3980D02*
X5810Y3990D01*
X5820D01*
X5810Y4000D01*
X5820Y4010D01*
X5810D01*
X5800Y4020D01*
X5790Y4010D01*
X5780D01*
X5790Y4000D01*
X5780Y3990D01*
X5790D01*
X5800Y3980D01*
X5900Y3880D02*
X5910Y3890D01*
X5920D01*
X5910Y3900D01*
X5920Y3910D01*
X5910D01*
X5900Y3920D01*
X5890Y3910D01*
X5880D01*
X5890Y3900D01*
X5880Y3890D01*
X5890D01*
X5900Y3880D01*
Y3980D02*
X5910Y3990D01*
X5920D01*
X5910Y4000D01*
X5920Y4010D01*
X5910D01*
X5900Y4020D01*
X5890Y4010D01*
X5880D01*
X5890Y4000D01*
X5880Y3990D01*
X5890D01*
X5900Y3980D01*
X6000Y3880D02*
X6010Y3890D01*
X6020D01*
X6010Y3900D01*
X6020Y3910D01*
X6010D01*
X6000Y3920D01*
X5990Y3910D01*
X5980D01*
X5990Y3900D01*
X5980Y3890D01*
X5990D01*
X6000Y3880D01*
Y3980D02*
X6010Y3990D01*
X6020D01*
X6010Y4000D01*
X6020Y4010D01*
X6010D01*
X6000Y4020D01*
X5990Y4010D01*
X5980D01*
X5990Y4000D01*
X5980Y3990D01*
X5990D01*
X6000Y3980D01*
X6100Y3880D02*
X6110Y3890D01*
X6120D01*
X6110Y3900D01*
X6120Y3910D01*
X6110D01*
X6100Y3920D01*
X6090Y3910D01*
X6080D01*
X6090Y3900D01*
X6080Y3890D01*
X6090D01*
X6100Y3880D01*
Y3980D02*
X6110Y3990D01*
X6120D01*
X6110Y4000D01*
X6120Y4010D01*
X6110D01*
X6100Y4020D01*
X6090Y4010D01*
X6080D01*
X6090Y4000D01*
X6080Y3990D01*
X6090D01*
X6100Y3980D01*
X6200Y3880D02*
X6210Y3890D01*
X6220D01*
X6210Y3900D01*
X6220Y3910D01*
X6210D01*
X6200Y3920D01*
X6190Y3910D01*
X6180D01*
X6190Y3900D01*
X6180Y3890D01*
X6190D01*
X6200Y3880D01*
Y3980D02*
X6210Y3990D01*
X6220D01*
X6210Y4000D01*
X6220Y4010D01*
X6210D01*
X6200Y4020D01*
X6190Y4010D01*
X6180D01*
X6190Y4000D01*
X6180Y3990D01*
X6190D01*
X6200Y3980D01*
X6300Y3880D02*
X6310Y3890D01*
X6320D01*
X6310Y3900D01*
X6320Y3910D01*
X6310D01*
X6300Y3920D01*
X6290Y3910D01*
X6280D01*
X6290Y3900D01*
X6280Y3890D01*
X6290D01*
X6300Y3880D01*
Y3980D02*
X6310Y3990D01*
X6320D01*
X6310Y4000D01*
X6320Y4010D01*
X6310D01*
X6300Y4020D01*
X6290Y4010D01*
X6280D01*
X6290Y4000D01*
X6280Y3990D01*
X6290D01*
X6300Y3980D01*
X6400Y3880D02*
X6410Y3890D01*
X6420D01*
X6410Y3900D01*
X6420Y3910D01*
X6410D01*
X6400Y3920D01*
X6390Y3910D01*
X6380D01*
X6390Y3900D01*
X6380Y3890D01*
X6390D01*
X6400Y3880D01*
Y3980D02*
X6410Y3990D01*
X6420D01*
X6410Y4000D01*
X6420Y4010D01*
X6410D01*
X6400Y4020D01*
X6390Y4010D01*
X6380D01*
X6390Y4000D01*
X6380Y3990D01*
X6390D01*
X6400Y3980D01*
X6500Y3880D02*
X6510Y3890D01*
X6520D01*
X6510Y3900D01*
X6520Y3910D01*
X6510D01*
X6500Y3920D01*
X6490Y3910D01*
X6480D01*
X6490Y3900D01*
X6480Y3890D01*
X6490D01*
X6500Y3880D01*
Y3980D02*
X6510Y3990D01*
X6520D01*
X6510Y4000D01*
X6520Y4010D01*
X6510D01*
X6500Y4020D01*
X6490Y4010D01*
X6480D01*
X6490Y4000D01*
X6480Y3990D01*
X6490D01*
X6500Y3980D01*
X5900Y1380D02*
X5910Y1390D01*
X5920D01*
X5910Y1400D01*
X5920Y1410D01*
X5910D01*
X5900Y1420D01*
X5890Y1410D01*
X5880D01*
X5890Y1400D01*
X5880Y1390D01*
X5890D01*
X5900Y1380D01*
Y1280D02*
X5910Y1290D01*
X5920D01*
X5910Y1300D01*
X5920Y1310D01*
X5910D01*
X5900Y1320D01*
X5890Y1310D01*
X5880D01*
X5890Y1300D01*
X5880Y1290D01*
X5890D01*
X5900Y1280D01*
X5800Y1380D02*
X5810Y1390D01*
X5820D01*
X5810Y1400D01*
X5820Y1410D01*
X5810D01*
X5800Y1420D01*
X5790Y1410D01*
X5780D01*
X5790Y1400D01*
X5780Y1390D01*
X5790D01*
X5800Y1380D01*
Y1280D02*
X5810Y1290D01*
X5820D01*
X5810Y1300D01*
X5820Y1310D01*
X5810D01*
X5800Y1320D01*
X5790Y1310D01*
X5780D01*
X5790Y1300D01*
X5780Y1290D01*
X5790D01*
X5800Y1280D01*
X5700Y1380D02*
X5710Y1390D01*
X5720D01*
X5710Y1400D01*
X5720Y1410D01*
X5710D01*
X5700Y1420D01*
X5690Y1410D01*
X5680D01*
X5690Y1400D01*
X5680Y1390D01*
X5690D01*
X5700Y1380D01*
Y1280D02*
X5710Y1290D01*
X5720D01*
X5710Y1300D01*
X5720Y1310D01*
X5710D01*
X5700Y1320D01*
X5690Y1310D01*
X5680D01*
X5690Y1300D01*
X5680Y1290D01*
X5690D01*
X5700Y1280D01*
X5600Y1380D02*
X5610Y1390D01*
X5620D01*
X5610Y1400D01*
X5620Y1410D01*
X5610D01*
X5600Y1420D01*
X5590Y1410D01*
X5580D01*
X5590Y1400D01*
X5580Y1390D01*
X5590D01*
X5600Y1380D01*
Y1280D02*
X5610Y1290D01*
X5620D01*
X5610Y1300D01*
X5620Y1310D01*
X5610D01*
X5600Y1320D01*
X5590Y1310D01*
X5580D01*
X5590Y1300D01*
X5580Y1290D01*
X5590D01*
X5600Y1280D01*
X5500Y1380D02*
X5510Y1390D01*
X5520D01*
X5510Y1400D01*
X5520Y1410D01*
X5510D01*
X5500Y1420D01*
X5490Y1410D01*
X5480D01*
X5490Y1400D01*
X5480Y1390D01*
X5490D01*
X5500Y1380D01*
Y1280D02*
X5510Y1290D01*
X5520D01*
X5510Y1300D01*
X5520Y1310D01*
X5510D01*
X5500Y1320D01*
X5490Y1310D01*
X5480D01*
X5490Y1300D01*
X5480Y1290D01*
X5490D01*
X5500Y1280D01*
X5400Y1380D02*
X5410Y1390D01*
X5420D01*
X5410Y1400D01*
X5420Y1410D01*
X5410D01*
X5400Y1420D01*
X5390Y1410D01*
X5380D01*
X5390Y1400D01*
X5380Y1390D01*
X5390D01*
X5400Y1380D01*
Y1280D02*
X5410Y1290D01*
X5420D01*
X5410Y1300D01*
X5420Y1310D01*
X5410D01*
X5400Y1320D01*
X5390Y1310D01*
X5380D01*
X5390Y1300D01*
X5380Y1290D01*
X5390D01*
X5400Y1280D01*
X5300Y1380D02*
X5310Y1390D01*
X5320D01*
X5310Y1400D01*
X5320Y1410D01*
X5310D01*
X5300Y1420D01*
X5290Y1410D01*
X5280D01*
X5290Y1400D01*
X5280Y1390D01*
X5290D01*
X5300Y1380D01*
Y1280D02*
X5310Y1290D01*
X5320D01*
X5310Y1300D01*
X5320Y1310D01*
X5310D01*
X5300Y1320D01*
X5290Y1310D01*
X5280D01*
X5290Y1300D01*
X5280Y1290D01*
X5290D01*
X5300Y1280D01*
X5200Y1380D02*
X5210Y1390D01*
X5220D01*
X5210Y1400D01*
X5220Y1410D01*
X5210D01*
X5200Y1420D01*
X5190Y1410D01*
X5180D01*
X5190Y1400D01*
X5180Y1390D01*
X5190D01*
X5200Y1380D01*
Y1280D02*
X5210Y1290D01*
X5220D01*
X5210Y1300D01*
X5220Y1310D01*
X5210D01*
X5200Y1320D01*
X5190Y1310D01*
X5180D01*
X5190Y1300D01*
X5180Y1290D01*
X5190D01*
X5200Y1280D01*
X5100Y1380D02*
X5110Y1390D01*
X5120D01*
X5110Y1400D01*
X5120Y1410D01*
X5110D01*
X5100Y1420D01*
X5090Y1410D01*
X5080D01*
X5090Y1400D01*
X5080Y1390D01*
X5090D01*
X5100Y1380D01*
Y1280D02*
X5110Y1290D01*
X5120D01*
X5110Y1300D01*
X5120Y1310D01*
X5110D01*
X5100Y1320D01*
X5090Y1310D01*
X5080D01*
X5090Y1300D01*
X5080Y1290D01*
X5090D01*
X5100Y1280D01*
X5000Y1380D02*
X5010Y1390D01*
X5020D01*
X5010Y1400D01*
X5020Y1410D01*
X5010D01*
X5000Y1420D01*
X4990Y1410D01*
X4980D01*
X4990Y1400D01*
X4980Y1390D01*
X4990D01*
X5000Y1380D01*
Y1280D02*
X5010Y1290D01*
X5020D01*
X5010Y1300D01*
X5020Y1310D01*
X5010D01*
X5000Y1320D01*
X4990Y1310D01*
X4980D01*
X4990Y1300D01*
X4980Y1290D01*
X4990D01*
X5000Y1280D01*
X2884Y4576D02*
X2894Y4596D01*
X2884Y4616D01*
X2904Y4606D01*
X2924Y4616D01*
X2914Y4596D01*
X2924Y4576D01*
X2904Y4586D01*
X2884Y4576D01*
X2785D02*
X2795Y4596D01*
X2785Y4616D01*
X2805Y4606D01*
X2825Y4616D01*
X2815Y4596D01*
X2825Y4576D01*
X2805Y4586D01*
X2785Y4576D01*
X2687D02*
X2697Y4596D01*
X2687Y4616D01*
X2707Y4606D01*
X2727Y4616D01*
X2717Y4596D01*
X2727Y4576D01*
X2707Y4586D01*
X2687Y4576D01*
X3002Y1919D02*
X2982Y1959D01*
X3022D01*
X3002Y1919D01*
Y1722D02*
X2982Y1762D01*
X3022D01*
X3002Y1722D01*
X2990Y4090D02*
Y4080D01*
X3010D01*
Y4090D01*
X3020D01*
Y4110D01*
X3010D01*
Y4120D01*
X2990D01*
Y4110D01*
X2980D01*
Y4090D01*
X2990D01*
X3090D02*
Y4080D01*
X3110D01*
Y4090D01*
X3120D01*
Y4110D01*
X3110D01*
Y4120D01*
X3090D01*
Y4110D01*
X3080D01*
Y4090D01*
X3090D01*
X3190D02*
Y4080D01*
X3210D01*
Y4090D01*
X3220D01*
Y4110D01*
X3210D01*
Y4120D01*
X3190D01*
Y4110D01*
X3180D01*
Y4090D01*
X3190D01*
X3290D02*
Y4080D01*
X3310D01*
Y4090D01*
X3320D01*
Y4110D01*
X3310D01*
Y4120D01*
X3290D01*
Y4110D01*
X3280D01*
Y4090D01*
X3290D01*
X3390D02*
Y4080D01*
X3410D01*
Y4090D01*
X3420D01*
Y4110D01*
X3410D01*
Y4120D01*
X3390D01*
Y4110D01*
X3380D01*
Y4090D01*
X3390D01*
X3490D02*
Y4080D01*
X3510D01*
Y4090D01*
X3520D01*
Y4110D01*
X3510D01*
Y4120D01*
X3490D01*
Y4110D01*
X3480D01*
Y4090D01*
X3490D01*
X3590D02*
Y4080D01*
X3610D01*
Y4090D01*
X3620D01*
Y4110D01*
X3610D01*
Y4120D01*
X3590D01*
Y4110D01*
X3580D01*
Y4090D01*
X3590D01*
X3690D02*
Y4080D01*
X3710D01*
Y4090D01*
X3720D01*
Y4110D01*
X3710D01*
Y4120D01*
X3690D01*
Y4110D01*
X3680D01*
Y4090D01*
X3690D01*
X3890D02*
Y4080D01*
X3910D01*
Y4090D01*
X3920D01*
Y4110D01*
X3910D01*
Y4120D01*
X3890D01*
Y4110D01*
X3880D01*
Y4090D01*
X3890D01*
X3990D02*
Y4080D01*
X4010D01*
Y4090D01*
X4020D01*
Y4110D01*
X4010D01*
Y4120D01*
X3990D01*
Y4110D01*
X3980D01*
Y4090D01*
X3990D01*
X4090D02*
Y4080D01*
X4110D01*
Y4090D01*
X4120D01*
Y4110D01*
X4110D01*
Y4120D01*
X4090D01*
Y4110D01*
X4080D01*
Y4090D01*
X4090D01*
X4190D02*
Y4080D01*
X4210D01*
Y4090D01*
X4220D01*
Y4110D01*
X4210D01*
Y4120D01*
X4190D01*
Y4110D01*
X4180D01*
Y4090D01*
X4190D01*
X4290D02*
Y4080D01*
X4310D01*
Y4090D01*
X4320D01*
Y4110D01*
X4310D01*
Y4120D01*
X4290D01*
Y4110D01*
X4280D01*
Y4090D01*
X4290D01*
X4390D02*
Y4080D01*
X4410D01*
Y4090D01*
X4420D01*
Y4110D01*
X4410D01*
Y4120D01*
X4390D01*
Y4110D01*
X4380D01*
Y4090D01*
X4390D01*
X4490D02*
Y4080D01*
X4510D01*
Y4090D01*
X4520D01*
Y4110D01*
X4510D01*
Y4120D01*
X4490D01*
Y4110D01*
X4480D01*
Y4090D01*
X4490D01*
X4590D02*
Y4080D01*
X4610D01*
Y4090D01*
X4620D01*
Y4110D01*
X4610D01*
Y4120D01*
X4590D01*
Y4110D01*
X4580D01*
Y4090D01*
X4590D01*
X2090D02*
Y4080D01*
X2110D01*
Y4090D01*
X2120D01*
Y4110D01*
X2110D01*
Y4120D01*
X2090D01*
Y4110D01*
X2080D01*
Y4090D01*
X2090D01*
X2190D02*
Y4080D01*
X2210D01*
Y4090D01*
X2220D01*
Y4110D01*
X2210D01*
Y4120D01*
X2190D01*
Y4110D01*
X2180D01*
Y4090D01*
X2190D01*
X2290D02*
Y4080D01*
X2310D01*
Y4090D01*
X2320D01*
Y4110D01*
X2310D01*
Y4120D01*
X2290D01*
Y4110D01*
X2280D01*
Y4090D01*
X2290D01*
X2390D02*
Y4080D01*
X2410D01*
Y4090D01*
X2420D01*
Y4110D01*
X2410D01*
Y4120D01*
X2390D01*
Y4110D01*
X2380D01*
Y4090D01*
X2390D01*
X2490D02*
Y4080D01*
X2510D01*
Y4090D01*
X2520D01*
Y4110D01*
X2510D01*
Y4120D01*
X2490D01*
Y4110D01*
X2480D01*
Y4090D01*
X2490D01*
X2590D02*
Y4080D01*
X2610D01*
Y4090D01*
X2620D01*
Y4110D01*
X2610D01*
Y4120D01*
X2590D01*
Y4110D01*
X2580D01*
Y4090D01*
X2590D01*
X2690D02*
Y4080D01*
X2710D01*
Y4090D01*
X2720D01*
Y4110D01*
X2710D01*
Y4120D01*
X2690D01*
Y4110D01*
X2680D01*
Y4090D01*
X2690D01*
X2790D02*
Y4080D01*
X2810D01*
Y4090D01*
X2820D01*
Y4110D01*
X2810D01*
Y4120D01*
X2790D01*
Y4110D01*
X2780D01*
Y4090D01*
X2790D01*
X3690Y2190D02*
Y2180D01*
X3710D01*
Y2190D01*
X3720D01*
Y2210D01*
X3710D01*
Y2220D01*
X3690D01*
Y2210D01*
X3680D01*
Y2190D01*
X3690D01*
X3790D02*
Y2180D01*
X3810D01*
Y2190D01*
X3820D01*
Y2210D01*
X3810D01*
Y2220D01*
X3790D01*
Y2210D01*
X3780D01*
Y2190D01*
X3790D01*
X3890D02*
Y2180D01*
X3910D01*
Y2190D01*
X3920D01*
Y2210D01*
X3910D01*
Y2220D01*
X3890D01*
Y2210D01*
X3880D01*
Y2190D01*
X3890D01*
X3990D02*
Y2180D01*
X4010D01*
Y2190D01*
X4020D01*
Y2210D01*
X4010D01*
Y2220D01*
X3990D01*
Y2210D01*
X3980D01*
Y2190D01*
X3990D01*
X4090D02*
Y2180D01*
X4110D01*
Y2190D01*
X4120D01*
Y2210D01*
X4110D01*
Y2220D01*
X4090D01*
Y2210D01*
X4080D01*
Y2190D01*
X4090D01*
X4190D02*
Y2180D01*
X4210D01*
Y2190D01*
X4220D01*
Y2210D01*
X4210D01*
Y2220D01*
X4190D01*
Y2210D01*
X4180D01*
Y2190D01*
X4190D01*
X4290D02*
Y2180D01*
X4310D01*
Y2190D01*
X4320D01*
Y2210D01*
X4310D01*
Y2220D01*
X4290D01*
Y2210D01*
X4280D01*
Y2190D01*
X4290D01*
X4390D02*
Y2180D01*
X4410D01*
Y2190D01*
X4420D01*
Y2210D01*
X4410D01*
Y2220D01*
X4390D01*
Y2210D01*
X4380D01*
Y2190D01*
X4390D01*
X2790D02*
Y2180D01*
X2810D01*
Y2190D01*
X2820D01*
Y2210D01*
X2810D01*
Y2220D01*
X2790D01*
Y2210D01*
X2780D01*
Y2190D01*
X2790D01*
X2890D02*
Y2180D01*
X2910D01*
Y2190D01*
X2920D01*
Y2210D01*
X2910D01*
Y2220D01*
X2890D01*
Y2210D01*
X2880D01*
Y2190D01*
X2890D01*
X2990D02*
Y2180D01*
X3010D01*
Y2190D01*
X3020D01*
Y2210D01*
X3010D01*
Y2220D01*
X2990D01*
Y2210D01*
X2980D01*
Y2190D01*
X2990D01*
X3090D02*
Y2180D01*
X3110D01*
Y2190D01*
X3120D01*
Y2210D01*
X3110D01*
Y2220D01*
X3090D01*
Y2210D01*
X3080D01*
Y2190D01*
X3090D01*
X3190D02*
Y2180D01*
X3210D01*
Y2190D01*
X3220D01*
Y2210D01*
X3210D01*
Y2220D01*
X3190D01*
Y2210D01*
X3180D01*
Y2190D01*
X3190D01*
X3290D02*
Y2180D01*
X3310D01*
Y2190D01*
X3320D01*
Y2210D01*
X3310D01*
Y2220D01*
X3290D01*
Y2210D01*
X3280D01*
Y2190D01*
X3290D01*
X3390D02*
Y2180D01*
X3410D01*
Y2190D01*
X3420D01*
Y2210D01*
X3410D01*
Y2220D01*
X3390D01*
Y2210D01*
X3380D01*
Y2190D01*
X3390D01*
X3490D02*
Y2180D01*
X3510D01*
Y2190D01*
X3520D01*
Y2210D01*
X3510D01*
Y2220D01*
X3490D01*
Y2210D01*
X3480D01*
Y2190D01*
X3490D01*
X2630D02*
Y2180D01*
X2650D01*
Y2190D01*
X2660D01*
Y2210D01*
X2650D01*
Y2220D01*
X2630D01*
Y2210D01*
X2620D01*
Y2190D01*
X2630D01*
X2530D02*
Y2180D01*
X2550D01*
Y2190D01*
X2560D01*
Y2210D01*
X2550D01*
Y2220D01*
X2530D01*
Y2210D01*
X2520D01*
Y2190D01*
X2530D01*
X2430D02*
Y2180D01*
X2450D01*
Y2190D01*
X2460D01*
Y2210D01*
X2450D01*
Y2220D01*
X2430D01*
Y2210D01*
X2420D01*
Y2190D01*
X2430D01*
X2330D02*
Y2180D01*
X2350D01*
Y2190D01*
X2360D01*
Y2210D01*
X2350D01*
Y2220D01*
X2330D01*
Y2210D01*
X2320D01*
Y2190D01*
X2330D01*
X2230D02*
Y2180D01*
X2250D01*
Y2190D01*
X2260D01*
Y2210D01*
X2250D01*
Y2220D01*
X2230D01*
Y2210D01*
X2220D01*
Y2190D01*
X2230D01*
X2130D02*
Y2180D01*
X2150D01*
Y2190D01*
X2160D01*
Y2210D01*
X2150D01*
Y2220D01*
X2130D01*
Y2210D01*
X2120D01*
Y2190D01*
X2130D01*
X2030D02*
Y2180D01*
X2050D01*
Y2190D01*
X2060D01*
Y2210D01*
X2050D01*
Y2220D01*
X2030D01*
Y2210D01*
X2020D01*
Y2190D01*
X2030D01*
X1930D02*
Y2180D01*
X1950D01*
Y2190D01*
X1960D01*
Y2210D01*
X1950D01*
Y2220D01*
X1930D01*
Y2210D01*
X1920D01*
Y2190D01*
X1930D01*
X1830D02*
Y2180D01*
X1850D01*
Y2190D01*
X1860D01*
Y2210D01*
X1850D01*
Y2220D01*
X1830D01*
Y2210D01*
X1820D01*
Y2190D01*
X1830D01*
X1730D02*
Y2180D01*
X1750D01*
Y2190D01*
X1760D01*
Y2210D01*
X1750D01*
Y2220D01*
X1730D01*
Y2210D01*
X1720D01*
Y2190D01*
X1730D01*
X4690D02*
Y2180D01*
X4710D01*
Y2190D01*
X4720D01*
Y2210D01*
X4710D01*
Y2220D01*
X4690D01*
Y2210D01*
X4680D01*
Y2190D01*
X4690D01*
X4790D02*
Y2180D01*
X4810D01*
Y2190D01*
X4820D01*
Y2210D01*
X4810D01*
Y2220D01*
X4790D01*
Y2210D01*
X4780D01*
Y2190D01*
X4790D01*
X4690Y2290D02*
Y2280D01*
X4710D01*
Y2290D01*
X4720D01*
Y2310D01*
X4710D01*
Y2320D01*
X4690D01*
Y2310D01*
X4680D01*
Y2290D01*
X4690D01*
X4790D02*
Y2280D01*
X4810D01*
Y2290D01*
X4820D01*
Y2310D01*
X4810D01*
Y2320D01*
X4790D01*
Y2310D01*
X4780D01*
Y2290D01*
X4790D01*
X4690Y2390D02*
Y2380D01*
X4710D01*
Y2390D01*
X4720D01*
Y2410D01*
X4710D01*
Y2420D01*
X4690D01*
Y2410D01*
X4680D01*
Y2390D01*
X4690D01*
X4790D02*
Y2380D01*
X4810D01*
Y2390D01*
X4820D01*
Y2410D01*
X4810D01*
Y2420D01*
X4790D01*
Y2410D01*
X4780D01*
Y2390D01*
X4790D01*
X4690Y2490D02*
Y2480D01*
X4710D01*
Y2490D01*
X4720D01*
Y2510D01*
X4710D01*
Y2520D01*
X4690D01*
Y2510D01*
X4680D01*
Y2490D01*
X4690D01*
X4790D02*
Y2480D01*
X4810D01*
Y2490D01*
X4820D01*
Y2510D01*
X4810D01*
Y2520D01*
X4790D01*
Y2510D01*
X4780D01*
Y2490D01*
X4790D01*
X4690Y2590D02*
Y2580D01*
X4710D01*
Y2590D01*
X4720D01*
Y2610D01*
X4710D01*
Y2620D01*
X4690D01*
Y2610D01*
X4680D01*
Y2590D01*
X4690D01*
X4790D02*
Y2580D01*
X4810D01*
Y2590D01*
X4820D01*
Y2610D01*
X4810D01*
Y2620D01*
X4790D01*
Y2610D01*
X4780D01*
Y2590D01*
X4790D01*
X4690Y2690D02*
Y2680D01*
X4710D01*
Y2690D01*
X4720D01*
Y2710D01*
X4710D01*
Y2720D01*
X4690D01*
Y2710D01*
X4680D01*
Y2690D01*
X4690D01*
X4790D02*
Y2680D01*
X4810D01*
Y2690D01*
X4820D01*
Y2710D01*
X4810D01*
Y2720D01*
X4790D01*
Y2710D01*
X4780D01*
Y2690D01*
X4790D01*
X4690Y2790D02*
Y2780D01*
X4710D01*
Y2790D01*
X4720D01*
Y2810D01*
X4710D01*
Y2820D01*
X4690D01*
Y2810D01*
X4680D01*
Y2790D01*
X4690D01*
X4790D02*
Y2780D01*
X4810D01*
Y2790D01*
X4820D01*
Y2810D01*
X4810D01*
Y2820D01*
X4790D01*
Y2810D01*
X4780D01*
Y2790D01*
X4790D01*
X4690Y2890D02*
Y2880D01*
X4710D01*
Y2890D01*
X4720D01*
Y2910D01*
X4710D01*
Y2920D01*
X4690D01*
Y2910D01*
X4680D01*
Y2890D01*
X4690D01*
X4790D02*
Y2880D01*
X4810D01*
Y2890D01*
X4820D01*
Y2910D01*
X4810D01*
Y2920D01*
X4790D01*
Y2910D01*
X4780D01*
Y2890D01*
X4790D01*
X4690Y2990D02*
Y2980D01*
X4710D01*
Y2990D01*
X4720D01*
Y3010D01*
X4710D01*
Y3020D01*
X4690D01*
Y3010D01*
X4680D01*
Y2990D01*
X4690D01*
X4790D02*
Y2980D01*
X4810D01*
Y2990D01*
X4820D01*
Y3010D01*
X4810D01*
Y3020D01*
X4790D01*
Y3010D01*
X4780D01*
Y2990D01*
X4790D01*
X4690Y3090D02*
Y3080D01*
X4710D01*
Y3090D01*
X4720D01*
Y3110D01*
X4710D01*
Y3120D01*
X4690D01*
Y3110D01*
X4680D01*
Y3090D01*
X4690D01*
X4790D02*
Y3080D01*
X4810D01*
Y3090D01*
X4820D01*
Y3110D01*
X4810D01*
Y3120D01*
X4790D01*
Y3110D01*
X4780D01*
Y3090D01*
X4790D01*
X4690Y3190D02*
Y3180D01*
X4710D01*
Y3190D01*
X4720D01*
Y3210D01*
X4710D01*
Y3220D01*
X4690D01*
Y3210D01*
X4680D01*
Y3190D01*
X4690D01*
X4790D02*
Y3180D01*
X4810D01*
Y3190D01*
X4820D01*
Y3210D01*
X4810D01*
Y3220D01*
X4790D01*
Y3210D01*
X4780D01*
Y3190D01*
X4790D01*
X4690Y3290D02*
Y3280D01*
X4710D01*
Y3290D01*
X4720D01*
Y3310D01*
X4710D01*
Y3320D01*
X4690D01*
Y3310D01*
X4680D01*
Y3290D01*
X4690D01*
X4790D02*
Y3280D01*
X4810D01*
Y3290D01*
X4820D01*
Y3310D01*
X4810D01*
Y3320D01*
X4790D01*
Y3310D01*
X4780D01*
Y3290D01*
X4790D01*
X4690Y3390D02*
Y3380D01*
X4710D01*
Y3390D01*
X4720D01*
Y3410D01*
X4710D01*
Y3420D01*
X4690D01*
Y3410D01*
X4680D01*
Y3390D01*
X4690D01*
X4790D02*
Y3380D01*
X4810D01*
Y3390D01*
X4820D01*
Y3410D01*
X4810D01*
Y3420D01*
X4790D01*
Y3410D01*
X4780D01*
Y3390D01*
X4790D01*
X4690Y3490D02*
Y3480D01*
X4710D01*
Y3490D01*
X4720D01*
Y3510D01*
X4710D01*
Y3520D01*
X4690D01*
Y3510D01*
X4680D01*
Y3490D01*
X4690D01*
X4790D02*
Y3480D01*
X4810D01*
Y3490D01*
X4820D01*
Y3510D01*
X4810D01*
Y3520D01*
X4790D01*
Y3510D01*
X4780D01*
Y3490D01*
X4790D01*
X4690Y3590D02*
Y3580D01*
X4710D01*
Y3590D01*
X4720D01*
Y3610D01*
X4710D01*
Y3620D01*
X4690D01*
Y3610D01*
X4680D01*
Y3590D01*
X4690D01*
X4790D02*
Y3580D01*
X4810D01*
Y3590D01*
X4820D01*
Y3610D01*
X4810D01*
Y3620D01*
X4790D01*
Y3610D01*
X4780D01*
Y3590D01*
X4790D01*
X4690Y3690D02*
Y3680D01*
X4710D01*
Y3690D01*
X4720D01*
Y3710D01*
X4710D01*
Y3720D01*
X4690D01*
Y3710D01*
X4680D01*
Y3690D01*
X4690D01*
X4790D02*
Y3680D01*
X4810D01*
Y3690D01*
X4820D01*
Y3710D01*
X4810D01*
Y3720D01*
X4790D01*
Y3710D01*
X4780D01*
Y3690D01*
X4790D01*
X4690Y3790D02*
Y3780D01*
X4710D01*
Y3790D01*
X4720D01*
Y3810D01*
X4710D01*
Y3820D01*
X4690D01*
Y3810D01*
X4680D01*
Y3790D01*
X4690D01*
X4790D02*
Y3780D01*
X4810D01*
Y3790D01*
X4820D01*
Y3810D01*
X4810D01*
Y3820D01*
X4790D01*
Y3810D01*
X4780D01*
Y3790D01*
X4790D01*
X4690Y3890D02*
Y3880D01*
X4710D01*
Y3890D01*
X4720D01*
Y3910D01*
X4710D01*
Y3920D01*
X4690D01*
Y3910D01*
X4680D01*
Y3890D01*
X4690D01*
X4790D02*
Y3880D01*
X4810D01*
Y3890D01*
X4820D01*
Y3910D01*
X4810D01*
Y3920D01*
X4790D01*
Y3910D01*
X4780D01*
Y3890D01*
X4790D01*
X6470Y3140D02*
X6480D01*
X6490Y3150D01*
X6500Y3140D01*
X6510D01*
Y3150D01*
X6500Y3160D01*
X6510Y3170D01*
Y3180D01*
X6500D01*
X6490Y3170D01*
X6480Y3180D01*
X6470D01*
Y3170D01*
X6480Y3160D01*
X6470Y3150D01*
Y3140D01*
Y3032D02*
X6480D01*
X6490Y3042D01*
X6500Y3032D01*
X6510D01*
Y3042D01*
X6500Y3052D01*
X6510Y3062D01*
Y3072D01*
X6500D01*
X6490Y3062D01*
X6480Y3072D01*
X6470D01*
Y3062D01*
X6480Y3052D01*
X6470Y3042D01*
Y3032D01*
Y2924D02*
X6480D01*
X6490Y2934D01*
X6500Y2924D01*
X6510D01*
Y2934D01*
X6500Y2944D01*
X6510Y2954D01*
Y2964D01*
X6500D01*
X6490Y2954D01*
X6480Y2964D01*
X6470D01*
Y2954D01*
X6480Y2944D01*
X6470Y2934D01*
Y2924D01*
X6582Y3194D02*
X6592D01*
X6602Y3204D01*
X6612Y3194D01*
X6622D01*
Y3204D01*
X6612Y3214D01*
X6622Y3224D01*
Y3234D01*
X6612D01*
X6602Y3224D01*
X6592Y3234D01*
X6582D01*
Y3224D01*
X6592Y3214D01*
X6582Y3204D01*
Y3194D01*
Y3086D02*
X6592D01*
X6602Y3096D01*
X6612Y3086D01*
X6622D01*
Y3096D01*
X6612Y3106D01*
X6622Y3116D01*
Y3126D01*
X6612D01*
X6602Y3116D01*
X6592Y3126D01*
X6582D01*
Y3116D01*
X6592Y3106D01*
X6582Y3096D01*
Y3086D01*
Y2978D02*
X6592D01*
X6602Y2988D01*
X6612Y2978D01*
X6622D01*
Y2988D01*
X6612Y2998D01*
X6622Y3008D01*
Y3018D01*
X6612D01*
X6602Y3008D01*
X6592Y3018D01*
X6582D01*
Y3008D01*
X6592Y2998D01*
X6582Y2988D01*
Y2978D01*
Y2870D02*
X6592D01*
X6602Y2880D01*
X6612Y2870D01*
X6622D01*
Y2880D01*
X6612Y2890D01*
X6622Y2900D01*
Y2910D01*
X6612D01*
X6602Y2900D01*
X6592Y2910D01*
X6582D01*
Y2900D01*
X6592Y2890D01*
X6582Y2880D01*
Y2870D01*
X6526Y2506D02*
X6546Y2526D01*
X6566Y2506D01*
X6546Y2486D01*
X6526Y2506D01*
Y3490D02*
X6546Y3510D01*
X6566Y3490D01*
X6546Y3470D01*
X6526Y3490D01*
X6582Y2762D02*
X6592D01*
X6602Y2772D01*
X6612Y2762D01*
X6622D01*
Y2772D01*
X6612Y2782D01*
X6622Y2792D01*
Y2802D01*
X6612D01*
X6602Y2792D01*
X6592Y2802D01*
X6582D01*
Y2792D01*
X6592Y2782D01*
X6582Y2772D01*
Y2762D01*
X6470Y2816D02*
X6480D01*
X6490Y2826D01*
X6500Y2816D01*
X6510D01*
Y2826D01*
X6500Y2836D01*
X6510Y2846D01*
Y2856D01*
X6500D01*
X6490Y2846D01*
X6480Y2856D01*
X6470D01*
Y2846D01*
X6480Y2836D01*
X6470Y2826D01*
Y2816D01*
X4381Y1355D02*
X4391Y1365D01*
X4401D01*
X4391Y1375D01*
X4401Y1385D01*
X4391D01*
X4381Y1395D01*
X4371Y1385D01*
X4361D01*
X4371Y1375D01*
X4361Y1365D01*
X4371D01*
X4381Y1355D01*
X4281D02*
X4291Y1365D01*
X4301D01*
X4291Y1375D01*
X4301Y1385D01*
X4291D01*
X4281Y1395D01*
X4271Y1385D01*
X4261D01*
X4271Y1375D01*
X4261Y1365D01*
X4271D01*
X4281Y1355D01*
X4381Y1455D02*
X4391Y1465D01*
X4401D01*
X4391Y1475D01*
X4401Y1485D01*
X4391D01*
X4381Y1495D01*
X4371Y1485D01*
X4361D01*
X4371Y1475D01*
X4361Y1465D01*
X4371D01*
X4381Y1455D01*
X4281D02*
X4291Y1465D01*
X4301D01*
X4291Y1475D01*
X4301Y1485D01*
X4291D01*
X4281Y1495D01*
X4271Y1485D01*
X4261D01*
X4271Y1475D01*
X4261Y1465D01*
X4271D01*
X4281Y1455D01*
X4381Y1555D02*
X4391Y1565D01*
X4401D01*
X4391Y1575D01*
X4401Y1585D01*
X4391D01*
X4381Y1595D01*
X4371Y1585D01*
X4361D01*
X4371Y1575D01*
X4361Y1565D01*
X4371D01*
X4381Y1555D01*
X4281D02*
X4291Y1565D01*
X4301D01*
X4291Y1575D01*
X4301Y1585D01*
X4291D01*
X4281Y1595D01*
X4271Y1585D01*
X4261D01*
X4271Y1575D01*
X4261Y1565D01*
X4271D01*
X4281Y1555D01*
X2300Y1380D02*
X2310Y1390D01*
X2320D01*
X2310Y1400D01*
X2320Y1410D01*
X2310D01*
X2300Y1420D01*
X2290Y1410D01*
X2280D01*
X2290Y1400D01*
X2280Y1390D01*
X2290D01*
X2300Y1380D01*
Y1480D02*
X2310Y1490D01*
X2320D01*
X2310Y1500D01*
X2320Y1510D01*
X2310D01*
X2300Y1520D01*
X2290Y1510D01*
X2280D01*
X2290Y1500D01*
X2280Y1490D01*
X2290D01*
X2300Y1480D01*
X2400Y1380D02*
X2410Y1390D01*
X2420D01*
X2410Y1400D01*
X2420Y1410D01*
X2410D01*
X2400Y1420D01*
X2390Y1410D01*
X2380D01*
X2390Y1400D01*
X2380Y1390D01*
X2390D01*
X2400Y1380D01*
Y1480D02*
X2410Y1490D01*
X2420D01*
X2410Y1500D01*
X2420Y1510D01*
X2410D01*
X2400Y1520D01*
X2390Y1510D01*
X2380D01*
X2390Y1500D01*
X2380Y1490D01*
X2390D01*
X2400Y1480D01*
X2500Y1380D02*
X2510Y1390D01*
X2520D01*
X2510Y1400D01*
X2520Y1410D01*
X2510D01*
X2500Y1420D01*
X2490Y1410D01*
X2480D01*
X2490Y1400D01*
X2480Y1390D01*
X2490D01*
X2500Y1380D01*
Y1480D02*
X2510Y1490D01*
X2520D01*
X2510Y1500D01*
X2520Y1510D01*
X2510D01*
X2500Y1520D01*
X2490Y1510D01*
X2480D01*
X2490Y1500D01*
X2480Y1490D01*
X2490D01*
X2500Y1480D01*
X2600Y1380D02*
X2610Y1390D01*
X2620D01*
X2610Y1400D01*
X2620Y1410D01*
X2610D01*
X2600Y1420D01*
X2590Y1410D01*
X2580D01*
X2590Y1400D01*
X2580Y1390D01*
X2590D01*
X2600Y1380D01*
Y1480D02*
X2610Y1490D01*
X2620D01*
X2610Y1500D01*
X2620Y1510D01*
X2610D01*
X2600Y1520D01*
X2590Y1510D01*
X2580D01*
X2590Y1500D01*
X2580Y1490D01*
X2590D01*
X2600Y1480D01*
X2700Y1380D02*
X2710Y1390D01*
X2720D01*
X2710Y1400D01*
X2720Y1410D01*
X2710D01*
X2700Y1420D01*
X2690Y1410D01*
X2680D01*
X2690Y1400D01*
X2680Y1390D01*
X2690D01*
X2700Y1380D01*
Y1480D02*
X2710Y1490D01*
X2720D01*
X2710Y1500D01*
X2720Y1510D01*
X2710D01*
X2700Y1520D01*
X2690Y1510D01*
X2680D01*
X2690Y1500D01*
X2680Y1490D01*
X2690D01*
X2700Y1480D01*
X2800Y1380D02*
X2810Y1390D01*
X2820D01*
X2810Y1400D01*
X2820Y1410D01*
X2810D01*
X2800Y1420D01*
X2790Y1410D01*
X2780D01*
X2790Y1400D01*
X2780Y1390D01*
X2790D01*
X2800Y1380D01*
Y1480D02*
X2810Y1490D01*
X2820D01*
X2810Y1500D01*
X2820Y1510D01*
X2810D01*
X2800Y1520D01*
X2790Y1510D01*
X2780D01*
X2790Y1500D01*
X2780Y1490D01*
X2790D01*
X2800Y1480D01*
X2900Y1380D02*
X2910Y1390D01*
X2920D01*
X2910Y1400D01*
X2920Y1410D01*
X2910D01*
X2900Y1420D01*
X2890Y1410D01*
X2880D01*
X2890Y1400D01*
X2880Y1390D01*
X2890D01*
X2900Y1380D01*
Y1480D02*
X2910Y1490D01*
X2920D01*
X2910Y1500D01*
X2920Y1510D01*
X2910D01*
X2900Y1520D01*
X2890Y1510D01*
X2880D01*
X2890Y1500D01*
X2880Y1490D01*
X2890D01*
X2900Y1480D01*
X3000Y1380D02*
X3010Y1390D01*
X3020D01*
X3010Y1400D01*
X3020Y1410D01*
X3010D01*
X3000Y1420D01*
X2990Y1410D01*
X2980D01*
X2990Y1400D01*
X2980Y1390D01*
X2990D01*
X3000Y1380D01*
Y1480D02*
X3010Y1490D01*
X3020D01*
X3010Y1500D01*
X3020Y1510D01*
X3010D01*
X3000Y1520D01*
X2990Y1510D01*
X2980D01*
X2990Y1500D01*
X2980Y1490D01*
X2990D01*
X3000Y1480D01*
X3100Y1380D02*
X3110Y1390D01*
X3120D01*
X3110Y1400D01*
X3120Y1410D01*
X3110D01*
X3100Y1420D01*
X3090Y1410D01*
X3080D01*
X3090Y1400D01*
X3080Y1390D01*
X3090D01*
X3100Y1380D01*
Y1480D02*
X3110Y1490D01*
X3120D01*
X3110Y1500D01*
X3120Y1510D01*
X3110D01*
X3100Y1520D01*
X3090Y1510D01*
X3080D01*
X3090Y1500D01*
X3080Y1490D01*
X3090D01*
X3100Y1480D01*
X3200Y1380D02*
X3210Y1390D01*
X3220D01*
X3210Y1400D01*
X3220Y1410D01*
X3210D01*
X3200Y1420D01*
X3190Y1410D01*
X3180D01*
X3190Y1400D01*
X3180Y1390D01*
X3190D01*
X3200Y1380D01*
Y1480D02*
X3210Y1490D01*
X3220D01*
X3210Y1500D01*
X3220Y1510D01*
X3210D01*
X3200Y1520D01*
X3190Y1510D01*
X3180D01*
X3190Y1500D01*
X3180Y1490D01*
X3190D01*
X3200Y1480D01*
X5502Y4647D02*
Y4687D01*
X5542D01*
Y4647D01*
X5502D01*
X5510Y4655D02*
Y4679D01*
X5534D01*
Y4655D01*
X5510D01*
X5659Y4580D02*
Y4620D01*
X5699D01*
Y4580D01*
X5659D01*
X5667Y4588D02*
Y4612D01*
X5691D01*
Y4588D01*
X5667D01*
X5502Y4513D02*
Y4553D01*
X5542D01*
Y4513D01*
X5502D01*
X5510Y4521D02*
Y4545D01*
X5534D01*
Y4521D01*
X5510D01*
X5659Y4447D02*
Y4487D01*
X5699D01*
Y4447D01*
X5659D01*
X5667Y4455D02*
Y4479D01*
X5691D01*
Y4455D01*
X5667D01*
X5502Y4380D02*
Y4420D01*
X5542D01*
Y4380D01*
X5502D01*
X5510Y4388D02*
Y4412D01*
X5534D01*
Y4388D01*
X5510D01*
X3819Y2332D02*
X3799Y2372D01*
X3839D01*
X3819Y2332D01*
Y2340D02*
X3807Y2364D01*
X3831D01*
X3819Y2340D01*
X3937Y2332D02*
X3917Y2372D01*
X3957D01*
X3937Y2332D01*
Y2340D02*
X3925Y2364D01*
X3949D01*
X3937Y2340D01*
X3701Y1936D02*
X3681Y1976D01*
X3721D01*
X3701Y1936D01*
Y1944D02*
X3689Y1968D01*
X3713D01*
X3701Y1944D01*
X3612Y2024D02*
X3592Y2064D01*
X3632D01*
X3612Y2024D01*
Y2032D02*
X3600Y2056D01*
X3624D01*
X3612Y2032D01*
D74*
X3908Y4626D02*
G03*
X3908Y4626I-20J0D01*
G01*
Y4326D02*
G03*
X3908Y4326I-20J0D01*
G01*
X4498D02*
G03*
X4498Y4326I-20J0D01*
G01*
Y4626D02*
G03*
X4498Y4626I-20J0D01*
G01*
X4301Y4326D02*
G03*
X4301Y4326I-20J0D01*
G01*
Y4626D02*
G03*
X4301Y4626I-20J0D01*
G01*
X4105Y4326D02*
G03*
X4105Y4326I-20J0D01*
G01*
Y4626D02*
G03*
X4105Y4626I-20J0D01*
G01*
X6499Y4281D02*
G03*
X6499Y4281I-20J0D01*
G01*
X6199D02*
G03*
X6199Y4281I-20J0D01*
G01*
X6620Y4550D02*
G03*
X6620Y4550I-20J0D01*
G01*
Y4250D02*
G03*
X6620Y4250I-20J0D01*
G01*
X6860D02*
G03*
X6860Y4250I-20J0D01*
G01*
Y3950D02*
G03*
X6860Y3950I-20J0D01*
G01*
X5288Y4547D02*
G03*
X5288Y4547I-20J0D01*
G01*
X4988D02*
G03*
X4988Y4547I-20J0D01*
G01*
Y4341D02*
G03*
X4988Y4341I-20J0D01*
G01*
X5288D02*
G03*
X5288Y4341I-20J0D01*
G01*
X6200Y2480D02*
G03*
X6200Y2480I-20J0D01*
G01*
Y2780D02*
G03*
X6200Y2780I-20J0D01*
G01*
X6020Y3225D02*
G03*
X6020Y3225I-20J0D01*
G01*
X5720D02*
G03*
X5720Y3225I-20J0D01*
G01*
X5620D02*
G03*
X5620Y3225I-20J0D01*
G01*
X5320D02*
G03*
X5320Y3225I-20J0D01*
G01*
X6200Y3170D02*
G03*
X6200Y3170I-20J0D01*
G01*
Y2870D02*
G03*
X6200Y2870I-20J0D01*
G01*
X6020Y3405D02*
G03*
X6020Y3405I-20J0D01*
G01*
X5720D02*
G03*
X5720Y3405I-20J0D01*
G01*
X5620D02*
G03*
X5620Y3405I-20J0D01*
G01*
X5320D02*
G03*
X5320Y3405I-20J0D01*
G01*
X6200Y3570D02*
G03*
X6200Y3570I-20J0D01*
G01*
Y3270D02*
G03*
X6200Y3270I-20J0D01*
G01*
X6020Y3575D02*
G03*
X6020Y3575I-20J0D01*
G01*
X5720D02*
G03*
X5720Y3575I-20J0D01*
G01*
X5620D02*
G03*
X5620Y3575I-20J0D01*
G01*
X5320D02*
G03*
X5320Y3575I-20J0D01*
G01*
X3711Y4626D02*
G03*
X3711Y4626I-20J0D01*
G01*
Y4326D02*
G03*
X3711Y4326I-20J0D01*
G01*
X6211Y4547D02*
G03*
X6211Y4547I-20J0D01*
G01*
X6309D02*
G03*
X6309Y4547I-20J0D01*
G01*
X6408D02*
G03*
X6408Y4547I-20J0D01*
G01*
X5520Y2600D02*
G03*
X5520Y2600I-20J0D01*
G01*
X5620D02*
G03*
X5620Y2600I-20J0D01*
G01*
X5720D02*
G03*
X5720Y2600I-20J0D01*
G01*
X5820D02*
G03*
X5820Y2600I-20J0D01*
G01*
X5420Y1800D02*
G03*
X5420Y1800I-20J0D01*
G01*
X5520D02*
G03*
X5520Y1800I-20J0D01*
G01*
X5620D02*
G03*
X5620Y1800I-20J0D01*
G01*
X5720D02*
G03*
X5720Y1800I-20J0D01*
G01*
X5820D02*
G03*
X5820Y1800I-20J0D01*
G01*
X5920D02*
G03*
X5920Y1800I-20J0D01*
G01*
X5320Y3050D02*
G03*
X5320Y3050I-20J0D01*
G01*
X5620D02*
G03*
X5620Y3050I-20J0D01*
G01*
X5720D02*
G03*
X5720Y3050I-20J0D01*
G01*
X6020D02*
G03*
X6020Y3050I-20J0D01*
G01*
X5195Y3400D02*
G03*
X5195Y3400I-20J0D01*
G01*
Y3100D02*
G03*
X5195Y3100I-20J0D01*
G01*
X5120Y2600D02*
G03*
X5120Y2600I-20J0D01*
G01*
Y2900D02*
G03*
X5120Y2900I-20J0D01*
G01*
X5320Y2875D02*
G03*
X5320Y2875I-20J0D01*
G01*
X5620D02*
G03*
X5620Y2875I-20J0D01*
G01*
X5720D02*
G03*
X5720Y2875I-20J0D01*
G01*
X6020D02*
G03*
X6020Y2875I-20J0D01*
G01*
D75*
X6203Y4547D02*
G03*
X6203Y4547I-12J0D01*
G01*
X6301D02*
G03*
X6301Y4547I-12J0D01*
G01*
X6400D02*
G03*
X6400Y4547I-12J0D01*
G01*
X5512Y2600D02*
G03*
X5512Y2600I-12J0D01*
G01*
X5612D02*
G03*
X5612Y2600I-12J0D01*
G01*
X5712D02*
G03*
X5712Y2600I-12J0D01*
G01*
X5812D02*
G03*
X5812Y2600I-12J0D01*
G01*
X5412Y1800D02*
G03*
X5412Y1800I-12J0D01*
G01*
X5512D02*
G03*
X5512Y1800I-12J0D01*
G01*
X5612D02*
G03*
X5612Y1800I-12J0D01*
G01*
X5712D02*
G03*
X5712Y1800I-12J0D01*
G01*
X5812D02*
G03*
X5812Y1800I-12J0D01*
G01*
X5912D02*
G03*
X5912Y1800I-12J0D01*
G01*
%TF.MD5,b31eb864fdc8dd57b6b694c326c7c4a7*%
M02*
