G04 Layer_Color=32896*
%FSLAX23Y23*%
%MOIN*%
%TF.FileFunction,Legend,Bot*%
%TF.Part,Single*%
G01*
G75*
%TA.AperFunction,NonConductor*%
%ADD32C,0.010*%
D32*
X2950Y4050D02*
X3750D01*
Y4150D01*
X2950D02*
X3750D01*
X2950Y4050D02*
Y4150D01*
X3850Y4050D02*
X4650D01*
Y4150D01*
X3850D02*
X4650D01*
X3850Y4050D02*
Y4150D01*
X2050Y4050D02*
X2850D01*
Y4150D01*
X2050D02*
X2850D01*
X2050Y4050D02*
Y4150D01*
X3650Y2150D02*
X4450D01*
Y2250D01*
X3650D02*
X4450D01*
X3650Y2150D02*
Y2250D01*
X2750Y2150D02*
X3550D01*
Y2250D01*
X2750D02*
X3550D01*
X2750Y2150D02*
Y2250D01*
X2490D02*
X2690D01*
Y2150D02*
Y2250D01*
X2490Y2150D02*
X2690D01*
X1690D02*
Y2250D01*
X2490D01*
X1690Y2150D02*
X2490D01*
X4650D02*
X4850D01*
Y3950D01*
X4650D02*
X4850D01*
X4650Y2150D02*
Y3950D01*
X4805Y4245D02*
X4825D01*
X4815D01*
Y4195D01*
X4825Y4185D01*
X4835D01*
X4845Y4195D01*
X4755Y4185D02*
Y4245D01*
X4785Y4215D01*
X4745D01*
X4725Y4235D02*
X4715Y4245D01*
X4695D01*
X4685Y4235D01*
Y4195D01*
X4695Y4185D01*
X4715D01*
X4725Y4195D01*
Y4235D01*
X4665Y4245D02*
X4625D01*
Y4235D01*
X4665Y4195D01*
Y4185D01*
%TF.MD5,7459470ba7b4ac249fc6605d02831bea*%
M02*
