G04 Layer_Color=65535*
%FSLAX23Y23*%
%MOIN*%
%TF.FileFunction,Legend,Top*%
%TF.Part,Single*%
G01*
G75*
%TA.AperFunction,NonConductor*%
%ADD32C,0.010*%
%ADD52C,0.005*%
%ADD53C,0.008*%
D32*
X2825Y4275D02*
X2850D01*
X2800Y4300D02*
X2825Y4275D01*
X2800Y4300D02*
Y4325D01*
Y4350D01*
Y4425D01*
X3225Y4325D02*
Y4550D01*
X3175Y4600D02*
X3225Y4550D01*
X3025Y4600D02*
X3175D01*
X3025D02*
X3050Y4625D01*
X3025Y4600D02*
X3050Y4575D01*
Y4625D01*
X2800Y4425D02*
X2825Y4400D01*
X2775D02*
X2825D01*
X2775D02*
X2800Y4425D01*
X2608Y4691D02*
X3002D01*
Y4463D02*
Y4691D01*
X2608Y4463D02*
X3002D01*
X2608D02*
Y4691D01*
X2904Y4675D02*
Y4691D01*
X2707Y4675D02*
X2904D01*
X2707D02*
Y4691D01*
X6050Y1650D02*
Y2750D01*
X5250D02*
X6050D01*
X5250Y1650D02*
Y2750D01*
Y1650D02*
X6050D01*
X2047Y3437D02*
X2030Y3454D01*
X1997D01*
X1980Y3437D01*
Y3371D01*
X1997Y3354D01*
X2030D01*
X2047Y3371D01*
X2080Y3354D02*
Y3371D01*
X2097D01*
Y3354D01*
X2080D01*
X2163D02*
Y3454D01*
X2213D01*
X2230Y3437D01*
Y3404D01*
X2213Y3387D01*
X2163D01*
X2197D02*
X2230Y3354D01*
X2263D02*
Y3371D01*
X2280D01*
Y3354D01*
X2263D01*
X2347D02*
Y3421D01*
X2380Y3454D01*
X2413Y3421D01*
Y3354D01*
Y3404D01*
X2347D01*
X2447Y3354D02*
Y3371D01*
X2463D01*
Y3354D01*
X2447D01*
X2596Y3454D02*
X2530D01*
Y3404D01*
X2563D01*
X2530D01*
Y3354D01*
X2630D02*
Y3371D01*
X2646D01*
Y3354D01*
X2630D01*
X2713Y3454D02*
X2780D01*
X2746D01*
Y3354D01*
X2813D02*
Y3371D01*
X2830D01*
Y3354D01*
X2813D01*
X1980Y3210D02*
Y3310D01*
X2013Y3277D01*
X2047Y3310D01*
Y3210D01*
X2147Y3293D02*
X2130Y3310D01*
X2097D01*
X2080Y3293D01*
Y3227D01*
X2097Y3210D01*
X2130D01*
X2147Y3227D01*
X2180Y3310D02*
Y3227D01*
X2197Y3210D01*
X2230D01*
X2247Y3227D01*
Y3310D01*
X2380D02*
Y3210D01*
X2430D01*
X2447Y3227D01*
Y3243D01*
X2430Y3260D01*
X2380D01*
X2430D01*
X2447Y3277D01*
Y3293D01*
X2430Y3310D01*
X2380D01*
X2480Y3277D02*
Y3210D01*
Y3243D01*
X2497Y3260D01*
X2513Y3277D01*
X2530D01*
X2630Y3210D02*
X2596D01*
X2580Y3227D01*
Y3260D01*
X2596Y3277D01*
X2630D01*
X2646Y3260D01*
Y3243D01*
X2580D01*
X2696Y3277D02*
X2730D01*
X2746Y3260D01*
Y3210D01*
X2696D01*
X2680Y3227D01*
X2696Y3243D01*
X2746D01*
X2780Y3210D02*
Y3310D01*
Y3243D02*
X2830Y3277D01*
X2780Y3243D02*
X2830Y3210D01*
X2880Y3260D02*
X2946D01*
X3030Y3310D02*
X2996D01*
X2980Y3293D01*
Y3227D01*
X2996Y3210D01*
X3030D01*
X3046Y3227D01*
Y3293D01*
X3030Y3310D01*
X3080Y3277D02*
Y3227D01*
X3096Y3210D01*
X3146D01*
Y3277D01*
X3196Y3293D02*
Y3277D01*
X3180D01*
X3213D01*
X3196D01*
Y3227D01*
X3213Y3210D01*
X3363Y3310D02*
Y3210D01*
X3413D01*
X3430Y3227D01*
Y3243D01*
X3413Y3260D01*
X3363D01*
X3413D01*
X3430Y3277D01*
Y3293D01*
X3413Y3310D01*
X3363D01*
X3480Y3210D02*
X3513D01*
X3529Y3227D01*
Y3260D01*
X3513Y3277D01*
X3480D01*
X3463Y3260D01*
Y3227D01*
X3480Y3210D01*
X3579Y3277D02*
X3613D01*
X3629Y3260D01*
Y3210D01*
X3579D01*
X3563Y3227D01*
X3579Y3243D01*
X3629D01*
X3663Y3277D02*
Y3210D01*
Y3243D01*
X3679Y3260D01*
X3696Y3277D01*
X3713D01*
X3829Y3310D02*
Y3210D01*
X3779D01*
X3763Y3227D01*
Y3260D01*
X3779Y3277D01*
X3829D01*
X5584Y2060D02*
X5644D01*
X5614D01*
Y2100D01*
X5584D01*
X5644D01*
X5584Y2120D02*
X5644Y2160D01*
X5584D02*
X5644Y2120D01*
X5584Y2180D02*
Y2220D01*
X5594D01*
X5634Y2180D01*
X5644D01*
Y2240D02*
Y2260D01*
Y2250D01*
X5584D01*
X5594Y2240D01*
X5644Y2290D02*
Y2310D01*
Y2300D01*
X5584D01*
X5594Y2290D01*
X5740Y2060D02*
X5680D01*
X5700Y2080D01*
X5680Y2100D01*
X5740D01*
Y2130D02*
Y2150D01*
X5730Y2160D01*
X5710D01*
X5700Y2150D01*
Y2130D01*
X5710Y2120D01*
X5730D01*
X5740Y2130D01*
X5680Y2220D02*
X5740D01*
Y2190D01*
X5730Y2180D01*
X5710D01*
X5700Y2190D01*
Y2220D01*
Y2240D02*
X5730D01*
X5740Y2250D01*
Y2280D01*
X5700D01*
X5740Y2300D02*
Y2320D01*
Y2310D01*
X5680D01*
Y2300D01*
X5740Y2380D02*
Y2360D01*
X5730Y2350D01*
X5710D01*
X5700Y2360D01*
Y2380D01*
X5710Y2390D01*
X5720D01*
Y2350D01*
X3580Y1125D02*
X3570Y1115D01*
Y1095D01*
X3580Y1085D01*
X3620D01*
X3630Y1095D01*
Y1115D01*
X3620Y1125D01*
X3590Y1145D02*
X3620D01*
X3630Y1155D01*
Y1185D01*
X3590D01*
Y1205D02*
X3630D01*
X3610D01*
X3600Y1215D01*
X3590Y1225D01*
Y1235D01*
Y1265D02*
X3630D01*
X3610D01*
X3600Y1275D01*
X3590Y1285D01*
Y1295D01*
X3630Y1355D02*
Y1335D01*
X3620Y1325D01*
X3600D01*
X3590Y1335D01*
Y1355D01*
X3600Y1365D01*
X3610D01*
Y1325D01*
X3630Y1385D02*
X3590D01*
Y1415D01*
X3600Y1425D01*
X3630D01*
X3580Y1455D02*
X3590D01*
Y1445D01*
Y1465D01*
Y1455D01*
X3620D01*
X3630Y1465D01*
X3640Y1495D02*
Y1535D01*
X3580Y1595D02*
X3570Y1585D01*
Y1565D01*
X3580Y1555D01*
X3590D01*
X3600Y1565D01*
Y1585D01*
X3610Y1595D01*
X3620D01*
X3630Y1585D01*
Y1565D01*
X3620Y1555D01*
X3630Y1645D02*
Y1625D01*
X3620Y1615D01*
X3600D01*
X3590Y1625D01*
Y1645D01*
X3600Y1655D01*
X3610D01*
Y1615D01*
X3630Y1675D02*
X3590D01*
Y1705D01*
X3600Y1715D01*
X3630D01*
Y1735D02*
Y1765D01*
X3620Y1775D01*
X3610Y1765D01*
Y1745D01*
X3600Y1735D01*
X3590Y1745D01*
Y1775D01*
X3630Y1825D02*
Y1805D01*
X3620Y1795D01*
X3600D01*
X3590Y1805D01*
Y1825D01*
X3600Y1835D01*
X3610D01*
Y1795D01*
X5340Y3625D02*
Y3685D01*
X5370D01*
X5380Y3675D01*
Y3655D01*
X5370Y3645D01*
X5340D01*
X5360D02*
X5380Y3625D01*
X5430D02*
Y3685D01*
X5400Y3655D01*
X5440D01*
X5460Y3625D02*
X5480D01*
X5470D01*
Y3685D01*
X5460Y3675D01*
X5510Y3635D02*
X5520Y3625D01*
X5540D01*
X5550Y3635D01*
Y3675D01*
X5540Y3685D01*
X5520D01*
X5510Y3675D01*
Y3665D01*
X5520Y3655D01*
X5550D01*
X5740Y3635D02*
Y3695D01*
X5770D01*
X5780Y3685D01*
Y3665D01*
X5770Y3655D01*
X5740D01*
X5760D02*
X5780Y3635D01*
X5830D02*
Y3695D01*
X5800Y3665D01*
X5840D01*
X5860Y3635D02*
X5880D01*
X5870D01*
Y3695D01*
X5860Y3685D01*
X5910D02*
X5920Y3695D01*
X5940D01*
X5950Y3685D01*
Y3675D01*
X5940Y3665D01*
X5950Y3655D01*
Y3645D01*
X5940Y3635D01*
X5920D01*
X5910Y3645D01*
Y3655D01*
X5920Y3665D01*
X5910Y3675D01*
Y3685D01*
X5920Y3665D02*
X5940D01*
X6130Y3310D02*
X6070D01*
Y3340D01*
X6080Y3350D01*
X6100D01*
X6110Y3340D01*
Y3310D01*
Y3330D02*
X6130Y3350D01*
Y3400D02*
X6070D01*
X6100Y3370D01*
Y3410D01*
X6130Y3430D02*
Y3450D01*
Y3440D01*
X6070D01*
X6080Y3430D01*
X6070Y3480D02*
Y3520D01*
X6080D01*
X6120Y3480D01*
X6130D01*
X5330Y3455D02*
Y3515D01*
X5360D01*
X5370Y3505D01*
Y3485D01*
X5360Y3475D01*
X5330D01*
X5350D02*
X5370Y3455D01*
X5420D02*
Y3515D01*
X5390Y3485D01*
X5430D01*
X5450Y3455D02*
X5470D01*
X5460D01*
Y3515D01*
X5450Y3505D01*
X5540Y3515D02*
X5520Y3505D01*
X5500Y3485D01*
Y3465D01*
X5510Y3455D01*
X5530D01*
X5540Y3465D01*
Y3475D01*
X5530Y3485D01*
X5500D01*
X5750Y3455D02*
Y3515D01*
X5780D01*
X5790Y3505D01*
Y3485D01*
X5780Y3475D01*
X5750D01*
X5770D02*
X5790Y3455D01*
X5840D02*
Y3515D01*
X5810Y3485D01*
X5850D01*
X5870Y3455D02*
X5890D01*
X5880D01*
Y3515D01*
X5870Y3505D01*
X5960Y3515D02*
X5920D01*
Y3485D01*
X5940Y3495D01*
X5950D01*
X5960Y3485D01*
Y3465D01*
X5950Y3455D01*
X5930D01*
X5920Y3465D01*
X6130Y2920D02*
X6070D01*
Y2950D01*
X6080Y2960D01*
X6100D01*
X6110Y2950D01*
Y2920D01*
Y2940D02*
X6130Y2960D01*
Y3010D02*
X6070D01*
X6100Y2980D01*
Y3020D01*
X6130Y3040D02*
Y3060D01*
Y3050D01*
X6070D01*
X6080Y3040D01*
X6130Y3120D02*
X6070D01*
X6100Y3090D01*
Y3130D01*
X5340Y3285D02*
Y3345D01*
X5370D01*
X5380Y3335D01*
Y3315D01*
X5370Y3305D01*
X5340D01*
X5360D02*
X5380Y3285D01*
X5430D02*
Y3345D01*
X5400Y3315D01*
X5440D01*
X5460Y3285D02*
X5480D01*
X5470D01*
Y3345D01*
X5460Y3335D01*
X5510D02*
X5520Y3345D01*
X5540D01*
X5550Y3335D01*
Y3325D01*
X5540Y3315D01*
X5530D01*
X5540D01*
X5550Y3305D01*
Y3295D01*
X5540Y3285D01*
X5520D01*
X5510Y3295D01*
X5760Y3285D02*
Y3345D01*
X5790D01*
X5800Y3335D01*
Y3315D01*
X5790Y3305D01*
X5760D01*
X5780D02*
X5800Y3285D01*
X5850D02*
Y3345D01*
X5820Y3315D01*
X5860D01*
X5880Y3285D02*
X5900D01*
X5890D01*
Y3345D01*
X5880Y3335D01*
X5970Y3285D02*
X5930D01*
X5970Y3325D01*
Y3335D01*
X5960Y3345D01*
X5940D01*
X5930Y3335D01*
X6130Y2540D02*
X6070D01*
Y2570D01*
X6080Y2580D01*
X6100D01*
X6110Y2570D01*
Y2540D01*
Y2560D02*
X6130Y2580D01*
Y2630D02*
X6070D01*
X6100Y2600D01*
Y2640D01*
X6130Y2660D02*
Y2680D01*
Y2670D01*
X6070D01*
X6080Y2660D01*
X6130Y2710D02*
Y2730D01*
Y2720D01*
X6070D01*
X6080Y2710D01*
X5315Y2500D02*
X5365D01*
X5375Y2510D01*
Y2530D01*
X5365Y2540D01*
X5315D01*
X5375Y2590D02*
X5315D01*
X5345Y2560D01*
Y2600D01*
X5325Y2620D02*
X5315Y2630D01*
Y2650D01*
X5325Y2660D01*
X5365D01*
X5375Y2650D01*
Y2630D01*
X5365Y2620D01*
X5325D01*
X5375Y2720D02*
Y2680D01*
X5335Y2720D01*
X5325D01*
X5315Y2710D01*
Y2690D01*
X5325Y2680D01*
X4817Y1639D02*
X4797D01*
X4807D01*
Y1589D01*
X4797Y1579D01*
X4787D01*
X4777Y1589D01*
X4867Y1579D02*
Y1639D01*
X4837Y1609D01*
X4877D01*
X4897Y1629D02*
X4907Y1639D01*
X4927D01*
X4937Y1629D01*
Y1589D01*
X4927Y1579D01*
X4907D01*
X4897Y1589D01*
Y1629D01*
X4957Y1579D02*
X4977D01*
X4967D01*
Y1639D01*
X4957Y1629D01*
X6338Y3707D02*
X6318D01*
X6328D01*
Y3657D01*
X6318Y3647D01*
X6308D01*
X6298Y3657D01*
X6388Y3647D02*
Y3707D01*
X6358Y3677D01*
X6398D01*
X6418Y3697D02*
X6428Y3707D01*
X6448D01*
X6458Y3697D01*
Y3657D01*
X6448Y3647D01*
X6428D01*
X6418Y3657D01*
Y3697D01*
X6518Y3647D02*
X6478D01*
X6518Y3687D01*
Y3697D01*
X6508Y3707D01*
X6488D01*
X6478Y3697D01*
X5310Y3870D02*
Y3850D01*
Y3860D01*
X5360D01*
X5370Y3850D01*
Y3840D01*
X5360Y3830D01*
X5370Y3920D02*
X5310D01*
X5340Y3890D01*
Y3930D01*
X5320Y3950D02*
X5310Y3960D01*
Y3980D01*
X5320Y3990D01*
X5360D01*
X5370Y3980D01*
Y3960D01*
X5360Y3950D01*
X5320D01*
Y4010D02*
X5310Y4020D01*
Y4040D01*
X5320Y4050D01*
X5330D01*
X5340Y4040D01*
Y4030D01*
Y4040D01*
X5350Y4050D01*
X5360D01*
X5370Y4040D01*
Y4020D01*
X5360Y4010D01*
X2139Y1726D02*
X2119D01*
X2129D01*
Y1676D01*
X2119Y1666D01*
X2109D01*
X2099Y1676D01*
X2189Y1666D02*
Y1726D01*
X2159Y1696D01*
X2199D01*
X2219Y1716D02*
X2229Y1726D01*
X2249D01*
X2259Y1716D01*
Y1676D01*
X2249Y1666D01*
X2229D01*
X2219Y1676D01*
Y1716D01*
X2309Y1666D02*
Y1726D01*
X2279Y1696D01*
X2319D01*
X6239Y2226D02*
X6219D01*
X6229D01*
Y2176D01*
X6219Y2166D01*
X6209D01*
X6199Y2176D01*
X6289Y2166D02*
Y2226D01*
X6259Y2196D01*
X6299D01*
X6319Y2216D02*
X6329Y2226D01*
X6349D01*
X6359Y2216D01*
Y2176D01*
X6349Y2166D01*
X6329D01*
X6319Y2176D01*
Y2216D01*
X6419Y2226D02*
X6379D01*
Y2196D01*
X6399Y2206D01*
X6409D01*
X6419Y2196D01*
Y2176D01*
X6409Y2166D01*
X6389D01*
X6379Y2176D01*
X2515Y4515D02*
Y4495D01*
Y4505D01*
X2565D01*
X2575Y4495D01*
Y4485D01*
X2565Y4475D01*
X2575Y4565D02*
X2515D01*
X2545Y4535D01*
Y4575D01*
X2525Y4595D02*
X2515Y4605D01*
Y4625D01*
X2525Y4635D01*
X2565D01*
X2575Y4625D01*
Y4605D01*
X2565Y4595D01*
X2525D01*
X2515Y4695D02*
X2525Y4675D01*
X2545Y4655D01*
X2565D01*
X2575Y4665D01*
Y4685D01*
X2565Y4695D01*
X2555D01*
X2545Y4685D01*
Y4655D01*
X3704Y1908D02*
X3684D01*
X3694D01*
Y1858D01*
X3684Y1848D01*
X3674D01*
X3664Y1858D01*
X3754Y1848D02*
Y1908D01*
X3724Y1878D01*
X3764D01*
X3784Y1898D02*
X3794Y1908D01*
X3814D01*
X3824Y1898D01*
Y1858D01*
X3814Y1848D01*
X3794D01*
X3784Y1858D01*
Y1898D01*
X3844D02*
X3854Y1908D01*
X3874D01*
X3884Y1898D01*
Y1888D01*
X3874Y1878D01*
X3884Y1868D01*
Y1858D01*
X3874Y1848D01*
X3854D01*
X3844Y1858D01*
Y1868D01*
X3854Y1878D01*
X3844Y1888D01*
Y1898D01*
X3854Y1878D02*
X3874D01*
X4196Y1898D02*
X4176D01*
X4186D01*
Y1848D01*
X4176Y1838D01*
X4166D01*
X4156Y1848D01*
X4246Y1838D02*
Y1898D01*
X4216Y1868D01*
X4256D01*
X4276Y1888D02*
X4286Y1898D01*
X4306D01*
X4316Y1888D01*
Y1848D01*
X4306Y1838D01*
X4286D01*
X4276Y1848D01*
Y1888D01*
X4336Y1848D02*
X4346Y1838D01*
X4366D01*
X4376Y1848D01*
Y1888D01*
X4366Y1898D01*
X4346D01*
X4336Y1888D01*
Y1878D01*
X4346Y1868D01*
X4376D01*
X5067Y4275D02*
X5057Y4285D01*
X5037D01*
X5027Y4275D01*
Y4235D01*
X5037Y4225D01*
X5057D01*
X5067Y4235D01*
X5117Y4225D02*
Y4285D01*
X5087Y4255D01*
X5127D01*
X5147Y4275D02*
X5157Y4285D01*
X5177D01*
X5187Y4275D01*
Y4235D01*
X5177Y4225D01*
X5157D01*
X5147Y4235D01*
Y4275D01*
X5207Y4225D02*
X5227D01*
X5217D01*
Y4285D01*
X5207Y4275D01*
X2915Y2058D02*
X2905Y2068D01*
X2885D01*
X2875Y2058D01*
Y2018D01*
X2885Y2008D01*
X2905D01*
X2915Y2018D01*
X2965Y2008D02*
Y2068D01*
X2935Y2038D01*
X2975D01*
X2995Y2058D02*
X3005Y2068D01*
X3025D01*
X3035Y2058D01*
Y2018D01*
X3025Y2008D01*
X3005D01*
X2995Y2018D01*
Y2058D01*
X3095Y2008D02*
X3055D01*
X3095Y2048D01*
Y2058D01*
X3085Y2068D01*
X3065D01*
X3055Y2058D01*
X5020Y4419D02*
Y4479D01*
X5050D01*
X5060Y4469D01*
Y4449D01*
X5050Y4439D01*
X5020D01*
X5040D02*
X5060Y4419D01*
X5110D02*
Y4479D01*
X5080Y4449D01*
X5120D01*
X5140Y4469D02*
X5150Y4479D01*
X5170D01*
X5180Y4469D01*
Y4429D01*
X5170Y4419D01*
X5150D01*
X5140Y4429D01*
Y4469D01*
X5200Y4419D02*
X5220D01*
X5210D01*
Y4479D01*
X5200Y4469D01*
X5010Y4616D02*
Y4676D01*
X5040D01*
X5050Y4666D01*
Y4646D01*
X5040Y4636D01*
X5010D01*
X5030D02*
X5050Y4616D01*
X5100D02*
Y4676D01*
X5070Y4646D01*
X5110D01*
X5130Y4666D02*
X5140Y4676D01*
X5160D01*
X5170Y4666D01*
Y4626D01*
X5160Y4616D01*
X5140D01*
X5130Y4626D01*
Y4666D01*
X5230Y4616D02*
X5190D01*
X5230Y4656D01*
Y4666D01*
X5220Y4676D01*
X5200D01*
X5190Y4666D01*
X6960Y4000D02*
X6900D01*
Y4030D01*
X6910Y4040D01*
X6930D01*
X6940Y4030D01*
Y4000D01*
Y4020D02*
X6960Y4040D01*
Y4090D02*
X6900D01*
X6930Y4060D01*
Y4100D01*
X6910Y4120D02*
X6900Y4130D01*
Y4150D01*
X6910Y4160D01*
X6950D01*
X6960Y4150D01*
Y4130D01*
X6950Y4120D01*
X6910D01*
Y4180D02*
X6900Y4190D01*
Y4210D01*
X6910Y4220D01*
X6920D01*
X6930Y4210D01*
Y4200D01*
Y4210D01*
X6940Y4220D01*
X6950D01*
X6960Y4210D01*
Y4190D01*
X6950Y4180D01*
X6720Y4290D02*
X6660D01*
Y4320D01*
X6670Y4330D01*
X6690D01*
X6700Y4320D01*
Y4290D01*
Y4310D02*
X6720Y4330D01*
Y4380D02*
X6660D01*
X6690Y4350D01*
Y4390D01*
X6670Y4410D02*
X6660Y4420D01*
Y4440D01*
X6670Y4450D01*
X6710D01*
X6720Y4440D01*
Y4420D01*
X6710Y4410D01*
X6670D01*
X6720Y4500D02*
X6660D01*
X6690Y4470D01*
Y4510D01*
X6220Y4330D02*
Y4390D01*
X6250D01*
X6260Y4380D01*
Y4360D01*
X6250Y4350D01*
X6220D01*
X6240D02*
X6260Y4330D01*
X6310D02*
Y4390D01*
X6280Y4360D01*
X6320D01*
X6340Y4380D02*
X6350Y4390D01*
X6370D01*
X6380Y4380D01*
Y4340D01*
X6370Y4330D01*
X6350D01*
X6340Y4340D01*
Y4380D01*
X6440Y4390D02*
X6400D01*
Y4360D01*
X6420Y4370D01*
X6430D01*
X6440Y4360D01*
Y4340D01*
X6430Y4330D01*
X6410D01*
X6400Y4340D01*
X4026Y4375D02*
X3966D01*
Y4405D01*
X3976Y4415D01*
X3996D01*
X4006Y4405D01*
Y4375D01*
Y4395D02*
X4026Y4415D01*
Y4465D02*
X3966D01*
X3996Y4435D01*
Y4475D01*
X3976Y4495D02*
X3966Y4505D01*
Y4525D01*
X3976Y4535D01*
X4016D01*
X4026Y4525D01*
Y4505D01*
X4016Y4495D01*
X3976D01*
X3966Y4595D02*
X3976Y4575D01*
X3996Y4555D01*
X4016D01*
X4026Y4565D01*
Y4585D01*
X4016Y4595D01*
X4006D01*
X3996Y4585D01*
Y4555D01*
X4232Y4378D02*
X4172D01*
Y4408D01*
X4182Y4418D01*
X4202D01*
X4212Y4408D01*
Y4378D01*
Y4398D02*
X4232Y4418D01*
Y4468D02*
X4172D01*
X4202Y4438D01*
Y4478D01*
X4182Y4498D02*
X4172Y4508D01*
Y4528D01*
X4182Y4538D01*
X4222D01*
X4232Y4528D01*
Y4508D01*
X4222Y4498D01*
X4182D01*
X4172Y4558D02*
Y4597D01*
X4182D01*
X4222Y4558D01*
X4232D01*
X4429Y4375D02*
X4369D01*
Y4405D01*
X4379Y4415D01*
X4399D01*
X4409Y4405D01*
Y4375D01*
Y4395D02*
X4429Y4415D01*
Y4465D02*
X4369D01*
X4399Y4435D01*
Y4475D01*
X4379Y4495D02*
X4369Y4505D01*
Y4525D01*
X4379Y4535D01*
X4419D01*
X4429Y4525D01*
Y4505D01*
X4419Y4495D01*
X4379D01*
Y4555D02*
X4369Y4565D01*
Y4585D01*
X4379Y4595D01*
X4389D01*
X4399Y4585D01*
X4409Y4595D01*
X4419D01*
X4429Y4585D01*
Y4565D01*
X4419Y4555D01*
X4409D01*
X4399Y4565D01*
X4389Y4555D01*
X4379D01*
X4399Y4565D02*
Y4585D01*
X3839Y4365D02*
X3779D01*
Y4395D01*
X3789Y4405D01*
X3809D01*
X3819Y4395D01*
Y4365D01*
Y4385D02*
X3839Y4405D01*
Y4455D02*
X3779D01*
X3809Y4425D01*
Y4465D01*
X3789Y4485D02*
X3779Y4495D01*
Y4515D01*
X3789Y4525D01*
X3829D01*
X3839Y4515D01*
Y4495D01*
X3829Y4485D01*
X3789D01*
X3829Y4545D02*
X3839Y4555D01*
Y4575D01*
X3829Y4585D01*
X3789D01*
X3779Y4575D01*
Y4555D01*
X3789Y4545D01*
X3799D01*
X3809Y4555D01*
Y4585D01*
X3632Y4378D02*
X3572D01*
Y4408D01*
X3582Y4418D01*
X3602D01*
X3612Y4408D01*
Y4378D01*
Y4398D02*
X3632Y4418D01*
Y4468D02*
X3572D01*
X3602Y4438D01*
Y4478D01*
X3632Y4498D02*
Y4518D01*
Y4508D01*
X3572D01*
X3582Y4498D01*
Y4548D02*
X3572Y4558D01*
Y4577D01*
X3582Y4587D01*
X3622D01*
X3632Y4577D01*
Y4558D01*
X3622Y4548D01*
X3582D01*
X6101Y4683D02*
Y4743D01*
X6131D01*
X6141Y4733D01*
Y4713D01*
X6131Y4703D01*
X6101D01*
X6121D02*
X6141Y4683D01*
X6161Y4743D02*
Y4703D01*
X6181Y4683D01*
X6201Y4703D01*
Y4743D01*
X6251Y4683D02*
Y4743D01*
X6221Y4713D01*
X6261D01*
X6281Y4733D02*
X6291Y4743D01*
X6311D01*
X6321Y4733D01*
Y4693D01*
X6311Y4683D01*
X6291D01*
X6281Y4693D01*
Y4733D01*
X6341Y4683D02*
X6361D01*
X6351D01*
Y4743D01*
X6341Y4733D01*
X5342Y4837D02*
Y4787D01*
X5352Y4777D01*
X5372D01*
X5382Y4787D01*
Y4837D01*
X5432Y4777D02*
Y4837D01*
X5402Y4807D01*
X5442D01*
X5462Y4827D02*
X5472Y4837D01*
X5492D01*
X5502Y4827D01*
Y4787D01*
X5492Y4777D01*
X5472D01*
X5462Y4787D01*
Y4827D01*
X5522Y4777D02*
X5542D01*
X5532D01*
Y4837D01*
X5522Y4827D01*
X5725Y3100D02*
Y3160D01*
X5755D01*
X5765Y3150D01*
Y3130D01*
X5755Y3120D01*
X5725D01*
X5745D02*
X5765Y3100D01*
X5815D02*
Y3160D01*
X5785Y3130D01*
X5825D01*
X5885Y3100D02*
X5845D01*
X5885Y3140D01*
Y3150D01*
X5875Y3160D01*
X5855D01*
X5845Y3150D01*
X5905D02*
X5915Y3160D01*
X5935D01*
X5945Y3150D01*
Y3110D01*
X5935Y3100D01*
X5915D01*
X5905Y3110D01*
Y3150D01*
X5350Y3100D02*
Y3160D01*
X5380D01*
X5390Y3150D01*
Y3130D01*
X5380Y3120D01*
X5350D01*
X5370D02*
X5390Y3100D01*
X5440D02*
Y3160D01*
X5410Y3130D01*
X5450D01*
X5510Y3100D02*
X5470D01*
X5510Y3140D01*
Y3150D01*
X5500Y3160D01*
X5480D01*
X5470Y3150D01*
X5530Y3100D02*
X5550D01*
X5540D01*
Y3160D01*
X5530Y3150D01*
X5100Y3150D02*
X5040D01*
Y3180D01*
X5050Y3190D01*
X5070D01*
X5080Y3180D01*
Y3150D01*
Y3170D02*
X5100Y3190D01*
Y3240D02*
X5040D01*
X5070Y3210D01*
Y3250D01*
X5100Y3310D02*
Y3270D01*
X5060Y3310D01*
X5050D01*
X5040Y3300D01*
Y3280D01*
X5050Y3270D01*
X5100Y3370D02*
Y3330D01*
X5060Y3370D01*
X5050D01*
X5040Y3360D01*
Y3340D01*
X5050Y3330D01*
X5750Y2925D02*
Y2985D01*
X5780D01*
X5790Y2975D01*
Y2955D01*
X5780Y2945D01*
X5750D01*
X5770D02*
X5790Y2925D01*
X5840D02*
Y2985D01*
X5810Y2955D01*
X5850D01*
X5910Y2925D02*
X5870D01*
X5910Y2965D01*
Y2975D01*
X5900Y2985D01*
X5880D01*
X5870Y2975D01*
X5930D02*
X5940Y2985D01*
X5960D01*
X5970Y2975D01*
Y2965D01*
X5960Y2955D01*
X5950D01*
X5960D01*
X5970Y2945D01*
Y2935D01*
X5960Y2925D01*
X5940D01*
X5930Y2935D01*
X5350Y2925D02*
Y2985D01*
X5380D01*
X5390Y2975D01*
Y2955D01*
X5380Y2945D01*
X5350D01*
X5370D02*
X5390Y2925D01*
X5440D02*
Y2985D01*
X5410Y2955D01*
X5450D01*
X5510Y2925D02*
X5470D01*
X5510Y2965D01*
Y2975D01*
X5500Y2985D01*
X5480D01*
X5470Y2975D01*
X5560Y2925D02*
Y2985D01*
X5530Y2955D01*
X5570D01*
X5025Y2675D02*
X4965D01*
Y2705D01*
X4975Y2715D01*
X4995D01*
X5005Y2705D01*
Y2675D01*
Y2695D02*
X5025Y2715D01*
Y2765D02*
X4965D01*
X4995Y2735D01*
Y2775D01*
X5025Y2835D02*
Y2795D01*
X4985Y2835D01*
X4975D01*
X4965Y2825D01*
Y2805D01*
X4975Y2795D01*
X4965Y2895D02*
X4975Y2875D01*
X4995Y2855D01*
X5015D01*
X5025Y2865D01*
Y2885D01*
X5015Y2895D01*
X5005D01*
X4995Y2885D01*
Y2855D01*
X2650Y4315D02*
X2640Y4305D01*
Y4285D01*
X2650Y4275D01*
X2690D01*
X2700Y4285D01*
Y4305D01*
X2690Y4315D01*
X2670D01*
Y4295D01*
X2700Y4335D02*
X2640D01*
X2700Y4375D01*
X2640D01*
Y4395D02*
X2700D01*
Y4425D01*
X2690Y4435D01*
X2650D01*
X2640Y4425D01*
Y4395D01*
X2875Y4280D02*
X2915D01*
X2895Y4300D02*
Y4260D01*
X2975Y4310D02*
X2935D01*
Y4280D01*
X2955Y4290D01*
X2965D01*
X2975Y4280D01*
Y4260D01*
X2965Y4250D01*
X2945D01*
X2935Y4260D01*
X2995Y4310D02*
Y4270D01*
X3015Y4250D01*
X3035Y4270D01*
Y4310D01*
X3125Y4280D02*
X3165D01*
X3145Y4300D02*
Y4260D01*
X3185Y4300D02*
X3195Y4310D01*
X3215D01*
X3225Y4300D01*
Y4290D01*
X3215Y4280D01*
X3205D01*
X3215D01*
X3225Y4270D01*
Y4260D01*
X3215Y4250D01*
X3195D01*
X3185Y4260D01*
X3245Y4250D02*
Y4260D01*
X3255D01*
Y4250D01*
X3245D01*
X3295Y4300D02*
X3305Y4310D01*
X3325D01*
X3335Y4300D01*
Y4290D01*
X3325Y4280D01*
X3315D01*
X3325D01*
X3335Y4270D01*
Y4260D01*
X3325Y4250D01*
X3305D01*
X3295Y4260D01*
X3355Y4310D02*
Y4270D01*
X3375Y4250D01*
X3395Y4270D01*
Y4310D01*
X1980Y3080D02*
Y3120D01*
X2000Y3140D01*
X2020Y3120D01*
Y3080D01*
Y3110D01*
X1980D01*
X2040Y3080D02*
Y3090D01*
X2050D01*
Y3080D01*
X2040D01*
X2190Y3140D02*
X2170D01*
X2180D01*
Y3090D01*
X2170Y3080D01*
X2160D01*
X2150Y3090D01*
X2250Y3140D02*
X2210D01*
Y3080D01*
X2250D01*
X2210Y3110D02*
X2230D01*
X2310Y3140D02*
X2270D01*
Y3110D01*
X2290D01*
X2270D01*
Y3080D01*
X2370Y3140D02*
X2330D01*
Y3110D01*
X2350D01*
X2330D01*
Y3080D01*
X2430Y3140D02*
X2390D01*
Y3080D01*
X2430D01*
X2390Y3110D02*
X2410D01*
X2450Y3080D02*
Y3140D01*
X2480D01*
X2490Y3130D01*
Y3110D01*
X2480Y3100D01*
X2450D01*
X2470D02*
X2490Y3080D01*
X2550Y3130D02*
X2540Y3140D01*
X2520D01*
X2510Y3130D01*
Y3120D01*
X2520Y3110D01*
X2540D01*
X2550Y3100D01*
Y3090D01*
X2540Y3080D01*
X2520D01*
X2510Y3090D01*
X2600Y3140D02*
X2580D01*
X2570Y3130D01*
Y3090D01*
X2580Y3080D01*
X2600D01*
X2610Y3090D01*
Y3130D01*
X2600Y3140D01*
X2630Y3080D02*
Y3140D01*
X2670Y3080D01*
Y3140D01*
X2750Y3080D02*
Y3120D01*
X2770Y3140D01*
X2790Y3120D01*
Y3080D01*
Y3110D01*
X2750D01*
X2810Y3080D02*
Y3140D01*
Y3100D02*
X2840Y3120D01*
X2810Y3100D02*
X2840Y3080D01*
X2870Y3120D02*
Y3090D01*
X2880Y3080D01*
X2910D01*
Y3120D01*
X2930Y3080D02*
X2950D01*
X2940D01*
Y3140D01*
X2930D01*
X2990Y3120D02*
X3010D01*
X3020Y3110D01*
Y3080D01*
X2990D01*
X2980Y3090D01*
X2990Y3100D01*
X3020D01*
X3100Y3140D02*
X3140D01*
Y3130D01*
X3100Y3090D01*
Y3080D01*
X3140D01*
X3160Y3120D02*
Y3090D01*
X3170Y3080D01*
X3200D01*
Y3120D01*
X3220Y3140D02*
Y3080D01*
X3250D01*
X3260Y3090D01*
Y3100D01*
Y3110D01*
X3250Y3120D01*
X3220D01*
X3340Y3140D02*
X3380D01*
X3360D01*
Y3080D01*
X3430D02*
X3410D01*
X3400Y3090D01*
Y3110D01*
X3410Y3120D01*
X3430D01*
X3440Y3110D01*
Y3100D01*
X3400D01*
X3500Y3120D02*
X3470D01*
X3460Y3110D01*
Y3090D01*
X3470Y3080D01*
X3500D01*
X3520Y3140D02*
Y3080D01*
Y3110D01*
X3529Y3120D01*
X3549D01*
X3559Y3110D01*
Y3080D01*
X3579D02*
Y3120D01*
X3609D01*
X3619Y3110D01*
Y3080D01*
X3649D02*
X3669D01*
X3679Y3090D01*
Y3110D01*
X3669Y3120D01*
X3649D01*
X3639Y3110D01*
Y3090D01*
X3649Y3080D01*
X3699D02*
X3719D01*
X3709D01*
Y3140D01*
X3699D01*
X3759Y3080D02*
X3779D01*
X3789Y3090D01*
Y3110D01*
X3779Y3120D01*
X3759D01*
X3749Y3110D01*
Y3090D01*
X3759Y3080D01*
X3829Y3060D02*
X3839D01*
X3849Y3070D01*
Y3120D01*
X3819D01*
X3809Y3110D01*
Y3090D01*
X3819Y3080D01*
X3849D01*
X3869D02*
X3889D01*
X3879D01*
Y3120D01*
X3869D01*
X3949Y3080D02*
X3929D01*
X3919Y3090D01*
Y3110D01*
X3929Y3120D01*
X3949D01*
X3959Y3110D01*
Y3100D01*
X3919D01*
X3979Y3080D02*
X4009D01*
X4019Y3090D01*
X4009Y3100D01*
X3989D01*
X3979Y3110D01*
X3989Y3120D01*
X4019D01*
X4259Y3080D02*
X4219D01*
X4259Y3120D01*
Y3130D01*
X4249Y3140D01*
X4229D01*
X4219Y3130D01*
X4279D02*
X4289Y3140D01*
X4309D01*
X4319Y3130D01*
Y3090D01*
X4309Y3080D01*
X4289D01*
X4279Y3090D01*
Y3130D01*
X4379Y3080D02*
X4339D01*
X4379Y3120D01*
Y3130D01*
X4369Y3140D01*
X4349D01*
X4339Y3130D01*
X4439Y3080D02*
X4399D01*
X4439Y3120D01*
Y3130D01*
X4429Y3140D01*
X4409D01*
X4399Y3130D01*
X2200Y1235D02*
Y1175D01*
X2230D01*
X2240Y1185D01*
Y1195D01*
X2230Y1205D01*
X2200D01*
X2230D01*
X2240Y1215D01*
Y1225D01*
X2230Y1235D01*
X2200D01*
X2260Y1215D02*
Y1185D01*
X2270Y1175D01*
X2300D01*
Y1215D01*
X2330Y1225D02*
Y1215D01*
X2320D01*
X2340D01*
X2330D01*
Y1185D01*
X2340Y1175D01*
X2380Y1225D02*
Y1215D01*
X2370D01*
X2390D01*
X2380D01*
Y1185D01*
X2390Y1175D01*
X2430D02*
X2450D01*
X2460Y1185D01*
Y1205D01*
X2450Y1215D01*
X2430D01*
X2420Y1205D01*
Y1185D01*
X2430Y1175D01*
X2480D02*
Y1215D01*
X2510D01*
X2520Y1205D01*
Y1175D01*
X2540D02*
X2570D01*
X2580Y1185D01*
X2570Y1195D01*
X2550D01*
X2540Y1205D01*
X2550Y1215D01*
X2580D01*
X2670D02*
X2690D01*
X2700Y1205D01*
Y1175D01*
X2670D01*
X2660Y1185D01*
X2670Y1195D01*
X2700D01*
X2720Y1175D02*
Y1215D01*
X2750D01*
X2760Y1205D01*
Y1175D01*
X2820Y1235D02*
Y1175D01*
X2790D01*
X2780Y1185D01*
Y1205D01*
X2790Y1215D01*
X2820D01*
X2900Y1235D02*
Y1175D01*
Y1195D01*
X2940Y1235D01*
X2910Y1205D01*
X2940Y1175D01*
X2990D02*
X2970D01*
X2960Y1185D01*
Y1205D01*
X2970Y1215D01*
X2990D01*
X3000Y1205D01*
Y1195D01*
X2960D01*
X3020Y1215D02*
Y1185D01*
X3030Y1175D01*
X3060D01*
Y1165D01*
X3050Y1155D01*
X3040D01*
X3060Y1175D02*
Y1215D01*
X3080Y1155D02*
Y1215D01*
X3110D01*
X3120Y1205D01*
Y1185D01*
X3110Y1175D01*
X3080D01*
X3150Y1215D02*
X3170D01*
X3180Y1205D01*
Y1175D01*
X3150D01*
X3140Y1185D01*
X3150Y1195D01*
X3180D01*
X3240Y1235D02*
Y1175D01*
X3210D01*
X3200Y1185D01*
Y1205D01*
X3210Y1215D01*
X3240D01*
X4900Y1100D02*
Y1160D01*
X4930D01*
X4940Y1150D01*
Y1130D01*
X4930Y1120D01*
X4900D01*
X4920D02*
X4940Y1100D01*
X4990D02*
X4970D01*
X4960Y1110D01*
Y1130D01*
X4970Y1140D01*
X4990D01*
X5000Y1130D01*
Y1120D01*
X4960D01*
X5020Y1100D02*
X5050D01*
X5060Y1110D01*
X5050Y1120D01*
X5030D01*
X5020Y1130D01*
X5030Y1140D01*
X5060D01*
X5080Y1100D02*
X5100D01*
X5090D01*
Y1140D01*
X5080D01*
X5130Y1100D02*
X5160D01*
X5170Y1110D01*
X5160Y1120D01*
X5140D01*
X5130Y1130D01*
X5140Y1140D01*
X5170D01*
X5200Y1150D02*
Y1140D01*
X5190D01*
X5210D01*
X5200D01*
Y1110D01*
X5210Y1100D01*
X5250Y1140D02*
X5270D01*
X5280Y1130D01*
Y1100D01*
X5250D01*
X5240Y1110D01*
X5250Y1120D01*
X5280D01*
X5340Y1140D02*
X5310D01*
X5300Y1130D01*
Y1110D01*
X5310Y1100D01*
X5340D01*
X5390D02*
X5370D01*
X5360Y1110D01*
Y1130D01*
X5370Y1140D01*
X5390D01*
X5400Y1130D01*
Y1120D01*
X5360D01*
X5480Y1100D02*
Y1160D01*
X5500Y1140D01*
X5520Y1160D01*
Y1100D01*
X5570D02*
X5550D01*
X5540Y1110D01*
Y1130D01*
X5550Y1140D01*
X5570D01*
X5580Y1130D01*
Y1120D01*
X5540D01*
X5610Y1140D02*
X5630D01*
X5640Y1130D01*
Y1100D01*
X5610D01*
X5600Y1110D01*
X5610Y1120D01*
X5640D01*
X5660Y1100D02*
X5690D01*
X5700Y1110D01*
X5690Y1120D01*
X5670D01*
X5660Y1130D01*
X5670Y1140D01*
X5700D01*
X5720D02*
Y1110D01*
X5730Y1100D01*
X5760D01*
Y1140D01*
X5780D02*
Y1100D01*
Y1120D01*
X5790Y1130D01*
X5800Y1140D01*
X5810D01*
X5840Y1100D02*
Y1140D01*
X5850D01*
X5860Y1130D01*
Y1100D01*
Y1130D01*
X5870Y1140D01*
X5880Y1130D01*
Y1100D01*
X5930D02*
X5910D01*
X5900Y1110D01*
Y1130D01*
X5910Y1140D01*
X5930D01*
X5940Y1130D01*
Y1120D01*
X5900D01*
X5960Y1100D02*
Y1140D01*
X5990D01*
X6000Y1130D01*
Y1100D01*
X6030Y1150D02*
Y1140D01*
X6020D01*
X6040D01*
X6030D01*
Y1110D01*
X6040Y1100D01*
X6840Y2600D02*
X6900D01*
Y2640D01*
Y2660D02*
Y2680D01*
Y2670D01*
X6860D01*
Y2660D01*
X6900Y2710D02*
X6860D01*
Y2740D01*
X6870Y2750D01*
X6900D01*
Y2800D02*
Y2780D01*
X6890Y2770D01*
X6870D01*
X6860Y2780D01*
Y2800D01*
X6870Y2810D01*
X6880D01*
Y2770D01*
X6860Y2840D02*
Y2860D01*
X6870Y2870D01*
X6900D01*
Y2840D01*
X6890Y2830D01*
X6880Y2840D01*
Y2870D01*
X6860Y2890D02*
X6900D01*
X6880D01*
X6870Y2900D01*
X6860Y2910D01*
Y2920D01*
X6850Y3050D02*
X6840Y3040D01*
Y3020D01*
X6850Y3010D01*
X6860D01*
X6870Y3020D01*
Y3040D01*
X6880Y3050D01*
X6890D01*
X6900Y3040D01*
Y3020D01*
X6890Y3010D01*
X6860Y3110D02*
Y3080D01*
X6870Y3070D01*
X6890D01*
X6900Y3080D01*
Y3110D01*
X6860Y3140D02*
Y3160D01*
X6870Y3170D01*
X6900D01*
Y3140D01*
X6890Y3130D01*
X6880Y3140D01*
Y3170D01*
X6900Y3190D02*
Y3210D01*
Y3200D01*
X6840D01*
Y3190D01*
X6900Y3270D02*
Y3250D01*
X6890Y3240D01*
X6870D01*
X6860Y3250D01*
Y3270D01*
X6870Y3280D01*
X6880D01*
Y3240D01*
X5575Y4235D02*
Y4175D01*
X5605D01*
X5615Y4185D01*
Y4225D01*
X5605Y4235D01*
X5575D01*
X5635Y4175D02*
X5655D01*
X5645D01*
Y4215D01*
X5635D01*
X5685Y4175D02*
X5715D01*
X5725Y4185D01*
X5715Y4195D01*
X5695D01*
X5685Y4205D01*
X5695Y4215D01*
X5725D01*
X5745Y4155D02*
Y4215D01*
X5775D01*
X5785Y4205D01*
Y4185D01*
X5775Y4175D01*
X5745D01*
X5805D02*
X5825D01*
X5815D01*
Y4235D01*
X5805D01*
X5865Y4215D02*
X5885D01*
X5895Y4205D01*
Y4175D01*
X5865D01*
X5855Y4185D01*
X5865Y4195D01*
X5895D01*
X5915Y4215D02*
Y4185D01*
X5925Y4175D01*
X5955D01*
Y4165D01*
X5945Y4155D01*
X5935D01*
X5955Y4175D02*
Y4215D01*
X6250Y1735D02*
Y1675D01*
X6290D01*
X6320D02*
X6340D01*
X6350Y1685D01*
Y1705D01*
X6340Y1715D01*
X6320D01*
X6310Y1705D01*
Y1685D01*
X6320Y1675D01*
X6380Y1715D02*
X6400D01*
X6410Y1705D01*
Y1675D01*
X6380D01*
X6370Y1685D01*
X6380Y1695D01*
X6410D01*
X6470Y1735D02*
Y1675D01*
X6440D01*
X6430Y1685D01*
Y1705D01*
X6440Y1715D01*
X6470D01*
X6590Y1725D02*
X6580Y1735D01*
X6560D01*
X6550Y1725D01*
Y1685D01*
X6560Y1675D01*
X6580D01*
X6590Y1685D01*
X6640Y1675D02*
X6620D01*
X6610Y1685D01*
Y1705D01*
X6620Y1715D01*
X6640D01*
X6650Y1705D01*
Y1695D01*
X6610D01*
X6670Y1675D02*
X6690D01*
X6680D01*
Y1735D01*
X6670D01*
X6720Y1675D02*
X6740D01*
X6730D01*
Y1735D01*
X6720D01*
X4125Y1100D02*
X4065D01*
X4085Y1120D01*
X4065Y1140D01*
X4125D01*
Y1170D02*
Y1190D01*
X4115Y1200D01*
X4095D01*
X4085Y1190D01*
Y1170D01*
X4095Y1160D01*
X4115D01*
X4125Y1170D01*
X4075Y1230D02*
X4085D01*
Y1220D01*
Y1240D01*
Y1230D01*
X4115D01*
X4125Y1240D01*
Y1280D02*
Y1300D01*
X4115Y1310D01*
X4095D01*
X4085Y1300D01*
Y1280D01*
X4095Y1270D01*
X4115D01*
X4125Y1280D01*
X4085Y1330D02*
X4125D01*
X4105D01*
X4095Y1340D01*
X4085Y1350D01*
Y1360D01*
X4075Y1490D02*
X4065Y1480D01*
Y1460D01*
X4075Y1450D01*
X4115D01*
X4125Y1460D01*
Y1480D01*
X4115Y1490D01*
X4125Y1520D02*
Y1540D01*
X4115Y1550D01*
X4095D01*
X4085Y1540D01*
Y1520D01*
X4095Y1510D01*
X4115D01*
X4125Y1520D01*
Y1570D02*
X4085D01*
Y1600D01*
X4095Y1610D01*
X4125D01*
X4075Y1640D02*
X4085D01*
Y1630D01*
Y1650D01*
Y1640D01*
X4115D01*
X4125Y1650D01*
X4085Y1680D02*
X4125D01*
X4105D01*
X4095Y1690D01*
X4085Y1700D01*
Y1710D01*
X4125Y1750D02*
Y1770D01*
X4115Y1780D01*
X4095D01*
X4085Y1770D01*
Y1750D01*
X4095Y1740D01*
X4115D01*
X4125Y1750D01*
Y1800D02*
Y1820D01*
Y1810D01*
X4065D01*
Y1800D01*
X2675Y4725D02*
Y4785D01*
X2705D01*
X2715Y4775D01*
Y4755D01*
X2705Y4745D01*
X2675D01*
X2745Y4725D02*
X2765D01*
X2775Y4735D01*
Y4755D01*
X2765Y4765D01*
X2745D01*
X2735Y4755D01*
Y4735D01*
X2745Y4725D01*
X2795Y4765D02*
Y4735D01*
X2805Y4725D01*
X2815Y4735D01*
X2825Y4725D01*
X2835Y4735D01*
Y4765D01*
X2885Y4725D02*
X2865D01*
X2855Y4735D01*
Y4755D01*
X2865Y4765D01*
X2885D01*
X2895Y4755D01*
Y4745D01*
X2855D01*
X2915Y4765D02*
Y4725D01*
Y4745D01*
X2925Y4755D01*
X2935Y4765D01*
X2945D01*
D52*
X5218Y4137D02*
G03*
X5035Y4137I-91J-37D01*
G01*
Y4063D02*
G03*
X5218Y4063I91J37D01*
G01*
X3039Y1749D02*
G03*
X3039Y1932I-37J91D01*
G01*
X2965D02*
G03*
X2965Y1749I37J-91D01*
G01*
X3664Y1185D02*
Y1785D01*
X4027Y1185D02*
Y1785D01*
X3664Y1185D02*
X4027D01*
X3664Y1785D02*
X4027D01*
X6200Y2125D02*
X6800D01*
X6200Y1762D02*
X6800D01*
X6200D02*
Y2125D01*
X6800Y1762D02*
Y2125D01*
X5400Y4125D02*
X6700D01*
X5400Y3762D02*
X6700D01*
X5400D02*
Y4125D01*
X6700Y3762D02*
Y4125D01*
X4800Y1175D02*
X6100D01*
X4800Y1538D02*
X6100D01*
Y1175D02*
Y1538D01*
X4800Y1175D02*
Y1538D01*
X6793Y2390D02*
Y3606D01*
X6299Y2390D02*
X6793D01*
X6299D02*
Y3606D01*
X6793D01*
X4156Y1175D02*
Y1775D01*
X4519Y1175D02*
Y1775D01*
X4156Y1175D02*
X4519D01*
X4156Y1775D02*
X4519D01*
X2100Y1625D02*
X3400D01*
X2100Y1262D02*
X3400D01*
X2100D02*
Y1625D01*
X3400Y1262D02*
Y1625D01*
X5353Y4733D02*
X5538D01*
X5353Y4333D02*
X5538D01*
X5353D02*
Y4733D01*
X5538Y4717D02*
Y4733D01*
Y4583D02*
Y4618D01*
Y4452D02*
Y4484D01*
X6102Y4642D02*
X6477D01*
X6102Y4452D02*
Y4642D01*
Y4452D02*
X6477D01*
Y4642D01*
D53*
X5287Y4100D02*
G03*
X5287Y4100I-4J0D01*
G01*
X3793Y1810D02*
G03*
X3793Y1810I-4J0D01*
G01*
X6830Y2000D02*
G03*
X6830Y2000I-4J0D01*
G01*
X6730Y4000D02*
G03*
X6730Y4000I-4J0D01*
G01*
X4778Y1300D02*
G03*
X4778Y1300I-4J0D01*
G01*
X3006Y1685D02*
G03*
X3006Y1685I-4J0D01*
G01*
X6837Y2785D02*
G03*
X6837Y2785I-4J0D01*
G01*
X4285Y1800D02*
G03*
X4285Y1800I-4J0D01*
G01*
X3430Y1500D02*
G03*
X3430Y1500I-4J0D01*
G01*
X5595Y4400D02*
G03*
X5595Y4400I-4J0D01*
G01*
X6510Y4547D02*
G03*
X6510Y4547I-4J0D01*
G01*
X3888Y4367D02*
Y4376D01*
Y4576D02*
Y4585D01*
X3858Y4376D02*
X3888D01*
X3858D02*
Y4576D01*
X3918D01*
Y4376D02*
Y4576D01*
X3888Y4376D02*
X3918D01*
X4478Y4576D02*
Y4585D01*
Y4367D02*
Y4376D01*
Y4576D02*
X4508D01*
Y4376D02*
Y4576D01*
X4448Y4376D02*
X4508D01*
X4448D02*
Y4576D01*
X4478D01*
X4281D02*
Y4585D01*
Y4367D02*
Y4376D01*
Y4576D02*
X4311D01*
Y4376D02*
Y4576D01*
X4251Y4376D02*
X4311D01*
X4251D02*
Y4576D01*
X4281D01*
X4085D02*
Y4585D01*
Y4367D02*
Y4376D01*
Y4576D02*
X4115D01*
Y4376D02*
Y4576D01*
X4055Y4376D02*
X4115D01*
X4055D02*
Y4576D01*
X4085D01*
X6220Y4281D02*
X6229D01*
X6429D02*
X6438D01*
X6229D02*
Y4311D01*
X6429D01*
Y4251D02*
Y4311D01*
X6229Y4251D02*
X6429D01*
X6229D02*
Y4281D01*
X6600Y4291D02*
Y4300D01*
Y4500D02*
Y4509D01*
X6570Y4300D02*
X6600D01*
X6570D02*
Y4500D01*
X6630D01*
Y4300D02*
Y4500D01*
X6600Y4300D02*
X6630D01*
X6840Y3991D02*
Y4000D01*
Y4200D02*
Y4209D01*
X6810Y4000D02*
X6840D01*
X6810D02*
Y4200D01*
X6870D01*
Y4000D02*
Y4200D01*
X6840Y4000D02*
X6870D01*
X5009Y4547D02*
X5018D01*
X5218D02*
X5227D01*
X5018D02*
Y4577D01*
X5218D01*
Y4517D02*
Y4577D01*
X5018Y4517D02*
X5218D01*
X5018D02*
Y4547D01*
X5218Y4341D02*
X5227D01*
X5009D02*
X5018D01*
X5218Y4311D02*
Y4341D01*
X5018Y4311D02*
X5218D01*
X5018D02*
Y4371D01*
X5218D01*
Y4341D02*
Y4371D01*
X6180Y2530D02*
X6210D01*
Y2730D01*
X6150D02*
X6210D01*
X6150Y2530D02*
Y2730D01*
Y2530D02*
X6180D01*
Y2730D02*
Y2739D01*
Y2521D02*
Y2530D01*
X5950Y3225D02*
Y3255D01*
X5750D02*
X5950D01*
X5750Y3195D02*
Y3255D01*
Y3195D02*
X5950D01*
Y3225D01*
X5741D02*
X5750D01*
X5950D02*
X5959D01*
X5550D02*
Y3255D01*
X5350D02*
X5550D01*
X5350Y3195D02*
Y3255D01*
Y3195D02*
X5550D01*
Y3225D01*
X5341D02*
X5350D01*
X5550D02*
X5559D01*
X6150Y3120D02*
X6180D01*
X6150Y2920D02*
Y3120D01*
Y2920D02*
X6210D01*
Y3120D01*
X6180D02*
X6210D01*
X6180Y2911D02*
Y2920D01*
Y3120D02*
Y3129D01*
X5950Y3405D02*
Y3435D01*
X5750D02*
X5950D01*
X5750Y3375D02*
Y3435D01*
Y3375D02*
X5950D01*
Y3405D01*
X5741D02*
X5750D01*
X5950D02*
X5959D01*
X5550D02*
Y3435D01*
X5350D02*
X5550D01*
X5350Y3375D02*
Y3435D01*
Y3375D02*
X5550D01*
Y3405D01*
X5341D02*
X5350D01*
X5550D02*
X5559D01*
X6150Y3520D02*
X6180D01*
X6150Y3320D02*
Y3520D01*
Y3320D02*
X6210D01*
Y3520D01*
X6180D02*
X6210D01*
X6180Y3311D02*
Y3320D01*
Y3520D02*
Y3529D01*
X5950Y3575D02*
Y3605D01*
X5750D02*
X5950D01*
X5750Y3545D02*
Y3605D01*
Y3545D02*
X5950D01*
Y3575D01*
X5741D02*
X5750D01*
X5950D02*
X5959D01*
X5550D02*
Y3605D01*
X5350D02*
X5550D01*
X5350Y3545D02*
Y3605D01*
Y3545D02*
X5550D01*
Y3575D01*
X5341D02*
X5350D01*
X5550D02*
X5559D01*
X3691Y4367D02*
Y4376D01*
Y4576D02*
Y4585D01*
X3661Y4376D02*
X3691D01*
X3661D02*
Y4576D01*
X3721D01*
Y4376D02*
Y4576D01*
X3691Y4376D02*
X3721D01*
X5550Y3050D02*
X5559D01*
X5341D02*
X5350D01*
X5550Y3020D02*
Y3050D01*
X5350Y3020D02*
X5550D01*
X5350D02*
Y3080D01*
X5550D01*
Y3050D02*
Y3080D01*
X5950Y3050D02*
X5959D01*
X5741D02*
X5750D01*
X5950Y3020D02*
Y3050D01*
X5750Y3020D02*
X5950D01*
X5750D02*
Y3080D01*
X5950D01*
Y3050D02*
Y3080D01*
X5175Y3141D02*
Y3150D01*
Y3350D02*
Y3359D01*
X5145Y3150D02*
X5175D01*
X5145D02*
Y3350D01*
X5205D01*
Y3150D02*
Y3350D01*
X5175Y3150D02*
X5205D01*
X5100Y2850D02*
Y2859D01*
Y2641D02*
Y2650D01*
Y2850D02*
X5130D01*
Y2650D02*
Y2850D01*
X5070Y2650D02*
X5130D01*
X5070D02*
Y2850D01*
X5100D01*
X5550Y2875D02*
X5559D01*
X5341D02*
X5350D01*
X5550Y2845D02*
Y2875D01*
X5350Y2845D02*
X5550D01*
X5350D02*
Y2905D01*
X5550D01*
Y2875D02*
Y2905D01*
X5950Y2875D02*
X5959D01*
X5741D02*
X5750D01*
X5950Y2845D02*
Y2875D01*
X5750Y2845D02*
X5950D01*
X5750D02*
Y2905D01*
X5950D01*
Y2875D02*
Y2905D01*
%TF.MD5,a29e10aa4d452c946c89a05843244c64*%
M02*
