G04 Layer_Color=128*
%FSLAX23Y23*%
%MOIN*%
%TF.FileFunction,Drillmap*%
%TF.Part,Single*%
G01*
G75*
%TA.AperFunction,NonConductor*%
%ADD52C,0.005*%
D52*
X1150Y4750D02*
X1350D01*
X1250Y4650D02*
Y4850D01*
X6650Y4750D02*
X6850D01*
X6750Y4650D02*
Y4850D01*
X6650Y1250D02*
X6850D01*
X6750Y1150D02*
Y1350D01*
X1150Y1250D02*
X1350D01*
X1250Y1150D02*
Y1350D01*
X3871Y4626D02*
X3905D01*
X3888Y4609D02*
Y4643D01*
X3871Y4326D02*
X3905D01*
X3888Y4309D02*
Y4343D01*
X4462Y4326D02*
X4495D01*
X4478Y4309D02*
Y4343D01*
X4462Y4626D02*
X4495D01*
X4478Y4609D02*
Y4643D01*
X4265Y4326D02*
X4298D01*
X4281Y4309D02*
Y4343D01*
X4265Y4626D02*
X4298D01*
X4281Y4609D02*
Y4643D01*
X4068Y4326D02*
X4101D01*
X4085Y4309D02*
Y4343D01*
X4068Y4626D02*
X4101D01*
X4085Y4609D02*
Y4643D01*
X6462Y4281D02*
X6495D01*
X6479Y4265D02*
Y4298D01*
X6162Y4281D02*
X6195D01*
X6179Y4265D02*
Y4298D01*
X6583Y4550D02*
X6617D01*
X6600Y4533D02*
Y4567D01*
X6583Y4250D02*
X6617D01*
X6600Y4233D02*
Y4267D01*
X6823Y4250D02*
X6857D01*
X6840Y4233D02*
Y4267D01*
X6823Y3950D02*
X6857D01*
X6840Y3933D02*
Y3967D01*
X5251Y4547D02*
X5285D01*
X5268Y4531D02*
Y4564D01*
X4951Y4547D02*
X4985D01*
X4968Y4531D02*
Y4564D01*
X4951Y4341D02*
X4985D01*
X4968Y4324D02*
Y4357D01*
X5251Y4341D02*
X5285D01*
X5268Y4324D02*
Y4357D01*
X5013Y4100D02*
X5043D01*
X5028Y4085D02*
Y4115D01*
X5210Y4100D02*
X5240D01*
X5225Y4085D02*
Y4115D01*
X3869Y1385D02*
X3909D01*
X3889Y1365D02*
Y1405D01*
X3769Y1385D02*
X3809D01*
X3789Y1365D02*
Y1405D01*
X3869Y1485D02*
X3909D01*
X3889Y1465D02*
Y1505D01*
X3769Y1485D02*
X3809D01*
X3789Y1465D02*
Y1505D01*
X3869Y1585D02*
X3909D01*
X3889Y1565D02*
Y1605D01*
X3769Y1585D02*
X3809D01*
X3789Y1565D02*
Y1605D01*
X6380Y1900D02*
X6420D01*
X6400Y1880D02*
Y1920D01*
X6380Y2000D02*
X6420D01*
X6400Y1980D02*
Y2020D01*
X6480Y1900D02*
X6520D01*
X6500Y1880D02*
Y1920D01*
X6480Y2000D02*
X6520D01*
X6500Y1980D02*
Y2020D01*
X6580Y1900D02*
X6620D01*
X6600Y1880D02*
Y1920D01*
X6580Y2000D02*
X6620D01*
X6600Y1980D02*
Y2020D01*
X5580Y3900D02*
X5620D01*
X5600Y3880D02*
Y3920D01*
X5580Y4000D02*
X5620D01*
X5600Y3980D02*
Y4020D01*
X5680Y3900D02*
X5720D01*
X5700Y3880D02*
Y3920D01*
X5680Y4000D02*
X5720D01*
X5700Y3980D02*
Y4020D01*
X5780Y3900D02*
X5820D01*
X5800Y3880D02*
Y3920D01*
X5780Y4000D02*
X5820D01*
X5800Y3980D02*
Y4020D01*
X5880Y3900D02*
X5920D01*
X5900Y3880D02*
Y3920D01*
X5880Y4000D02*
X5920D01*
X5900Y3980D02*
Y4020D01*
X5980Y3900D02*
X6020D01*
X6000Y3880D02*
Y3920D01*
X5980Y4000D02*
X6020D01*
X6000Y3980D02*
Y4020D01*
X6080Y3900D02*
X6120D01*
X6100Y3880D02*
Y3920D01*
X6080Y4000D02*
X6120D01*
X6100Y3980D02*
Y4020D01*
X6180Y3900D02*
X6220D01*
X6200Y3880D02*
Y3920D01*
X6180Y4000D02*
X6220D01*
X6200Y3980D02*
Y4020D01*
X6280Y3900D02*
X6320D01*
X6300Y3880D02*
Y3920D01*
X6280Y4000D02*
X6320D01*
X6300Y3980D02*
Y4020D01*
X6380Y3900D02*
X6420D01*
X6400Y3880D02*
Y3920D01*
X6380Y4000D02*
X6420D01*
X6400Y3980D02*
Y4020D01*
X6480Y3900D02*
X6520D01*
X6500Y3880D02*
Y3920D01*
X6480Y4000D02*
X6520D01*
X6500Y3980D02*
Y4020D01*
X5880Y1400D02*
X5920D01*
X5900Y1380D02*
Y1420D01*
X5880Y1300D02*
X5920D01*
X5900Y1280D02*
Y1320D01*
X5780Y1400D02*
X5820D01*
X5800Y1380D02*
Y1420D01*
X5780Y1300D02*
X5820D01*
X5800Y1280D02*
Y1320D01*
X5680Y1400D02*
X5720D01*
X5700Y1380D02*
Y1420D01*
X5680Y1300D02*
X5720D01*
X5700Y1280D02*
Y1320D01*
X5580Y1400D02*
X5620D01*
X5600Y1380D02*
Y1420D01*
X5580Y1300D02*
X5620D01*
X5600Y1280D02*
Y1320D01*
X5480Y1400D02*
X5520D01*
X5500Y1380D02*
Y1420D01*
X5480Y1300D02*
X5520D01*
X5500Y1280D02*
Y1320D01*
X5380Y1400D02*
X5420D01*
X5400Y1380D02*
Y1420D01*
X5380Y1300D02*
X5420D01*
X5400Y1280D02*
Y1320D01*
X5280Y1400D02*
X5320D01*
X5300Y1380D02*
Y1420D01*
X5280Y1300D02*
X5320D01*
X5300Y1280D02*
Y1320D01*
X5180Y1400D02*
X5220D01*
X5200Y1380D02*
Y1420D01*
X5180Y1300D02*
X5220D01*
X5200Y1280D02*
Y1320D01*
X5080Y1400D02*
X5120D01*
X5100Y1380D02*
Y1420D01*
X5080Y1300D02*
X5120D01*
X5100Y1280D02*
Y1320D01*
X4980Y1400D02*
X5020D01*
X5000Y1380D02*
Y1420D01*
X4980Y1300D02*
X5020D01*
X5000Y1280D02*
Y1320D01*
X6163Y2480D02*
X6197D01*
X6180Y2463D02*
Y2497D01*
X6163Y2780D02*
X6197D01*
X6180Y2763D02*
Y2797D01*
X5983Y3225D02*
X6017D01*
X6000Y3208D02*
Y3242D01*
X5683Y3225D02*
X5717D01*
X5700Y3208D02*
Y3242D01*
X5583Y3225D02*
X5617D01*
X5600Y3208D02*
Y3242D01*
X5283Y3225D02*
X5317D01*
X5300Y3208D02*
Y3242D01*
X6163Y3170D02*
X6197D01*
X6180Y3153D02*
Y3187D01*
X6163Y2870D02*
X6197D01*
X6180Y2853D02*
Y2887D01*
X5983Y3405D02*
X6017D01*
X6000Y3388D02*
Y3422D01*
X5683Y3405D02*
X5717D01*
X5700Y3388D02*
Y3422D01*
X5583Y3405D02*
X5617D01*
X5600Y3388D02*
Y3422D01*
X5283Y3405D02*
X5317D01*
X5300Y3388D02*
Y3422D01*
X6163Y3570D02*
X6197D01*
X6180Y3553D02*
Y3587D01*
X6163Y3270D02*
X6197D01*
X6180Y3253D02*
Y3287D01*
X5983Y3575D02*
X6017D01*
X6000Y3558D02*
Y3592D01*
X5683Y3575D02*
X5717D01*
X5700Y3558D02*
Y3592D01*
X5583Y3575D02*
X5617D01*
X5600Y3558D02*
Y3592D01*
X5283Y3575D02*
X5317D01*
X5300Y3558D02*
Y3592D01*
X2886Y4596D02*
X2921D01*
X2904Y4579D02*
Y4614D01*
X2787Y4596D02*
X2823D01*
X2805Y4579D02*
Y4614D01*
X2689Y4596D02*
X2724D01*
X2707Y4579D02*
Y4614D01*
X3674Y4626D02*
X3708D01*
X3691Y4609D02*
Y4643D01*
X3674Y4326D02*
X3708D01*
X3691Y4309D02*
Y4343D01*
X2987Y1939D02*
X3017D01*
X3002Y1924D02*
Y1954D01*
X2987Y1742D02*
X3017D01*
X3002Y1727D02*
Y1757D01*
X2980Y4100D02*
X3020D01*
X3000Y4080D02*
Y4120D01*
X3080Y4100D02*
X3120D01*
X3100Y4080D02*
Y4120D01*
X3180Y4100D02*
X3220D01*
X3200Y4080D02*
Y4120D01*
X3280Y4100D02*
X3320D01*
X3300Y4080D02*
Y4120D01*
X3380Y4100D02*
X3420D01*
X3400Y4080D02*
Y4120D01*
X3480Y4100D02*
X3520D01*
X3500Y4080D02*
Y4120D01*
X3580Y4100D02*
X3620D01*
X3600Y4080D02*
Y4120D01*
X3680Y4100D02*
X3720D01*
X3700Y4080D02*
Y4120D01*
X3880Y4100D02*
X3920D01*
X3900Y4080D02*
Y4120D01*
X3980Y4100D02*
X4020D01*
X4000Y4080D02*
Y4120D01*
X4080Y4100D02*
X4120D01*
X4100Y4080D02*
Y4120D01*
X4180Y4100D02*
X4220D01*
X4200Y4080D02*
Y4120D01*
X4280Y4100D02*
X4320D01*
X4300Y4080D02*
Y4120D01*
X4380Y4100D02*
X4420D01*
X4400Y4080D02*
Y4120D01*
X4480Y4100D02*
X4520D01*
X4500Y4080D02*
Y4120D01*
X4580Y4100D02*
X4620D01*
X4600Y4080D02*
Y4120D01*
X2080Y4100D02*
X2120D01*
X2100Y4080D02*
Y4120D01*
X2180Y4100D02*
X2220D01*
X2200Y4080D02*
Y4120D01*
X2280Y4100D02*
X2320D01*
X2300Y4080D02*
Y4120D01*
X2380Y4100D02*
X2420D01*
X2400Y4080D02*
Y4120D01*
X2480Y4100D02*
X2520D01*
X2500Y4080D02*
Y4120D01*
X2580Y4100D02*
X2620D01*
X2600Y4080D02*
Y4120D01*
X2680Y4100D02*
X2720D01*
X2700Y4080D02*
Y4120D01*
X2780Y4100D02*
X2820D01*
X2800Y4080D02*
Y4120D01*
X3680Y2200D02*
X3720D01*
X3700Y2180D02*
Y2220D01*
X3780Y2200D02*
X3820D01*
X3800Y2180D02*
Y2220D01*
X3880Y2200D02*
X3920D01*
X3900Y2180D02*
Y2220D01*
X3980Y2200D02*
X4020D01*
X4000Y2180D02*
Y2220D01*
X4080Y2200D02*
X4120D01*
X4100Y2180D02*
Y2220D01*
X4180Y2200D02*
X4220D01*
X4200Y2180D02*
Y2220D01*
X4280Y2200D02*
X4320D01*
X4300Y2180D02*
Y2220D01*
X4380Y2200D02*
X4420D01*
X4400Y2180D02*
Y2220D01*
X2780Y2200D02*
X2820D01*
X2800Y2180D02*
Y2220D01*
X2880Y2200D02*
X2920D01*
X2900Y2180D02*
Y2220D01*
X2980Y2200D02*
X3020D01*
X3000Y2180D02*
Y2220D01*
X3080Y2200D02*
X3120D01*
X3100Y2180D02*
Y2220D01*
X3180Y2200D02*
X3220D01*
X3200Y2180D02*
Y2220D01*
X3280Y2200D02*
X3320D01*
X3300Y2180D02*
Y2220D01*
X3380Y2200D02*
X3420D01*
X3400Y2180D02*
Y2220D01*
X3480Y2200D02*
X3520D01*
X3500Y2180D02*
Y2220D01*
X2620Y2200D02*
X2660D01*
X2640Y2180D02*
Y2220D01*
X2520Y2200D02*
X2560D01*
X2540Y2180D02*
Y2220D01*
X2420Y2200D02*
X2460D01*
X2440Y2180D02*
Y2220D01*
X2320Y2200D02*
X2360D01*
X2340Y2180D02*
Y2220D01*
X2220Y2200D02*
X2260D01*
X2240Y2180D02*
Y2220D01*
X2120Y2200D02*
X2160D01*
X2140Y2180D02*
Y2220D01*
X2020Y2200D02*
X2060D01*
X2040Y2180D02*
Y2220D01*
X1920Y2200D02*
X1960D01*
X1940Y2180D02*
Y2220D01*
X1820Y2200D02*
X1860D01*
X1840Y2180D02*
Y2220D01*
X1720Y2200D02*
X1760D01*
X1740Y2180D02*
Y2220D01*
X4680Y2200D02*
X4720D01*
X4700Y2180D02*
Y2220D01*
X4780Y2200D02*
X4820D01*
X4800Y2180D02*
Y2220D01*
X4680Y2300D02*
X4720D01*
X4700Y2280D02*
Y2320D01*
X4780Y2300D02*
X4820D01*
X4800Y2280D02*
Y2320D01*
X4680Y2400D02*
X4720D01*
X4700Y2380D02*
Y2420D01*
X4780Y2400D02*
X4820D01*
X4800Y2380D02*
Y2420D01*
X4680Y2500D02*
X4720D01*
X4700Y2480D02*
Y2520D01*
X4780Y2500D02*
X4820D01*
X4800Y2480D02*
Y2520D01*
X4680Y2600D02*
X4720D01*
X4700Y2580D02*
Y2620D01*
X4780Y2600D02*
X4820D01*
X4800Y2580D02*
Y2620D01*
X4680Y2700D02*
X4720D01*
X4700Y2680D02*
Y2720D01*
X4780Y2700D02*
X4820D01*
X4800Y2680D02*
Y2720D01*
X4680Y2800D02*
X4720D01*
X4700Y2780D02*
Y2820D01*
X4780Y2800D02*
X4820D01*
X4800Y2780D02*
Y2820D01*
X4680Y2900D02*
X4720D01*
X4700Y2880D02*
Y2920D01*
X4780Y2900D02*
X4820D01*
X4800Y2880D02*
Y2920D01*
X4680Y3000D02*
X4720D01*
X4700Y2980D02*
Y3020D01*
X4780Y3000D02*
X4820D01*
X4800Y2980D02*
Y3020D01*
X4680Y3100D02*
X4720D01*
X4700Y3080D02*
Y3120D01*
X4780Y3100D02*
X4820D01*
X4800Y3080D02*
Y3120D01*
X4680Y3200D02*
X4720D01*
X4700Y3180D02*
Y3220D01*
X4780Y3200D02*
X4820D01*
X4800Y3180D02*
Y3220D01*
X4680Y3300D02*
X4720D01*
X4700Y3280D02*
Y3320D01*
X4780Y3300D02*
X4820D01*
X4800Y3280D02*
Y3320D01*
X4680Y3400D02*
X4720D01*
X4700Y3380D02*
Y3420D01*
X4780Y3400D02*
X4820D01*
X4800Y3380D02*
Y3420D01*
X4680Y3500D02*
X4720D01*
X4700Y3480D02*
Y3520D01*
X4780Y3500D02*
X4820D01*
X4800Y3480D02*
Y3520D01*
X4680Y3600D02*
X4720D01*
X4700Y3580D02*
Y3620D01*
X4780Y3600D02*
X4820D01*
X4800Y3580D02*
Y3620D01*
X4680Y3700D02*
X4720D01*
X4700Y3680D02*
Y3720D01*
X4780Y3700D02*
X4820D01*
X4800Y3680D02*
Y3720D01*
X4680Y3800D02*
X4720D01*
X4700Y3780D02*
Y3820D01*
X4780Y3800D02*
X4820D01*
X4800Y3780D02*
Y3820D01*
X4680Y3900D02*
X4720D01*
X4700Y3880D02*
Y3920D01*
X4780Y3900D02*
X4820D01*
X4800Y3880D02*
Y3920D01*
X6470Y3160D02*
X6510D01*
X6490Y3140D02*
Y3180D01*
X6470Y3052D02*
X6510D01*
X6490Y3032D02*
Y3073D01*
X6470Y2944D02*
X6510D01*
X6490Y2924D02*
Y2965D01*
X6581Y3214D02*
X6622D01*
X6602Y3193D02*
Y3234D01*
X6581Y3106D02*
X6622D01*
X6602Y3086D02*
Y3127D01*
X6581Y2998D02*
X6622D01*
X6602Y2978D02*
Y3019D01*
X6581Y2890D02*
X6622D01*
X6602Y2870D02*
Y2911D01*
X6486Y2506D02*
X6606D01*
X6546Y2446D02*
Y2566D01*
X6486Y3490D02*
X6606D01*
X6546Y3430D02*
Y3550D01*
X6581Y2782D02*
X6622D01*
X6602Y2762D02*
Y2803D01*
X6470Y2836D02*
X6510D01*
X6490Y2816D02*
Y2857D01*
X4361Y1375D02*
X4402D01*
X4381Y1355D02*
Y1395D01*
X4261Y1375D02*
X4302D01*
X4281Y1355D02*
Y1395D01*
X4361Y1475D02*
X4402D01*
X4381Y1455D02*
Y1495D01*
X4261Y1475D02*
X4302D01*
X4281Y1455D02*
Y1495D01*
X4361Y1575D02*
X4402D01*
X4381Y1555D02*
Y1595D01*
X4261Y1575D02*
X4302D01*
X4281Y1555D02*
Y1595D01*
X2280Y1400D02*
X2320D01*
X2300Y1380D02*
Y1420D01*
X2280Y1500D02*
X2320D01*
X2300Y1480D02*
Y1520D01*
X2380Y1400D02*
X2420D01*
X2400Y1380D02*
Y1420D01*
X2380Y1500D02*
X2420D01*
X2400Y1480D02*
Y1520D01*
X2480Y1400D02*
X2520D01*
X2500Y1380D02*
Y1420D01*
X2480Y1500D02*
X2520D01*
X2500Y1480D02*
Y1520D01*
X2580Y1400D02*
X2620D01*
X2600Y1380D02*
Y1420D01*
X2580Y1500D02*
X2620D01*
X2600Y1480D02*
Y1520D01*
X2680Y1400D02*
X2720D01*
X2700Y1380D02*
Y1420D01*
X2680Y1500D02*
X2720D01*
X2700Y1480D02*
Y1520D01*
X2780Y1400D02*
X2820D01*
X2800Y1380D02*
Y1420D01*
X2780Y1500D02*
X2820D01*
X2800Y1480D02*
Y1520D01*
X2880Y1400D02*
X2920D01*
X2900Y1380D02*
Y1420D01*
X2880Y1500D02*
X2920D01*
X2900Y1480D02*
Y1520D01*
X2980Y1400D02*
X3020D01*
X3000Y1380D02*
Y1420D01*
X2980Y1500D02*
X3020D01*
X3000Y1480D02*
Y1520D01*
X3080Y1400D02*
X3120D01*
X3100Y1380D02*
Y1420D01*
X3080Y1500D02*
X3120D01*
X3100Y1480D02*
Y1520D01*
X3180Y1400D02*
X3220D01*
X3200Y1380D02*
Y1420D01*
X3180Y1500D02*
X3220D01*
X3200Y1480D02*
Y1520D01*
X5495Y4667D02*
X5548D01*
X5522Y4641D02*
Y4694D01*
X5653Y4600D02*
X5706D01*
X5679Y4574D02*
Y4627D01*
X5495Y4533D02*
X5548D01*
X5522Y4507D02*
Y4560D01*
X5653Y4467D02*
X5706D01*
X5679Y4440D02*
Y4493D01*
X5495Y4400D02*
X5548D01*
X5522Y4373D02*
Y4426D01*
X6171Y4547D02*
X6211D01*
X6191Y4528D02*
Y4567D01*
X6270Y4547D02*
X6309D01*
X6289Y4528D02*
Y4567D01*
X6368Y4547D02*
X6407D01*
X6388Y4528D02*
Y4567D01*
X5480Y2600D02*
X5520D01*
X5500Y2580D02*
Y2620D01*
X5580Y2600D02*
X5620D01*
X5600Y2580D02*
Y2620D01*
X5680Y2600D02*
X5720D01*
X5700Y2580D02*
Y2620D01*
X5780Y2600D02*
X5820D01*
X5800Y2580D02*
Y2620D01*
X5380Y1800D02*
X5420D01*
X5400Y1780D02*
Y1820D01*
X5480Y1800D02*
X5520D01*
X5500Y1780D02*
Y1820D01*
X5580Y1800D02*
X5620D01*
X5600Y1780D02*
Y1820D01*
X5680Y1800D02*
X5720D01*
X5700Y1780D02*
Y1820D01*
X5780Y1800D02*
X5820D01*
X5800Y1780D02*
Y1820D01*
X5880Y1800D02*
X5920D01*
X5900Y1780D02*
Y1820D01*
X5283Y3050D02*
X5317D01*
X5300Y3033D02*
Y3067D01*
X5583Y3050D02*
X5617D01*
X5600Y3033D02*
Y3067D01*
X5683Y3050D02*
X5717D01*
X5700Y3033D02*
Y3067D01*
X5983Y3050D02*
X6017D01*
X6000Y3033D02*
Y3067D01*
X5158Y3400D02*
X5192D01*
X5175Y3383D02*
Y3417D01*
X5158Y3100D02*
X5192D01*
X5175Y3083D02*
Y3117D01*
X5083Y2600D02*
X5117D01*
X5100Y2583D02*
Y2617D01*
X5083Y2900D02*
X5117D01*
X5100Y2883D02*
Y2917D01*
X5283Y2875D02*
X5317D01*
X5300Y2858D02*
Y2892D01*
X5583Y2875D02*
X5617D01*
X5600Y2858D02*
Y2892D01*
X5683Y2875D02*
X5717D01*
X5700Y2858D02*
Y2892D01*
X5983Y2875D02*
X6017D01*
X6000Y2858D02*
Y2892D01*
X3805Y2352D02*
X3833D01*
X3819Y2338D02*
Y2366D01*
X3923Y2352D02*
X3951D01*
X3937Y2338D02*
Y2366D01*
X3687Y1956D02*
X3715D01*
X3701Y1942D02*
Y1970D01*
X3598Y2044D02*
X3626D01*
X3612Y2030D02*
Y2058D01*
%TF.MD5,7d1dda764b71768a3be78f3fa4b8f0f6*%
M02*
