G04 Layer_Color=255*
%FSLAX23Y23*%
%MOIN*%
%TF.FileFunction,Pads,Bot*%
%TF.Part,Single*%
G01*
G75*
%TA.AperFunction,ViaPad*%
%ADD12C,0.300*%
%TA.AperFunction,ComponentPad*%
%ADD13C,0.055*%
%ADD14C,0.043*%
%ADD15R,0.043X0.043*%
%ADD16C,0.054*%
%ADD17R,0.054X0.054*%
%ADD18R,0.054X0.054*%
%ADD19R,0.067X0.067*%
%ADD20C,0.067*%
%ADD21R,0.043X0.043*%
%ADD22C,0.060*%
%ADD23C,0.061*%
%ADD24C,0.160*%
%ADD25R,0.061X0.061*%
%ADD26C,0.080*%
%ADD27R,0.080X0.080*%
%ADD28C,0.059*%
%ADD29R,0.059X0.059*%
D12*
X1250Y4750D02*
D03*
X6750D02*
D03*
Y1250D02*
D03*
X1250D02*
D03*
D13*
X3888Y4626D02*
D03*
Y4326D02*
D03*
X4478D02*
D03*
Y4626D02*
D03*
X4281Y4326D02*
D03*
Y4626D02*
D03*
X4085Y4326D02*
D03*
Y4626D02*
D03*
X6479Y4281D02*
D03*
X6179D02*
D03*
X6600Y4550D02*
D03*
Y4250D02*
D03*
X6840D02*
D03*
Y3950D02*
D03*
X5268Y4547D02*
D03*
X4968D02*
D03*
Y4341D02*
D03*
X5268D02*
D03*
X6180Y2480D02*
D03*
Y2780D02*
D03*
X6000Y3225D02*
D03*
X5700D02*
D03*
X5600D02*
D03*
X5300D02*
D03*
X6180Y3170D02*
D03*
Y2870D02*
D03*
X6000Y3405D02*
D03*
X5700D02*
D03*
X5600D02*
D03*
X5300D02*
D03*
X6180Y3570D02*
D03*
Y3270D02*
D03*
X6000Y3575D02*
D03*
X5700D02*
D03*
X5600D02*
D03*
X5300D02*
D03*
X3691Y4626D02*
D03*
Y4326D02*
D03*
X5500Y2600D02*
D03*
X5600D02*
D03*
X5700D02*
D03*
X5800D02*
D03*
X5400Y1800D02*
D03*
X5500D02*
D03*
X5600D02*
D03*
X5700D02*
D03*
X5800D02*
D03*
X5900D02*
D03*
X5300Y3050D02*
D03*
X5600D02*
D03*
X5700D02*
D03*
X6000D02*
D03*
X5175Y3400D02*
D03*
Y3100D02*
D03*
X5100Y2600D02*
D03*
Y2900D02*
D03*
X5300Y2875D02*
D03*
X5600D02*
D03*
X5700D02*
D03*
X6000D02*
D03*
D14*
X5028Y4100D02*
D03*
X3002Y1939D02*
D03*
D15*
X5225Y4100D02*
D03*
D16*
X3889Y1385D02*
D03*
X3789D02*
D03*
X3889Y1485D02*
D03*
X3789D02*
D03*
X3889Y1585D02*
D03*
X6400Y1900D02*
D03*
Y2000D02*
D03*
X6500Y1900D02*
D03*
Y2000D02*
D03*
X6600Y1900D02*
D03*
X5600Y3900D02*
D03*
Y4000D02*
D03*
X5700Y3900D02*
D03*
Y4000D02*
D03*
X5800Y3900D02*
D03*
Y4000D02*
D03*
X5900Y3900D02*
D03*
Y4000D02*
D03*
X6000Y3900D02*
D03*
Y4000D02*
D03*
X6100Y3900D02*
D03*
Y4000D02*
D03*
X6200Y3900D02*
D03*
Y4000D02*
D03*
X6300Y3900D02*
D03*
Y4000D02*
D03*
X6400Y3900D02*
D03*
Y4000D02*
D03*
X6500Y3900D02*
D03*
X5900Y1400D02*
D03*
Y1300D02*
D03*
X5800Y1400D02*
D03*
Y1300D02*
D03*
X5700Y1400D02*
D03*
Y1300D02*
D03*
X5600Y1400D02*
D03*
Y1300D02*
D03*
X5500Y1400D02*
D03*
Y1300D02*
D03*
X5400Y1400D02*
D03*
Y1300D02*
D03*
X5300Y1400D02*
D03*
Y1300D02*
D03*
X5200Y1400D02*
D03*
Y1300D02*
D03*
X5100Y1400D02*
D03*
Y1300D02*
D03*
X5000Y1400D02*
D03*
X4381Y1375D02*
D03*
X4281D02*
D03*
X4381Y1475D02*
D03*
X4281D02*
D03*
X4381Y1575D02*
D03*
X2300Y1400D02*
D03*
Y1500D02*
D03*
X2400Y1400D02*
D03*
Y1500D02*
D03*
X2500Y1400D02*
D03*
Y1500D02*
D03*
X2600Y1400D02*
D03*
Y1500D02*
D03*
X2700Y1400D02*
D03*
Y1500D02*
D03*
X2800Y1400D02*
D03*
Y1500D02*
D03*
X2900Y1400D02*
D03*
Y1500D02*
D03*
X3000Y1400D02*
D03*
Y1500D02*
D03*
X3100Y1400D02*
D03*
Y1500D02*
D03*
X3200Y1400D02*
D03*
D17*
X3789Y1585D02*
D03*
X4281Y1575D02*
D03*
D18*
X6600Y2000D02*
D03*
X6500Y4000D02*
D03*
X5000Y1300D02*
D03*
X3200Y1500D02*
D03*
D19*
X2904Y4596D02*
D03*
D20*
X2805D02*
D03*
X2707D02*
D03*
D21*
X3002Y1742D02*
D03*
D22*
X3000Y4100D02*
D03*
X3100D02*
D03*
X3200D02*
D03*
X3300D02*
D03*
X3400D02*
D03*
X3500D02*
D03*
X3600D02*
D03*
X3700D02*
D03*
X3900D02*
D03*
X4000D02*
D03*
X4100D02*
D03*
X4200D02*
D03*
X4300D02*
D03*
X4400D02*
D03*
X4500D02*
D03*
X4600D02*
D03*
X2100D02*
D03*
X2200D02*
D03*
X2300D02*
D03*
X2400D02*
D03*
X2500D02*
D03*
X2600D02*
D03*
X2700D02*
D03*
X2800D02*
D03*
X3700Y2200D02*
D03*
X3800D02*
D03*
X3900D02*
D03*
X4000D02*
D03*
X4100D02*
D03*
X4200D02*
D03*
X4300D02*
D03*
X4400D02*
D03*
X2800D02*
D03*
X2900D02*
D03*
X3000D02*
D03*
X3100D02*
D03*
X3200D02*
D03*
X3300D02*
D03*
X3400D02*
D03*
X3500D02*
D03*
X2640D02*
D03*
X2540D02*
D03*
X2440D02*
D03*
X2340D02*
D03*
X2240D02*
D03*
X2140D02*
D03*
X2040D02*
D03*
X1940D02*
D03*
X1840D02*
D03*
X1740D02*
D03*
X4700D02*
D03*
X4800D02*
D03*
X4700Y2300D02*
D03*
X4800D02*
D03*
X4700Y2400D02*
D03*
X4800D02*
D03*
X4700Y2500D02*
D03*
X4800D02*
D03*
X4700Y2600D02*
D03*
X4800D02*
D03*
X4700Y2700D02*
D03*
X4800D02*
D03*
X4700Y2800D02*
D03*
X4800D02*
D03*
X4700Y2900D02*
D03*
X4800D02*
D03*
X4700Y3000D02*
D03*
X4800D02*
D03*
X4700Y3100D02*
D03*
X4800D02*
D03*
X4700Y3200D02*
D03*
X4800D02*
D03*
X4700Y3300D02*
D03*
X4800D02*
D03*
X4700Y3400D02*
D03*
X4800D02*
D03*
X4700Y3500D02*
D03*
X4800D02*
D03*
X4700Y3600D02*
D03*
X4800D02*
D03*
X4700Y3700D02*
D03*
X4800D02*
D03*
X4700Y3800D02*
D03*
X4800D02*
D03*
X4700Y3900D02*
D03*
X4800D02*
D03*
D23*
X6490Y3160D02*
D03*
Y3052D02*
D03*
Y2944D02*
D03*
X6602Y3214D02*
D03*
Y3106D02*
D03*
Y2998D02*
D03*
Y2890D02*
D03*
X6490Y2836D02*
D03*
D24*
X6546Y2506D02*
D03*
Y3490D02*
D03*
D25*
X6602Y2782D02*
D03*
D26*
X5522Y4667D02*
D03*
X5679Y4600D02*
D03*
X5522Y4533D02*
D03*
X5679Y4467D02*
D03*
D27*
X5522Y4400D02*
D03*
D28*
X6191Y4547D02*
D03*
X6289D02*
D03*
D29*
X6388D02*
D03*
%TF.MD5,385dfbb9133243cf637d22b7d28eea77*%
M02*
