M48
;Layer_Color=9474304
;FILE_FORMAT=2:5
INCH,LZ
;TYPE=PLATED
T1F00S00C0.02800
T2F00S00C0.02953
T3F00S00C0.03346
T4F00S00C0.03543
T5F00S00C0.03937
T6F00S00C0.04000
T7F00S00C0.04016
T8F00S00C0.04094
T9F00S00C0.05315
T10F00S00C0.12008
T11F00S00C0.20000
%
T01
X0361221Y0204409
X0370079Y0195551
X038189Y0235236
X0393701
T02
X0300197Y0174213
Y0193898
X0502815Y041
X05225
T03
X053Y0305
X056
X057
X06
X0618Y0287
Y0278
Y0248
X0447835Y0432598
X042815
X0408465
X0388779
X0369094
Y0462598
X0388779
X0408465
X042815
X0447835
X0496811Y0454724
Y0434055
X0526811
Y0454724
X0617874Y042815
X0618Y0357
Y0327
Y0317
X06Y0323
Y034
X057
X056
Y0323
X057
X053
Y034
X0647874Y042815
X066Y0425
X0684
Y0395
X066Y0455
T04
X0270669Y0459646
X0280512
X0290354
T05
X0619095Y0454724
X0628937
X0638779
T06
X047Y022
Y023
Y024
Y025
Y026
Y027
Y028
Y029
Y03
Y031
X048
Y03
Y029
Y028
Y027
Y026
Y025
Y024
Y023
Y022
X054Y018
X055
X056
X057
X058
Y029
X057
X056
X055
X054
X044Y022
X043
X042
X041
X04
X039
X038
X037
X035
X034
X033
X032
X031
X03
X029
X028
X0264
X0254
X0244
X0234
X0224
X0214
X0204
X0194
X0184
X0174
X021Y041
X022
X023
X024
X025
X026
X027
X028
X03
X031
X032
X033
X034
X035
X036
X037
X039
X04
X041
X042
X043
X044
X045
X046
X047Y039
X048
Y038
X047
Y037
X048
Y036
X047
Y035
X048
Y034
X047
Y033
X048
Y032
X047
T07
X023Y014
X024
X025
X026
X027
X028
X029
X03
X031
Y015
X03
X029
X028
X027
X026
X025
X024
X023
X032
Y014
X0378937Y0138465
Y0148465
X0388937
Y0138465
X042815Y013748
Y014748
X043815
Y013748
X05Y014
Y013
X051
Y014
X052
Y013
X053
Y014
X054
Y013
X055
Y014
X056
Y013
X057
Y014
X058
Y013
X059
Y014
X064Y019
X065
X066
Y02
X065
X064
X043815Y015748
X042815
X0388937Y0158465
X0378937
X056Y039
X057
X058
X059
X06
X061
X062
Y04
X061
X06
X059
X058
X057
X056
X063
X064
X065
Y039
X064
X063
T08
X0649Y0283638
Y0294425
Y0305213
X0660181Y0310606
Y0299819
Y0289032
Y0278244
Y0321394
X0649Y0316
T09
X0552165Y0439961
Y0453346
Y0466732
X0567913Y0460039
Y0446654
T10
X0654591Y0250646
Y0349031
T11
X0125Y0125
X0675
Y0475
X0125
M30
