G04 Layer_Color=32896*
%FSLAX25Y25*%
%MOIN*%
G70*
G01*
G75*
%ADD11C,0.01000*%
D11*
X465000Y215000D02*
Y395000D01*
X485000D01*
Y215000D02*
Y395000D01*
X465000Y215000D02*
X485000D01*
X169000D02*
X249000D01*
X169000Y225000D02*
X249000D01*
X169000Y215000D02*
Y225000D01*
X249000Y215000D02*
X269000D01*
Y225000D01*
X249000D02*
X269000D01*
X275000Y215000D02*
Y225000D01*
X355000D01*
Y215000D02*
Y225000D01*
X275000Y215000D02*
X355000D01*
X365000D02*
Y225000D01*
X445000D01*
Y215000D02*
Y225000D01*
X365000Y215000D02*
X445000D01*
X205000Y405000D02*
Y415000D01*
X285000D01*
Y405000D02*
Y415000D01*
X205000Y405000D02*
X285000D01*
X385000D02*
Y415000D01*
X465000D01*
Y405000D02*
Y415000D01*
X385000Y405000D02*
X465000D01*
X295000D02*
Y415000D01*
X375000D01*
Y405000D02*
Y415000D01*
X295000Y405000D02*
X375000D01*
X480501Y424498D02*
X482501D01*
X481501D01*
Y419500D01*
X482501Y418500D01*
X483500D01*
X484500Y419500D01*
X475503Y418500D02*
Y424498D01*
X478502Y421499D01*
X474503D01*
X472504Y423498D02*
X471504Y424498D01*
X469505D01*
X468505Y423498D01*
Y419500D01*
X469505Y418500D01*
X471504D01*
X472504Y419500D01*
Y423498D01*
X466506Y424498D02*
X462507D01*
Y423498D01*
X466506Y419500D01*
Y418500D01*
M02*
