G04 Layer_Physical_Order=3*
G04 Layer_Color=16440176*
%FSLAX25Y25*%
%MOIN*%
G70*
G01*
G75*
%ADD13C,0.04331*%
%ADD14C,0.05512*%
%ADD16C,0.05394*%
%ADD17C,0.07500*%
%ADD18C,0.06000*%
%ADD20C,0.07972*%
%ADD23R,0.04331X0.04331*%
%ADD24R,0.05394X0.05394*%
%ADD25C,0.06142*%
%ADD27C,0.16008*%
%ADD28C,0.06693*%
%ADD29R,0.06693X0.06693*%
%ADD30C,0.30000*%
%ADD32C,0.10000*%
G36*
X700000Y100000D02*
X100000D01*
Y500000D01*
X700000D01*
Y100000D01*
D02*
G37*
%LPC*%
G36*
X430000Y224217D02*
X428908Y224074D01*
X427891Y223652D01*
X427018Y222982D01*
X426348Y222109D01*
X425926Y221092D01*
X425783Y220000D01*
X425926Y218909D01*
X426348Y217891D01*
X427018Y217018D01*
X427891Y216348D01*
X428908Y215927D01*
X430000Y215783D01*
X431091Y215927D01*
X432109Y216348D01*
X432982Y217018D01*
X433652Y217891D01*
X434073Y218909D01*
X434217Y220000D01*
X434073Y221092D01*
X433652Y222109D01*
X432982Y222982D01*
X432109Y223652D01*
X431091Y224074D01*
X430000Y224217D01*
D02*
G37*
G36*
X420000D02*
X418909Y224074D01*
X417891Y223652D01*
X417018Y222982D01*
X416348Y222109D01*
X415927Y221092D01*
X415783Y220000D01*
X415927Y218909D01*
X416348Y217891D01*
X417018Y217018D01*
X417891Y216348D01*
X418909Y215927D01*
X420000Y215783D01*
X421092Y215927D01*
X422109Y216348D01*
X422982Y217018D01*
X423652Y217891D01*
X424074Y218909D01*
X424217Y220000D01*
X424074Y221092D01*
X423652Y222109D01*
X422982Y222982D01*
X422109Y223652D01*
X421092Y224074D01*
X420000Y224217D01*
D02*
G37*
G36*
X470000D02*
X468909Y224074D01*
X467891Y223652D01*
X467018Y222982D01*
X466348Y222109D01*
X465927Y221092D01*
X465783Y220000D01*
X465927Y218909D01*
X466348Y217891D01*
X467018Y217018D01*
X467891Y216348D01*
X468909Y215927D01*
X470000Y215783D01*
X471092Y215927D01*
X472109Y216348D01*
X472982Y217018D01*
X473652Y217891D01*
X474074Y218909D01*
X474217Y220000D01*
X474074Y221092D01*
X473652Y222109D01*
X472982Y222982D01*
X472109Y223652D01*
X471092Y224074D01*
X470000Y224217D01*
D02*
G37*
G36*
X440000D02*
X438908Y224074D01*
X437891Y223652D01*
X437018Y222982D01*
X436348Y222109D01*
X435926Y221092D01*
X435783Y220000D01*
X435926Y218909D01*
X436348Y217891D01*
X437018Y217018D01*
X437891Y216348D01*
X438908Y215927D01*
X440000Y215783D01*
X441091Y215927D01*
X442109Y216348D01*
X442982Y217018D01*
X443652Y217891D01*
X444073Y218909D01*
X444217Y220000D01*
X444073Y221092D01*
X443652Y222109D01*
X442982Y222982D01*
X442109Y223652D01*
X441091Y224074D01*
X440000Y224217D01*
D02*
G37*
G36*
X410000D02*
X408909Y224074D01*
X407891Y223652D01*
X407018Y222982D01*
X406348Y222109D01*
X405927Y221092D01*
X405783Y220000D01*
X405927Y218909D01*
X406348Y217891D01*
X407018Y217018D01*
X407891Y216348D01*
X408909Y215927D01*
X410000Y215783D01*
X411092Y215927D01*
X412109Y216348D01*
X412982Y217018D01*
X413652Y217891D01*
X414074Y218909D01*
X414217Y220000D01*
X414074Y221092D01*
X413652Y222109D01*
X412982Y222982D01*
X412109Y223652D01*
X411092Y224074D01*
X410000Y224217D01*
D02*
G37*
G36*
X380000D02*
X378908Y224074D01*
X377891Y223652D01*
X377018Y222982D01*
X376348Y222109D01*
X375926Y221092D01*
X375783Y220000D01*
X375926Y218909D01*
X376348Y217891D01*
X377018Y217018D01*
X377891Y216348D01*
X378908Y215927D01*
X380000Y215783D01*
X381091Y215927D01*
X382109Y216348D01*
X382982Y217018D01*
X383652Y217891D01*
X384073Y218909D01*
X384217Y220000D01*
X384073Y221092D01*
X383652Y222109D01*
X382982Y222982D01*
X382109Y223652D01*
X381091Y224074D01*
X380000Y224217D01*
D02*
G37*
G36*
X370000D02*
X368909Y224074D01*
X367891Y223652D01*
X367018Y222982D01*
X366348Y222109D01*
X365927Y221092D01*
X365783Y220000D01*
X365927Y218909D01*
X366348Y217891D01*
X367018Y217018D01*
X367891Y216348D01*
X368909Y215927D01*
X370000Y215783D01*
X371092Y215927D01*
X372109Y216348D01*
X372982Y217018D01*
X373652Y217891D01*
X374074Y218909D01*
X374217Y220000D01*
X374074Y221092D01*
X373652Y222109D01*
X372982Y222982D01*
X372109Y223652D01*
X371092Y224074D01*
X370000Y224217D01*
D02*
G37*
G36*
X400000D02*
X398908Y224074D01*
X397891Y223652D01*
X397018Y222982D01*
X396348Y222109D01*
X395926Y221092D01*
X395783Y220000D01*
X395926Y218909D01*
X396348Y217891D01*
X397018Y217018D01*
X397891Y216348D01*
X398908Y215927D01*
X400000Y215783D01*
X401091Y215927D01*
X402109Y216348D01*
X402982Y217018D01*
X403652Y217891D01*
X404073Y218909D01*
X404217Y220000D01*
X404073Y221092D01*
X403652Y222109D01*
X402982Y222982D01*
X402109Y223652D01*
X401091Y224074D01*
X400000Y224217D01*
D02*
G37*
G36*
X390000D02*
X388909Y224074D01*
X387891Y223652D01*
X387018Y222982D01*
X386348Y222109D01*
X385927Y221092D01*
X385783Y220000D01*
X385927Y218909D01*
X386348Y217891D01*
X387018Y217018D01*
X387891Y216348D01*
X388909Y215927D01*
X390000Y215783D01*
X391091Y215927D01*
X392109Y216348D01*
X392982Y217018D01*
X393652Y217891D01*
X394074Y218909D01*
X394217Y220000D01*
X394074Y221092D01*
X393652Y222109D01*
X392982Y222982D01*
X392109Y223652D01*
X391091Y224074D01*
X390000Y224217D01*
D02*
G37*
G36*
X480000Y234217D02*
X478908Y234073D01*
X477891Y233652D01*
X477018Y232982D01*
X476348Y232109D01*
X475926Y231091D01*
X475783Y230000D01*
X475926Y228908D01*
X476348Y227891D01*
X477018Y227018D01*
X477891Y226348D01*
X478908Y225926D01*
X480000Y225783D01*
X481091Y225926D01*
X482109Y226348D01*
X482982Y227018D01*
X483652Y227891D01*
X484073Y228908D01*
X484217Y230000D01*
X484073Y231091D01*
X483652Y232109D01*
X482982Y232982D01*
X482109Y233652D01*
X481091Y234073D01*
X480000Y234217D01*
D02*
G37*
G36*
X470000D02*
X468909Y234073D01*
X467891Y233652D01*
X467018Y232982D01*
X466348Y232109D01*
X465927Y231091D01*
X465783Y230000D01*
X465927Y228908D01*
X466348Y227891D01*
X467018Y227018D01*
X467891Y226348D01*
X468909Y225926D01*
X470000Y225783D01*
X471092Y225926D01*
X472109Y226348D01*
X472982Y227018D01*
X473652Y227891D01*
X474074Y228908D01*
X474217Y230000D01*
X474074Y231091D01*
X473652Y232109D01*
X472982Y232982D01*
X472109Y233652D01*
X471092Y234073D01*
X470000Y234217D01*
D02*
G37*
G36*
X393701Y238949D02*
X392740Y238823D01*
X391844Y238452D01*
X391075Y237862D01*
X390485Y237093D01*
X390114Y236197D01*
X389988Y235236D01*
X390114Y234275D01*
X390485Y233380D01*
X391075Y232611D01*
X391844Y232021D01*
X392740Y231650D01*
X393701Y231523D01*
X394662Y231650D01*
X395557Y232021D01*
X396326Y232611D01*
X396916Y233380D01*
X397287Y234275D01*
X397414Y235236D01*
X397287Y236197D01*
X396916Y237093D01*
X396326Y237862D01*
X395557Y238452D01*
X394662Y238823D01*
X393701Y238949D01*
D02*
G37*
G36*
X381890D02*
X380929Y238823D01*
X380033Y238452D01*
X379264Y237862D01*
X378674Y237093D01*
X378303Y236197D01*
X378177Y235236D01*
X378303Y234275D01*
X378674Y233380D01*
X379264Y232611D01*
X380033Y232021D01*
X380929Y231650D01*
X381890Y231523D01*
X382851Y231650D01*
X383746Y232021D01*
X384515Y232611D01*
X385105Y233380D01*
X385476Y234275D01*
X385603Y235236D01*
X385476Y236197D01*
X385105Y237093D01*
X384515Y237862D01*
X383746Y238452D01*
X382851Y238823D01*
X381890Y238949D01*
D02*
G37*
G36*
X204500Y223969D02*
Y220500D01*
X207969D01*
X207897Y221044D01*
X207494Y222017D01*
X206853Y222853D01*
X206017Y223494D01*
X205044Y223897D01*
X204500Y223969D01*
D02*
G37*
G36*
X203500Y219500D02*
X200031D01*
X200103Y218956D01*
X200506Y217983D01*
X201147Y217147D01*
X201983Y216506D01*
X202956Y216103D01*
X203500Y216031D01*
Y219500D01*
D02*
G37*
G36*
X480000Y224217D02*
X478908Y224074D01*
X477891Y223652D01*
X477018Y222982D01*
X476348Y222109D01*
X475926Y221092D01*
X475783Y220000D01*
X475926Y218909D01*
X476348Y217891D01*
X477018Y217018D01*
X477891Y216348D01*
X478908Y215927D01*
X480000Y215783D01*
X481091Y215927D01*
X482109Y216348D01*
X482982Y217018D01*
X483652Y217891D01*
X484073Y218909D01*
X484217Y220000D01*
X484073Y221092D01*
X483652Y222109D01*
X482982Y222982D01*
X482109Y223652D01*
X481091Y224074D01*
X480000Y224217D01*
D02*
G37*
G36*
X203500Y223969D02*
X202956Y223897D01*
X201983Y223494D01*
X201147Y222853D01*
X200506Y222017D01*
X200103Y221044D01*
X200031Y220500D01*
X203500D01*
Y223969D01*
D02*
G37*
G36*
X207969Y219500D02*
X204500D01*
Y216031D01*
X205044Y216103D01*
X206017Y216506D01*
X206853Y217147D01*
X207494Y217983D01*
X207897Y218956D01*
X207969Y219500D01*
D02*
G37*
G36*
X234000Y224217D02*
X232909Y224074D01*
X231891Y223652D01*
X231018Y222982D01*
X230348Y222109D01*
X229926Y221092D01*
X229783Y220000D01*
X229926Y218909D01*
X230348Y217891D01*
X231018Y217018D01*
X231891Y216348D01*
X232909Y215927D01*
X234000Y215783D01*
X235091Y215927D01*
X236109Y216348D01*
X236982Y217018D01*
X237652Y217891D01*
X238073Y218909D01*
X238217Y220000D01*
X238073Y221092D01*
X237652Y222109D01*
X236982Y222982D01*
X236109Y223652D01*
X235091Y224074D01*
X234000Y224217D01*
D02*
G37*
G36*
X224000D02*
X222908Y224074D01*
X221891Y223652D01*
X221018Y222982D01*
X220348Y222109D01*
X219927Y221092D01*
X219783Y220000D01*
X219927Y218909D01*
X220348Y217891D01*
X221018Y217018D01*
X221891Y216348D01*
X222908Y215927D01*
X224000Y215783D01*
X225092Y215927D01*
X226109Y216348D01*
X226982Y217018D01*
X227652Y217891D01*
X228074Y218909D01*
X228217Y220000D01*
X228074Y221092D01*
X227652Y222109D01*
X226982Y222982D01*
X226109Y223652D01*
X225092Y224074D01*
X224000Y224217D01*
D02*
G37*
G36*
X254000D02*
X252908Y224074D01*
X251891Y223652D01*
X251018Y222982D01*
X250348Y222109D01*
X249926Y221092D01*
X249783Y220000D01*
X249926Y218909D01*
X250348Y217891D01*
X251018Y217018D01*
X251891Y216348D01*
X252908Y215927D01*
X254000Y215783D01*
X255092Y215927D01*
X256109Y216348D01*
X256982Y217018D01*
X257652Y217891D01*
X258073Y218909D01*
X258217Y220000D01*
X258073Y221092D01*
X257652Y222109D01*
X256982Y222982D01*
X256109Y223652D01*
X255092Y224074D01*
X254000Y224217D01*
D02*
G37*
G36*
X244000D02*
X242909Y224074D01*
X241891Y223652D01*
X241018Y222982D01*
X240348Y222109D01*
X239927Y221092D01*
X239783Y220000D01*
X239927Y218909D01*
X240348Y217891D01*
X241018Y217018D01*
X241891Y216348D01*
X242909Y215927D01*
X244000Y215783D01*
X245092Y215927D01*
X246109Y216348D01*
X246982Y217018D01*
X247652Y217891D01*
X248074Y218909D01*
X248217Y220000D01*
X248074Y221092D01*
X247652Y222109D01*
X246982Y222982D01*
X246109Y223652D01*
X245092Y224074D01*
X244000Y224217D01*
D02*
G37*
G36*
X214000D02*
X212909Y224074D01*
X211891Y223652D01*
X211018Y222982D01*
X210348Y222109D01*
X209927Y221092D01*
X209783Y220000D01*
X209927Y218909D01*
X210348Y217891D01*
X211018Y217018D01*
X211891Y216348D01*
X212909Y215927D01*
X214000Y215783D01*
X215091Y215927D01*
X216109Y216348D01*
X216982Y217018D01*
X217652Y217891D01*
X218074Y218909D01*
X218217Y220000D01*
X218074Y221092D01*
X217652Y222109D01*
X216982Y222982D01*
X216109Y223652D01*
X215091Y224074D01*
X214000Y224217D01*
D02*
G37*
G36*
X174000D02*
X172908Y224074D01*
X171891Y223652D01*
X171018Y222982D01*
X170348Y222109D01*
X169927Y221092D01*
X169783Y220000D01*
X169927Y218909D01*
X170348Y217891D01*
X171018Y217018D01*
X171891Y216348D01*
X172908Y215927D01*
X174000Y215783D01*
X175092Y215927D01*
X176109Y216348D01*
X176982Y217018D01*
X177652Y217891D01*
X178074Y218909D01*
X178217Y220000D01*
X178074Y221092D01*
X177652Y222109D01*
X176982Y222982D01*
X176109Y223652D01*
X175092Y224074D01*
X174000Y224217D01*
D02*
G37*
G36*
X361221Y208122D02*
X360260Y207996D01*
X359364Y207625D01*
X358595Y207035D01*
X358005Y206266D01*
X357634Y205370D01*
X357508Y204409D01*
X357634Y203449D01*
X358005Y202553D01*
X358595Y201784D01*
X359364Y201194D01*
X360260Y200823D01*
X361221Y200697D01*
X362181Y200823D01*
X363077Y201194D01*
X363846Y201784D01*
X364436Y202553D01*
X364807Y203449D01*
X364933Y204409D01*
X364807Y205370D01*
X364436Y206266D01*
X363846Y207035D01*
X363077Y207625D01*
X362181Y207996D01*
X361221Y208122D01*
D02*
G37*
G36*
X194000Y224217D02*
X192909Y224074D01*
X191891Y223652D01*
X191018Y222982D01*
X190348Y222109D01*
X189927Y221092D01*
X189783Y220000D01*
X189927Y218909D01*
X190348Y217891D01*
X191018Y217018D01*
X191891Y216348D01*
X192909Y215927D01*
X194000Y215783D01*
X195091Y215927D01*
X196109Y216348D01*
X196982Y217018D01*
X197652Y217891D01*
X198073Y218909D01*
X198217Y220000D01*
X198073Y221092D01*
X197652Y222109D01*
X196982Y222982D01*
X196109Y223652D01*
X195091Y224074D01*
X194000Y224217D01*
D02*
G37*
G36*
X184000D02*
X182908Y224074D01*
X181891Y223652D01*
X181018Y222982D01*
X180348Y222109D01*
X179927Y221092D01*
X179783Y220000D01*
X179927Y218909D01*
X180348Y217891D01*
X181018Y217018D01*
X181891Y216348D01*
X182908Y215927D01*
X184000Y215783D01*
X185091Y215927D01*
X186109Y216348D01*
X186982Y217018D01*
X187652Y217891D01*
X188074Y218909D01*
X188217Y220000D01*
X188074Y221092D01*
X187652Y222109D01*
X186982Y222982D01*
X186109Y223652D01*
X185091Y224074D01*
X184000Y224217D01*
D02*
G37*
G36*
X330000D02*
X328908Y224074D01*
X327891Y223652D01*
X327018Y222982D01*
X326348Y222109D01*
X325926Y221092D01*
X325783Y220000D01*
X325926Y218909D01*
X326348Y217891D01*
X327018Y217018D01*
X327891Y216348D01*
X328908Y215927D01*
X330000Y215783D01*
X331091Y215927D01*
X332109Y216348D01*
X332982Y217018D01*
X333652Y217891D01*
X334073Y218909D01*
X334217Y220000D01*
X334073Y221092D01*
X333652Y222109D01*
X332982Y222982D01*
X332109Y223652D01*
X331091Y224074D01*
X330000Y224217D01*
D02*
G37*
G36*
X320000D02*
X318909Y224074D01*
X317891Y223652D01*
X317018Y222982D01*
X316348Y222109D01*
X315927Y221092D01*
X315783Y220000D01*
X315927Y218909D01*
X316348Y217891D01*
X317018Y217018D01*
X317891Y216348D01*
X318909Y215927D01*
X320000Y215783D01*
X321092Y215927D01*
X322109Y216348D01*
X322982Y217018D01*
X323652Y217891D01*
X324074Y218909D01*
X324217Y220000D01*
X324074Y221092D01*
X323652Y222109D01*
X322982Y222982D01*
X322109Y223652D01*
X321092Y224074D01*
X320000Y224217D01*
D02*
G37*
G36*
X350000D02*
X348908Y224074D01*
X347891Y223652D01*
X347018Y222982D01*
X346348Y222109D01*
X345926Y221092D01*
X345783Y220000D01*
X345926Y218909D01*
X346348Y217891D01*
X347018Y217018D01*
X347891Y216348D01*
X348908Y215927D01*
X350000Y215783D01*
X351092Y215927D01*
X352109Y216348D01*
X352982Y217018D01*
X353652Y217891D01*
X354074Y218909D01*
X354217Y220000D01*
X354074Y221092D01*
X353652Y222109D01*
X352982Y222982D01*
X352109Y223652D01*
X351092Y224074D01*
X350000Y224217D01*
D02*
G37*
G36*
X340000D02*
X338909Y224074D01*
X337891Y223652D01*
X337018Y222982D01*
X336348Y222109D01*
X335927Y221092D01*
X335783Y220000D01*
X335927Y218909D01*
X336348Y217891D01*
X337018Y217018D01*
X337891Y216348D01*
X338909Y215927D01*
X340000Y215783D01*
X341091Y215927D01*
X342109Y216348D01*
X342982Y217018D01*
X343652Y217891D01*
X344074Y218909D01*
X344217Y220000D01*
X344074Y221092D01*
X343652Y222109D01*
X342982Y222982D01*
X342109Y223652D01*
X341091Y224074D01*
X340000Y224217D01*
D02*
G37*
G36*
X310000D02*
X308909Y224074D01*
X307891Y223652D01*
X307018Y222982D01*
X306348Y222109D01*
X305926Y221092D01*
X305783Y220000D01*
X305926Y218909D01*
X306348Y217891D01*
X307018Y217018D01*
X307891Y216348D01*
X308909Y215927D01*
X310000Y215783D01*
X311091Y215927D01*
X312109Y216348D01*
X312982Y217018D01*
X313652Y217891D01*
X314073Y218909D01*
X314217Y220000D01*
X314073Y221092D01*
X313652Y222109D01*
X312982Y222982D01*
X312109Y223652D01*
X311091Y224074D01*
X310000Y224217D01*
D02*
G37*
G36*
X280000D02*
X278908Y224074D01*
X277891Y223652D01*
X277018Y222982D01*
X276348Y222109D01*
X275926Y221092D01*
X275783Y220000D01*
X275926Y218909D01*
X276348Y217891D01*
X277018Y217018D01*
X277891Y216348D01*
X278908Y215927D01*
X280000Y215783D01*
X281091Y215927D01*
X282109Y216348D01*
X282982Y217018D01*
X283652Y217891D01*
X284073Y218909D01*
X284217Y220000D01*
X284073Y221092D01*
X283652Y222109D01*
X282982Y222982D01*
X282109Y223652D01*
X281091Y224074D01*
X280000Y224217D01*
D02*
G37*
G36*
X264000D02*
X262909Y224074D01*
X261891Y223652D01*
X261018Y222982D01*
X260348Y222109D01*
X259927Y221092D01*
X259783Y220000D01*
X259927Y218909D01*
X260348Y217891D01*
X261018Y217018D01*
X261891Y216348D01*
X262909Y215927D01*
X264000Y215783D01*
X265091Y215927D01*
X266109Y216348D01*
X266982Y217018D01*
X267652Y217891D01*
X268074Y218909D01*
X268217Y220000D01*
X268074Y221092D01*
X267652Y222109D01*
X266982Y222982D01*
X266109Y223652D01*
X265091Y224074D01*
X264000Y224217D01*
D02*
G37*
G36*
X300000D02*
X298908Y224074D01*
X297891Y223652D01*
X297018Y222982D01*
X296348Y222109D01*
X295926Y221092D01*
X295783Y220000D01*
X295926Y218909D01*
X296348Y217891D01*
X297018Y217018D01*
X297891Y216348D01*
X298908Y215927D01*
X300000Y215783D01*
X301092Y215927D01*
X302109Y216348D01*
X302982Y217018D01*
X303652Y217891D01*
X304074Y218909D01*
X304217Y220000D01*
X304074Y221092D01*
X303652Y222109D01*
X302982Y222982D01*
X302109Y223652D01*
X301092Y224074D01*
X300000Y224217D01*
D02*
G37*
G36*
X290000D02*
X288909Y224074D01*
X287891Y223652D01*
X287018Y222982D01*
X286348Y222109D01*
X285927Y221092D01*
X285783Y220000D01*
X285927Y218909D01*
X286348Y217891D01*
X287018Y217018D01*
X287891Y216348D01*
X288909Y215927D01*
X290000Y215783D01*
X291091Y215927D01*
X292109Y216348D01*
X292982Y217018D01*
X293652Y217891D01*
X294074Y218909D01*
X294217Y220000D01*
X294074Y221092D01*
X293652Y222109D01*
X292982Y222982D01*
X292109Y223652D01*
X291091Y224074D01*
X290000Y224217D01*
D02*
G37*
G36*
X470000Y244217D02*
X468909Y244074D01*
X467891Y243652D01*
X467018Y242982D01*
X466348Y242109D01*
X465927Y241091D01*
X465783Y240000D01*
X465927Y238909D01*
X466348Y237891D01*
X467018Y237018D01*
X467891Y236348D01*
X468909Y235927D01*
X470000Y235783D01*
X471092Y235927D01*
X472109Y236348D01*
X472982Y237018D01*
X473652Y237891D01*
X474074Y238909D01*
X474217Y240000D01*
X474074Y241091D01*
X473652Y242109D01*
X472982Y242982D01*
X472109Y243652D01*
X471092Y244074D01*
X470000Y244217D01*
D02*
G37*
G36*
X660681Y293072D02*
Y289531D01*
X664221D01*
X664147Y290094D01*
X663737Y291085D01*
X663085Y291935D01*
X662234Y292587D01*
X661244Y292998D01*
X660681Y293072D01*
D02*
G37*
G36*
X659681Y293072D02*
X659118Y292998D01*
X658128Y292587D01*
X657278Y291935D01*
X656625Y291085D01*
X656215Y290094D01*
X656141Y289531D01*
X659681D01*
Y293072D01*
D02*
G37*
G36*
X580500Y294725D02*
Y290500D01*
X584725D01*
X584628Y291240D01*
X584149Y292395D01*
X583388Y293388D01*
X582396Y294149D01*
X581240Y294628D01*
X580500Y294725D01*
D02*
G37*
G36*
X649000Y298714D02*
X647890Y298568D01*
X646856Y298139D01*
X645967Y297458D01*
X645286Y296569D01*
X644858Y295535D01*
X644711Y294425D01*
X644858Y293315D01*
X645286Y292281D01*
X645967Y291393D01*
X646856Y290711D01*
X647890Y290283D01*
X649000Y290137D01*
X650110Y290283D01*
X651144Y290711D01*
X652033Y291393D01*
X652714Y292281D01*
X653142Y293315D01*
X653289Y294425D01*
X653142Y295535D01*
X652714Y296569D01*
X652033Y297458D01*
X651144Y298139D01*
X650110Y298568D01*
X649000Y298714D01*
D02*
G37*
G36*
X480000Y294217D02*
X478908Y294074D01*
X477891Y293652D01*
X477018Y292982D01*
X476348Y292109D01*
X475926Y291091D01*
X475783Y290000D01*
X475926Y288909D01*
X476348Y287891D01*
X477018Y287018D01*
X477891Y286348D01*
X478908Y285927D01*
X480000Y285783D01*
X481091Y285927D01*
X482109Y286348D01*
X482982Y287018D01*
X483652Y287891D01*
X484073Y288909D01*
X484217Y290000D01*
X484073Y291091D01*
X483652Y292109D01*
X482982Y292982D01*
X482109Y293652D01*
X481091Y294074D01*
X480000Y294217D01*
D02*
G37*
G36*
X664221Y288531D02*
X660681D01*
Y284991D01*
X661244Y285065D01*
X662234Y285476D01*
X663085Y286128D01*
X663737Y286979D01*
X664147Y287969D01*
X664221Y288531D01*
D02*
G37*
G36*
X659681D02*
X656141D01*
X656215Y287969D01*
X656625Y286979D01*
X657278Y286128D01*
X658128Y285476D01*
X659118Y285065D01*
X659681Y284991D01*
Y288531D01*
D02*
G37*
G36*
X470000Y294217D02*
X468909Y294074D01*
X467891Y293652D01*
X467018Y292982D01*
X466348Y292109D01*
X465927Y291091D01*
X465783Y290000D01*
X465927Y288909D01*
X466348Y287891D01*
X467018Y287018D01*
X467891Y286348D01*
X468909Y285927D01*
X470000Y285783D01*
X471092Y285927D01*
X472109Y286348D01*
X472982Y287018D01*
X473652Y287891D01*
X474074Y288909D01*
X474217Y290000D01*
X474074Y291091D01*
X473652Y292109D01*
X472982Y292982D01*
X472109Y293652D01*
X471092Y294074D01*
X470000Y294217D01*
D02*
G37*
G36*
X584725Y289500D02*
X580500D01*
Y285275D01*
X581240Y285372D01*
X582396Y285851D01*
X583388Y286612D01*
X584149Y287604D01*
X584628Y288760D01*
X584725Y289500D01*
D02*
G37*
G36*
X600000Y308971D02*
X598972Y308836D01*
X598014Y308439D01*
X597192Y307808D01*
X596561Y306985D01*
X596164Y306028D01*
X596029Y305000D01*
X596164Y303972D01*
X596561Y303014D01*
X597192Y302192D01*
X598014Y301561D01*
X598972Y301164D01*
X600000Y301029D01*
X601028Y301164D01*
X601986Y301561D01*
X602808Y302192D01*
X603439Y303014D01*
X603836Y303972D01*
X603971Y305000D01*
X603836Y306028D01*
X603439Y306985D01*
X602808Y307808D01*
X601986Y308439D01*
X601028Y308836D01*
X600000Y308971D01*
D02*
G37*
G36*
X570000D02*
X568972Y308836D01*
X568014Y308439D01*
X567192Y307808D01*
X566561Y306985D01*
X566164Y306028D01*
X566029Y305000D01*
X566164Y303972D01*
X566561Y303014D01*
X567192Y302192D01*
X568014Y301561D01*
X568972Y301164D01*
X570000Y301029D01*
X571028Y301164D01*
X571985Y301561D01*
X572808Y302192D01*
X573439Y303014D01*
X573836Y303972D01*
X573971Y305000D01*
X573836Y306028D01*
X573439Y306985D01*
X572808Y307808D01*
X571985Y308439D01*
X571028Y308836D01*
X570000Y308971D01*
D02*
G37*
G36*
X533722Y304500D02*
X530500D01*
Y301277D01*
X530980Y301341D01*
X531894Y301719D01*
X532679Y302321D01*
X533281Y303106D01*
X533659Y304019D01*
X533722Y304500D01*
D02*
G37*
G36*
X529500D02*
X526277D01*
X526341Y304019D01*
X526719Y303106D01*
X527321Y302321D01*
X528106Y301719D01*
X529019Y301341D01*
X529500Y301277D01*
Y304500D01*
D02*
G37*
G36*
X560000Y308971D02*
X558972Y308836D01*
X558014Y308439D01*
X557192Y307808D01*
X556561Y306985D01*
X556164Y306028D01*
X556029Y305000D01*
X556164Y303972D01*
X556561Y303014D01*
X557192Y302192D01*
X558014Y301561D01*
X558972Y301164D01*
X560000Y301029D01*
X561028Y301164D01*
X561985Y301561D01*
X562808Y302192D01*
X563439Y303014D01*
X563836Y303972D01*
X563971Y305000D01*
X563836Y306028D01*
X563439Y306985D01*
X562808Y307808D01*
X561985Y308439D01*
X561028Y308836D01*
X560000Y308971D01*
D02*
G37*
G36*
X470000Y304217D02*
X468909Y304074D01*
X467891Y303652D01*
X467018Y302982D01*
X466348Y302109D01*
X465927Y301092D01*
X465783Y300000D01*
X465927Y298908D01*
X466348Y297891D01*
X467018Y297018D01*
X467891Y296348D01*
X468909Y295926D01*
X470000Y295783D01*
X471092Y295926D01*
X472109Y296348D01*
X472982Y297018D01*
X473652Y297891D01*
X474074Y298908D01*
X474217Y300000D01*
X474074Y301092D01*
X473652Y302109D01*
X472982Y302982D01*
X472109Y303652D01*
X471092Y304074D01*
X470000Y304217D01*
D02*
G37*
G36*
X660181Y304107D02*
X659071Y303961D01*
X658037Y303533D01*
X657149Y302851D01*
X656467Y301963D01*
X656039Y300929D01*
X655893Y299819D01*
X656039Y298709D01*
X656467Y297675D01*
X657149Y296786D01*
X658037Y296105D01*
X659071Y295676D01*
X660181Y295530D01*
X661291Y295676D01*
X662325Y296105D01*
X663214Y296786D01*
X663895Y297675D01*
X664324Y298709D01*
X664470Y299819D01*
X664324Y300929D01*
X663895Y301963D01*
X663214Y302851D01*
X662325Y303533D01*
X661291Y303961D01*
X660181Y304107D01*
D02*
G37*
G36*
X649000Y309501D02*
X647890Y309355D01*
X646856Y308927D01*
X645967Y308245D01*
X645286Y307357D01*
X644858Y306323D01*
X644711Y305213D01*
X644858Y304103D01*
X645286Y303068D01*
X645967Y302180D01*
X646856Y301499D01*
X647890Y301070D01*
X649000Y300924D01*
X650110Y301070D01*
X651144Y301499D01*
X652033Y302180D01*
X652714Y303068D01*
X653142Y304103D01*
X653289Y305213D01*
X653142Y306323D01*
X652714Y307357D01*
X652033Y308245D01*
X651144Y308927D01*
X650110Y309355D01*
X649000Y309501D01*
D02*
G37*
G36*
X480000Y304217D02*
X478908Y304074D01*
X477891Y303652D01*
X477018Y302982D01*
X476348Y302109D01*
X475926Y301092D01*
X475783Y300000D01*
X475926Y298908D01*
X476348Y297891D01*
X477018Y297018D01*
X477891Y296348D01*
X478908Y295926D01*
X480000Y295783D01*
X481091Y295926D01*
X482109Y296348D01*
X482982Y297018D01*
X483652Y297891D01*
X484073Y298908D01*
X484217Y300000D01*
X484073Y301092D01*
X483652Y302109D01*
X482982Y302982D01*
X482109Y303652D01*
X481091Y304074D01*
X480000Y304217D01*
D02*
G37*
G36*
X654090Y259644D02*
X652825Y259519D01*
X651128Y259004D01*
X649564Y258168D01*
X648193Y257043D01*
X647068Y255672D01*
X646232Y254108D01*
X645717Y252411D01*
X645592Y251146D01*
X654090D01*
Y259644D01*
D02*
G37*
G36*
X480000Y254217D02*
X478908Y254074D01*
X477891Y253652D01*
X477018Y252982D01*
X476348Y252109D01*
X475926Y251092D01*
X475783Y250000D01*
X475926Y248908D01*
X476348Y247891D01*
X477018Y247018D01*
X477891Y246348D01*
X478908Y245926D01*
X480000Y245783D01*
X481091Y245926D01*
X482109Y246348D01*
X482982Y247018D01*
X483652Y247891D01*
X484073Y248908D01*
X484217Y250000D01*
X484073Y251092D01*
X483652Y252109D01*
X482982Y252982D01*
X482109Y253652D01*
X481091Y254074D01*
X480000Y254217D01*
D02*
G37*
G36*
X470000Y264217D02*
X468909Y264073D01*
X467891Y263652D01*
X467018Y262982D01*
X466348Y262109D01*
X465927Y261091D01*
X465783Y260000D01*
X465927Y258909D01*
X466348Y257891D01*
X467018Y257018D01*
X467891Y256348D01*
X468909Y255926D01*
X470000Y255783D01*
X471092Y255926D01*
X472109Y256348D01*
X472982Y257018D01*
X473652Y257891D01*
X474074Y258909D01*
X474217Y260000D01*
X474074Y261091D01*
X473652Y262109D01*
X472982Y262982D01*
X472109Y263652D01*
X471092Y264073D01*
X470000Y264217D01*
D02*
G37*
G36*
X655091Y259644D02*
Y251146D01*
X663589D01*
X663464Y252411D01*
X662949Y254108D01*
X662113Y255672D01*
X660988Y257043D01*
X659617Y258168D01*
X658053Y259004D01*
X656356Y259519D01*
X655091Y259644D01*
D02*
G37*
G36*
X470000Y254217D02*
X468909Y254074D01*
X467891Y253652D01*
X467018Y252982D01*
X466348Y252109D01*
X465927Y251092D01*
X465783Y250000D01*
X465927Y248908D01*
X466348Y247891D01*
X467018Y247018D01*
X467891Y246348D01*
X468909Y245926D01*
X470000Y245783D01*
X471092Y245926D01*
X472109Y246348D01*
X472982Y247018D01*
X473652Y247891D01*
X474074Y248908D01*
X474217Y250000D01*
X474074Y251092D01*
X473652Y252109D01*
X472982Y252982D01*
X472109Y253652D01*
X471092Y254074D01*
X470000Y254217D01*
D02*
G37*
G36*
X654090Y250146D02*
X645592D01*
X645717Y248881D01*
X646232Y247183D01*
X647068Y245619D01*
X648193Y244248D01*
X649564Y243123D01*
X651128Y242287D01*
X652825Y241772D01*
X654090Y241647D01*
Y250146D01*
D02*
G37*
G36*
X480000Y244217D02*
X478908Y244074D01*
X477891Y243652D01*
X477018Y242982D01*
X476348Y242109D01*
X475926Y241091D01*
X475783Y240000D01*
X475926Y238909D01*
X476348Y237891D01*
X477018Y237018D01*
X477891Y236348D01*
X478908Y235927D01*
X480000Y235783D01*
X481091Y235927D01*
X482109Y236348D01*
X482982Y237018D01*
X483652Y237891D01*
X484073Y238909D01*
X484217Y240000D01*
X484073Y241091D01*
X483652Y242109D01*
X482982Y242982D01*
X482109Y243652D01*
X481091Y244074D01*
X480000Y244217D01*
D02*
G37*
G36*
X618000Y251971D02*
X616972Y251836D01*
X616014Y251439D01*
X615192Y250808D01*
X614561Y249986D01*
X614164Y249028D01*
X614029Y248000D01*
X614164Y246972D01*
X614561Y246014D01*
X615192Y245192D01*
X616014Y244561D01*
X616972Y244164D01*
X618000Y244029D01*
X619028Y244164D01*
X619985Y244561D01*
X620808Y245192D01*
X621439Y246014D01*
X621836Y246972D01*
X621971Y248000D01*
X621836Y249028D01*
X621439Y249986D01*
X620808Y250808D01*
X619985Y251439D01*
X619028Y251836D01*
X618000Y251971D01*
D02*
G37*
G36*
X663589Y250146D02*
X655091D01*
Y241647D01*
X656356Y241772D01*
X658053Y242287D01*
X659617Y243123D01*
X660988Y244248D01*
X662113Y245619D01*
X662949Y247183D01*
X663464Y248881D01*
X663589Y250146D01*
D02*
G37*
G36*
X480000Y284217D02*
X478908Y284073D01*
X477891Y283652D01*
X477018Y282982D01*
X476348Y282109D01*
X475926Y281091D01*
X475783Y280000D01*
X475926Y278908D01*
X476348Y277891D01*
X477018Y277018D01*
X477891Y276348D01*
X478908Y275926D01*
X480000Y275783D01*
X481091Y275926D01*
X482109Y276348D01*
X482982Y277018D01*
X483652Y277891D01*
X484073Y278908D01*
X484217Y280000D01*
X484073Y281091D01*
X483652Y282109D01*
X482982Y282982D01*
X482109Y283652D01*
X481091Y284073D01*
X480000Y284217D01*
D02*
G37*
G36*
X470000D02*
X468909Y284073D01*
X467891Y283652D01*
X467018Y282982D01*
X466348Y282109D01*
X465927Y281091D01*
X465783Y280000D01*
X465927Y278908D01*
X466348Y277891D01*
X467018Y277018D01*
X467891Y276348D01*
X468909Y275926D01*
X470000Y275783D01*
X471092Y275926D01*
X472109Y276348D01*
X472982Y277018D01*
X473652Y277891D01*
X474074Y278908D01*
X474217Y280000D01*
X474074Y281091D01*
X473652Y282109D01*
X472982Y282982D01*
X472109Y283652D01*
X471092Y284073D01*
X470000Y284217D01*
D02*
G37*
G36*
X618000Y290971D02*
X616972Y290836D01*
X616014Y290439D01*
X615192Y289808D01*
X614561Y288985D01*
X614164Y288028D01*
X614029Y287000D01*
X614164Y285972D01*
X614561Y285015D01*
X615192Y284192D01*
X616014Y283561D01*
X616972Y283164D01*
X618000Y283029D01*
X619028Y283164D01*
X619985Y283561D01*
X620808Y284192D01*
X621439Y285015D01*
X621836Y285972D01*
X621971Y287000D01*
X621836Y288028D01*
X621439Y288985D01*
X620808Y289808D01*
X619985Y290439D01*
X619028Y290836D01*
X618000Y290971D01*
D02*
G37*
G36*
X649000Y287926D02*
X647890Y287780D01*
X646856Y287352D01*
X645967Y286670D01*
X645286Y285782D01*
X644858Y284748D01*
X644711Y283638D01*
X644858Y282528D01*
X645286Y281493D01*
X645967Y280605D01*
X646856Y279924D01*
X647890Y279495D01*
X649000Y279349D01*
X650110Y279495D01*
X651144Y279924D01*
X652033Y280605D01*
X652714Y281493D01*
X653142Y282528D01*
X653289Y283638D01*
X653142Y284748D01*
X652714Y285782D01*
X652033Y286670D01*
X651144Y287352D01*
X650110Y287780D01*
X649000Y287926D01*
D02*
G37*
G36*
X618000Y281971D02*
X616972Y281836D01*
X616014Y281439D01*
X615192Y280808D01*
X614561Y279985D01*
X614164Y279028D01*
X614029Y278000D01*
X614164Y276972D01*
X614561Y276014D01*
X615192Y275192D01*
X616014Y274561D01*
X616972Y274164D01*
X618000Y274029D01*
X619028Y274164D01*
X619985Y274561D01*
X620808Y275192D01*
X621439Y276014D01*
X621836Y276972D01*
X621971Y278000D01*
X621836Y279028D01*
X621439Y279985D01*
X620808Y280808D01*
X619985Y281439D01*
X619028Y281836D01*
X618000Y281971D01*
D02*
G37*
G36*
X470000Y274217D02*
X468909Y274074D01*
X467891Y273652D01*
X467018Y272982D01*
X466348Y272109D01*
X465927Y271092D01*
X465783Y270000D01*
X465927Y268909D01*
X466348Y267891D01*
X467018Y267018D01*
X467891Y266348D01*
X468909Y265927D01*
X470000Y265783D01*
X471092Y265927D01*
X472109Y266348D01*
X472982Y267018D01*
X473652Y267891D01*
X474074Y268909D01*
X474217Y270000D01*
X474074Y271092D01*
X473652Y272109D01*
X472982Y272982D01*
X472109Y273652D01*
X471092Y274074D01*
X470000Y274217D01*
D02*
G37*
G36*
X480000Y264217D02*
X478908Y264073D01*
X477891Y263652D01*
X477018Y262982D01*
X476348Y262109D01*
X475926Y261091D01*
X475783Y260000D01*
X475926Y258909D01*
X476348Y257891D01*
X477018Y257018D01*
X477891Y256348D01*
X478908Y255926D01*
X480000Y255783D01*
X481091Y255926D01*
X482109Y256348D01*
X482982Y257018D01*
X483652Y257891D01*
X484073Y258909D01*
X484217Y260000D01*
X484073Y261091D01*
X483652Y262109D01*
X482982Y262982D01*
X482109Y263652D01*
X481091Y264073D01*
X480000Y264217D01*
D02*
G37*
G36*
X663252Y282519D02*
X657110D01*
X656649Y282428D01*
X656259Y282167D01*
X655998Y281776D01*
X655906Y281315D01*
Y275173D01*
X655998Y274712D01*
X656259Y274322D01*
X656649Y274061D01*
X657110Y273969D01*
X663252D01*
X663713Y274061D01*
X664104Y274322D01*
X664364Y274712D01*
X664456Y275173D01*
Y281315D01*
X664364Y281776D01*
X664104Y282167D01*
X663713Y282428D01*
X663252Y282519D01*
D02*
G37*
G36*
X480000Y274217D02*
X478908Y274074D01*
X477891Y273652D01*
X477018Y272982D01*
X476348Y272109D01*
X475926Y271092D01*
X475783Y270000D01*
X475926Y268909D01*
X476348Y267891D01*
X477018Y267018D01*
X477891Y266348D01*
X478908Y265927D01*
X480000Y265783D01*
X481091Y265927D01*
X482109Y266348D01*
X482982Y267018D01*
X483652Y267891D01*
X484073Y268909D01*
X484217Y270000D01*
X484073Y271092D01*
X483652Y272109D01*
X482982Y272982D01*
X482109Y273652D01*
X481091Y274074D01*
X480000Y274217D01*
D02*
G37*
G36*
X662697Y203901D02*
X657303D01*
X656842Y203809D01*
X656452Y203548D01*
X656191Y203158D01*
X656099Y202697D01*
Y197303D01*
X656191Y196842D01*
X656452Y196452D01*
X656842Y196191D01*
X657303Y196099D01*
X662697D01*
X663158Y196191D01*
X663548Y196452D01*
X663809Y196842D01*
X663901Y197303D01*
Y202697D01*
X663809Y203158D01*
X663548Y203548D01*
X663158Y203809D01*
X662697Y203901D01*
D02*
G37*
G36*
X392600Y137965D02*
X389437D01*
Y134802D01*
X389902Y134863D01*
X390801Y135235D01*
X391574Y135828D01*
X392166Y136600D01*
X392539Y137499D01*
X392600Y137965D01*
D02*
G37*
G36*
X378937Y142376D02*
X377925Y142243D01*
X376981Y141852D01*
X376171Y141230D01*
X375550Y140420D01*
X375159Y139477D01*
X375026Y138465D01*
X375159Y137452D01*
X375550Y136509D01*
X376171Y135699D01*
X376981Y135077D01*
X377925Y134686D01*
X378937Y134553D01*
X379949Y134686D01*
X380893Y135077D01*
X381703Y135699D01*
X382324Y136509D01*
X382715Y137452D01*
X382848Y138465D01*
X382715Y139477D01*
X382324Y140420D01*
X381703Y141230D01*
X380893Y141852D01*
X379949Y142243D01*
X378937Y142376D01*
D02*
G37*
G36*
X250000Y143911D02*
X248988Y143778D01*
X248044Y143387D01*
X247234Y142766D01*
X246613Y141956D01*
X246222Y141012D01*
X246089Y140000D01*
X246222Y138988D01*
X246613Y138044D01*
X247234Y137234D01*
X248044Y136613D01*
X248988Y136222D01*
X250000Y136089D01*
X251012Y136222D01*
X251956Y136613D01*
X252766Y137234D01*
X253387Y138044D01*
X253778Y138988D01*
X253911Y140000D01*
X253778Y141012D01*
X253387Y141956D01*
X252766Y142766D01*
X251956Y143387D01*
X251012Y143778D01*
X250000Y143911D01*
D02*
G37*
G36*
X388437Y137965D02*
X385274D01*
X385335Y137499D01*
X385708Y136600D01*
X386300Y135828D01*
X387073Y135235D01*
X387972Y134863D01*
X388437Y134802D01*
Y137965D01*
D02*
G37*
G36*
X438150Y141392D02*
X437137Y141258D01*
X436194Y140868D01*
X435384Y140246D01*
X434762Y139436D01*
X434372Y138493D01*
X434238Y137480D01*
X434372Y136468D01*
X434762Y135525D01*
X435384Y134714D01*
X436194Y134093D01*
X437137Y133702D01*
X438150Y133569D01*
X439162Y133702D01*
X440105Y134093D01*
X440915Y134714D01*
X441537Y135525D01*
X441928Y136468D01*
X442061Y137480D01*
X441928Y138493D01*
X441537Y139436D01*
X440915Y140246D01*
X440105Y140868D01*
X439162Y141258D01*
X438150Y141392D01*
D02*
G37*
G36*
X589500Y133663D02*
X589035Y133602D01*
X588136Y133229D01*
X587363Y132637D01*
X586771Y131864D01*
X586398Y130965D01*
X586337Y130500D01*
X589500D01*
Y133663D01*
D02*
G37*
G36*
X580500D02*
Y130500D01*
X583663D01*
X583602Y130965D01*
X583229Y131864D01*
X582637Y132637D01*
X581864Y133229D01*
X580965Y133602D01*
X580500Y133663D01*
D02*
G37*
G36*
X428150Y141392D02*
X427137Y141258D01*
X426194Y140868D01*
X425384Y140246D01*
X424762Y139436D01*
X424371Y138493D01*
X424238Y137480D01*
X424371Y136468D01*
X424762Y135525D01*
X425384Y134714D01*
X426194Y134093D01*
X427137Y133702D01*
X428150Y133569D01*
X429162Y133702D01*
X430105Y134093D01*
X430915Y134714D01*
X431537Y135525D01*
X431928Y136468D01*
X432061Y137480D01*
X431928Y138493D01*
X431537Y139436D01*
X430915Y140246D01*
X430105Y140868D01*
X429162Y141258D01*
X428150Y141392D01*
D02*
G37*
G36*
X590500Y133663D02*
Y130500D01*
X593663D01*
X593602Y130965D01*
X593229Y131864D01*
X592637Y132637D01*
X591864Y133229D01*
X590965Y133602D01*
X590500Y133663D01*
D02*
G37*
G36*
X500000Y143911D02*
X498988Y143778D01*
X498044Y143387D01*
X497234Y142766D01*
X496613Y141956D01*
X496222Y141012D01*
X496089Y140000D01*
X496222Y138988D01*
X496613Y138044D01*
X497234Y137234D01*
X498044Y136613D01*
X498988Y136222D01*
X500000Y136089D01*
X501012Y136222D01*
X501956Y136613D01*
X502766Y137234D01*
X503387Y138044D01*
X503778Y138988D01*
X503911Y140000D01*
X503778Y141012D01*
X503387Y141956D01*
X502766Y142766D01*
X501956Y143387D01*
X501012Y143778D01*
X500000Y143911D01*
D02*
G37*
G36*
X320000D02*
X318988Y143778D01*
X318044Y143387D01*
X317234Y142766D01*
X316613Y141956D01*
X316222Y141012D01*
X316089Y140000D01*
X316222Y138988D01*
X316613Y138044D01*
X317234Y137234D01*
X318044Y136613D01*
X318988Y136222D01*
X320000Y136089D01*
X321012Y136222D01*
X321956Y136613D01*
X322766Y137234D01*
X323387Y138044D01*
X323778Y138988D01*
X323911Y140000D01*
X323778Y141012D01*
X323387Y141956D01*
X322766Y142766D01*
X321956Y143387D01*
X321012Y143778D01*
X320000Y143911D01*
D02*
G37*
G36*
X520000D02*
X518988Y143778D01*
X518044Y143387D01*
X517234Y142766D01*
X516613Y141956D01*
X516222Y141012D01*
X516089Y140000D01*
X516222Y138988D01*
X516613Y138044D01*
X517234Y137234D01*
X518044Y136613D01*
X518988Y136222D01*
X520000Y136089D01*
X521012Y136222D01*
X521956Y136613D01*
X522766Y137234D01*
X523387Y138044D01*
X523778Y138988D01*
X523911Y140000D01*
X523778Y141012D01*
X523387Y141956D01*
X522766Y142766D01*
X521956Y143387D01*
X521012Y143778D01*
X520000Y143911D01*
D02*
G37*
G36*
X510000D02*
X508988Y143778D01*
X508044Y143387D01*
X507234Y142766D01*
X506613Y141956D01*
X506222Y141012D01*
X506089Y140000D01*
X506222Y138988D01*
X506613Y138044D01*
X507234Y137234D01*
X508044Y136613D01*
X508988Y136222D01*
X510000Y136089D01*
X511012Y136222D01*
X511956Y136613D01*
X512766Y137234D01*
X513387Y138044D01*
X513778Y138988D01*
X513911Y140000D01*
X513778Y141012D01*
X513387Y141956D01*
X512766Y142766D01*
X511956Y143387D01*
X511012Y143778D01*
X510000Y143911D01*
D02*
G37*
G36*
X310000D02*
X308988Y143778D01*
X308044Y143387D01*
X307234Y142766D01*
X306613Y141956D01*
X306222Y141012D01*
X306089Y140000D01*
X306222Y138988D01*
X306613Y138044D01*
X307234Y137234D01*
X308044Y136613D01*
X308988Y136222D01*
X310000Y136089D01*
X311012Y136222D01*
X311956Y136613D01*
X312766Y137234D01*
X313387Y138044D01*
X313778Y138988D01*
X313911Y140000D01*
X313778Y141012D01*
X313387Y141956D01*
X312766Y142766D01*
X311956Y143387D01*
X311012Y143778D01*
X310000Y143911D01*
D02*
G37*
G36*
X270000D02*
X268988Y143778D01*
X268044Y143387D01*
X267234Y142766D01*
X266613Y141956D01*
X266222Y141012D01*
X266089Y140000D01*
X266222Y138988D01*
X266613Y138044D01*
X267234Y137234D01*
X268044Y136613D01*
X268988Y136222D01*
X270000Y136089D01*
X271012Y136222D01*
X271956Y136613D01*
X272766Y137234D01*
X273387Y138044D01*
X273778Y138988D01*
X273911Y140000D01*
X273778Y141012D01*
X273387Y141956D01*
X272766Y142766D01*
X271956Y143387D01*
X271012Y143778D01*
X270000Y143911D01*
D02*
G37*
G36*
X260000D02*
X258988Y143778D01*
X258044Y143387D01*
X257234Y142766D01*
X256613Y141956D01*
X256222Y141012D01*
X256089Y140000D01*
X256222Y138988D01*
X256613Y138044D01*
X257234Y137234D01*
X258044Y136613D01*
X258988Y136222D01*
X260000Y136089D01*
X261012Y136222D01*
X261956Y136613D01*
X262766Y137234D01*
X263387Y138044D01*
X263778Y138988D01*
X263911Y140000D01*
X263778Y141012D01*
X263387Y141956D01*
X262766Y142766D01*
X261956Y143387D01*
X261012Y143778D01*
X260000Y143911D01*
D02*
G37*
G36*
X290000D02*
X288988Y143778D01*
X288044Y143387D01*
X287234Y142766D01*
X286613Y141956D01*
X286222Y141012D01*
X286089Y140000D01*
X286222Y138988D01*
X286613Y138044D01*
X287234Y137234D01*
X288044Y136613D01*
X288988Y136222D01*
X290000Y136089D01*
X291012Y136222D01*
X291956Y136613D01*
X292766Y137234D01*
X293387Y138044D01*
X293778Y138988D01*
X293911Y140000D01*
X293778Y141012D01*
X293387Y141956D01*
X292766Y142766D01*
X291956Y143387D01*
X291012Y143778D01*
X290000Y143911D01*
D02*
G37*
G36*
X280000D02*
X278988Y143778D01*
X278044Y143387D01*
X277234Y142766D01*
X276613Y141956D01*
X276222Y141012D01*
X276089Y140000D01*
X276222Y138988D01*
X276613Y138044D01*
X277234Y137234D01*
X278044Y136613D01*
X278988Y136222D01*
X280000Y136089D01*
X281012Y136222D01*
X281956Y136613D01*
X282766Y137234D01*
X283387Y138044D01*
X283778Y138988D01*
X283911Y140000D01*
X283778Y141012D01*
X283387Y141956D01*
X282766Y142766D01*
X281956Y143387D01*
X281012Y143778D01*
X280000Y143911D01*
D02*
G37*
G36*
X553663Y129500D02*
X550500D01*
Y126337D01*
X550965Y126398D01*
X551864Y126771D01*
X552637Y127363D01*
X553229Y128136D01*
X553602Y129035D01*
X553663Y129500D01*
D02*
G37*
G36*
X549500D02*
X546337D01*
X546398Y129035D01*
X546771Y128136D01*
X547363Y127363D01*
X548136Y126771D01*
X549035Y126398D01*
X549500Y126337D01*
Y129500D01*
D02*
G37*
G36*
X563663D02*
X560500D01*
Y126337D01*
X560965Y126398D01*
X561864Y126771D01*
X562637Y127363D01*
X563229Y128136D01*
X563602Y129035D01*
X563663Y129500D01*
D02*
G37*
G36*
X559500D02*
X556337D01*
X556398Y129035D01*
X556771Y128136D01*
X557363Y127363D01*
X558136Y126771D01*
X559035Y126398D01*
X559500Y126337D01*
Y129500D01*
D02*
G37*
G36*
X502697Y133901D02*
X497303D01*
X496842Y133809D01*
X496452Y133548D01*
X496191Y133158D01*
X496099Y132697D01*
Y127303D01*
X496191Y126842D01*
X496452Y126452D01*
X496842Y126191D01*
X497303Y126099D01*
X502697D01*
X503158Y126191D01*
X503548Y126452D01*
X503809Y126842D01*
X503901Y127303D01*
Y132697D01*
X503809Y133158D01*
X503548Y133548D01*
X503158Y133809D01*
X502697Y133901D01*
D02*
G37*
G36*
X520000Y133911D02*
X518988Y133778D01*
X518044Y133387D01*
X517234Y132766D01*
X516613Y131956D01*
X516222Y131012D01*
X516089Y130000D01*
X516222Y128988D01*
X516613Y128044D01*
X517234Y127234D01*
X518044Y126613D01*
X518988Y126222D01*
X520000Y126089D01*
X521012Y126222D01*
X521956Y126613D01*
X522766Y127234D01*
X523387Y128044D01*
X523778Y128988D01*
X523911Y130000D01*
X523778Y131012D01*
X523387Y131956D01*
X522766Y132766D01*
X521956Y133387D01*
X521012Y133778D01*
X520000Y133911D01*
D02*
G37*
G36*
X510000D02*
X508988Y133778D01*
X508044Y133387D01*
X507234Y132766D01*
X506613Y131956D01*
X506222Y131012D01*
X506089Y130000D01*
X506222Y128988D01*
X506613Y128044D01*
X507234Y127234D01*
X508044Y126613D01*
X508988Y126222D01*
X510000Y126089D01*
X511012Y126222D01*
X511956Y126613D01*
X512766Y127234D01*
X513387Y128044D01*
X513778Y128988D01*
X513911Y130000D01*
X513778Y131012D01*
X513387Y131956D01*
X512766Y132766D01*
X511956Y133387D01*
X511012Y133778D01*
X510000Y133911D01*
D02*
G37*
G36*
X540000D02*
X538988Y133778D01*
X538044Y133387D01*
X537234Y132766D01*
X536613Y131956D01*
X536222Y131012D01*
X536089Y130000D01*
X536222Y128988D01*
X536613Y128044D01*
X537234Y127234D01*
X538044Y126613D01*
X538988Y126222D01*
X540000Y126089D01*
X541012Y126222D01*
X541956Y126613D01*
X542766Y127234D01*
X543387Y128044D01*
X543778Y128988D01*
X543911Y130000D01*
X543778Y131012D01*
X543387Y131956D01*
X542766Y132766D01*
X541956Y133387D01*
X541012Y133778D01*
X540000Y133911D01*
D02*
G37*
G36*
X530000D02*
X528988Y133778D01*
X528044Y133387D01*
X527234Y132766D01*
X526613Y131956D01*
X526222Y131012D01*
X526089Y130000D01*
X526222Y128988D01*
X526613Y128044D01*
X527234Y127234D01*
X528044Y126613D01*
X528988Y126222D01*
X530000Y126089D01*
X531012Y126222D01*
X531956Y126613D01*
X532766Y127234D01*
X533387Y128044D01*
X533778Y128988D01*
X533911Y130000D01*
X533778Y131012D01*
X533387Y131956D01*
X532766Y132766D01*
X531956Y133387D01*
X531012Y133778D01*
X530000Y133911D01*
D02*
G37*
G36*
X569500Y133663D02*
X569035Y133602D01*
X568136Y133229D01*
X567363Y132637D01*
X566771Y131864D01*
X566398Y130965D01*
X566337Y130500D01*
X569500D01*
Y133663D01*
D02*
G37*
G36*
X593663Y129500D02*
X590500D01*
Y126337D01*
X590965Y126398D01*
X591864Y126771D01*
X592637Y127363D01*
X593229Y128136D01*
X593602Y129035D01*
X593663Y129500D01*
D02*
G37*
G36*
X579500Y133663D02*
X579035Y133602D01*
X578136Y133229D01*
X577363Y132637D01*
X576771Y131864D01*
X576398Y130965D01*
X576337Y130500D01*
X579500D01*
Y133663D01*
D02*
G37*
G36*
X570500D02*
Y130500D01*
X573663D01*
X573602Y130965D01*
X573229Y131864D01*
X572637Y132637D01*
X571864Y133229D01*
X570965Y133602D01*
X570500Y133663D01*
D02*
G37*
G36*
X589500Y129500D02*
X586337D01*
X586398Y129035D01*
X586771Y128136D01*
X587363Y127363D01*
X588136Y126771D01*
X589035Y126398D01*
X589500Y126337D01*
Y129500D01*
D02*
G37*
G36*
X573663D02*
X570500D01*
Y126337D01*
X570965Y126398D01*
X571864Y126771D01*
X572637Y127363D01*
X573229Y128136D01*
X573602Y129035D01*
X573663Y129500D01*
D02*
G37*
G36*
X569500D02*
X566337D01*
X566398Y129035D01*
X566771Y128136D01*
X567363Y127363D01*
X568136Y126771D01*
X569035Y126398D01*
X569500Y126337D01*
Y129500D01*
D02*
G37*
G36*
X583663D02*
X580500D01*
Y126337D01*
X580965Y126398D01*
X581864Y126771D01*
X582637Y127363D01*
X583229Y128136D01*
X583602Y129035D01*
X583663Y129500D01*
D02*
G37*
G36*
X579500D02*
X576337D01*
X576398Y129035D01*
X576771Y128136D01*
X577363Y127363D01*
X578136Y126771D01*
X579035Y126398D01*
X579500Y126337D01*
Y129500D01*
D02*
G37*
G36*
X530000Y143911D02*
X528988Y143778D01*
X528044Y143387D01*
X527234Y142766D01*
X526613Y141956D01*
X526222Y141012D01*
X526089Y140000D01*
X526222Y138988D01*
X526613Y138044D01*
X527234Y137234D01*
X528044Y136613D01*
X528988Y136222D01*
X530000Y136089D01*
X531012Y136222D01*
X531956Y136613D01*
X532766Y137234D01*
X533387Y138044D01*
X533778Y138988D01*
X533911Y140000D01*
X533778Y141012D01*
X533387Y141956D01*
X532766Y142766D01*
X531956Y143387D01*
X531012Y143778D01*
X530000Y143911D01*
D02*
G37*
G36*
X230500Y153663D02*
Y150500D01*
X233663D01*
X233602Y150965D01*
X233229Y151864D01*
X232637Y152637D01*
X231864Y153229D01*
X230965Y153602D01*
X230500Y153663D01*
D02*
G37*
G36*
X229500D02*
X229035Y153602D01*
X228136Y153229D01*
X227363Y152637D01*
X226771Y151864D01*
X226398Y150965D01*
X226337Y150500D01*
X229500D01*
Y153663D01*
D02*
G37*
G36*
X640000Y193911D02*
X638988Y193778D01*
X638044Y193387D01*
X637234Y192766D01*
X636613Y191956D01*
X636222Y191012D01*
X636089Y190000D01*
X636222Y188988D01*
X636613Y188044D01*
X637234Y187234D01*
X638044Y186613D01*
X638988Y186222D01*
X640000Y186089D01*
X641012Y186222D01*
X641956Y186613D01*
X642766Y187234D01*
X643387Y188044D01*
X643778Y188988D01*
X643911Y190000D01*
X643778Y191012D01*
X643387Y191956D01*
X642766Y192766D01*
X641956Y193387D01*
X641012Y193778D01*
X640000Y193911D01*
D02*
G37*
G36*
X580000Y184974D02*
X578713Y184804D01*
X577513Y184307D01*
X576483Y183517D01*
X575693Y182487D01*
X575266Y181457D01*
X574734D01*
X574307Y182487D01*
X573517Y183517D01*
X572487Y184307D01*
X571287Y184804D01*
X570000Y184974D01*
X568713Y184804D01*
X567513Y184307D01*
X566483Y183517D01*
X565693Y182487D01*
X565266Y181457D01*
X564734D01*
X564307Y182487D01*
X563517Y183517D01*
X562487Y184307D01*
X561287Y184804D01*
X560000Y184974D01*
X558713Y184804D01*
X557513Y184307D01*
X556483Y183517D01*
X555693Y182487D01*
X555266Y181457D01*
X554734D01*
X554307Y182487D01*
X553517Y183517D01*
X552487Y184307D01*
X551287Y184804D01*
X550000Y184974D01*
X548713Y184804D01*
X547513Y184307D01*
X546483Y183517D01*
X545693Y182487D01*
X545266Y181457D01*
X544734D01*
X544307Y182487D01*
X543517Y183517D01*
X542487Y184307D01*
X541287Y184804D01*
X540000Y184974D01*
X538713Y184804D01*
X537513Y184307D01*
X536483Y183517D01*
X535693Y182487D01*
X535196Y181287D01*
X535026Y180000D01*
X535196Y178713D01*
X535693Y177513D01*
X536483Y176483D01*
X537513Y175693D01*
X538713Y175196D01*
X540000Y175026D01*
X541287Y175196D01*
X542487Y175693D01*
X543517Y176483D01*
X544307Y177513D01*
X544734Y178543D01*
X545266D01*
X545693Y177513D01*
X546483Y176483D01*
X547513Y175693D01*
X548713Y175196D01*
X550000Y175026D01*
X551287Y175196D01*
X552487Y175693D01*
X553517Y176483D01*
X554307Y177513D01*
X554734Y178543D01*
X555266D01*
X555693Y177513D01*
X556483Y176483D01*
X557513Y175693D01*
X558713Y175196D01*
X560000Y175026D01*
X561287Y175196D01*
X562487Y175693D01*
X563517Y176483D01*
X564307Y177513D01*
X564734Y178543D01*
X565266D01*
X565693Y177513D01*
X566483Y176483D01*
X567513Y175693D01*
X568713Y175196D01*
X570000Y175026D01*
X571287Y175196D01*
X572487Y175693D01*
X573517Y176483D01*
X574307Y177513D01*
X574734Y178543D01*
X575266D01*
X575693Y177513D01*
X576483Y176483D01*
X577513Y175693D01*
X578713Y175196D01*
X580000Y175026D01*
X581287Y175196D01*
X582487Y175693D01*
X583517Y176483D01*
X584307Y177513D01*
X584804Y178713D01*
X584974Y180000D01*
X584804Y181287D01*
X584307Y182487D01*
X583517Y183517D01*
X582487Y184307D01*
X581287Y184804D01*
X580000Y184974D01*
D02*
G37*
G36*
X233663Y149500D02*
X230500D01*
Y146337D01*
X230965Y146398D01*
X231864Y146771D01*
X232637Y147363D01*
X233229Y148136D01*
X233602Y149035D01*
X233663Y149500D01*
D02*
G37*
G36*
X280000Y153911D02*
X278988Y153778D01*
X278044Y153387D01*
X277234Y152766D01*
X276613Y151956D01*
X276222Y151012D01*
X276089Y150000D01*
X276222Y148988D01*
X276613Y148044D01*
X277234Y147234D01*
X278044Y146613D01*
X278988Y146222D01*
X280000Y146089D01*
X281012Y146222D01*
X281956Y146613D01*
X282766Y147234D01*
X283387Y148044D01*
X283778Y148988D01*
X283911Y150000D01*
X283778Y151012D01*
X283387Y151956D01*
X282766Y152766D01*
X281956Y153387D01*
X281012Y153778D01*
X280000Y153911D01*
D02*
G37*
G36*
X270000D02*
X268988Y153778D01*
X268044Y153387D01*
X267234Y152766D01*
X266613Y151956D01*
X266222Y151012D01*
X266089Y150000D01*
X266222Y148988D01*
X266613Y148044D01*
X267234Y147234D01*
X268044Y146613D01*
X268988Y146222D01*
X270000Y146089D01*
X271012Y146222D01*
X271956Y146613D01*
X272766Y147234D01*
X273387Y148044D01*
X273778Y148988D01*
X273911Y150000D01*
X273778Y151012D01*
X273387Y151956D01*
X272766Y152766D01*
X271956Y153387D01*
X271012Y153778D01*
X270000Y153911D01*
D02*
G37*
G36*
X229500Y149500D02*
X226337D01*
X226398Y149035D01*
X226771Y148136D01*
X227363Y147363D01*
X228136Y146771D01*
X229035Y146398D01*
X229500Y146337D01*
Y149500D01*
D02*
G37*
G36*
X322697Y153901D02*
X317303D01*
X316842Y153809D01*
X316452Y153548D01*
X316191Y153158D01*
X316099Y152697D01*
Y147303D01*
X316191Y146842D01*
X316452Y146452D01*
X316842Y146191D01*
X317303Y146099D01*
X322697D01*
X323158Y146191D01*
X323548Y146452D01*
X323809Y146842D01*
X323901Y147303D01*
Y152697D01*
X323809Y153158D01*
X323548Y153548D01*
X323158Y153809D01*
X322697Y153901D01*
D02*
G37*
G36*
X300697Y197025D02*
Y194398D01*
X303324D01*
X303281Y194724D01*
X302962Y195494D01*
X302454Y196155D01*
X301793Y196663D01*
X301023Y196982D01*
X300697Y197025D01*
D02*
G37*
G36*
X299697D02*
X299371Y196982D01*
X298601Y196663D01*
X297939Y196155D01*
X297432Y195494D01*
X297113Y194724D01*
X297070Y194398D01*
X299697D01*
Y197025D01*
D02*
G37*
G36*
X650000Y203911D02*
X648988Y203778D01*
X648044Y203387D01*
X647234Y202766D01*
X646613Y201956D01*
X646222Y201012D01*
X646089Y200000D01*
X646222Y198988D01*
X646613Y198044D01*
X647234Y197234D01*
X648044Y196613D01*
X648988Y196222D01*
X650000Y196089D01*
X651012Y196222D01*
X651956Y196613D01*
X652766Y197234D01*
X653387Y198044D01*
X653778Y198988D01*
X653911Y200000D01*
X653778Y201012D01*
X653387Y201956D01*
X652766Y202766D01*
X651956Y203387D01*
X651012Y203778D01*
X650000Y203911D01*
D02*
G37*
G36*
X640000D02*
X638988Y203778D01*
X638044Y203387D01*
X637234Y202766D01*
X636613Y201956D01*
X636222Y201012D01*
X636089Y200000D01*
X636222Y198988D01*
X636613Y198044D01*
X637234Y197234D01*
X638044Y196613D01*
X638988Y196222D01*
X640000Y196089D01*
X641012Y196222D01*
X641956Y196613D01*
X642766Y197234D01*
X643387Y198044D01*
X643778Y198988D01*
X643911Y200000D01*
X643778Y201012D01*
X643387Y201956D01*
X642766Y202766D01*
X641956Y203387D01*
X641012Y203778D01*
X640000Y203911D01*
D02*
G37*
G36*
X370079Y199264D02*
X369118Y199137D01*
X368222Y198767D01*
X367453Y198177D01*
X366863Y197408D01*
X366492Y196512D01*
X366366Y195551D01*
X366492Y194590D01*
X366863Y193695D01*
X367453Y192926D01*
X368222Y192336D01*
X369118Y191965D01*
X370079Y191838D01*
X371040Y191965D01*
X371935Y192336D01*
X372704Y192926D01*
X373294Y193695D01*
X373665Y194590D01*
X373792Y195551D01*
X373665Y196512D01*
X373294Y197408D01*
X372704Y198177D01*
X371935Y198767D01*
X371040Y199137D01*
X370079Y199264D01*
D02*
G37*
G36*
X660000Y193911D02*
X658988Y193778D01*
X658044Y193387D01*
X657234Y192766D01*
X656613Y191956D01*
X656222Y191012D01*
X656089Y190000D01*
X656222Y188988D01*
X656613Y188044D01*
X657234Y187234D01*
X658044Y186613D01*
X658988Y186222D01*
X660000Y186089D01*
X661012Y186222D01*
X661956Y186613D01*
X662766Y187234D01*
X663387Y188044D01*
X663778Y188988D01*
X663911Y190000D01*
X663778Y191012D01*
X663387Y191956D01*
X662766Y192766D01*
X661956Y193387D01*
X661012Y193778D01*
X660000Y193911D01*
D02*
G37*
G36*
X650000D02*
X648988Y193778D01*
X648044Y193387D01*
X647234Y192766D01*
X646613Y191956D01*
X646222Y191012D01*
X646089Y190000D01*
X646222Y188988D01*
X646613Y188044D01*
X647234Y187234D01*
X648044Y186613D01*
X648988Y186222D01*
X650000Y186089D01*
X651012Y186222D01*
X651956Y186613D01*
X652766Y187234D01*
X653387Y188044D01*
X653778Y188988D01*
X653911Y190000D01*
X653778Y191012D01*
X653387Y191956D01*
X652766Y192766D01*
X651956Y193387D01*
X651012Y193778D01*
X650000Y193911D01*
D02*
G37*
G36*
X299697Y193398D02*
X297070D01*
X297113Y193071D01*
X297432Y192301D01*
X297939Y191640D01*
X298601Y191133D01*
X299371Y190814D01*
X299697Y190771D01*
Y193398D01*
D02*
G37*
G36*
X303324D02*
X300697D01*
Y190771D01*
X301023Y190814D01*
X301793Y191133D01*
X302454Y191640D01*
X302962Y192301D01*
X303281Y193071D01*
X303324Y193398D01*
D02*
G37*
G36*
X388437Y142128D02*
X387972Y142066D01*
X387073Y141694D01*
X386300Y141101D01*
X385708Y140329D01*
X385335Y139430D01*
X385274Y138965D01*
X388437D01*
Y142128D01*
D02*
G37*
G36*
X243663Y139500D02*
X240500D01*
Y136337D01*
X240965Y136398D01*
X241864Y136771D01*
X242637Y137363D01*
X243229Y138136D01*
X243602Y139035D01*
X243663Y139500D01*
D02*
G37*
G36*
X229500Y143663D02*
X229035Y143602D01*
X228136Y143229D01*
X227363Y142637D01*
X226771Y141864D01*
X226398Y140965D01*
X226337Y140500D01*
X229500D01*
Y143663D01*
D02*
G37*
G36*
X389437Y142128D02*
Y138965D01*
X392600D01*
X392539Y139430D01*
X392166Y140329D01*
X391574Y141101D01*
X390801Y141694D01*
X389902Y142066D01*
X389437Y142128D01*
D02*
G37*
G36*
X233663Y139500D02*
X230500D01*
Y136337D01*
X230965Y136398D01*
X231864Y136771D01*
X232637Y137363D01*
X233229Y138136D01*
X233602Y139035D01*
X233663Y139500D01*
D02*
G37*
G36*
X590000Y143911D02*
X588988Y143778D01*
X588044Y143387D01*
X587234Y142766D01*
X586613Y141956D01*
X586222Y141012D01*
X586089Y140000D01*
X586222Y138988D01*
X586613Y138044D01*
X587234Y137234D01*
X588044Y136613D01*
X588988Y136222D01*
X590000Y136089D01*
X591012Y136222D01*
X591956Y136613D01*
X592766Y137234D01*
X593387Y138044D01*
X593778Y138988D01*
X593911Y140000D01*
X593778Y141012D01*
X593387Y141956D01*
X592766Y142766D01*
X591956Y143387D01*
X591012Y143778D01*
X590000Y143911D01*
D02*
G37*
G36*
X580000D02*
X578988Y143778D01*
X578044Y143387D01*
X577234Y142766D01*
X576613Y141956D01*
X576222Y141012D01*
X576089Y140000D01*
X576222Y138988D01*
X576613Y138044D01*
X577234Y137234D01*
X578044Y136613D01*
X578988Y136222D01*
X580000Y136089D01*
X581012Y136222D01*
X581956Y136613D01*
X582766Y137234D01*
X583387Y138044D01*
X583778Y138988D01*
X583911Y140000D01*
X583778Y141012D01*
X583387Y141956D01*
X582766Y142766D01*
X581956Y143387D01*
X581012Y143778D01*
X580000Y143911D01*
D02*
G37*
G36*
X239500Y139500D02*
X236337D01*
X236398Y139035D01*
X236771Y138136D01*
X237363Y137363D01*
X238136Y136771D01*
X239035Y136398D01*
X239500Y136337D01*
Y139500D01*
D02*
G37*
G36*
X229500D02*
X226337D01*
X226398Y139035D01*
X226771Y138136D01*
X227363Y137363D01*
X228136Y136771D01*
X229035Y136398D01*
X229500Y136337D01*
Y139500D01*
D02*
G37*
G36*
X240000Y153911D02*
X238988Y153778D01*
X238044Y153387D01*
X237234Y152766D01*
X236613Y151956D01*
X236222Y151012D01*
X236089Y150000D01*
X236222Y148988D01*
X236613Y148044D01*
X237234Y147234D01*
X238044Y146613D01*
X238988Y146222D01*
X240000Y146089D01*
X241012Y146222D01*
X241956Y146613D01*
X242766Y147234D01*
X243387Y148044D01*
X243778Y148988D01*
X243911Y150000D01*
X243778Y151012D01*
X243387Y151956D01*
X242766Y152766D01*
X241956Y153387D01*
X241012Y153778D01*
X240000Y153911D01*
D02*
G37*
G36*
X388937Y152376D02*
X387925Y152243D01*
X386981Y151852D01*
X386171Y151230D01*
X385550Y150420D01*
X385159Y149477D01*
X385026Y148465D01*
X385159Y147452D01*
X385550Y146509D01*
X386171Y145699D01*
X386981Y145077D01*
X387925Y144686D01*
X388937Y144553D01*
X389949Y144686D01*
X390893Y145077D01*
X391703Y145699D01*
X392324Y146509D01*
X392715Y147452D01*
X392848Y148465D01*
X392715Y149477D01*
X392324Y150420D01*
X391703Y151230D01*
X390893Y151852D01*
X389949Y152243D01*
X388937Y152376D01*
D02*
G37*
G36*
X260000Y153911D02*
X258988Y153778D01*
X258044Y153387D01*
X257234Y152766D01*
X256613Y151956D01*
X256222Y151012D01*
X256089Y150000D01*
X256222Y148988D01*
X256613Y148044D01*
X257234Y147234D01*
X258044Y146613D01*
X258988Y146222D01*
X260000Y146089D01*
X261012Y146222D01*
X261956Y146613D01*
X262766Y147234D01*
X263387Y148044D01*
X263778Y148988D01*
X263911Y150000D01*
X263778Y151012D01*
X263387Y151956D01*
X262766Y152766D01*
X261956Y153387D01*
X261012Y153778D01*
X260000Y153911D01*
D02*
G37*
G36*
X250000D02*
X248988Y153778D01*
X248044Y153387D01*
X247234Y152766D01*
X246613Y151956D01*
X246222Y151012D01*
X246089Y150000D01*
X246222Y148988D01*
X246613Y148044D01*
X247234Y147234D01*
X248044Y146613D01*
X248988Y146222D01*
X250000Y146089D01*
X251012Y146222D01*
X251956Y146613D01*
X252766Y147234D01*
X253387Y148044D01*
X253778Y148988D01*
X253911Y150000D01*
X253778Y151012D01*
X253387Y151956D01*
X252766Y152766D01*
X251956Y153387D01*
X251012Y153778D01*
X250000Y153911D01*
D02*
G37*
G36*
X438150Y151392D02*
X437137Y151258D01*
X436194Y150868D01*
X435384Y150246D01*
X434762Y149436D01*
X434372Y148493D01*
X434238Y147480D01*
X434372Y146468D01*
X434762Y145525D01*
X435384Y144714D01*
X436194Y144093D01*
X437137Y143702D01*
X438150Y143569D01*
X439162Y143702D01*
X440105Y144093D01*
X440915Y144714D01*
X441537Y145525D01*
X441928Y146468D01*
X442061Y147480D01*
X441928Y148493D01*
X441537Y149436D01*
X440915Y150246D01*
X440105Y150868D01*
X439162Y151258D01*
X438150Y151392D01*
D02*
G37*
G36*
X230500Y143663D02*
Y140500D01*
X233663D01*
X233602Y140965D01*
X233229Y141864D01*
X232637Y142637D01*
X231864Y143229D01*
X230965Y143602D01*
X230500Y143663D01*
D02*
G37*
G36*
X239500D02*
X239035Y143602D01*
X238136Y143229D01*
X237363Y142637D01*
X236771Y141864D01*
X236398Y140965D01*
X236337Y140500D01*
X239500D01*
Y143663D01*
D02*
G37*
G36*
X428150Y151392D02*
X427137Y151258D01*
X426194Y150868D01*
X425384Y150246D01*
X424762Y149436D01*
X424371Y148493D01*
X424238Y147480D01*
X424371Y146468D01*
X424762Y145525D01*
X425384Y144714D01*
X426194Y144093D01*
X427137Y143702D01*
X428150Y143569D01*
X429162Y143702D01*
X430105Y144093D01*
X430915Y144714D01*
X431537Y145525D01*
X431928Y146468D01*
X432061Y147480D01*
X431928Y148493D01*
X431537Y149436D01*
X430915Y150246D01*
X430105Y150868D01*
X429162Y151258D01*
X428150Y151392D01*
D02*
G37*
G36*
X240500Y143663D02*
Y140500D01*
X243663D01*
X243602Y140965D01*
X243229Y141864D01*
X242637Y142637D01*
X241864Y143229D01*
X240965Y143602D01*
X240500Y143663D01*
D02*
G37*
G36*
X529500Y308722D02*
X529019Y308659D01*
X528106Y308281D01*
X527321Y307679D01*
X526719Y306894D01*
X526341Y305980D01*
X526277Y305500D01*
X529500D01*
Y308722D01*
D02*
G37*
G36*
X450000Y414217D02*
X448909Y414074D01*
X447891Y413652D01*
X447018Y412982D01*
X446348Y412109D01*
X445927Y411092D01*
X445783Y410000D01*
X445927Y408909D01*
X446348Y407891D01*
X447018Y407018D01*
X447891Y406348D01*
X448909Y405927D01*
X450000Y405783D01*
X451091Y405927D01*
X452109Y406348D01*
X452982Y407018D01*
X453652Y407891D01*
X454073Y408909D01*
X454217Y410000D01*
X454073Y411092D01*
X453652Y412109D01*
X452982Y412982D01*
X452109Y413652D01*
X451091Y414074D01*
X450000Y414217D01*
D02*
G37*
G36*
X440000D02*
X438908Y414074D01*
X437891Y413652D01*
X437018Y412982D01*
X436348Y412109D01*
X435926Y411092D01*
X435783Y410000D01*
X435926Y408909D01*
X436348Y407891D01*
X437018Y407018D01*
X437891Y406348D01*
X438908Y405927D01*
X440000Y405783D01*
X441091Y405927D01*
X442109Y406348D01*
X442982Y407018D01*
X443652Y407891D01*
X444073Y408909D01*
X444217Y410000D01*
X444073Y411092D01*
X443652Y412109D01*
X442982Y412982D01*
X442109Y413652D01*
X441091Y414074D01*
X440000Y414217D01*
D02*
G37*
G36*
X259500Y409500D02*
X256031D01*
X256103Y408956D01*
X256506Y407983D01*
X257147Y407147D01*
X257983Y406506D01*
X258956Y406103D01*
X259500Y406031D01*
Y409500D01*
D02*
G37*
G36*
X460000Y414217D02*
X458909Y414074D01*
X457891Y413652D01*
X457018Y412982D01*
X456348Y412109D01*
X455927Y411092D01*
X455783Y410000D01*
X455927Y408909D01*
X456348Y407891D01*
X457018Y407018D01*
X457891Y406348D01*
X458909Y405927D01*
X460000Y405783D01*
X461092Y405927D01*
X462109Y406348D01*
X462982Y407018D01*
X463652Y407891D01*
X464074Y408909D01*
X464217Y410000D01*
X464074Y411092D01*
X463652Y412109D01*
X462982Y412982D01*
X462109Y413652D01*
X461092Y414074D01*
X460000Y414217D01*
D02*
G37*
G36*
X430000D02*
X428908Y414074D01*
X427891Y413652D01*
X427018Y412982D01*
X426348Y412109D01*
X425926Y411092D01*
X425783Y410000D01*
X425926Y408909D01*
X426348Y407891D01*
X427018Y407018D01*
X427891Y406348D01*
X428908Y405927D01*
X430000Y405783D01*
X431091Y405927D01*
X432109Y406348D01*
X432982Y407018D01*
X433652Y407891D01*
X434073Y408909D01*
X434217Y410000D01*
X434073Y411092D01*
X433652Y412109D01*
X432982Y412982D01*
X432109Y413652D01*
X431091Y414074D01*
X430000Y414217D01*
D02*
G37*
G36*
X400000D02*
X398908Y414074D01*
X397891Y413652D01*
X397018Y412982D01*
X396348Y412109D01*
X395926Y411092D01*
X395783Y410000D01*
X395926Y408909D01*
X396348Y407891D01*
X397018Y407018D01*
X397891Y406348D01*
X398908Y405927D01*
X400000Y405783D01*
X401091Y405927D01*
X402109Y406348D01*
X402982Y407018D01*
X403652Y407891D01*
X404073Y408909D01*
X404217Y410000D01*
X404073Y411092D01*
X403652Y412109D01*
X402982Y412982D01*
X402109Y413652D01*
X401091Y414074D01*
X400000Y414217D01*
D02*
G37*
G36*
X390000D02*
X388909Y414074D01*
X387891Y413652D01*
X387018Y412982D01*
X386348Y412109D01*
X385927Y411092D01*
X385783Y410000D01*
X385927Y408909D01*
X386348Y407891D01*
X387018Y407018D01*
X387891Y406348D01*
X388909Y405927D01*
X390000Y405783D01*
X391091Y405927D01*
X392109Y406348D01*
X392982Y407018D01*
X393652Y407891D01*
X394074Y408909D01*
X394217Y410000D01*
X394074Y411092D01*
X393652Y412109D01*
X392982Y412982D01*
X392109Y413652D01*
X391091Y414074D01*
X390000Y414217D01*
D02*
G37*
G36*
X420000D02*
X418909Y414074D01*
X417891Y413652D01*
X417018Y412982D01*
X416348Y412109D01*
X415927Y411092D01*
X415783Y410000D01*
X415927Y408909D01*
X416348Y407891D01*
X417018Y407018D01*
X417891Y406348D01*
X418909Y405927D01*
X420000Y405783D01*
X421092Y405927D01*
X422109Y406348D01*
X422982Y407018D01*
X423652Y407891D01*
X424074Y408909D01*
X424217Y410000D01*
X424074Y411092D01*
X423652Y412109D01*
X422982Y412982D01*
X422109Y413652D01*
X421092Y414074D01*
X420000Y414217D01*
D02*
G37*
G36*
X410000D02*
X408909Y414074D01*
X407891Y413652D01*
X407018Y412982D01*
X406348Y412109D01*
X405927Y411092D01*
X405783Y410000D01*
X405927Y408909D01*
X406348Y407891D01*
X407018Y407018D01*
X407891Y406348D01*
X408909Y405927D01*
X410000Y405783D01*
X411092Y405927D01*
X412109Y406348D01*
X412982Y407018D01*
X413652Y407891D01*
X414074Y408909D01*
X414217Y410000D01*
X414074Y411092D01*
X413652Y412109D01*
X412982Y412982D01*
X412109Y413652D01*
X411092Y414074D01*
X410000Y414217D01*
D02*
G37*
G36*
X260500Y413969D02*
Y410500D01*
X263969D01*
X263897Y411044D01*
X263494Y412017D01*
X262853Y412853D01*
X262017Y413494D01*
X261044Y413897D01*
X260500Y413969D01*
D02*
G37*
G36*
X259500D02*
X258956Y413897D01*
X257983Y413494D01*
X257147Y412853D01*
X256506Y412017D01*
X256103Y411044D01*
X256031Y410500D01*
X259500D01*
Y413969D01*
D02*
G37*
G36*
X270500D02*
Y410500D01*
X273969D01*
X273897Y411044D01*
X273494Y412017D01*
X272853Y412853D01*
X272017Y413494D01*
X271044Y413897D01*
X270500Y413969D01*
D02*
G37*
G36*
X269500D02*
X268956Y413897D01*
X267983Y413494D01*
X267147Y412853D01*
X266506Y412017D01*
X266103Y411044D01*
X266031Y410500D01*
X269500D01*
Y413969D01*
D02*
G37*
G36*
X505942Y409500D02*
X503315D01*
Y406873D01*
X503641Y406916D01*
X504411Y407235D01*
X505072Y407743D01*
X505580Y408404D01*
X505899Y409174D01*
X505942Y409500D01*
D02*
G37*
G36*
X269500D02*
X266031D01*
X266103Y408956D01*
X266506Y407983D01*
X267147Y407147D01*
X267983Y406506D01*
X268956Y406103D01*
X269500Y406031D01*
Y409500D01*
D02*
G37*
G36*
X263969D02*
X260500D01*
Y406031D01*
X261044Y406103D01*
X262017Y406506D01*
X262853Y407147D01*
X263494Y407983D01*
X263897Y408956D01*
X263969Y409500D01*
D02*
G37*
G36*
X524665Y413370D02*
X520335D01*
X519874Y413278D01*
X519483Y413017D01*
X519222Y412626D01*
X519130Y412165D01*
Y407835D01*
X519222Y407374D01*
X519483Y406983D01*
X519874Y406722D01*
X520335Y406630D01*
X524665D01*
X525126Y406722D01*
X525517Y406983D01*
X525778Y407374D01*
X525870Y407835D01*
Y412165D01*
X525778Y412626D01*
X525517Y413017D01*
X525126Y413278D01*
X524665Y413370D01*
D02*
G37*
G36*
X273969Y409500D02*
X270500D01*
Y406031D01*
X271044Y406103D01*
X272017Y406506D01*
X272853Y407147D01*
X273494Y407983D01*
X273897Y408956D01*
X273969Y409500D01*
D02*
G37*
G36*
X370000Y414217D02*
X368909Y414074D01*
X367891Y413652D01*
X367018Y412982D01*
X366348Y412109D01*
X365927Y411092D01*
X365783Y410000D01*
X365927Y408909D01*
X366348Y407891D01*
X367018Y407018D01*
X367891Y406348D01*
X368909Y405927D01*
X370000Y405783D01*
X371092Y405927D01*
X372109Y406348D01*
X372982Y407018D01*
X373652Y407891D01*
X374074Y408909D01*
X374217Y410000D01*
X374074Y411092D01*
X373652Y412109D01*
X372982Y412982D01*
X372109Y413652D01*
X371092Y414074D01*
X370000Y414217D01*
D02*
G37*
G36*
X220000D02*
X218909Y414074D01*
X217891Y413652D01*
X217018Y412982D01*
X216348Y412109D01*
X215927Y411092D01*
X215783Y410000D01*
X215927Y408909D01*
X216348Y407891D01*
X217018Y407018D01*
X217891Y406348D01*
X218909Y405927D01*
X220000Y405783D01*
X221092Y405927D01*
X222109Y406348D01*
X222982Y407018D01*
X223652Y407891D01*
X224074Y408909D01*
X224217Y410000D01*
X224074Y411092D01*
X223652Y412109D01*
X222982Y412982D01*
X222109Y413652D01*
X221092Y414074D01*
X220000Y414217D01*
D02*
G37*
G36*
X210000D02*
X208909Y414074D01*
X207891Y413652D01*
X207018Y412982D01*
X206348Y412109D01*
X205926Y411092D01*
X205783Y410000D01*
X205926Y408909D01*
X206348Y407891D01*
X207018Y407018D01*
X207891Y406348D01*
X208909Y405927D01*
X210000Y405783D01*
X211091Y405927D01*
X212109Y406348D01*
X212982Y407018D01*
X213652Y407891D01*
X214073Y408909D01*
X214217Y410000D01*
X214073Y411092D01*
X213652Y412109D01*
X212982Y412982D01*
X212109Y413652D01*
X211091Y414074D01*
X210000Y414217D01*
D02*
G37*
G36*
X240000D02*
X238909Y414074D01*
X237891Y413652D01*
X237018Y412982D01*
X236348Y412109D01*
X235927Y411092D01*
X235783Y410000D01*
X235927Y408909D01*
X236348Y407891D01*
X237018Y407018D01*
X237891Y406348D01*
X238909Y405927D01*
X240000Y405783D01*
X241091Y405927D01*
X242109Y406348D01*
X242982Y407018D01*
X243652Y407891D01*
X244074Y408909D01*
X244217Y410000D01*
X244074Y411092D01*
X243652Y412109D01*
X242982Y412982D01*
X242109Y413652D01*
X241091Y414074D01*
X240000Y414217D01*
D02*
G37*
G36*
X230000D02*
X228908Y414074D01*
X227891Y413652D01*
X227018Y412982D01*
X226348Y412109D01*
X225926Y411092D01*
X225783Y410000D01*
X225926Y408909D01*
X226348Y407891D01*
X227018Y407018D01*
X227891Y406348D01*
X228908Y405927D01*
X230000Y405783D01*
X231091Y405927D01*
X232109Y406348D01*
X232982Y407018D01*
X233652Y407891D01*
X234073Y408909D01*
X234217Y410000D01*
X234073Y411092D01*
X233652Y412109D01*
X232982Y412982D01*
X232109Y413652D01*
X231091Y414074D01*
X230000Y414217D01*
D02*
G37*
G36*
X560500Y403663D02*
Y400500D01*
X563663D01*
X563602Y400965D01*
X563229Y401864D01*
X562637Y402637D01*
X561864Y403229D01*
X560965Y403602D01*
X560500Y403663D01*
D02*
G37*
G36*
X559500Y399500D02*
X556337D01*
X556398Y399035D01*
X556771Y398136D01*
X557363Y397363D01*
X558136Y396771D01*
X559035Y396398D01*
X559500Y396337D01*
Y399500D01*
D02*
G37*
G36*
X652697Y403901D02*
X647303D01*
X646842Y403809D01*
X646452Y403548D01*
X646191Y403158D01*
X646099Y402697D01*
Y397303D01*
X646191Y396842D01*
X646452Y396452D01*
X646842Y396191D01*
X647303Y396099D01*
X652697D01*
X653158Y396191D01*
X653548Y396452D01*
X653809Y396842D01*
X653901Y397303D01*
Y402697D01*
X653809Y403158D01*
X653548Y403548D01*
X653158Y403809D01*
X652697Y403901D01*
D02*
G37*
G36*
X559500Y403663D02*
X559035Y403602D01*
X558136Y403229D01*
X557363Y402637D01*
X556771Y401864D01*
X556398Y400965D01*
X556337Y400500D01*
X559500D01*
Y403663D01*
D02*
G37*
G36*
X563663Y399500D02*
X560500D01*
Y396337D01*
X560965Y396398D01*
X561864Y396771D01*
X562637Y397363D01*
X563229Y398136D01*
X563602Y399035D01*
X563663Y399500D01*
D02*
G37*
G36*
X340000Y414217D02*
X338909Y414074D01*
X337891Y413652D01*
X337018Y412982D01*
X336348Y412109D01*
X335927Y411092D01*
X335783Y410000D01*
X335927Y408909D01*
X336348Y407891D01*
X337018Y407018D01*
X337891Y406348D01*
X338909Y405927D01*
X340000Y405783D01*
X341091Y405927D01*
X342109Y406348D01*
X342982Y407018D01*
X343652Y407891D01*
X344074Y408909D01*
X344217Y410000D01*
X344074Y411092D01*
X343652Y412109D01*
X342982Y412982D01*
X342109Y413652D01*
X341091Y414074D01*
X340000Y414217D01*
D02*
G37*
G36*
X330000D02*
X328908Y414074D01*
X327891Y413652D01*
X327018Y412982D01*
X326348Y412109D01*
X325926Y411092D01*
X325783Y410000D01*
X325926Y408909D01*
X326348Y407891D01*
X327018Y407018D01*
X327891Y406348D01*
X328908Y405927D01*
X330000Y405783D01*
X331091Y405927D01*
X332109Y406348D01*
X332982Y407018D01*
X333652Y407891D01*
X334073Y408909D01*
X334217Y410000D01*
X334073Y411092D01*
X333652Y412109D01*
X332982Y412982D01*
X332109Y413652D01*
X331091Y414074D01*
X330000Y414217D01*
D02*
G37*
G36*
X360000D02*
X358909Y414074D01*
X357891Y413652D01*
X357018Y412982D01*
X356348Y412109D01*
X355926Y411092D01*
X355783Y410000D01*
X355926Y408909D01*
X356348Y407891D01*
X357018Y407018D01*
X357891Y406348D01*
X358909Y405927D01*
X360000Y405783D01*
X361091Y405927D01*
X362109Y406348D01*
X362982Y407018D01*
X363652Y407891D01*
X364073Y408909D01*
X364217Y410000D01*
X364073Y411092D01*
X363652Y412109D01*
X362982Y412982D01*
X362109Y413652D01*
X361091Y414074D01*
X360000Y414217D01*
D02*
G37*
G36*
X350000D02*
X348908Y414074D01*
X347891Y413652D01*
X347018Y412982D01*
X346348Y412109D01*
X345926Y411092D01*
X345783Y410000D01*
X345926Y408909D01*
X346348Y407891D01*
X347018Y407018D01*
X347891Y406348D01*
X348908Y405927D01*
X350000Y405783D01*
X351092Y405927D01*
X352109Y406348D01*
X352982Y407018D01*
X353652Y407891D01*
X354074Y408909D01*
X354217Y410000D01*
X354074Y411092D01*
X353652Y412109D01*
X352982Y412982D01*
X352109Y413652D01*
X351092Y414074D01*
X350000Y414217D01*
D02*
G37*
G36*
X320000D02*
X318909Y414074D01*
X317891Y413652D01*
X317018Y412982D01*
X316348Y412109D01*
X315927Y411092D01*
X315783Y410000D01*
X315927Y408909D01*
X316348Y407891D01*
X317018Y407018D01*
X317891Y406348D01*
X318909Y405927D01*
X320000Y405783D01*
X321092Y405927D01*
X322109Y406348D01*
X322982Y407018D01*
X323652Y407891D01*
X324074Y408909D01*
X324217Y410000D01*
X324074Y411092D01*
X323652Y412109D01*
X322982Y412982D01*
X322109Y413652D01*
X321092Y414074D01*
X320000Y414217D01*
D02*
G37*
G36*
X280000D02*
X278908Y414074D01*
X277891Y413652D01*
X277018Y412982D01*
X276348Y412109D01*
X275926Y411092D01*
X275783Y410000D01*
X275926Y408909D01*
X276348Y407891D01*
X277018Y407018D01*
X277891Y406348D01*
X278908Y405927D01*
X280000Y405783D01*
X281091Y405927D01*
X282109Y406348D01*
X282982Y407018D01*
X283652Y407891D01*
X284073Y408909D01*
X284217Y410000D01*
X284073Y411092D01*
X283652Y412109D01*
X282982Y412982D01*
X282109Y413652D01*
X281091Y414074D01*
X280000Y414217D01*
D02*
G37*
G36*
X250000D02*
X248908Y414074D01*
X247891Y413652D01*
X247018Y412982D01*
X246348Y412109D01*
X245926Y411092D01*
X245783Y410000D01*
X245926Y408909D01*
X246348Y407891D01*
X247018Y407018D01*
X247891Y406348D01*
X248908Y405927D01*
X250000Y405783D01*
X251092Y405927D01*
X252109Y406348D01*
X252982Y407018D01*
X253652Y407891D01*
X254074Y408909D01*
X254217Y410000D01*
X254074Y411092D01*
X253652Y412109D01*
X252982Y412982D01*
X252109Y413652D01*
X251092Y414074D01*
X250000Y414217D01*
D02*
G37*
G36*
X310000D02*
X308909Y414074D01*
X307891Y413652D01*
X307018Y412982D01*
X306348Y412109D01*
X305926Y411092D01*
X305783Y410000D01*
X305926Y408909D01*
X306348Y407891D01*
X307018Y407018D01*
X307891Y406348D01*
X308909Y405927D01*
X310000Y405783D01*
X311091Y405927D01*
X312109Y406348D01*
X312982Y407018D01*
X313652Y407891D01*
X314073Y408909D01*
X314217Y410000D01*
X314073Y411092D01*
X313652Y412109D01*
X312982Y412982D01*
X312109Y413652D01*
X311091Y414074D01*
X310000Y414217D01*
D02*
G37*
G36*
X300000D02*
X298908Y414074D01*
X297891Y413652D01*
X297018Y412982D01*
X296348Y412109D01*
X295926Y411092D01*
X295783Y410000D01*
X295926Y408909D01*
X296348Y407891D01*
X297018Y407018D01*
X297891Y406348D01*
X298908Y405927D01*
X300000Y405783D01*
X301092Y405927D01*
X302109Y406348D01*
X302982Y407018D01*
X303652Y407891D01*
X304074Y408909D01*
X304217Y410000D01*
X304074Y411092D01*
X303652Y412109D01*
X302982Y412982D01*
X302109Y413652D01*
X301092Y414074D01*
X300000Y414217D01*
D02*
G37*
G36*
X496811Y458695D02*
X495783Y458560D01*
X494826Y458163D01*
X494003Y457532D01*
X493372Y456710D01*
X492975Y455752D01*
X492840Y454724D01*
X492975Y453697D01*
X493372Y452739D01*
X494003Y451917D01*
X494826Y451286D01*
X495783Y450889D01*
X496811Y450753D01*
X497839Y450889D01*
X498797Y451286D01*
X499619Y451917D01*
X500250Y452739D01*
X500647Y453697D01*
X500782Y454724D01*
X500647Y455752D01*
X500250Y456710D01*
X499619Y457532D01*
X498797Y458163D01*
X497839Y458560D01*
X496811Y458695D01*
D02*
G37*
G36*
X641748Y458897D02*
X635811D01*
X635350Y458806D01*
X634960Y458544D01*
X634698Y458154D01*
X634607Y457693D01*
Y451756D01*
X634698Y451295D01*
X634960Y450904D01*
X635350Y450643D01*
X635811Y450552D01*
X641748D01*
X642209Y450643D01*
X642600Y450904D01*
X642861Y451295D01*
X642952Y451756D01*
Y457693D01*
X642861Y458154D01*
X642600Y458544D01*
X642209Y458806D01*
X641748Y458897D01*
D02*
G37*
G36*
X660000Y458971D02*
X658972Y458836D01*
X658014Y458439D01*
X657192Y457808D01*
X656561Y456986D01*
X656164Y456028D01*
X656029Y455000D01*
X656164Y453972D01*
X656561Y453015D01*
X657192Y452192D01*
X658014Y451561D01*
X658972Y451164D01*
X660000Y451029D01*
X661028Y451164D01*
X661985Y451561D01*
X662808Y452192D01*
X663439Y453015D01*
X663836Y453972D01*
X663971Y455000D01*
X663836Y456028D01*
X663439Y456986D01*
X662808Y457808D01*
X661985Y458439D01*
X661028Y458836D01*
X660000Y458971D01*
D02*
G37*
G36*
X526811Y458695D02*
X525783Y458560D01*
X524825Y458163D01*
X524003Y457532D01*
X523372Y456710D01*
X522975Y455752D01*
X522840Y454724D01*
X522975Y453697D01*
X523372Y452739D01*
X524003Y451917D01*
X524825Y451286D01*
X525783Y450889D01*
X526811Y450753D01*
X527839Y450889D01*
X528796Y451286D01*
X529619Y451917D01*
X530250Y452739D01*
X530647Y453697D01*
X530782Y454724D01*
X530647Y455752D01*
X530250Y456710D01*
X529619Y457532D01*
X528796Y458163D01*
X527839Y458560D01*
X526811Y458695D01*
D02*
G37*
G36*
X628937Y458910D02*
X627854Y458767D01*
X626844Y458349D01*
X625978Y457684D01*
X625312Y456817D01*
X624894Y455808D01*
X624752Y454724D01*
X624894Y453641D01*
X625312Y452632D01*
X625978Y451765D01*
X626844Y451100D01*
X627854Y450682D01*
X628937Y450539D01*
X630020Y450682D01*
X631030Y451100D01*
X631896Y451765D01*
X632562Y452632D01*
X632980Y453641D01*
X633122Y454724D01*
X632980Y455808D01*
X632562Y456817D01*
X631896Y457684D01*
X631030Y458349D01*
X630020Y458767D01*
X628937Y458910D01*
D02*
G37*
G36*
X551665Y452846D02*
X547202D01*
X547307Y452045D01*
X547810Y450832D01*
X548609Y449790D01*
X549651Y448991D01*
X550864Y448489D01*
X551665Y448383D01*
Y452846D01*
D02*
G37*
G36*
X567913Y451865D02*
X566564Y451688D01*
X565307Y451167D01*
X564228Y450339D01*
X563400Y449260D01*
X562879Y448002D01*
X562702Y446654D01*
X562879Y445305D01*
X563400Y444048D01*
X564228Y442968D01*
X565307Y442140D01*
X566564Y441619D01*
X567913Y441442D01*
X569262Y441619D01*
X570519Y442140D01*
X571599Y442968D01*
X572427Y444048D01*
X572948Y445305D01*
X573125Y446654D01*
X572948Y448002D01*
X572427Y449260D01*
X571599Y450339D01*
X570519Y451167D01*
X569262Y451688D01*
X567913Y451865D01*
D02*
G37*
G36*
X619095Y458910D02*
X618011Y458767D01*
X617002Y458349D01*
X616135Y457684D01*
X615470Y456817D01*
X615052Y455808D01*
X614909Y454724D01*
X615052Y453641D01*
X615470Y452632D01*
X616135Y451765D01*
X617002Y451100D01*
X618011Y450682D01*
X619095Y450539D01*
X620178Y450682D01*
X621187Y451100D01*
X622054Y451765D01*
X622719Y452632D01*
X623137Y453641D01*
X623280Y454724D01*
X623137Y455808D01*
X622719Y456817D01*
X622054Y457684D01*
X621187Y458349D01*
X620178Y458767D01*
X619095Y458910D01*
D02*
G37*
G36*
X557129Y452846D02*
X552665D01*
Y448383D01*
X553467Y448489D01*
X554680Y448991D01*
X555722Y449790D01*
X556521Y450832D01*
X557023Y452045D01*
X557129Y452846D01*
D02*
G37*
G36*
X271169Y463964D02*
Y460146D01*
X274987D01*
X274904Y460780D01*
X274466Y461838D01*
X273769Y462746D01*
X272861Y463442D01*
X271804Y463880D01*
X271169Y463964D01*
D02*
G37*
G36*
X270169Y463964D02*
X269535Y463880D01*
X268477Y463442D01*
X267569Y462746D01*
X266873Y461838D01*
X266435Y460780D01*
X266351Y460146D01*
X270169D01*
Y463964D01*
D02*
G37*
G36*
X447835Y468809D02*
X369094D01*
X367883Y468690D01*
X366718Y468337D01*
X365644Y467763D01*
X364703Y466990D01*
X364703Y466990D01*
X363569Y465857D01*
X290354D01*
X289143Y465737D01*
X287978Y465384D01*
X286904Y464810D01*
X285963Y464038D01*
X285190Y463096D01*
X284784Y462337D01*
X284191Y462288D01*
X283741Y462875D01*
X282795Y463600D01*
X281694Y464057D01*
X280512Y464212D01*
X279330Y464057D01*
X278228Y463600D01*
X277283Y462875D01*
X276557Y461929D01*
X276101Y460828D01*
X275945Y459646D01*
X276101Y458464D01*
X276557Y457362D01*
X277283Y456417D01*
X278228Y455691D01*
X279330Y455235D01*
X280512Y455079D01*
X281694Y455235D01*
X282795Y455691D01*
X283741Y456417D01*
X284191Y457003D01*
X284784Y456955D01*
X285190Y456195D01*
X285963Y455254D01*
X286904Y454481D01*
X287978Y453907D01*
X289143Y453554D01*
X290354Y453435D01*
X366142D01*
X367353Y453554D01*
X368519Y453907D01*
X369592Y454481D01*
X370534Y455254D01*
X371667Y456387D01*
X445262D01*
X486789Y414860D01*
Y290000D01*
Y169211D01*
X447758D01*
X445235Y171734D01*
X444293Y172507D01*
X443220Y173081D01*
X442054Y173434D01*
X440843Y173554D01*
X385260D01*
X384048Y173434D01*
X382883Y173081D01*
X381809Y172507D01*
X380868Y171734D01*
X380868Y171734D01*
X377659Y168526D01*
X367581Y178604D01*
X366640Y179377D01*
X365566Y179951D01*
X364401Y180304D01*
X363189Y180424D01*
X300197D01*
X298985Y180304D01*
X297820Y179951D01*
X296746Y179377D01*
X295805Y178604D01*
X295033Y177663D01*
X294459Y176590D01*
X294105Y175424D01*
X293986Y174213D01*
Y151818D01*
X293486Y151718D01*
X293387Y151956D01*
X292766Y152766D01*
X291956Y153387D01*
X291012Y153778D01*
X290000Y153911D01*
X288988Y153778D01*
X288044Y153387D01*
X287234Y152766D01*
X286613Y151956D01*
X286222Y151012D01*
X286089Y150000D01*
X286222Y148988D01*
X286613Y148044D01*
X287234Y147234D01*
X288044Y146613D01*
X288988Y146222D01*
X290000Y146089D01*
X291012Y146222D01*
X291956Y146613D01*
X292766Y147234D01*
X293387Y148044D01*
X293517Y148357D01*
X294047Y148331D01*
X294262Y147623D01*
X294836Y146549D01*
X295608Y145608D01*
X296549Y144836D01*
X297623Y144262D01*
X298331Y144047D01*
X298357Y143517D01*
X298044Y143387D01*
X297234Y142766D01*
X296613Y141956D01*
X296222Y141012D01*
X296089Y140000D01*
X296222Y138988D01*
X296613Y138044D01*
X297234Y137234D01*
X298044Y136613D01*
X298988Y136222D01*
X300000Y136089D01*
X301012Y136222D01*
X301956Y136613D01*
X302766Y137234D01*
X303387Y138044D01*
X303778Y138988D01*
X303911Y140000D01*
X303778Y141012D01*
X303387Y141956D01*
X302766Y142766D01*
X301956Y143387D01*
X301643Y143517D01*
X301669Y144047D01*
X302377Y144262D01*
X303451Y144836D01*
X304392Y145608D01*
X304589Y145805D01*
X305361Y146746D01*
X305935Y147820D01*
X306045Y148184D01*
X306545Y148208D01*
X306613Y148044D01*
X307234Y147234D01*
X308044Y146613D01*
X308988Y146222D01*
X310000Y146089D01*
X311012Y146222D01*
X311956Y146613D01*
X312766Y147234D01*
X313387Y148044D01*
X313778Y148988D01*
X313911Y150000D01*
X313778Y151012D01*
X313387Y151956D01*
X312766Y152766D01*
X311956Y153387D01*
X311012Y153778D01*
X310000Y153911D01*
X308988Y153778D01*
X308044Y153387D01*
X307234Y152766D01*
X306908Y152340D01*
X306408Y152510D01*
Y168002D01*
X360616D01*
X374545Y154073D01*
X375486Y153300D01*
X376560Y152726D01*
X377268Y152512D01*
X377294Y151981D01*
X376981Y151852D01*
X376171Y151230D01*
X375550Y150420D01*
X375159Y149477D01*
X375026Y148465D01*
X375159Y147452D01*
X375550Y146509D01*
X376171Y145699D01*
X376981Y145077D01*
X377925Y144686D01*
X378937Y144553D01*
X379949Y144686D01*
X380893Y145077D01*
X381703Y145699D01*
X382324Y146509D01*
X382715Y147452D01*
X382848Y148465D01*
X382715Y149477D01*
X382324Y150420D01*
X381703Y151230D01*
X380893Y151852D01*
X380580Y151981D01*
X380606Y152512D01*
X381314Y152726D01*
X382388Y153300D01*
X383329Y154073D01*
X384451Y155195D01*
X385223Y156136D01*
X385809Y156171D01*
X386171Y155699D01*
X386981Y155077D01*
X387925Y154686D01*
X388937Y154553D01*
X389949Y154686D01*
X390893Y155077D01*
X391703Y155699D01*
X392324Y156509D01*
X392715Y157452D01*
X392848Y158465D01*
X392715Y159477D01*
X392324Y160420D01*
X392123Y160683D01*
X392344Y161132D01*
X424069D01*
X424340Y160638D01*
X424249Y160177D01*
Y154783D01*
X424340Y154323D01*
X424601Y153932D01*
X424992Y153671D01*
X425453Y153579D01*
X430847D01*
X431307Y153671D01*
X431698Y153932D01*
X431959Y154323D01*
X432051Y154783D01*
Y160177D01*
X431959Y160638D01*
X432231Y161132D01*
X435716D01*
X435886Y160632D01*
X435384Y160246D01*
X434762Y159436D01*
X434372Y158493D01*
X434238Y157480D01*
X434372Y156468D01*
X434762Y155525D01*
X435384Y154715D01*
X436194Y154093D01*
X437137Y153702D01*
X438150Y153569D01*
X439162Y153702D01*
X440105Y154093D01*
X440915Y154715D01*
X441537Y155525D01*
X441928Y156468D01*
X442014Y157120D01*
X442554Y157397D01*
X442808Y157262D01*
X443973Y156908D01*
X445185Y156789D01*
X490637D01*
X491623Y156262D01*
X492788Y155908D01*
X494000Y155789D01*
X543789D01*
Y142242D01*
X543289Y142084D01*
X542766Y142766D01*
X541956Y143387D01*
X541012Y143778D01*
X540000Y143911D01*
X538988Y143778D01*
X538044Y143387D01*
X537234Y142766D01*
X536613Y141956D01*
X536222Y141012D01*
X536089Y140000D01*
X536222Y138988D01*
X536613Y138044D01*
X537234Y137234D01*
X538044Y136613D01*
X538988Y136222D01*
X540000Y136089D01*
X541012Y136222D01*
X541956Y136613D01*
X542766Y137234D01*
X543387Y138044D01*
X543517Y138357D01*
X544047Y138331D01*
X544262Y137623D01*
X544836Y136549D01*
X545608Y135608D01*
X546549Y134836D01*
X547623Y134262D01*
X548604Y133964D01*
X548630Y133434D01*
X548136Y133229D01*
X547363Y132637D01*
X546771Y131864D01*
X546398Y130965D01*
X546337Y130500D01*
X553663D01*
X553602Y130965D01*
X553229Y131864D01*
X552637Y132637D01*
X551864Y133229D01*
X551720Y133289D01*
X551820Y133789D01*
X558181D01*
X558280Y133289D01*
X558136Y133229D01*
X557363Y132637D01*
X556771Y131864D01*
X556398Y130965D01*
X556337Y130500D01*
X563663D01*
X563602Y130965D01*
X563229Y131864D01*
X562637Y132637D01*
X561864Y133229D01*
X561370Y133434D01*
X561396Y133964D01*
X562377Y134262D01*
X563451Y134836D01*
X564392Y135608D01*
X565164Y136549D01*
X565738Y137623D01*
X565953Y138331D01*
X566483Y138357D01*
X566613Y138044D01*
X567234Y137234D01*
X568044Y136613D01*
X568988Y136222D01*
X570000Y136089D01*
X571012Y136222D01*
X571956Y136613D01*
X572766Y137234D01*
X573387Y138044D01*
X573778Y138988D01*
X573911Y140000D01*
X573778Y141012D01*
X573387Y141956D01*
X572766Y142766D01*
X571956Y143387D01*
X571012Y143778D01*
X570000Y143911D01*
X568988Y143778D01*
X568044Y143387D01*
X567234Y142766D01*
X566613Y141956D01*
X566483Y141643D01*
X565953Y141669D01*
X565738Y142377D01*
X565164Y143451D01*
X564392Y144392D01*
X563451Y145164D01*
X562377Y145738D01*
X561212Y146092D01*
X560000Y146211D01*
X556211D01*
Y159000D01*
X556092Y160212D01*
X555738Y161377D01*
X555164Y162451D01*
X554392Y163392D01*
X551392Y166392D01*
X550451Y167164D01*
X549377Y167738D01*
X548212Y168092D01*
X547000Y168211D01*
X499211D01*
Y283789D01*
X540000D01*
X541212Y283908D01*
X542377Y284262D01*
X543451Y284836D01*
X544392Y285608D01*
X545164Y286549D01*
X545426Y287039D01*
X546019Y287088D01*
X546483Y286483D01*
X547513Y285693D01*
X548713Y285196D01*
X550000Y285026D01*
X551287Y285196D01*
X552487Y285693D01*
X553517Y286483D01*
X554307Y287513D01*
X554734Y288543D01*
X555266D01*
X555693Y287513D01*
X556483Y286483D01*
X557513Y285693D01*
X558713Y285196D01*
X560000Y285026D01*
X561287Y285196D01*
X562487Y285693D01*
X563517Y286483D01*
X564307Y287513D01*
X564734Y288543D01*
X565266D01*
X565693Y287513D01*
X566483Y286483D01*
X567513Y285693D01*
X568713Y285196D01*
X570000Y285026D01*
X571287Y285196D01*
X572487Y285693D01*
X573517Y286483D01*
X574307Y287513D01*
X574804Y288713D01*
X574839Y288979D01*
X575344D01*
X575372Y288760D01*
X575851Y287604D01*
X576612Y286612D01*
X577604Y285851D01*
X578760Y285372D01*
X579500Y285275D01*
Y290000D01*
Y294725D01*
X578760Y294628D01*
X577604Y294149D01*
X576612Y293388D01*
X575851Y292395D01*
X575372Y291240D01*
X575344Y291021D01*
X574839D01*
X574804Y291287D01*
X574307Y292487D01*
X573517Y293517D01*
X572487Y294307D01*
X571287Y294804D01*
X570000Y294974D01*
X568713Y294804D01*
X567513Y294307D01*
X566483Y293517D01*
X565693Y292487D01*
X565266Y291457D01*
X564734D01*
X564307Y292487D01*
X563517Y293517D01*
X562487Y294307D01*
X561287Y294804D01*
X560000Y294974D01*
X558713Y294804D01*
X557513Y294307D01*
X556483Y293517D01*
X555693Y292487D01*
X555266Y291457D01*
X554734D01*
X554307Y292487D01*
X553517Y293517D01*
X552487Y294307D01*
X551287Y294804D01*
X550000Y294974D01*
X548713Y294804D01*
X547513Y294307D01*
X546483Y293517D01*
X546019Y292912D01*
X545426Y292961D01*
X545164Y293451D01*
X544392Y294392D01*
X543451Y295164D01*
X542377Y295738D01*
X541212Y296092D01*
X540000Y296211D01*
X499211D01*
Y409293D01*
X499711Y409326D01*
X499731Y409174D01*
X500050Y408404D01*
X500557Y407743D01*
X501219Y407235D01*
X501989Y406916D01*
X502315Y406873D01*
Y410000D01*
Y413127D01*
X501989Y413084D01*
X501219Y412765D01*
X500557Y412257D01*
X500050Y411596D01*
X499731Y410826D01*
X499711Y410674D01*
X499211Y410707D01*
Y417433D01*
X499092Y418645D01*
X498738Y419810D01*
X498164Y420884D01*
X497392Y421825D01*
X452226Y466990D01*
X451285Y467763D01*
X450211Y468337D01*
X449046Y468690D01*
X447835Y468809D01*
D02*
G37*
G36*
X552165Y471944D02*
X550816Y471767D01*
X549559Y471246D01*
X548480Y470418D01*
X547652Y469338D01*
X547131Y468081D01*
X546953Y466732D01*
X547131Y465383D01*
X547652Y464126D01*
X548480Y463047D01*
X549559Y462219D01*
X550816Y461698D01*
X552165Y461520D01*
X553514Y461698D01*
X554771Y462219D01*
X555851Y463047D01*
X556679Y464126D01*
X557200Y465383D01*
X557377Y466732D01*
X557200Y468081D01*
X556679Y469338D01*
X555851Y470418D01*
X554771Y471246D01*
X553514Y471767D01*
X552165Y471944D01*
D02*
G37*
G36*
X270169Y459146D02*
X266351D01*
X266435Y458511D01*
X266873Y457454D01*
X267569Y456546D01*
X268477Y455849D01*
X269535Y455411D01*
X270169Y455328D01*
Y459146D01*
D02*
G37*
G36*
X552665Y458310D02*
Y453847D01*
X557129D01*
X557023Y454648D01*
X556521Y455861D01*
X555722Y456903D01*
X554680Y457702D01*
X553467Y458204D01*
X552665Y458310D01*
D02*
G37*
G36*
X551665Y458310D02*
X550864Y458204D01*
X549651Y457702D01*
X548609Y456903D01*
X547810Y455861D01*
X547307Y454648D01*
X547202Y453847D01*
X551665D01*
Y458310D01*
D02*
G37*
G36*
X274987Y459146D02*
X271169D01*
Y455328D01*
X271804Y455411D01*
X272861Y455849D01*
X273769Y456546D01*
X274466Y457454D01*
X274904Y458511D01*
X274987Y459146D01*
D02*
G37*
G36*
X567913Y465251D02*
X566564Y465074D01*
X565307Y464553D01*
X564228Y463725D01*
X563400Y462645D01*
X562879Y461388D01*
X562702Y460039D01*
X562879Y458690D01*
X563400Y457433D01*
X564228Y456354D01*
X565307Y455526D01*
X566564Y455005D01*
X567913Y454827D01*
X569262Y455005D01*
X570519Y455526D01*
X571599Y456354D01*
X572427Y457433D01*
X572948Y458690D01*
X573125Y460039D01*
X572948Y461388D01*
X572427Y462645D01*
X571599Y463725D01*
X570519Y464553D01*
X569262Y465074D01*
X567913Y465251D01*
D02*
G37*
G36*
X556152Y445151D02*
X548179D01*
X547718Y445059D01*
X547328Y444798D01*
X547067Y444408D01*
X546975Y443947D01*
Y435974D01*
X547067Y435514D01*
X547328Y435123D01*
X547718Y434862D01*
X548179Y434770D01*
X556152D01*
X556612Y434862D01*
X557003Y435123D01*
X557264Y435514D01*
X557356Y435974D01*
Y443947D01*
X557264Y444408D01*
X557003Y444798D01*
X556612Y445059D01*
X556152Y445151D01*
D02*
G37*
G36*
X369094Y436569D02*
X368067Y436434D01*
X367109Y436037D01*
X366287Y435406D01*
X365655Y434584D01*
X365259Y433626D01*
X365124Y432598D01*
X365259Y431571D01*
X365655Y430613D01*
X366287Y429790D01*
X367109Y429159D01*
X368067Y428763D01*
X369094Y428627D01*
X370122Y428763D01*
X371080Y429159D01*
X371902Y429790D01*
X372533Y430613D01*
X372930Y431571D01*
X373065Y432598D01*
X372930Y433626D01*
X372533Y434584D01*
X371902Y435406D01*
X371080Y436037D01*
X370122Y436434D01*
X369094Y436569D01*
D02*
G37*
G36*
X647374Y427650D02*
X644151D01*
X644215Y427169D01*
X644593Y426256D01*
X645195Y425471D01*
X645980Y424869D01*
X646894Y424490D01*
X647374Y424427D01*
Y427650D01*
D02*
G37*
G36*
X408465Y436569D02*
X407437Y436434D01*
X406479Y436037D01*
X405657Y435406D01*
X405026Y434584D01*
X404629Y433626D01*
X404494Y432598D01*
X404629Y431571D01*
X405026Y430613D01*
X405657Y429790D01*
X406479Y429159D01*
X407437Y428763D01*
X408465Y428627D01*
X409492Y428763D01*
X410450Y429159D01*
X411272Y429790D01*
X411903Y430613D01*
X412300Y431571D01*
X412435Y432598D01*
X412300Y433626D01*
X411903Y434584D01*
X411272Y435406D01*
X410450Y436037D01*
X409492Y436434D01*
X408465Y436569D01*
D02*
G37*
G36*
X388779D02*
X387752Y436434D01*
X386794Y436037D01*
X385972Y435406D01*
X385341Y434584D01*
X384944Y433626D01*
X384809Y432598D01*
X384944Y431571D01*
X385341Y430613D01*
X385972Y429790D01*
X386794Y429159D01*
X387752Y428763D01*
X388779Y428627D01*
X389807Y428763D01*
X390765Y429159D01*
X391587Y429790D01*
X392218Y430613D01*
X392615Y431571D01*
X392751Y432598D01*
X392615Y433626D01*
X392218Y434584D01*
X391587Y435406D01*
X390765Y436037D01*
X389807Y436434D01*
X388779Y436569D01*
D02*
G37*
G36*
X651596Y427650D02*
X648374D01*
Y424427D01*
X648854Y424490D01*
X649768Y424869D01*
X650553Y425471D01*
X651155Y426256D01*
X651533Y427169D01*
X651596Y427650D01*
D02*
G37*
G36*
X660000Y428971D02*
X658972Y428836D01*
X658014Y428439D01*
X657192Y427808D01*
X656561Y426986D01*
X656164Y426028D01*
X656029Y425000D01*
X656164Y423972D01*
X656561Y423014D01*
X657192Y422192D01*
X658014Y421561D01*
X658972Y421164D01*
X660000Y421029D01*
X661028Y421164D01*
X661985Y421561D01*
X662808Y422192D01*
X663439Y423014D01*
X663836Y423972D01*
X663971Y425000D01*
X663836Y426028D01*
X663439Y426986D01*
X662808Y427808D01*
X661985Y428439D01*
X661028Y428836D01*
X660000Y428971D01*
D02*
G37*
G36*
X503315Y413127D02*
Y410500D01*
X505942D01*
X505899Y410826D01*
X505580Y411596D01*
X505072Y412257D01*
X504411Y412765D01*
X503641Y413084D01*
X503315Y413127D01*
D02*
G37*
G36*
X617874Y432121D02*
X616846Y431985D01*
X615889Y431589D01*
X615066Y430958D01*
X614435Y430135D01*
X614038Y429177D01*
X613903Y428150D01*
X614038Y427122D01*
X614435Y426164D01*
X615066Y425342D01*
X615889Y424711D01*
X616846Y424314D01*
X617874Y424179D01*
X618902Y424314D01*
X619860Y424711D01*
X620682Y425342D01*
X621313Y426164D01*
X621710Y427122D01*
X621845Y428150D01*
X621710Y429177D01*
X621313Y430135D01*
X620682Y430958D01*
X619860Y431589D01*
X618902Y431985D01*
X617874Y432121D01*
D02*
G37*
G36*
X684000Y428971D02*
X682972Y428836D01*
X682015Y428439D01*
X681192Y427808D01*
X680561Y426986D01*
X680164Y426028D01*
X680029Y425000D01*
X680164Y423972D01*
X680561Y423014D01*
X681192Y422192D01*
X682015Y421561D01*
X682972Y421164D01*
X684000Y421029D01*
X685028Y421164D01*
X685986Y421561D01*
X686808Y422192D01*
X687439Y423014D01*
X687836Y423972D01*
X687971Y425000D01*
X687836Y426028D01*
X687439Y426986D01*
X686808Y427808D01*
X685986Y428439D01*
X685028Y428836D01*
X684000Y428971D01*
D02*
G37*
G36*
X500533Y433555D02*
X497311D01*
Y430333D01*
X497791Y430396D01*
X498705Y430774D01*
X499490Y431376D01*
X500092Y432161D01*
X500470Y433075D01*
X500533Y433555D01*
D02*
G37*
G36*
X496311D02*
X493088D01*
X493152Y433075D01*
X493530Y432161D01*
X494132Y431376D01*
X494917Y430774D01*
X495830Y430396D01*
X496311Y430333D01*
Y433555D01*
D02*
G37*
G36*
X497311Y437778D02*
Y434555D01*
X500533D01*
X500470Y435036D01*
X500092Y435949D01*
X499490Y436734D01*
X498705Y437336D01*
X497791Y437714D01*
X497311Y437778D01*
D02*
G37*
G36*
X496311D02*
X495830Y437714D01*
X494917Y437336D01*
X494132Y436734D01*
X493530Y435949D01*
X493152Y435036D01*
X493088Y434555D01*
X496311D01*
Y437778D01*
D02*
G37*
G36*
X526811Y438026D02*
X525783Y437891D01*
X524825Y437494D01*
X524003Y436863D01*
X523372Y436041D01*
X522975Y435083D01*
X522840Y434055D01*
X522975Y433027D01*
X523372Y432070D01*
X524003Y431247D01*
X524825Y430616D01*
X525783Y430220D01*
X526811Y430084D01*
X527839Y430220D01*
X528796Y430616D01*
X529619Y431247D01*
X530250Y432070D01*
X530647Y433027D01*
X530782Y434055D01*
X530647Y435083D01*
X530250Y436041D01*
X529619Y436863D01*
X528796Y437494D01*
X527839Y437891D01*
X526811Y438026D01*
D02*
G37*
G36*
X447835Y436569D02*
X446807Y436434D01*
X445849Y436037D01*
X445027Y435406D01*
X444396Y434584D01*
X443999Y433626D01*
X443864Y432598D01*
X443999Y431571D01*
X444396Y430613D01*
X445027Y429790D01*
X445849Y429159D01*
X446807Y428763D01*
X447835Y428627D01*
X448862Y428763D01*
X449820Y429159D01*
X450643Y429790D01*
X451274Y430613D01*
X451670Y431571D01*
X451806Y432598D01*
X451670Y433626D01*
X451274Y434584D01*
X450643Y435406D01*
X449820Y436037D01*
X448862Y436434D01*
X447835Y436569D01*
D02*
G37*
G36*
X428150D02*
X427122Y436434D01*
X426164Y436037D01*
X425342Y435406D01*
X424711Y434584D01*
X424314Y433626D01*
X424179Y432598D01*
X424314Y431571D01*
X424711Y430613D01*
X425342Y429790D01*
X426164Y429159D01*
X427122Y428763D01*
X428150Y428627D01*
X429177Y428763D01*
X430135Y429159D01*
X430958Y429790D01*
X431589Y430613D01*
X431985Y431571D01*
X432121Y432598D01*
X431985Y433626D01*
X431589Y434584D01*
X430958Y435406D01*
X430135Y436037D01*
X429177Y436434D01*
X428150Y436569D01*
D02*
G37*
G36*
X648374Y431872D02*
Y428650D01*
X651596D01*
X651533Y429130D01*
X651155Y430044D01*
X650553Y430828D01*
X649768Y431430D01*
X648854Y431809D01*
X648374Y431872D01*
D02*
G37*
G36*
X647374Y431872D02*
X646894Y431809D01*
X645980Y431430D01*
X645195Y430828D01*
X644593Y430044D01*
X644215Y429130D01*
X644151Y428650D01*
X647374D01*
Y431872D01*
D02*
G37*
G36*
X570000Y343971D02*
X568972Y343836D01*
X568014Y343439D01*
X567192Y342808D01*
X566561Y341986D01*
X566164Y341028D01*
X566029Y340000D01*
X566164Y338972D01*
X566561Y338015D01*
X567192Y337192D01*
X568014Y336561D01*
X568972Y336164D01*
X570000Y336029D01*
X571028Y336164D01*
X571985Y336561D01*
X572808Y337192D01*
X573439Y338015D01*
X573836Y338972D01*
X573971Y340000D01*
X573836Y341028D01*
X573439Y341986D01*
X572808Y342808D01*
X571985Y343439D01*
X571028Y343836D01*
X570000Y343971D01*
D02*
G37*
G36*
X560000D02*
X558972Y343836D01*
X558014Y343439D01*
X557192Y342808D01*
X556561Y341986D01*
X556164Y341028D01*
X556029Y340000D01*
X556164Y338972D01*
X556561Y338015D01*
X557192Y337192D01*
X558014Y336561D01*
X558972Y336164D01*
X560000Y336029D01*
X561028Y336164D01*
X561985Y336561D01*
X562808Y337192D01*
X563439Y338015D01*
X563836Y338972D01*
X563971Y340000D01*
X563836Y341028D01*
X563439Y341986D01*
X562808Y342808D01*
X561985Y343439D01*
X561028Y343836D01*
X560000Y343971D01*
D02*
G37*
G36*
X529500Y339500D02*
X526277D01*
X526341Y339019D01*
X526719Y338106D01*
X527321Y337321D01*
X528106Y336719D01*
X529019Y336341D01*
X529500Y336278D01*
Y339500D01*
D02*
G37*
G36*
X600000Y343971D02*
X598972Y343836D01*
X598014Y343439D01*
X597192Y342808D01*
X596561Y341986D01*
X596164Y341028D01*
X596029Y340000D01*
X596164Y338972D01*
X596561Y338015D01*
X597192Y337192D01*
X598014Y336561D01*
X598972Y336164D01*
X600000Y336029D01*
X601028Y336164D01*
X601986Y336561D01*
X602808Y337192D01*
X603439Y338015D01*
X603836Y338972D01*
X603971Y340000D01*
X603836Y341028D01*
X603439Y341986D01*
X602808Y342808D01*
X601986Y343439D01*
X601028Y343836D01*
X600000Y343971D01*
D02*
G37*
G36*
X480000Y344217D02*
X478908Y344074D01*
X477891Y343652D01*
X477018Y342982D01*
X476348Y342109D01*
X475926Y341091D01*
X475783Y340000D01*
X475926Y338909D01*
X476348Y337891D01*
X477018Y337018D01*
X477891Y336348D01*
X478908Y335927D01*
X480000Y335783D01*
X481091Y335927D01*
X482109Y336348D01*
X482982Y337018D01*
X483652Y337891D01*
X484073Y338909D01*
X484217Y340000D01*
X484073Y341091D01*
X483652Y342109D01*
X482982Y342982D01*
X482109Y343652D01*
X481091Y344074D01*
X480000Y344217D01*
D02*
G37*
G36*
X470000Y334217D02*
X468909Y334073D01*
X467891Y333652D01*
X467018Y332982D01*
X466348Y332109D01*
X465927Y331091D01*
X465783Y330000D01*
X465927Y328908D01*
X466348Y327891D01*
X467018Y327018D01*
X467891Y326348D01*
X468909Y325926D01*
X470000Y325783D01*
X471092Y325926D01*
X472109Y326348D01*
X472982Y327018D01*
X473652Y327891D01*
X474074Y328908D01*
X474217Y330000D01*
X474074Y331091D01*
X473652Y332109D01*
X472982Y332982D01*
X472109Y333652D01*
X471092Y334073D01*
X470000Y334217D01*
D02*
G37*
G36*
X530500Y326723D02*
Y323500D01*
X533722D01*
X533659Y323980D01*
X533281Y324894D01*
X532679Y325679D01*
X531894Y326281D01*
X530980Y326659D01*
X530500Y326723D01*
D02*
G37*
G36*
X470000Y344217D02*
X468909Y344074D01*
X467891Y343652D01*
X467018Y342982D01*
X466348Y342109D01*
X465927Y341091D01*
X465783Y340000D01*
X465927Y338909D01*
X466348Y337891D01*
X467018Y337018D01*
X467891Y336348D01*
X468909Y335927D01*
X470000Y335783D01*
X471092Y335927D01*
X472109Y336348D01*
X472982Y337018D01*
X473652Y337891D01*
X474074Y338909D01*
X474217Y340000D01*
X474074Y341091D01*
X473652Y342109D01*
X472982Y342982D01*
X472109Y343652D01*
X471092Y344074D01*
X470000Y344217D01*
D02*
G37*
G36*
X480000Y334217D02*
X478908Y334073D01*
X477891Y333652D01*
X477018Y332982D01*
X476348Y332109D01*
X475926Y331091D01*
X475783Y330000D01*
X475926Y328908D01*
X476348Y327891D01*
X477018Y327018D01*
X477891Y326348D01*
X478908Y325926D01*
X480000Y325783D01*
X481091Y325926D01*
X482109Y326348D01*
X482982Y327018D01*
X483652Y327891D01*
X484073Y328908D01*
X484217Y330000D01*
X484073Y331091D01*
X483652Y332109D01*
X482982Y332982D01*
X482109Y333652D01*
X481091Y334073D01*
X480000Y334217D01*
D02*
G37*
G36*
Y354217D02*
X478908Y354074D01*
X477891Y353652D01*
X477018Y352982D01*
X476348Y352109D01*
X475926Y351092D01*
X475783Y350000D01*
X475926Y348908D01*
X476348Y347891D01*
X477018Y347018D01*
X477891Y346348D01*
X478908Y345926D01*
X480000Y345783D01*
X481091Y345926D01*
X482109Y346348D01*
X482982Y347018D01*
X483652Y347891D01*
X484073Y348908D01*
X484217Y350000D01*
X484073Y351092D01*
X483652Y352109D01*
X482982Y352982D01*
X482109Y353652D01*
X481091Y354074D01*
X480000Y354217D01*
D02*
G37*
G36*
X470000D02*
X468909Y354074D01*
X467891Y353652D01*
X467018Y352982D01*
X466348Y352109D01*
X465927Y351092D01*
X465783Y350000D01*
X465927Y348908D01*
X466348Y347891D01*
X467018Y347018D01*
X467891Y346348D01*
X468909Y345926D01*
X470000Y345783D01*
X471092Y345926D01*
X472109Y346348D01*
X472982Y347018D01*
X473652Y347891D01*
X474074Y348908D01*
X474217Y350000D01*
X474074Y351092D01*
X473652Y352109D01*
X472982Y352982D01*
X472109Y353652D01*
X471092Y354074D01*
X470000Y354217D01*
D02*
G37*
G36*
X655091Y358030D02*
Y349532D01*
X663589D01*
X663464Y350797D01*
X662949Y352494D01*
X662113Y354058D01*
X660988Y355429D01*
X659617Y356554D01*
X658053Y357390D01*
X656356Y357905D01*
X655091Y358030D01*
D02*
G37*
G36*
X654091D02*
X652825Y357905D01*
X651128Y357390D01*
X649564Y356554D01*
X648193Y355429D01*
X647068Y354058D01*
X646232Y352494D01*
X645717Y350797D01*
X645592Y349532D01*
X654091D01*
Y358030D01*
D02*
G37*
G36*
X530500Y343723D02*
Y340500D01*
X533722D01*
X533659Y340981D01*
X533281Y341894D01*
X532679Y342679D01*
X531894Y343281D01*
X530980Y343659D01*
X530500Y343723D01*
D02*
G37*
G36*
X654091Y348532D02*
X645592D01*
X645717Y347266D01*
X646232Y345569D01*
X647068Y344005D01*
X648193Y342634D01*
X649564Y341509D01*
X651128Y340673D01*
X652825Y340158D01*
X654091Y340033D01*
Y348532D01*
D02*
G37*
G36*
X533722Y339500D02*
X530500D01*
Y336278D01*
X530980Y336341D01*
X531894Y336719D01*
X532679Y337321D01*
X533281Y338106D01*
X533659Y339019D01*
X533722Y339500D01*
D02*
G37*
G36*
X529500Y343723D02*
X529019Y343659D01*
X528106Y343281D01*
X527321Y342679D01*
X526719Y341894D01*
X526341Y340981D01*
X526277Y340500D01*
X529500D01*
Y343723D01*
D02*
G37*
G36*
X663589Y348532D02*
X655091D01*
Y340033D01*
X656356Y340158D01*
X658053Y340673D01*
X659617Y341509D01*
X660988Y342634D01*
X662113Y344005D01*
X662949Y345569D01*
X663464Y347266D01*
X663589Y348532D01*
D02*
G37*
G36*
X529500Y326723D02*
X529019Y326659D01*
X528106Y326281D01*
X527321Y325679D01*
X526719Y324894D01*
X526341Y323980D01*
X526277Y323500D01*
X529500D01*
Y326723D01*
D02*
G37*
G36*
X618000Y320971D02*
X616972Y320836D01*
X616014Y320439D01*
X615192Y319808D01*
X614561Y318986D01*
X614164Y318028D01*
X614029Y317000D01*
X614164Y315972D01*
X614561Y315015D01*
X615192Y314192D01*
X616014Y313561D01*
X616972Y313164D01*
X618000Y313029D01*
X619028Y313164D01*
X619985Y313561D01*
X620808Y314192D01*
X621439Y315015D01*
X621836Y315972D01*
X621971Y317000D01*
X621836Y318028D01*
X621439Y318986D01*
X620808Y319808D01*
X619985Y320439D01*
X619028Y320836D01*
X618000Y320971D01*
D02*
G37*
G36*
X653040Y315500D02*
X649500D01*
Y311960D01*
X650063Y312034D01*
X651053Y312444D01*
X651903Y313097D01*
X652556Y313947D01*
X652966Y314937D01*
X653040Y315500D01*
D02*
G37*
G36*
X480000Y324217D02*
X478908Y324074D01*
X477891Y323652D01*
X477018Y322982D01*
X476348Y322109D01*
X475926Y321092D01*
X475783Y320000D01*
X475926Y318909D01*
X476348Y317891D01*
X477018Y317018D01*
X477891Y316348D01*
X478908Y315927D01*
X480000Y315783D01*
X481091Y315927D01*
X482109Y316348D01*
X482982Y317018D01*
X483652Y317891D01*
X484073Y318909D01*
X484217Y320000D01*
X484073Y321092D01*
X483652Y322109D01*
X482982Y322982D01*
X482109Y323652D01*
X481091Y324074D01*
X480000Y324217D01*
D02*
G37*
G36*
X470000D02*
X468909Y324074D01*
X467891Y323652D01*
X467018Y322982D01*
X466348Y322109D01*
X465927Y321092D01*
X465783Y320000D01*
X465927Y318909D01*
X466348Y317891D01*
X467018Y317018D01*
X467891Y316348D01*
X468909Y315927D01*
X470000Y315783D01*
X471092Y315927D01*
X472109Y316348D01*
X472982Y317018D01*
X473652Y317891D01*
X474074Y318909D01*
X474217Y320000D01*
X474074Y321092D01*
X473652Y322109D01*
X472982Y322982D01*
X472109Y323652D01*
X471092Y324074D01*
X470000Y324217D01*
D02*
G37*
G36*
X648500Y315500D02*
X644960D01*
X645034Y314937D01*
X645444Y313947D01*
X646097Y313097D01*
X646947Y312444D01*
X647937Y312034D01*
X648500Y311960D01*
Y315500D01*
D02*
G37*
G36*
X470000Y314217D02*
X468909Y314073D01*
X467891Y313652D01*
X467018Y312982D01*
X466348Y312109D01*
X465927Y311091D01*
X465783Y310000D01*
X465927Y308909D01*
X466348Y307891D01*
X467018Y307018D01*
X467891Y306348D01*
X468909Y305926D01*
X470000Y305783D01*
X471092Y305926D01*
X472109Y306348D01*
X472982Y307018D01*
X473652Y307891D01*
X474074Y308909D01*
X474217Y310000D01*
X474074Y311091D01*
X473652Y312109D01*
X472982Y312982D01*
X472109Y313652D01*
X471092Y314073D01*
X470000Y314217D01*
D02*
G37*
G36*
X530500Y308722D02*
Y305500D01*
X533722D01*
X533659Y305980D01*
X533281Y306894D01*
X532679Y307679D01*
X531894Y308281D01*
X530980Y308659D01*
X530500Y308722D01*
D02*
G37*
G36*
X660181Y314895D02*
X659071Y314749D01*
X658037Y314320D01*
X657149Y313639D01*
X656467Y312751D01*
X656039Y311716D01*
X655893Y310606D01*
X656039Y309496D01*
X656467Y308462D01*
X657149Y307574D01*
X658037Y306892D01*
X659071Y306464D01*
X660181Y306318D01*
X661291Y306464D01*
X662325Y306892D01*
X663214Y307574D01*
X663895Y308462D01*
X664324Y309496D01*
X664470Y310606D01*
X664324Y311716D01*
X663895Y312751D01*
X663214Y313639D01*
X662325Y314320D01*
X661291Y314749D01*
X660181Y314895D01*
D02*
G37*
G36*
X480000Y314217D02*
X478908Y314073D01*
X477891Y313652D01*
X477018Y312982D01*
X476348Y312109D01*
X475926Y311091D01*
X475783Y310000D01*
X475926Y308909D01*
X476348Y307891D01*
X477018Y307018D01*
X477891Y306348D01*
X478908Y305926D01*
X480000Y305783D01*
X481091Y305926D01*
X482109Y306348D01*
X482982Y307018D01*
X483652Y307891D01*
X484073Y308909D01*
X484217Y310000D01*
X484073Y311091D01*
X483652Y312109D01*
X482982Y312982D01*
X482109Y313652D01*
X481091Y314073D01*
X480000Y314217D01*
D02*
G37*
G36*
X529500Y322500D02*
X526277D01*
X526341Y322020D01*
X526719Y321106D01*
X527321Y320321D01*
X528106Y319719D01*
X529019Y319341D01*
X529500Y319278D01*
Y322500D01*
D02*
G37*
G36*
X600000Y326971D02*
X598972Y326836D01*
X598014Y326439D01*
X597192Y325808D01*
X596561Y324986D01*
X596164Y324028D01*
X596029Y323000D01*
X596164Y321972D01*
X596561Y321014D01*
X597192Y320192D01*
X598014Y319561D01*
X598972Y319164D01*
X600000Y319029D01*
X601028Y319164D01*
X601986Y319561D01*
X602808Y320192D01*
X603439Y321014D01*
X603836Y321972D01*
X603971Y323000D01*
X603836Y324028D01*
X603439Y324986D01*
X602808Y325808D01*
X601986Y326439D01*
X601028Y326836D01*
X600000Y326971D01*
D02*
G37*
G36*
X618000Y330971D02*
X616972Y330836D01*
X616014Y330439D01*
X615192Y329808D01*
X614561Y328986D01*
X614164Y328028D01*
X614029Y327000D01*
X614164Y325972D01*
X614561Y325014D01*
X615192Y324192D01*
X616014Y323561D01*
X616972Y323164D01*
X618000Y323029D01*
X619028Y323164D01*
X619985Y323561D01*
X620808Y324192D01*
X621439Y325014D01*
X621836Y325972D01*
X621971Y327000D01*
X621836Y328028D01*
X621439Y328986D01*
X620808Y329808D01*
X619985Y330439D01*
X619028Y330836D01*
X618000Y330971D01*
D02*
G37*
G36*
X533722Y322500D02*
X530500D01*
Y319278D01*
X530980Y319341D01*
X531894Y319719D01*
X532679Y320321D01*
X533281Y321106D01*
X533659Y322020D01*
X533722Y322500D01*
D02*
G37*
G36*
X570000Y326971D02*
X568972Y326836D01*
X568014Y326439D01*
X567192Y325808D01*
X566561Y324986D01*
X566164Y324028D01*
X566029Y323000D01*
X566164Y321972D01*
X566561Y321014D01*
X567192Y320192D01*
X568014Y319561D01*
X568972Y319164D01*
X570000Y319029D01*
X571028Y319164D01*
X571985Y319561D01*
X572808Y320192D01*
X573439Y321014D01*
X573836Y321972D01*
X573971Y323000D01*
X573836Y324028D01*
X573439Y324986D01*
X572808Y325808D01*
X571985Y326439D01*
X571028Y326836D01*
X570000Y326971D01*
D02*
G37*
G36*
X649500Y320040D02*
Y316500D01*
X653040D01*
X652966Y317063D01*
X652556Y318053D01*
X651903Y318903D01*
X651053Y319556D01*
X650063Y319966D01*
X649500Y320040D01*
D02*
G37*
G36*
X648500D02*
X647937Y319966D01*
X646947Y319556D01*
X646097Y318903D01*
X645444Y318053D01*
X645034Y317063D01*
X644960Y316500D01*
X648500D01*
Y320040D01*
D02*
G37*
G36*
X560000Y326971D02*
X558972Y326836D01*
X558014Y326439D01*
X557192Y325808D01*
X556561Y324986D01*
X556164Y324028D01*
X556029Y323000D01*
X556164Y321972D01*
X556561Y321014D01*
X557192Y320192D01*
X558014Y319561D01*
X558972Y319164D01*
X560000Y319029D01*
X561028Y319164D01*
X561985Y319561D01*
X562808Y320192D01*
X563439Y321014D01*
X563836Y321972D01*
X563971Y323000D01*
X563836Y324028D01*
X563439Y324986D01*
X562808Y325808D01*
X561985Y326439D01*
X561028Y326836D01*
X560000Y326971D01*
D02*
G37*
G36*
X660181Y325682D02*
X659071Y325536D01*
X658037Y325108D01*
X657149Y324426D01*
X656467Y323538D01*
X656039Y322504D01*
X655893Y321394D01*
X656039Y320284D01*
X656467Y319249D01*
X657149Y318361D01*
X658037Y317680D01*
X659071Y317251D01*
X660181Y317105D01*
X661291Y317251D01*
X662325Y317680D01*
X663214Y318361D01*
X663895Y319249D01*
X664324Y320284D01*
X664470Y321394D01*
X664324Y322504D01*
X663895Y323538D01*
X663214Y324426D01*
X662325Y325108D01*
X661291Y325536D01*
X660181Y325682D01*
D02*
G37*
G36*
X479500Y393969D02*
X478956Y393897D01*
X477983Y393494D01*
X477147Y392853D01*
X476506Y392017D01*
X476103Y391044D01*
X476031Y390500D01*
X479500D01*
Y393969D01*
D02*
G37*
G36*
X470500D02*
Y390500D01*
X473969D01*
X473897Y391044D01*
X473494Y392017D01*
X472853Y392853D01*
X472017Y393494D01*
X471044Y393897D01*
X470500Y393969D01*
D02*
G37*
G36*
X560500Y393663D02*
Y390500D01*
X563663D01*
X563602Y390965D01*
X563229Y391864D01*
X562637Y392637D01*
X561864Y393229D01*
X560965Y393602D01*
X560500Y393663D01*
D02*
G37*
G36*
X480500Y393969D02*
Y390500D01*
X483969D01*
X483897Y391044D01*
X483494Y392017D01*
X482853Y392853D01*
X482017Y393494D01*
X481044Y393897D01*
X480500Y393969D01*
D02*
G37*
G36*
X469500D02*
X468956Y393897D01*
X467983Y393494D01*
X467147Y392853D01*
X466506Y392017D01*
X466103Y391044D01*
X466031Y390500D01*
X469500D01*
Y393969D01*
D02*
G37*
G36*
X559500Y389500D02*
X556337D01*
X556398Y389035D01*
X556771Y388136D01*
X557363Y387363D01*
X558136Y386771D01*
X559035Y386398D01*
X559500Y386337D01*
Y389500D01*
D02*
G37*
G36*
X650000Y393911D02*
X648988Y393778D01*
X648044Y393387D01*
X647234Y392766D01*
X646613Y391956D01*
X646222Y391012D01*
X646089Y390000D01*
X646222Y388988D01*
X646613Y388044D01*
X647234Y387234D01*
X648044Y386613D01*
X648988Y386222D01*
X650000Y386089D01*
X651012Y386222D01*
X651956Y386613D01*
X652766Y387234D01*
X653387Y388044D01*
X653778Y388988D01*
X653911Y390000D01*
X653778Y391012D01*
X653387Y391956D01*
X652766Y392766D01*
X651956Y393387D01*
X651012Y393778D01*
X650000Y393911D01*
D02*
G37*
G36*
X559500Y393663D02*
X559035Y393602D01*
X558136Y393229D01*
X557363Y392637D01*
X556771Y391864D01*
X556398Y390965D01*
X556337Y390500D01*
X559500D01*
Y393663D01*
D02*
G37*
G36*
X563663Y389500D02*
X560500D01*
Y386337D01*
X560965Y386398D01*
X561864Y386771D01*
X562637Y387363D01*
X563229Y388136D01*
X563602Y389035D01*
X563663Y389500D01*
D02*
G37*
G36*
X620000Y403911D02*
X618988Y403778D01*
X618044Y403387D01*
X617234Y402766D01*
X616613Y401956D01*
X616222Y401012D01*
X616089Y400000D01*
X616222Y398988D01*
X616613Y398044D01*
X617234Y397234D01*
X618044Y396613D01*
X618988Y396222D01*
X620000Y396089D01*
X621012Y396222D01*
X621956Y396613D01*
X622766Y397234D01*
X623387Y398044D01*
X623778Y398988D01*
X623911Y400000D01*
X623778Y401012D01*
X623387Y401956D01*
X622766Y402766D01*
X621956Y403387D01*
X621012Y403778D01*
X620000Y403911D01*
D02*
G37*
G36*
X610000D02*
X608988Y403778D01*
X608044Y403387D01*
X607234Y402766D01*
X606613Y401956D01*
X606222Y401012D01*
X606089Y400000D01*
X606222Y398988D01*
X606613Y398044D01*
X607234Y397234D01*
X608044Y396613D01*
X608988Y396222D01*
X610000Y396089D01*
X611012Y396222D01*
X611956Y396613D01*
X612766Y397234D01*
X613387Y398044D01*
X613778Y398988D01*
X613911Y400000D01*
X613778Y401012D01*
X613387Y401956D01*
X612766Y402766D01*
X611956Y403387D01*
X611012Y403778D01*
X610000Y403911D01*
D02*
G37*
G36*
X640000D02*
X638988Y403778D01*
X638044Y403387D01*
X637234Y402766D01*
X636613Y401956D01*
X636222Y401012D01*
X636089Y400000D01*
X636222Y398988D01*
X636613Y398044D01*
X637234Y397234D01*
X638044Y396613D01*
X638988Y396222D01*
X640000Y396089D01*
X641012Y396222D01*
X641956Y396613D01*
X642766Y397234D01*
X643387Y398044D01*
X643778Y398988D01*
X643911Y400000D01*
X643778Y401012D01*
X643387Y401956D01*
X642766Y402766D01*
X641956Y403387D01*
X641012Y403778D01*
X640000Y403911D01*
D02*
G37*
G36*
X630000D02*
X628988Y403778D01*
X628044Y403387D01*
X627234Y402766D01*
X626613Y401956D01*
X626222Y401012D01*
X626089Y400000D01*
X626222Y398988D01*
X626613Y398044D01*
X627234Y397234D01*
X628044Y396613D01*
X628988Y396222D01*
X630000Y396089D01*
X631012Y396222D01*
X631956Y396613D01*
X632766Y397234D01*
X633387Y398044D01*
X633778Y398988D01*
X633911Y400000D01*
X633778Y401012D01*
X633387Y401956D01*
X632766Y402766D01*
X631956Y403387D01*
X631012Y403778D01*
X630000Y403911D01*
D02*
G37*
G36*
X600000D02*
X598988Y403778D01*
X598044Y403387D01*
X597234Y402766D01*
X596613Y401956D01*
X596222Y401012D01*
X596089Y400000D01*
X596222Y398988D01*
X596613Y398044D01*
X597234Y397234D01*
X598044Y396613D01*
X598988Y396222D01*
X600000Y396089D01*
X601012Y396222D01*
X601956Y396613D01*
X602766Y397234D01*
X603387Y398044D01*
X603778Y398988D01*
X603911Y400000D01*
X603778Y401012D01*
X603387Y401956D01*
X602766Y402766D01*
X601956Y403387D01*
X601012Y403778D01*
X600000Y403911D01*
D02*
G37*
G36*
X570000D02*
X568988Y403778D01*
X568044Y403387D01*
X567234Y402766D01*
X566613Y401956D01*
X566222Y401012D01*
X566089Y400000D01*
X566222Y398988D01*
X566613Y398044D01*
X567234Y397234D01*
X568044Y396613D01*
X568988Y396222D01*
X570000Y396089D01*
X571012Y396222D01*
X571956Y396613D01*
X572766Y397234D01*
X573387Y398044D01*
X573778Y398988D01*
X573911Y400000D01*
X573778Y401012D01*
X573387Y401956D01*
X572766Y402766D01*
X571956Y403387D01*
X571012Y403778D01*
X570000Y403911D01*
D02*
G37*
G36*
X684000Y398971D02*
X682972Y398836D01*
X682015Y398439D01*
X681192Y397808D01*
X680561Y396986D01*
X680164Y396028D01*
X680029Y395000D01*
X680164Y393972D01*
X680561Y393015D01*
X681192Y392192D01*
X682015Y391561D01*
X682972Y391164D01*
X684000Y391029D01*
X685028Y391164D01*
X685986Y391561D01*
X686808Y392192D01*
X687439Y393015D01*
X687836Y393972D01*
X687971Y395000D01*
X687836Y396028D01*
X687439Y396986D01*
X686808Y397808D01*
X685986Y398439D01*
X685028Y398836D01*
X684000Y398971D01*
D02*
G37*
G36*
X590000Y403911D02*
X588988Y403778D01*
X588044Y403387D01*
X587234Y402766D01*
X586613Y401956D01*
X586222Y401012D01*
X586089Y400000D01*
X586222Y398988D01*
X586613Y398044D01*
X587234Y397234D01*
X588044Y396613D01*
X588988Y396222D01*
X590000Y396089D01*
X591012Y396222D01*
X591956Y396613D01*
X592766Y397234D01*
X593387Y398044D01*
X593778Y398988D01*
X593911Y400000D01*
X593778Y401012D01*
X593387Y401956D01*
X592766Y402766D01*
X591956Y403387D01*
X591012Y403778D01*
X590000Y403911D01*
D02*
G37*
G36*
X580000D02*
X578988Y403778D01*
X578044Y403387D01*
X577234Y402766D01*
X576613Y401956D01*
X576222Y401012D01*
X576089Y400000D01*
X576222Y398988D01*
X576613Y398044D01*
X577234Y397234D01*
X578044Y396613D01*
X578988Y396222D01*
X580000Y396089D01*
X581012Y396222D01*
X581956Y396613D01*
X582766Y397234D01*
X583387Y398044D01*
X583778Y398988D01*
X583911Y400000D01*
X583778Y401012D01*
X583387Y401956D01*
X582766Y402766D01*
X581956Y403387D01*
X581012Y403778D01*
X580000Y403911D01*
D02*
G37*
G36*
X640000Y393911D02*
X638988Y393778D01*
X638044Y393387D01*
X637234Y392766D01*
X636613Y391956D01*
X636222Y391012D01*
X636089Y390000D01*
X636222Y388988D01*
X636613Y388044D01*
X637234Y387234D01*
X638044Y386613D01*
X638988Y386222D01*
X640000Y386089D01*
X641012Y386222D01*
X641956Y386613D01*
X642766Y387234D01*
X643387Y388044D01*
X643778Y388988D01*
X643911Y390000D01*
X643778Y391012D01*
X643387Y391956D01*
X642766Y392766D01*
X641956Y393387D01*
X641012Y393778D01*
X640000Y393911D01*
D02*
G37*
G36*
X480000Y384217D02*
X478908Y384073D01*
X477891Y383652D01*
X477018Y382982D01*
X476348Y382109D01*
X475926Y381091D01*
X475783Y380000D01*
X475926Y378908D01*
X476348Y377891D01*
X477018Y377018D01*
X477891Y376348D01*
X478908Y375926D01*
X480000Y375783D01*
X481091Y375926D01*
X482109Y376348D01*
X482982Y377018D01*
X483652Y377891D01*
X484073Y378908D01*
X484217Y380000D01*
X484073Y381091D01*
X483652Y382109D01*
X482982Y382982D01*
X482109Y383652D01*
X481091Y384073D01*
X480000Y384217D01*
D02*
G37*
G36*
X470000D02*
X468909Y384073D01*
X467891Y383652D01*
X467018Y382982D01*
X466348Y382109D01*
X465927Y381091D01*
X465783Y380000D01*
X465927Y378908D01*
X466348Y377891D01*
X467018Y377018D01*
X467891Y376348D01*
X468909Y375926D01*
X470000Y375783D01*
X471092Y375926D01*
X472109Y376348D01*
X472982Y377018D01*
X473652Y377891D01*
X474074Y378908D01*
X474217Y380000D01*
X474074Y381091D01*
X473652Y382109D01*
X472982Y382982D01*
X472109Y383652D01*
X471092Y384073D01*
X470000Y384217D01*
D02*
G37*
G36*
X473969Y389500D02*
X470500D01*
Y386031D01*
X471044Y386103D01*
X472017Y386506D01*
X472853Y387147D01*
X473494Y387983D01*
X473897Y388956D01*
X473969Y389500D01*
D02*
G37*
G36*
X469500D02*
X466031D01*
X466103Y388956D01*
X466506Y387983D01*
X467147Y387147D01*
X467983Y386506D01*
X468956Y386103D01*
X469500Y386031D01*
Y389500D01*
D02*
G37*
G36*
X480000Y374217D02*
X478908Y374074D01*
X477891Y373652D01*
X477018Y372982D01*
X476348Y372109D01*
X475926Y371092D01*
X475783Y370000D01*
X475926Y368909D01*
X476348Y367891D01*
X477018Y367018D01*
X477891Y366348D01*
X478908Y365927D01*
X480000Y365783D01*
X481091Y365927D01*
X482109Y366348D01*
X482982Y367018D01*
X483652Y367891D01*
X484073Y368909D01*
X484217Y370000D01*
X484073Y371092D01*
X483652Y372109D01*
X482982Y372982D01*
X482109Y373652D01*
X481091Y374074D01*
X480000Y374217D01*
D02*
G37*
G36*
X470000Y364217D02*
X468909Y364073D01*
X467891Y363652D01*
X467018Y362982D01*
X466348Y362109D01*
X465927Y361091D01*
X465783Y360000D01*
X465927Y358909D01*
X466348Y357891D01*
X467018Y357018D01*
X467891Y356348D01*
X468909Y355926D01*
X470000Y355783D01*
X471092Y355926D01*
X472109Y356348D01*
X472982Y357018D01*
X473652Y357891D01*
X474074Y358909D01*
X474217Y360000D01*
X474074Y361091D01*
X473652Y362109D01*
X472982Y362982D01*
X472109Y363652D01*
X471092Y364073D01*
X470000Y364217D01*
D02*
G37*
G36*
X618000Y360971D02*
X616972Y360836D01*
X616014Y360439D01*
X615192Y359808D01*
X614561Y358985D01*
X614164Y358028D01*
X614029Y357000D01*
X614164Y355972D01*
X614561Y355014D01*
X615192Y354192D01*
X616014Y353561D01*
X616972Y353164D01*
X618000Y353029D01*
X619028Y353164D01*
X619985Y353561D01*
X620808Y354192D01*
X621439Y355014D01*
X621836Y355972D01*
X621971Y357000D01*
X621836Y358028D01*
X621439Y358985D01*
X620808Y359808D01*
X619985Y360439D01*
X619028Y360836D01*
X618000Y360971D01*
D02*
G37*
G36*
X470000Y374217D02*
X468909Y374074D01*
X467891Y373652D01*
X467018Y372982D01*
X466348Y372109D01*
X465927Y371092D01*
X465783Y370000D01*
X465927Y368909D01*
X466348Y367891D01*
X467018Y367018D01*
X467891Y366348D01*
X468909Y365927D01*
X470000Y365783D01*
X471092Y365927D01*
X472109Y366348D01*
X472982Y367018D01*
X473652Y367891D01*
X474074Y368909D01*
X474217Y370000D01*
X474074Y371092D01*
X473652Y372109D01*
X472982Y372982D01*
X472109Y373652D01*
X471092Y374074D01*
X470000Y374217D01*
D02*
G37*
G36*
X480000Y364217D02*
X478908Y364073D01*
X477891Y363652D01*
X477018Y362982D01*
X476348Y362109D01*
X475926Y361091D01*
X475783Y360000D01*
X475926Y358909D01*
X476348Y357891D01*
X477018Y357018D01*
X477891Y356348D01*
X478908Y355926D01*
X480000Y355783D01*
X481091Y355926D01*
X482109Y356348D01*
X482982Y357018D01*
X483652Y357891D01*
X484073Y358909D01*
X484217Y360000D01*
X484073Y361091D01*
X483652Y362109D01*
X482982Y362982D01*
X482109Y363652D01*
X481091Y364073D01*
X480000Y364217D01*
D02*
G37*
G36*
X610000Y393911D02*
X608988Y393778D01*
X608044Y393387D01*
X607234Y392766D01*
X606613Y391956D01*
X606222Y391012D01*
X606089Y390000D01*
X606222Y388988D01*
X606613Y388044D01*
X607234Y387234D01*
X608044Y386613D01*
X608988Y386222D01*
X610000Y386089D01*
X611012Y386222D01*
X611956Y386613D01*
X612766Y387234D01*
X613387Y388044D01*
X613778Y388988D01*
X613911Y390000D01*
X613778Y391012D01*
X613387Y391956D01*
X612766Y392766D01*
X611956Y393387D01*
X611012Y393778D01*
X610000Y393911D01*
D02*
G37*
G36*
X600000D02*
X598988Y393778D01*
X598044Y393387D01*
X597234Y392766D01*
X596613Y391956D01*
X596222Y391012D01*
X596089Y390000D01*
X596222Y388988D01*
X596613Y388044D01*
X597234Y387234D01*
X598044Y386613D01*
X598988Y386222D01*
X600000Y386089D01*
X601012Y386222D01*
X601956Y386613D01*
X602766Y387234D01*
X603387Y388044D01*
X603778Y388988D01*
X603911Y390000D01*
X603778Y391012D01*
X603387Y391956D01*
X602766Y392766D01*
X601956Y393387D01*
X601012Y393778D01*
X600000Y393911D01*
D02*
G37*
G36*
X630000D02*
X628988Y393778D01*
X628044Y393387D01*
X627234Y392766D01*
X626613Y391956D01*
X626222Y391012D01*
X626089Y390000D01*
X626222Y388988D01*
X626613Y388044D01*
X627234Y387234D01*
X628044Y386613D01*
X628988Y386222D01*
X630000Y386089D01*
X631012Y386222D01*
X631956Y386613D01*
X632766Y387234D01*
X633387Y388044D01*
X633778Y388988D01*
X633911Y390000D01*
X633778Y391012D01*
X633387Y391956D01*
X632766Y392766D01*
X631956Y393387D01*
X631012Y393778D01*
X630000Y393911D01*
D02*
G37*
G36*
X620000D02*
X618988Y393778D01*
X618044Y393387D01*
X617234Y392766D01*
X616613Y391956D01*
X616222Y391012D01*
X616089Y390000D01*
X616222Y388988D01*
X616613Y388044D01*
X617234Y387234D01*
X618044Y386613D01*
X618988Y386222D01*
X620000Y386089D01*
X621012Y386222D01*
X621956Y386613D01*
X622766Y387234D01*
X623387Y388044D01*
X623778Y388988D01*
X623911Y390000D01*
X623778Y391012D01*
X623387Y391956D01*
X622766Y392766D01*
X621956Y393387D01*
X621012Y393778D01*
X620000Y393911D01*
D02*
G37*
G36*
X590000D02*
X588988Y393778D01*
X588044Y393387D01*
X587234Y392766D01*
X586613Y391956D01*
X586222Y391012D01*
X586089Y390000D01*
X586222Y388988D01*
X586613Y388044D01*
X587234Y387234D01*
X588044Y386613D01*
X588988Y386222D01*
X590000Y386089D01*
X591012Y386222D01*
X591956Y386613D01*
X592766Y387234D01*
X593387Y388044D01*
X593778Y388988D01*
X593911Y390000D01*
X593778Y391012D01*
X593387Y391956D01*
X592766Y392766D01*
X591956Y393387D01*
X591012Y393778D01*
X590000Y393911D01*
D02*
G37*
G36*
X483969Y389500D02*
X480500D01*
Y386031D01*
X481044Y386103D01*
X482017Y386506D01*
X482853Y387147D01*
X483494Y387983D01*
X483897Y388956D01*
X483969Y389500D01*
D02*
G37*
G36*
X479500D02*
X476031D01*
X476103Y388956D01*
X476506Y387983D01*
X477147Y387147D01*
X477983Y386506D01*
X478956Y386103D01*
X479500Y386031D01*
Y389500D01*
D02*
G37*
G36*
X580000Y393911D02*
X578988Y393778D01*
X578044Y393387D01*
X577234Y392766D01*
X576613Y391956D01*
X576222Y391012D01*
X576089Y390000D01*
X576222Y388988D01*
X576613Y388044D01*
X577234Y387234D01*
X578044Y386613D01*
X578988Y386222D01*
X580000Y386089D01*
X581012Y386222D01*
X581956Y386613D01*
X582766Y387234D01*
X583387Y388044D01*
X583778Y388988D01*
X583911Y390000D01*
X583778Y391012D01*
X583387Y391956D01*
X582766Y392766D01*
X581956Y393387D01*
X581012Y393778D01*
X580000Y393911D01*
D02*
G37*
G36*
X570000D02*
X568988Y393778D01*
X568044Y393387D01*
X567234Y392766D01*
X566613Y391956D01*
X566222Y391012D01*
X566089Y390000D01*
X566222Y388988D01*
X566613Y388044D01*
X567234Y387234D01*
X568044Y386613D01*
X568988Y386222D01*
X570000Y386089D01*
X571012Y386222D01*
X571956Y386613D01*
X572766Y387234D01*
X573387Y388044D01*
X573778Y388988D01*
X573911Y390000D01*
X573778Y391012D01*
X573387Y391956D01*
X572766Y392766D01*
X571956Y393387D01*
X571012Y393778D01*
X570000Y393911D01*
D02*
G37*
%LPD*%
D13*
X502815Y410000D02*
D03*
X300197Y193898D02*
D03*
D14*
X647874Y428150D02*
D03*
X447835Y462598D02*
D03*
X428150D02*
D03*
X408465D02*
D03*
X388779D02*
D03*
X369094D02*
D03*
X496811Y434055D02*
D03*
X530000Y305000D02*
D03*
Y340000D02*
D03*
Y323000D02*
D03*
D16*
X560000Y400000D02*
D03*
Y390000D02*
D03*
X388937Y138465D02*
D03*
X550000Y130000D02*
D03*
Y140000D02*
D03*
X560000Y130000D02*
D03*
Y140000D02*
D03*
X570000Y130000D02*
D03*
X580000D02*
D03*
X590000D02*
D03*
X300000Y150000D02*
D03*
X240000Y140000D02*
D03*
X230000Y150000D02*
D03*
Y140000D02*
D03*
D17*
X540000Y290000D02*
D03*
X580000D02*
D03*
D18*
X480000Y390000D02*
D03*
X470000D02*
D03*
X204000Y220000D02*
D03*
X270000Y410000D02*
D03*
X260000D02*
D03*
D20*
X552165Y453346D02*
D03*
D23*
X300197Y174213D02*
D03*
D24*
X378937Y158465D02*
D03*
D25*
X660181Y289032D02*
D03*
X649000Y316000D02*
D03*
D27*
X654591Y349031D02*
D03*
Y250646D02*
D03*
D28*
X270669Y459646D02*
D03*
D29*
X290354D02*
D03*
D30*
X125000Y125000D02*
D03*
X675000D02*
D03*
Y475000D02*
D03*
X125000D02*
D03*
D32*
X363189Y174213D02*
X378937Y158465D01*
X300197Y174213D02*
X363189D01*
X300000Y150000D02*
X300197Y150197D01*
Y174213D01*
X493000Y163000D02*
Y290000D01*
X378937Y158465D02*
X380059Y159587D01*
Y162142D01*
X385260Y167342D01*
X440843D01*
X445185Y163000D01*
X493000D01*
Y290000D02*
Y417433D01*
Y163000D02*
X494000Y162000D01*
X547000D01*
X550000Y159000D01*
Y140000D02*
Y159000D01*
Y140000D02*
X560000D01*
X447835Y462598D02*
X493000Y417433D01*
Y290000D02*
X540000D01*
X428150Y462598D02*
X447835D01*
X408465D02*
X428150D01*
X388779D02*
X408465D01*
X369094D02*
X388779D01*
X290354Y459646D02*
X366142D01*
X369094Y462598D01*
M02*
