G04 Layer_Color=2752767*
%FSLAX23Y23*%
%MOIN*%
%TF.FileFunction,Drawing*%
%TF.Part,Single*%
G01*
G75*
%TA.AperFunction,NonConductor*%
%ADD58C,0.005*%
%ADD95C,0.007*%
%ADD96C,0.004*%
D58*
X1230Y1230D02*
Y1270D01*
X1270D01*
Y1230D01*
X1230D01*
X4230D02*
Y1270D01*
X4270D01*
Y1230D01*
X4230D01*
Y4230D02*
Y4270D01*
X4270D01*
Y4230D01*
X4230D01*
X1230D02*
Y4270D01*
X1270D01*
Y4230D01*
X1230D01*
X3451Y3830D02*
X3431Y3870D01*
X3471D01*
X3451Y3830D01*
X3549D02*
X3529Y3870D01*
X3569D01*
X3549Y3830D01*
X3500Y1580D02*
X3480Y1620D01*
X3520D01*
X3500Y1580D01*
Y1482D02*
X3480Y1522D01*
X3520D01*
X3500Y1482D01*
X2650Y1429D02*
X2630Y1469D01*
X2670D01*
X2650Y1429D01*
Y1331D02*
X2630Y1371D01*
X2670D01*
X2650Y1331D01*
X2450Y1755D02*
X2460Y1765D01*
X2470D01*
X2460Y1775D01*
X2470Y1785D01*
X2460D01*
X2450Y1795D01*
X2440Y1785D01*
X2430D01*
X2440Y1775D01*
X2430Y1765D01*
X2440D01*
X2450Y1755D01*
Y1455D02*
X2460Y1465D01*
X2470D01*
X2460Y1475D01*
X2470Y1485D01*
X2460D01*
X2450Y1495D01*
X2440Y1485D01*
X2430D01*
X2440Y1475D01*
X2430Y1465D01*
X2440D01*
X2450Y1455D01*
X1900Y2005D02*
X1910Y2015D01*
X1920D01*
X1910Y2025D01*
X1920Y2035D01*
X1910D01*
X1900Y2045D01*
X1890Y2035D01*
X1880D01*
X1890Y2025D01*
X1880Y2015D01*
X1890D01*
X1900Y2005D01*
X1600D02*
X1610Y2015D01*
X1620D01*
X1610Y2025D01*
X1620Y2035D01*
X1610D01*
X1600Y2045D01*
X1590Y2035D01*
X1580D01*
X1590Y2025D01*
X1580Y2015D01*
X1590D01*
X1600Y2005D01*
X1900Y1805D02*
X1910Y1815D01*
X1920D01*
X1910Y1825D01*
X1920Y1835D01*
X1910D01*
X1900Y1845D01*
X1890Y1835D01*
X1880D01*
X1890Y1825D01*
X1880Y1815D01*
X1890D01*
X1900Y1805D01*
X1600D02*
X1610Y1815D01*
X1620D01*
X1610Y1825D01*
X1620Y1835D01*
X1610D01*
X1600Y1845D01*
X1590Y1835D01*
X1580D01*
X1590Y1825D01*
X1580Y1815D01*
X1590D01*
X1600Y1805D01*
X1900Y1605D02*
X1910Y1615D01*
X1920D01*
X1910Y1625D01*
X1920Y1635D01*
X1910D01*
X1900Y1645D01*
X1890Y1635D01*
X1880D01*
X1890Y1625D01*
X1880Y1615D01*
X1890D01*
X1900Y1605D01*
X1600D02*
X1610Y1615D01*
X1620D01*
X1610Y1625D01*
X1620Y1635D01*
X1610D01*
X1600Y1645D01*
X1590Y1635D01*
X1580D01*
X1590Y1625D01*
X1580Y1615D01*
X1590D01*
X1600Y1605D01*
X1900Y1405D02*
X1910Y1415D01*
X1920D01*
X1910Y1425D01*
X1920Y1435D01*
X1910D01*
X1900Y1445D01*
X1890Y1435D01*
X1880D01*
X1890Y1425D01*
X1880Y1415D01*
X1890D01*
X1900Y1405D01*
X1600D02*
X1610Y1415D01*
X1620D01*
X1610Y1425D01*
X1620Y1435D01*
X1610D01*
X1600Y1445D01*
X1590Y1435D01*
X1580D01*
X1590Y1425D01*
X1580Y1415D01*
X1590D01*
X1600Y1405D01*
X4130Y2680D02*
X4140Y2700D01*
X4130Y2720D01*
X4150Y2710D01*
X4170Y2720D01*
X4160Y2700D01*
X4170Y2680D01*
X4150Y2690D01*
X4130Y2680D01*
Y2582D02*
X4140Y2602D01*
X4130Y2622D01*
X4150Y2612D01*
X4170Y2622D01*
X4160Y2602D01*
X4170Y2582D01*
X4150Y2592D01*
X4130Y2582D01*
Y2483D02*
X4140Y2503D01*
X4130Y2523D01*
X4150Y2513D01*
X4170Y2523D01*
X4160Y2503D01*
X4170Y2483D01*
X4150Y2493D01*
X4130Y2483D01*
X3925Y3305D02*
X3935Y3315D01*
X3945D01*
X3935Y3325D01*
X3945Y3335D01*
X3935D01*
X3925Y3345D01*
X3915Y3335D01*
X3905D01*
X3915Y3325D01*
X3905Y3315D01*
X3915D01*
X3925Y3305D01*
Y3005D02*
X3935Y3015D01*
X3945D01*
X3935Y3025D01*
X3945Y3035D01*
X3935D01*
X3925Y3045D01*
X3915Y3035D01*
X3905D01*
X3915Y3025D01*
X3905Y3015D01*
X3915D01*
X3925Y3005D01*
X4150D02*
X4160Y3015D01*
X4170D01*
X4160Y3025D01*
X4170Y3035D01*
X4160D01*
X4150Y3045D01*
X4140Y3035D01*
X4130D01*
X4140Y3025D01*
X4130Y3015D01*
X4140D01*
X4150Y3005D01*
Y3305D02*
X4160Y3315D01*
X4170D01*
X4160Y3325D01*
X4170Y3335D01*
X4160D01*
X4150Y3345D01*
X4140Y3335D01*
X4130D01*
X4140Y3325D01*
X4130Y3315D01*
X4140D01*
X4150Y3305D01*
Y3855D02*
X4160Y3865D01*
X4170D01*
X4160Y3875D01*
X4170Y3885D01*
X4160D01*
X4150Y3895D01*
X4140Y3885D01*
X4130D01*
X4140Y3875D01*
X4130Y3865D01*
X4140D01*
X4150Y3855D01*
Y3555D02*
X4160Y3565D01*
X4170D01*
X4160Y3575D01*
X4170Y3585D01*
X4160D01*
X4150Y3595D01*
X4140Y3585D01*
X4130D01*
X4140Y3575D01*
X4130Y3565D01*
X4140D01*
X4150Y3555D01*
X3865Y1490D02*
Y1480D01*
X3885D01*
Y1490D01*
X3895D01*
Y1510D01*
X3885D01*
Y1520D01*
X3865D01*
Y1510D01*
X3855D01*
Y1490D01*
X3865D01*
X3765D02*
Y1480D01*
X3785D01*
Y1490D01*
X3795D01*
Y1510D01*
X3785D01*
Y1520D01*
X3765D01*
Y1510D01*
X3755D01*
Y1490D01*
X3765D01*
X3865Y1590D02*
Y1580D01*
X3885D01*
Y1590D01*
X3895D01*
Y1610D01*
X3885D01*
Y1620D01*
X3865D01*
Y1610D01*
X3855D01*
Y1590D01*
X3865D01*
X3765D02*
Y1580D01*
X3785D01*
Y1590D01*
X3795D01*
Y1610D01*
X3785D01*
Y1620D01*
X3765D01*
Y1610D01*
X3755D01*
Y1590D01*
X3765D01*
X2632Y3255D02*
X2642Y3275D01*
X2632Y3295D01*
X2652Y3285D01*
X2672Y3295D01*
X2662Y3275D01*
X2672Y3255D01*
X2652Y3265D01*
X2632Y3255D01*
X2730D02*
X2740Y3275D01*
X2730Y3295D01*
X2750Y3285D01*
X2770Y3295D01*
X2760Y3275D01*
X2770Y3255D01*
X2750Y3265D01*
X2730Y3255D01*
X2828D02*
X2838Y3275D01*
X2828Y3295D01*
X2848Y3285D01*
X2868Y3295D01*
X2858Y3275D01*
X2868Y3255D01*
X2848Y3265D01*
X2828Y3255D01*
X3228Y1580D02*
X3238Y1600D01*
X3228Y1620D01*
X3248Y1610D01*
X3268Y1620D01*
X3258Y1600D01*
X3268Y1580D01*
X3248Y1590D01*
X3228Y1580D01*
X3130D02*
X3140Y1600D01*
X3130Y1620D01*
X3150Y1610D01*
X3170Y1620D01*
X3160Y1600D01*
X3170Y1580D01*
X3150Y1590D01*
X3130Y1580D01*
X3032D02*
X3042Y1600D01*
X3032Y1620D01*
X3052Y1610D01*
X3072Y1620D01*
X3062Y1600D01*
X3072Y1580D01*
X3052Y1590D01*
X3032Y1580D01*
X2325Y3805D02*
X2335Y3815D01*
X2345D01*
X2335Y3825D01*
X2345Y3835D01*
X2335D01*
X2325Y3845D01*
X2315Y3835D01*
X2305D01*
X2315Y3825D01*
X2305Y3815D01*
X2315D01*
X2325Y3805D01*
Y3505D02*
X2335Y3515D01*
X2345D01*
X2335Y3525D01*
X2345Y3535D01*
X2335D01*
X2325Y3545D01*
X2315Y3535D01*
X2305D01*
X2315Y3525D01*
X2305Y3515D01*
X2315D01*
X2325Y3505D01*
X1650Y3330D02*
X1660Y3340D01*
X1670D01*
X1660Y3350D01*
X1670Y3360D01*
X1660D01*
X1650Y3370D01*
X1640Y3360D01*
X1630D01*
X1640Y3350D01*
X1630Y3340D01*
X1640D01*
X1650Y3330D01*
X1950D02*
X1960Y3340D01*
X1970D01*
X1960Y3350D01*
X1970Y3360D01*
X1960D01*
X1950Y3370D01*
X1940Y3360D01*
X1930D01*
X1940Y3350D01*
X1930Y3340D01*
X1940D01*
X1950Y3330D01*
X2125Y3805D02*
X2135Y3815D01*
X2145D01*
X2135Y3825D01*
X2145Y3835D01*
X2135D01*
X2125Y3845D01*
X2115Y3835D01*
X2105D01*
X2115Y3825D01*
X2105Y3815D01*
X2115D01*
X2125Y3805D01*
Y3505D02*
X2135Y3515D01*
X2145D01*
X2135Y3525D01*
X2145Y3535D01*
X2135D01*
X2125Y3545D01*
X2115Y3535D01*
X2105D01*
X2115Y3525D01*
X2105Y3515D01*
X2115D01*
X2125Y3505D01*
X1650Y3830D02*
X1660Y3840D01*
X1670D01*
X1660Y3850D01*
X1670Y3860D01*
X1660D01*
X1650Y3870D01*
X1640Y3860D01*
X1630D01*
X1640Y3850D01*
X1630Y3840D01*
X1640D01*
X1650Y3830D01*
X1950D02*
X1960Y3840D01*
X1970D01*
X1960Y3850D01*
X1970Y3860D01*
X1960D01*
X1950Y3870D01*
X1940Y3860D01*
X1930D01*
X1940Y3850D01*
X1930Y3840D01*
X1940D01*
X1950Y3830D01*
X2500Y3905D02*
X2510Y3915D01*
X2520D01*
X2510Y3925D01*
X2520Y3935D01*
X2510D01*
X2500Y3945D01*
X2490Y3935D01*
X2480D01*
X2490Y3925D01*
X2480Y3915D01*
X2490D01*
X2500Y3905D01*
Y3605D02*
X2510Y3615D01*
X2520D01*
X2510Y3625D01*
X2520Y3635D01*
X2510D01*
X2500Y3645D01*
X2490Y3635D01*
X2480D01*
X2490Y3625D01*
X2480Y3615D01*
X2490D01*
X2500Y3605D01*
X1650D02*
X1660Y3615D01*
X1670D01*
X1660Y3625D01*
X1670Y3635D01*
X1660D01*
X1650Y3645D01*
X1640Y3635D01*
X1630D01*
X1640Y3625D01*
X1630Y3615D01*
X1640D01*
X1650Y3605D01*
X1950D02*
X1960Y3615D01*
X1970D01*
X1960Y3625D01*
X1970Y3635D01*
X1960D01*
X1950Y3645D01*
X1940Y3635D01*
X1930D01*
X1940Y3625D01*
X1930Y3615D01*
X1940D01*
X1950Y3605D01*
X2050Y4155D02*
X2060D01*
X2070Y4165D01*
X2080Y4155D01*
X2090D01*
Y4165D01*
X2080Y4175D01*
X2090Y4185D01*
Y4195D01*
X2080D01*
X2070Y4185D01*
X2060Y4195D01*
X2050D01*
Y4185D01*
X2060Y4175D01*
X2050Y4165D01*
Y4155D01*
Y4255D02*
X2060D01*
X2070Y4265D01*
X2080Y4255D01*
X2090D01*
Y4265D01*
X2080Y4275D01*
X2090Y4285D01*
Y4295D01*
X2080D01*
X2070Y4285D01*
X2060Y4295D01*
X2050D01*
Y4285D01*
X2060Y4275D01*
X2050Y4265D01*
Y4255D01*
Y4055D02*
X2060D01*
X2070Y4065D01*
X2080Y4055D01*
X2090D01*
Y4065D01*
X2080Y4075D01*
X2090Y4085D01*
Y4095D01*
X2080D01*
X2070Y4085D01*
X2060Y4095D01*
X2050D01*
Y4085D01*
X2060Y4075D01*
X2050Y4065D01*
Y4055D01*
Y4355D02*
X2060D01*
X2070Y4365D01*
X2080Y4355D01*
X2090D01*
Y4365D01*
X2080Y4375D01*
X2090Y4385D01*
Y4395D01*
X2080D01*
X2070Y4385D01*
X2060Y4395D01*
X2050D01*
Y4385D01*
X2060Y4375D01*
X2050Y4365D01*
Y4355D01*
X2360Y4055D02*
X2370D01*
X2380Y4065D01*
X2390Y4055D01*
X2400D01*
Y4065D01*
X2390Y4075D01*
X2400Y4085D01*
Y4095D01*
X2390D01*
X2380Y4085D01*
X2370Y4095D01*
X2360D01*
Y4085D01*
X2370Y4075D01*
X2360Y4065D01*
Y4055D01*
Y4355D02*
X2370D01*
X2380Y4365D01*
X2390Y4355D01*
X2400D01*
Y4365D01*
X2390Y4375D01*
X2400Y4385D01*
Y4395D01*
X2390D01*
X2380Y4385D01*
X2370Y4395D01*
X2360D01*
Y4385D01*
X2370Y4375D01*
X2360Y4365D01*
Y4355D01*
Y4155D02*
X2370D01*
X2380Y4165D01*
X2390Y4155D01*
X2400D01*
Y4165D01*
X2390Y4175D01*
X2400Y4185D01*
Y4195D01*
X2390D01*
X2380Y4185D01*
X2370Y4195D01*
X2360D01*
Y4185D01*
X2370Y4175D01*
X2360Y4165D01*
Y4155D01*
Y4255D02*
X2370D01*
X2380Y4265D01*
X2390Y4255D01*
X2400D01*
Y4265D01*
X2390Y4275D01*
X2400Y4285D01*
Y4295D01*
X2390D01*
X2380Y4285D01*
X2370Y4295D01*
X2360D01*
Y4285D01*
X2370Y4275D01*
X2360Y4265D01*
Y4255D01*
X2601Y4280D02*
X2581Y4320D01*
X2621D01*
X2601Y4280D01*
X2699D02*
X2679Y4320D01*
X2719D01*
X2699Y4280D01*
X2550Y1580D02*
X2560Y1590D01*
X2570D01*
X2560Y1600D01*
X2570Y1610D01*
X2560D01*
X2550Y1620D01*
X2540Y1610D01*
X2530D01*
X2540Y1600D01*
X2530Y1590D01*
X2540D01*
X2550Y1580D01*
X2850D02*
X2860Y1590D01*
X2870D01*
X2860Y1600D01*
X2870Y1610D01*
X2860D01*
X2850Y1620D01*
X2840Y1610D01*
X2830D01*
X2840Y1600D01*
X2830Y1590D01*
X2840D01*
X2850Y1580D01*
X2300Y2982D02*
X2280Y3022D01*
X2320D01*
X2300Y2982D01*
Y3080D02*
X2280Y3120D01*
X2320D01*
X2300Y3080D01*
X3505Y3560D02*
X3515D01*
X3525Y3570D01*
X3535Y3560D01*
X3545D01*
Y3570D01*
X3535Y3580D01*
X3545Y3590D01*
Y3600D01*
X3535D01*
X3525Y3590D01*
X3515Y3600D01*
X3505D01*
Y3590D01*
X3515Y3580D01*
X3505Y3570D01*
Y3560D01*
X3605D02*
X3615D01*
X3625Y3570D01*
X3635Y3560D01*
X3645D01*
Y3570D01*
X3635Y3580D01*
X3645Y3590D01*
Y3600D01*
X3635D01*
X3625Y3590D01*
X3615Y3600D01*
X3605D01*
Y3590D01*
X3615Y3580D01*
X3605Y3570D01*
Y3560D01*
X3405D02*
X3415D01*
X3425Y3570D01*
X3435Y3560D01*
X3445D01*
Y3570D01*
X3435Y3580D01*
X3445Y3590D01*
Y3600D01*
X3435D01*
X3425Y3590D01*
X3415Y3600D01*
X3405D01*
Y3590D01*
X3415Y3580D01*
X3405Y3570D01*
Y3560D01*
X3705D02*
X3715D01*
X3725Y3570D01*
X3735Y3560D01*
X3745D01*
Y3570D01*
X3735Y3580D01*
X3745Y3590D01*
Y3600D01*
X3735D01*
X3725Y3590D01*
X3715Y3600D01*
X3705D01*
Y3590D01*
X3715Y3580D01*
X3705Y3570D01*
Y3560D01*
X3405Y3250D02*
X3415D01*
X3425Y3260D01*
X3435Y3250D01*
X3445D01*
Y3260D01*
X3435Y3270D01*
X3445Y3280D01*
Y3290D01*
X3435D01*
X3425Y3280D01*
X3415Y3290D01*
X3405D01*
Y3280D01*
X3415Y3270D01*
X3405Y3260D01*
Y3250D01*
X3705D02*
X3715D01*
X3725Y3260D01*
X3735Y3250D01*
X3745D01*
Y3260D01*
X3735Y3270D01*
X3745Y3280D01*
Y3290D01*
X3735D01*
X3725Y3280D01*
X3715Y3290D01*
X3705D01*
Y3280D01*
X3715Y3270D01*
X3705Y3260D01*
Y3250D01*
X3505D02*
X3515D01*
X3525Y3260D01*
X3535Y3250D01*
X3545D01*
Y3260D01*
X3535Y3270D01*
X3545Y3280D01*
Y3290D01*
X3535D01*
X3525Y3280D01*
X3515Y3290D01*
X3505D01*
Y3280D01*
X3515Y3270D01*
X3505Y3260D01*
Y3250D01*
X3605D02*
X3615D01*
X3625Y3260D01*
X3635Y3250D01*
X3645D01*
Y3260D01*
X3635Y3270D01*
X3645Y3280D01*
Y3290D01*
X3635D01*
X3625Y3280D01*
X3615Y3290D01*
X3605D01*
Y3280D01*
X3615Y3270D01*
X3605Y3260D01*
Y3250D01*
X1540Y2415D02*
Y2405D01*
X1560D01*
Y2415D01*
X1570D01*
Y2435D01*
X1560D01*
Y2445D01*
X1540D01*
Y2435D01*
X1530D01*
Y2415D01*
X1540D01*
X1440D02*
Y2405D01*
X1460D01*
Y2415D01*
X1470D01*
Y2435D01*
X1460D01*
Y2445D01*
X1440D01*
Y2435D01*
X1430D01*
Y2415D01*
X1440D01*
X1540Y2515D02*
Y2505D01*
X1560D01*
Y2515D01*
X1570D01*
Y2535D01*
X1560D01*
Y2545D01*
X1540D01*
Y2535D01*
X1530D01*
Y2515D01*
X1540D01*
X1440D02*
Y2505D01*
X1460D01*
Y2515D01*
X1470D01*
Y2535D01*
X1460D01*
Y2545D01*
X1440D01*
Y2535D01*
X1430D01*
Y2515D01*
X1440D01*
X1090Y1990D02*
Y1980D01*
X1110D01*
Y1990D01*
X1120D01*
Y2010D01*
X1110D01*
Y2020D01*
X1090D01*
Y2010D01*
X1080D01*
Y1990D01*
X1090D01*
X1190D02*
Y1980D01*
X1210D01*
Y1990D01*
X1220D01*
Y2010D01*
X1210D01*
Y2020D01*
X1190D01*
Y2010D01*
X1180D01*
Y1990D01*
X1190D01*
X1090Y1890D02*
Y1880D01*
X1110D01*
Y1890D01*
X1120D01*
Y1910D01*
X1110D01*
Y1920D01*
X1090D01*
Y1910D01*
X1080D01*
Y1890D01*
X1090D01*
X1190D02*
Y1880D01*
X1210D01*
Y1890D01*
X1220D01*
Y1910D01*
X1210D01*
Y1920D01*
X1190D01*
Y1910D01*
X1180D01*
Y1890D01*
X1190D01*
X1090Y1790D02*
Y1780D01*
X1110D01*
Y1790D01*
X1120D01*
Y1810D01*
X1110D01*
Y1820D01*
X1090D01*
Y1810D01*
X1080D01*
Y1790D01*
X1090D01*
X1190D02*
Y1780D01*
X1210D01*
Y1790D01*
X1220D01*
Y1810D01*
X1210D01*
Y1820D01*
X1190D01*
Y1810D01*
X1180D01*
Y1790D01*
X1190D01*
X1090Y1690D02*
Y1680D01*
X1110D01*
Y1690D01*
X1120D01*
Y1710D01*
X1110D01*
Y1720D01*
X1090D01*
Y1710D01*
X1080D01*
Y1690D01*
X1090D01*
X1190D02*
Y1680D01*
X1210D01*
Y1690D01*
X1220D01*
Y1710D01*
X1210D01*
Y1720D01*
X1190D01*
Y1710D01*
X1180D01*
Y1690D01*
X1190D01*
X1215Y3565D02*
Y3555D01*
X1235D01*
Y3565D01*
X1245D01*
Y3585D01*
X1235D01*
Y3595D01*
X1215D01*
Y3585D01*
X1205D01*
Y3565D01*
X1215D01*
X1315D02*
Y3555D01*
X1335D01*
Y3565D01*
X1345D01*
Y3585D01*
X1335D01*
Y3595D01*
X1315D01*
Y3585D01*
X1305D01*
Y3565D01*
X1315D01*
X1215Y3465D02*
Y3455D01*
X1235D01*
Y3465D01*
X1245D01*
Y3485D01*
X1235D01*
Y3495D01*
X1215D01*
Y3485D01*
X1205D01*
Y3465D01*
X1215D01*
X1315D02*
Y3455D01*
X1335D01*
Y3465D01*
X1345D01*
Y3485D01*
X1335D01*
Y3495D01*
X1315D01*
Y3485D01*
X1305D01*
Y3465D01*
X1315D01*
X1215Y3365D02*
Y3355D01*
X1235D01*
Y3365D01*
X1245D01*
Y3385D01*
X1235D01*
Y3395D01*
X1215D01*
Y3385D01*
X1205D01*
Y3365D01*
X1215D01*
X1315D02*
Y3355D01*
X1335D01*
Y3365D01*
X1345D01*
Y3385D01*
X1335D01*
Y3395D01*
X1315D01*
Y3385D01*
X1305D01*
Y3365D01*
X1315D01*
X2080Y1630D02*
X2090Y1650D01*
X2080Y1670D01*
X2100Y1660D01*
X2120Y1670D01*
X2110Y1650D01*
X2120Y1630D01*
X2100Y1640D01*
X2080Y1630D01*
Y1728D02*
X2090Y1748D01*
X2080Y1768D01*
X2100Y1758D01*
X2120Y1768D01*
X2110Y1748D01*
X2120Y1728D01*
X2100Y1738D01*
X2080Y1728D01*
Y1827D02*
X2090Y1847D01*
X2080Y1867D01*
X2100Y1857D01*
X2120Y1867D01*
X2110Y1847D01*
X2120Y1827D01*
X2100Y1837D01*
X2080Y1827D01*
X2802Y2380D02*
X2782Y2420D01*
X2822D01*
X2802Y2380D01*
X2900D02*
X2880Y2420D01*
X2920D01*
X2900Y2380D01*
X3100Y2778D02*
X3080Y2818D01*
X3120D01*
X3100Y2778D01*
Y2680D02*
X3080Y2720D01*
X3120D01*
X3100Y2680D01*
X3450Y2778D02*
X3430Y2818D01*
X3470D01*
X3450Y2778D01*
Y2680D02*
X3430Y2720D01*
X3470D01*
X3450Y2680D01*
X2800Y1932D02*
X2780Y1972D01*
X2820D01*
X2800Y1932D01*
Y2030D02*
X2780Y2070D01*
X2820D01*
X2800Y2030D01*
X3443Y2500D02*
X3463Y2520D01*
X3483Y2500D01*
X3463Y2480D01*
X3443Y2500D01*
Y2400D02*
X3463Y2420D01*
X3483Y2400D01*
X3463Y2380D01*
X3443Y2400D01*
Y2300D02*
X3463Y2320D01*
X3483Y2300D01*
X3463Y2280D01*
X3443Y2300D01*
Y2200D02*
X3463Y2220D01*
X3483Y2200D01*
X3463Y2180D01*
X3443Y2200D01*
X3130D02*
X3150Y2220D01*
X3170Y2200D01*
X3150Y2180D01*
X3130Y2200D01*
Y2300D02*
X3150Y2320D01*
X3170Y2300D01*
X3150Y2280D01*
X3130Y2300D01*
Y2400D02*
X3150Y2420D01*
X3170Y2400D01*
X3150Y2380D01*
X3130Y2400D01*
Y2500D02*
X3150Y2520D01*
X3170Y2500D01*
X3150Y2480D01*
X3130Y2500D01*
X2305Y2705D02*
Y2745D01*
X2345D01*
Y2705D01*
X2305D01*
X2313Y2713D02*
Y2737D01*
X2337D01*
Y2713D01*
X2313D01*
X2305Y2605D02*
Y2645D01*
X2345D01*
Y2605D01*
X2305D01*
X2313Y2613D02*
Y2637D01*
X2337D01*
Y2613D01*
X2313D01*
X2305Y2505D02*
Y2545D01*
X2345D01*
Y2505D01*
X2305D01*
X2313Y2513D02*
Y2537D01*
X2337D01*
Y2513D01*
X2313D01*
X2305Y2405D02*
Y2445D01*
X2345D01*
Y2405D01*
X2305D01*
X2313Y2413D02*
Y2437D01*
X2337D01*
Y2413D01*
X2313D01*
X2005Y2405D02*
Y2445D01*
X2045D01*
Y2405D01*
X2005D01*
X2013Y2413D02*
Y2437D01*
X2037D01*
Y2413D01*
X2013D01*
X2005Y2505D02*
Y2545D01*
X2045D01*
Y2505D01*
X2005D01*
X2013Y2513D02*
Y2537D01*
X2037D01*
Y2513D01*
X2013D01*
X2005Y2605D02*
Y2645D01*
X2045D01*
Y2605D01*
X2005D01*
X2013Y2613D02*
Y2637D01*
X2037D01*
Y2613D01*
X2013D01*
X2005Y2705D02*
Y2745D01*
X2045D01*
Y2705D01*
X2005D01*
X2013Y2713D02*
Y2737D01*
X2037D01*
Y2713D01*
X2013D01*
X3800Y2480D02*
X3780Y2520D01*
X3820D01*
X3800Y2480D01*
Y2488D02*
X3788Y2512D01*
X3812D01*
X3800Y2488D01*
Y2677D02*
X3780Y2717D01*
X3820D01*
X3800Y2677D01*
Y2685D02*
X3788Y2709D01*
X3812D01*
X3800Y2685D01*
D95*
X1645Y4000D02*
G03*
X1645Y4000I-20J0D01*
G01*
X3470Y3075D02*
G03*
X3470Y3075I-20J0D01*
G01*
X3270D02*
G03*
X3270Y3075I-20J0D01*
G01*
X3620Y1800D02*
G03*
X3620Y1800I-20J0D01*
G01*
X4070Y2000D02*
G03*
X4070Y2000I-20J0D01*
G01*
X1145Y2350D02*
G03*
X1145Y2350I-20J0D01*
G01*
Y2550D02*
G03*
X1145Y2550I-20J0D01*
G01*
X2120Y2150D02*
G03*
X2120Y2150I-20J0D01*
G01*
Y1450D02*
G03*
X2120Y1450I-20J0D01*
G01*
X2470Y2000D02*
G03*
X2470Y2000I-20J0D01*
G01*
X3620Y1992D02*
G03*
X3620Y1992I-20J0D01*
G01*
Y2400D02*
G03*
X3620Y2400I-20J0D01*
G01*
D96*
X3612Y1992D02*
G03*
X3612Y1992I-12J0D01*
G01*
Y2400D02*
G03*
X3612Y2400I-12J0D01*
G01*
%TF.MD5,eec14b13785534857b8e34dbaa5dc9c4*%
M02*
