G04 Layer_Color=128*
%FSLAX23Y23*%
%MOIN*%
%TF.FileFunction,Drillmap*%
%TF.Part,Single*%
G01*
G75*
%TA.AperFunction,NonConductor*%
%ADD58C,0.005*%
D58*
X1150Y1250D02*
X1350D01*
X1250Y1150D02*
Y1350D01*
X4150Y1250D02*
X4350D01*
X4250Y1150D02*
Y1350D01*
X4150Y4250D02*
X4350D01*
X4250Y4150D02*
Y4350D01*
X1150Y4250D02*
X1350D01*
X1250Y4150D02*
Y4350D01*
X1595Y4000D02*
X1655D01*
X1625Y3970D02*
Y4030D01*
X3420Y3075D02*
X3480D01*
X3450Y3045D02*
Y3105D01*
X3220Y3075D02*
X3280D01*
X3250Y3045D02*
Y3105D01*
X3570Y1800D02*
X3630D01*
X3600Y1770D02*
Y1830D01*
X4020Y2000D02*
X4080D01*
X4050Y1970D02*
Y2030D01*
X1095Y2350D02*
X1155D01*
X1125Y2320D02*
Y2380D01*
X1095Y2550D02*
X1155D01*
X1125Y2520D02*
Y2580D01*
X2070Y2150D02*
X2130D01*
X2100Y2120D02*
Y2180D01*
X2070Y1450D02*
X2130D01*
X2100Y1420D02*
Y1480D01*
X2420Y2000D02*
X2480D01*
X2450Y1970D02*
Y2030D01*
X3436Y3850D02*
X3466D01*
X3451Y3835D02*
Y3865D01*
X3534Y3850D02*
X3564D01*
X3549Y3835D02*
Y3865D01*
X3485Y1600D02*
X3515D01*
X3500Y1585D02*
Y1615D01*
X3485Y1502D02*
X3515D01*
X3500Y1487D02*
Y1516D01*
X2635Y1449D02*
X2665D01*
X2650Y1434D02*
Y1464D01*
X2635Y1351D02*
X2665D01*
X2650Y1336D02*
Y1366D01*
X2433Y1775D02*
X2467D01*
X2450Y1758D02*
Y1792D01*
X2433Y1475D02*
X2467D01*
X2450Y1458D02*
Y1492D01*
X1883Y2025D02*
X1917D01*
X1900Y2008D02*
Y2042D01*
X1583Y2025D02*
X1617D01*
X1600Y2008D02*
Y2042D01*
X1883Y1825D02*
X1917D01*
X1900Y1808D02*
Y1842D01*
X1583Y1825D02*
X1617D01*
X1600Y1808D02*
Y1842D01*
X1883Y1625D02*
X1917D01*
X1900Y1608D02*
Y1642D01*
X1583Y1625D02*
X1617D01*
X1600Y1608D02*
Y1642D01*
X1883Y1425D02*
X1917D01*
X1900Y1408D02*
Y1442D01*
X1583Y1425D02*
X1617D01*
X1600Y1408D02*
Y1442D01*
X4130Y2700D02*
X4170D01*
X4150Y2680D02*
Y2720D01*
X4130Y2602D02*
X4170D01*
X4150Y2582D02*
Y2621D01*
X4130Y2503D02*
X4170D01*
X4150Y2483D02*
Y2523D01*
X3908Y3325D02*
X3942D01*
X3925Y3308D02*
Y3342D01*
X3908Y3025D02*
X3942D01*
X3925Y3008D02*
Y3042D01*
X4133Y3025D02*
X4167D01*
X4150Y3008D02*
Y3042D01*
X4133Y3325D02*
X4167D01*
X4150Y3308D02*
Y3342D01*
X4133Y3875D02*
X4167D01*
X4150Y3858D02*
Y3892D01*
X4133Y3575D02*
X4167D01*
X4150Y3558D02*
Y3592D01*
X3855Y1500D02*
X3895D01*
X3875Y1480D02*
Y1520D01*
X3755Y1500D02*
X3795D01*
X3775Y1480D02*
Y1520D01*
X3855Y1600D02*
X3895D01*
X3875Y1580D02*
Y1620D01*
X3755Y1600D02*
X3795D01*
X3775Y1580D02*
Y1620D01*
X2632Y3275D02*
X2671D01*
X2652Y3255D02*
Y3295D01*
X2730Y3275D02*
X2770D01*
X2750Y3255D02*
Y3295D01*
X2829Y3275D02*
X2868D01*
X2848Y3255D02*
Y3295D01*
X3229Y1600D02*
X3268D01*
X3248Y1580D02*
Y1620D01*
X3130Y1600D02*
X3170D01*
X3150Y1580D02*
Y1620D01*
X3032Y1600D02*
X3071D01*
X3052Y1580D02*
Y1620D01*
X2308Y3825D02*
X2342D01*
X2325Y3808D02*
Y3842D01*
X2308Y3525D02*
X2342D01*
X2325Y3508D02*
Y3542D01*
X1633Y3350D02*
X1667D01*
X1650Y3333D02*
Y3367D01*
X1933Y3350D02*
X1967D01*
X1950Y3333D02*
Y3367D01*
X2108Y3825D02*
X2142D01*
X2125Y3808D02*
Y3842D01*
X2108Y3525D02*
X2142D01*
X2125Y3508D02*
Y3542D01*
X1633Y3850D02*
X1667D01*
X1650Y3833D02*
Y3867D01*
X1933Y3850D02*
X1967D01*
X1950Y3833D02*
Y3867D01*
X2483Y3925D02*
X2517D01*
X2500Y3908D02*
Y3942D01*
X2483Y3625D02*
X2517D01*
X2500Y3608D02*
Y3642D01*
X1633Y3625D02*
X1667D01*
X1650Y3608D02*
Y3642D01*
X1933Y3625D02*
X1967D01*
X1950Y3608D02*
Y3642D01*
X2054Y4175D02*
X2086D01*
X2070Y4159D02*
Y4191D01*
X2054Y4275D02*
X2086D01*
X2070Y4259D02*
Y4291D01*
X2054Y4075D02*
X2086D01*
X2070Y4059D02*
Y4091D01*
X2054Y4375D02*
X2086D01*
X2070Y4359D02*
Y4391D01*
X2364Y4075D02*
X2396D01*
X2380Y4059D02*
Y4091D01*
X2364Y4375D02*
X2396D01*
X2380Y4359D02*
Y4391D01*
X2364Y4175D02*
X2396D01*
X2380Y4159D02*
Y4191D01*
X2364Y4275D02*
X2396D01*
X2380Y4259D02*
Y4291D01*
X2586Y4300D02*
X2616D01*
X2601Y4285D02*
Y4315D01*
X2684Y4300D02*
X2714D01*
X2699Y4285D02*
Y4315D01*
X2533Y1600D02*
X2567D01*
X2550Y1583D02*
Y1617D01*
X2833Y1600D02*
X2867D01*
X2850Y1583D02*
Y1617D01*
X2285Y3002D02*
X2315D01*
X2300Y2987D02*
Y3016D01*
X2285Y3100D02*
X2315D01*
X2300Y3085D02*
Y3115D01*
X3509Y3580D02*
X3541D01*
X3525Y3564D02*
Y3596D01*
X3609Y3580D02*
X3641D01*
X3625Y3564D02*
Y3596D01*
X3409Y3580D02*
X3441D01*
X3425Y3564D02*
Y3596D01*
X3709Y3580D02*
X3741D01*
X3725Y3564D02*
Y3596D01*
X3409Y3270D02*
X3441D01*
X3425Y3254D02*
Y3286D01*
X3709Y3270D02*
X3741D01*
X3725Y3254D02*
Y3286D01*
X3509Y3270D02*
X3541D01*
X3525Y3254D02*
Y3286D01*
X3609Y3270D02*
X3641D01*
X3625Y3254D02*
Y3286D01*
X1530Y2425D02*
X1570D01*
X1550Y2405D02*
Y2445D01*
X1430Y2425D02*
X1470D01*
X1450Y2405D02*
Y2445D01*
X1530Y2525D02*
X1570D01*
X1550Y2505D02*
Y2545D01*
X1430Y2525D02*
X1470D01*
X1450Y2505D02*
Y2545D01*
X1080Y2000D02*
X1120D01*
X1100Y1980D02*
Y2020D01*
X1180Y2000D02*
X1220D01*
X1200Y1980D02*
Y2020D01*
X1080Y1900D02*
X1120D01*
X1100Y1880D02*
Y1920D01*
X1180Y1900D02*
X1220D01*
X1200Y1880D02*
Y1920D01*
X1080Y1800D02*
X1120D01*
X1100Y1780D02*
Y1820D01*
X1180Y1800D02*
X1220D01*
X1200Y1780D02*
Y1820D01*
X1080Y1700D02*
X1120D01*
X1100Y1680D02*
Y1720D01*
X1180Y1700D02*
X1220D01*
X1200Y1680D02*
Y1720D01*
X1205Y3575D02*
X1245D01*
X1225Y3555D02*
Y3595D01*
X1305Y3575D02*
X1345D01*
X1325Y3555D02*
Y3595D01*
X1205Y3475D02*
X1245D01*
X1225Y3455D02*
Y3495D01*
X1305Y3475D02*
X1345D01*
X1325Y3455D02*
Y3495D01*
X1205Y3375D02*
X1245D01*
X1225Y3355D02*
Y3395D01*
X1305Y3375D02*
X1345D01*
X1325Y3355D02*
Y3395D01*
X2080Y1650D02*
X2120D01*
X2100Y1630D02*
Y1670D01*
X2080Y1748D02*
X2120D01*
X2100Y1729D02*
Y1768D01*
X2080Y1847D02*
X2120D01*
X2100Y1827D02*
Y1867D01*
X2787Y2400D02*
X2816D01*
X2802Y2385D02*
Y2415D01*
X2885Y2400D02*
X2915D01*
X2900Y2385D02*
Y2415D01*
X3085Y2798D02*
X3115D01*
X3100Y2784D02*
Y2813D01*
X3085Y2700D02*
X3115D01*
X3100Y2685D02*
Y2715D01*
X3435Y2798D02*
X3465D01*
X3450Y2784D02*
Y2813D01*
X3435Y2700D02*
X3465D01*
X3450Y2685D02*
Y2715D01*
X2785Y1952D02*
X2815D01*
X2800Y1937D02*
Y1966D01*
X2785Y2050D02*
X2815D01*
X2800Y2035D02*
Y2065D01*
X3447Y2500D02*
X3478D01*
X3463Y2485D02*
Y2515D01*
X3447Y2400D02*
X3478D01*
X3463Y2385D02*
Y2415D01*
X3447Y2300D02*
X3478D01*
X3463Y2285D02*
Y2315D01*
X3447Y2200D02*
X3478D01*
X3463Y2185D02*
Y2215D01*
X3135Y2200D02*
X3165D01*
X3150Y2185D02*
Y2215D01*
X3135Y2300D02*
X3165D01*
X3150Y2285D02*
Y2315D01*
X3135Y2400D02*
X3165D01*
X3150Y2385D02*
Y2415D01*
X3135Y2500D02*
X3165D01*
X3150Y2485D02*
Y2515D01*
X2306Y2725D02*
X2345D01*
X2325Y2705D02*
Y2744D01*
X2306Y2625D02*
X2345D01*
X2325Y2605D02*
Y2645D01*
X2306Y2525D02*
X2345D01*
X2325Y2506D02*
Y2545D01*
X2306Y2425D02*
X2345D01*
X2325Y2405D02*
Y2444D01*
X2006Y2425D02*
X2045D01*
X2025Y2405D02*
Y2444D01*
X2006Y2525D02*
X2045D01*
X2025Y2506D02*
Y2545D01*
X2006Y2625D02*
X2045D01*
X2025Y2605D02*
Y2645D01*
X2006Y2725D02*
X2045D01*
X2025Y2705D02*
Y2744D01*
X3579Y1992D02*
X3621D01*
X3600Y1971D02*
Y2013D01*
X3579Y2400D02*
X3621D01*
X3600Y2379D02*
Y2421D01*
X3782Y2500D02*
X3818D01*
X3800Y2482D02*
Y2518D01*
X3782Y2697D02*
X3818D01*
X3800Y2679D02*
Y2715D01*
%TF.MD5,5dc27926b67adb8d167199b2956a1f9a*%
M02*
