G04 Layer_Physical_Order=2*
G04 Layer_Color=16711680*
%FSLAX23Y23*%
%MOIN*%
%TF.FileFunction,Copper,L2,Bot,Signal*%
%TF.Part,Single*%
G01*
G75*
%TA.AperFunction,Conductor*%
%ADD11C,0.030*%
%TA.AperFunction,ViaPad*%
%ADD13C,0.300*%
%ADD14C,0.120*%
%TA.AperFunction,ComponentPad*%
%ADD15R,0.043X0.043*%
%ADD16C,0.043*%
%ADD17R,0.043X0.043*%
%ADD18C,0.055*%
%ADD19C,0.059*%
%ADD20R,0.059X0.059*%
%ADD21C,0.054*%
%ADD22R,0.054X0.054*%
%ADD23R,0.059X0.059*%
%ADD24C,0.051*%
%ADD25R,0.051X0.051*%
%ADD26R,0.051X0.051*%
%ADD27C,0.044*%
%ADD28R,0.044X0.044*%
%ADD29C,0.059*%
%ADD30R,0.059X0.059*%
%ADD31C,0.063*%
%ADD32R,0.063X0.063*%
%ADD33C,0.053*%
%TA.AperFunction,Conductor*%
%ADD34C,0.060*%
G36*
X4500Y1000D02*
X1000D01*
Y4500D01*
X4500D01*
Y1000D01*
D02*
G37*
%LPC*%
G36*
X1125Y2430D02*
X1109Y2429D01*
X1094Y2424D01*
X1081Y2417D01*
X1068Y2407D01*
X1058Y2394D01*
X1051Y2381D01*
X1046Y2366D01*
X1045Y2350D01*
X1046Y2334D01*
X1051Y2319D01*
X1058Y2306D01*
X1068Y2293D01*
X1081Y2283D01*
X1094Y2276D01*
X1109Y2271D01*
X1125Y2270D01*
X1141Y2271D01*
X1156Y2276D01*
X1169Y2283D01*
X1182Y2293D01*
X1192Y2306D01*
X1199Y2319D01*
X1204Y2334D01*
X1205Y2350D01*
X1204Y2366D01*
X1199Y2381D01*
X1192Y2394D01*
X1182Y2407D01*
X1169Y2417D01*
X1156Y2424D01*
X1141Y2429D01*
X1125Y2430D01*
D02*
G37*
G36*
X3443Y2280D02*
X3437D01*
X3440Y2277D01*
X3443Y2275D01*
Y2280D01*
D02*
G37*
G36*
X3150Y2342D02*
X3139Y2341D01*
X3129Y2337D01*
X3120Y2330D01*
X3113Y2321D01*
X3109Y2311D01*
X3108Y2300D01*
X3109Y2289D01*
X3113Y2279D01*
X3120Y2270D01*
X3129Y2263D01*
X3139Y2259D01*
X3150Y2258D01*
X3161Y2259D01*
X3171Y2263D01*
X3180Y2270D01*
X3187Y2279D01*
X3191Y2289D01*
X3192Y2300D01*
X3191Y2311D01*
X3187Y2321D01*
X3180Y2330D01*
X3171Y2337D01*
X3161Y2341D01*
X3150Y2342D01*
D02*
G37*
G36*
Y2242D02*
X3139Y2241D01*
X3129Y2237D01*
X3120Y2230D01*
X3113Y2221D01*
X3109Y2211D01*
X3108Y2200D01*
X3109Y2189D01*
X3113Y2179D01*
X3120Y2170D01*
X3129Y2163D01*
X3139Y2159D01*
X3150Y2158D01*
X3161Y2159D01*
X3171Y2163D01*
X3180Y2170D01*
X3187Y2179D01*
X3191Y2189D01*
X3192Y2200D01*
X3191Y2211D01*
X3187Y2221D01*
X3180Y2230D01*
X3171Y2237D01*
X3161Y2241D01*
X3150Y2242D01*
D02*
G37*
G36*
X3463D02*
X3452Y2241D01*
X3441Y2237D01*
X3433Y2230D01*
X3426Y2221D01*
X3422Y2211D01*
X3420Y2200D01*
X3422Y2189D01*
X3426Y2179D01*
X3433Y2170D01*
X3441Y2163D01*
X3452Y2159D01*
X3463Y2158D01*
X3474Y2159D01*
X3484Y2163D01*
X3493Y2170D01*
X3499Y2179D01*
X3503Y2189D01*
X3505Y2200D01*
X3503Y2211D01*
X3499Y2221D01*
X3493Y2230D01*
X3484Y2237D01*
X3474Y2241D01*
X3463Y2242D01*
D02*
G37*
G36*
X3631Y2451D02*
X3569D01*
X3561Y2450D01*
X3555Y2445D01*
X3550Y2439D01*
X3549Y2431D01*
Y2369D01*
X3550Y2361D01*
X3555Y2355D01*
X3561Y2350D01*
X3569Y2349D01*
X3631D01*
X3639Y2350D01*
X3645Y2355D01*
X3650Y2361D01*
X3651Y2369D01*
Y2431D01*
X3650Y2439D01*
X3645Y2445D01*
X3639Y2450D01*
X3631Y2451D01*
D02*
G37*
G36*
X3150Y2442D02*
X3139Y2441D01*
X3129Y2437D01*
X3120Y2430D01*
X3113Y2421D01*
X3109Y2411D01*
X3108Y2400D01*
X3109Y2389D01*
X3113Y2379D01*
X3120Y2370D01*
X3129Y2363D01*
X3139Y2359D01*
X3150Y2358D01*
X3161Y2359D01*
X3171Y2363D01*
X3180Y2370D01*
X3187Y2379D01*
X3191Y2389D01*
X3192Y2400D01*
X3191Y2411D01*
X3187Y2421D01*
X3180Y2430D01*
X3171Y2437D01*
X3161Y2441D01*
X3150Y2442D01*
D02*
G37*
G36*
X3483Y2325D02*
Y2320D01*
X3488D01*
X3486Y2323D01*
X3483Y2325D01*
D02*
G37*
G36*
X3488Y2280D02*
X3483D01*
Y2275D01*
X3486Y2277D01*
X3488Y2280D01*
D02*
G37*
G36*
X3443Y2325D02*
X3440Y2323D01*
X3437Y2320D01*
X3443D01*
Y2325D01*
D02*
G37*
G36*
X2100Y2230D02*
X2084Y2229D01*
X2069Y2224D01*
X2056Y2217D01*
X2043Y2207D01*
X2033Y2194D01*
X2026Y2181D01*
X2021Y2166D01*
X2020Y2150D01*
X2021Y2134D01*
X2026Y2119D01*
X2033Y2106D01*
X2043Y2093D01*
X2056Y2083D01*
X2069Y2076D01*
X2084Y2071D01*
X2100Y2070D01*
X2116Y2071D01*
X2131Y2076D01*
X2144Y2083D01*
X2157Y2093D01*
X2167Y2106D01*
X2174Y2119D01*
X2179Y2134D01*
X2180Y2150D01*
X2179Y2166D01*
X2174Y2181D01*
X2167Y2194D01*
X2157Y2207D01*
X2144Y2217D01*
X2131Y2224D01*
X2116Y2229D01*
X2100Y2230D01*
D02*
G37*
G36*
X1100Y2047D02*
X1088Y2045D01*
X1076Y2041D01*
X1067Y2033D01*
X1059Y2024D01*
X1055Y2012D01*
X1053Y2000D01*
X1055Y1988D01*
X1059Y1976D01*
X1067Y1967D01*
X1076Y1959D01*
X1088Y1955D01*
X1100Y1953D01*
X1112Y1955D01*
X1124Y1959D01*
X1133Y1967D01*
X1141Y1976D01*
X1145Y1988D01*
X1147Y2000D01*
X1145Y2012D01*
X1141Y2024D01*
X1133Y2033D01*
X1124Y2041D01*
X1112Y2045D01*
X1100Y2047D01*
D02*
G37*
G36*
X1200D02*
X1188Y2045D01*
X1176Y2041D01*
X1167Y2033D01*
X1159Y2024D01*
X1155Y2012D01*
X1153Y2000D01*
X1155Y1988D01*
X1159Y1976D01*
X1167Y1967D01*
X1176Y1959D01*
X1188Y1955D01*
X1200Y1953D01*
X1212Y1955D01*
X1224Y1959D01*
X1233Y1967D01*
X1241Y1976D01*
X1245Y1988D01*
X1247Y2000D01*
X1245Y2012D01*
X1241Y2024D01*
X1233Y2033D01*
X1224Y2041D01*
X1212Y2045D01*
X1200Y2047D01*
D02*
G37*
G36*
X3600Y2044D02*
X3587Y2042D01*
X3574Y2037D01*
X3564Y2028D01*
X3555Y2018D01*
X3550Y2005D01*
X3549Y1992D01*
X3550Y1979D01*
X3555Y1966D01*
X3564Y1956D01*
X3574Y1948D01*
X3587Y1942D01*
X3600Y1941D01*
X3613Y1942D01*
X3626Y1948D01*
X3636Y1956D01*
X3645Y1966D01*
X3650Y1979D01*
X3651Y1992D01*
X3650Y2005D01*
X3645Y2018D01*
X3636Y2028D01*
X3626Y2037D01*
X3613Y2042D01*
X3600Y2044D01*
D02*
G37*
G36*
X2780Y1932D02*
X2775D01*
X2777Y1929D01*
X2780Y1927D01*
Y1932D01*
D02*
G37*
G36*
X2825D02*
X2820D01*
Y1927D01*
X2823Y1929D01*
X2825Y1932D01*
D02*
G37*
G36*
X1900Y2073D02*
X1888Y2071D01*
X1876Y2066D01*
X1866Y2059D01*
X1859Y2049D01*
X1854Y2037D01*
X1852Y2025D01*
X1854Y2013D01*
X1859Y2001D01*
X1866Y1991D01*
X1876Y1984D01*
X1888Y1979D01*
X1900Y1977D01*
X1912Y1979D01*
X1924Y1984D01*
X1934Y1991D01*
X1941Y2001D01*
X1946Y2013D01*
X1948Y2025D01*
X1946Y2037D01*
X1941Y2049D01*
X1934Y2059D01*
X1924Y2066D01*
X1912Y2071D01*
X1900Y2073D01*
D02*
G37*
G36*
X2055Y2775D02*
X1995D01*
X1988Y2773D01*
X1981Y2769D01*
X1977Y2762D01*
X1975Y2754D01*
Y2695D01*
X1977Y2688D01*
X1981Y2681D01*
X1988Y2677D01*
X1995Y2675D01*
X2005D01*
X2006Y2670D01*
X2000Y2668D01*
X1990Y2660D01*
X1982Y2650D01*
X1977Y2638D01*
X1975Y2625D01*
X1977Y2612D01*
X1982Y2600D01*
X1990Y2590D01*
X2000Y2582D01*
X2011Y2578D01*
X2011Y2577D01*
Y2573D01*
X2011Y2572D01*
X2000Y2568D01*
X1990Y2560D01*
X1982Y2550D01*
X1977Y2538D01*
X1975Y2525D01*
X1977Y2512D01*
X1982Y2500D01*
X1990Y2490D01*
X2000Y2482D01*
X2011Y2478D01*
X2011Y2477D01*
Y2473D01*
X2011Y2472D01*
X2000Y2468D01*
X1990Y2460D01*
X1982Y2450D01*
X1977Y2438D01*
X1975Y2425D01*
X1977Y2412D01*
X1982Y2400D01*
X1990Y2390D01*
X2000Y2382D01*
X2012Y2377D01*
X2025Y2375D01*
X2038Y2377D01*
X2050Y2382D01*
X2060Y2390D01*
X2060Y2390D01*
X2220D01*
X2584Y2025D01*
X2592Y2020D01*
X2600Y2016D01*
X2609Y2015D01*
X2764D01*
X2764Y2014D01*
X2771Y2010D01*
X2778Y2008D01*
X2822D01*
X2829Y2010D01*
X2836Y2014D01*
X2840Y2021D01*
X2842Y2028D01*
Y2072D01*
X2840Y2079D01*
X2836Y2086D01*
X2829Y2090D01*
X2822Y2092D01*
X2778D01*
X2771Y2090D01*
X2764Y2086D01*
X2764Y2085D01*
X2624D01*
X2328Y2381D01*
X2330Y2386D01*
X2335Y2387D01*
X2345Y2390D01*
X2353Y2397D01*
X2359Y2405D01*
X2325D01*
Y2425D01*
X2305D01*
Y2459D01*
X2297Y2453D01*
X2290Y2445D01*
X2287Y2435D01*
X2286Y2430D01*
X2281Y2428D01*
X2259Y2450D01*
X2252Y2455D01*
X2243Y2459D01*
X2239Y2459D01*
X2234Y2460D01*
X2060D01*
X2060Y2460D01*
X2050Y2468D01*
X2039Y2472D01*
X2039Y2473D01*
Y2477D01*
X2039Y2478D01*
X2050Y2482D01*
X2060Y2490D01*
X2068Y2500D01*
X2073Y2512D01*
X2075Y2525D01*
X2073Y2538D01*
X2068Y2550D01*
X2060Y2560D01*
X2050Y2568D01*
X2039Y2572D01*
X2039Y2573D01*
Y2577D01*
X2039Y2578D01*
X2050Y2582D01*
X2060Y2590D01*
X2068Y2600D01*
X2073Y2612D01*
X2075Y2625D01*
X2073Y2638D01*
X2068Y2650D01*
X2060Y2660D01*
X2050Y2668D01*
X2044Y2670D01*
X2045Y2675D01*
X2055D01*
X2062Y2677D01*
X2069Y2681D01*
X2073Y2688D01*
X2075Y2695D01*
Y2754D01*
X2073Y2762D01*
X2069Y2769D01*
X2062Y2773D01*
X2055Y2775D01*
D02*
G37*
G36*
X1600Y2073D02*
X1588Y2071D01*
X1576Y2066D01*
X1566Y2059D01*
X1559Y2049D01*
X1554Y2037D01*
X1552Y2025D01*
X1554Y2013D01*
X1559Y2001D01*
X1566Y1991D01*
X1576Y1984D01*
X1588Y1979D01*
X1600Y1977D01*
X1612Y1979D01*
X1624Y1984D01*
X1634Y1991D01*
X1641Y2001D01*
X1646Y2013D01*
X1648Y2025D01*
X1646Y2037D01*
X1641Y2049D01*
X1634Y2059D01*
X1624Y2066D01*
X1612Y2071D01*
X1600Y2073D01*
D02*
G37*
G36*
X2780Y1976D02*
X2777Y1974D01*
X2775Y1972D01*
X2780D01*
Y1976D01*
D02*
G37*
G36*
X2820D02*
Y1972D01*
X2825D01*
X2823Y1974D01*
X2820Y1976D01*
D02*
G37*
G36*
X3463Y2442D02*
X3452Y2441D01*
X3441Y2437D01*
X3433Y2430D01*
X3426Y2421D01*
X3422Y2411D01*
X3420Y2400D01*
X3422Y2389D01*
X3426Y2379D01*
X3433Y2370D01*
X3441Y2363D01*
X3452Y2359D01*
X3463Y2358D01*
X3474Y2359D01*
X3484Y2363D01*
X3493Y2370D01*
X3499Y2379D01*
X3503Y2389D01*
X3505Y2400D01*
X3503Y2411D01*
X3499Y2421D01*
X3493Y2430D01*
X3484Y2437D01*
X3474Y2441D01*
X3463Y2442D01*
D02*
G37*
G36*
X1125Y2630D02*
X1109Y2629D01*
X1094Y2624D01*
X1081Y2617D01*
X1068Y2607D01*
X1058Y2594D01*
X1051Y2581D01*
X1046Y2566D01*
X1045Y2550D01*
X1046Y2534D01*
X1051Y2519D01*
X1058Y2506D01*
X1068Y2493D01*
X1081Y2483D01*
X1094Y2476D01*
X1109Y2471D01*
X1125Y2470D01*
X1141Y2471D01*
X1156Y2476D01*
X1169Y2483D01*
X1182Y2493D01*
X1192Y2506D01*
X1199Y2519D01*
X1204Y2534D01*
X1205Y2550D01*
X1204Y2566D01*
X1199Y2581D01*
X1192Y2594D01*
X1182Y2607D01*
X1169Y2617D01*
X1156Y2624D01*
X1141Y2629D01*
X1125Y2630D01*
D02*
G37*
G36*
X1550Y2572D02*
X1538Y2570D01*
X1526Y2566D01*
X1517Y2558D01*
X1509Y2549D01*
X1505Y2537D01*
X1503Y2525D01*
X1505Y2513D01*
X1509Y2501D01*
X1517Y2492D01*
X1526Y2484D01*
X1538Y2480D01*
X1550Y2478D01*
X1562Y2480D01*
X1574Y2484D01*
X1583Y2492D01*
X1591Y2501D01*
X1595Y2513D01*
X1597Y2525D01*
X1595Y2537D01*
X1591Y2549D01*
X1583Y2558D01*
X1574Y2566D01*
X1562Y2570D01*
X1550Y2572D01*
D02*
G37*
G36*
X4190Y2483D02*
X4170D01*
Y2463D01*
X4180D01*
X4184Y2464D01*
X4187Y2466D01*
X4189Y2470D01*
X4190Y2473D01*
Y2483D01*
D02*
G37*
G36*
X3800Y2547D02*
X3788Y2545D01*
X3777Y2540D01*
X3767Y2533D01*
X3760Y2523D01*
X3755Y2512D01*
X3753Y2500D01*
X3755Y2488D01*
X3760Y2477D01*
X3767Y2467D01*
X3777Y2460D01*
X3788Y2455D01*
X3800Y2453D01*
X3812Y2455D01*
X3823Y2460D01*
X3833Y2467D01*
X3840Y2477D01*
X3845Y2488D01*
X3847Y2500D01*
X3845Y2512D01*
X3840Y2523D01*
X3833Y2533D01*
X3823Y2540D01*
X3812Y2545D01*
X3800Y2547D01*
D02*
G37*
G36*
X4130Y2483D02*
X4110D01*
Y2473D01*
X4111Y2470D01*
X4113Y2466D01*
X4116Y2464D01*
X4120Y2463D01*
X4130D01*
Y2483D01*
D02*
G37*
G36*
X4180Y2543D02*
X4170D01*
Y2523D01*
X4190D01*
Y2533D01*
X4189Y2537D01*
X4187Y2540D01*
X4184Y2542D01*
X4180Y2543D01*
D02*
G37*
G36*
X1430Y2562D02*
X1423D01*
X1419Y2561D01*
X1416Y2559D01*
X1414Y2556D01*
X1413Y2552D01*
Y2545D01*
X1430D01*
Y2562D01*
D02*
G37*
G36*
X4130Y2543D02*
X4120D01*
X4116Y2542D01*
X4113Y2540D01*
X4111Y2537D01*
X4110Y2533D01*
Y2523D01*
X4130D01*
Y2543D01*
D02*
G37*
G36*
X1430Y2505D02*
X1413D01*
Y2498D01*
X1414Y2494D01*
X1416Y2491D01*
X1419Y2489D01*
X1423Y2488D01*
X1430D01*
Y2505D01*
D02*
G37*
G36*
X1487D02*
X1470D01*
Y2488D01*
X1477D01*
X1481Y2489D01*
X1484Y2491D01*
X1486Y2494D01*
X1487Y2498D01*
Y2505D01*
D02*
G37*
G36*
X1470Y2456D02*
Y2445D01*
X1481D01*
X1476Y2451D01*
X1470Y2456D01*
D02*
G37*
G36*
X1550Y2472D02*
X1538Y2470D01*
X1526Y2466D01*
X1517Y2458D01*
X1509Y2449D01*
X1505Y2437D01*
X1503Y2425D01*
X1505Y2413D01*
X1509Y2401D01*
X1517Y2392D01*
X1526Y2384D01*
X1538Y2380D01*
X1550Y2378D01*
X1562Y2380D01*
X1574Y2384D01*
X1583Y2392D01*
X1591Y2401D01*
X1595Y2413D01*
X1597Y2425D01*
X1595Y2437D01*
X1591Y2449D01*
X1583Y2458D01*
X1574Y2466D01*
X1562Y2470D01*
X1550Y2472D01*
D02*
G37*
G36*
X1430Y2405D02*
X1419D01*
X1424Y2399D01*
X1430Y2394D01*
Y2405D01*
D02*
G37*
G36*
X2826Y2380D02*
X2822D01*
Y2375D01*
X2824Y2377D01*
X2826Y2380D01*
D02*
G37*
G36*
X2922Y2442D02*
X2878D01*
X2871Y2440D01*
X2864Y2436D01*
X2860Y2429D01*
X2858Y2422D01*
Y2378D01*
X2860Y2371D01*
X2864Y2364D01*
X2871Y2360D01*
X2878Y2358D01*
X2922D01*
X2929Y2360D01*
X2936Y2364D01*
X2940Y2371D01*
X2942Y2378D01*
Y2422D01*
X2940Y2429D01*
X2936Y2436D01*
X2929Y2440D01*
X2922Y2442D01*
D02*
G37*
G36*
X2782Y2380D02*
X2777D01*
X2779Y2377D01*
X2782Y2375D01*
Y2380D01*
D02*
G37*
G36*
X1430Y2456D02*
X1424Y2451D01*
X1419Y2445D01*
X1430D01*
Y2456D01*
D02*
G37*
G36*
X2345Y2459D02*
Y2445D01*
X2359D01*
X2353Y2453D01*
X2345Y2459D01*
D02*
G37*
G36*
X2822Y2425D02*
Y2420D01*
X2826D01*
X2824Y2423D01*
X2822Y2425D01*
D02*
G37*
G36*
X1481Y2405D02*
X1470D01*
Y2394D01*
X1476Y2399D01*
X1481Y2405D01*
D02*
G37*
G36*
X2782Y2425D02*
X2779Y2423D01*
X2777Y2420D01*
X2782D01*
Y2425D01*
D02*
G37*
G36*
X4050Y2080D02*
X4034Y2079D01*
X4019Y2074D01*
X4006Y2067D01*
X3993Y2057D01*
X3983Y2044D01*
X3976Y2031D01*
X3971Y2016D01*
X3970Y2000D01*
X3971Y1984D01*
X3976Y1969D01*
X3983Y1956D01*
X3993Y1943D01*
X4006Y1933D01*
X4019Y1926D01*
X4034Y1921D01*
X4050Y1920D01*
X4066Y1921D01*
X4081Y1926D01*
X4094Y1933D01*
X4107Y1943D01*
X4117Y1956D01*
X4124Y1969D01*
X4129Y1984D01*
X4130Y2000D01*
X4129Y2016D01*
X4124Y2031D01*
X4117Y2044D01*
X4107Y2057D01*
X4094Y2067D01*
X4081Y2074D01*
X4066Y2079D01*
X4050Y2080D01*
D02*
G37*
G36*
X1900Y1473D02*
X1888Y1471D01*
X1876Y1466D01*
X1866Y1459D01*
X1859Y1449D01*
X1854Y1437D01*
X1852Y1425D01*
X1854Y1413D01*
X1859Y1401D01*
X1866Y1391D01*
X1876Y1384D01*
X1888Y1379D01*
X1900Y1377D01*
X1912Y1379D01*
X1924Y1384D01*
X1934Y1391D01*
X1941Y1401D01*
X1946Y1413D01*
X1948Y1425D01*
X1946Y1437D01*
X1941Y1449D01*
X1934Y1459D01*
X1924Y1466D01*
X1912Y1471D01*
X1900Y1473D01*
D02*
G37*
G36*
X2672Y1491D02*
X2628D01*
X2621Y1489D01*
X2614Y1485D01*
X2610Y1479D01*
X2608Y1471D01*
Y1428D01*
X2610Y1420D01*
X2614Y1413D01*
X2621Y1409D01*
X2628Y1407D01*
X2672D01*
X2679Y1409D01*
X2686Y1413D01*
X2690Y1420D01*
X2692Y1428D01*
Y1471D01*
X2690Y1479D01*
X2686Y1485D01*
X2679Y1489D01*
X2672Y1491D01*
D02*
G37*
G36*
X1600Y1473D02*
X1588Y1471D01*
X1576Y1466D01*
X1566Y1459D01*
X1559Y1449D01*
X1554Y1437D01*
X1552Y1425D01*
X1554Y1413D01*
X1559Y1401D01*
X1566Y1391D01*
X1576Y1384D01*
X1588Y1379D01*
X1600Y1377D01*
X1612Y1379D01*
X1624Y1384D01*
X1634Y1391D01*
X1641Y1401D01*
X1646Y1413D01*
X1648Y1425D01*
X1646Y1437D01*
X1641Y1449D01*
X1634Y1459D01*
X1624Y1466D01*
X1612Y1471D01*
X1600Y1473D01*
D02*
G37*
G36*
X2630Y1375D02*
X2627Y1373D01*
X2625Y1371D01*
X2630D01*
Y1375D01*
D02*
G37*
G36*
X2670D02*
Y1371D01*
X2675D01*
X2673Y1373D01*
X2670Y1375D01*
D02*
G37*
G36*
X3480Y1482D02*
X3475D01*
X3477Y1479D01*
X3480Y1477D01*
Y1482D01*
D02*
G37*
G36*
X3525D02*
X3520D01*
Y1477D01*
X3523Y1479D01*
X3525Y1482D01*
D02*
G37*
G36*
X3875Y1547D02*
X3863Y1545D01*
X3851Y1541D01*
X3842Y1533D01*
X3834Y1524D01*
X3830Y1512D01*
X3828Y1500D01*
X3830Y1488D01*
X3834Y1476D01*
X3842Y1467D01*
X3851Y1459D01*
X3863Y1455D01*
X3875Y1453D01*
X3887Y1455D01*
X3899Y1459D01*
X3908Y1467D01*
X3916Y1476D01*
X3920Y1488D01*
X3922Y1500D01*
X3920Y1512D01*
X3916Y1524D01*
X3908Y1533D01*
X3899Y1541D01*
X3887Y1545D01*
X3875Y1547D01*
D02*
G37*
G36*
X2450Y1523D02*
X2438Y1521D01*
X2426Y1516D01*
X2416Y1509D01*
X2409Y1499D01*
X2404Y1487D01*
X2402Y1475D01*
X2404Y1463D01*
X2409Y1451D01*
X2416Y1441D01*
X2426Y1434D01*
X2438Y1429D01*
X2450Y1427D01*
X2462Y1429D01*
X2474Y1434D01*
X2484Y1441D01*
X2491Y1451D01*
X2496Y1463D01*
X2498Y1475D01*
X2496Y1487D01*
X2491Y1499D01*
X2484Y1509D01*
X2474Y1516D01*
X2462Y1521D01*
X2450Y1523D01*
D02*
G37*
G36*
X3775Y1547D02*
X3763Y1545D01*
X3751Y1541D01*
X3742Y1533D01*
X3734Y1524D01*
X3730Y1512D01*
X3728Y1500D01*
X3730Y1488D01*
X3734Y1476D01*
X3742Y1467D01*
X3751Y1459D01*
X3763Y1455D01*
X3775Y1453D01*
X3787Y1455D01*
X3799Y1459D01*
X3808Y1467D01*
X3816Y1476D01*
X3820Y1488D01*
X3822Y1500D01*
X3820Y1512D01*
X3816Y1524D01*
X3808Y1533D01*
X3799Y1541D01*
X3787Y1545D01*
X3775Y1547D01*
D02*
G37*
G36*
X2100Y1530D02*
X2084Y1529D01*
X2069Y1524D01*
X2056Y1517D01*
X2043Y1507D01*
X2033Y1494D01*
X2026Y1481D01*
X2021Y1466D01*
X2020Y1450D01*
X2021Y1434D01*
X2026Y1419D01*
X2033Y1406D01*
X2043Y1393D01*
X2056Y1383D01*
X2069Y1376D01*
X2084Y1371D01*
X2100Y1370D01*
X2116Y1371D01*
X2131Y1376D01*
X2144Y1383D01*
X2157Y1393D01*
X2167Y1406D01*
X2174Y1419D01*
X2179Y1434D01*
X2180Y1450D01*
X2179Y1466D01*
X2174Y1481D01*
X2167Y1494D01*
X2157Y1507D01*
X2144Y1517D01*
X2131Y1524D01*
X2116Y1529D01*
X2100Y1530D01*
D02*
G37*
G36*
X4409Y1230D02*
X4270D01*
Y1091D01*
X4275Y1091D01*
X4300Y1097D01*
X4323Y1107D01*
X4344Y1120D01*
X4363Y1137D01*
X4380Y1156D01*
X4393Y1177D01*
X4403Y1200D01*
X4409Y1225D01*
X4409Y1230D01*
D02*
G37*
G36*
X1230Y1409D02*
X1225Y1409D01*
X1200Y1403D01*
X1177Y1393D01*
X1156Y1380D01*
X1137Y1363D01*
X1120Y1344D01*
X1107Y1323D01*
X1097Y1300D01*
X1091Y1275D01*
X1091Y1270D01*
X1230D01*
Y1409D01*
D02*
G37*
G36*
X4230Y1230D02*
X4091D01*
X4091Y1225D01*
X4097Y1200D01*
X4107Y1177D01*
X4120Y1156D01*
X4137Y1137D01*
X4156Y1120D01*
X4177Y1107D01*
X4200Y1097D01*
X4225Y1091D01*
X4230Y1091D01*
Y1230D01*
D02*
G37*
G36*
X1230D02*
X1091D01*
X1091Y1225D01*
X1097Y1200D01*
X1107Y1177D01*
X1120Y1156D01*
X1137Y1137D01*
X1156Y1120D01*
X1177Y1107D01*
X1200Y1097D01*
X1225Y1091D01*
X1230Y1091D01*
Y1230D01*
D02*
G37*
G36*
X1409D02*
X1270D01*
Y1091D01*
X1275Y1091D01*
X1300Y1097D01*
X1323Y1107D01*
X1344Y1120D01*
X1363Y1137D01*
X1380Y1156D01*
X1393Y1177D01*
X1403Y1200D01*
X1409Y1225D01*
X1409Y1230D01*
D02*
G37*
G36*
X2630Y1331D02*
X2625D01*
X2627Y1328D01*
X2630Y1326D01*
Y1331D01*
D02*
G37*
G36*
X2675D02*
X2670D01*
Y1326D01*
X2673Y1328D01*
X2675Y1331D01*
D02*
G37*
G36*
X4270Y1409D02*
Y1270D01*
X4409D01*
X4409Y1275D01*
X4403Y1300D01*
X4393Y1323D01*
X4380Y1344D01*
X4363Y1363D01*
X4344Y1380D01*
X4323Y1393D01*
X4300Y1403D01*
X4275Y1409D01*
X4270Y1409D01*
D02*
G37*
G36*
X1270D02*
Y1270D01*
X1409D01*
X1409Y1275D01*
X1403Y1300D01*
X1393Y1323D01*
X1380Y1344D01*
X1363Y1363D01*
X1344Y1380D01*
X1323Y1393D01*
X1300Y1403D01*
X1275Y1409D01*
X1270Y1409D01*
D02*
G37*
G36*
X4230D02*
X4225Y1409D01*
X4200Y1403D01*
X4177Y1393D01*
X4156Y1380D01*
X4137Y1363D01*
X4120Y1344D01*
X4107Y1323D01*
X4097Y1300D01*
X4091Y1275D01*
X4091Y1270D01*
X4230D01*
Y1409D01*
D02*
G37*
G36*
X3480Y1526D02*
X3477Y1524D01*
X3475Y1522D01*
X3480D01*
Y1526D01*
D02*
G37*
G36*
X1100Y1847D02*
X1088Y1845D01*
X1076Y1841D01*
X1067Y1833D01*
X1059Y1824D01*
X1055Y1812D01*
X1053Y1800D01*
X1055Y1788D01*
X1059Y1776D01*
X1067Y1767D01*
X1076Y1759D01*
X1088Y1755D01*
X1100Y1753D01*
X1112Y1755D01*
X1124Y1759D01*
X1133Y1767D01*
X1141Y1776D01*
X1145Y1788D01*
X1147Y1800D01*
X1145Y1812D01*
X1141Y1824D01*
X1133Y1833D01*
X1124Y1841D01*
X1112Y1845D01*
X1100Y1847D01*
D02*
G37*
G36*
X1200D02*
X1188Y1845D01*
X1176Y1841D01*
X1167Y1833D01*
X1159Y1824D01*
X1155Y1812D01*
X1153Y1800D01*
X1155Y1788D01*
X1159Y1776D01*
X1167Y1767D01*
X1176Y1759D01*
X1188Y1755D01*
X1200Y1753D01*
X1212Y1755D01*
X1224Y1759D01*
X1233Y1767D01*
X1241Y1776D01*
X1245Y1788D01*
X1247Y1800D01*
X1245Y1812D01*
X1241Y1824D01*
X1233Y1833D01*
X1224Y1841D01*
X1212Y1845D01*
X1200Y1847D01*
D02*
G37*
G36*
X2450Y1823D02*
X2438Y1821D01*
X2426Y1816D01*
X2416Y1809D01*
X2409Y1799D01*
X2404Y1787D01*
X2402Y1775D01*
X2404Y1763D01*
X2409Y1751D01*
X2416Y1741D01*
X2426Y1734D01*
X2438Y1729D01*
X2450Y1727D01*
X2462Y1729D01*
X2474Y1734D01*
X2484Y1741D01*
X2491Y1751D01*
X2496Y1763D01*
X2498Y1775D01*
X2496Y1787D01*
X2491Y1799D01*
X2484Y1809D01*
X2474Y1816D01*
X2462Y1821D01*
X2450Y1823D01*
D02*
G37*
G36*
X1227Y1747D02*
X1173D01*
X1165Y1746D01*
X1159Y1741D01*
X1154Y1735D01*
X1153Y1727D01*
Y1673D01*
X1154Y1665D01*
X1159Y1659D01*
X1165Y1654D01*
X1173Y1653D01*
X1227D01*
X1235Y1654D01*
X1241Y1659D01*
X1246Y1665D01*
X1247Y1673D01*
Y1727D01*
X1246Y1735D01*
X1241Y1741D01*
X1235Y1746D01*
X1227Y1747D01*
D02*
G37*
G36*
X3600Y1880D02*
X3584Y1879D01*
X3569Y1874D01*
X3556Y1867D01*
X3543Y1857D01*
X3533Y1844D01*
X3526Y1831D01*
X3521Y1816D01*
X3520Y1800D01*
X3521Y1784D01*
X3526Y1769D01*
X3533Y1756D01*
X3543Y1743D01*
X3556Y1733D01*
X3569Y1726D01*
X3584Y1721D01*
X3600Y1720D01*
X3616Y1721D01*
X3631Y1726D01*
X3644Y1733D01*
X3657Y1743D01*
X3667Y1756D01*
X3674Y1769D01*
X3679Y1784D01*
X3680Y1800D01*
X3679Y1816D01*
X3674Y1831D01*
X3667Y1844D01*
X3657Y1857D01*
X3644Y1867D01*
X3631Y1874D01*
X3616Y1879D01*
X3600Y1880D01*
D02*
G37*
G36*
X1200Y1947D02*
X1188Y1945D01*
X1176Y1941D01*
X1167Y1933D01*
X1159Y1924D01*
X1155Y1912D01*
X1153Y1900D01*
X1155Y1888D01*
X1159Y1876D01*
X1167Y1867D01*
X1176Y1859D01*
X1188Y1855D01*
X1200Y1853D01*
X1212Y1855D01*
X1224Y1859D01*
X1233Y1867D01*
X1241Y1876D01*
X1245Y1888D01*
X1247Y1900D01*
X1245Y1912D01*
X1241Y1924D01*
X1233Y1933D01*
X1224Y1941D01*
X1212Y1945D01*
X1200Y1947D01*
D02*
G37*
G36*
X2450Y2080D02*
X2434Y2079D01*
X2419Y2074D01*
X2406Y2067D01*
X2393Y2057D01*
X2383Y2044D01*
X2376Y2031D01*
X2371Y2016D01*
X2370Y2000D01*
X2371Y1984D01*
X2376Y1969D01*
X2383Y1956D01*
X2393Y1943D01*
X2406Y1933D01*
X2419Y1926D01*
X2434Y1921D01*
X2450Y1920D01*
X2466Y1921D01*
X2481Y1926D01*
X2494Y1933D01*
X2507Y1943D01*
X2517Y1956D01*
X2524Y1969D01*
X2529Y1984D01*
X2530Y2000D01*
X2529Y2016D01*
X2524Y2031D01*
X2517Y2044D01*
X2507Y2057D01*
X2494Y2067D01*
X2481Y2074D01*
X2466Y2079D01*
X2450Y2080D01*
D02*
G37*
G36*
X1100Y1947D02*
X1088Y1945D01*
X1076Y1941D01*
X1067Y1933D01*
X1059Y1924D01*
X1055Y1912D01*
X1053Y1900D01*
X1055Y1888D01*
X1059Y1876D01*
X1067Y1867D01*
X1076Y1859D01*
X1088Y1855D01*
X1100Y1853D01*
X1112Y1855D01*
X1124Y1859D01*
X1133Y1867D01*
X1141Y1876D01*
X1145Y1888D01*
X1147Y1900D01*
X1145Y1912D01*
X1141Y1924D01*
X1133Y1933D01*
X1124Y1941D01*
X1112Y1945D01*
X1100Y1947D01*
D02*
G37*
G36*
X1600Y1873D02*
X1588Y1871D01*
X1576Y1866D01*
X1566Y1859D01*
X1559Y1849D01*
X1554Y1837D01*
X1552Y1825D01*
X1554Y1813D01*
X1559Y1801D01*
X1566Y1791D01*
X1576Y1784D01*
X1588Y1779D01*
X1600Y1777D01*
X1612Y1779D01*
X1624Y1784D01*
X1634Y1791D01*
X1641Y1801D01*
X1646Y1813D01*
X1648Y1825D01*
X1646Y1837D01*
X1641Y1849D01*
X1634Y1859D01*
X1624Y1866D01*
X1612Y1871D01*
X1600Y1873D01*
D02*
G37*
G36*
X1900D02*
X1888Y1871D01*
X1876Y1866D01*
X1866Y1859D01*
X1859Y1849D01*
X1854Y1837D01*
X1852Y1825D01*
X1854Y1813D01*
X1859Y1801D01*
X1866Y1791D01*
X1876Y1784D01*
X1888Y1779D01*
X1900Y1777D01*
X1912Y1779D01*
X1924Y1784D01*
X1934Y1791D01*
X1941Y1801D01*
X1946Y1813D01*
X1948Y1825D01*
X1946Y1837D01*
X1941Y1849D01*
X1934Y1859D01*
X1924Y1866D01*
X1912Y1871D01*
X1900Y1873D01*
D02*
G37*
G36*
X1100Y1747D02*
X1088Y1745D01*
X1076Y1741D01*
X1067Y1733D01*
X1059Y1724D01*
X1055Y1712D01*
X1053Y1700D01*
X1055Y1688D01*
X1059Y1676D01*
X1067Y1667D01*
X1076Y1659D01*
X1088Y1655D01*
X1100Y1653D01*
X1112Y1655D01*
X1124Y1659D01*
X1133Y1667D01*
X1141Y1676D01*
X1145Y1688D01*
X1147Y1700D01*
X1145Y1712D01*
X1141Y1724D01*
X1133Y1733D01*
X1124Y1741D01*
X1112Y1745D01*
X1100Y1747D01*
D02*
G37*
G36*
X3875Y1647D02*
X3863Y1645D01*
X3851Y1641D01*
X3842Y1633D01*
X3834Y1624D01*
X3830Y1612D01*
X3828Y1600D01*
X3830Y1588D01*
X3834Y1576D01*
X3842Y1567D01*
X3851Y1559D01*
X3863Y1555D01*
X3875Y1553D01*
X3887Y1555D01*
X3899Y1559D01*
X3908Y1567D01*
X3916Y1576D01*
X3920Y1588D01*
X3922Y1600D01*
X3920Y1612D01*
X3916Y1624D01*
X3908Y1633D01*
X3899Y1641D01*
X3887Y1645D01*
X3875Y1647D01*
D02*
G37*
G36*
X3802Y1647D02*
X3748D01*
X3740Y1646D01*
X3734Y1641D01*
X3729Y1635D01*
X3728Y1627D01*
Y1573D01*
X3729Y1565D01*
X3734Y1559D01*
X3740Y1554D01*
X3748Y1553D01*
X3802D01*
X3810Y1554D01*
X3816Y1559D01*
X3821Y1565D01*
X3822Y1573D01*
Y1627D01*
X3821Y1635D01*
X3816Y1641D01*
X3810Y1646D01*
X3802Y1647D01*
D02*
G37*
G36*
X2850Y1648D02*
X2838Y1646D01*
X2826Y1641D01*
X2816Y1634D01*
X2809Y1624D01*
X2804Y1612D01*
X2802Y1600D01*
X2804Y1588D01*
X2809Y1576D01*
X2816Y1566D01*
X2826Y1559D01*
X2838Y1554D01*
X2850Y1552D01*
X2862Y1554D01*
X2874Y1559D01*
X2884Y1566D01*
X2891Y1576D01*
X2896Y1588D01*
X2898Y1600D01*
X2896Y1612D01*
X2891Y1624D01*
X2884Y1634D01*
X2874Y1641D01*
X2862Y1646D01*
X2850Y1648D01*
D02*
G37*
G36*
X3520Y1526D02*
Y1522D01*
X3525D01*
X3523Y1524D01*
X3520Y1526D01*
D02*
G37*
G36*
X2550Y1648D02*
X2538Y1646D01*
X2526Y1641D01*
X2516Y1634D01*
X2509Y1624D01*
X2504Y1612D01*
X2502Y1600D01*
X2504Y1588D01*
X2509Y1576D01*
X2516Y1566D01*
X2526Y1559D01*
X2538Y1554D01*
X2550Y1552D01*
X2562Y1554D01*
X2574Y1559D01*
X2584Y1566D01*
X2591Y1576D01*
X2596Y1588D01*
X2598Y1600D01*
X2596Y1612D01*
X2591Y1624D01*
X2584Y1634D01*
X2574Y1641D01*
X2562Y1646D01*
X2550Y1648D01*
D02*
G37*
G36*
X2130Y1897D02*
X2070D01*
X2063Y1895D01*
X2056Y1891D01*
X2052Y1884D01*
X2050Y1877D01*
Y1817D01*
X2052Y1809D01*
X2056Y1803D01*
X2063Y1799D01*
X2070Y1797D01*
X2075D01*
X2076Y1792D01*
X2075Y1792D01*
X2065Y1784D01*
X2057Y1773D01*
X2052Y1761D01*
X2050Y1748D01*
X2052Y1736D01*
X2057Y1724D01*
X2065Y1713D01*
X2075Y1705D01*
X2083Y1702D01*
Y1697D01*
X2075Y1693D01*
X2065Y1685D01*
X2057Y1675D01*
X2052Y1663D01*
X2050Y1650D01*
X2052Y1637D01*
X2057Y1625D01*
X2065Y1615D01*
X2075Y1607D01*
X2087Y1602D01*
X2100Y1600D01*
X2113Y1602D01*
X2125Y1607D01*
X2135Y1615D01*
X2143Y1625D01*
X2148Y1637D01*
X2150Y1650D01*
X2148Y1663D01*
X2143Y1675D01*
X2135Y1685D01*
X2125Y1693D01*
X2117Y1697D01*
Y1702D01*
X2125Y1705D01*
X2135Y1713D01*
X2143Y1724D01*
X2148Y1736D01*
X2150Y1748D01*
X2148Y1761D01*
X2143Y1773D01*
X2135Y1784D01*
X2125Y1792D01*
X2124Y1792D01*
X2125Y1797D01*
X2130D01*
X2137Y1799D01*
X2144Y1803D01*
X2148Y1809D01*
X2150Y1817D01*
Y1877D01*
X2148Y1884D01*
X2144Y1891D01*
X2137Y1895D01*
X2130Y1897D01*
D02*
G37*
G36*
X3248Y1650D02*
X3236Y1648D01*
X3224Y1643D01*
X3213Y1635D01*
X3205Y1625D01*
X3202Y1617D01*
X3197D01*
X3193Y1625D01*
X3185Y1635D01*
X3175Y1643D01*
X3163Y1648D01*
X3150Y1650D01*
X3137Y1648D01*
X3125Y1643D01*
X3115Y1635D01*
X3107Y1625D01*
X3106Y1624D01*
X3101Y1625D01*
Y1630D01*
X3100Y1637D01*
X3095Y1644D01*
X3089Y1648D01*
X3081Y1650D01*
X3022D01*
X3014Y1648D01*
X3008Y1644D01*
X3003Y1637D01*
X3002Y1630D01*
Y1570D01*
X3003Y1563D01*
X3008Y1556D01*
X3014Y1552D01*
X3022Y1550D01*
X3081D01*
X3089Y1552D01*
X3095Y1556D01*
X3100Y1563D01*
X3101Y1570D01*
Y1575D01*
X3106Y1576D01*
X3107Y1575D01*
X3115Y1565D01*
X3125Y1557D01*
X3137Y1552D01*
X3150Y1550D01*
X3163Y1552D01*
X3175Y1557D01*
X3185Y1565D01*
X3193Y1575D01*
X3197Y1583D01*
X3202D01*
X3205Y1575D01*
X3213Y1565D01*
X3224Y1557D01*
X3236Y1552D01*
X3248Y1550D01*
X3261Y1552D01*
X3273Y1557D01*
X3284Y1565D01*
X3292Y1575D01*
X3297Y1587D01*
X3298Y1600D01*
X3297Y1613D01*
X3292Y1625D01*
X3284Y1635D01*
X3273Y1643D01*
X3261Y1648D01*
X3248Y1650D01*
D02*
G37*
G36*
X1900Y1673D02*
X1888Y1671D01*
X1876Y1666D01*
X1866Y1659D01*
X1859Y1649D01*
X1854Y1637D01*
X1852Y1625D01*
X1854Y1613D01*
X1859Y1601D01*
X1866Y1591D01*
X1876Y1584D01*
X1888Y1579D01*
X1900Y1577D01*
X1912Y1579D01*
X1924Y1584D01*
X1934Y1591D01*
X1941Y1601D01*
X1946Y1613D01*
X1948Y1625D01*
X1946Y1637D01*
X1941Y1649D01*
X1934Y1659D01*
X1924Y1666D01*
X1912Y1671D01*
X1900Y1673D01*
D02*
G37*
G36*
X3522Y1642D02*
X3478D01*
X3471Y1640D01*
X3464Y1636D01*
X3460Y1629D01*
X3458Y1622D01*
Y1578D01*
X3460Y1571D01*
X3464Y1564D01*
X3471Y1560D01*
X3478Y1558D01*
X3522D01*
X3529Y1560D01*
X3536Y1564D01*
X3540Y1571D01*
X3542Y1578D01*
Y1622D01*
X3540Y1629D01*
X3536Y1636D01*
X3529Y1640D01*
X3522Y1642D01*
D02*
G37*
G36*
X1600Y1673D02*
X1588Y1671D01*
X1576Y1666D01*
X1566Y1659D01*
X1559Y1649D01*
X1554Y1637D01*
X1552Y1625D01*
X1554Y1613D01*
X1559Y1601D01*
X1566Y1591D01*
X1576Y1584D01*
X1588Y1579D01*
X1600Y1577D01*
X1612Y1579D01*
X1624Y1584D01*
X1634Y1591D01*
X1641Y1601D01*
X1646Y1613D01*
X1648Y1625D01*
X1646Y1637D01*
X1641Y1649D01*
X1634Y1659D01*
X1624Y1666D01*
X1612Y1671D01*
X1600Y1673D01*
D02*
G37*
G36*
X1477Y2562D02*
X1470D01*
Y2545D01*
X1487D01*
Y2552D01*
X1486Y2556D01*
X1484Y2559D01*
X1481Y2561D01*
X1477Y2562D01*
D02*
G37*
G36*
X3529Y3830D02*
X3525D01*
X3527Y3827D01*
X3529Y3825D01*
Y3830D01*
D02*
G37*
G36*
X3574D02*
X3569D01*
Y3825D01*
X3572Y3827D01*
X3574Y3830D01*
D02*
G37*
G36*
X1950Y3898D02*
X1938Y3896D01*
X1926Y3891D01*
X1916Y3884D01*
X1909Y3874D01*
X1904Y3862D01*
X1902Y3850D01*
X1904Y3838D01*
X1909Y3826D01*
X1916Y3816D01*
X1926Y3809D01*
X1938Y3804D01*
X1950Y3802D01*
X1962Y3804D01*
X1974Y3809D01*
X1984Y3816D01*
X1991Y3826D01*
X1996Y3838D01*
X1998Y3850D01*
X1996Y3862D01*
X1991Y3874D01*
X1984Y3884D01*
X1974Y3891D01*
X1962Y3896D01*
X1950Y3898D01*
D02*
G37*
G36*
X2325Y3873D02*
X2313Y3871D01*
X2301Y3866D01*
X2291Y3859D01*
X2284Y3849D01*
X2279Y3837D01*
X2277Y3825D01*
X2279Y3813D01*
X2284Y3801D01*
X2291Y3791D01*
X2301Y3784D01*
X2313Y3779D01*
X2325Y3777D01*
X2337Y3779D01*
X2349Y3784D01*
X2359Y3791D01*
X2366Y3801D01*
X2371Y3813D01*
X2373Y3825D01*
X2371Y3837D01*
X2366Y3849D01*
X2359Y3859D01*
X2349Y3866D01*
X2337Y3871D01*
X2325Y3873D01*
D02*
G37*
G36*
X1650Y3898D02*
X1638Y3896D01*
X1626Y3891D01*
X1616Y3884D01*
X1609Y3874D01*
X1604Y3862D01*
X1602Y3850D01*
X1604Y3838D01*
X1609Y3826D01*
X1616Y3816D01*
X1626Y3809D01*
X1638Y3804D01*
X1650Y3802D01*
X1662Y3804D01*
X1674Y3809D01*
X1684Y3816D01*
X1691Y3826D01*
X1696Y3838D01*
X1698Y3850D01*
X1696Y3862D01*
X1691Y3874D01*
X1684Y3884D01*
X1674Y3891D01*
X1662Y3896D01*
X1650Y3898D01*
D02*
G37*
G36*
X4130Y3855D02*
X4118D01*
X4123Y3848D01*
X4130Y3843D01*
Y3855D01*
D02*
G37*
G36*
Y3907D02*
X4123Y3902D01*
X4118Y3895D01*
X4130D01*
Y3907D01*
D02*
G37*
G36*
X4170D02*
Y3895D01*
X4182D01*
X4177Y3902D01*
X4170Y3907D01*
D02*
G37*
G36*
X3569Y3875D02*
Y3870D01*
X3574D01*
X3572Y3873D01*
X3569Y3875D01*
D02*
G37*
G36*
X4182Y3855D02*
X4170D01*
Y3843D01*
X4177Y3848D01*
X4182Y3855D01*
D02*
G37*
G36*
X3529Y3875D02*
X3527Y3873D01*
X3525Y3870D01*
X3529D01*
Y3875D01*
D02*
G37*
G36*
X2145Y3557D02*
Y3545D01*
X2157D01*
X2152Y3552D01*
X2145Y3557D01*
D02*
G37*
G36*
X2345D02*
Y3545D01*
X2357D01*
X2352Y3552D01*
X2345Y3557D01*
D02*
G37*
G36*
X2305D02*
X2298Y3552D01*
X2293Y3545D01*
X2305D01*
Y3557D01*
D02*
G37*
G36*
X1256Y3555D02*
X1245D01*
Y3544D01*
X1251Y3549D01*
X1256Y3555D01*
D02*
G37*
G36*
X2105Y3557D02*
X2098Y3552D01*
X2093Y3545D01*
X2105D01*
Y3557D01*
D02*
G37*
G36*
X1650Y3673D02*
X1638Y3671D01*
X1626Y3666D01*
X1616Y3659D01*
X1609Y3649D01*
X1604Y3637D01*
X1602Y3625D01*
X1604Y3613D01*
X1609Y3601D01*
X1616Y3591D01*
X1626Y3584D01*
X1638Y3579D01*
X1650Y3577D01*
X1662Y3579D01*
X1674Y3584D01*
X1684Y3591D01*
X1691Y3601D01*
X1696Y3613D01*
X1698Y3625D01*
X1696Y3637D01*
X1691Y3649D01*
X1684Y3659D01*
X1674Y3666D01*
X1662Y3671D01*
X1650Y3673D01*
D02*
G37*
G36*
X1245Y3606D02*
Y3595D01*
X1256D01*
X1251Y3601D01*
X1245Y3606D01*
D02*
G37*
G36*
X2125Y3873D02*
X2113Y3871D01*
X2101Y3866D01*
X2091Y3859D01*
X2084Y3849D01*
X2079Y3837D01*
X2077Y3825D01*
X2079Y3813D01*
X2084Y3801D01*
X2091Y3791D01*
X2101Y3784D01*
X2113Y3779D01*
X2125Y3777D01*
X2137Y3779D01*
X2149Y3784D01*
X2159Y3791D01*
X2166Y3801D01*
X2171Y3813D01*
X2173Y3825D01*
X2171Y3837D01*
X2166Y3849D01*
X2159Y3859D01*
X2149Y3866D01*
X2137Y3871D01*
X2125Y3873D01*
D02*
G37*
G36*
X1205Y3606D02*
X1199Y3601D01*
X1194Y3595D01*
X1205D01*
Y3606D01*
D02*
G37*
G36*
X1950Y3673D02*
X1938Y3671D01*
X1926Y3666D01*
X1916Y3659D01*
X1909Y3649D01*
X1904Y3637D01*
X1902Y3625D01*
X1904Y3613D01*
X1909Y3601D01*
X1916Y3591D01*
X1926Y3584D01*
X1938Y3579D01*
X1950Y3577D01*
X1962Y3579D01*
X1974Y3584D01*
X1984Y3591D01*
X1991Y3601D01*
X1996Y3613D01*
X1998Y3625D01*
X1996Y3637D01*
X1991Y3649D01*
X1984Y3659D01*
X1974Y3666D01*
X1962Y3671D01*
X1950Y3673D01*
D02*
G37*
G36*
X2500D02*
X2488Y3671D01*
X2476Y3666D01*
X2466Y3659D01*
X2459Y3649D01*
X2454Y3637D01*
X2452Y3625D01*
X2454Y3613D01*
X2459Y3601D01*
X2466Y3591D01*
X2476Y3584D01*
X2488Y3579D01*
X2500Y3577D01*
X2512Y3579D01*
X2524Y3584D01*
X2534Y3591D01*
X2541Y3601D01*
X2546Y3613D01*
X2548Y3625D01*
X2546Y3637D01*
X2541Y3649D01*
X2534Y3659D01*
X2524Y3666D01*
X2512Y3671D01*
X2500Y3673D01*
D02*
G37*
G36*
X1270Y4409D02*
Y4270D01*
X1409D01*
X1409Y4275D01*
X1403Y4300D01*
X1393Y4323D01*
X1380Y4344D01*
X1363Y4363D01*
X1344Y4380D01*
X1323Y4393D01*
X1300Y4403D01*
X1275Y4409D01*
X1270Y4409D01*
D02*
G37*
G36*
X4230D02*
X4225Y4409D01*
X4200Y4403D01*
X4177Y4393D01*
X4156Y4380D01*
X4137Y4363D01*
X4120Y4344D01*
X4107Y4323D01*
X4097Y4300D01*
X4091Y4275D01*
X4091Y4270D01*
X4230D01*
Y4409D01*
D02*
G37*
G36*
X1230D02*
X1225Y4409D01*
X1200Y4403D01*
X1177Y4393D01*
X1156Y4380D01*
X1137Y4363D01*
X1120Y4344D01*
X1107Y4323D01*
X1097Y4300D01*
X1091Y4275D01*
X1091Y4270D01*
X1230D01*
Y4409D01*
D02*
G37*
G36*
X2380Y4221D02*
X2368Y4219D01*
X2357Y4215D01*
X2348Y4207D01*
X2340Y4198D01*
X2336Y4187D01*
X2334Y4175D01*
X2336Y4163D01*
X2340Y4152D01*
X2348Y4143D01*
X2357Y4135D01*
X2368Y4131D01*
X2380Y4129D01*
X2392Y4131D01*
X2403Y4135D01*
X2412Y4143D01*
X2420Y4152D01*
X2424Y4163D01*
X2426Y4175D01*
X2424Y4187D01*
X2420Y4198D01*
X2412Y4207D01*
X2403Y4215D01*
X2392Y4219D01*
X2380Y4221D01*
D02*
G37*
G36*
X2070Y4321D02*
X2058Y4319D01*
X2047Y4315D01*
X2038Y4307D01*
X2030Y4298D01*
X2026Y4287D01*
X2024Y4275D01*
X2026Y4263D01*
X2030Y4252D01*
X2038Y4243D01*
X2047Y4235D01*
X2058Y4231D01*
X2070Y4229D01*
X2082Y4231D01*
X2093Y4235D01*
X2102Y4243D01*
X2110Y4252D01*
X2114Y4263D01*
X2116Y4275D01*
X2114Y4287D01*
X2110Y4298D01*
X2102Y4307D01*
X2093Y4315D01*
X2082Y4319D01*
X2070Y4321D01*
D02*
G37*
G36*
X4270Y4409D02*
Y4270D01*
X4409D01*
X4409Y4275D01*
X4403Y4300D01*
X4393Y4323D01*
X4380Y4344D01*
X4363Y4363D01*
X4344Y4380D01*
X4323Y4393D01*
X4300Y4403D01*
X4275Y4409D01*
X4270Y4409D01*
D02*
G37*
G36*
X2719Y4325D02*
Y4320D01*
X2724D01*
X2722Y4323D01*
X2719Y4325D01*
D02*
G37*
G36*
X2096Y4421D02*
X2044D01*
X2037Y4419D01*
X2030Y4415D01*
X2026Y4408D01*
X2024Y4401D01*
Y4349D01*
X2026Y4342D01*
X2030Y4335D01*
X2037Y4331D01*
X2044Y4329D01*
X2096D01*
X2104Y4331D01*
X2110Y4335D01*
X2114Y4342D01*
X2116Y4349D01*
Y4401D01*
X2114Y4408D01*
X2110Y4415D01*
X2104Y4419D01*
X2096Y4421D01*
D02*
G37*
G36*
X2679Y4325D02*
X2677Y4323D01*
X2675Y4320D01*
X2679D01*
Y4325D01*
D02*
G37*
G36*
Y4280D02*
X2675D01*
X2677Y4277D01*
X2679Y4275D01*
Y4280D01*
D02*
G37*
G36*
X2724D02*
X2719D01*
Y4275D01*
X2722Y4277D01*
X2724Y4280D01*
D02*
G37*
G36*
X2100Y4055D02*
X2090D01*
Y4045D01*
X2096Y4050D01*
X2100Y4055D01*
D02*
G37*
G36*
X1230Y4230D02*
X1091D01*
X1091Y4225D01*
X1097Y4200D01*
X1107Y4177D01*
X1120Y4156D01*
X1137Y4137D01*
X1156Y4120D01*
X1177Y4107D01*
X1200Y4097D01*
X1225Y4091D01*
X1230Y4091D01*
Y4230D01*
D02*
G37*
G36*
X2050Y4055D02*
X2040D01*
X2045Y4050D01*
X2050Y4045D01*
Y4055D01*
D02*
G37*
G36*
X1625Y4080D02*
X1609Y4079D01*
X1594Y4074D01*
X1581Y4067D01*
X1568Y4057D01*
X1558Y4044D01*
X1551Y4031D01*
X1546Y4016D01*
X1545Y4000D01*
X1546Y3984D01*
X1551Y3969D01*
X1558Y3956D01*
X1568Y3943D01*
X1581Y3933D01*
X1594Y3926D01*
X1609Y3921D01*
X1625Y3920D01*
X1641Y3921D01*
X1656Y3926D01*
X1669Y3933D01*
X1682Y3943D01*
X1692Y3956D01*
X1699Y3969D01*
X1704Y3984D01*
X1705Y4000D01*
X1704Y4016D01*
X1699Y4031D01*
X1692Y4044D01*
X1682Y4057D01*
X1669Y4067D01*
X1656Y4074D01*
X1641Y4079D01*
X1625Y4080D01*
D02*
G37*
G36*
X2380Y4121D02*
X2368Y4119D01*
X2357Y4115D01*
X2348Y4107D01*
X2340Y4098D01*
X2336Y4087D01*
X2334Y4075D01*
X2336Y4063D01*
X2340Y4052D01*
X2348Y4043D01*
X2357Y4035D01*
X2368Y4031D01*
X2380Y4029D01*
X2392Y4031D01*
X2403Y4035D01*
X2412Y4043D01*
X2420Y4052D01*
X2424Y4063D01*
X2426Y4075D01*
X2424Y4087D01*
X2420Y4098D01*
X2412Y4107D01*
X2403Y4115D01*
X2392Y4119D01*
X2380Y4121D01*
D02*
G37*
G36*
X1409Y4230D02*
X1270D01*
Y4091D01*
X1275Y4091D01*
X1300Y4097D01*
X1323Y4107D01*
X1344Y4120D01*
X1363Y4137D01*
X1380Y4156D01*
X1393Y4177D01*
X1403Y4200D01*
X1409Y4225D01*
X1409Y4230D01*
D02*
G37*
G36*
X2090Y4105D02*
Y4095D01*
X2100D01*
X2096Y4100D01*
X2090Y4105D01*
D02*
G37*
G36*
X2070Y4221D02*
X2058Y4219D01*
X2047Y4215D01*
X2038Y4207D01*
X2030Y4198D01*
X2026Y4187D01*
X2024Y4175D01*
X2026Y4163D01*
X2030Y4152D01*
X2038Y4143D01*
X2047Y4135D01*
X2058Y4131D01*
X2070Y4129D01*
X2082Y4131D01*
X2093Y4135D01*
X2102Y4143D01*
X2110Y4152D01*
X2114Y4163D01*
X2116Y4175D01*
X2114Y4187D01*
X2110Y4198D01*
X2102Y4207D01*
X2093Y4215D01*
X2082Y4219D01*
X2070Y4221D01*
D02*
G37*
G36*
X2050Y4105D02*
X2045Y4100D01*
X2040Y4095D01*
X2050D01*
Y4105D01*
D02*
G37*
G36*
X4230Y4230D02*
X4091D01*
X4091Y4225D01*
X4097Y4200D01*
X4107Y4177D01*
X4120Y4156D01*
X4137Y4137D01*
X4156Y4120D01*
X4177Y4107D01*
X4200Y4097D01*
X4225Y4091D01*
X4230Y4091D01*
Y4230D01*
D02*
G37*
G36*
X4409D02*
X4270D01*
Y4091D01*
X4275Y4091D01*
X4300Y4097D01*
X4323Y4107D01*
X4344Y4120D01*
X4363Y4137D01*
X4380Y4156D01*
X4393Y4177D01*
X4403Y4200D01*
X4409Y4225D01*
X4409Y4230D01*
D02*
G37*
G36*
X4150Y3073D02*
X4138Y3071D01*
X4126Y3066D01*
X4116Y3059D01*
X4109Y3049D01*
X4104Y3037D01*
X4102Y3025D01*
X4104Y3013D01*
X4109Y3001D01*
X4116Y2991D01*
X4126Y2984D01*
X4138Y2979D01*
X4150Y2977D01*
X4162Y2979D01*
X4174Y2984D01*
X4184Y2991D01*
X4191Y3001D01*
X4196Y3013D01*
X4198Y3025D01*
X4196Y3037D01*
X4191Y3049D01*
X4184Y3059D01*
X4174Y3066D01*
X4162Y3071D01*
X4150Y3073D01*
D02*
G37*
G36*
X3250Y3155D02*
X3234Y3154D01*
X3219Y3149D01*
X3206Y3142D01*
X3193Y3132D01*
X3183Y3119D01*
X3176Y3106D01*
X3171Y3091D01*
X3170Y3075D01*
X3171Y3059D01*
X3176Y3044D01*
X3183Y3031D01*
X3193Y3018D01*
X3206Y3008D01*
X3219Y3001D01*
X3234Y2996D01*
X3250Y2995D01*
X3266Y2996D01*
X3281Y3001D01*
X3294Y3008D01*
X3307Y3018D01*
X3317Y3031D01*
X3324Y3044D01*
X3329Y3059D01*
X3330Y3075D01*
X3329Y3091D01*
X3324Y3106D01*
X3317Y3119D01*
X3307Y3132D01*
X3294Y3142D01*
X3281Y3149D01*
X3266Y3154D01*
X3250Y3155D01*
D02*
G37*
G36*
X3925Y3073D02*
X3913Y3071D01*
X3901Y3066D01*
X3891Y3059D01*
X3884Y3049D01*
X3879Y3037D01*
X3877Y3025D01*
X3879Y3013D01*
X3884Y3001D01*
X3891Y2991D01*
X3901Y2984D01*
X3913Y2979D01*
X3925Y2977D01*
X3937Y2979D01*
X3949Y2984D01*
X3959Y2991D01*
X3966Y3001D01*
X3971Y3013D01*
X3973Y3025D01*
X3971Y3037D01*
X3966Y3049D01*
X3959Y3059D01*
X3949Y3066D01*
X3937Y3071D01*
X3925Y3073D01*
D02*
G37*
G36*
X3120Y2823D02*
Y2818D01*
X3125D01*
X3123Y2821D01*
X3120Y2823D01*
D02*
G37*
G36*
X3470D02*
Y2818D01*
X3475D01*
X3473Y2821D01*
X3470Y2823D01*
D02*
G37*
G36*
X3450Y3155D02*
X3434Y3154D01*
X3419Y3149D01*
X3406Y3142D01*
X3393Y3132D01*
X3383Y3119D01*
X3376Y3106D01*
X3371Y3091D01*
X3370Y3075D01*
X3371Y3059D01*
X3376Y3044D01*
X3383Y3031D01*
X3393Y3018D01*
X3406Y3008D01*
X3419Y3001D01*
X3434Y2996D01*
X3450Y2995D01*
X3466Y2996D01*
X3481Y3001D01*
X3494Y3008D01*
X3507Y3018D01*
X3517Y3031D01*
X3524Y3044D01*
X3529Y3059D01*
X3530Y3075D01*
X3529Y3091D01*
X3524Y3106D01*
X3517Y3119D01*
X3507Y3132D01*
X3494Y3142D01*
X3481Y3149D01*
X3466Y3154D01*
X3450Y3155D01*
D02*
G37*
G36*
X2320Y3125D02*
Y3120D01*
X2325D01*
X2323Y3123D01*
X2320Y3125D01*
D02*
G37*
G36*
X3525Y3316D02*
X3513Y3314D01*
X3502Y3310D01*
X3493Y3302D01*
X3485Y3293D01*
X3481Y3282D01*
X3479Y3270D01*
X3481Y3258D01*
X3485Y3247D01*
X3493Y3238D01*
X3502Y3230D01*
X3513Y3226D01*
X3525Y3224D01*
X3537Y3226D01*
X3548Y3230D01*
X3557Y3238D01*
X3565Y3247D01*
X3569Y3258D01*
X3571Y3270D01*
X3569Y3282D01*
X3565Y3293D01*
X3557Y3302D01*
X3548Y3310D01*
X3537Y3314D01*
X3525Y3316D01*
D02*
G37*
G36*
X2280Y3125D02*
X2277Y3123D01*
X2275Y3120D01*
X2280D01*
Y3125D01*
D02*
G37*
G36*
Y3080D02*
X2275D01*
X2277Y3077D01*
X2280Y3075D01*
Y3080D01*
D02*
G37*
G36*
X2325D02*
X2320D01*
Y3075D01*
X2323Y3077D01*
X2325Y3080D01*
D02*
G37*
G36*
X3780Y2728D02*
X3774Y2723D01*
X3769Y2717D01*
X3780D01*
Y2728D01*
D02*
G37*
G36*
X3820D02*
Y2717D01*
X3831D01*
X3826Y2723D01*
X3820Y2728D01*
D02*
G37*
G36*
X3831Y2677D02*
X3820D01*
Y2666D01*
X3826Y2671D01*
X3831Y2677D01*
D02*
G37*
G36*
X4150Y2750D02*
X4137Y2748D01*
X4125Y2743D01*
X4115Y2735D01*
X4107Y2725D01*
X4102Y2713D01*
X4100Y2700D01*
X4102Y2687D01*
X4107Y2675D01*
X4115Y2665D01*
X4125Y2657D01*
X4133Y2653D01*
Y2648D01*
X4125Y2645D01*
X4115Y2637D01*
X4107Y2626D01*
X4102Y2614D01*
X4100Y2602D01*
X4102Y2589D01*
X4107Y2577D01*
X4115Y2566D01*
X4125Y2558D01*
X4137Y2553D01*
X4150Y2552D01*
X4163Y2553D01*
X4175Y2558D01*
X4185Y2566D01*
X4193Y2577D01*
X4198Y2589D01*
X4200Y2602D01*
X4198Y2614D01*
X4193Y2626D01*
X4185Y2637D01*
X4175Y2645D01*
X4167Y2648D01*
Y2653D01*
X4175Y2657D01*
X4185Y2665D01*
X4193Y2675D01*
X4198Y2687D01*
X4200Y2700D01*
X4198Y2713D01*
X4193Y2725D01*
X4185Y2735D01*
X4175Y2743D01*
X4163Y2748D01*
X4150Y2750D01*
D02*
G37*
G36*
X3780Y2677D02*
X3769D01*
X3774Y2671D01*
X3780Y2666D01*
Y2677D01*
D02*
G37*
G36*
X3080Y2778D02*
X3075D01*
X3077Y2776D01*
X3080Y2774D01*
Y2778D01*
D02*
G37*
G36*
Y2823D02*
X3077Y2821D01*
X3075Y2818D01*
X3080D01*
Y2823D01*
D02*
G37*
G36*
X3430D02*
X3427Y2821D01*
X3425Y2818D01*
X3430D01*
Y2823D01*
D02*
G37*
G36*
X3475Y2778D02*
X3470D01*
Y2774D01*
X3473Y2776D01*
X3475Y2778D01*
D02*
G37*
G36*
X3430D02*
X3425D01*
X3427Y2776D01*
X3430Y2774D01*
Y2778D01*
D02*
G37*
G36*
X3125D02*
X3120D01*
Y2774D01*
X3123Y2776D01*
X3125Y2778D01*
D02*
G37*
G36*
X2357Y3505D02*
X2345D01*
Y3493D01*
X2352Y3498D01*
X2357Y3505D01*
D02*
G37*
G36*
X2157D02*
X2145D01*
Y3493D01*
X2152Y3498D01*
X2157Y3505D01*
D02*
G37*
G36*
X2305D02*
X2293D01*
X2298Y3498D01*
X2305Y3493D01*
Y3505D01*
D02*
G37*
G36*
X2672Y3310D02*
Y3295D01*
X2686D01*
X2686Y3295D01*
X2680Y3303D01*
X2672Y3310D01*
X2672Y3310D01*
D02*
G37*
G36*
X2105Y3505D02*
X2093D01*
X2098Y3498D01*
X2105Y3493D01*
Y3505D01*
D02*
G37*
G36*
X4150Y3623D02*
X4138Y3621D01*
X4126Y3616D01*
X4116Y3609D01*
X4109Y3599D01*
X4104Y3587D01*
X4102Y3575D01*
X4104Y3563D01*
X4109Y3551D01*
X4116Y3541D01*
X4126Y3534D01*
X4138Y3529D01*
X4150Y3527D01*
X4162Y3529D01*
X4174Y3534D01*
X4184Y3541D01*
X4191Y3551D01*
X4196Y3563D01*
X4198Y3575D01*
X4196Y3587D01*
X4191Y3599D01*
X4184Y3609D01*
X4174Y3616D01*
X4162Y3621D01*
X4150Y3623D01*
D02*
G37*
G36*
X3725Y3626D02*
X3713Y3624D01*
X3702Y3620D01*
X3693Y3612D01*
X3685Y3603D01*
X3681Y3592D01*
X3679Y3580D01*
X3681Y3568D01*
X3685Y3557D01*
X3693Y3548D01*
X3702Y3540D01*
X3713Y3536D01*
X3725Y3534D01*
X3737Y3536D01*
X3748Y3540D01*
X3757Y3548D01*
X3765Y3557D01*
X3769Y3568D01*
X3771Y3580D01*
X3769Y3592D01*
X3765Y3603D01*
X3757Y3612D01*
X3748Y3620D01*
X3737Y3624D01*
X3725Y3626D01*
D02*
G37*
G36*
X1205Y3555D02*
X1194D01*
X1199Y3549D01*
X1205Y3544D01*
Y3555D01*
D02*
G37*
G36*
X3625Y3626D02*
X3613Y3624D01*
X3602Y3620D01*
X3593Y3612D01*
X3585Y3603D01*
X3581Y3592D01*
X3579Y3580D01*
X3581Y3568D01*
X3585Y3557D01*
X3593Y3548D01*
X3602Y3540D01*
X3613Y3536D01*
X3625Y3534D01*
X3637Y3536D01*
X3648Y3540D01*
X3657Y3548D01*
X3665Y3557D01*
X3669Y3568D01*
X3671Y3580D01*
X3669Y3592D01*
X3665Y3603D01*
X3657Y3612D01*
X3648Y3620D01*
X3637Y3624D01*
X3625Y3626D01*
D02*
G37*
G36*
X1325Y3622D02*
X1313Y3620D01*
X1301Y3616D01*
X1292Y3608D01*
X1284Y3599D01*
X1280Y3587D01*
X1278Y3575D01*
X1280Y3563D01*
X1284Y3551D01*
X1292Y3542D01*
X1301Y3534D01*
X1313Y3530D01*
X1325Y3528D01*
X1337Y3530D01*
X1349Y3534D01*
X1358Y3542D01*
X1366Y3551D01*
X1370Y3563D01*
X1372Y3575D01*
X1370Y3587D01*
X1366Y3599D01*
X1358Y3608D01*
X1349Y3616D01*
X1337Y3620D01*
X1325Y3622D01*
D02*
G37*
G36*
X2425Y4425D02*
X2380D01*
X2367Y4423D01*
X2355Y4418D01*
X2344Y4410D01*
X2337Y4400D01*
X2332Y4388D01*
X2330Y4375D01*
X2332Y4362D01*
X2337Y4350D01*
X2344Y4340D01*
X2355Y4332D01*
X2367Y4327D01*
X2376Y4325D01*
Y4320D01*
X2368Y4319D01*
X2357Y4315D01*
X2348Y4307D01*
X2340Y4298D01*
X2336Y4287D01*
X2334Y4275D01*
X2336Y4263D01*
X2340Y4252D01*
X2348Y4243D01*
X2357Y4235D01*
X2368Y4231D01*
X2380Y4229D01*
X2392Y4231D01*
X2403Y4235D01*
X2412Y4243D01*
X2420Y4252D01*
X2424Y4263D01*
X2426Y4275D01*
X2424Y4287D01*
X2420Y4298D01*
X2412Y4307D01*
X2403Y4315D01*
X2392Y4319D01*
X2387Y4320D01*
X2387Y4325D01*
X2404D01*
X2465Y4265D01*
X2475Y4257D01*
X2487Y4252D01*
X2500Y4250D01*
X2551D01*
Y4071D01*
X2465Y3985D01*
X2457Y3974D01*
X2452Y3962D01*
X2450Y3949D01*
Y3925D01*
X2452Y3912D01*
X2457Y3900D01*
X2465Y3890D01*
X2798Y3556D01*
Y3477D01*
X2794Y3474D01*
X2790Y3476D01*
X2777Y3477D01*
X1618D01*
X1605Y3476D01*
X1593Y3471D01*
X1583Y3463D01*
X1545Y3425D01*
X1340D01*
X1339Y3430D01*
X1349Y3434D01*
X1358Y3442D01*
X1366Y3451D01*
X1370Y3463D01*
X1372Y3475D01*
X1370Y3487D01*
X1366Y3499D01*
X1358Y3508D01*
X1349Y3516D01*
X1337Y3520D01*
X1325Y3522D01*
X1313Y3520D01*
X1301Y3516D01*
X1292Y3508D01*
X1284Y3499D01*
X1280Y3487D01*
X1278Y3475D01*
X1280Y3463D01*
X1284Y3451D01*
X1292Y3442D01*
X1301Y3434D01*
X1313Y3430D01*
X1317Y3429D01*
Y3424D01*
X1312Y3423D01*
X1309Y3422D01*
X1298D01*
X1290Y3421D01*
X1284Y3416D01*
X1279Y3410D01*
X1278Y3402D01*
Y3391D01*
X1278Y3391D01*
X1272D01*
X1268Y3400D01*
X1260Y3410D01*
X1250Y3418D01*
X1238Y3423D01*
X1233Y3424D01*
Y3429D01*
X1237Y3430D01*
X1249Y3434D01*
X1258Y3442D01*
X1266Y3451D01*
X1270Y3463D01*
X1272Y3475D01*
X1270Y3487D01*
X1266Y3499D01*
X1258Y3508D01*
X1249Y3516D01*
X1237Y3520D01*
X1225Y3522D01*
X1213Y3520D01*
X1201Y3516D01*
X1192Y3508D01*
X1184Y3499D01*
X1180Y3487D01*
X1178Y3475D01*
X1180Y3463D01*
X1184Y3451D01*
X1192Y3442D01*
X1201Y3434D01*
X1213Y3430D01*
X1217Y3429D01*
Y3424D01*
X1212Y3423D01*
X1200Y3418D01*
X1190Y3410D01*
X1182Y3400D01*
X1177Y3388D01*
X1175Y3375D01*
Y3175D01*
X1177Y3162D01*
X1182Y3150D01*
X1190Y3140D01*
X1363Y2966D01*
X1373Y2958D01*
X1385Y2953D01*
X1398Y2951D01*
X2279D01*
X2400Y2831D01*
Y2721D01*
X2354Y2675D01*
X2346D01*
X2345Y2680D01*
X2350Y2682D01*
X2360Y2690D01*
X2368Y2700D01*
X2373Y2712D01*
X2375Y2725D01*
X2373Y2738D01*
X2368Y2750D01*
X2360Y2760D01*
X2350Y2768D01*
X2338Y2773D01*
X2325Y2775D01*
X2312Y2773D01*
X2300Y2768D01*
X2290Y2760D01*
X2282Y2750D01*
X2277Y2738D01*
X2275Y2725D01*
X2277Y2712D01*
X2282Y2700D01*
X2290Y2690D01*
X2300Y2682D01*
X2310Y2678D01*
Y2673D01*
X2300Y2668D01*
X2290Y2660D01*
X2282Y2650D01*
X2277Y2638D01*
X2275Y2625D01*
X2277Y2612D01*
X2282Y2600D01*
X2290Y2590D01*
X2300Y2582D01*
X2310Y2577D01*
Y2572D01*
X2300Y2568D01*
X2290Y2560D01*
X2282Y2550D01*
X2277Y2538D01*
X2275Y2525D01*
X2277Y2512D01*
X2282Y2500D01*
X2290Y2490D01*
X2300Y2482D01*
X2312Y2477D01*
X2325Y2475D01*
X2338Y2477D01*
X2350Y2482D01*
X2360Y2490D01*
X2368Y2500D01*
X2373Y2512D01*
X2375Y2525D01*
X2373Y2538D01*
X2368Y2550D01*
X2360Y2560D01*
X2350Y2568D01*
X2345Y2570D01*
X2346Y2575D01*
X2375D01*
X2388Y2577D01*
X2400Y2582D01*
X2410Y2590D01*
X2485Y2665D01*
X2493Y2675D01*
X2498Y2687D01*
X2500Y2700D01*
Y2801D01*
X2778D01*
X2915Y2665D01*
X2925Y2657D01*
X2937Y2652D01*
X2950Y2650D01*
X3079D01*
X3100Y2629D01*
Y2500D01*
X3102Y2487D01*
X3107Y2475D01*
X3109Y2472D01*
X3109Y2470D01*
X3114Y2464D01*
X3120Y2459D01*
X3122Y2459D01*
X3125Y2457D01*
X3137Y2452D01*
X3150Y2450D01*
X3163Y2452D01*
X3175Y2457D01*
X3178Y2459D01*
X3180Y2459D01*
X3186Y2464D01*
X3191Y2470D01*
X3191Y2472D01*
X3193Y2475D01*
X3198Y2487D01*
X3200Y2500D01*
Y2650D01*
X3400D01*
Y2513D01*
X3402Y2500D01*
X3407Y2488D01*
X3415Y2477D01*
X3427Y2465D01*
X3438Y2457D01*
X3450Y2452D01*
X3463Y2450D01*
X3476Y2452D01*
X3488Y2457D01*
X3498Y2465D01*
X3506Y2475D01*
X3511Y2487D01*
X3513Y2500D01*
X3511Y2513D01*
X3506Y2525D01*
X3500Y2533D01*
Y2700D01*
X3498Y2713D01*
X3493Y2725D01*
X3490Y2729D01*
X3490Y2729D01*
X3486Y2736D01*
X3479Y2740D01*
X3479Y2740D01*
X3475Y2743D01*
X3463Y2748D01*
X3450Y2750D01*
X2971D01*
X2834Y2887D01*
X2823Y2895D01*
X2811Y2900D01*
X2798Y2902D01*
X2471D01*
X2337Y3035D01*
X2336Y3037D01*
X2329Y3042D01*
X2329Y3042D01*
X2325Y3045D01*
X2313Y3050D01*
X2300Y3052D01*
X1419D01*
X1275Y3196D01*
Y3339D01*
X1275Y3339D01*
X1280Y3339D01*
X1284Y3334D01*
X1290Y3329D01*
X1298Y3328D01*
X1309D01*
X1312Y3327D01*
X1325Y3325D01*
X1566D01*
X1579Y3327D01*
X1591Y3332D01*
X1599Y3338D01*
X1600Y3338D01*
X1604Y3336D01*
X1605Y3336D01*
X1609Y3326D01*
X1616Y3316D01*
X1626Y3309D01*
X1638Y3304D01*
X1650Y3302D01*
X1662Y3304D01*
X1674Y3309D01*
X1684Y3316D01*
X1691Y3326D01*
X1696Y3338D01*
X1698Y3350D01*
X1696Y3362D01*
X1692Y3372D01*
X1694Y3377D01*
X1906D01*
X1908Y3372D01*
X1904Y3362D01*
X1902Y3350D01*
X1904Y3338D01*
X1909Y3326D01*
X1916Y3316D01*
X1926Y3309D01*
X1938Y3304D01*
X1950Y3302D01*
X1962Y3304D01*
X1974Y3309D01*
X1984Y3316D01*
X1991Y3326D01*
X1996Y3338D01*
X1998Y3350D01*
X1996Y3362D01*
X1992Y3372D01*
X1994Y3377D01*
X2756D01*
X2798Y3335D01*
Y3300D01*
X2793Y3299D01*
X2793Y3300D01*
X2785Y3310D01*
X2775Y3318D01*
X2763Y3323D01*
X2750Y3325D01*
X2737Y3323D01*
X2725Y3318D01*
X2715Y3310D01*
X2707Y3300D01*
X2702Y3288D01*
X2700Y3275D01*
X2702Y3262D01*
X2707Y3250D01*
X2715Y3240D01*
X2725Y3232D01*
X2737Y3227D01*
X2750Y3225D01*
X2763Y3227D01*
X2775Y3232D01*
X2785Y3240D01*
X2793Y3250D01*
X2794Y3251D01*
X2799Y3250D01*
Y3245D01*
X2800Y3238D01*
X2805Y3231D01*
X2811Y3227D01*
X2819Y3225D01*
X2846D01*
X2848Y3225D01*
X2851Y3225D01*
X2878D01*
X2886Y3227D01*
X2892Y3231D01*
X2897Y3238D01*
X2898Y3245D01*
Y3272D01*
X2899Y3275D01*
Y3328D01*
X2921Y3350D01*
X3245D01*
X3258Y3352D01*
X3270Y3357D01*
X3281Y3365D01*
X3460Y3544D01*
X3460Y3544D01*
X3479Y3563D01*
X3483Y3562D01*
X3485Y3557D01*
X3493Y3548D01*
X3502Y3540D01*
X3513Y3536D01*
X3525Y3534D01*
X3537Y3536D01*
X3548Y3540D01*
X3557Y3548D01*
X3565Y3557D01*
X3569Y3568D01*
X3571Y3580D01*
X3569Y3592D01*
X3565Y3603D01*
X3557Y3612D01*
X3548Y3620D01*
X3537Y3624D01*
X3525Y3626D01*
X3513Y3624D01*
X3505Y3621D01*
X3500Y3624D01*
Y3841D01*
X3501Y3850D01*
X3499Y3863D01*
X3494Y3875D01*
X3491Y3879D01*
X3491Y3879D01*
X3487Y3886D01*
X3480Y3890D01*
X3480Y3890D01*
X3476Y3893D01*
X3464Y3898D01*
X3451Y3900D01*
X3438Y3898D01*
X3426Y3893D01*
X3422Y3890D01*
X3421Y3890D01*
X3415Y3886D01*
X3412Y3881D01*
X3406Y3874D01*
X3401Y3862D01*
X3399Y3849D01*
Y3625D01*
X3390Y3615D01*
X3390Y3615D01*
X3224Y3450D01*
X2900D01*
X2899Y3451D01*
Y3577D01*
X2897Y3590D01*
X2892Y3602D01*
X2884Y3612D01*
X2559Y3937D01*
X2636Y4015D01*
X2644Y4025D01*
X2649Y4037D01*
X2651Y4050D01*
Y4300D01*
X2649Y4313D01*
X2644Y4325D01*
X2641Y4329D01*
X2641Y4329D01*
X2637Y4336D01*
X2630Y4340D01*
X2630Y4340D01*
X2626Y4343D01*
X2614Y4348D01*
X2601Y4350D01*
X2521D01*
X2460Y4410D01*
X2450Y4418D01*
X2438Y4423D01*
X2425Y4425D01*
D02*
G37*
G36*
X2686Y3255D02*
X2672D01*
Y3240D01*
X2672Y3240D01*
X2680Y3247D01*
X2686Y3255D01*
X2686Y3255D01*
D02*
G37*
G36*
X3705Y3250D02*
X3695D01*
X3700Y3245D01*
X3705Y3240D01*
Y3250D01*
D02*
G37*
G36*
X2632Y3255D02*
X2617D01*
X2617Y3255D01*
X2623Y3247D01*
X2632Y3240D01*
X2632Y3240D01*
Y3255D01*
D02*
G37*
G36*
X3625Y3316D02*
X3613Y3314D01*
X3602Y3310D01*
X3593Y3302D01*
X3585Y3293D01*
X3581Y3282D01*
X3579Y3270D01*
X3581Y3258D01*
X3585Y3247D01*
X3593Y3238D01*
X3602Y3230D01*
X3613Y3226D01*
X3625Y3224D01*
X3637Y3226D01*
X3648Y3230D01*
X3657Y3238D01*
X3665Y3247D01*
X3669Y3258D01*
X3671Y3270D01*
X3669Y3282D01*
X3665Y3293D01*
X3657Y3302D01*
X3648Y3310D01*
X3637Y3314D01*
X3625Y3316D01*
D02*
G37*
G36*
X3451Y3316D02*
X3399D01*
X3392Y3314D01*
X3385Y3310D01*
X3381Y3304D01*
X3379Y3296D01*
Y3244D01*
X3381Y3237D01*
X3385Y3230D01*
X3392Y3226D01*
X3399Y3224D01*
X3451D01*
X3458Y3226D01*
X3465Y3230D01*
X3469Y3237D01*
X3471Y3244D01*
Y3296D01*
X3469Y3304D01*
X3465Y3310D01*
X3458Y3314D01*
X3451Y3316D01*
D02*
G37*
G36*
X3755Y3250D02*
X3745D01*
Y3240D01*
X3750Y3245D01*
X3755Y3250D01*
D02*
G37*
G36*
X3745Y3300D02*
Y3290D01*
X3755D01*
X3750Y3296D01*
X3745Y3300D01*
D02*
G37*
G36*
X2632Y3310D02*
X2632Y3310D01*
X2623Y3303D01*
X2617Y3295D01*
X2617Y3295D01*
X2632D01*
Y3310D01*
D02*
G37*
G36*
X3705Y3300D02*
X3700Y3296D01*
X3695Y3290D01*
X3705D01*
Y3300D01*
D02*
G37*
G36*
X3925Y3373D02*
X3913Y3371D01*
X3901Y3366D01*
X3891Y3359D01*
X3884Y3349D01*
X3879Y3337D01*
X3877Y3325D01*
X3879Y3313D01*
X3884Y3301D01*
X3891Y3291D01*
X3901Y3284D01*
X3913Y3279D01*
X3925Y3277D01*
X3937Y3279D01*
X3949Y3284D01*
X3959Y3291D01*
X3966Y3301D01*
X3971Y3313D01*
X3973Y3325D01*
X3971Y3337D01*
X3966Y3349D01*
X3959Y3359D01*
X3949Y3366D01*
X3937Y3371D01*
X3925Y3373D01*
D02*
G37*
G36*
X4150D02*
X4138Y3371D01*
X4126Y3366D01*
X4116Y3359D01*
X4109Y3349D01*
X4104Y3337D01*
X4102Y3325D01*
X4104Y3313D01*
X4109Y3301D01*
X4116Y3291D01*
X4126Y3284D01*
X4138Y3279D01*
X4150Y3277D01*
X4162Y3279D01*
X4174Y3284D01*
X4184Y3291D01*
X4191Y3301D01*
X4196Y3313D01*
X4198Y3325D01*
X4196Y3337D01*
X4191Y3349D01*
X4184Y3359D01*
X4174Y3366D01*
X4162Y3371D01*
X4150Y3373D01*
D02*
G37*
%LPD*%
D11*
X2609Y2050D02*
X2800D01*
X2234Y2425D02*
X2609Y2050D01*
X2025Y2425D02*
X2234D01*
D13*
X1250Y1250D02*
D03*
X4250D02*
D03*
Y4250D02*
D03*
X1250D02*
D03*
D14*
X1625Y4000D02*
D03*
X3450Y3075D02*
D03*
X3250D02*
D03*
X3600Y1800D02*
D03*
X4050Y2000D02*
D03*
X1125Y2350D02*
D03*
Y2550D02*
D03*
X2100Y2150D02*
D03*
Y1450D02*
D03*
X2450Y2000D02*
D03*
D15*
X3451Y3850D02*
D03*
X2601Y4300D02*
D03*
X2900Y2400D02*
D03*
D16*
X3549Y3850D02*
D03*
X3500Y1502D02*
D03*
X2650Y1351D02*
D03*
X2699Y4300D02*
D03*
X2300Y3100D02*
D03*
X2802Y2400D02*
D03*
X3100Y2798D02*
D03*
X3450D02*
D03*
X2800Y1952D02*
D03*
D17*
X3500Y1600D02*
D03*
X2650Y1449D02*
D03*
X2300Y3002D02*
D03*
X3100Y2700D02*
D03*
X3450D02*
D03*
X2800Y2050D02*
D03*
D18*
X2450Y1775D02*
D03*
Y1475D02*
D03*
X1900Y2025D02*
D03*
X1600D02*
D03*
X1900Y1825D02*
D03*
X1600D02*
D03*
X1900Y1625D02*
D03*
X1600D02*
D03*
X1900Y1425D02*
D03*
X1600D02*
D03*
X3925Y3325D02*
D03*
Y3025D02*
D03*
X4150D02*
D03*
Y3325D02*
D03*
Y3875D02*
D03*
Y3575D02*
D03*
X2325Y3825D02*
D03*
Y3525D02*
D03*
X1650Y3350D02*
D03*
X1950D02*
D03*
X2125Y3825D02*
D03*
Y3525D02*
D03*
X1650Y3850D02*
D03*
X1950D02*
D03*
X2500Y3925D02*
D03*
Y3625D02*
D03*
X1650D02*
D03*
X1950D02*
D03*
X2550Y1600D02*
D03*
X2850D02*
D03*
D19*
X4150Y2700D02*
D03*
Y2602D02*
D03*
X2652Y3275D02*
D03*
X2750D02*
D03*
X3248Y1600D02*
D03*
X3150D02*
D03*
X2100Y1650D02*
D03*
Y1748D02*
D03*
D20*
X4150Y2503D02*
D03*
X2100Y1847D02*
D03*
D21*
X3875Y1500D02*
D03*
X3775D02*
D03*
X3875Y1600D02*
D03*
X1550Y2425D02*
D03*
X1450D02*
D03*
X1550Y2525D02*
D03*
X1100Y2000D02*
D03*
X1200D02*
D03*
X1100Y1900D02*
D03*
X1200D02*
D03*
X1100Y1800D02*
D03*
X1200D02*
D03*
X1100Y1700D02*
D03*
X1225Y3575D02*
D03*
X1325D02*
D03*
X1225Y3475D02*
D03*
X1325D02*
D03*
X1225Y3375D02*
D03*
D22*
X3775Y1600D02*
D03*
X1450Y2525D02*
D03*
X1200Y1700D02*
D03*
X1325Y3375D02*
D03*
D23*
X2848Y3275D02*
D03*
X3052Y1600D02*
D03*
D24*
X2070Y4175D02*
D03*
Y4275D02*
D03*
Y4075D02*
D03*
X2380D02*
D03*
Y4375D02*
D03*
Y4175D02*
D03*
Y4275D02*
D03*
X3525Y3580D02*
D03*
X3625D02*
D03*
X3425D02*
D03*
X3725D02*
D03*
Y3270D02*
D03*
X3525D02*
D03*
X3625D02*
D03*
D25*
X2070Y4375D02*
D03*
D26*
X3425Y3270D02*
D03*
D27*
X3463Y2500D02*
D03*
Y2400D02*
D03*
Y2300D02*
D03*
Y2200D02*
D03*
X3150D02*
D03*
Y2300D02*
D03*
Y2400D02*
D03*
D28*
Y2500D02*
D03*
D29*
X2325Y2725D02*
D03*
Y2625D02*
D03*
Y2525D02*
D03*
Y2425D02*
D03*
X2025D02*
D03*
Y2525D02*
D03*
Y2625D02*
D03*
D30*
Y2725D02*
D03*
D31*
X3600Y1992D02*
D03*
D32*
Y2400D02*
D03*
D33*
X3800Y2500D02*
D03*
Y2697D02*
D03*
D34*
X3450Y3849D02*
X3451Y3850D01*
X3450Y3604D02*
Y3849D01*
X3450Y2513D02*
X3463Y2500D01*
X3450Y2513D02*
Y2700D01*
X3100D02*
X3450D01*
X3150Y2500D02*
Y2650D01*
X3100Y2700D02*
X3150Y2650D01*
X2950Y2700D02*
X3100D01*
X2798Y2852D02*
X2950Y2700D01*
X2450Y2852D02*
X2798D01*
X2500Y3925D02*
Y3949D01*
X2601Y4050D01*
Y4300D01*
X2500D02*
X2601D01*
X2380Y4375D02*
X2425D01*
X2500Y4300D01*
X2848Y3356D02*
Y3577D01*
Y3348D02*
Y3356D01*
X2500Y3925D02*
X2848Y3577D01*
X1225Y3175D02*
Y3375D01*
Y3175D02*
X1398Y3002D01*
X2300D01*
X2450Y2852D01*
Y2700D02*
Y2852D01*
X2375Y2625D02*
X2450Y2700D01*
X2325Y2625D02*
X2375D01*
X1325Y3375D02*
X1566D01*
X1618Y3427D01*
X2777D01*
X2848Y3356D01*
Y3275D02*
Y3348D01*
X2900Y3400D01*
X3245D01*
X3425Y3580D01*
X3450Y3604D01*
%TF.MD5,84f59efb3b850301f7bf4558006223b3*%
M02*
