G04 Layer_Color=32768*
%FSLAX23Y23*%
%MOIN*%
%TF.FileFunction,Other,Mechanical_15*%
%TF.Part,Single*%
G01*
G75*
%TA.AperFunction,NonConductor*%
%ADD65C,0.002*%
D65*
X3634Y3850D02*
G03*
X3634Y3850I-134J0D01*
G01*
Y1551D02*
G03*
X3634Y1551I-134J0D01*
G01*
X2784Y1400D02*
G03*
X2784Y1400I-134J0D01*
G01*
Y4300D02*
G03*
X2784Y4300I-134J0D01*
G01*
X2434Y3051D02*
G03*
X2434Y3051I-134J0D01*
G01*
X2985Y2400D02*
G03*
X2985Y2400I-134J0D01*
G01*
X3234Y2749D02*
G03*
X3234Y2749I-134J0D01*
G01*
X3584D02*
G03*
X3584Y2749I-134J0D01*
G01*
X2934Y2001D02*
G03*
X2934Y2001I-134J0D01*
G01*
X3987Y2598D02*
G03*
X3987Y2598I-187J0D01*
G01*
X4045Y2404D02*
Y2799D01*
X4255D01*
Y2404D02*
Y2799D01*
X4045Y2404D02*
X4255D01*
X3715Y1440D02*
Y1660D01*
Y1440D02*
X3935D01*
Y1660D01*
X3715D02*
X3935D01*
X2553Y3170D02*
X2947D01*
X2553D02*
Y3380D01*
X2947D01*
Y3170D02*
Y3380D01*
X2953Y1705D02*
X3347D01*
Y1495D02*
Y1705D01*
X2953Y1495D02*
X3347D01*
X2953D02*
Y1705D01*
X2023Y4020D02*
X2427D01*
Y4430D01*
X2023D02*
X2427D01*
X2023Y4020D02*
Y4430D01*
X3370Y3223D02*
X3780D01*
X3370D02*
Y3627D01*
X3780D01*
Y3223D02*
Y3627D01*
X1748Y2344D02*
X1902D01*
X1748Y2648D02*
X1902D01*
Y2344D02*
Y2648D01*
X1748Y2344D02*
Y2648D01*
X1390Y2365D02*
Y2585D01*
Y2365D02*
X1610D01*
Y2585D01*
X1390D02*
X1610D01*
X1260Y1640D02*
Y2060D01*
X1040D02*
X1260D01*
X1040Y1640D02*
Y2060D01*
Y1640D02*
X1260D01*
X1460Y3165D02*
Y3785D01*
X1077D02*
X1460D01*
X1077Y3165D02*
Y3785D01*
Y3165D02*
X1460D01*
X2205Y1551D02*
Y1946D01*
X1995Y1551D02*
X2205D01*
X1995D02*
Y1946D01*
X2205D01*
X3118Y2151D02*
Y2549D01*
X3495Y2151D02*
Y2549D01*
X3118Y2151D02*
X3495D01*
X3118Y2549D02*
X3495D01*
X3656Y1951D02*
Y2441D01*
X3544Y1951D02*
X3656D01*
X3544D02*
Y2441D01*
X3656D01*
%TF.MD5,43b67e6c8593d5ef6585f8a39c847e96*%
M02*
