G04 Layer_Color=65535*
%FSLAX23Y23*%
%MOIN*%
%TF.FileFunction,Legend,Top*%
%TF.Part,Single*%
G01*
G75*
%TA.AperFunction,NonConductor*%
%ADD58C,0.005*%
%ADD59C,0.008*%
%ADD60C,0.006*%
%ADD61C,0.040*%
%ADD62C,0.010*%
D58*
X3624Y3850D02*
G03*
X3624Y3850I-124J0D01*
G01*
Y1551D02*
G03*
X3624Y1551I-124J0D01*
G01*
X2774Y1400D02*
G03*
X2774Y1400I-124J0D01*
G01*
Y4300D02*
G03*
X2774Y4300I-124J0D01*
G01*
X2424Y3051D02*
G03*
X2424Y3051I-124J0D01*
G01*
X2975Y2400D02*
G03*
X2975Y2400I-124J0D01*
G01*
X3224Y2749D02*
G03*
X3224Y2749I-124J0D01*
G01*
X3574D02*
G03*
X3574Y2749I-124J0D01*
G01*
X2924Y2001D02*
G03*
X2924Y2001I-124J0D01*
G01*
X3977Y2598D02*
G03*
X3977Y2598I-177J0D01*
G01*
X4245Y2414D02*
Y2789D01*
X4055D02*
X4245D01*
X4055Y2414D02*
Y2789D01*
Y2414D02*
X4245D01*
X2562Y3370D02*
X2938D01*
X2562Y3180D02*
Y3370D01*
Y3180D02*
X2938D01*
Y3370D01*
X2962Y1505D02*
X3338D01*
Y1695D01*
X2962D02*
X3338D01*
X2962Y1505D02*
Y1695D01*
X2100Y4414D02*
X2350D01*
X2100Y4036D02*
X2350D01*
X3764Y3300D02*
Y3550D01*
X3386Y3300D02*
Y3550D01*
X1758Y2443D02*
Y2549D01*
X1892Y2443D02*
Y2549D01*
X1450Y3175D02*
Y3775D01*
X1087Y3175D02*
Y3775D01*
X1450D01*
X1087Y3175D02*
X1450D01*
X2005Y1561D02*
Y1936D01*
Y1561D02*
X2195D01*
Y1936D01*
X2005D02*
X2195D01*
X3181Y2161D02*
X3431D01*
X3181Y2539D02*
X3431D01*
X3646Y2104D02*
Y2289D01*
X3600Y2104D02*
X3646D01*
X3554D02*
X3600D01*
X3554D02*
Y2289D01*
X3600D01*
X3646D01*
X3600Y2036D02*
Y2104D01*
Y2289D02*
Y2356D01*
D59*
X3350Y3850D02*
G03*
X3350Y3850I-4J0D01*
G01*
X3504Y1704D02*
G03*
X3504Y1704I-4J0D01*
G01*
X2654Y1554D02*
G03*
X2654Y1554I-4J0D01*
G01*
X4154Y2385D02*
G03*
X4154Y2385I-4J0D01*
G01*
X3779Y1676D02*
G03*
X3779Y1676I-4J0D01*
G01*
X2970Y3275D02*
G03*
X2970Y3275I-4J0D01*
G01*
X2937Y1600D02*
G03*
X2937Y1600I-4J0D01*
G01*
X2038Y4416D02*
G03*
X2038Y4416I-4J0D01*
G01*
X2500Y4300D02*
G03*
X2500Y4300I-4J0D01*
G01*
X2304Y2897D02*
G03*
X2304Y2897I-4J0D01*
G01*
X3388Y3234D02*
G03*
X3388Y3234I-4J0D01*
G01*
X1454Y2601D02*
G03*
X1454Y2601I-4J0D01*
G01*
X1204Y1624D02*
G03*
X1204Y1624I-4J0D01*
G01*
X1329Y3149D02*
G03*
X1329Y3149I-4J0D01*
G01*
X2104Y1965D02*
G03*
X2104Y1965I-4J0D01*
G01*
X3008Y2400D02*
G03*
X3008Y2400I-4J0D01*
G01*
X3104Y2596D02*
G03*
X3104Y2596I-4J0D01*
G01*
X3454D02*
G03*
X3454Y2596I-4J0D01*
G01*
X2804Y2154D02*
G03*
X2804Y2154I-4J0D01*
G01*
X3112Y2500D02*
G03*
X3112Y2500I-4J0D01*
G01*
X3604Y2452D02*
G03*
X3604Y2452I-4J0D01*
G01*
X2450Y1516D02*
Y1525D01*
Y1725D02*
Y1734D01*
X2420Y1525D02*
X2450D01*
X2420D02*
Y1725D01*
X2480D01*
Y1525D02*
Y1725D01*
X2450Y1525D02*
X2480D01*
X1641Y2025D02*
X1650D01*
X1850D02*
X1859D01*
X1650D02*
Y2055D01*
X1850D01*
Y1995D02*
Y2055D01*
X1650Y1995D02*
X1850D01*
X1650D02*
Y2025D01*
X1641Y1825D02*
X1650D01*
X1850D02*
X1859D01*
X1650D02*
Y1855D01*
X1850D01*
Y1795D02*
Y1855D01*
X1650Y1795D02*
X1850D01*
X1650D02*
Y1825D01*
X1641Y1625D02*
X1650D01*
X1850D02*
X1859D01*
X1650D02*
Y1655D01*
X1850D01*
Y1595D02*
Y1655D01*
X1650Y1595D02*
X1850D01*
X1650D02*
Y1625D01*
X1641Y1425D02*
X1650D01*
X1850D02*
X1859D01*
X1650D02*
Y1455D01*
X1850D01*
Y1395D02*
Y1455D01*
X1650Y1395D02*
X1850D01*
X1650D02*
Y1425D01*
X3925Y3066D02*
Y3075D01*
Y3275D02*
Y3284D01*
X3895Y3075D02*
X3925D01*
X3895D02*
Y3275D01*
X3955D01*
Y3075D02*
Y3275D01*
X3925Y3075D02*
X3955D01*
X4150Y3275D02*
Y3284D01*
Y3066D02*
Y3075D01*
Y3275D02*
X4180D01*
Y3075D02*
Y3275D01*
X4120Y3075D02*
X4180D01*
X4120D02*
Y3275D01*
X4150D01*
Y3616D02*
Y3625D01*
Y3825D02*
Y3834D01*
X4120Y3625D02*
X4150D01*
X4120D02*
Y3825D01*
X4180D01*
Y3625D02*
Y3825D01*
X4150Y3625D02*
X4180D01*
X3725Y1450D02*
Y1650D01*
X3925Y1450D02*
Y1650D01*
X3725Y1450D02*
X3925D01*
X3725Y1650D02*
X3925D01*
X2295Y3775D02*
X2325D01*
X2295Y3575D02*
Y3775D01*
Y3575D02*
X2355D01*
Y3775D01*
X2325D02*
X2355D01*
X2325Y3566D02*
Y3575D01*
Y3775D02*
Y3784D01*
X1700Y3320D02*
Y3350D01*
Y3320D02*
X1900D01*
Y3380D01*
X1700D02*
X1900D01*
X1700Y3350D02*
Y3380D01*
X1900Y3350D02*
X1909D01*
X1691D02*
X1700D01*
X2095Y3775D02*
X2125D01*
X2095Y3575D02*
Y3775D01*
Y3575D02*
X2155D01*
Y3775D01*
X2125D02*
X2155D01*
X2125Y3566D02*
Y3575D01*
Y3775D02*
Y3784D01*
X1700Y3820D02*
Y3850D01*
Y3820D02*
X1900D01*
Y3880D01*
X1700D02*
X1900D01*
X1700Y3850D02*
Y3880D01*
X1900Y3850D02*
X1909D01*
X1691D02*
X1700D01*
X2470Y3875D02*
X2500D01*
X2470Y3675D02*
Y3875D01*
Y3675D02*
X2530D01*
Y3875D01*
X2500D02*
X2530D01*
X2500Y3666D02*
Y3675D01*
Y3875D02*
Y3884D01*
X1700Y3595D02*
Y3625D01*
Y3595D02*
X1900D01*
Y3655D01*
X1700D02*
X1900D01*
X1700Y3625D02*
Y3655D01*
X1900Y3625D02*
X1909D01*
X1691D02*
X1700D01*
X2800Y1600D02*
X2809D01*
X2591D02*
X2600D01*
X2800Y1570D02*
Y1600D01*
X2600Y1570D02*
X2800D01*
X2600D02*
Y1630D01*
X2800D01*
Y1600D02*
Y1630D01*
X1400Y2375D02*
Y2575D01*
X1600Y2375D02*
Y2575D01*
X1400Y2375D02*
X1600D01*
X1400Y2575D02*
X1600D01*
X1250Y1650D02*
Y2050D01*
X1050Y1650D02*
Y2050D01*
X1250D01*
X1050Y1650D02*
X1250D01*
D60*
X2163Y2775D02*
G03*
X2187Y2775I12J0D01*
G01*
X2035Y2466D02*
Y2484D01*
Y2566D02*
Y2584D01*
Y2666D02*
Y2682D01*
Y2768D02*
Y2775D01*
X2163D01*
X2187D01*
X2315D01*
Y2375D02*
Y2384D01*
X2035Y2375D02*
X2315D01*
X2035D02*
Y2384D01*
X2315Y2466D02*
Y2484D01*
Y2566D02*
Y2584D01*
Y2666D02*
Y2684D01*
Y2766D02*
Y2775D01*
D61*
X3125Y3625D02*
Y4475D01*
X2950Y3450D02*
X3125Y3625D01*
X1525Y3450D02*
X2950D01*
D62*
X1412Y2340D02*
X1405Y2347D01*
X1392D01*
X1385Y2340D01*
Y2314D01*
X1392Y2307D01*
X1405D01*
X1412Y2314D01*
X1425Y2347D02*
Y2314D01*
X1432Y2307D01*
X1445D01*
X1452Y2314D01*
Y2347D01*
X1465Y2307D02*
Y2347D01*
X1485D01*
X1492Y2340D01*
Y2327D01*
X1485Y2320D01*
X1465D01*
X1478D02*
X1492Y2307D01*
X1505D02*
Y2347D01*
X1525D01*
X1532Y2340D01*
Y2327D01*
X1525Y2320D01*
X1505D01*
X1518D02*
X1532Y2307D01*
X1572Y2347D02*
X1545D01*
Y2307D01*
X1572D01*
X1545Y2327D02*
X1558D01*
X1585Y2307D02*
Y2347D01*
X1612Y2307D01*
Y2347D01*
X1625D02*
X1652D01*
X1638D01*
Y2307D01*
X1385Y2275D02*
Y2235D01*
X1405D01*
X1412Y2242D01*
Y2268D01*
X1405Y2275D01*
X1385D01*
X1425D02*
X1438D01*
X1432D01*
Y2235D01*
X1425D01*
X1438D01*
X1458D02*
Y2275D01*
X1478D01*
X1485Y2268D01*
Y2255D01*
X1478Y2248D01*
X1458D01*
X1472D02*
X1485Y2235D01*
X1525Y2275D02*
X1498D01*
Y2235D01*
X1525D01*
X1498Y2255D02*
X1512D01*
X1565Y2268D02*
X1558Y2275D01*
X1545D01*
X1538Y2268D01*
Y2242D01*
X1545Y2235D01*
X1558D01*
X1565Y2242D01*
X1578Y2275D02*
X1605D01*
X1592D01*
Y2235D01*
X1618Y2275D02*
X1632D01*
X1625D01*
Y2235D01*
X1618D01*
X1632D01*
X1672Y2275D02*
X1658D01*
X1652Y2268D01*
Y2242D01*
X1658Y2235D01*
X1672D01*
X1678Y2242D01*
Y2268D01*
X1672Y2275D01*
X1692Y2235D02*
Y2275D01*
X1718Y2235D01*
Y2275D01*
X1550Y4311D02*
X1510D01*
Y4251D01*
X1550D01*
X1510Y4281D02*
X1530D01*
X1570D02*
X1610D01*
X1670Y4301D02*
X1660Y4311D01*
X1640D01*
X1630Y4301D01*
Y4291D01*
X1640Y4281D01*
X1660D01*
X1670Y4271D01*
Y4261D01*
X1660Y4251D01*
X1640D01*
X1630Y4261D01*
X1700Y4301D02*
Y4291D01*
X1690D01*
X1710D01*
X1700D01*
Y4261D01*
X1710Y4251D01*
X1750D02*
X1770D01*
X1780Y4261D01*
Y4281D01*
X1770Y4291D01*
X1750D01*
X1740Y4281D01*
Y4261D01*
X1750Y4251D01*
X1800Y4231D02*
Y4291D01*
X1830D01*
X1840Y4281D01*
Y4261D01*
X1830Y4251D01*
X1800D01*
X1550Y4185D02*
X1540Y4195D01*
X1520D01*
X1510Y4185D01*
Y4145D01*
X1520Y4135D01*
X1540D01*
X1550Y4145D01*
X1570Y4135D02*
X1590D01*
X1580D01*
Y4175D01*
X1570D01*
X1620D02*
Y4135D01*
Y4155D01*
X1630Y4165D01*
X1640Y4175D01*
X1650D01*
X1720D02*
X1690D01*
X1680Y4165D01*
Y4145D01*
X1690Y4135D01*
X1720D01*
X1740Y4175D02*
Y4145D01*
X1750Y4135D01*
X1780D01*
Y4175D01*
X1800Y4135D02*
X1820D01*
X1810D01*
Y4175D01*
X1800D01*
X1860Y4185D02*
Y4175D01*
X1850D01*
X1870D01*
X1860D01*
Y4145D01*
X1870Y4135D01*
X1613Y1322D02*
X1600Y1335D01*
X1573D01*
X1560Y1322D01*
Y1268D01*
X1573Y1255D01*
X1600D01*
X1613Y1268D01*
X1640Y1255D02*
Y1268D01*
X1653D01*
Y1255D01*
X1640D01*
X1707D02*
Y1335D01*
X1747D01*
X1760Y1322D01*
Y1295D01*
X1747Y1282D01*
X1707D01*
X1733D02*
X1760Y1255D01*
X1787D02*
Y1268D01*
X1800D01*
Y1255D01*
X1787D01*
X1853D02*
Y1308D01*
X1880Y1335D01*
X1907Y1308D01*
Y1255D01*
Y1295D01*
X1853D01*
X1933Y1255D02*
Y1268D01*
X1947D01*
Y1255D01*
X1933D01*
X2053Y1335D02*
X2000D01*
Y1295D01*
X2027D01*
X2000D01*
Y1255D01*
X2080D02*
Y1268D01*
X2093D01*
Y1255D01*
X2080D01*
X2146Y1335D02*
X2200D01*
X2173D01*
Y1255D01*
X2226D02*
Y1268D01*
X2240D01*
Y1255D01*
X2226D01*
X1600Y1215D02*
X1573D01*
X1560Y1202D01*
Y1148D01*
X1573Y1135D01*
X1600D01*
X1613Y1148D01*
Y1202D01*
X1600Y1215D01*
X1640D02*
Y1135D01*
X1680D01*
X1693Y1148D01*
Y1162D01*
X1680Y1175D01*
X1640D01*
X1680D01*
X1693Y1188D01*
Y1202D01*
X1680Y1215D01*
X1640D01*
X1773Y1202D02*
X1760Y1215D01*
X1733D01*
X1720Y1202D01*
Y1188D01*
X1733Y1175D01*
X1760D01*
X1773Y1162D01*
Y1148D01*
X1760Y1135D01*
X1733D01*
X1720Y1148D01*
X1800Y1215D02*
X1853D01*
X1827D01*
Y1135D01*
X1880D02*
Y1215D01*
X1920D01*
X1933Y1202D01*
Y1175D01*
X1920Y1162D01*
X1880D01*
X1907D02*
X1933Y1135D01*
X1960Y1215D02*
Y1148D01*
X1973Y1135D01*
X2000D01*
X2013Y1148D01*
Y1215D01*
X2093Y1202D02*
X2080Y1215D01*
X2053D01*
X2040Y1202D01*
Y1148D01*
X2053Y1135D01*
X2080D01*
X2093Y1148D01*
X2120Y1215D02*
X2173D01*
X2146D01*
Y1135D01*
X2200Y1215D02*
X2226D01*
X2213D01*
Y1135D01*
X2200D01*
X2226D01*
X2306Y1215D02*
X2280D01*
X2266Y1202D01*
Y1148D01*
X2280Y1135D01*
X2306D01*
X2320Y1148D01*
Y1202D01*
X2306Y1215D01*
X2346Y1135D02*
Y1215D01*
X2400Y1135D01*
Y1215D01*
X2506D02*
Y1135D01*
X2546D01*
X2560Y1148D01*
Y1202D01*
X2546Y1215D01*
X2506D01*
X2640D02*
X2586D01*
Y1135D01*
X2640D01*
X2586Y1175D02*
X2613D01*
X2666Y1215D02*
X2720D01*
X2693D01*
Y1135D01*
X2800Y1215D02*
X2746D01*
Y1135D01*
X2800D01*
X2746Y1175D02*
X2773D01*
X2880Y1202D02*
X2866Y1215D01*
X2840D01*
X2826Y1202D01*
Y1148D01*
X2840Y1135D01*
X2866D01*
X2880Y1148D01*
X2906Y1215D02*
X2960D01*
X2933D01*
Y1135D01*
X2986Y1215D02*
X3013D01*
X3000D01*
Y1135D01*
X2986D01*
X3013D01*
X3093Y1215D02*
X3066D01*
X3053Y1202D01*
Y1148D01*
X3066Y1135D01*
X3093D01*
X3106Y1148D01*
Y1202D01*
X3093Y1215D01*
X3133Y1135D02*
Y1215D01*
X3186Y1135D01*
Y1215D01*
X3346Y1202D02*
X3333Y1215D01*
X3306D01*
X3293Y1202D01*
Y1148D01*
X3306Y1135D01*
X3333D01*
X3346Y1148D01*
X3373Y1215D02*
X3399D01*
X3386D01*
Y1135D01*
X3373D01*
X3399D01*
X3439D02*
Y1215D01*
X3479D01*
X3493Y1202D01*
Y1175D01*
X3479Y1162D01*
X3439D01*
X3466D02*
X3493Y1135D01*
X3573Y1202D02*
X3559Y1215D01*
X3533D01*
X3519Y1202D01*
Y1148D01*
X3533Y1135D01*
X3559D01*
X3573Y1148D01*
X3599Y1215D02*
Y1148D01*
X3613Y1135D01*
X3639D01*
X3653Y1148D01*
Y1215D01*
X3679D02*
X3706D01*
X3693D01*
Y1135D01*
X3679D01*
X3706D01*
X3746Y1215D02*
X3799D01*
X3773D01*
Y1135D01*
X2560Y3107D02*
Y3147D01*
X2580D01*
X2587Y3140D01*
Y3127D01*
X2580Y3120D01*
X2560D01*
X2573D02*
X2587Y3107D01*
X2627Y3147D02*
X2600D01*
Y3107D01*
X2627D01*
X2600Y3127D02*
X2613D01*
X2667Y3147D02*
X2640D01*
Y3127D01*
X2653D01*
X2640D01*
Y3107D01*
X2720Y3147D02*
Y3120D01*
X2733Y3107D01*
X2747Y3120D01*
Y3147D01*
X2780D02*
X2767D01*
X2760Y3140D01*
Y3114D01*
X2767Y3107D01*
X2780D01*
X2787Y3114D01*
Y3140D01*
X2780Y3147D01*
X2800D02*
Y3107D01*
X2827D01*
X2840Y3147D02*
X2867D01*
X2853D01*
Y3107D01*
X2880D02*
Y3134D01*
X2893Y3147D01*
X2907Y3134D01*
Y3107D01*
Y3127D01*
X2880D01*
X2947Y3140D02*
X2940Y3147D01*
X2927D01*
X2920Y3140D01*
Y3114D01*
X2927Y3107D01*
X2940D01*
X2947Y3114D01*
Y3127D01*
X2933D01*
X2987Y3147D02*
X2960D01*
Y3107D01*
X2987D01*
X2960Y3127D02*
X2973D01*
X2560Y3035D02*
Y3062D01*
X2573Y3075D01*
X2587Y3062D01*
Y3035D01*
Y3055D01*
X2560D01*
X2600Y3075D02*
Y3035D01*
X2620D01*
X2627Y3042D01*
Y3068D01*
X2620Y3075D01*
X2600D01*
X2667D02*
X2653D01*
X2660D01*
Y3042D01*
X2653Y3035D01*
X2647D01*
X2640Y3042D01*
X2680Y3075D02*
Y3042D01*
X2687Y3035D01*
X2700D01*
X2707Y3042D01*
Y3075D01*
X2747Y3068D02*
X2740Y3075D01*
X2727D01*
X2720Y3068D01*
Y3062D01*
X2727Y3055D01*
X2740D01*
X2747Y3048D01*
Y3042D01*
X2740Y3035D01*
X2727D01*
X2720Y3042D01*
X2760Y3075D02*
X2787D01*
X2773D01*
Y3035D01*
X3850Y1160D02*
Y1120D01*
X3870Y1100D01*
X3890Y1120D01*
Y1160D01*
X3910Y1100D02*
X3930D01*
X3920D01*
Y1160D01*
X3910Y1150D01*
X3960Y1100D02*
Y1110D01*
X3970D01*
Y1100D01*
X3960D01*
X4010D02*
X4030D01*
X4020D01*
Y1160D01*
X4010Y1150D01*
X2831Y4240D02*
X2821Y4230D01*
Y4210D01*
X2831Y4200D01*
X2871D01*
X2881Y4210D01*
Y4230D01*
X2871Y4240D01*
X2831Y4260D02*
X2821Y4270D01*
Y4290D01*
X2831Y4300D01*
X2841D01*
X2851Y4290D01*
Y4280D01*
Y4290D01*
X2861Y4300D01*
X2871D01*
X2881Y4290D01*
Y4270D01*
X2871Y4260D01*
X2831Y4320D02*
X2821Y4330D01*
Y4350D01*
X2831Y4360D01*
X2871D01*
X2881Y4350D01*
Y4330D01*
X2871Y4320D01*
X2831D01*
X2821Y4420D02*
Y4380D01*
X2851D01*
X2841Y4400D01*
Y4410D01*
X2851Y4420D01*
X2871D01*
X2881Y4410D01*
Y4390D01*
X2871Y4380D01*
X2100Y4010D02*
Y3960D01*
X2110Y3950D01*
X2130D01*
X2140Y3960D01*
Y4010D01*
X2160Y4000D02*
X2170Y4010D01*
X2190D01*
X2200Y4000D01*
Y3990D01*
X2190Y3980D01*
X2180D01*
X2190D01*
X2200Y3970D01*
Y3960D01*
X2190Y3950D01*
X2170D01*
X2160Y3960D01*
X2220Y4000D02*
X2230Y4010D01*
X2250D01*
X2260Y4000D01*
Y3960D01*
X2250Y3950D01*
X2230D01*
X2220Y3960D01*
Y4000D01*
X2280D02*
X2290Y4010D01*
X2310D01*
X2320Y4000D01*
Y3990D01*
X2310Y3980D01*
X2300D01*
X2310D01*
X2320Y3970D01*
Y3960D01*
X2310Y3950D01*
X2290D01*
X2280Y3960D01*
X1700Y3700D02*
Y3760D01*
X1730D01*
X1740Y3750D01*
Y3730D01*
X1730Y3720D01*
X1700D01*
X1720D02*
X1740Y3700D01*
X1760Y3750D02*
X1770Y3760D01*
X1790D01*
X1800Y3750D01*
Y3740D01*
X1790Y3730D01*
X1780D01*
X1790D01*
X1800Y3720D01*
Y3710D01*
X1790Y3700D01*
X1770D01*
X1760Y3710D01*
X1820Y3700D02*
X1840D01*
X1830D01*
Y3760D01*
X1820Y3750D01*
X1910Y3760D02*
X1890Y3750D01*
X1870Y3730D01*
Y3710D01*
X1880Y3700D01*
X1900D01*
X1910Y3710D01*
Y3720D01*
X1900Y3730D01*
X1870D01*
X2450Y3700D02*
X2390D01*
Y3730D01*
X2400Y3740D01*
X2420D01*
X2430Y3730D01*
Y3700D01*
Y3720D02*
X2450Y3740D01*
X2400Y3760D02*
X2390Y3770D01*
Y3790D01*
X2400Y3800D01*
X2410D01*
X2420Y3790D01*
Y3780D01*
Y3790D01*
X2430Y3800D01*
X2440D01*
X2450Y3790D01*
Y3770D01*
X2440Y3760D01*
X2450Y3820D02*
Y3840D01*
Y3830D01*
X2390D01*
X2400Y3820D01*
X2390Y3910D02*
Y3870D01*
X2420D01*
X2410Y3890D01*
Y3900D01*
X2420Y3910D01*
X2440D01*
X2450Y3900D01*
Y3880D01*
X2440Y3870D01*
X1725Y3925D02*
Y3985D01*
X1755D01*
X1765Y3975D01*
Y3955D01*
X1755Y3945D01*
X1725D01*
X1745D02*
X1765Y3925D01*
X1785Y3975D02*
X1795Y3985D01*
X1815D01*
X1825Y3975D01*
Y3965D01*
X1815Y3955D01*
X1805D01*
X1815D01*
X1825Y3945D01*
Y3935D01*
X1815Y3925D01*
X1795D01*
X1785Y3935D01*
X1845Y3925D02*
X1865D01*
X1855D01*
Y3985D01*
X1845Y3975D01*
X1925Y3925D02*
Y3985D01*
X1895Y3955D01*
X1935D01*
X2075Y3575D02*
X2015D01*
Y3605D01*
X2025Y3615D01*
X2045D01*
X2055Y3605D01*
Y3575D01*
Y3595D02*
X2075Y3615D01*
X2025Y3635D02*
X2015Y3645D01*
Y3665D01*
X2025Y3675D01*
X2035D01*
X2045Y3665D01*
Y3655D01*
Y3665D01*
X2055Y3675D01*
X2065D01*
X2075Y3665D01*
Y3645D01*
X2065Y3635D01*
X2075Y3695D02*
Y3715D01*
Y3705D01*
X2015D01*
X2025Y3695D01*
Y3745D02*
X2015Y3755D01*
Y3775D01*
X2025Y3785D01*
X2035D01*
X2045Y3775D01*
Y3765D01*
Y3775D01*
X2055Y3785D01*
X2065D01*
X2075Y3775D01*
Y3755D01*
X2065Y3745D01*
X1725Y3225D02*
Y3285D01*
X1755D01*
X1765Y3275D01*
Y3255D01*
X1755Y3245D01*
X1725D01*
X1745D02*
X1765Y3225D01*
X1785Y3275D02*
X1795Y3285D01*
X1815D01*
X1825Y3275D01*
Y3265D01*
X1815Y3255D01*
X1805D01*
X1815D01*
X1825Y3245D01*
Y3235D01*
X1815Y3225D01*
X1795D01*
X1785Y3235D01*
X1845Y3225D02*
X1865D01*
X1855D01*
Y3285D01*
X1845Y3275D01*
X1935Y3225D02*
X1895D01*
X1935Y3265D01*
Y3275D01*
X1925Y3285D01*
X1905D01*
X1895Y3275D01*
X2275Y3600D02*
X2215D01*
Y3630D01*
X2225Y3640D01*
X2245D01*
X2255Y3630D01*
Y3600D01*
Y3620D02*
X2275Y3640D01*
X2225Y3660D02*
X2215Y3670D01*
Y3690D01*
X2225Y3700D01*
X2235D01*
X2245Y3690D01*
Y3680D01*
Y3690D01*
X2255Y3700D01*
X2265D01*
X2275Y3690D01*
Y3670D01*
X2265Y3660D01*
X2275Y3720D02*
Y3740D01*
Y3730D01*
X2215D01*
X2225Y3720D01*
X2275Y3770D02*
Y3790D01*
Y3780D01*
X2215D01*
X2225Y3770D01*
X1775Y2700D02*
Y2760D01*
X1805D01*
X1815Y2750D01*
Y2730D01*
X1805Y2720D01*
X1775D01*
X1795D02*
X1815Y2700D01*
X1835Y2750D02*
X1845Y2760D01*
X1865D01*
X1875Y2750D01*
Y2740D01*
X1865Y2730D01*
X1855D01*
X1865D01*
X1875Y2720D01*
Y2710D01*
X1865Y2700D01*
X1845D01*
X1835Y2710D01*
X1895Y2750D02*
X1905Y2760D01*
X1925D01*
X1935Y2750D01*
Y2710D01*
X1925Y2700D01*
X1905D01*
X1895Y2710D01*
Y2750D01*
X1955Y2700D02*
X1975D01*
X1965D01*
Y2760D01*
X1955Y2750D01*
X3050Y1400D02*
Y1460D01*
X3080D01*
X3090Y1450D01*
Y1430D01*
X3080Y1420D01*
X3050D01*
X3070D02*
X3090Y1400D01*
X3110Y1460D02*
Y1420D01*
X3130Y1400D01*
X3150Y1420D01*
Y1460D01*
X3170Y1450D02*
X3180Y1460D01*
X3200D01*
X3210Y1450D01*
Y1440D01*
X3200Y1430D01*
X3190D01*
X3200D01*
X3210Y1420D01*
Y1410D01*
X3200Y1400D01*
X3180D01*
X3170Y1410D01*
X3230Y1450D02*
X3240Y1460D01*
X3260D01*
X3270Y1450D01*
Y1410D01*
X3260Y1400D01*
X3240D01*
X3230Y1410D01*
Y1450D01*
X3290Y1400D02*
X3310D01*
X3300D01*
Y1460D01*
X3290Y1450D01*
X2450Y3350D02*
X2510D01*
Y3320D01*
X2500Y3310D01*
X2480D01*
X2470Y3320D01*
Y3350D01*
Y3330D02*
X2450Y3310D01*
X2510Y3290D02*
X2470D01*
X2450Y3270D01*
X2470Y3250D01*
X2510D01*
X2500Y3230D02*
X2510Y3220D01*
Y3200D01*
X2500Y3190D01*
X2490D01*
X2480Y3200D01*
Y3210D01*
Y3200D01*
X2470Y3190D01*
X2460D01*
X2450Y3200D01*
Y3220D01*
X2460Y3230D01*
X2500Y3170D02*
X2510Y3160D01*
Y3140D01*
X2500Y3130D01*
X2460D01*
X2450Y3140D01*
Y3160D01*
X2460Y3170D01*
X2500D01*
Y3110D02*
X2510Y3100D01*
Y3080D01*
X2500Y3070D01*
X2490D01*
X2480Y3080D01*
Y3090D01*
Y3080D01*
X2470Y3070D01*
X2460D01*
X2450Y3080D01*
Y3100D01*
X2460Y3110D01*
X3290Y3300D02*
X3340D01*
X3350Y3310D01*
Y3330D01*
X3340Y3340D01*
X3290D01*
X3300Y3360D02*
X3290Y3370D01*
Y3390D01*
X3300Y3400D01*
X3310D01*
X3320Y3390D01*
Y3380D01*
Y3390D01*
X3330Y3400D01*
X3340D01*
X3350Y3390D01*
Y3370D01*
X3340Y3360D01*
X3300Y3420D02*
X3290Y3430D01*
Y3450D01*
X3300Y3460D01*
X3340D01*
X3350Y3450D01*
Y3430D01*
X3340Y3420D01*
X3300D01*
X3350Y3520D02*
Y3480D01*
X3310Y3520D01*
X3300D01*
X3290Y3510D01*
Y3490D01*
X3300Y3480D01*
X3740Y1785D02*
X3720D01*
X3730D01*
Y1735D01*
X3720Y1725D01*
X3710D01*
X3700Y1735D01*
X3760Y1775D02*
X3770Y1785D01*
X3790D01*
X3800Y1775D01*
Y1765D01*
X3790Y1755D01*
X3780D01*
X3790D01*
X3800Y1745D01*
Y1735D01*
X3790Y1725D01*
X3770D01*
X3760Y1735D01*
X3820Y1775D02*
X3830Y1785D01*
X3850D01*
X3860Y1775D01*
Y1735D01*
X3850Y1725D01*
X3830D01*
X3820Y1735D01*
Y1775D01*
X3880D02*
X3890Y1785D01*
X3910D01*
X3920Y1775D01*
Y1765D01*
X3910Y1755D01*
X3900D01*
X3910D01*
X3920Y1745D01*
Y1735D01*
X3910Y1725D01*
X3890D01*
X3880Y1735D01*
X4200Y3700D02*
Y3760D01*
X4230D01*
X4240Y3750D01*
Y3730D01*
X4230Y3720D01*
X4200D01*
X4220D02*
X4240Y3700D01*
X4260Y3750D02*
X4270Y3760D01*
X4290D01*
X4300Y3750D01*
Y3740D01*
X4290Y3730D01*
X4280D01*
X4290D01*
X4300Y3720D01*
Y3710D01*
X4290Y3700D01*
X4270D01*
X4260Y3710D01*
X4320Y3750D02*
X4330Y3760D01*
X4350D01*
X4360Y3750D01*
Y3710D01*
X4350Y3700D01*
X4330D01*
X4320Y3710D01*
Y3750D01*
X4380D02*
X4390Y3760D01*
X4410D01*
X4420Y3750D01*
Y3740D01*
X4410Y3730D01*
X4420Y3720D01*
Y3710D01*
X4410Y3700D01*
X4390D01*
X4380Y3710D01*
Y3720D01*
X4390Y3730D01*
X4380Y3740D01*
Y3750D01*
X4390Y3730D02*
X4410D01*
X4100Y3375D02*
Y3435D01*
X4130D01*
X4140Y3425D01*
Y3405D01*
X4130Y3395D01*
X4100D01*
X4120D02*
X4140Y3375D01*
X4160Y3425D02*
X4170Y3435D01*
X4190D01*
X4200Y3425D01*
Y3415D01*
X4190Y3405D01*
X4180D01*
X4190D01*
X4200Y3395D01*
Y3385D01*
X4190Y3375D01*
X4170D01*
X4160Y3385D01*
X4220Y3425D02*
X4230Y3435D01*
X4250D01*
X4260Y3425D01*
Y3385D01*
X4250Y3375D01*
X4230D01*
X4220Y3385D01*
Y3425D01*
X4280Y3385D02*
X4290Y3375D01*
X4310D01*
X4320Y3385D01*
Y3425D01*
X4310Y3435D01*
X4290D01*
X4280Y3425D01*
Y3415D01*
X4290Y3405D01*
X4320D01*
X3850Y3375D02*
Y3435D01*
X3880D01*
X3890Y3425D01*
Y3405D01*
X3880Y3395D01*
X3850D01*
X3870D02*
X3890Y3375D01*
X3910Y3425D02*
X3920Y3435D01*
X3940D01*
X3950Y3425D01*
Y3415D01*
X3940Y3405D01*
X3930D01*
X3940D01*
X3950Y3395D01*
Y3385D01*
X3940Y3375D01*
X3920D01*
X3910Y3385D01*
X3970Y3375D02*
X3990D01*
X3980D01*
Y3435D01*
X3970Y3425D01*
X4020D02*
X4030Y3435D01*
X4050D01*
X4060Y3425D01*
Y3385D01*
X4050Y3375D01*
X4030D01*
X4020Y3385D01*
Y3425D01*
X4450Y2450D02*
X4390D01*
Y2480D01*
X4400Y2490D01*
X4420D01*
X4430Y2480D01*
Y2450D01*
Y2470D02*
X4450Y2490D01*
X4390Y2510D02*
X4430D01*
X4450Y2530D01*
X4430Y2550D01*
X4390D01*
X4400Y2570D02*
X4390Y2580D01*
Y2600D01*
X4400Y2610D01*
X4410D01*
X4420Y2600D01*
Y2590D01*
Y2600D01*
X4430Y2610D01*
X4440D01*
X4450Y2600D01*
Y2580D01*
X4440Y2570D01*
X4400Y2630D02*
X4390Y2640D01*
Y2660D01*
X4400Y2670D01*
X4440D01*
X4450Y2660D01*
Y2640D01*
X4440Y2630D01*
X4400D01*
X4450Y2720D02*
X4390D01*
X4420Y2690D01*
Y2730D01*
X1089Y2151D02*
X1069D01*
X1079D01*
Y2101D01*
X1069Y2091D01*
X1059D01*
X1049Y2101D01*
X1109Y2141D02*
X1119Y2151D01*
X1139D01*
X1149Y2141D01*
Y2131D01*
X1139Y2121D01*
X1129D01*
X1139D01*
X1149Y2111D01*
Y2101D01*
X1139Y2091D01*
X1119D01*
X1109Y2101D01*
X1169Y2141D02*
X1179Y2151D01*
X1199D01*
X1209Y2141D01*
Y2101D01*
X1199Y2091D01*
X1179D01*
X1169Y2101D01*
Y2141D01*
X1229Y2091D02*
X1249D01*
X1239D01*
Y2151D01*
X1229Y2141D01*
X1439Y2698D02*
X1419D01*
X1429D01*
Y2648D01*
X1419Y2638D01*
X1409D01*
X1399Y2648D01*
X1459Y2688D02*
X1469Y2698D01*
X1489D01*
X1499Y2688D01*
Y2678D01*
X1489Y2668D01*
X1479D01*
X1489D01*
X1499Y2658D01*
Y2648D01*
X1489Y2638D01*
X1469D01*
X1459Y2648D01*
X1519Y2688D02*
X1529Y2698D01*
X1549D01*
X1559Y2688D01*
Y2648D01*
X1549Y2638D01*
X1529D01*
X1519Y2648D01*
Y2688D01*
X1619Y2638D02*
X1579D01*
X1619Y2678D01*
Y2688D01*
X1609Y2698D01*
X1589D01*
X1579Y2688D01*
X1700Y1475D02*
Y1535D01*
X1730D01*
X1740Y1525D01*
Y1505D01*
X1730Y1495D01*
X1700D01*
X1720D02*
X1740Y1475D01*
X1760Y1525D02*
X1770Y1535D01*
X1790D01*
X1800Y1525D01*
Y1515D01*
X1790Y1505D01*
X1780D01*
X1790D01*
X1800Y1495D01*
Y1485D01*
X1790Y1475D01*
X1770D01*
X1760Y1485D01*
X1820Y1525D02*
X1830Y1535D01*
X1850D01*
X1860Y1525D01*
Y1485D01*
X1850Y1475D01*
X1830D01*
X1820Y1485D01*
Y1525D01*
X1920Y1475D02*
X1880D01*
X1920Y1515D01*
Y1525D01*
X1910Y1535D01*
X1890D01*
X1880Y1525D01*
X1700Y1675D02*
Y1735D01*
X1730D01*
X1740Y1725D01*
Y1705D01*
X1730Y1695D01*
X1700D01*
X1720D02*
X1740Y1675D01*
X1760Y1725D02*
X1770Y1735D01*
X1790D01*
X1800Y1725D01*
Y1715D01*
X1790Y1705D01*
X1780D01*
X1790D01*
X1800Y1695D01*
Y1685D01*
X1790Y1675D01*
X1770D01*
X1760Y1685D01*
X1820Y1725D02*
X1830Y1735D01*
X1850D01*
X1860Y1725D01*
Y1685D01*
X1850Y1675D01*
X1830D01*
X1820Y1685D01*
Y1725D01*
X1880D02*
X1890Y1735D01*
X1910D01*
X1920Y1725D01*
Y1715D01*
X1910Y1705D01*
X1900D01*
X1910D01*
X1920Y1695D01*
Y1685D01*
X1910Y1675D01*
X1890D01*
X1880Y1685D01*
X1700Y1875D02*
Y1935D01*
X1730D01*
X1740Y1925D01*
Y1905D01*
X1730Y1895D01*
X1700D01*
X1720D02*
X1740Y1875D01*
X1760Y1925D02*
X1770Y1935D01*
X1790D01*
X1800Y1925D01*
Y1915D01*
X1790Y1905D01*
X1780D01*
X1790D01*
X1800Y1895D01*
Y1885D01*
X1790Y1875D01*
X1770D01*
X1760Y1885D01*
X1820Y1925D02*
X1830Y1935D01*
X1850D01*
X1860Y1925D01*
Y1885D01*
X1850Y1875D01*
X1830D01*
X1820Y1885D01*
Y1925D01*
X1910Y1875D02*
Y1935D01*
X1880Y1905D01*
X1920D01*
X1700Y2075D02*
Y2135D01*
X1730D01*
X1740Y2125D01*
Y2105D01*
X1730Y2095D01*
X1700D01*
X1720D02*
X1740Y2075D01*
X1760Y2125D02*
X1770Y2135D01*
X1790D01*
X1800Y2125D01*
Y2115D01*
X1790Y2105D01*
X1780D01*
X1790D01*
X1800Y2095D01*
Y2085D01*
X1790Y2075D01*
X1770D01*
X1760Y2085D01*
X1820Y2125D02*
X1830Y2135D01*
X1850D01*
X1860Y2125D01*
Y2085D01*
X1850Y2075D01*
X1830D01*
X1820Y2085D01*
Y2125D01*
X1920Y2135D02*
X1880D01*
Y2105D01*
X1900Y2115D01*
X1910D01*
X1920Y2105D01*
Y2085D01*
X1910Y2075D01*
X1890D01*
X1880Y2085D01*
X2400Y1550D02*
X2340D01*
Y1580D01*
X2350Y1590D01*
X2370D01*
X2380Y1580D01*
Y1550D01*
Y1570D02*
X2400Y1590D01*
X2350Y1610D02*
X2340Y1620D01*
Y1640D01*
X2350Y1650D01*
X2360D01*
X2370Y1640D01*
Y1630D01*
Y1640D01*
X2380Y1650D01*
X2390D01*
X2400Y1640D01*
Y1620D01*
X2390Y1610D01*
X2350Y1670D02*
X2340Y1680D01*
Y1700D01*
X2350Y1710D01*
X2390D01*
X2400Y1700D01*
Y1680D01*
X2390Y1670D01*
X2350D01*
X2340Y1770D02*
X2350Y1750D01*
X2370Y1730D01*
X2390D01*
X2400Y1740D01*
Y1760D01*
X2390Y1770D01*
X2380D01*
X2370Y1760D01*
Y1730D01*
X2600Y1650D02*
Y1710D01*
X2630D01*
X2640Y1700D01*
Y1680D01*
X2630Y1670D01*
X2600D01*
X2620D02*
X2640Y1650D01*
X2660Y1700D02*
X2670Y1710D01*
X2690D01*
X2700Y1700D01*
Y1690D01*
X2690Y1680D01*
X2680D01*
X2690D01*
X2700Y1670D01*
Y1660D01*
X2690Y1650D01*
X2670D01*
X2660Y1660D01*
X2720Y1700D02*
X2730Y1710D01*
X2750D01*
X2760Y1700D01*
Y1660D01*
X2750Y1650D01*
X2730D01*
X2720Y1660D01*
Y1700D01*
X2780Y1710D02*
X2820D01*
Y1700D01*
X2780Y1660D01*
Y1650D01*
X2025Y2000D02*
Y2060D01*
X2055D01*
X2065Y2050D01*
Y2030D01*
X2055Y2020D01*
X2025D01*
X2045D02*
X2065Y2000D01*
X2085Y2060D02*
Y2020D01*
X2105Y2000D01*
X2125Y2020D01*
Y2060D01*
X2145Y2050D02*
X2155Y2060D01*
X2175D01*
X2185Y2050D01*
Y2040D01*
X2175Y2030D01*
X2165D01*
X2175D01*
X2185Y2020D01*
Y2010D01*
X2175Y2000D01*
X2155D01*
X2145Y2010D01*
X2205Y2050D02*
X2215Y2060D01*
X2235D01*
X2245Y2050D01*
Y2010D01*
X2235Y2000D01*
X2215D01*
X2205Y2010D01*
Y2050D01*
X2305Y2000D02*
X2265D01*
X2305Y2040D01*
Y2050D01*
X2295Y2060D01*
X2275D01*
X2265Y2050D01*
X2100Y2860D02*
Y2810D01*
X2110Y2800D01*
X2130D01*
X2140Y2810D01*
Y2860D01*
X2160Y2850D02*
X2170Y2860D01*
X2190D01*
X2200Y2850D01*
Y2840D01*
X2190Y2830D01*
X2180D01*
X2190D01*
X2200Y2820D01*
Y2810D01*
X2190Y2800D01*
X2170D01*
X2160Y2810D01*
X2220Y2850D02*
X2230Y2860D01*
X2250D01*
X2260Y2850D01*
Y2810D01*
X2250Y2800D01*
X2230D01*
X2220Y2810D01*
Y2850D01*
X2280Y2800D02*
X2300D01*
X2290D01*
Y2860D01*
X2280Y2850D01*
X2840Y1350D02*
X2830Y1360D01*
X2810D01*
X2800Y1350D01*
Y1310D01*
X2810Y1300D01*
X2830D01*
X2840Y1310D01*
X2860Y1350D02*
X2870Y1360D01*
X2890D01*
X2900Y1350D01*
Y1340D01*
X2890Y1330D01*
X2880D01*
X2890D01*
X2900Y1320D01*
Y1310D01*
X2890Y1300D01*
X2870D01*
X2860Y1310D01*
X2920Y1350D02*
X2930Y1360D01*
X2950D01*
X2960Y1350D01*
Y1310D01*
X2950Y1300D01*
X2930D01*
X2920Y1310D01*
Y1350D01*
X2980Y1300D02*
X3000D01*
X2990D01*
Y1360D01*
X2980Y1350D01*
X3440D02*
X3430Y1360D01*
X3410D01*
X3400Y1350D01*
Y1310D01*
X3410Y1300D01*
X3430D01*
X3440Y1310D01*
X3460Y1350D02*
X3470Y1360D01*
X3490D01*
X3500Y1350D01*
Y1340D01*
X3490Y1330D01*
X3480D01*
X3490D01*
X3500Y1320D01*
Y1310D01*
X3490Y1300D01*
X3470D01*
X3460Y1310D01*
X3520Y1350D02*
X3530Y1360D01*
X3550D01*
X3560Y1350D01*
Y1310D01*
X3550Y1300D01*
X3530D01*
X3520Y1310D01*
Y1350D01*
X3620Y1300D02*
X3580D01*
X3620Y1340D01*
Y1350D01*
X3610Y1360D01*
X3590D01*
X3580Y1350D01*
X3431Y4060D02*
X3421Y4070D01*
X3401D01*
X3391Y4060D01*
Y4020D01*
X3401Y4010D01*
X3421D01*
X3431Y4020D01*
X3451Y4060D02*
X3461Y4070D01*
X3481D01*
X3491Y4060D01*
Y4050D01*
X3481Y4040D01*
X3471D01*
X3481D01*
X3491Y4030D01*
Y4020D01*
X3481Y4010D01*
X3461D01*
X3451Y4020D01*
X3511Y4060D02*
X3521Y4070D01*
X3541D01*
X3551Y4060D01*
Y4020D01*
X3541Y4010D01*
X3521D01*
X3511Y4020D01*
Y4060D01*
X3601Y4010D02*
Y4070D01*
X3571Y4040D01*
X3611D01*
X2100Y2942D02*
X2090Y2932D01*
Y2912D01*
X2100Y2902D01*
X2140D01*
X2150Y2912D01*
Y2932D01*
X2140Y2942D01*
X2100Y2962D02*
X2090Y2972D01*
Y2992D01*
X2100Y3002D01*
X2110D01*
X2120Y2992D01*
Y2982D01*
Y2992D01*
X2130Y3002D01*
X2140D01*
X2150Y2992D01*
Y2972D01*
X2140Y2962D01*
X2100Y3022D02*
X2090Y3032D01*
Y3052D01*
X2100Y3062D01*
X2140D01*
X2150Y3052D01*
Y3032D01*
X2140Y3022D01*
X2100D01*
Y3082D02*
X2090Y3092D01*
Y3112D01*
X2100Y3122D01*
X2110D01*
X2120Y3112D01*
Y3102D01*
Y3112D01*
X2130Y3122D01*
X2140D01*
X2150Y3112D01*
Y3092D01*
X2140Y3082D01*
X1126Y3876D02*
X1106D01*
X1116D01*
Y3826D01*
X1106Y3816D01*
X1096D01*
X1086Y3826D01*
X1146Y3866D02*
X1156Y3876D01*
X1176D01*
X1186Y3866D01*
Y3856D01*
X1176Y3846D01*
X1166D01*
X1176D01*
X1186Y3836D01*
Y3826D01*
X1176Y3816D01*
X1156D01*
X1146Y3826D01*
X1206Y3866D02*
X1216Y3876D01*
X1236D01*
X1246Y3866D01*
Y3826D01*
X1236Y3816D01*
X1216D01*
X1206Y3826D01*
Y3866D01*
X1296Y3816D02*
Y3876D01*
X1266Y3846D01*
X1306D01*
X2766Y2615D02*
X2756Y2625D01*
X2736D01*
X2726Y2615D01*
Y2575D01*
X2736Y2565D01*
X2756D01*
X2766Y2575D01*
X2786Y2615D02*
X2796Y2625D01*
X2816D01*
X2826Y2615D01*
Y2605D01*
X2816Y2595D01*
X2806D01*
X2816D01*
X2826Y2585D01*
Y2575D01*
X2816Y2565D01*
X2796D01*
X2786Y2575D01*
X2846Y2615D02*
X2856Y2625D01*
X2876D01*
X2886Y2615D01*
Y2575D01*
X2876Y2565D01*
X2856D01*
X2846Y2575D01*
Y2615D01*
X2906Y2625D02*
X2946D01*
Y2615D01*
X2906Y2575D01*
Y2565D01*
X3015Y2964D02*
X3005Y2974D01*
X2985D01*
X2975Y2964D01*
Y2924D01*
X2985Y2914D01*
X3005D01*
X3015Y2924D01*
X3035Y2964D02*
X3045Y2974D01*
X3065D01*
X3075Y2964D01*
Y2954D01*
X3065Y2944D01*
X3055D01*
X3065D01*
X3075Y2934D01*
Y2924D01*
X3065Y2914D01*
X3045D01*
X3035Y2924D01*
X3095Y2964D02*
X3105Y2974D01*
X3125D01*
X3135Y2964D01*
Y2924D01*
X3125Y2914D01*
X3105D01*
X3095Y2924D01*
Y2964D01*
X3155D02*
X3165Y2974D01*
X3185D01*
X3195Y2964D01*
Y2954D01*
X3185Y2944D01*
X3195Y2934D01*
Y2924D01*
X3185Y2914D01*
X3165D01*
X3155Y2924D01*
Y2934D01*
X3165Y2944D01*
X3155Y2954D01*
Y2964D01*
X3165Y2944D02*
X3185D01*
X3365Y2964D02*
X3355Y2974D01*
X3335D01*
X3325Y2964D01*
Y2924D01*
X3335Y2914D01*
X3355D01*
X3365Y2924D01*
X3385Y2964D02*
X3395Y2974D01*
X3415D01*
X3425Y2964D01*
Y2954D01*
X3415Y2944D01*
X3405D01*
X3415D01*
X3425Y2934D01*
Y2924D01*
X3415Y2914D01*
X3395D01*
X3385Y2924D01*
X3445Y2964D02*
X3455Y2974D01*
X3475D01*
X3485Y2964D01*
Y2924D01*
X3475Y2914D01*
X3455D01*
X3445Y2924D01*
Y2964D01*
X3505Y2924D02*
X3515Y2914D01*
X3535D01*
X3545Y2924D01*
Y2964D01*
X3535Y2974D01*
X3515D01*
X3505Y2964D01*
Y2954D01*
X3515Y2944D01*
X3545D01*
X2690Y1850D02*
X2680Y1860D01*
X2660D01*
X2650Y1850D01*
Y1810D01*
X2660Y1800D01*
X2680D01*
X2690Y1810D01*
X2710Y1850D02*
X2720Y1860D01*
X2740D01*
X2750Y1850D01*
Y1840D01*
X2740Y1830D01*
X2730D01*
X2740D01*
X2750Y1820D01*
Y1810D01*
X2740Y1800D01*
X2720D01*
X2710Y1810D01*
X2770Y1800D02*
X2790D01*
X2780D01*
Y1860D01*
X2770Y1850D01*
X2820D02*
X2830Y1860D01*
X2850D01*
X2860Y1850D01*
Y1810D01*
X2850Y1800D01*
X2830D01*
X2820Y1810D01*
Y1850D01*
X3690Y2100D02*
X3750D01*
Y2130D01*
X3740Y2140D01*
X3700D01*
X3690Y2130D01*
Y2100D01*
X3700Y2160D02*
X3690Y2170D01*
Y2190D01*
X3700Y2200D01*
X3710D01*
X3720Y2190D01*
Y2180D01*
Y2190D01*
X3730Y2200D01*
X3740D01*
X3750Y2190D01*
Y2170D01*
X3740Y2160D01*
X3700Y2220D02*
X3690Y2230D01*
Y2250D01*
X3700Y2260D01*
X3740D01*
X3750Y2250D01*
Y2230D01*
X3740Y2220D01*
X3700D01*
X3750Y2280D02*
Y2300D01*
Y2290D01*
X3690D01*
X3700Y2280D01*
X3700Y2910D02*
Y2850D01*
X3740D01*
X3760Y2900D02*
X3770Y2910D01*
X3790D01*
X3800Y2900D01*
Y2890D01*
X3790Y2880D01*
X3780D01*
X3790D01*
X3800Y2870D01*
Y2860D01*
X3790Y2850D01*
X3770D01*
X3760Y2860D01*
X3820Y2900D02*
X3830Y2910D01*
X3850D01*
X3860Y2900D01*
Y2860D01*
X3850Y2850D01*
X3830D01*
X3820Y2860D01*
Y2900D01*
X3880Y2850D02*
X3900D01*
X3890D01*
Y2910D01*
X3880Y2900D01*
X3200Y2110D02*
Y2060D01*
X3210Y2050D01*
X3230D01*
X3240Y2060D01*
Y2110D01*
X3260Y2100D02*
X3270Y2110D01*
X3290D01*
X3300Y2100D01*
Y2090D01*
X3290Y2080D01*
X3280D01*
X3290D01*
X3300Y2070D01*
Y2060D01*
X3290Y2050D01*
X3270D01*
X3260Y2060D01*
X3320Y2100D02*
X3330Y2110D01*
X3350D01*
X3360Y2100D01*
Y2060D01*
X3350Y2050D01*
X3330D01*
X3320Y2060D01*
Y2100D01*
X3410Y2050D02*
Y2110D01*
X3380Y2080D01*
X3420D01*
X3550Y3110D02*
X3590D01*
X3570D01*
Y3050D01*
X3610D02*
Y3110D01*
X3640D01*
X3650Y3100D01*
Y3080D01*
X3640Y3070D01*
X3610D01*
X3700Y3050D02*
Y3110D01*
X3670Y3080D01*
X3710D01*
X3100Y3235D02*
X3140D01*
X3120D01*
Y3175D01*
X3160D02*
Y3235D01*
X3190D01*
X3200Y3225D01*
Y3205D01*
X3190Y3195D01*
X3160D01*
X3220Y3225D02*
X3230Y3235D01*
X3250D01*
X3260Y3225D01*
Y3215D01*
X3250Y3205D01*
X3240D01*
X3250D01*
X3260Y3195D01*
Y3185D01*
X3250Y3175D01*
X3230D01*
X3220Y3185D01*
X1225Y2325D02*
Y2365D01*
X1245Y2385D01*
X1265Y2365D01*
Y2325D01*
Y2355D01*
X1225D01*
Y2585D02*
Y2525D01*
X1255D01*
X1265Y2535D01*
Y2545D01*
X1255Y2555D01*
X1225D01*
X1255D01*
X1265Y2565D01*
Y2575D01*
X1255Y2585D01*
X1225D01*
X3700Y1910D02*
X3740D01*
X3720D01*
Y1850D01*
X3760D02*
Y1910D01*
X3790D01*
X3800Y1900D01*
Y1880D01*
X3790Y1870D01*
X3760D01*
X3820Y1850D02*
X3840D01*
X3830D01*
Y1910D01*
X3820Y1900D01*
X4150Y2060D02*
X4190D01*
X4170D01*
Y2000D01*
X4210D02*
Y2060D01*
X4240D01*
X4250Y2050D01*
Y2030D01*
X4240Y2020D01*
X4210D01*
X4310Y2000D02*
X4270D01*
X4310Y2040D01*
Y2050D01*
X4300Y2060D01*
X4280D01*
X4270Y2050D01*
X2050Y2310D02*
X2090D01*
X2070D01*
Y2250D01*
X2110D02*
Y2310D01*
X2140D01*
X2150Y2300D01*
Y2280D01*
X2140Y2270D01*
X2110D01*
X2210Y2310D02*
X2170D01*
Y2280D01*
X2190Y2290D01*
X2200D01*
X2210Y2280D01*
Y2260D01*
X2200Y2250D01*
X2180D01*
X2170Y2260D01*
X2200Y1471D02*
X2240D01*
X2220D01*
Y1411D01*
X2260D02*
Y1471D01*
X2290D01*
X2300Y1461D01*
Y1441D01*
X2290Y1431D01*
X2260D01*
X2360Y1471D02*
X2340Y1461D01*
X2320Y1441D01*
Y1421D01*
X2330Y1411D01*
X2350D01*
X2360Y1421D01*
Y1431D01*
X2350Y1441D01*
X2320D01*
X3970Y1515D02*
X3957D01*
X3950Y1508D01*
Y1482D01*
X3957Y1475D01*
X3970D01*
X3977Y1482D01*
Y1508D01*
X3970Y1515D01*
X3990Y1475D02*
Y1515D01*
X4017Y1475D01*
Y1515D01*
X3752Y1408D02*
X3745Y1415D01*
X3732D01*
X3725Y1408D01*
Y1382D01*
X3732Y1375D01*
X3745D01*
X3752Y1382D01*
Y1395D01*
X3738D01*
X3765Y1375D02*
Y1402D01*
X3778Y1415D01*
X3792Y1402D01*
Y1375D01*
Y1395D01*
X3765D01*
X3805Y1415D02*
X3818D01*
X3812D01*
Y1375D01*
X3805D01*
X3818D01*
X3838D02*
Y1415D01*
X3865Y1375D01*
Y1415D01*
X3945Y1408D02*
X3938Y1415D01*
X3925D01*
X3918Y1408D01*
Y1402D01*
X3925Y1395D01*
X3938D01*
X3945Y1388D01*
Y1382D01*
X3938Y1375D01*
X3925D01*
X3918Y1382D01*
X3958Y1415D02*
X3985D01*
X3972D01*
Y1375D01*
X3998D02*
Y1402D01*
X4012Y1415D01*
X4025Y1402D01*
Y1375D01*
Y1395D01*
X3998D01*
X4065Y1408D02*
X4058Y1415D01*
X4045D01*
X4038Y1408D01*
Y1382D01*
X4045Y1375D01*
X4058D01*
X4065Y1382D01*
Y1395D01*
X4052D01*
X4105Y1415D02*
X4078D01*
Y1375D01*
X4105D01*
X4078Y1395D02*
X4092D01*
X3970Y1615D02*
X3957D01*
X3950Y1608D01*
Y1582D01*
X3957Y1575D01*
X3970D01*
X3977Y1582D01*
Y1608D01*
X3970Y1615D01*
X4017D02*
X3990D01*
Y1595D01*
X4003D01*
X3990D01*
Y1575D01*
X4057Y1615D02*
X4030D01*
Y1595D01*
X4043D01*
X4030D01*
Y1575D01*
X1077Y1583D02*
X1070Y1590D01*
X1057D01*
X1050Y1583D01*
Y1557D01*
X1057Y1550D01*
X1070D01*
X1077Y1557D01*
Y1570D01*
X1063D01*
X1090Y1550D02*
Y1577D01*
X1103Y1590D01*
X1117Y1577D01*
Y1550D01*
Y1570D01*
X1090D01*
X1130Y1590D02*
X1143D01*
X1137D01*
Y1550D01*
X1130D01*
X1143D01*
X1163D02*
Y1590D01*
X1190Y1550D01*
Y1590D01*
X1270Y1583D02*
X1263Y1590D01*
X1250D01*
X1243Y1583D01*
Y1577D01*
X1250Y1570D01*
X1263D01*
X1270Y1563D01*
Y1557D01*
X1263Y1550D01*
X1250D01*
X1243Y1557D01*
X1310Y1590D02*
X1283D01*
Y1550D01*
X1310D01*
X1283Y1570D02*
X1297D01*
X1323Y1590D02*
Y1550D01*
X1350D01*
X1390Y1590D02*
X1363D01*
Y1550D01*
X1390D01*
X1363Y1570D02*
X1377D01*
X1430Y1583D02*
X1423Y1590D01*
X1410D01*
X1403Y1583D01*
Y1557D01*
X1410Y1550D01*
X1423D01*
X1430Y1557D01*
X1443Y1590D02*
X1470D01*
X1457D01*
Y1550D01*
X1302Y1715D02*
X1275D01*
Y1695D01*
X1288Y1702D01*
X1295D01*
X1302Y1695D01*
Y1682D01*
X1295Y1675D01*
X1282D01*
X1275Y1682D01*
Y1775D02*
X1288D01*
X1282D01*
Y1815D01*
X1275Y1808D01*
X1308D02*
X1315Y1815D01*
X1328D01*
X1335Y1808D01*
Y1782D01*
X1328Y1775D01*
X1315D01*
X1308Y1782D01*
Y1808D01*
X1302Y1875D02*
X1275D01*
X1302Y1902D01*
Y1908D01*
X1295Y1915D01*
X1282D01*
X1275Y1908D01*
X1315D02*
X1322Y1915D01*
X1335D01*
X1342Y1908D01*
Y1882D01*
X1335Y1875D01*
X1322D01*
X1315Y1882D01*
Y1908D01*
X1302Y2015D02*
X1288Y2008D01*
X1275Y1995D01*
Y1982D01*
X1282Y1975D01*
X1295D01*
X1302Y1982D01*
Y1988D01*
X1295Y1995D01*
X1275D01*
X1335Y1975D02*
X1315Y1995D01*
X1335Y2015D01*
X1355Y1975D02*
X1375Y1995D01*
X1355Y2015D01*
X1415D02*
X1388D01*
Y1995D01*
X1402Y2002D01*
X1408D01*
X1415Y1995D01*
Y1982D01*
X1408Y1975D01*
X1395D01*
X1388Y1982D01*
X1428Y2008D02*
X1435Y2015D01*
X1448D01*
X1455Y2008D01*
Y1982D01*
X1448Y1975D01*
X1435D01*
X1428Y1982D01*
Y2008D01*
X1468D02*
X1475Y2015D01*
X1488D01*
X1495Y2008D01*
Y1982D01*
X1488Y1975D01*
X1475D01*
X1468Y1982D01*
Y2008D01*
X2375Y2160D02*
X2415D01*
X2395D01*
Y2100D01*
X2435D02*
Y2160D01*
X2465D01*
X2475Y2150D01*
Y2130D01*
X2465Y2120D01*
X2435D01*
X2495Y2160D02*
X2535D01*
Y2150D01*
X2495Y2110D01*
Y2100D01*
X1625Y2400D02*
Y2427D01*
X1638Y2440D01*
X1652Y2427D01*
Y2400D01*
Y2420D01*
X1625D01*
Y2540D02*
Y2500D01*
X1645D01*
X1652Y2507D01*
Y2513D01*
X1645Y2520D01*
X1625D01*
X1645D01*
X1652Y2527D01*
Y2533D01*
X1645Y2540D01*
X1625D01*
X2258Y1923D02*
X2265Y1930D01*
Y1943D01*
X2258Y1950D01*
X2232D01*
X2225Y1943D01*
Y1930D01*
X2232Y1923D01*
X2245D01*
Y1937D01*
X2225Y1910D02*
X2252D01*
X2265Y1897D01*
X2252Y1883D01*
X2225D01*
X2245D01*
Y1910D01*
X2265Y1870D02*
Y1857D01*
Y1863D01*
X2225D01*
Y1870D01*
Y1857D01*
Y1837D02*
X2265D01*
X2225Y1810D01*
X2265D01*
X2225Y1757D02*
X2252D01*
X2265Y1743D01*
X2252Y1730D01*
X2225D01*
X2245D01*
Y1757D01*
X2265Y1717D02*
X2225D01*
Y1697D01*
X2232Y1690D01*
X2258D01*
X2265Y1697D01*
Y1717D01*
Y1650D02*
Y1663D01*
Y1657D01*
X2232D01*
X2225Y1663D01*
Y1670D01*
X2232Y1677D01*
X2265Y1637D02*
X2232D01*
X2225Y1630D01*
Y1617D01*
X2232Y1610D01*
X2265D01*
X2258Y1570D02*
X2265Y1577D01*
Y1590D01*
X2258Y1597D01*
X2252D01*
X2245Y1590D01*
Y1577D01*
X2238Y1570D01*
X2232D01*
X2225Y1577D01*
Y1590D01*
X2232Y1597D01*
X2265Y1557D02*
Y1530D01*
Y1543D01*
X2225D01*
X4292Y2427D02*
X4285Y2420D01*
Y2407D01*
X4292Y2400D01*
X4318D01*
X4325Y2407D01*
Y2420D01*
X4318Y2427D01*
X4305D01*
Y2413D01*
X4325Y2440D02*
X4298D01*
X4285Y2453D01*
X4298Y2467D01*
X4325D01*
X4305D01*
Y2440D01*
X4285Y2480D02*
Y2493D01*
Y2487D01*
X4325D01*
Y2480D01*
Y2493D01*
Y2513D02*
X4285D01*
X4325Y2540D01*
X4285D01*
X4325Y2593D02*
X4298D01*
X4285Y2607D01*
X4298Y2620D01*
X4325D01*
X4305D01*
Y2593D01*
X4285Y2633D02*
X4325D01*
Y2653D01*
X4318Y2660D01*
X4292D01*
X4285Y2653D01*
Y2633D01*
Y2700D02*
Y2687D01*
Y2693D01*
X4318D01*
X4325Y2687D01*
Y2680D01*
X4318Y2673D01*
X4285Y2713D02*
X4318D01*
X4325Y2720D01*
Y2733D01*
X4318Y2740D01*
X4285D01*
X4292Y2780D02*
X4285Y2773D01*
Y2760D01*
X4292Y2753D01*
X4298D01*
X4305Y2760D01*
Y2773D01*
X4312Y2780D01*
X4318D01*
X4325Y2773D01*
Y2760D01*
X4318Y2753D01*
X4285Y2793D02*
Y2820D01*
Y2807D01*
X4325D01*
X2927Y1790D02*
X2900D01*
Y1770D01*
X2913D01*
X2900D01*
Y1750D01*
X2940Y1790D02*
X2953D01*
X2947D01*
Y1750D01*
X2940D01*
X2953D01*
X2973Y1790D02*
Y1750D01*
X3000D01*
X3013Y1790D02*
X3040D01*
X3027D01*
Y1750D01*
X3080Y1790D02*
X3053D01*
Y1750D01*
X3080D01*
X3053Y1770D02*
X3067D01*
X3093Y1750D02*
Y1790D01*
X3113D01*
X3120Y1783D01*
Y1770D01*
X3113Y1763D01*
X3093D01*
X3107D02*
X3120Y1750D01*
X3173D02*
Y1777D01*
X3187Y1790D01*
X3200Y1777D01*
Y1750D01*
Y1770D01*
X3173D01*
X3213Y1790D02*
Y1750D01*
X3233D01*
X3240Y1757D01*
Y1783D01*
X3233Y1790D01*
X3213D01*
X3280D02*
X3267D01*
X3273D01*
Y1757D01*
X3267Y1750D01*
X3260D01*
X3253Y1757D01*
X3293Y1790D02*
Y1757D01*
X3300Y1750D01*
X3313D01*
X3320Y1757D01*
Y1790D01*
X3360Y1783D02*
X3353Y1790D01*
X3340D01*
X3333Y1783D01*
Y1777D01*
X3340Y1770D01*
X3353D01*
X3360Y1763D01*
Y1757D01*
X3353Y1750D01*
X3340D01*
X3333Y1757D01*
X3373Y1790D02*
X3400D01*
X3387D01*
Y1750D01*
X1575Y1050D02*
Y1077D01*
X1588Y1090D01*
X1602Y1077D01*
Y1050D01*
Y1070D01*
X1575D01*
X1615Y1050D02*
Y1057D01*
X1622D01*
Y1050D01*
X1615D01*
X1715Y1090D02*
X1702D01*
X1708D01*
Y1057D01*
X1702Y1050D01*
X1695D01*
X1688Y1057D01*
X1755Y1090D02*
X1728D01*
Y1050D01*
X1755D01*
X1728Y1070D02*
X1742D01*
X1795Y1090D02*
X1768D01*
Y1070D01*
X1782D01*
X1768D01*
Y1050D01*
X1835Y1090D02*
X1808D01*
Y1070D01*
X1822D01*
X1808D01*
Y1050D01*
X1875Y1090D02*
X1848D01*
Y1050D01*
X1875D01*
X1848Y1070D02*
X1862D01*
X1888Y1050D02*
Y1090D01*
X1908D01*
X1915Y1083D01*
Y1070D01*
X1908Y1063D01*
X1888D01*
X1902D02*
X1915Y1050D01*
X1955Y1083D02*
X1948Y1090D01*
X1935D01*
X1928Y1083D01*
Y1077D01*
X1935Y1070D01*
X1948D01*
X1955Y1063D01*
Y1057D01*
X1948Y1050D01*
X1935D01*
X1928Y1057D01*
X1988Y1090D02*
X1975D01*
X1968Y1083D01*
Y1057D01*
X1975Y1050D01*
X1988D01*
X1995Y1057D01*
Y1083D01*
X1988Y1090D01*
X2008Y1050D02*
Y1090D01*
X2035Y1050D01*
Y1090D01*
X2208Y1050D02*
Y1077D01*
X2221Y1090D01*
X2235Y1077D01*
Y1050D01*
Y1070D01*
X2208D01*
X2248Y1050D02*
Y1090D01*
Y1063D02*
X2268Y1077D01*
X2248Y1063D02*
X2268Y1050D01*
X2288Y1077D02*
Y1057D01*
X2295Y1050D01*
X2315D01*
Y1077D01*
X2328Y1050D02*
X2341D01*
X2335D01*
Y1090D01*
X2328D01*
X2368Y1077D02*
X2381D01*
X2388Y1070D01*
Y1050D01*
X2368D01*
X2361Y1057D01*
X2368Y1063D01*
X2388D01*
X2441Y1090D02*
X2468D01*
Y1083D01*
X2441Y1057D01*
Y1050D01*
X2468D01*
X2481Y1077D02*
Y1057D01*
X2488Y1050D01*
X2508D01*
Y1077D01*
X2521Y1090D02*
Y1050D01*
X2541D01*
X2548Y1057D01*
Y1063D01*
Y1070D01*
X2541Y1077D01*
X2521D01*
X2601Y1090D02*
X2628D01*
X2615D01*
Y1050D01*
X2661D02*
X2648D01*
X2641Y1057D01*
Y1070D01*
X2648Y1077D01*
X2661D01*
X2668Y1070D01*
Y1063D01*
X2641D01*
X2708Y1077D02*
X2688D01*
X2681Y1070D01*
Y1057D01*
X2688Y1050D01*
X2708D01*
X2721Y1090D02*
Y1050D01*
Y1070D01*
X2728Y1077D01*
X2741D01*
X2748Y1070D01*
Y1050D01*
X2761D02*
Y1077D01*
X2781D01*
X2788Y1070D01*
Y1050D01*
X2808D02*
X2821D01*
X2828Y1057D01*
Y1070D01*
X2821Y1077D01*
X2808D01*
X2801Y1070D01*
Y1057D01*
X2808Y1050D01*
X2841D02*
X2855D01*
X2848D01*
Y1090D01*
X2841D01*
X2881Y1050D02*
X2895D01*
X2901Y1057D01*
Y1070D01*
X2895Y1077D01*
X2881D01*
X2875Y1070D01*
Y1057D01*
X2881Y1050D01*
X2928Y1037D02*
X2935D01*
X2941Y1043D01*
Y1077D01*
X2921D01*
X2915Y1070D01*
Y1057D01*
X2921Y1050D01*
X2941D01*
X2955D02*
X2968D01*
X2961D01*
Y1077D01*
X2955D01*
X3008Y1050D02*
X2995D01*
X2988Y1057D01*
Y1070D01*
X2995Y1077D01*
X3008D01*
X3015Y1070D01*
Y1063D01*
X2988D01*
X3028Y1050D02*
X3048D01*
X3055Y1057D01*
X3048Y1063D01*
X3035D01*
X3028Y1070D01*
X3035Y1077D01*
X3055D01*
X3174Y1050D02*
X3148D01*
X3174Y1077D01*
Y1083D01*
X3168Y1090D01*
X3154D01*
X3148Y1083D01*
X3188D02*
X3194Y1090D01*
X3208D01*
X3214Y1083D01*
Y1057D01*
X3208Y1050D01*
X3194D01*
X3188Y1057D01*
Y1083D01*
X3254Y1050D02*
X3228D01*
X3254Y1077D01*
Y1083D01*
X3248Y1090D01*
X3234D01*
X3228Y1083D01*
X3294Y1050D02*
X3268D01*
X3294Y1077D01*
Y1083D01*
X3288Y1090D01*
X3274D01*
X3268Y1083D01*
X2002Y2801D02*
X2035Y2768D01*
X2002D02*
X2035Y2801D01*
X2002Y2784D02*
X2035D01*
X2018Y2768D02*
Y2801D01*
%TF.MD5,1d8f0b37f4fda6a7fbadd6e09e69e421*%
M02*
