G04 Layer_Color=0*
%FSLAX23Y23*%
%MOIN*%
%TF.FileFunction,Plated,1,2,PTH,Drill*%
%TF.Part,Single*%
G01*
G75*
%TA.AperFunction,OtherDrill,Pad Free-19 (1250mil,1250mil)*%
%ADD67C,0.200*%
%TA.AperFunction,OtherDrill,Pad Free-18 (4250mil,1250mil)*%
%ADD68C,0.200*%
%TA.AperFunction,OtherDrill,Pad Free-17 (4250mil,4250mil)*%
%ADD69C,0.200*%
%TA.AperFunction,OtherDrill,Pad Free-16 (1250mil,4250mil)*%
%ADD70C,0.200*%
%TA.AperFunction,OtherDrill,Pad Free-15 (1625mil,4000mil)*%
%ADD71C,0.060*%
%TA.AperFunction,OtherDrill,Pad Free-2 (3450mil,3075mil)*%
%ADD72C,0.060*%
%TA.AperFunction,OtherDrill,Pad Free-2 (3250mil,3075mil)*%
%ADD73C,0.060*%
%TA.AperFunction,OtherDrill,Pad Free-TP1 (3600mil,1800mil)*%
%ADD74C,0.060*%
%TA.AperFunction,OtherDrill,Pad Free-6 (4050mil,2000mil)*%
%ADD75C,0.060*%
%TA.AperFunction,OtherDrill,Pad Free-3 (1125mil,2350mil)*%
%ADD76C,0.060*%
%TA.AperFunction,OtherDrill,Pad Free-4 (1125mil,2550mil)*%
%ADD77C,0.060*%
%TA.AperFunction,OtherDrill,Pad Free-7 (2100mil,2150mil)*%
%ADD78C,0.060*%
%TA.AperFunction,OtherDrill,Pad Free-8 (2100mil,1450mil)*%
%ADD79C,0.060*%
%TA.AperFunction,OtherDrill,Pad Free-12 (2450mil,2000mil)*%
%ADD80C,0.060*%
%TA.AperFunction,ComponentDrill*%
%ADD81C,0.030*%
%ADD82C,0.030*%
%ADD83C,0.033*%
%ADD84C,0.033*%
%ADD85C,0.039*%
%ADD86C,0.040*%
%ADD87C,0.039*%
%ADD88C,0.031*%
%ADD89C,0.031*%
%ADD90C,0.031*%
%ADD91C,0.039*%
%ADD92C,0.042*%
%ADD93C,0.035*%
D67*
X1250Y1250D02*
D03*
D68*
X4250D02*
D03*
D69*
Y4250D02*
D03*
D70*
X1250D02*
D03*
D71*
X1625Y4000D02*
D03*
D72*
X3450Y3075D02*
D03*
D73*
X3250D02*
D03*
D74*
X3600Y1800D02*
D03*
D75*
X4050Y2000D02*
D03*
D76*
X1125Y2350D02*
D03*
D77*
Y2550D02*
D03*
D78*
X2100Y2150D02*
D03*
D79*
Y1450D02*
D03*
D80*
X2450Y2000D02*
D03*
D81*
X3451Y3850D02*
D03*
X3549D02*
D03*
X2601Y4300D02*
D03*
X2699D02*
D03*
X2802Y2400D02*
D03*
X2900D02*
D03*
D82*
X3500Y1600D02*
D03*
Y1502D02*
D03*
X2650Y1449D02*
D03*
Y1351D02*
D03*
X2300Y3002D02*
D03*
Y3100D02*
D03*
X3100Y2798D02*
D03*
Y2700D02*
D03*
X3450Y2798D02*
D03*
Y2700D02*
D03*
X2800Y1952D02*
D03*
Y2050D02*
D03*
D83*
X2450Y1775D02*
D03*
Y1475D02*
D03*
X3925Y3325D02*
D03*
Y3025D02*
D03*
X4150D02*
D03*
Y3325D02*
D03*
Y3875D02*
D03*
Y3575D02*
D03*
X2325Y3825D02*
D03*
Y3525D02*
D03*
X2125Y3825D02*
D03*
Y3525D02*
D03*
X2500Y3925D02*
D03*
Y3625D02*
D03*
D84*
X1900Y2025D02*
D03*
X1600D02*
D03*
X1900Y1825D02*
D03*
X1600D02*
D03*
X1900Y1625D02*
D03*
X1600D02*
D03*
X1900Y1425D02*
D03*
X1600D02*
D03*
X1650Y3350D02*
D03*
X1950D02*
D03*
X1650Y3850D02*
D03*
X1950D02*
D03*
X1650Y3625D02*
D03*
X1950D02*
D03*
X2550Y1600D02*
D03*
X2850D02*
D03*
D85*
X4150Y2700D02*
D03*
Y2602D02*
D03*
Y2503D02*
D03*
X2100Y1650D02*
D03*
Y1748D02*
D03*
Y1847D02*
D03*
D86*
X3875Y1500D02*
D03*
X3775D02*
D03*
X3875Y1600D02*
D03*
X3775D02*
D03*
X1550Y2425D02*
D03*
X1450D02*
D03*
X1550Y2525D02*
D03*
X1450D02*
D03*
X1100Y2000D02*
D03*
X1200D02*
D03*
X1100Y1900D02*
D03*
X1200D02*
D03*
X1100Y1800D02*
D03*
X1200D02*
D03*
X1100Y1700D02*
D03*
X1200D02*
D03*
X1225Y3575D02*
D03*
X1325D02*
D03*
X1225Y3475D02*
D03*
X1325D02*
D03*
X1225Y3375D02*
D03*
X1325D02*
D03*
D87*
X2652Y3275D02*
D03*
X2750D02*
D03*
X2848D02*
D03*
X3248Y1600D02*
D03*
X3150D02*
D03*
X3052D02*
D03*
D88*
X2070Y4175D02*
D03*
Y4275D02*
D03*
Y4075D02*
D03*
Y4375D02*
D03*
X2380Y4075D02*
D03*
Y4375D02*
D03*
Y4175D02*
D03*
Y4275D02*
D03*
D89*
X3525Y3580D02*
D03*
X3625D02*
D03*
X3425D02*
D03*
X3725D02*
D03*
X3425Y3270D02*
D03*
X3725D02*
D03*
X3525D02*
D03*
X3625D02*
D03*
D90*
X3463Y2500D02*
D03*
Y2400D02*
D03*
Y2300D02*
D03*
Y2200D02*
D03*
X3150D02*
D03*
Y2300D02*
D03*
Y2400D02*
D03*
Y2500D02*
D03*
D91*
X2325Y2725D02*
D03*
Y2625D02*
D03*
Y2525D02*
D03*
Y2425D02*
D03*
X2025D02*
D03*
Y2525D02*
D03*
Y2625D02*
D03*
Y2725D02*
D03*
D92*
X3600Y1992D02*
D03*
Y2400D02*
D03*
D93*
X3800Y2500D02*
D03*
Y2697D02*
D03*
%TF.MD5,2c7a2ac2d604a0598aeef33c34db1f78*%
M02*
