  0
SECTION
  2
HEADER
  9
$ACADVER
  1
AC1027
  9
$ACADMAINTVER
 70
   125
  9
$DWGCODEPAGE
  3
ANSI_1252
  9
$LASTSAVEDBY
  1
poojars
  9
$REQUIREDVERSIONS
160
                 0
  9
$INSBASE
 10
0.0
 20
0.0
 30
0.0
  9
$EXTMIN
 10
0.0
 20
0.0
 30
0.0
  9
$EXTMAX
 10
11.0
 20
8.5
 30
0.019685
  9
$LIMMIN
 10
0.0
 20
0.0
  9
$LIMMAX
 10
11.0
 20
8.5
  9
$ORTHOMODE
 70
     0
  9
$REGENMODE
 70
     1
  9
$FILLMODE
 70
     1
  9
$QTEXTMODE
 70
     0
  9
$MIRRTEXT
 70
     0
  9
$LTSCALE
 40
0.75
  9
$ATTMODE
 70
     1
  9
$TEXTSIZE
 40
0.12
  9
$TRACEWID
 40
0.05
  9
$TEXTSTYLE
  7
Standard
  9
$CLAYER
  8
0
  9
$CELTYPE
  6
ByLayer
  9
$CECOLOR
 62
   256
  9
$CELTSCALE
 40
1.0
  9
$DISPSILH
 70
     0
  9
$DIMSCALE
 40
1.0
  9
$DIMASZ
 40
0.12
  9
$DIMEXO
 40
0.07
  9
$DIMDLI
 40
0.36
  9
$DIMRND
 40
0.0
  9
$DIMDLE
 40
0.0
  9
$DIMEXE
 40
0.07
  9
$DIMTP
 40
0.01
  9
$DIMTM
 40
0.01
  9
$DIMTXT
 40
0.12
  9
$DIMCEN
 40
0.0
  9
$DIMTSZ
 40
0.0
  9
$DIMTOL
 70
     0
  9
$DIMLIM
 70
     0
  9
$DIMTIH
 70
     1
  9
$DIMTOH
 70
     1
  9
$DIMSE1
 70
     0
  9
$DIMSE2
 70
     0
  9
$DIMTAD
 70
     0
  9
$DIMZIN
 70
     8
  9
$DIMBLK
  1

  9
$DIMASO
 70
     1
  9
$DIMSHO
 70
     1
  9
$DIMPOST
  1

  9
$DIMAPOST
  1

  9
$DIMALT
 70
     0
  9
$DIMALTD
 70
     2
  9
$DIMALTF
 40
0.03937
  9
$DIMLFAC
 40
25.4
  9
$DIMTOFL
 70
     0
  9
$DIMTVP
 40
0.0
  9
$DIMTIX
 70
     0
  9
$DIMSOXD
 70
     0
  9
$DIMSAH
 70
     0
  9
$DIMBLK1
  1

  9
$DIMBLK2
  1

  9
$DIMSTYLE
  2
Standard
  9
$DIMCLRD
 70
   256
  9
$DIMCLRE
 70
   256
  9
$DIMCLRT
 70
   256
  9
$DIMTFAC
 40
1.0
  9
$DIMGAP
 40
0.05
  9
$DIMJUST
 70
     0
  9
$DIMSD1
 70
     0
  9
$DIMSD2
 70
     0
  9
$DIMTOLJ
 70
     1
  9
$DIMTZIN
 70
     8
  9
$DIMALTZ
 70
    12
  9
$DIMALTTZ
 70
    12
  9
$DIMUPT
 70
     0
  9
$DIMDEC
 70
     2
  9
$DIMTDEC
 70
     2
  9
$DIMALTU
 70
     2
  9
$DIMALTTD
 70
     2
  9
$DIMTXSTY
  7
Standard
  9
$DIMAUNIT
 70
     0
  9
$DIMADEC
 70
     2
  9
$DIMALTRND
 40
0.0
  9
$DIMAZIN
 70
     2
  9
$DIMDSEP
 70
    46
  9
$DIMATFIT
 70
     3
  9
$DIMFRAC
 70
     0
  9
$DIMLDRBLK
  1

  9
$DIMLUNIT
 70
     2
  9
$DIMLWD
 70
    -2
  9
$DIMLWE
 70
    -2
  9
$DIMTMOVE
 70
     0
  9
$DIMFXL
 40
1.0
  9
$DIMFXLON
 70
     0
  9
$DIMJOGANG
 40
0.785398
  9
$DIMTFILL
 70
     0
  9
$DIMTFILLCLR
 70
     0
  9
$DIMARCSYM
 70
     1
  9
$DIMLTYPE
  6

  9
$DIMLTEX1
  6

  9
$DIMLTEX2
  6

  9
$DIMTXTDIRECTION
 70
     0
  9
$LUNITS
 70
     2
  9
$LUPREC
 70
     4
  9
$SKETCHINC
 40
0.1
  9
$FILLETRAD
 40
0.0
  9
$AUNITS
 70
     0
  9
$AUPREC
 70
     0
  9
$MENU
  1
.
  9
$ELEVATION
 40
0.0
  9
$PELEVATION
 40
0.0
  9
$THICKNESS
 40
0.0
  9
$LIMCHECK
 70
     0
  9
$CHAMFERA
 40
0.0
  9
$CHAMFERB
 40
0.0
  9
$CHAMFERC
 40
0.0
  9
$CHAMFERD
 40
0.0
  9
$SKPOLY
 70
     0
  9
$TDCREATE
 40
2459615.682175926
  9
$TDUCREATE
 40
2459616.015509260
  9
$TDUPDATE
 40
2459615.682175926
  9
$TDUUPDATE
 40
2459616.015509260
  9
$TDINDWG
 40
0.0000000000
  9
$TDUSRTIMER
 40
0.0000000000
  9
$USRTIMER
 70
     1
  9
$ANGBASE
 50
0.0
  9
$ANGDIR
 70
     0
  9
$PDMODE
 70
     0
  9
$PDSIZE
 40
0.0
  9
$PLINEWID
 40
0.0
  9
$SPLFRAME
 70
     0
  9
$SPLINETYPE
 70
     6
  9
$SPLINESEGS
 70
     8
  9
$HANDSEED
  5
44C
  9
$SURFTAB1
 70
     6
  9
$SURFTAB2
 70
     6
  9
$SURFTYPE
 70
     6
  9
$SURFU
 70
     6
  9
$SURFV
 70
     6
  9
$UCSBASE
  2

  9
$UCSNAME
  2

  9
$UCSORG
 10
0.0
 20
0.0
 30
0.0
  9
$UCSXDIR
 10
1.0
 20
0.0
 30
0.0
  9
$UCSYDIR
 10
0.0
 20
1.0
 30
0.0
  9
$UCSORTHOREF
  2

  9
$UCSORTHOVIEW
 70
     0
  9
$UCSORGTOP
 10
0.0
 20
0.0
 30
0.0
  9
$UCSORGBOTTOM
 10
0.0
 20
0.0
 30
0.0
  9
$UCSORGLEFT
 10
0.0
 20
0.0
 30
0.0
  9
$UCSORGRIGHT
 10
0.0
 20
0.0
 30
0.0
  9
$UCSORGFRONT
 10
0.0
 20
0.0
 30
0.0
  9
$UCSORGBACK
 10
0.0
 20
0.0
 30
0.0
  9
$PUCSBASE
  2

  9
$PUCSNAME
  2

  9
$PUCSORG
 10
0.0
 20
0.0
 30
0.0
  9
$PUCSXDIR
 10
1.0
 20
0.0
 30
0.0
  9
$PUCSYDIR
 10
0.0
 20
1.0
 30
0.0
  9
$PUCSORTHOREF
  2

  9
$PUCSORTHOVIEW
 70
     0
  9
$PUCSORGTOP
 10
0.0
 20
0.0
 30
0.0
  9
$PUCSORGBOTTOM
 10
0.0
 20
0.0
 30
0.0
  9
$PUCSORGLEFT
 10
0.0
 20
0.0
 30
0.0
  9
$PUCSORGRIGHT
 10
0.0
 20
0.0
 30
0.0
  9
$PUCSORGFRONT
 10
0.0
 20
0.0
 30
0.0
  9
$PUCSORGBACK
 10
0.0
 20
0.0
 30
0.0
  9
$USERI1
 70
     0
  9
$USERI2
 70
     0
  9
$USERI3
 70
     0
  9
$USERI4
 70
     0
  9
$USERI5
 70
     0
  9
$USERR1
 40
0.0
  9
$USERR2
 40
0.0
  9
$USERR3
 40
0.0
  9
$USERR4
 40
0.0
  9
$USERR5
 40
0.0
  9
$WORLDVIEW
 70
     1
  9
$SHADEDGE
 70
     3
  9
$SHADEDIF
 70
    70
  9
$TILEMODE
 70
     1
  9
$MAXACTVP
 70
    64
  9
$PINSBASE
 10
0.0
 20
0.0
 30
0.0
  9
$PLIMCHECK
 70
     0
  9
$PEXTMIN
 10
1.000000E+20
 20
1.000000E+20
 30
1.000000E+20
  9
$PEXTMAX
 10
-1.000000E+20
 20
-1.000000E+20
 30
-1.000000E+20
  9
$PLIMMIN
 10
0.0
 20
0.0
  9
$PLIMMAX
 10
12.0
 20
9.0
  9
$UNITMODE
 70
     0
  9
$VISRETAIN
 70
     1
  9
$PLINEGEN
 70
     0
  9
$PSLTSCALE
 70
     1
  9
$TREEDEPTH
 70
  3020
  9
$CMLSTYLE
  2
Standard
  9
$CMLJUST
 70
     0
  9
$CMLSCALE
 40
1.0
  9
$PROXYGRAPHICS
 70
     1
  9
$MEASUREMENT
 70
     0
  9
$CELWEIGHT
370
    -1
  9
$ENDCAPS
280
     0
  9
$JOINSTYLE
280
     0
  9
$LWDISPLAY
290
     0
  9
$INSUNITS
 70
     1
  9
$HYPERLINKBASE
  1

  9
$STYLESHEET
  1

  9
$XEDIT
290
     1
  9
$CEPSNTYPE
380
     0
  9
$PSTYLEMODE
290
     1
  9
$FINGERPRINTGUID
  2
{B2E8266D-024B-6B42-A903-507B045E9BA0}
  9
$VERSIONGUID
  2
{6D5C0DC7-9335-0846-989B-A4B4EC2CBD57}
  9
$EXTNAMES
290
     1
  9
$PSVPSCALE
 40
0.0
  9
$OLESTARTUP
290
     0
  9
$SORTENTS
280
   127
  9
$INDEXCTL
280
     0
  9
$HIDETEXT
280
     1
  9
$XCLIPFRAME
280
     0
  9
$HALOGAP
280
     0
  9
$OBSCOLOR
 70
   257
  9
$OBSLTYPE
280
     0
  9
$INTERSECTIONDISPLAY
280
     0
  9
$INTERSECTIONCOLOR
 70
   257
  9
$DIMASSOC
280
     2
  9
$PROJECTNAME
  1

  9
$CAMERADISPLAY
290
     0
  9
$LENSLENGTH
 40
50.0
  9
$CAMERAHEIGHT
 40
0.0
  9
$STEPSPERSEC
 40
2.0
  9
$STEPSIZE
 40
6.0
  9
$3DDWFPREC
 40
2.0
  9
$PSOLWIDTH
 40
0.25
  9
$PSOLHEIGHT
 40
4.0
  9
$LOFTANG1
 40
1.570796
  9
$LOFTANG2
 40
1.570796
  9
$LOFTMAG1
 40
0.0
  9
$LOFTMAG2
 40
0.0
  9
$LOFTPARAM
 70
     7
  9
$LOFTNORMALS
280
     1
  9
$LATITUDE
 40
37.795
  9
$LONGITUDE
 40
-122.394
  9
$NORTHDIRECTION
 40
0.0
  9
$TIMEZONE
 70
 -8000
  9
$LIGHTGLYPHDISPLAY
280
     1
  9
$TILEMODELIGHTSYNCH
280
     1
  9
$CMATERIAL
347
11
  9
$SOLIDHIST
280
     0
  9
$SHOWHIST
280
     1
  9
$DWFFRAME
280
     2
  9
$DGNFRAME
280
     0
  9
$REALWORLDSCALE
290
     1
  9
$INTERFERECOLOR
 62
     1
  9
$INTERFEREOBJVS
345
33
  9
$INTERFEREVPVS
346
30
  9
$CSHADOW
280
     0
  9
$SHADOWPLANELOCATION
 40
0.0
  0
ENDSEC
  0
SECTION
  2
CLASSES
  0
CLASS
  1
ACDBDICTIONARYWDFLT
  2
AcDbDictionaryWithDefault
  3
ObjectDBX Classes
 90
        0
 91
        1
280
     0
281
     0
  0
CLASS
  1
MATERIAL
  2
AcDbMaterial
  3
ObjectDBX Classes
 90
     1153
 91
        3
280
     0
281
     0
  0
CLASS
  1
VISUALSTYLE
  2
AcDbVisualStyle
  3
ObjectDBX Classes
 90
     4095
 91
       24
280
     0
281
     0
  0
CLASS
  1
SCALE
  2
AcDbScale
  3
ObjectDBX Classes
 90
     1153
 91
       33
280
     0
281
     0
  0
CLASS
  1
TABLESTYLE
  2
AcDbTableStyle
  3
ObjectDBX Classes
 90
     4095
 91
        1
280
     0
281
     0
  0
CLASS
  1
MLEADERSTYLE
  2
AcDbMLeaderStyle
  3
ACDB_MLEADERSTYLE_CLASS
 90
     4095
 91
        1
280
     0
281
     0
  0
CLASS
  1
ACDBSECTIONVIEWSTYLE
  2
AcDbSectionViewStyle
  3
ObjectDBX Classes
 90
     1025
 91
        1
280
     0
281
     0
  0
CLASS
  1
ACDBDETAILVIEWSTYLE
  2
AcDbDetailViewStyle
  3
ObjectDBX Classes
 90
     1025
 91
        1
280
     0
281
     0
  0
CLASS
  1
ACMESCOPE
  2
AcMeScope
  3
AcMeServices
 90
     1024
 91
        1
280
     0
281
     0
  0
CLASS
  1
ACMECOMMANDHISTORY
  2
AcMeCommandHistory
  3
AcMeServices
 90
     1024
 91
        1
280
     0
281
     0
  0
CLASS
  1
ACIMSYSVARMAN
  2
AcImSysVarManager
  3
AcMeServices
 90
     1024
 91
        1
280
     0
281
     0
  0
CLASS
  1
ACIMINTSYSVAR
  2
AcImIntSysVar
  3
AcMeServices
 90
     1024
 91
        1
280
     0
281
     0
  0
CLASS
  1
ACMESTATEMGR
  2
AcMeStateMgr
  3
AcMeServices
 90
     1024
 91
        1
280
     0
281
     0
  0
CLASS
  1
ACGREFMASTER
  2
AcGrefMaster
  3
AcAttribServices
 90
     1024
 91
        1
280
     0
281
     0
  0
CLASS
  1
SORTENTSTABLE
  2
AcDbSortentsTable
  3
ObjectDBX Classes
 90
        0
 91
        3
280
     0
281
     0
  0
CLASS
  1
DICTIONARYVAR
  2
AcDbDictionaryVar
  3
ObjectDBX Classes
 90
        0
 91
        6
280
     0
281
     0
  0
CLASS
  1
CELLSTYLEMAP
  2
AcDbCellStyleMap
  3
ObjectDBX Classes
 90
     1152
 91
        1
280
     0
281
     0
  0
ENDSEC
  0
SECTION
  2
TABLES
  0
TABLE
  2
VPORT
  5
8
330
0
100
AcDbSymbolTable
 70
     1
1001
ACAD
1000
DbSaveVer
1071
      246
  0
VPORT
  5
57
330
8
100
AcDbSymbolTableRecord
100
AcDbViewportTableRecord
  2
*Active
 70
     0
 10
0.0
 20
0.0
 11
1.0
 21
1.0
 12
5.5
 22
4.25
 13
0.0
 23
0.0
 14
0.5
 24
0.5
 15
0.0
 25
0.0
 16
0.0
 26
0.0
 36
1.0
 17
0.0
 27
0.0
 37
0.0
 40
8.5
 41
2.250879
 42
50.0
 43
0.0
 44
0.0
 50
0.0
 51
0.0
 71
     0
 72
 20000
 73
     1
 74
     0
 75
     0
 76
     0
 77
     0
 78
     0
281
     0
 65
     1
110
0.0
120
0.0
130
0.0
111
1.0
121
0.0
131
0.0
112
0.0
122
1.0
132
0.0
 79
     0
146
0.0
348
2F
 60
     3
 61
     5
292
     1
282
     1
141
0.0
142
0.0
 63
   250
421
  3355443
  0
ENDTAB
  0
TABLE
  2
LTYPE
  5
5
330
0
100
AcDbSymbolTable
 70
    10
  0
LTYPE
  5
5B
330
5
100
AcDbSymbolTableRecord
100
AcDbLinetypeTableRecord
  2
ByBlock
 70
     0
  3

 72
    65
 73
     0
 40
0.0
  0
LTYPE
  5
5C
330
5
100
AcDbSymbolTableRecord
100
AcDbLinetypeTableRecord
  2
ByLayer
 70
     0
  3

 72
    65
 73
     0
 40
0.0
  0
LTYPE
  5
5D
330
5
100
AcDbSymbolTableRecord
100
AcDbLinetypeTableRecord
  2
Continuous
 70
     0
  3
Solid line
 72
    65
 73
     0
 40
0.0
  0
LTYPE
  5
81
330
5
100
AcDbSymbolTableRecord
100
AcDbLinetypeTableRecord
  2
HIDDEN
 70
     0
  3
Hidden __ __ __ __ __ __ __ __ __ __ __ __ __ _
 72
    65
 73
     2
 40
0.375
 49
0.25
 74
     0
 49
-0.125
 74
     0
  0
LTYPE
  5
82
330
5
100
AcDbSymbolTableRecord
100
AcDbLinetypeTableRecord
  2
PHANTOM2
 70
     0
  3
Phantom (.5x) ___ _ _ ___ _ _ ___ _ _ ___ _ _
 72
    65
 73
     6
 40
1.25
 49
0.625
 74
     0
 49
-0.125
 74
     0
 49
0.125
 74
     0
 49
-0.125
 74
     0
 49
0.125
 74
     0
 49
-0.125
 74
     0
  0
LTYPE
  5
83
330
5
100
AcDbSymbolTableRecord
100
AcDbLinetypeTableRecord
  2
CENTER
 70
     0
  3
Center ____ _ ____ _ ____ _ ____ _ ____ _ ____
 72
    65
 73
     4
 40
2.0
 49
1.25
 74
     0
 49
-0.25
 74
     0
 49
0.25
 74
     0
 49
-0.25
 74
     0
  0
LTYPE
  5
9C
330
5
100
AcDbSymbolTableRecord
100
AcDbLinetypeTableRecord
  2
CENTER2
 70
     0
  3
Center (.5x) ___ _ ___ _ ___ _ ___ _ ___ _ ___
 72
    65
 73
     4
 40
1.125
 49
0.75
 74
     0
 49
-0.125
 74
     0
 49
0.125
 74
     0
 49
-0.125
 74
     0
  0
LTYPE
  5
9D
330
5
100
AcDbSymbolTableRecord
100
AcDbLinetypeTableRecord
  2
HIDDEN2
 70
     0
  3
Hidden (.5x) _ _ _ _ _ _ _ _ _ _ _ _ _ _ _ _ _
 72
    65
 73
     2
 40
0.1875
 49
0.125
 74
     0
 49
-0.0625
 74
     0
  0
LTYPE
  5
9E
330
5
100
AcDbSymbolTableRecord
100
AcDbLinetypeTableRecord
  2
Amconstr
 70
     0
  3
_______________________
 72
    65
 73
     2
 40
9999.0
 49
9999.0
 74
     0
 49
0.0
 74
     0
  0
LTYPE
  5
9F
330
5
100
AcDbSymbolTableRecord
100
AcDbLinetypeTableRecord
  2
Amzigzag2
 70
     0
  3
/\/-/\/-/\/-/\/-/\/-/\/
 72
    65
 73
     2
 40
0.4401
 49
0.0001
 74
     4
 75
   136
340
99
 46
0.0016
 50
0.0
 44
0.0
 45
0.0
 49
-0.44
 74
     0
  0
LTYPE
  5
A0
330
5
100
AcDbSymbolTableRecord
100
AcDbLinetypeTableRecord
  2
ACANSTGB
 70
     0
  3
__ . . __ . .
 72
    65
 73
     6
 40
0.354331
 49
0.15748
 74
     0
 49
-0.03937
 74
     0
 49
0.03937
 74
     0
 49
-0.03937
 74
     0
 49
0.03937
 74
     0
 49
-0.03937
 74
     0
  0
LTYPE
  5
A1
330
5
100
AcDbSymbolTableRecord
100
AcDbLinetypeTableRecord
  2
ACANSTGL
 70
     0
  3
_ _ _ _ _
 72
    65
 73
     2
 40
0.11811
 49
0.07874
 74
     0
 49
-0.03937
 74
     0
  0
ENDTAB
  0
TABLE
  2
LAYER
  5
2
330
0
100
AcDbSymbolTable
 70
     8
  0
LAYER
  5
54
330
2
100
AcDbSymbolTableRecord
100
AcDbLayerTableRecord
  2
0
 70
     0
 62
     7
  6
Continuous
370
    -3
390
F
347
21
348
0
1001
AcAecLayerStandard
1000

1000

  0
LAYER
  5
79
330
2
100
AcDbSymbolTableRecord
100
AcDbLayerTableRecord
  2
Defpoints
 70
     0
 62
     7
  6
Continuous
290
     0
370
    -3
390
F
347
21
348
0
1001
AcAecLayerStandard
1000

1000

  0
LAYER
  5
BB
330
2
100
AcDbSymbolTableRecord
100
AcDbLayerTableRecord
  2
Visible
 70
     0
 62
     7
  6
Continuous
370
    35
390
F
347
21
348
0
  0
LAYER
  5
E1
330
2
100
AcDbSymbolTableRecord
100
AcDbLayerTableRecord
  2
Border
 70
     0
 62
     7
  6
Continuous
370
    -3
390
F
347
21
348
0
1001
AcAecLayerStandard
1000

1000

1001
AcCmTransparency
1071
        0
  0
LAYER
  5
103
330
2
100
AcDbSymbolTableRecord
100
AcDbLayerTableRecord
  2
Titleblock
 70
     0
 62
     7
  6
Continuous
370
    -3
390
F
347
21
348
0
1001
AcAecLayerStandard
1000

1000

1001
AcCmTransparency
1071
        0
  0
LAYER
  5
158
330
2
100
AcDbSymbolTableRecord
100
AcDbLayerTableRecord
  2
Dimensions
 70
     0
 62
     7
  6
Continuous
370
    18
390
F
347
21
348
0
  0
LAYER
  5
1AD
330
2
100
AcDbSymbolTableRecord
100
AcDbLayerTableRecord
  2
Center Lines
 70
     0
 62
     7
  6
CENTER2
370
    18
390
F
347
21
348
0
  0
ENDTAB
  0
TABLE
  2
STYLE
  5
3
330
0
100
AcDbSymbolTable
 70
     5
  0
STYLE
  5
55
330
3
100
AcDbSymbolTableRecord
100
AcDbTextStyleTableRecord
  2
Standard
 70
     0
 40
0.0
 41
1.0
 50
0.0
 71
     0
 42
0.12
  3
arial.ttf
  4

1001
ACAD
1000
Arial
1071
       34
  0
STYLE
  5
5A
330
3
100
AcDbSymbolTableRecord
100
AcDbTextStyleTableRecord
  2
Annotative
 70
     0
 40
0.0
 41
1.0
 50
0.0
 71
     0
 42
0.2
  3
txt
  4

1001
AcadAnnotative
1000
AnnotativeData
1002
{
1070
     1
1070
     1
1002
}
  0
STYLE
  5
98
330
3
100
AcDbSymbolTableRecord
100
AcDbTextStyleTableRecord
  2
FusionTitle
 70
     0
 40
0.0
 41
1.0
 50
0.0
 71
     0
 42
0.2
  3
arial.ttf
  4

1001
ACAD
1000
Arial
1071
       34
  0
STYLE
  5
99
330
3
100
AcDbSymbolTableRecord
100
AcDbTextStyleTableRecord
  2

 70
     1
 40
0.0
 41
1.0
 50
0.0
 71
     0
 42
0.12
  3
genltshp.shx
  4

  0
STYLE
  5
9A
330
3
100
AcDbSymbolTableRecord
100
AcDbTextStyleTableRecord
  2
ACANSGDT
 70
     0
 40
0.0
 41
1.0
 50
0.0
 71
     0
 42
0.12
  3
amgdt.shx
  4

  0
ENDTAB
  0
TABLE
  2
VIEW
  5
6
330
0
100
AcDbSymbolTable
 70
     0
  0
ENDTAB
  0
TABLE
  2
UCS
  5
7
330
0
100
AcDbSymbolTable
 70
     0
  0
ENDTAB
  0
TABLE
  2
APPID
  5
9
330
0
100
AcDbSymbolTable
 70
    25
  0
APPID
  5
56
330
9
100
AcDbSymbolTableRecord
100
AcDbRegAppTableRecord
  2
ACAD
 70
     0
  0
APPID
  5
5E
330
9
100
AcDbSymbolTableRecord
100
AcDbRegAppTableRecord
  2
AcadAnnotative
 70
     0
  0
APPID
  5
78
330
9
100
AcDbSymbolTableRecord
100
AcDbRegAppTableRecord
  2
ACAD_PSEXT
 70
     0
  0
APPID
  5
7A
330
9
100
AcDbSymbolTableRecord
100
AcDbRegAppTableRecord
  2
MCAD_NO_VIS
 70
     0
  0
APPID
  5
7B
330
9
100
AcDbSymbolTableRecord
100
AcDbRegAppTableRecord
  2
ACAD_TEMP_GRAPHIC
 70
     0
  0
APPID
  5
84
330
9
100
AcDbSymbolTableRecord
100
AcDbRegAppTableRecord
  2
ACAD_DSTYLE_DIMJAG
 70
     0
  0
APPID
  5
85
330
9
100
AcDbSymbolTableRecord
100
AcDbRegAppTableRecord
  2
ACAD_DSTYLE_DIMTALN
 70
     0
  0
APPID
  5
86
330
9
100
AcDbSymbolTableRecord
100
AcDbRegAppTableRecord
  2
ACAD_NAV_VCDISPLAY
 70
     0
  0
APPID
  5
87
330
9
100
AcDbSymbolTableRecord
100
AcDbRegAppTableRecord
  2
AcAecLayerStandard
 70
     0
  0
APPID
  5
88
330
9
100
AcDbSymbolTableRecord
100
AcDbRegAppTableRecord
  2
AcCmTransparency
 70
     0
  0
APPID
  5
89
330
9
100
AcDbSymbolTableRecord
100
AcDbRegAppTableRecord
  2
AcDbDynamicBlockGUID
 70
     0
  0
APPID
  5
8A
330
9
100
AcDbSymbolTableRecord
100
AcDbRegAppTableRecord
  2
ACAD_DSTYLE_DIMBREAK
 70
     0
  0
APPID
  5
8B
330
9
100
AcDbSymbolTableRecord
100
AcDbRegAppTableRecord
  2
FUSIONTITLEBLOCK
 70
     0
  0
APPID
  5
8C
330
9
100
AcDbSymbolTableRecord
100
AcDbRegAppTableRecord
  2
FUSIONCURRENTTITLEBLOCK
 70
     0
  0
APPID
  5
8D
330
9
100
AcDbSymbolTableRecord
100
AcDbRegAppTableRecord
  2
AcSynergy
 70
     0
  0
APPID
  5
8E
330
9
100
AcDbSymbolTableRecord
100
AcDbRegAppTableRecord
  2
GENIUS_GENSCREG_15
 70
     0
  0
APPID
  5
8F
330
9
100
AcDbSymbolTableRecord
100
AcDbRegAppTableRecord
  2
GENIUS_GENOBJ-N-SDF_13
 70
     0
  0
APPID
  5
90
330
9
100
AcDbSymbolTableRecord
100
AcDbRegAppTableRecord
  2
GENIUS_GENODEF_13
 70
     0
  0
APPID
  5
91
330
9
100
AcDbSymbolTableRecord
100
AcDbRegAppTableRecord
  2
ACAD_TC
 70
     0
  0
APPID
  5
92
330
9
100
AcDbSymbolTableRecord
100
AcDbRegAppTableRecord
  2
ACAD_DIMASSOC_CALC_DIMLFAC
 70
     0
  0
APPID
  5
93
330
9
100
AcDbSymbolTableRecord
100
AcDbRegAppTableRecord
  2
ACAD_DIMASSOC_DIMLFAC
 70
     0
  0
APPID
  5
94
330
9
100
AcDbSymbolTableRecord
100
AcDbRegAppTableRecord
  2
ACAD_DIMASSOC_OVERRIDDEN_DIMLFAC
 70
     0
  0
APPID
  5
95
330
9
100
AcDbSymbolTableRecord
100
AcDbRegAppTableRecord
  2
ACAD_DSTYLE_DIMJAG_POSITION
 70
     0
  0
APPID
  5
96
330
9
100
AcDbSymbolTableRecord
100
AcDbRegAppTableRecord
  2
FUSIONTITLEBLOCKATTRIBUTEOVERRIDE
 70
     0
  0
APPID
  5
97
330
9
100
AcDbSymbolTableRecord
100
AcDbRegAppTableRecord
  2
ACATTRIBSERVICES
 70
     0
  0
ENDTAB
  0
TABLE
  2
DIMSTYLE
  5
A
330
0
100
AcDbSymbolTable
 70
     2
100
AcDbDimStyleTable
 71
     1
340
58
  0
DIMSTYLE
105
58
102
{ACAD_REACTORS
330
157
330
166
330
174
330
182
330
190
330
19E
330
1FD
330
20B
102
}
330
A
100
AcDbSymbolTableRecord
100
AcDbDimStyleTableRecord
  2
Standard
 70
     0
 41
0.12
 42
0.07
 43
0.36
 44
0.07
 47
0.01
 48
0.01
 78
     8
 79
     2
 90
        1
140
0.12
141
0.0
143
0.03937
144
25.4
147
0.05
176
   256
177
   256
178
   256
179
     2
271
     2
272
     2
284
     8
285
    12
286
    12
340
55
  0
DIMSTYLE
105
59
330
A
100
AcDbSymbolTableRecord
100
AcDbDimStyleTableRecord
  2
Annotative
 70
     0
 40
0.0
 41
0.12
 42
0.07
 43
0.36
 44
0.07
 78
     8
 79
     2
140
0.12
143
0.03937
144
25.4
147
0.05
179
     2
271
     2
272
     2
284
     8
340
55
1001
AcadAnnotative
1000
AnnotativeData
1002
{
1070
     1
1070
     1
1002
}
  0
ENDTAB
  0
TABLE
  2
BLOCK_RECORD
  5
1
330
0
100
AcDbSymbolTable
 70
    28
  0
BLOCK_RECORD
  5
70
102
{ACAD_XDICTIONARY
360
B4
102
}
330
1
100
AcDbSymbolTableRecord
100
AcDbBlockTableRecord
  2
*Model_Space
340
73
 70
     0
280
     1
281
     0
  0
BLOCK_RECORD
  5
6C
330
1
100
AcDbSymbolTableRecord
100
AcDbBlockTableRecord
  2
*Paper_Space
340
6F
 70
     0
280
     1
281
     0
  0
BLOCK_RECORD
  5
74
330
1
100
AcDbSymbolTableRecord
100
AcDbBlockTableRecord
  2
*Paper_Space0
340
77
 70
     0
280
     1
281
     0
  0
BLOCK_RECORD
  5
E2
102
{ACAD_XDICTIONARY
360
E3
102
}
330
1
100
AcDbSymbolTableRecord
100
AcDbBlockTableRecord
  2
ANSI_A(H)_SHEET
340
0
310
2800000020000000200000000100080000000000000400000000000000000000000000000000000000000000000080000080000000808000800000008000800080800000C0C0C000C0DCC000F0CAA6000020400000206000002080000020A0000020C0000020E00000400000004020000040400000406000004080000040A0
310
000040C0000040E00000600000006020000060400000606000006080000060A0000060C0000060E00000800000008020000080400000806000008080000080A0000080C0000080E00000A0000000A0200000A0400000A0600000A0800000A0A00000A0C00000A0E00000C0000000C0200000C0400000C0600000C0800000C0
310
A00000C0C00000C0E00000E0000000E0200000E0400000E0600000E0800000E0A00000E0C00000E0E00040000000400020004000400040006000400080004000A0004000C0004000E00040200000402020004020400040206000402080004020A0004020C0004020E000404000004040200040404000404060004040800040
310
40A0004040C0004040E00040600000406020004060400040606000406080004060A0004060C0004060E00040800000408020004080400040806000408080004080A0004080C0004080E00040A0000040A0200040A0400040A0600040A0800040A0A00040A0C00040A0E00040C0000040C0200040C0400040C0600040C08000
310
40C0A00040C0C00040C0E00040E0000040E0200040E0400040E0600040E0800040E0A00040E0C00040E0E00080000000800020008000400080006000800080008000A0008000C0008000E00080200000802020008020400080206000802080008020A0008020C0008020E00080400000804020008040400080406000804080
310
008040A0008040C0008040E00080600000806020008060400080606000806080008060A0008060C0008060E00080800000808020008080400080806000808080008080A0008080C0008080E00080A0000080A0200080A0400080A0600080A0800080A0A00080A0C00080A0E00080C0000080C0200080C0400080C0600080C0
310
800080C0A00080C0C00080C0E00080E0000080E0200080E0400080E0600080E0800080E0A00080E0C00080E0E000C0000000C0002000C0004000C0006000C0008000C000A000C000C000C000E000C0200000C0202000C0204000C0206000C0208000C020A000C020C000C020E000C0400000C0402000C0404000C0406000C0
310
408000C040A000C040C000C040E000C0600000C0602000C0604000C0606000C0608000C060A000C060C000C060E000C0800000C0802000C0804000C0806000C0808000C080A000C080C000C080E000C0A00000C0A02000C0A04000C0A06000C0A08000C0A0A000C0A0C000C0A0E000C0C00000C0C02000C0C04000C0C06000
310
C0C08000C0C0A000F0FBFF00A4A0A000808080000000FF0000FF000000FFFF00FF000000FF00FF00FFFF0000FFFFFF0049494949494949494949494949494949494949494949494949494949494949494949494949494949494949494949494949494949494949494949494949494949494949494949494949494949494949
310
49494949494949494949494949494949494949494949494949494949494949494949494949494949494949494949494949494949494949494949494949494949494949494949494949494949494949494949FFFFFF4949494949494949494949FFFF4949494949494949494949FFFFFF4949FFFFFFFFFFFFFFFFFFFFFFFFFF
310
FFFFFFFFFFFFFFFFFFFFFFFFFFFFFFFFFF494949FF4949494949494949494949494949494949494949494949494949FF49494949FF4949494949494949494949494949494949494949494949494949FF49494949FF4949494949494949494949494949494949494949494949494949FF49494949FF49494949494949494949
310
49494949494949494949494949494949FF49494949FF4949494949494949494949494949494949494949494949494949FF49494949FF4949494949494949494949494949494949494949494949494949FF49494949FF4949494949494949494949494949494949494949494949494949FF49494949FF494949494949494949
310
4949494949494949494949494949494949FF49494949FF4949494949494949494949494949494949494949494949494949FF494949FFFF4949494949494949494949494949494949494949494949494949FFFF494949FF4949494949494949494949494949494949494949494949494949FF49494949FF4949494949494949
310
494949494949494949494949494949494949FF49494949FF4949494949494949494949494949494949494949494949494949FF49494949FF4949494949494949494949494949494949494949494949494949FF49494949FF4949494949494949494949494949494949494949494949494949FF49494949FF49494949494949
310
49494949494949494949494949494949494949FF49494949FF4949494949494949494949494949494949494949494949494949FF49494949FF4949494949494949494949494949494949494949494949494949FF494949FFFFFFFFFFFFFFFFFFFFFFFFFFFFFFFFFFFFFFFFFFFFFFFFFFFFFFFFFFFF4949FFFFFF4949494949
310
494949494949FFFF4949494949494949494949FFFFFF494949494949494949494949494949494949494949494949494949494949494949494949494949494949494949494949494949494949494949494949494949494949494949494949494949494949494949494949494949494949494949494949494949494949494949
310
4949494949494949494949494949494949494949494949494949494949494949494949494949494949494949494949494949494949494949
102
{BLKREFS
331
E0
102
}
 70
     1
280
     1
281
     0
1001
AcDbDynamicBlockGUID
1000
{8109172D-3D03-7444-958E-10263DF39AAF}
  0
BLOCK_RECORD
  5
104
102
{ACAD_XDICTIONARY
360
105
102
}
330
1
100
AcDbSymbolTableRecord
100
AcDbBlockTableRecord
  2
ANSI_TITLEBLOCK
340
0
310
2800000020000000200000000100080000000000000400000000000000000000000000000000000000000000000080000080000000808000800000008000800080800000C0C0C000C0DCC000F0CAA6000020400000206000002080000020A0000020C0000020E00000400000004020000040400000406000004080000040A0
310
000040C0000040E00000600000006020000060400000606000006080000060A0000060C0000060E00000800000008020000080400000806000008080000080A0000080C0000080E00000A0000000A0200000A0400000A0600000A0800000A0A00000A0C00000A0E00000C0000000C0200000C0400000C0600000C0800000C0
310
A00000C0C00000C0E00000E0000000E0200000E0400000E0600000E0800000E0A00000E0C00000E0E00040000000400020004000400040006000400080004000A0004000C0004000E00040200000402020004020400040206000402080004020A0004020C0004020E000404000004040200040404000404060004040800040
310
40A0004040C0004040E00040600000406020004060400040606000406080004060A0004060C0004060E00040800000408020004080400040806000408080004080A0004080C0004080E00040A0000040A0200040A0400040A0600040A0800040A0A00040A0C00040A0E00040C0000040C0200040C0400040C0600040C08000
310
40C0A00040C0C00040C0E00040E0000040E0200040E0400040E0600040E0800040E0A00040E0C00040E0E00080000000800020008000400080006000800080008000A0008000C0008000E00080200000802020008020400080206000802080008020A0008020C0008020E00080400000804020008040400080406000804080
310
008040A0008040C0008040E00080600000806020008060400080606000806080008060A0008060C0008060E00080800000808020008080400080806000808080008080A0008080C0008080E00080A0000080A0200080A0400080A0600080A0800080A0A00080A0C00080A0E00080C0000080C0200080C0400080C0600080C0
310
800080C0A00080C0C00080C0E00080E0000080E0200080E0400080E0600080E0800080E0A00080E0C00080E0E000C0000000C0002000C0004000C0006000C0008000C000A000C000C000C000E000C0200000C0202000C0204000C0206000C0208000C020A000C020C000C020E000C0400000C0402000C0404000C0406000C0
310
408000C040A000C040C000C040E000C0600000C0602000C0604000C0606000C0608000C060A000C060C000C060E000C0800000C0802000C0804000C0806000C0808000C080A000C080C000C080E000C0A00000C0A02000C0A04000C0A06000C0A08000C0A0A000C0A0C000C0A0E000C0C00000C0C02000C0C04000C0C06000
310
C0C08000C0C0A000F0FBFF00A4A0A000808080000000FF0000FF000000FFFF00FF000000FF00FF00FFFF0000FFFFFF0049494949494949494949494949494949494949494949494949494949494949494949494949494949494949494949494949494949494949494949494949494949494949494949494949494949494949
310
49494949494949494949494949494949494949494949494949494949494949494949494949494949494949494949494949494949494949494949494949494949494949494949494949494949494949494949494949494949494949494949494949494949494949494949494949494949494949494949494949494949494949
310
49494949494949494949494949494949494949494949494949494949494949494949494949494949494949494949494949494949494949494949494949494949494949494949494949494949494949494949494949494949494949494949494949494949494949494949494949494949494949494949494949494949494949
310
4949494949494949494949494949494949494949FFFFFFFFFFFFFFFFFFFFFFFFFFFFFFFFFFFFFFFFFFFFFFFFFFFFFFFFFFFF4949FFFFFFFFFFFFFFFFFFFFFFFFFFFFFFFFFFFFFFFFFFFFFFFFFFFFFFFFFFFF4949FFFFFFFFFFFFFFFFFFFFFFFFFFFFFF49FFFFFFFF49494949494949FFFFFF4949FFFFFFFFFFFFFFFFFFFFFF
310
FFFFFFFFFFFFFFFFFFFFFFFFFFFFFFFFFFFFFF4949FF494949494949494949FFFFFFFFFFFF49494949494949494949494949FF4949FF494949494949494949FFFFFFFFFFFF49494949494949494949494949FF4949FF494949494949494949FFFFFFFF49FF49494949494949494949494949FF4949FF494949494949494949
310
FFFFFFFFFFFFFFFFFFFFFFFFFFFFFFFFFFFFFFFF4949FF494949494949494949FFFFFFFFFFFFFF494949494949494949494949FF4949FFFFFFFFFFFFFFFFFFFFFFFFFFFFFFFFFFFFFFFFFFFFFFFFFFFFFFFFFFFF49494949494949494949494949494949494949494949494949494949494949494949494949494949494949
310
49494949494949494949494949494949494949494949494949494949494949494949494949494949494949494949494949494949494949494949494949494949494949494949494949494949494949494949494949494949494949494949494949494949494949494949494949494949494949494949494949494949494949
310
49494949494949494949494949494949494949494949494949494949494949494949494949494949494949494949494949494949494949494949494949494949494949494949494949494949494949494949494949494949494949494949494949494949494949494949494949494949494949494949494949494949494949
310
4949494949494949494949494949494949494949494949494949494949494949494949494949494949494949494949494949494949494949
102
{BLKREFS
331
102
102
}
 70
     1
280
     1
281
     0
1001
AcDbDynamicBlockGUID
1000
{0BF57870-7A89-534F-804C-E3D67B59D189}
1001
FUSIONTITLEBLOCK
1000
TitleBlock
  0
BLOCK_RECORD
  5
159
330
1
100
AcDbSymbolTableRecord
100
AcDbBlockTableRecord
  2
*D4
340
0
 70
     0
280
     1
281
     0
  0
BLOCK_RECORD
  5
167
330
1
100
AcDbSymbolTableRecord
100
AcDbBlockTableRecord
  2
*D5
340
0
 70
     0
280
     1
281
     0
  0
BLOCK_RECORD
  5
175
330
1
100
AcDbSymbolTableRecord
100
AcDbBlockTableRecord
  2
*D6
340
0
 70
     0
280
     1
281
     0
  0
BLOCK_RECORD
  5
183
330
1
100
AcDbSymbolTableRecord
100
AcDbBlockTableRecord
  2
*D7
340
0
 70
     0
280
     1
281
     0
  0
BLOCK_RECORD
  5
191
330
1
100
AcDbSymbolTableRecord
100
AcDbBlockTableRecord
  2
*D8
340
0
 70
     0
280
     1
281
     0
  0
BLOCK_RECORD
  5
19F
330
1
100
AcDbSymbolTableRecord
100
AcDbBlockTableRecord
  2
*D9
340
0
 70
     0
280
     1
281
     0
  0
BLOCK_RECORD
  5
1AE
330
1
100
AcDbSymbolTableRecord
100
AcDbBlockTableRecord
  2
*U10
340
0
102
{BLKREFS
331
1AC
102
}
 70
     0
280
     1
281
     0
  0
BLOCK_RECORD
  5
1B8
330
1
100
AcDbSymbolTableRecord
100
AcDbBlockTableRecord
  2
*U11
340
0
102
{BLKREFS
331
1B7
102
}
 70
     0
280
     1
281
     0
  0
BLOCK_RECORD
  5
1C2
330
1
100
AcDbSymbolTableRecord
100
AcDbBlockTableRecord
  2
*U12
340
0
102
{BLKREFS
331
1C1
102
}
 70
     0
280
     1
281
     0
  0
BLOCK_RECORD
  5
1CC
330
1
100
AcDbSymbolTableRecord
100
AcDbBlockTableRecord
  2
*U13
340
0
102
{BLKREFS
331
1CB
102
}
 70
     0
280
     1
281
     0
  0
BLOCK_RECORD
  5
1D6
330
1
100
AcDbSymbolTableRecord
100
AcDbBlockTableRecord
  2
*U14
340
0
102
{BLKREFS
331
1D5
102
}
 70
     0
280
     1
281
     0
  0
BLOCK_RECORD
  5
1E0
330
1
100
AcDbSymbolTableRecord
100
AcDbBlockTableRecord
  2
*U15
340
0
102
{BLKREFS
331
1DF
102
}
 70
     0
280
     1
281
     0
  0
BLOCK_RECORD
  5
1EA
330
1
100
AcDbSymbolTableRecord
100
AcDbBlockTableRecord
  2
*U16
340
0
102
{BLKREFS
331
1E9
102
}
 70
     0
280
     1
281
     0
  0
BLOCK_RECORD
  5
1F4
330
1
100
AcDbSymbolTableRecord
100
AcDbBlockTableRecord
  2
*U17
340
0
102
{BLKREFS
331
1F3
102
}
 70
     0
280
     1
281
     0
  0
BLOCK_RECORD
  5
1FE
330
1
100
AcDbSymbolTableRecord
100
AcDbBlockTableRecord
  2
*D18
340
0
 70
     0
280
     1
281
     0
  0
BLOCK_RECORD
  5
20C
330
1
100
AcDbSymbolTableRecord
100
AcDbBlockTableRecord
  2
*D19
340
0
 70
     0
280
     1
281
     0
  0
BLOCK_RECORD
  5
21B
330
1
100
AcDbSymbolTableRecord
100
AcDbBlockTableRecord
  2
*D20
340
0
 70
     0
280
     1
281
     0
  0
BLOCK_RECORD
  5
228
330
1
100
AcDbSymbolTableRecord
100
AcDbBlockTableRecord
  2
*D21
340
0
 70
     0
280
     1
281
     0
  0
BLOCK_RECORD
  5
235
330
1
100
AcDbSymbolTableRecord
100
AcDbBlockTableRecord
  2
*D22
340
0
 70
     0
280
     1
281
     0
  0
BLOCK_RECORD
  5
242
330
1
100
AcDbSymbolTableRecord
100
AcDbBlockTableRecord
  2
*D23
340
0
 70
     0
280
     1
281
     0
  0
BLOCK_RECORD
  5
24F
330
1
100
AcDbSymbolTableRecord
100
AcDbBlockTableRecord
  2
*D24
340
0
 70
     0
280
     1
281
     0
  0
BLOCK_RECORD
  5
25C
330
1
100
AcDbSymbolTableRecord
100
AcDbBlockTableRecord
  2
*D25
340
0
 70
     0
280
     1
281
     0
  0
BLOCK_RECORD
  5
269
330
1
100
AcDbSymbolTableRecord
100
AcDbBlockTableRecord
  2
*D26
340
0
 70
     0
280
     1
281
     0
  0
BLOCK_RECORD
  5
276
330
1
100
AcDbSymbolTableRecord
100
AcDbBlockTableRecord
  2
*D27
340
0
 70
     0
280
     1
281
     0
  0
ENDTAB
  0
ENDSEC
  0
SECTION
  2
BLOCKS
  0
BLOCK
  5
71
330
70
100
AcDbEntity
  8
0
100
AcDbBlockBegin
  2
*Model_Space
 70
     0
 10
0.0
 20
0.0
 30
0.0
  3
*Model_Space
  1

  0
ENDBLK
  5
72
330
70
100
AcDbEntity
  8
0
100
AcDbBlockEnd
  0
BLOCK
  5
6D
330
6C
100
AcDbEntity
 67
     1
  8
0
100
AcDbBlockBegin
  2
*Paper_Space
 70
     0
 10
0.0
 20
0.0
 30
0.0
  3
*Paper_Space
  1

  0
ENDBLK
  5
6E
330
6C
100
AcDbEntity
 67
     1
  8
0
100
AcDbBlockEnd
  0
BLOCK
  5
75
330
74
100
AcDbEntity
 67
     1
  8
0
100
AcDbBlockBegin
  2
*Paper_Space0
 70
     0
 10
0.0
 20
0.0
 30
0.0
  3
*Paper_Space0
  1

  0
ENDBLK
  5
76
330
74
100
AcDbEntity
 67
     1
  8
0
100
AcDbBlockEnd
  0
BLOCK
  5
E4
330
E2
100
AcDbEntity
  8
0
100
AcDbBlockBegin
  2
ANSI_A(H)_SHEET
 70
     0
 10
0.0
 20
0.0
 30
0.0
  3
ANSI_A(H)_SHEET
  1

  0
LINE
  5
E5
330
E2
100
AcDbEntity
  8
Defpoints
100
AcDbLine
 10
0.0
 20
0.0
 30
0.0
 11
0.5
 21
0.0
 31
0.0
  0
LINE
  5
E6
330
E2
100
AcDbEntity
  8
Defpoints
100
AcDbLine
 10
10.5
 20
0.0
 30
0.0
 11
11.0
 21
0.0
 31
0.0
  0
LINE
  5
E7
330
E2
100
AcDbEntity
  8
Border
100
AcDbLine
 10
0.25
 20
0.38
 30
0.0
 11
10.75
 21
0.38
 31
0.0
  0
LINE
  5
E8
330
E2
100
AcDbEntity
  8
Defpoints
100
AcDbLine
 10
11.0
 20
0.0
 30
0.0
 11
11.0
 21
0.5
 31
0.0
  0
LINE
  5
E9
330
E2
100
AcDbEntity
  8
Defpoints
100
AcDbLine
 10
11.0
 20
8.0
 30
0.0
 11
11.0
 21
8.5
 31
0.0
  0
LINE
  5
EA
330
E2
100
AcDbEntity
  8
Border
100
AcDbLine
 10
10.75
 20
0.38
 30
0.0
 11
10.75
 21
8.12
 31
0.0
  0
LINE
  5
EB
330
E2
100
AcDbEntity
  8
Defpoints
100
AcDbLine
 10
11.0
 20
8.5
 30
0.0
 11
10.5
 21
8.5
 31
0.0
  0
LINE
  5
EC
330
E2
100
AcDbEntity
  8
Defpoints
100
AcDbLine
 10
0.5
 20
8.5
 30
0.0
 11
0.0
 21
8.5
 31
0.0
  0
LINE
  5
ED
330
E2
100
AcDbEntity
  8
Border
100
AcDbLine
 10
10.75
 20
8.12
 30
0.0
 11
0.25
 21
8.12
 31
0.0
  0
LINE
  5
EE
330
E2
100
AcDbEntity
  8
Border
100
AcDbLine
 10
5.586603
 20
8.27
 30
0.0
 11
5.413397
 21
8.27
 31
0.0
  0
LINE
  5
EF
330
E2
100
AcDbEntity
  8
Defpoints
100
AcDbLine
 10
0.0
 20
8.5
 30
0.0
 11
0.0
 21
8.0
 31
0.0
  0
LINE
  5
F0
330
E2
100
AcDbEntity
  8
Defpoints
100
AcDbLine
 10
0.0
 20
0.5
 30
0.0
 11
0.0
 21
0.0
 31
0.0
  0
LINE
  5
F1
330
E2
100
AcDbEntity
  8
Border
100
AcDbLine
 10
0.25
 20
8.12
 30
0.0
 11
0.25
 21
0.38
 31
0.0
  0
LINE
  5
F2
330
E2
100
AcDbEntity
  8
Border
100
AcDbLine
 10
5.5
 20
8.12
 30
0.0
 11
5.5
 21
8.37
 31
0.0
  0
LINE
  5
F3
330
E2
100
AcDbEntity
  8
Border
100
AcDbLine
 10
5.5
 20
8.12
 30
0.0
 11
5.586603
 21
8.27
 31
0.0
  0
LINE
  5
F4
330
E2
100
AcDbEntity
  8
Border
100
AcDbLine
 10
5.5
 20
8.12
 30
0.0
 11
5.413397
 21
8.27
 31
0.0
  0
LINE
  5
F5
330
E2
100
AcDbEntity
  8
Border
100
AcDbLine
 10
5.586603
 20
0.23
 30
0.0
 11
5.413397
 21
0.23
 31
0.0
  0
LINE
  5
F6
330
E2
100
AcDbEntity
  8
Border
100
AcDbLine
 10
5.5
 20
0.38
 30
0.0
 11
5.5
 21
0.13
 31
0.0
  0
LINE
  5
F7
330
E2
100
AcDbEntity
  8
Border
100
AcDbLine
 10
5.5
 20
0.38
 30
0.0
 11
5.586603
 21
0.23
 31
0.0
  0
LINE
  5
F8
330
E2
100
AcDbEntity
  8
Border
100
AcDbLine
 10
5.5
 20
0.38
 30
0.0
 11
5.413397
 21
0.23
 31
0.0
  0
LINE
  5
F9
330
E2
100
AcDbEntity
  8
Border
100
AcDbLine
 10
10.9
 20
4.336603
 30
0.0
 11
10.9
 21
4.163397
 31
0.0
  0
LINE
  5
FA
330
E2
100
AcDbEntity
  8
Border
100
AcDbLine
 10
10.75
 20
4.25
 30
0.0
 11
11.0
 21
4.25
 31
0.0
  0
LINE
  5
FB
330
E2
100
AcDbEntity
  8
Border
100
AcDbLine
 10
10.75
 20
4.25
 30
0.0
 11
10.9
 21
4.336603
 31
0.0
  0
LINE
  5
FC
330
E2
100
AcDbEntity
  8
Border
100
AcDbLine
 10
10.75
 20
4.25
 30
0.0
 11
10.9
 21
4.163397
 31
0.0
  0
LINE
  5
FD
330
E2
100
AcDbEntity
  8
Border
100
AcDbLine
 10
0.1
 20
4.336603
 30
0.0
 11
0.1
 21
4.163397
 31
0.0
  0
LINE
  5
FE
330
E2
100
AcDbEntity
  8
Border
100
AcDbLine
 10
0.25
 20
4.25
 30
0.0
 11
0.0
 21
4.25
 31
0.0
  0
LINE
  5
FF
330
E2
100
AcDbEntity
  8
Border
100
AcDbLine
 10
0.25
 20
4.25
 30
0.0
 11
0.1
 21
4.336603
 31
0.0
  0
LINE
  5
100
330
E2
100
AcDbEntity
  8
Border
100
AcDbLine
 10
0.25
 20
4.25
 30
0.0
 11
0.1
 21
4.163397
 31
0.0
  0
ENDBLK
  5
101
330
E2
100
AcDbEntity
  8
0
100
AcDbBlockEnd
  0
BLOCK
  5
107
330
104
100
AcDbEntity
  8
0
100
AcDbBlockBegin
  2
ANSI_TITLEBLOCK
 70
     2
 10
0.0
 20
0.0
 30
0.0
  3
ANSI_TITLEBLOCK
  1

  0
LINE
  5
108
330
104
100
AcDbEntity
  8
Titleblock
100
AcDbLine
 10
-7.74
 20
0.0
 30
0.0
 11
0.0
 21
0.0
 31
0.0
  0
LINE
  5
109
330
104
100
AcDbEntity
  8
Titleblock
100
AcDbLine
 10
-5.12
 20
1.88
 30
0.0
 11
0.0
 21
1.88
 31
0.0
  0
LINE
  5
10A
330
104
100
AcDbEntity
  8
Titleblock
100
AcDbLine
 10
-7.74
 20
0.25
 30
0.0
 11
0.0
 21
0.25
 31
0.0
  0
LINE
  5
10B
330
104
100
AcDbEntity
  8
Titleblock
100
AcDbLine
 10
-7.74
 20
0.5
 30
0.0
 11
-5.12
 21
0.5
 31
0.0
  0
LINE
  5
10C
330
104
100
AcDbEntity
  8
Titleblock
100
AcDbLine
 10
-7.74
 20
0.75
 30
0.0
 11
0.0
 21
0.75
 31
0.0
  0
LINE
  5
10D
330
104
100
AcDbEntity
  8
Titleblock
100
AcDbLine
 10
0.0
 20
0.0
 30
0.0
 11
0.0
 21
2.5
 31
0.0
  0
LINE
  5
10E
330
104
100
AcDbEntity
  8
Titleblock
100
AcDbLine
 10
-4.75
 20
0.25
 30
0.0
 11
-4.75
 21
0.75
 31
0.0
  0
LINE
  5
10F
330
104
100
AcDbEntity
  8
Titleblock
100
AcDbLine
 10
-3.5
 20
0.25
 30
0.0
 11
-3.5
 21
0.75
 31
0.0
  0
LINE
  5
110
330
104
100
AcDbEntity
  8
Titleblock
100
AcDbLine
 10
-5.12
 20
0.0
 30
0.0
 11
-5.12
 21
2.5
 31
0.0
  0
LINE
  5
111
330
104
100
AcDbEntity
  8
Titleblock
100
AcDbLine
 10
-3.75
 20
0.0
 30
0.0
 11
-3.75
 21
0.25
 31
0.0
  0
LINE
  5
112
330
104
100
AcDbEntity
  8
Titleblock
100
AcDbLine
 10
-1.75
 20
0.0
 30
0.0
 11
-1.75
 21
0.25
 31
0.0
  0
LINE
  5
113
330
104
100
AcDbEntity
  8
Titleblock
100
AcDbLine
 10
-0.5
 20
0.25
 30
0.0
 11
-0.5
 21
0.75
 31
0.0
  0
LINE
  5
114
330
104
100
AcDbEntity
  8
Titleblock
100
AcDbLine
 10
0.0
 20
2.5
 30
0.0
 11
-7.74
 21
2.5
 31
0.0
  0
LINE
  5
115
330
104
100
AcDbEntity
  8
Titleblock
100
AcDbLine
 10
-7.74
 20
2.5
 30
0.0
 11
-7.74
 21
0.0
 31
0.0
  0
TEXT
  5
116
330
104
100
AcDbEntity
  8
Titleblock
100
AcDbText
 10
-5.07
 20
2.35
 30
0.0
 40
0.1
  1
PROJECT
  7
FusionTitle
 11
-5.07
 21
2.45
 31
0.0
100
AcDbText
 73
     3
  0
TEXT
  5
117
330
104
100
AcDbEntity
  8
Titleblock
100
AcDbText
 10
-5.07
 20
1.73
 30
0.0
 40
0.1
  1
TITLE
  7
FusionTitle
 11
-5.07
 21
1.83
 31
0.0
100
AcDbText
 73
     3
  0
TEXT
  5
118
330
104
100
AcDbEntity
  8
Titleblock
100
AcDbText
 10
-7.69
 20
0.075
 30
0.0
 40
0.1
  1
DRAWN
  7
FusionTitle
 11
-7.69
 21
0.125
 31
0.0
100
AcDbText
 73
     2
  0
TEXT
  5
119
330
104
100
AcDbEntity
  8
Titleblock
100
AcDbText
 10
-7.69
 20
0.325
 30
0.0
 40
0.1
  1
CHECKED
  7
FusionTitle
 11
-7.69
 21
0.375
 31
0.0
100
AcDbText
 73
     2
  0
TEXT
  5
11A
330
104
100
AcDbEntity
  8
Titleblock
100
AcDbText
 10
-7.69
 20
0.575
 30
0.0
 40
0.1
  1
APPROVED
  7
FusionTitle
 11
-7.69
 21
0.625
 31
0.0
100
AcDbText
 73
     2
  0
TEXT
  5
11B
330
104
100
AcDbEntity
  8
Titleblock
100
AcDbText
 10
-5.060956
 20
0.075
 30
0.0
 40
0.1
  1
SCALE
  7
FusionTitle
 11
-5.060956
 21
0.125
 31
0.0
100
AcDbText
 73
     2
  0
TEXT
  5
11C
330
104
100
AcDbEntity
  8
Titleblock
100
AcDbText
 10
-3.7
 20
0.075
 30
0.0
 40
0.1
  1
WEIGHT
  7
FusionTitle
 11
-3.7
 21
0.125
 31
0.0
100
AcDbText
 73
     2
  0
TEXT
  5
11D
330
104
100
AcDbEntity
  8
Titleblock
100
AcDbText
 10
-1.7
 20
0.075
 30
0.0
 40
0.1
  1
SHEET
  7
FusionTitle
 11
-1.7
 21
0.125
 31
0.0
100
AcDbText
 73
     2
  0
TEXT
  5
11E
330
104
100
AcDbEntity
  8
Titleblock
100
AcDbText
 10
-3.45
 20
0.6
 30
0.0
 40
0.1
  1
DWG NO
  7
FusionTitle
 11
-3.45
 21
0.7
 31
0.0
100
AcDbText
 73
     3
  0
TEXT
  5
11F
330
104
100
AcDbEntity
  8
Titleblock
100
AcDbText
 10
-0.393622
 20
0.6
 30
0.0
 40
0.1
  1
REV
  7
FusionTitle
 72
     1
 11
-0.25
 21
0.7
 31
0.0
100
AcDbText
 73
     3
  0
TEXT
  5
120
330
104
100
AcDbEntity
  8
Titleblock
100
AcDbText
 10
-4.326808
 20
0.6
 30
0.0
 40
0.1
  1
CODE
  7
FusionTitle
 72
     1
 11
-4.125
 21
0.7
 31
0.0
100
AcDbText
 73
     3
  0
TEXT
  5
121
330
104
100
AcDbEntity
  8
Titleblock
100
AcDbText
 10
-5.090252
 20
0.6
 30
0.0
 40
0.1
  1
SIZE
  7
FusionTitle
 72
     1
 11
-4.935
 21
0.7
 31
0.0
100
AcDbText
 73
     3
  0
ATTDEF
  5
122
102
{ACAD_XDICTIONARY
360
123
102
}
330
104
100
AcDbEntity
  8
Titleblock
100
AcDbText
 10
-1.15
 20
0.065
 30
0.0
 40
0.12
  1

  7
FusionTitle
 11
-1.15
 21
0.125
 31
0.0
100
AcDbAttributeDefinition
280
     0
  3
Sheet
  2
SHEET
 70
     0
 74
     2
280
     1
  0
ATTDEF
  5
124
102
{ACAD_XDICTIONARY
360
125
102
}
330
104
100
AcDbEntity
  8
Titleblock
100
AcDbText
 10
-3.1
 20
0.065
 30
0.0
 40
0.12
  1

  7
FusionTitle
 11
-3.1
 21
0.125
 31
0.0
100
AcDbAttributeDefinition
280
     0
  3
Weight
  2
WEIGHT
 70
     0
 74
     2
280
     1
  0
ATTDEF
  5
126
102
{ACAD_XDICTIONARY
360
127
102
}
330
104
100
AcDbEntity
  8
Titleblock
100
AcDbText
 10
-4.52
 20
0.065
 30
0.0
 40
0.12
  1

  7
FusionTitle
 11
-4.52
 21
0.125
 31
0.0
100
AcDbAttributeDefinition
280
     0
  3
Scale
  2
SCALE
 70
     0
 74
     2
280
     1
  0
ATTDEF
  5
128
102
{ACAD_XDICTIONARY
360
129
102
}
330
104
100
AcDbEntity
  8
Titleblock
100
AcDbText
 10
-6.147967
 20
0.075
 30
0.0
 40
0.1
  1

  7
FusionTitle
 72
     2
 11
-5.17
 21
0.125
 31
0.0
100
AcDbAttributeDefinition
280
     0
  3
Drawn date
  2
DRAWN_DATE
 70
     0
 74
     2
280
     1
  0
ATTDEF
  5
12A
102
{ACAD_XDICTIONARY
360
12B
102
}
330
104
100
AcDbEntity
  8
Titleblock
100
AcDbText
 10
-6.851207
 20
0.075
 30
0.0
 40
0.1
  1

  7
FusionTitle
 11
-6.851207
 21
0.125
 31
0.0
100
AcDbAttributeDefinition
280
     0
  3
Drawn by
  2
DRAWN_BY
 70
     0
 74
     2
280
     1
  0
ATTDEF
  5
12C
102
{ACAD_XDICTIONARY
360
12D
102
}
330
104
100
AcDbEntity
  8
Titleblock
100
AcDbText
 10
-3.45
 20
0.335525
 30
0.0
 40
0.12
  1

  7
FusionTitle
 11
-3.45
 21
0.3
 31
0.0
100
AcDbAttributeDefinition
280
     0
  3
Drawing No
  2
DWG_NO
 70
     0
 74
     1
280
     1
  0
ATTDEF
  5
12E
102
{ACAD_XDICTIONARY
360
12F
102
}
330
104
100
AcDbEntity
  8
Titleblock
100
AcDbText
 10
-6.303356
 20
0.325
 30
0.0
 40
0.1
  1

  7
FusionTitle
 72
     2
 11
-5.17
 21
0.375
 31
0.0
100
AcDbAttributeDefinition
280
     0
  3
Checked date
  2
CHECKED_DATE
 70
     0
 74
     2
280
     1
  0
ATTDEF
  5
130
102
{ACAD_XDICTIONARY
360
131
102
}
330
104
100
AcDbEntity
  8
Titleblock
100
AcDbText
 10
-6.851207
 20
0.325
 30
0.0
 40
0.1
  1

  7
FusionTitle
 11
-6.851207
 21
0.375
 31
0.0
100
AcDbAttributeDefinition
280
     0
  3
Checked by
  2
CHECKED_BY
 70
     0
 74
     2
280
     1
  0
ATTDEF
  5
132
102
{ACAD_XDICTIONARY
360
133
102
}
330
104
100
AcDbEntity
  8
Titleblock
100
AcDbText
 10
-5.121303
 20
0.335525
 30
0.0
 40
0.12
  1

  7
FusionTitle
 72
     1
 11
-4.935
 21
0.3
 31
0.0
100
AcDbAttributeDefinition
280
     0
  3
Sheet size
  2
SIZE
 70
     0
 74
     1
280
     1
  0
ATTDEF
  5
134
102
{ACAD_XDICTIONARY
360
135
102
}
330
104
100
AcDbEntity
  8
Titleblock
100
AcDbText
 10
-0.422347
 20
0.335525
 30
0.0
 40
0.12
  1

  7
FusionTitle
 72
     1
 11
-0.25
 21
0.3
 31
0.0
100
AcDbAttributeDefinition
280
     0
  3
Revision
  2
REV
 70
     0
 74
     1
280
     1
  0
ATTDEF
  5
136
102
{ACAD_XDICTIONARY
360
137
102
}
330
104
100
AcDbEntity
  8
Titleblock
100
AcDbText
 10
-4.367169
 20
0.335525
 30
0.0
 40
0.12
  1

  7
FusionTitle
 72
     1
 11
-4.125
 21
0.3
 31
0.0
100
AcDbAttributeDefinition
280
     0
  3
Code
  2
CODE
 70
     0
 74
     1
280
     1
  0
ATTDEF
  5
138
102
{ACAD_XDICTIONARY
360
139
102
}
330
104
100
AcDbEntity
  8
Titleblock
100
AcDbText
 10
-6.396603
 20
0.575
 30
0.0
 40
0.1
  1

  7
FusionTitle
 72
     2
 11
-5.17
 21
0.625
 31
0.0
100
AcDbAttributeDefinition
280
     0
  3
Approved date
  2
APPROVED_DATE
 70
     0
 74
     2
280
     1
  0
ATTDEF
  5
13A
102
{ACAD_XDICTIONARY
360
13B
102
}
330
104
100
AcDbEntity
  8
Titleblock
100
AcDbText
 10
-6.851207
 20
0.575
 30
0.0
 40
0.1
  1

  7
FusionTitle
 11
-6.851207
 21
0.625
 31
0.0
100
AcDbAttributeDefinition
280
     0
  3
Approved by
  2
APPROVED_BY
 70
     0
 74
     2
280
     1
  0
ATTDEF
  5
13C
102
{ACAD_XDICTIONARY
360
13D
102
}
330
104
100
AcDbEntity
  8
Titleblock
100
AcDbText
 10
-5.07
 20
1.98
 30
0.0
 40
0.24
  1

  7
FusionTitle
 11
-5.07
 21
2.22
 31
0.0
100
AcDbAttributeDefinition
280
     0
  3
Project
  2
PROJECT
 70
     0
 74
     3
280
     1
  0
ATTDEF
  5
13E
102
{ACAD_XDICTIONARY
360
13F
102
}
330
104
100
AcDbEntity
  8
Titleblock
100
AcDbText
 10
-5.07
 20
0.83
 30
0.0
 40
0.12
  1

  7
FusionTitle
 11
-5.07
 21
0.95
 31
0.0
100
AcDbAttributeDefinition
280
     0
  3
3rd Title
  2
TITLE_3
 70
     0
 74
     3
280
     1
  0
ATTDEF
  5
140
102
{ACAD_XDICTIONARY
360
141
102
}
330
104
100
AcDbEntity
  8
Titleblock
100
AcDbText
 10
-5.07
 20
1.05
 30
0.0
 40
0.24
  1

  7
FusionTitle
 11
-5.07
 21
1.29
 31
0.0
100
AcDbAttributeDefinition
280
     0
  3
2nd Title
  2
TITLE_2
 70
     0
 74
     3
280
     1
  0
ATTDEF
  5
142
102
{ACAD_XDICTIONARY
360
143
102
}
330
104
100
AcDbEntity
  8
Titleblock
100
AcDbText
 10
-5.07
 20
1.39
 30
0.0
 40
0.24
  1

  7
FusionTitle
 11
-5.07
 21
1.63
 31
0.0
100
AcDbAttributeDefinition
280
     0
  3
1st Title
  2
TITLE_1
 70
     0
 74
     3
280
     1
  0
ENDBLK
  5
144
330
104
100
AcDbEntity
  8
0
100
AcDbBlockEnd
  0
BLOCK
  5
15A
330
159
100
AcDbEntity
  8
0
100
AcDbBlockBegin
  2
*D4
 70
     1
 10
0.0
 20
0.0
 30
0.0
  3
*D4
  1

  0
LINE
  5
15B
330
159
100
AcDbEntity
  8
Dimensions
440
 16777216
370
    -2
100
AcDbLine
 10
3.947917
 20
6.337846
 30
0.0
 11
3.947917
 21
6.697846
 31
0.0
  0
LINE
  5
15C
330
159
100
AcDbEntity
  8
Dimensions
440
 16777216
370
    -2
100
AcDbLine
 10
5.007917
 20
6.337846
 30
0.0
 11
5.007917
 21
6.697846
 31
0.0
  0
LINE
  5
15D
330
159
100
AcDbEntity
  8
Dimensions
440
 16777216
370
    -2
100
AcDbLine
 10
4.067917
 20
6.627846
 30
0.0
 11
4.225039
 21
6.627846
 31
0.0
  0
LINE
  5
15E
330
159
100
AcDbEntity
  8
Dimensions
440
 16777216
370
    -2
100
AcDbLine
 10
4.887917
 20
6.627846
 30
0.0
 11
4.730796
 21
6.627846
 31
0.0
  0
SOLID
  5
15F
330
159
100
AcDbEntity
  8
Dimensions
440
 16777216
100
AcDbTrace
 10
4.067917
 20
6.647846
 30
0.0
 11
4.067917
 21
6.607846
 31
0.0
 12
3.947917
 22
6.627846
 32
0.0
 13
3.947917
 23
6.627846
 33
0.0
  0
SOLID
  5
160
330
159
100
AcDbEntity
  8
Dimensions
440
 16777216
100
AcDbTrace
 10
4.887917
 20
6.647846
 30
0.0
 11
4.887917
 21
6.607846
 31
0.0
 12
5.007917
 22
6.627846
 32
0.0
 13
5.007917
 23
6.627846
 33
0.0
  0
MTEXT
  5
161
330
159
100
AcDbEntity
  8
Dimensions
440
 16777216
100
AcDbMText
 10
4.477917
 20
6.627846
 30
0.0
 40
0.12
 41
0.0
 46
0.0
 71
     5
 72
     1
  1
\A1;26.92
 73
     1
 44
1.0
  0
POINT
  5
162
330
159
100
AcDbEntity
  8
Defpoints
 62
     0
440
 16777216
100
AcDbPoint
 10
3.947917
 20
6.267846
 30
0.0
  0
POINT
  5
163
330
159
100
AcDbEntity
  8
Defpoints
 62
     0
440
 16777216
100
AcDbPoint
 10
5.007917
 20
6.267846
 30
0.0
  0
POINT
  5
164
330
159
100
AcDbEntity
  8
Defpoints
 62
     0
440
 16777216
100
AcDbPoint
 10
5.007917
 20
6.627846
 30
0.0
  0
ENDBLK
  5
165
330
159
100
AcDbEntity
  8
0
100
AcDbBlockEnd
  0
BLOCK
  5
168
330
167
100
AcDbEntity
  8
0
100
AcDbBlockBegin
  2
*D5
 70
     1
 10
0.0
 20
0.0
 30
0.0
  3
*D5
  1

  0
LINE
  5
169
330
167
100
AcDbEntity
  8
Dimensions
440
 16777216
370
    -2
100
AcDbLine
 10
5.007917
 20
6.337846
 30
0.0
 11
5.007917
 21
6.697846
 31
0.0
  0
LINE
  5
16A
330
167
100
AcDbEntity
  8
Dimensions
440
 16777216
370
    -2
100
AcDbLine
 10
5.907917
 20
6.337846
 30
0.0
 11
5.907917
 21
6.697846
 31
0.0
  0
LINE
  5
16B
330
167
100
AcDbEntity
  8
Dimensions
440
 16777216
370
    -2
100
AcDbLine
 10
5.127917
 20
6.627846
 30
0.0
 11
5.204466
 21
6.627846
 31
0.0
  0
LINE
  5
16C
330
167
100
AcDbEntity
  8
Dimensions
440
 16777216
370
    -2
100
AcDbLine
 10
5.787917
 20
6.627846
 30
0.0
 11
5.711369
 21
6.627846
 31
0.0
  0
SOLID
  5
16D
330
167
100
AcDbEntity
  8
Dimensions
440
 16777216
100
AcDbTrace
 10
5.127917
 20
6.647846
 30
0.0
 11
5.127917
 21
6.607846
 31
0.0
 12
5.007917
 22
6.627846
 32
0.0
 13
5.007917
 23
6.627846
 33
0.0
  0
SOLID
  5
16E
330
167
100
AcDbEntity
  8
Dimensions
440
 16777216
100
AcDbTrace
 10
5.787917
 20
6.647846
 30
0.0
 11
5.787917
 21
6.607846
 31
0.0
 12
5.907917
 22
6.627846
 32
0.0
 13
5.907917
 23
6.627846
 33
0.0
  0
MTEXT
  5
16F
330
167
100
AcDbEntity
  8
Dimensions
440
 16777216
100
AcDbMText
 10
5.457917
 20
6.627846
 30
0.0
 40
0.12
 41
0.0
 46
0.0
 71
     5
 72
     1
  1
\A1;22.86
 73
     1
 44
1.0
  0
POINT
  5
170
330
167
100
AcDbEntity
  8
Defpoints
 62
     0
440
 16777216
100
AcDbPoint
 10
5.007917
 20
6.267846
 30
0.0
  0
POINT
  5
171
330
167
100
AcDbEntity
  8
Defpoints
 62
     0
440
 16777216
100
AcDbPoint
 10
5.907917
 20
6.267846
 30
0.0
  0
POINT
  5
172
330
167
100
AcDbEntity
  8
Defpoints
 62
     0
440
 16777216
100
AcDbPoint
 10
5.907917
 20
6.627846
 30
0.0
  0
ENDBLK
  5
173
330
167
100
AcDbEntity
  8
0
100
AcDbBlockEnd
  0
BLOCK
  5
176
330
175
100
AcDbEntity
  8
0
100
AcDbBlockBegin
  2
*D6
 70
     1
 10
0.0
 20
0.0
 30
0.0
  3
*D6
  1

  0
LINE
  5
177
330
175
100
AcDbEntity
  8
Dimensions
440
 16777216
370
    -2
100
AcDbLine
 10
5.907917
 20
6.337846
 30
0.0
 11
5.907917
 21
6.697846
 31
0.0
  0
LINE
  5
178
330
175
100
AcDbEntity
  8
Dimensions
440
 16777216
370
    -2
100
AcDbLine
 10
6.907917
 20
6.337846
 30
0.0
 11
6.907917
 21
6.697846
 31
0.0
  0
LINE
  5
179
330
175
100
AcDbEntity
  8
Dimensions
440
 16777216
370
    -2
100
AcDbLine
 10
6.027917
 20
6.627846
 30
0.0
 11
6.201287
 21
6.627846
 31
0.0
  0
LINE
  5
17A
330
175
100
AcDbEntity
  8
Dimensions
440
 16777216
370
    -2
100
AcDbLine
 10
6.787917
 20
6.627846
 30
0.0
 11
6.614547
 21
6.627846
 31
0.0
  0
SOLID
  5
17B
330
175
100
AcDbEntity
  8
Dimensions
440
 16777216
100
AcDbTrace
 10
6.027917
 20
6.647846
 30
0.0
 11
6.027917
 21
6.607846
 31
0.0
 12
5.907917
 22
6.627846
 32
0.0
 13
5.907917
 23
6.627846
 33
0.0
  0
SOLID
  5
17C
330
175
100
AcDbEntity
  8
Dimensions
440
 16777216
100
AcDbTrace
 10
6.787917
 20
6.647846
 30
0.0
 11
6.787917
 21
6.607846
 31
0.0
 12
6.907917
 22
6.627846
 32
0.0
 13
6.907917
 23
6.627846
 33
0.0
  0
MTEXT
  5
17D
330
175
100
AcDbEntity
  8
Dimensions
440
 16777216
100
AcDbMText
 10
6.407917
 20
6.627846
 30
0.0
 40
0.12
 41
0.0
 46
0.0
 71
     5
 72
     1
  1
\A1;25.4
 73
     1
 44
1.0
  0
POINT
  5
17E
330
175
100
AcDbEntity
  8
Defpoints
 62
     0
440
 16777216
100
AcDbPoint
 10
5.907917
 20
6.267846
 30
0.0
  0
POINT
  5
17F
330
175
100
AcDbEntity
  8
Defpoints
 62
     0
440
 16777216
100
AcDbPoint
 10
6.907917
 20
6.267846
 30
0.0
  0
POINT
  5
180
330
175
100
AcDbEntity
  8
Defpoints
 62
     0
440
 16777216
100
AcDbPoint
 10
6.907917
 20
6.627846
 30
0.0
  0
ENDBLK
  5
181
330
175
100
AcDbEntity
  8
0
100
AcDbBlockEnd
  0
BLOCK
  5
184
330
183
100
AcDbEntity
  8
0
100
AcDbBlockBegin
  2
*D7
 70
     1
 10
0.0
 20
0.0
 30
0.0
  3
*D7
  1

  0
LINE
  5
185
330
183
100
AcDbEntity
  8
Dimensions
440
 16777216
370
    -2
100
AcDbLine
 10
6.977917
 20
6.267846
 30
0.0
 11
7.807655
 21
6.267846
 31
0.0
  0
LINE
  5
186
330
183
100
AcDbEntity
  8
Dimensions
440
 16777216
370
    -2
100
AcDbLine
 10
7.087655
 20
4.567846
 30
0.0
 11
7.807655
 21
4.567846
 31
0.0
  0
LINE
  5
187
330
183
100
AcDbEntity
  8
Dimensions
440
 16777216
370
    -2
100
AcDbLine
 10
7.737655
 20
6.147846
 30
0.0
 11
7.737655
 21
5.529155
 31
0.0
  0
LINE
  5
188
330
183
100
AcDbEntity
  8
Dimensions
440
 16777216
370
    -2
100
AcDbLine
 10
7.737655
 20
4.687846
 30
0.0
 11
7.737655
 21
5.306536
 31
0.0
  0
SOLID
  5
189
330
183
100
AcDbEntity
  8
Dimensions
440
 16777216
100
AcDbTrace
 10
7.717655
 20
6.147846
 30
0.0
 11
7.757655
 21
6.147846
 31
0.0
 12
7.737655
 22
6.267846
 32
0.0
 13
7.737655
 23
6.267846
 33
0.0
  0
SOLID
  5
18A
330
183
100
AcDbEntity
  8
Dimensions
440
 16777216
100
AcDbTrace
 10
7.717655
 20
4.687846
 30
0.0
 11
7.757655
 21
4.687846
 31
0.0
 12
7.737655
 22
4.567846
 32
0.0
 13
7.737655
 23
4.567846
 33
0.0
  0
MTEXT
  5
18B
330
183
100
AcDbEntity
  8
Dimensions
440
 16777216
100
AcDbMText
 10
7.737655
 20
5.417846
 30
0.0
 40
0.12
 41
0.0
 46
0.0
 71
     5
 72
     1
  1
\A1;43.18
 73
     1
 44
1.0
  0
POINT
  5
18C
330
183
100
AcDbEntity
  8
Defpoints
 62
     0
440
 16777216
100
AcDbPoint
 10
6.907917
 20
6.267846
 30
0.0
  0
POINT
  5
18D
330
183
100
AcDbEntity
  8
Defpoints
 62
     0
440
 16777216
100
AcDbPoint
 10
7.017655
 20
4.567846
 30
0.0
  0
POINT
  5
18E
330
183
100
AcDbEntity
  8
Defpoints
 62
     0
440
 16777216
100
AcDbPoint
 10
7.737655
 20
4.567846
 30
0.0
  0
ENDBLK
  5
18F
330
183
100
AcDbEntity
  8
0
100
AcDbBlockEnd
  0
BLOCK
  5
192
330
191
100
AcDbEntity
  8
0
100
AcDbBlockBegin
  2
*D8
 70
     1
 10
0.0
 20
0.0
 30
0.0
  3
*D8
  1

  0
LINE
  5
193
330
191
100
AcDbEntity
  8
Dimensions
440
 16777216
370
    -2
100
AcDbLine
 10
6.117655
 20
4.297846
 30
0.0
 11
6.117655
 21
3.937846
 31
0.0
  0
LINE
  5
194
330
191
100
AcDbEntity
  8
Dimensions
440
 16777216
370
    -2
100
AcDbLine
 10
5.217655
 20
4.297846
 30
0.0
 11
5.217655
 21
3.937846
 31
0.0
  0
LINE
  5
195
330
191
100
AcDbEntity
  8
Dimensions
440
 16777216
370
    -2
100
AcDbLine
 10
5.997655
 20
4.007846
 30
0.0
 11
5.921107
 21
4.007846
 31
0.0
  0
LINE
  5
196
330
191
100
AcDbEntity
  8
Dimensions
440
 16777216
370
    -2
100
AcDbLine
 10
5.337655
 20
4.007846
 30
0.0
 11
5.414203
 21
4.007846
 31
0.0
  0
SOLID
  5
197
330
191
100
AcDbEntity
  8
Dimensions
440
 16777216
100
AcDbTrace
 10
5.997655
 20
4.027846
 30
0.0
 11
5.997655
 21
3.987846
 31
0.0
 12
6.117655
 22
4.007846
 32
0.0
 13
6.117655
 23
4.007846
 33
0.0
  0
SOLID
  5
198
330
191
100
AcDbEntity
  8
Dimensions
440
 16777216
100
AcDbTrace
 10
5.337655
 20
4.027846
 30
0.0
 11
5.337655
 21
3.987846
 31
0.0
 12
5.217655
 22
4.007846
 32
0.0
 13
5.217655
 23
4.007846
 33
0.0
  0
MTEXT
  5
199
330
191
100
AcDbEntity
  8
Dimensions
440
 16777216
100
AcDbMText
 10
5.667655
 20
4.007846
 30
0.0
 40
0.12
 41
0.0
 46
0.0
 71
     5
 72
     1
  1
\A1;22.86
 73
     1
 44
1.0
  0
POINT
  5
19A
330
191
100
AcDbEntity
  8
Defpoints
 62
     0
440
 16777216
100
AcDbPoint
 10
6.117655
 20
4.367846
 30
0.0
  0
POINT
  5
19B
330
191
100
AcDbEntity
  8
Defpoints
 62
     0
440
 16777216
100
AcDbPoint
 10
5.217655
 20
4.367846
 30
0.0
  0
POINT
  5
19C
330
191
100
AcDbEntity
  8
Defpoints
 62
     0
440
 16777216
100
AcDbPoint
 10
5.217655
 20
4.007846
 30
0.0
  0
ENDBLK
  5
19D
330
191
100
AcDbEntity
  8
0
100
AcDbBlockEnd
  0
BLOCK
  5
1A0
330
19F
100
AcDbEntity
  8
0
100
AcDbBlockBegin
  2
*D9
 70
     1
 10
0.0
 20
0.0
 30
0.0
  3
*D9
  1

  0
LINE
  5
1A1
330
19F
100
AcDbEntity
  8
Dimensions
440
 16777216
370
    -2
100
AcDbLine
 10
4.317655
 20
4.297846
 30
0.0
 11
4.317655
 21
3.937846
 31
0.0
  0
LINE
  5
1A2
330
19F
100
AcDbEntity
  8
Dimensions
440
 16777216
370
    -2
100
AcDbLine
 10
5.217655
 20
4.297846
 30
0.0
 11
5.217655
 21
3.937846
 31
0.0
  0
LINE
  5
1A3
330
19F
100
AcDbEntity
  8
Dimensions
440
 16777216
370
    -2
100
AcDbLine
 10
4.437655
 20
4.007846
 30
0.0
 11
4.514203
 21
4.007846
 31
0.0
  0
LINE
  5
1A4
330
19F
100
AcDbEntity
  8
Dimensions
440
 16777216
370
    -2
100
AcDbLine
 10
5.097655
 20
4.007846
 30
0.0
 11
5.021107
 21
4.007846
 31
0.0
  0
SOLID
  5
1A5
330
19F
100
AcDbEntity
  8
Dimensions
440
 16777216
100
AcDbTrace
 10
4.437655
 20
4.027846
 30
0.0
 11
4.437655
 21
3.987846
 31
0.0
 12
4.317655
 22
4.007846
 32
0.0
 13
4.317655
 23
4.007846
 33
0.0
  0
SOLID
  5
1A6
330
19F
100
AcDbEntity
  8
Dimensions
440
 16777216
100
AcDbTrace
 10
5.097655
 20
4.027846
 30
0.0
 11
5.097655
 21
3.987846
 31
0.0
 12
5.217655
 22
4.007846
 32
0.0
 13
5.217655
 23
4.007846
 33
0.0
  0
MTEXT
  5
1A7
330
19F
100
AcDbEntity
  8
Dimensions
440
 16777216
100
AcDbMText
 10
4.767655
 20
4.007846
 30
0.0
 40
0.12
 41
0.0
 46
0.0
 71
     5
 72
     1
  1
\A1;22.86
 73
     1
 44
1.0
  0
POINT
  5
1A8
330
19F
100
AcDbEntity
  8
Defpoints
 62
     0
440
 16777216
100
AcDbPoint
 10
4.317655
 20
4.367846
 30
0.0
  0
POINT
  5
1A9
330
19F
100
AcDbEntity
  8
Defpoints
 62
     0
440
 16777216
100
AcDbPoint
 10
5.217655
 20
4.367846
 30
0.0
  0
POINT
  5
1AA
330
19F
100
AcDbEntity
  8
Defpoints
 62
     0
440
 16777216
100
AcDbPoint
 10
5.217655
 20
4.007846
 30
0.0
  0
ENDBLK
  5
1AB
330
19F
100
AcDbEntity
  8
0
100
AcDbBlockEnd
  0
BLOCK
  5
1AF
330
1AE
100
AcDbEntity
  8
0
100
AcDbBlockBegin
  2
*U10
 70
     1
 10
0.0
 20
0.0
 30
0.0
  3
*U10
  1

  0
LINE
  5
1B0
330
1AE
100
AcDbEntity
  8
Center Lines
  6
Continuous
 62
     0
440
 16777216
 48
0.75
100
AcDbLine
 10
-0.035156
 20
0.0
 30
0.0
 11
0.035156
 21
0.0
 31
0.0
  0
LINE
  5
1B1
330
1AE
100
AcDbEntity
  8
Center Lines
  6
Continuous
 62
     0
440
 16777216
 48
0.75
100
AcDbLine
 10
0.0
 20
-0.035156
 30
0.0
 11
0.0
 21
0.035156
 31
0.0
  0
LINE
  5
1B2
330
1AE
100
AcDbEntity
  8
Center Lines
 62
     0
440
 16777216
 48
0.75
100
AcDbLine
 10
-0.139685
 20
0.0
 30
0.0
 11
-0.105469
 21
0.0
 31
0.0
  0
LINE
  5
1B3
330
1AE
100
AcDbEntity
  8
Center Lines
 62
     0
440
 16777216
 48
0.75
100
AcDbLine
 10
0.105469
 20
0.0
 30
0.0
 11
0.139685
 21
0.0
 31
0.0
  0
LINE
  5
1B4
330
1AE
100
AcDbEntity
  8
Center Lines
 62
     0
440
 16777216
 48
0.75
100
AcDbLine
 10
0.0
 20
-0.139685
 30
0.0
 11
0.0
 21
-0.105469
 31
0.0
  0
LINE
  5
1B5
330
1AE
100
AcDbEntity
  8
Center Lines
 62
     0
440
 16777216
 48
0.75
100
AcDbLine
 10
0.0
 20
0.105469
 30
0.0
 11
0.0
 21
0.139685
 31
0.0
  0
ENDBLK
  5
1B6
330
1AE
100
AcDbEntity
  8
0
100
AcDbBlockEnd
  0
BLOCK
  5
1B9
330
1B8
100
AcDbEntity
  8
0
100
AcDbBlockBegin
  2
*U11
 70
     1
 10
0.0
 20
0.0
 30
0.0
  3
*U11
  1

  0
LINE
  5
1BA
330
1B8
100
AcDbEntity
  8
Center Lines
  6
Continuous
 62
     0
440
 16777216
 48
0.75
100
AcDbLine
 10
-0.035156
 20
0.0
 30
0.0
 11
0.035156
 21
0.0
 31
0.0
  0
LINE
  5
1BB
330
1B8
100
AcDbEntity
  8
Center Lines
  6
Continuous
 62
     0
440
 16777216
 48
0.75
100
AcDbLine
 10
0.0
 20
-0.035156
 30
0.0
 11
0.0
 21
0.035156
 31
0.0
  0
LINE
  5
1BC
330
1B8
100
AcDbEntity
  8
Center Lines
 62
     0
440
 16777216
 48
0.75
100
AcDbLine
 10
-0.139685
 20
0.0
 30
0.0
 11
-0.105469
 21
0.0
 31
0.0
  0
LINE
  5
1BD
330
1B8
100
AcDbEntity
  8
Center Lines
 62
     0
440
 16777216
 48
0.75
100
AcDbLine
 10
0.105469
 20
0.0
 30
0.0
 11
0.139685
 21
0.0
 31
0.0
  0
LINE
  5
1BE
330
1B8
100
AcDbEntity
  8
Center Lines
 62
     0
440
 16777216
 48
0.75
100
AcDbLine
 10
0.0
 20
-0.139685
 30
0.0
 11
0.0
 21
-0.105469
 31
0.0
  0
LINE
  5
1BF
330
1B8
100
AcDbEntity
  8
Center Lines
 62
     0
440
 16777216
 48
0.75
100
AcDbLine
 10
0.0
 20
0.105469
 30
0.0
 11
0.0
 21
0.139685
 31
0.0
  0
ENDBLK
  5
1C0
330
1B8
100
AcDbEntity
  8
0
100
AcDbBlockEnd
  0
BLOCK
  5
1C3
330
1C2
100
AcDbEntity
  8
0
100
AcDbBlockBegin
  2
*U12
 70
     1
 10
0.0
 20
0.0
 30
0.0
  3
*U12
  1

  0
LINE
  5
1C4
330
1C2
100
AcDbEntity
  8
Center Lines
  6
Continuous
 62
     0
440
 16777216
 48
0.75
100
AcDbLine
 10
-0.035156
 20
0.0
 30
0.0
 11
0.035156
 21
0.0
 31
0.0
  0
LINE
  5
1C5
330
1C2
100
AcDbEntity
  8
Center Lines
  6
Continuous
 62
     0
440
 16777216
 48
0.75
100
AcDbLine
 10
0.0
 20
-0.035156
 30
0.0
 11
0.0
 21
0.035156
 31
0.0
  0
LINE
  5
1C6
330
1C2
100
AcDbEntity
  8
Center Lines
 62
     0
440
 16777216
 48
0.75
100
AcDbLine
 10
-0.139685
 20
0.0
 30
0.0
 11
-0.105469
 21
0.0
 31
0.0
  0
LINE
  5
1C7
330
1C2
100
AcDbEntity
  8
Center Lines
 62
     0
440
 16777216
 48
0.75
100
AcDbLine
 10
0.105469
 20
0.0
 30
0.0
 11
0.139685
 21
0.0
 31
0.0
  0
LINE
  5
1C8
330
1C2
100
AcDbEntity
  8
Center Lines
 62
     0
440
 16777216
 48
0.75
100
AcDbLine
 10
0.0
 20
-0.139685
 30
0.0
 11
0.0
 21
-0.105469
 31
0.0
  0
LINE
  5
1C9
330
1C2
100
AcDbEntity
  8
Center Lines
 62
     0
440
 16777216
 48
0.75
100
AcDbLine
 10
0.0
 20
0.105469
 30
0.0
 11
0.0
 21
0.139685
 31
0.0
  0
ENDBLK
  5
1CA
330
1C2
100
AcDbEntity
  8
0
100
AcDbBlockEnd
  0
BLOCK
  5
1CD
330
1CC
100
AcDbEntity
  8
0
100
AcDbBlockBegin
  2
*U13
 70
     1
 10
0.0
 20
0.0
 30
0.0
  3
*U13
  1

  0
LINE
  5
1CE
330
1CC
100
AcDbEntity
  8
Center Lines
  6
Continuous
 62
     0
440
 16777216
 48
0.75
100
AcDbLine
 10
-0.035156
 20
0.0
 30
0.0
 11
0.035156
 21
0.0
 31
0.0
  0
LINE
  5
1CF
330
1CC
100
AcDbEntity
  8
Center Lines
  6
Continuous
 62
     0
440
 16777216
 48
0.75
100
AcDbLine
 10
0.0
 20
-0.035156
 30
0.0
 11
0.0
 21
0.035156
 31
0.0
  0
LINE
  5
1D0
330
1CC
100
AcDbEntity
  8
Center Lines
 62
     0
440
 16777216
 48
0.75
100
AcDbLine
 10
-0.139685
 20
0.0
 30
0.0
 11
-0.105469
 21
0.0
 31
0.0
  0
LINE
  5
1D1
330
1CC
100
AcDbEntity
  8
Center Lines
 62
     0
440
 16777216
 48
0.75
100
AcDbLine
 10
0.105469
 20
0.0
 30
0.0
 11
0.139685
 21
0.0
 31
0.0
  0
LINE
  5
1D2
330
1CC
100
AcDbEntity
  8
Center Lines
 62
     0
440
 16777216
 48
0.75
100
AcDbLine
 10
0.0
 20
-0.139685
 30
0.0
 11
0.0
 21
-0.105469
 31
0.0
  0
LINE
  5
1D3
330
1CC
100
AcDbEntity
  8
Center Lines
 62
     0
440
 16777216
 48
0.75
100
AcDbLine
 10
0.0
 20
0.105469
 30
0.0
 11
0.0
 21
0.139685
 31
0.0
  0
ENDBLK
  5
1D4
330
1CC
100
AcDbEntity
  8
0
100
AcDbBlockEnd
  0
BLOCK
  5
1D7
330
1D6
100
AcDbEntity
  8
0
100
AcDbBlockBegin
  2
*U14
 70
     1
 10
0.0
 20
0.0
 30
0.0
  3
*U14
  1

  0
LINE
  5
1D8
330
1D6
100
AcDbEntity
  8
Center Lines
  6
Continuous
 62
     0
440
 16777216
 48
0.75
100
AcDbLine
 10
-0.035156
 20
0.0
 30
0.0
 11
0.035156
 21
0.0
 31
0.0
  0
LINE
  5
1D9
330
1D6
100
AcDbEntity
  8
Center Lines
  6
Continuous
 62
     0
440
 16777216
 48
0.75
100
AcDbLine
 10
0.0
 20
-0.035156
 30
0.0
 11
0.0
 21
0.035156
 31
0.0
  0
LINE
  5
1DA
330
1D6
100
AcDbEntity
  8
Center Lines
 62
     0
440
 16777216
 48
0.75
100
AcDbLine
 10
-0.139685
 20
0.0
 30
0.0
 11
-0.105469
 21
0.0
 31
0.0
  0
LINE
  5
1DB
330
1D6
100
AcDbEntity
  8
Center Lines
 62
     0
440
 16777216
 48
0.75
100
AcDbLine
 10
0.105469
 20
0.0
 30
0.0
 11
0.139685
 21
0.0
 31
0.0
  0
LINE
  5
1DC
330
1D6
100
AcDbEntity
  8
Center Lines
 62
     0
440
 16777216
 48
0.75
100
AcDbLine
 10
0.0
 20
-0.139685
 30
0.0
 11
0.0
 21
-0.105469
 31
0.0
  0
LINE
  5
1DD
330
1D6
100
AcDbEntity
  8
Center Lines
 62
     0
440
 16777216
 48
0.75
100
AcDbLine
 10
0.0
 20
0.105469
 30
0.0
 11
0.0
 21
0.139685
 31
0.0
  0
ENDBLK
  5
1DE
330
1D6
100
AcDbEntity
  8
0
100
AcDbBlockEnd
  0
BLOCK
  5
1E1
330
1E0
100
AcDbEntity
  8
0
100
AcDbBlockBegin
  2
*U15
 70
     1
 10
0.0
 20
0.0
 30
0.0
  3
*U15
  1

  0
LINE
  5
1E2
330
1E0
100
AcDbEntity
  8
Center Lines
  6
Continuous
 62
     0
440
 16777216
 48
0.75
100
AcDbLine
 10
-0.035156
 20
0.0
 30
0.0
 11
0.035156
 21
0.0
 31
0.0
  0
LINE
  5
1E3
330
1E0
100
AcDbEntity
  8
Center Lines
  6
Continuous
 62
     0
440
 16777216
 48
0.75
100
AcDbLine
 10
0.0
 20
-0.035156
 30
0.0
 11
0.0
 21
0.035156
 31
0.0
  0
LINE
  5
1E4
330
1E0
100
AcDbEntity
  8
Center Lines
 62
     0
440
 16777216
 48
0.75
100
AcDbLine
 10
-0.139685
 20
0.0
 30
0.0
 11
-0.105469
 21
0.0
 31
0.0
  0
LINE
  5
1E5
330
1E0
100
AcDbEntity
  8
Center Lines
 62
     0
440
 16777216
 48
0.75
100
AcDbLine
 10
0.105469
 20
0.0
 30
0.0
 11
0.139685
 21
0.0
 31
0.0
  0
LINE
  5
1E6
330
1E0
100
AcDbEntity
  8
Center Lines
 62
     0
440
 16777216
 48
0.75
100
AcDbLine
 10
0.0
 20
-0.139685
 30
0.0
 11
0.0
 21
-0.105469
 31
0.0
  0
LINE
  5
1E7
330
1E0
100
AcDbEntity
  8
Center Lines
 62
     0
440
 16777216
 48
0.75
100
AcDbLine
 10
0.0
 20
0.105469
 30
0.0
 11
0.0
 21
0.139685
 31
0.0
  0
ENDBLK
  5
1E8
330
1E0
100
AcDbEntity
  8
0
100
AcDbBlockEnd
  0
BLOCK
  5
1EB
330
1EA
100
AcDbEntity
  8
0
100
AcDbBlockBegin
  2
*U16
 70
     1
 10
0.0
 20
0.0
 30
0.0
  3
*U16
  1

  0
LINE
  5
1EC
330
1EA
100
AcDbEntity
  8
Center Lines
  6
Continuous
 62
     0
440
 16777216
 48
0.75
100
AcDbLine
 10
-0.035156
 20
0.0
 30
0.0
 11
0.035156
 21
0.0
 31
0.0
  0
LINE
  5
1ED
330
1EA
100
AcDbEntity
  8
Center Lines
  6
Continuous
 62
     0
440
 16777216
 48
0.75
100
AcDbLine
 10
0.0
 20
-0.035156
 30
0.0
 11
0.0
 21
0.035156
 31
0.0
  0
LINE
  5
1EE
330
1EA
100
AcDbEntity
  8
Center Lines
 62
     0
440
 16777216
 48
0.75
100
AcDbLine
 10
-0.139685
 20
0.0
 30
0.0
 11
-0.105469
 21
0.0
 31
0.0
  0
LINE
  5
1EF
330
1EA
100
AcDbEntity
  8
Center Lines
 62
     0
440
 16777216
 48
0.75
100
AcDbLine
 10
0.105469
 20
0.0
 30
0.0
 11
0.139685
 21
0.0
 31
0.0
  0
LINE
  5
1F0
330
1EA
100
AcDbEntity
  8
Center Lines
 62
     0
440
 16777216
 48
0.75
100
AcDbLine
 10
0.0
 20
-0.139685
 30
0.0
 11
0.0
 21
-0.105469
 31
0.0
  0
LINE
  5
1F1
330
1EA
100
AcDbEntity
  8
Center Lines
 62
     0
440
 16777216
 48
0.75
100
AcDbLine
 10
0.0
 20
0.105469
 30
0.0
 11
0.0
 21
0.139685
 31
0.0
  0
ENDBLK
  5
1F2
330
1EA
100
AcDbEntity
  8
0
100
AcDbBlockEnd
  0
BLOCK
  5
1F5
330
1F4
100
AcDbEntity
  8
0
100
AcDbBlockBegin
  2
*U17
 70
     1
 10
0.0
 20
0.0
 30
0.0
  3
*U17
  1

  0
LINE
  5
1F6
330
1F4
100
AcDbEntity
  8
Center Lines
  6
Continuous
 62
     0
440
 16777216
 48
0.75
100
AcDbLine
 10
-0.035156
 20
0.0
 30
0.0
 11
0.035156
 21
0.0
 31
0.0
  0
LINE
  5
1F7
330
1F4
100
AcDbEntity
  8
Center Lines
  6
Continuous
 62
     0
440
 16777216
 48
0.75
100
AcDbLine
 10
0.0
 20
-0.035156
 30
0.0
 11
0.0
 21
0.035156
 31
0.0
  0
LINE
  5
1F8
330
1F4
100
AcDbEntity
  8
Center Lines
 62
     0
440
 16777216
 48
0.75
100
AcDbLine
 10
-0.139685
 20
0.0
 30
0.0
 11
-0.105469
 21
0.0
 31
0.0
  0
LINE
  5
1F9
330
1F4
100
AcDbEntity
  8
Center Lines
 62
     0
440
 16777216
 48
0.75
100
AcDbLine
 10
0.105469
 20
0.0
 30
0.0
 11
0.139685
 21
0.0
 31
0.0
  0
LINE
  5
1FA
330
1F4
100
AcDbEntity
  8
Center Lines
 62
     0
440
 16777216
 48
0.75
100
AcDbLine
 10
0.0
 20
-0.139685
 30
0.0
 11
0.0
 21
-0.105469
 31
0.0
  0
LINE
  5
1FB
330
1F4
100
AcDbEntity
  8
Center Lines
 62
     0
440
 16777216
 48
0.75
100
AcDbLine
 10
0.0
 20
0.105469
 30
0.0
 11
0.0
 21
0.139685
 31
0.0
  0
ENDBLK
  5
1FC
330
1F4
100
AcDbEntity
  8
0
100
AcDbBlockEnd
  0
BLOCK
  5
1FF
330
1FE
100
AcDbEntity
  8
0
100
AcDbBlockBegin
  2
*D18
 70
     1
 10
0.0
 20
0.0
 30
0.0
  3
*D18
  1

  0
LINE
  5
200
330
1FE
100
AcDbEntity
  8
Dimensions
440
 16777216
370
    -2
100
AcDbLine
 10
6.117655
 20
4.297846
 30
0.0
 11
6.117655
 21
3.937846
 31
0.0
  0
LINE
  5
201
330
1FE
100
AcDbEntity
  8
Dimensions
440
 16777216
370
    -2
100
AcDbLine
 10
7.017655
 20
4.497846
 30
0.0
 11
7.017655
 21
3.937846
 31
0.0
  0
LINE
  5
202
330
1FE
100
AcDbEntity
  8
Dimensions
440
 16777216
370
    -2
100
AcDbLine
 10
6.237655
 20
4.007846
 30
0.0
 11
6.314203
 21
4.007846
 31
0.0
  0
LINE
  5
203
330
1FE
100
AcDbEntity
  8
Dimensions
440
 16777216
370
    -2
100
AcDbLine
 10
6.897655
 20
4.007846
 30
0.0
 11
6.821107
 21
4.007846
 31
0.0
  0
SOLID
  5
204
330
1FE
100
AcDbEntity
  8
Dimensions
440
 16777216
100
AcDbTrace
 10
6.237655
 20
4.027846
 30
0.0
 11
6.237655
 21
3.987846
 31
0.0
 12
6.117655
 22
4.007846
 32
0.0
 13
6.117655
 23
4.007846
 33
0.0
  0
SOLID
  5
205
330
1FE
100
AcDbEntity
  8
Dimensions
440
 16777216
100
AcDbTrace
 10
6.897655
 20
4.027846
 30
0.0
 11
6.897655
 21
3.987846
 31
0.0
 12
7.017655
 22
4.007846
 32
0.0
 13
7.017655
 23
4.007846
 33
0.0
  0
MTEXT
  5
206
330
1FE
100
AcDbEntity
  8
Dimensions
440
 16777216
100
AcDbMText
 10
6.567655
 20
4.007846
 30
0.0
 40
0.12
 41
0.0
 46
0.0
 71
     5
 72
     1
  1
\A1;22.86
 73
     1
 44
1.0
  0
POINT
  5
207
330
1FE
100
AcDbEntity
  8
Defpoints
 62
     0
440
 16777216
100
AcDbPoint
 10
6.117655
 20
4.367846
 30
0.0
  0
POINT
  5
208
330
1FE
100
AcDbEntity
  8
Defpoints
 62
     0
440
 16777216
100
AcDbPoint
 10
7.017655
 20
4.567846
 30
0.0
  0
POINT
  5
209
330
1FE
100
AcDbEntity
  8
Defpoints
 62
     0
440
 16777216
100
AcDbPoint
 10
7.017655
 20
4.007846
 30
0.0
  0
ENDBLK
  5
20A
330
1FE
100
AcDbEntity
  8
0
100
AcDbBlockEnd
  0
BLOCK
  5
20D
330
20C
100
AcDbEntity
  8
0
100
AcDbBlockBegin
  2
*D19
 70
     1
 10
0.0
 20
0.0
 30
0.0
  3
*D19
  1

  0
LINE
  5
20E
330
20C
100
AcDbEntity
  8
Dimensions
440
 16777216
370
    -2
100
AcDbLine
 10
6.187655
 20
4.367846
 30
0.0
 11
7.807655
 21
4.367846
 31
0.0
  0
LINE
  5
20F
330
20C
100
AcDbEntity
  8
Dimensions
440
 16777216
370
    -2
100
AcDbLine
 10
7.087655
 20
4.567846
 30
0.0
 11
7.807655
 21
4.567846
 31
0.0
  0
LINE
  5
210
330
20C
100
AcDbEntity
  8
Dimensions
440
 16777216
370
    -2
100
AcDbLine
 10
7.737655
 20
4.247846
 30
0.0
 11
7.737655
 21
4.127846
 31
0.0
  0
LINE
  5
211
330
20C
100
AcDbEntity
  8
Dimensions
440
 16777216
370
    -2
100
AcDbLine
 10
7.737655
 20
4.687846
 30
0.0
 11
7.737655
 21
4.807846
 31
0.0
  0
LINE
  5
212
330
20C
100
AcDbEntity
  8
Dimensions
440
 16777216
370
    -2
100
AcDbLine
 10
7.737655
 20
4.807846
 30
0.0
 11
7.857655
 21
4.807846
 31
0.0
  0
SOLID
  5
213
330
20C
100
AcDbEntity
  8
Dimensions
440
 16777216
100
AcDbTrace
 10
7.717655
 20
4.247846
 30
0.0
 11
7.757655
 21
4.247846
 31
0.0
 12
7.737655
 22
4.367846
 32
0.0
 13
7.737655
 23
4.367846
 33
0.0
  0
SOLID
  5
214
330
20C
100
AcDbEntity
  8
Dimensions
440
 16777216
100
AcDbTrace
 10
7.717655
 20
4.687846
 30
0.0
 11
7.757655
 21
4.687846
 31
0.0
 12
7.737655
 22
4.567846
 32
0.0
 13
7.737655
 23
4.567846
 33
0.0
  0
MTEXT
  5
215
330
20C
100
AcDbEntity
  8
Dimensions
440
 16777216
100
AcDbMText
 10
8.06363
 20
4.807846
 30
0.0
 40
0.12
 41
0.0
 46
0.0
 71
     5
 72
     1
  1
\A1;5.08
 73
     1
 44
1.0
  0
POINT
  5
216
330
20C
100
AcDbEntity
  8
Defpoints
 62
     0
440
 16777216
100
AcDbPoint
 10
6.117655
 20
4.367846
 30
0.0
  0
POINT
  5
217
330
20C
100
AcDbEntity
  8
Defpoints
 62
     0
440
 16777216
100
AcDbPoint
 10
7.017655
 20
4.567846
 30
0.0
  0
POINT
  5
218
330
20C
100
AcDbEntity
  8
Defpoints
 62
     0
440
 16777216
100
AcDbPoint
 10
7.737655
 20
4.567846
 30
0.0
  0
ENDBLK
  5
219
330
20C
100
AcDbEntity
  8
0
100
AcDbBlockEnd
  0
BLOCK
  5
21C
330
21B
100
AcDbEntity
  8
0
100
AcDbBlockBegin
  2
*D20
 70
     1
 10
0.0
 20
0.0
 30
0.0
  3
*D20
  1

  0
LINE
  5
3FB
330
21B
100
AcDbEntity
  8
Dimensions
440
 16777216
370
    -2
100
AcDbLine
 10
3.947917
 20
6.337846
 30
0.0
 11
3.947917
 21
6.697846
 31
0.0
  0
LINE
  5
3FC
330
21B
100
AcDbEntity
  8
Dimensions
440
 16777216
370
    -2
100
AcDbLine
 10
5.007917
 20
6.337846
 30
0.0
 11
5.007917
 21
6.697846
 31
0.0
  0
LINE
  5
3FD
330
21B
100
AcDbEntity
  8
Dimensions
440
 16777216
370
    -2
100
AcDbLine
 10
4.067917
 20
6.627846
 30
0.0
 11
4.225039
 21
6.627846
 31
0.0
  0
LINE
  5
3FE
330
21B
100
AcDbEntity
  8
Dimensions
440
 16777216
370
    -2
100
AcDbLine
 10
4.887917
 20
6.627846
 30
0.0
 11
4.730796
 21
6.627846
 31
0.0
  0
SOLID
  5
3FF
330
21B
100
AcDbEntity
  8
Dimensions
440
 16777216
100
AcDbTrace
 10
4.067917
 20
6.647846
 30
0.0
 11
4.067917
 21
6.607846
 31
0.0
 12
3.947917
 22
6.627846
 32
0.0
 13
3.947917
 23
6.627846
 33
0.0
  0
SOLID
  5
400
330
21B
100
AcDbEntity
  8
Dimensions
440
 16777216
100
AcDbTrace
 10
4.887917
 20
6.647846
 30
0.0
 11
4.887917
 21
6.607846
 31
0.0
 12
5.007917
 22
6.627846
 32
0.0
 13
5.007917
 23
6.627846
 33
0.0
  0
MTEXT
  5
401
330
21B
100
AcDbEntity
  8
Dimensions
440
 16777216
100
AcDbMText
 10
4.477917
 20
6.627846
 30
0.0
 40
0.12
 41
0.0
 46
0.0
 71
     5
 72
     1
  1
\A1;26.92
 73
     1
 44
1.0
  0
POINT
  5
402
330
21B
100
AcDbEntity
  8
Defpoints
 62
     0
440
 16777216
100
AcDbPoint
 10
3.947917
 20
6.267846
 30
0.0
  0
POINT
  5
403
330
21B
100
AcDbEntity
  8
Defpoints
 62
     0
440
 16777216
100
AcDbPoint
 10
5.007917
 20
6.267846
 30
0.0
  0
POINT
  5
404
330
21B
100
AcDbEntity
  8
Defpoints
 62
     0
440
 16777216
100
AcDbPoint
 10
5.007917
 20
6.627846
 30
0.0
  0
ENDBLK
  5
21D
330
21B
100
AcDbEntity
  8
0
100
AcDbBlockEnd
  0
BLOCK
  5
229
330
228
100
AcDbEntity
  8
0
100
AcDbBlockBegin
  2
*D21
 70
     1
 10
0.0
 20
0.0
 30
0.0
  3
*D21
  1

  0
LINE
  5
405
330
228
100
AcDbEntity
  8
Dimensions
440
 16777216
370
    -2
100
AcDbLine
 10
5.007917
 20
6.337846
 30
0.0
 11
5.007917
 21
6.697846
 31
0.0
  0
LINE
  5
406
330
228
100
AcDbEntity
  8
Dimensions
440
 16777216
370
    -2
100
AcDbLine
 10
5.907917
 20
6.337846
 30
0.0
 11
5.907917
 21
6.697846
 31
0.0
  0
LINE
  5
407
330
228
100
AcDbEntity
  8
Dimensions
440
 16777216
370
    -2
100
AcDbLine
 10
5.127917
 20
6.627846
 30
0.0
 11
5.204466
 21
6.627846
 31
0.0
  0
LINE
  5
408
330
228
100
AcDbEntity
  8
Dimensions
440
 16777216
370
    -2
100
AcDbLine
 10
5.787917
 20
6.627846
 30
0.0
 11
5.711369
 21
6.627846
 31
0.0
  0
SOLID
  5
409
330
228
100
AcDbEntity
  8
Dimensions
440
 16777216
100
AcDbTrace
 10
5.127917
 20
6.647846
 30
0.0
 11
5.127917
 21
6.607846
 31
0.0
 12
5.007917
 22
6.627846
 32
0.0
 13
5.007917
 23
6.627846
 33
0.0
  0
SOLID
  5
40A
330
228
100
AcDbEntity
  8
Dimensions
440
 16777216
100
AcDbTrace
 10
5.787917
 20
6.647846
 30
0.0
 11
5.787917
 21
6.607846
 31
0.0
 12
5.907917
 22
6.627846
 32
0.0
 13
5.907917
 23
6.627846
 33
0.0
  0
MTEXT
  5
40B
330
228
100
AcDbEntity
  8
Dimensions
440
 16777216
100
AcDbMText
 10
5.457917
 20
6.627846
 30
0.0
 40
0.12
 41
0.0
 46
0.0
 71
     5
 72
     1
  1
\A1;22.86
 73
     1
 44
1.0
  0
POINT
  5
40C
330
228
100
AcDbEntity
  8
Defpoints
 62
     0
440
 16777216
100
AcDbPoint
 10
5.007917
 20
6.267846
 30
0.0
  0
POINT
  5
40D
330
228
100
AcDbEntity
  8
Defpoints
 62
     0
440
 16777216
100
AcDbPoint
 10
5.907917
 20
6.267846
 30
0.0
  0
POINT
  5
40E
330
228
100
AcDbEntity
  8
Defpoints
 62
     0
440
 16777216
100
AcDbPoint
 10
5.907917
 20
6.627846
 30
0.0
  0
ENDBLK
  5
22A
330
228
100
AcDbEntity
  8
0
100
AcDbBlockEnd
  0
BLOCK
  5
236
330
235
100
AcDbEntity
  8
0
100
AcDbBlockBegin
  2
*D22
 70
     1
 10
0.0
 20
0.0
 30
0.0
  3
*D22
  1

  0
LINE
  5
40F
330
235
100
AcDbEntity
  8
Dimensions
440
 16777216
370
    -2
100
AcDbLine
 10
5.907917
 20
6.337846
 30
0.0
 11
5.907917
 21
6.697846
 31
0.0
  0
LINE
  5
410
330
235
100
AcDbEntity
  8
Dimensions
440
 16777216
370
    -2
100
AcDbLine
 10
6.907917
 20
6.337846
 30
0.0
 11
6.907917
 21
6.697846
 31
0.0
  0
LINE
  5
411
330
235
100
AcDbEntity
  8
Dimensions
440
 16777216
370
    -2
100
AcDbLine
 10
6.027917
 20
6.627846
 30
0.0
 11
6.201287
 21
6.627846
 31
0.0
  0
LINE
  5
412
330
235
100
AcDbEntity
  8
Dimensions
440
 16777216
370
    -2
100
AcDbLine
 10
6.787917
 20
6.627846
 30
0.0
 11
6.614547
 21
6.627846
 31
0.0
  0
SOLID
  5
413
330
235
100
AcDbEntity
  8
Dimensions
440
 16777216
100
AcDbTrace
 10
6.027917
 20
6.647846
 30
0.0
 11
6.027917
 21
6.607846
 31
0.0
 12
5.907917
 22
6.627846
 32
0.0
 13
5.907917
 23
6.627846
 33
0.0
  0
SOLID
  5
414
330
235
100
AcDbEntity
  8
Dimensions
440
 16777216
100
AcDbTrace
 10
6.787917
 20
6.647846
 30
0.0
 11
6.787917
 21
6.607846
 31
0.0
 12
6.907917
 22
6.627846
 32
0.0
 13
6.907917
 23
6.627846
 33
0.0
  0
MTEXT
  5
415
330
235
100
AcDbEntity
  8
Dimensions
440
 16777216
100
AcDbMText
 10
6.407917
 20
6.627846
 30
0.0
 40
0.12
 41
0.0
 46
0.0
 71
     5
 72
     1
  1
\A1;25.4
 73
     1
 44
1.0
  0
POINT
  5
416
330
235
100
AcDbEntity
  8
Defpoints
 62
     0
440
 16777216
100
AcDbPoint
 10
5.907917
 20
6.267846
 30
0.0
  0
POINT
  5
417
330
235
100
AcDbEntity
  8
Defpoints
 62
     0
440
 16777216
100
AcDbPoint
 10
6.907917
 20
6.267846
 30
0.0
  0
POINT
  5
418
330
235
100
AcDbEntity
  8
Defpoints
 62
     0
440
 16777216
100
AcDbPoint
 10
6.907917
 20
6.627846
 30
0.0
  0
ENDBLK
  5
237
330
235
100
AcDbEntity
  8
0
100
AcDbBlockEnd
  0
BLOCK
  5
243
330
242
100
AcDbEntity
  8
0
100
AcDbBlockBegin
  2
*D23
 70
     1
 10
0.0
 20
0.0
 30
0.0
  3
*D23
  1

  0
LINE
  5
419
330
242
100
AcDbEntity
  8
Dimensions
440
 16777216
370
    -2
100
AcDbLine
 10
6.977917
 20
6.267846
 30
0.0
 11
7.807655
 21
6.267846
 31
0.0
  0
LINE
  5
41A
330
242
100
AcDbEntity
  8
Dimensions
440
 16777216
370
    -2
100
AcDbLine
 10
7.087655
 20
4.567846
 30
0.0
 11
7.807655
 21
4.567846
 31
0.0
  0
LINE
  5
41B
330
242
100
AcDbEntity
  8
Dimensions
440
 16777216
370
    -2
100
AcDbLine
 10
7.737655
 20
6.147846
 30
0.0
 11
7.737655
 21
5.529155
 31
0.0
  0
LINE
  5
41C
330
242
100
AcDbEntity
  8
Dimensions
440
 16777216
370
    -2
100
AcDbLine
 10
7.737655
 20
4.687846
 30
0.0
 11
7.737655
 21
5.306536
 31
0.0
  0
SOLID
  5
41D
330
242
100
AcDbEntity
  8
Dimensions
440
 16777216
100
AcDbTrace
 10
7.717655
 20
6.147846
 30
0.0
 11
7.757655
 21
6.147846
 31
0.0
 12
7.737655
 22
6.267846
 32
0.0
 13
7.737655
 23
6.267846
 33
0.0
  0
SOLID
  5
41E
330
242
100
AcDbEntity
  8
Dimensions
440
 16777216
100
AcDbTrace
 10
7.717655
 20
4.687846
 30
0.0
 11
7.757655
 21
4.687846
 31
0.0
 12
7.737655
 22
4.567846
 32
0.0
 13
7.737655
 23
4.567846
 33
0.0
  0
MTEXT
  5
41F
330
242
100
AcDbEntity
  8
Dimensions
440
 16777216
100
AcDbMText
 10
7.737655
 20
5.417846
 30
0.0
 40
0.12
 41
0.0
 46
0.0
 71
     5
 72
     1
  1
\A1;43.18
 73
     1
 44
1.0
  0
POINT
  5
420
330
242
100
AcDbEntity
  8
Defpoints
 62
     0
440
 16777216
100
AcDbPoint
 10
6.907917
 20
6.267846
 30
0.0
  0
POINT
  5
421
330
242
100
AcDbEntity
  8
Defpoints
 62
     0
440
 16777216
100
AcDbPoint
 10
7.017655
 20
4.567846
 30
0.0
  0
POINT
  5
422
330
242
100
AcDbEntity
  8
Defpoints
 62
     0
440
 16777216
100
AcDbPoint
 10
7.737655
 20
4.567846
 30
0.0
  0
ENDBLK
  5
244
330
242
100
AcDbEntity
  8
0
100
AcDbBlockEnd
  0
BLOCK
  5
250
330
24F
100
AcDbEntity
  8
0
100
AcDbBlockBegin
  2
*D24
 70
     1
 10
0.0
 20
0.0
 30
0.0
  3
*D24
  1

  0
LINE
  5
423
330
24F
100
AcDbEntity
  8
Dimensions
440
 16777216
370
    -2
100
AcDbLine
 10
6.117655
 20
4.297846
 30
0.0
 11
6.117655
 21
3.937846
 31
0.0
  0
LINE
  5
424
330
24F
100
AcDbEntity
  8
Dimensions
440
 16777216
370
    -2
100
AcDbLine
 10
5.217655
 20
4.297846
 30
0.0
 11
5.217655
 21
3.937846
 31
0.0
  0
LINE
  5
425
330
24F
100
AcDbEntity
  8
Dimensions
440
 16777216
370
    -2
100
AcDbLine
 10
5.997655
 20
4.007846
 30
0.0
 11
5.921107
 21
4.007846
 31
0.0
  0
LINE
  5
426
330
24F
100
AcDbEntity
  8
Dimensions
440
 16777216
370
    -2
100
AcDbLine
 10
5.337655
 20
4.007846
 30
0.0
 11
5.414203
 21
4.007846
 31
0.0
  0
SOLID
  5
427
330
24F
100
AcDbEntity
  8
Dimensions
440
 16777216
100
AcDbTrace
 10
5.997655
 20
4.027846
 30
0.0
 11
5.997655
 21
3.987846
 31
0.0
 12
6.117655
 22
4.007846
 32
0.0
 13
6.117655
 23
4.007846
 33
0.0
  0
SOLID
  5
428
330
24F
100
AcDbEntity
  8
Dimensions
440
 16777216
100
AcDbTrace
 10
5.337655
 20
4.027846
 30
0.0
 11
5.337655
 21
3.987846
 31
0.0
 12
5.217655
 22
4.007846
 32
0.0
 13
5.217655
 23
4.007846
 33
0.0
  0
MTEXT
  5
429
330
24F
100
AcDbEntity
  8
Dimensions
440
 16777216
100
AcDbMText
 10
5.667655
 20
4.007846
 30
0.0
 40
0.12
 41
0.0
 46
0.0
 71
     5
 72
     1
  1
\A1;22.86
 73
     1
 44
1.0
  0
POINT
  5
42A
330
24F
100
AcDbEntity
  8
Defpoints
 62
     0
440
 16777216
100
AcDbPoint
 10
6.117655
 20
4.367846
 30
0.0
  0
POINT
  5
42B
330
24F
100
AcDbEntity
  8
Defpoints
 62
     0
440
 16777216
100
AcDbPoint
 10
5.217655
 20
4.367846
 30
0.0
  0
POINT
  5
42C
330
24F
100
AcDbEntity
  8
Defpoints
 62
     0
440
 16777216
100
AcDbPoint
 10
5.217655
 20
4.007846
 30
0.0
  0
ENDBLK
  5
251
330
24F
100
AcDbEntity
  8
0
100
AcDbBlockEnd
  0
BLOCK
  5
25D
330
25C
100
AcDbEntity
  8
0
100
AcDbBlockBegin
  2
*D25
 70
     1
 10
0.0
 20
0.0
 30
0.0
  3
*D25
  1

  0
LINE
  5
42D
330
25C
100
AcDbEntity
  8
Dimensions
440
 16777216
370
    -2
100
AcDbLine
 10
4.317655
 20
4.297846
 30
0.0
 11
4.317655
 21
3.937846
 31
0.0
  0
LINE
  5
42E
330
25C
100
AcDbEntity
  8
Dimensions
440
 16777216
370
    -2
100
AcDbLine
 10
5.217655
 20
4.297846
 30
0.0
 11
5.217655
 21
3.937846
 31
0.0
  0
LINE
  5
42F
330
25C
100
AcDbEntity
  8
Dimensions
440
 16777216
370
    -2
100
AcDbLine
 10
4.437655
 20
4.007846
 30
0.0
 11
4.514203
 21
4.007846
 31
0.0
  0
LINE
  5
430
330
25C
100
AcDbEntity
  8
Dimensions
440
 16777216
370
    -2
100
AcDbLine
 10
5.097655
 20
4.007846
 30
0.0
 11
5.021107
 21
4.007846
 31
0.0
  0
SOLID
  5
431
330
25C
100
AcDbEntity
  8
Dimensions
440
 16777216
100
AcDbTrace
 10
4.437655
 20
4.027846
 30
0.0
 11
4.437655
 21
3.987846
 31
0.0
 12
4.317655
 22
4.007846
 32
0.0
 13
4.317655
 23
4.007846
 33
0.0
  0
SOLID
  5
432
330
25C
100
AcDbEntity
  8
Dimensions
440
 16777216
100
AcDbTrace
 10
5.097655
 20
4.027846
 30
0.0
 11
5.097655
 21
3.987846
 31
0.0
 12
5.217655
 22
4.007846
 32
0.0
 13
5.217655
 23
4.007846
 33
0.0
  0
MTEXT
  5
433
330
25C
100
AcDbEntity
  8
Dimensions
440
 16777216
100
AcDbMText
 10
4.767655
 20
4.007846
 30
0.0
 40
0.12
 41
0.0
 46
0.0
 71
     5
 72
     1
  1
\A1;22.86
 73
     1
 44
1.0
  0
POINT
  5
434
330
25C
100
AcDbEntity
  8
Defpoints
 62
     0
440
 16777216
100
AcDbPoint
 10
4.317655
 20
4.367846
 30
0.0
  0
POINT
  5
435
330
25C
100
AcDbEntity
  8
Defpoints
 62
     0
440
 16777216
100
AcDbPoint
 10
5.217655
 20
4.367846
 30
0.0
  0
POINT
  5
436
330
25C
100
AcDbEntity
  8
Defpoints
 62
     0
440
 16777216
100
AcDbPoint
 10
5.217655
 20
4.007846
 30
0.0
  0
ENDBLK
  5
25E
330
25C
100
AcDbEntity
  8
0
100
AcDbBlockEnd
  0
BLOCK
  5
26A
330
269
100
AcDbEntity
  8
0
100
AcDbBlockBegin
  2
*D26
 70
     1
 10
0.0
 20
0.0
 30
0.0
  3
*D26
  1

  0
LINE
  5
437
330
269
100
AcDbEntity
  8
Dimensions
440
 16777216
370
    -2
100
AcDbLine
 10
6.117655
 20
4.297846
 30
0.0
 11
6.117655
 21
3.937846
 31
0.0
  0
LINE
  5
438
330
269
100
AcDbEntity
  8
Dimensions
440
 16777216
370
    -2
100
AcDbLine
 10
7.017655
 20
4.497846
 30
0.0
 11
7.017655
 21
3.937846
 31
0.0
  0
LINE
  5
439
330
269
100
AcDbEntity
  8
Dimensions
440
 16777216
370
    -2
100
AcDbLine
 10
6.237655
 20
4.007846
 30
0.0
 11
6.314203
 21
4.007846
 31
0.0
  0
LINE
  5
43A
330
269
100
AcDbEntity
  8
Dimensions
440
 16777216
370
    -2
100
AcDbLine
 10
6.897655
 20
4.007846
 30
0.0
 11
6.821107
 21
4.007846
 31
0.0
  0
SOLID
  5
43B
330
269
100
AcDbEntity
  8
Dimensions
440
 16777216
100
AcDbTrace
 10
6.237655
 20
4.027846
 30
0.0
 11
6.237655
 21
3.987846
 31
0.0
 12
6.117655
 22
4.007846
 32
0.0
 13
6.117655
 23
4.007846
 33
0.0
  0
SOLID
  5
43C
330
269
100
AcDbEntity
  8
Dimensions
440
 16777216
100
AcDbTrace
 10
6.897655
 20
4.027846
 30
0.0
 11
6.897655
 21
3.987846
 31
0.0
 12
7.017655
 22
4.007846
 32
0.0
 13
7.017655
 23
4.007846
 33
0.0
  0
MTEXT
  5
43D
330
269
100
AcDbEntity
  8
Dimensions
440
 16777216
100
AcDbMText
 10
6.567655
 20
4.007846
 30
0.0
 40
0.12
 41
0.0
 46
0.0
 71
     5
 72
     1
  1
\A1;22.86
 73
     1
 44
1.0
  0
POINT
  5
43E
330
269
100
AcDbEntity
  8
Defpoints
 62
     0
440
 16777216
100
AcDbPoint
 10
6.117655
 20
4.367846
 30
0.0
  0
POINT
  5
43F
330
269
100
AcDbEntity
  8
Defpoints
 62
     0
440
 16777216
100
AcDbPoint
 10
7.017655
 20
4.567846
 30
0.0
  0
POINT
  5
440
330
269
100
AcDbEntity
  8
Defpoints
 62
     0
440
 16777216
100
AcDbPoint
 10
7.017655
 20
4.007846
 30
0.0
  0
ENDBLK
  5
26B
330
269
100
AcDbEntity
  8
0
100
AcDbBlockEnd
  0
BLOCK
  5
277
330
276
100
AcDbEntity
  8
0
100
AcDbBlockBegin
  2
*D27
 70
     1
 10
0.0
 20
0.0
 30
0.0
  3
*D27
  1

  0
LINE
  5
441
330
276
100
AcDbEntity
  8
Dimensions
440
 16777216
370
    -2
100
AcDbLine
 10
6.187655
 20
4.367846
 30
0.0
 11
7.807655
 21
4.367846
 31
0.0
  0
LINE
  5
442
330
276
100
AcDbEntity
  8
Dimensions
440
 16777216
370
    -2
100
AcDbLine
 10
7.087655
 20
4.567846
 30
0.0
 11
7.807655
 21
4.567846
 31
0.0
  0
LINE
  5
443
330
276
100
AcDbEntity
  8
Dimensions
440
 16777216
370
    -2
100
AcDbLine
 10
7.737655
 20
4.247846
 30
0.0
 11
7.737655
 21
4.127846
 31
0.0
  0
LINE
  5
444
330
276
100
AcDbEntity
  8
Dimensions
440
 16777216
370
    -2
100
AcDbLine
 10
7.737655
 20
4.687846
 30
0.0
 11
7.737655
 21
4.807846
 31
0.0
  0
LINE
  5
445
330
276
100
AcDbEntity
  8
Dimensions
440
 16777216
370
    -2
100
AcDbLine
 10
7.737655
 20
4.807846
 30
0.0
 11
7.857655
 21
4.807846
 31
0.0
  0
SOLID
  5
446
330
276
100
AcDbEntity
  8
Dimensions
440
 16777216
100
AcDbTrace
 10
7.717655
 20
4.247846
 30
0.0
 11
7.757655
 21
4.247846
 31
0.0
 12
7.737655
 22
4.367846
 32
0.0
 13
7.737655
 23
4.367846
 33
0.0
  0
SOLID
  5
447
330
276
100
AcDbEntity
  8
Dimensions
440
 16777216
100
AcDbTrace
 10
7.717655
 20
4.687846
 30
0.0
 11
7.757655
 21
4.687846
 31
0.0
 12
7.737655
 22
4.567846
 32
0.0
 13
7.737655
 23
4.567846
 33
0.0
  0
MTEXT
  5
448
330
276
100
AcDbEntity
  8
Dimensions
440
 16777216
100
AcDbMText
 10
8.06363
 20
4.807846
 30
0.0
 40
0.12
 41
0.0
 46
0.0
 71
     5
 72
     1
  1
\A1;5.08
 73
     1
 44
1.0
  0
POINT
  5
449
330
276
100
AcDbEntity
  8
Defpoints
 62
     0
440
 16777216
100
AcDbPoint
 10
6.117655
 20
4.367846
 30
0.0
  0
POINT
  5
44A
330
276
100
AcDbEntity
  8
Defpoints
 62
     0
440
 16777216
100
AcDbPoint
 10
7.017655
 20
4.567846
 30
0.0
  0
POINT
  5
44B
330
276
100
AcDbEntity
  8
Defpoints
 62
     0
440
 16777216
100
AcDbPoint
 10
7.737655
 20
4.567846
 30
0.0
  0
ENDBLK
  5
278
330
276
100
AcDbEntity
  8
0
100
AcDbBlockEnd
  0
ENDSEC
  0
SECTION
  2
ENTITIES
  0
INSERT
  5
E0
330
70
100
AcDbEntity
  8
Border
100
AcDbBlockReference
  2
ANSI_A(H)_SHEET
 10
0.0
 20
0.0
 30
0.0
  0
INSERT
  5
102
330
70
100
AcDbEntity
  8
Titleblock
100
AcDbBlockReference
 66
     1
  2
ANSI_TITLEBLOCK
 10
10.75
 20
0.38
 30
0.0
  0
ATTRIB
  5
145
330
102
100
AcDbEntity
  8
Titleblock
100
AcDbText
 10
9.6
 20
0.445
 30
0.0
 40
0.12
  1
1/1
  7
FusionTitle
 11
9.6
 21
0.505
 31
0.0
100
AcDbAttribute
280
     0
  2
SHEET
 70
     0
 74
     2
280
     1
  0
ATTRIB
  5
146
330
102
100
AcDbEntity
  8
Titleblock
100
AcDbText
 10
7.65
 20
0.445
 30
0.0
 40
0.12
  1

  7
FusionTitle
 11
7.65
 21
0.505
 31
0.0
100
AcDbAttribute
280
     0
  2
WEIGHT
 70
     0
 74
     2
280
     1
  0
ATTRIB
  5
147
330
102
100
AcDbEntity
  8
Titleblock
100
AcDbText
 10
6.23
 20
0.445
 30
0.0
 40
0.12
  1
1:1
  7
FusionTitle
 11
6.23
 21
0.505
 31
0.0
100
AcDbAttribute
280
     0
  2
SCALE
 70
     0
 74
     2
280
     1
  0
ATTRIB
  5
148
330
102
100
AcDbEntity
  8
Titleblock
100
AcDbText
 10
5.036207
 20
0.455
 30
0.0
 40
0.1
  1
2/5/2022
  7
FusionTitle
 72
     2
 11
5.58
 21
0.505
 31
0.0
100
AcDbAttribute
280
     0
  2
DRAWN_DATE
 70
     0
 74
     2
280
     1
  0
ATTRIB
  5
149
330
102
100
AcDbEntity
  8
Titleblock
100
AcDbText
 10
3.898793
 20
0.455
 30
0.0
 40
0.1
  1
Andrew Jefferson
  7
FusionTitle
 11
3.898793
 21
0.505
 31
0.0
100
AcDbAttribute
280
     0
  2
DRAWN_BY
 70
     0
 74
     2
280
     1
  0
ATTRIB
  5
14A
330
102
100
AcDbEntity
  8
Titleblock
100
AcDbText
 10
7.3
 20
0.715525
 30
0.0
 40
0.12
  1

  7
FusionTitle
 11
7.3
 21
0.68
 31
0.0
100
AcDbAttribute
280
     0
  2
DWG_NO
 70
     0
 74
     1
280
     1
  0
ATTRIB
  5
14B
330
102
100
AcDbEntity
  8
Titleblock
100
AcDbText
 10
5.58
 20
0.705
 30
0.0
 40
0.1
  1

  7
FusionTitle
 72
     2
 11
5.58
 21
0.755
 31
0.0
100
AcDbAttribute
280
     0
  2
CHECKED_DATE
 70
     0
 74
     2
280
     1
  0
ATTRIB
  5
14C
330
102
100
AcDbEntity
  8
Titleblock
100
AcDbText
 10
3.898793
 20
0.705
 30
0.0
 40
0.1
  1

  7
FusionTitle
 11
3.898793
 21
0.755
 31
0.0
100
AcDbAttribute
280
     0
  2
CHECKED_BY
 70
     0
 74
     2
280
     1
  0
ATTRIB
  5
14D
330
102
100
AcDbEntity
  8
Titleblock
100
AcDbText
 10
5.759093
 20
0.715525
 30
0.0
 40
0.12
  1
A
  7
FusionTitle
 72
     1
 11
5.815
 21
0.68
 31
0.0
100
AcDbAttribute
280
     0
  2
SIZE
 70
     0
 74
     1
280
     1
  0
ATTRIB
  5
14E
330
102
100
AcDbEntity
  8
Titleblock
100
AcDbText
 10
10.5
 20
0.715525
 30
0.0
 40
0.12
  1

  7
FusionTitle
 72
     1
 11
10.5
 21
0.68
 31
0.0
100
AcDbAttribute
280
     0
  2
REV
 70
     0
 74
     1
280
     1
  0
ATTRIB
  5
14F
330
102
100
AcDbEntity
  8
Titleblock
100
AcDbText
 10
6.625
 20
0.715525
 30
0.0
 40
0.12
  1

  7
FusionTitle
 72
     1
 11
6.625
 21
0.68
 31
0.0
100
AcDbAttribute
280
     0
  2
CODE
 70
     0
 74
     1
280
     1
  0
ATTRIB
  5
150
330
102
100
AcDbEntity
  8
Titleblock
100
AcDbText
 10
5.58
 20
0.955
 30
0.0
 40
0.1
  1

  7
FusionTitle
 72
     2
 11
5.58
 21
1.005
 31
0.0
100
AcDbAttribute
280
     0
  2
APPROVED_DATE
 70
     0
 74
     2
280
     1
  0
ATTRIB
  5
151
330
102
100
AcDbEntity
  8
Titleblock
100
AcDbText
 10
3.898793
 20
0.955
 30
0.0
 40
0.1
  1

  7
FusionTitle
 11
3.898793
 21
1.005
 31
0.0
100
AcDbAttribute
280
     0
  2
APPROVED_BY
 70
     0
 74
     2
280
     1
  0
ATTRIB
  5
152
330
102
100
AcDbEntity
  8
Titleblock
100
AcDbText
 10
5.68
 20
2.36
 30
0.0
 40
0.24
  1
CRAFT
  7
FusionTitle
 11
5.68
 21
2.6
 31
0.0
100
AcDbAttribute
280
     0
  2
PROJECT
 70
     0
 74
     3
280
     1
1001
FUSIONTITLEBLOCKATTRIBUTEOVERRIDE
1070
     1
  0
ATTRIB
  5
153
330
102
100
AcDbEntity
  8
Titleblock
100
AcDbText
 10
5.68
 20
1.21
 30
0.0
 40
0.12
  1

  7
FusionTitle
 11
5.68
 21
1.33
 31
0.0
100
AcDbAttribute
280
     0
  2
TITLE_3
 70
     0
 74
     3
280
     1
  0
ATTRIB
  5
154
330
102
100
AcDbEntity
  8
Titleblock
100
AcDbText
 10
5.68
 20
1.43
 30
0.0
 40
0.24
  1

  7
FusionTitle
 11
5.68
 21
1.67
 31
0.0
100
AcDbAttribute
280
     0
  2
TITLE_2
 70
     0
 74
     3
280
     1
  0
ATTRIB
  5
155
330
102
100
AcDbEntity
  8
Titleblock
100
AcDbText
 10
5.68
 20
1.77
 30
0.0
 40
0.24
  1
DueBoardLayout
  7
FusionTitle
 11
5.68
 21
2.01
 31
0.0
100
AcDbAttribute
280
     0
  2
TITLE_1
 70
     0
 74
     3
280
     1
  0
SEQEND
  5
156
330
102
100
AcDbEntity
  8
Titleblock
  0
DIMENSION
  5
157
330
70
100
AcDbEntity
  8
Dimensions
100
AcDbDimension
280
     0
  2
*D20
 10
5.007917
 20
6.627846
 30
0.0
 11
4.477917
 21
6.627846
 31
0.0
 70
    33
 71
     5
 42
26.924
 73
     0
 74
     0
 75
     0
  3
Standard
100
AcDbAlignedDimension
 13
3.947917
 23
6.267846
 33
0.0
 14
5.007917
 24
6.267846
 34
0.0
1001
ACAD_DIMASSOC_CALC_DIMLFAC
1040
-1.0
1001
ACAD_DIMASSOC_DIMLFAC
1040
-25.4
1001
ACAD_DIMASSOC_OVERRIDDEN_DIMLFAC
1040
0.0
1001
ACAD_TC
1000
DSTYLE_TC
1002
{
1070
   176
1004
18000000020000008C8C8CC2000000000000000000000000
1070
   177
1004
18000000020000008C8C8CC2000000000000000000000000
1002
}
1001
ACAD_DSTYLE_DIMJAG_POSITION
1070
   387
1070
     0
1070
   389
1010
0.0
1020
0.0
1030
0.0
1001
ACAD
1000
DSTYLE
1002
{
1070
   144
1040
25.4
1070
   176
1070
   256
1070
   177
1070
   256
1002
}
  0
DIMENSION
  5
166
330
70
100
AcDbEntity
  8
Dimensions
100
AcDbDimension
280
     0
  2
*D21
 10
5.907917
 20
6.627846
 30
0.0
 11
5.457917
 21
6.627846
 31
0.0
 70
    33
 71
     5
 42
22.86
 73
     0
 74
     0
 75
     0
  3
Standard
100
AcDbAlignedDimension
 13
5.007917
 23
6.267846
 33
0.0
 14
5.907917
 24
6.267846
 34
0.0
1001
ACAD_DIMASSOC_CALC_DIMLFAC
1040
-1.0
1001
ACAD_DIMASSOC_DIMLFAC
1040
-25.4
1001
ACAD_DIMASSOC_OVERRIDDEN_DIMLFAC
1040
0.0
1001
ACAD_TC
1000
DSTYLE_TC
1002
{
1070
   177
1004
18000000020000008C8C8CC2000000000000000000000000
1070
   176
1004
18000000020000008C8C8CC2000000000000000000000000
1002
}
1001
ACAD_DSTYLE_DIMJAG_POSITION
1070
   387
1070
     0
1070
   389
1010
0.0
1020
0.0
1030
0.0
1001
ACAD
1000
DSTYLE
1002
{
1070
   177
1070
   256
1070
   176
1070
   256
1070
   144
1040
25.4
1002
}
  0
DIMENSION
  5
174
330
70
100
AcDbEntity
  8
Dimensions
100
AcDbDimension
280
     0
  2
*D22
 10
6.907917
 20
6.627846
 30
0.0
 11
6.407917
 21
6.627846
 31
0.0
 70
    33
 71
     5
 42
25.4
 73
     0
 74
     0
 75
     0
  3
Standard
100
AcDbAlignedDimension
 13
5.907917
 23
6.267846
 33
0.0
 14
6.907917
 24
6.267846
 34
0.0
1001
ACAD_DIMASSOC_CALC_DIMLFAC
1040
-1.0
1001
ACAD_DIMASSOC_DIMLFAC
1040
-25.4
1001
ACAD_DIMASSOC_OVERRIDDEN_DIMLFAC
1040
0.0
1001
ACAD_TC
1000
DSTYLE_TC
1002
{
1070
   177
1004
18000000020000008C8C8CC2000000000000000000000000
1070
   176
1004
18000000020000008C8C8CC2000000000000000000000000
1002
}
1001
ACAD_DSTYLE_DIMJAG_POSITION
1070
   387
1070
     0
1070
   389
1010
0.0
1020
0.0
1030
0.0
1001
ACAD
1000
DSTYLE
1002
{
1070
   177
1070
   256
1070
   176
1070
   256
1070
   144
1040
25.4
1002
}
  0
DIMENSION
  5
182
330
70
100
AcDbEntity
  8
Dimensions
100
AcDbDimension
280
     0
  2
*D23
 10
7.737655
 20
4.567846
 30
0.0
 11
7.737655
 21
5.417846
 31
0.0
 70
    32
 71
     5
 42
43.18
 73
     0
 74
     0
 75
     0
  3
Standard
100
AcDbAlignedDimension
 13
6.907917
 23
6.267846
 33
0.0
 14
7.017655
 24
4.567846
 34
0.0
 50
90.0
100
AcDbRotatedDimension
1001
ACAD_DIMASSOC_CALC_DIMLFAC
1040
-1.0
1001
ACAD_DIMASSOC_DIMLFAC
1040
-25.4
1001
ACAD_DIMASSOC_OVERRIDDEN_DIMLFAC
1040
0.0
1001
ACAD_TC
1000
DSTYLE_TC
1002
{
1070
   177
1004
18000000020000008C8C8CC2000000000000000000000000
1070
   176
1004
18000000020000008C8C8CC2000000000000000000000000
1002
}
1001
ACAD_DSTYLE_DIMJAG_POSITION
1070
   387
1070
     0
1070
   389
1010
0.0
1020
0.0
1030
0.0
1001
ACAD
1000
DSTYLE
1002
{
1070
   177
1070
   256
1070
   176
1070
   256
1070
   144
1040
25.4
1002
}
  0
DIMENSION
  5
190
330
70
100
AcDbEntity
  8
Dimensions
100
AcDbDimension
280
     0
  2
*D24
 10
5.217655
 20
4.007846
 30
0.0
 11
5.667655
 21
4.007846
 31
0.0
 70
    33
 71
     5
 42
22.86
 73
     0
 74
     0
 75
     0
  3
Standard
100
AcDbAlignedDimension
 13
6.117655
 23
4.367846
 33
0.0
 14
5.217655
 24
4.367846
 34
0.0
1001
ACAD_DIMASSOC_CALC_DIMLFAC
1040
-1.0
1001
ACAD_DIMASSOC_DIMLFAC
1040
-25.4
1001
ACAD_DIMASSOC_OVERRIDDEN_DIMLFAC
1040
0.0
1001
ACAD_TC
1000
DSTYLE_TC
1002
{
1070
   177
1004
18000000020000008C8C8CC2000000000000000000000000
1070
   176
1004
18000000020000008C8C8CC2000000000000000000000000
1002
}
1001
ACAD_DSTYLE_DIMJAG_POSITION
1070
   387
1070
     0
1070
   389
1010
0.0
1020
0.0
1030
0.0
1001
ACAD
1000
DSTYLE
1002
{
1070
   177
1070
   256
1070
   176
1070
   256
1070
   144
1040
25.4
1002
}
  0
DIMENSION
  5
19E
330
70
100
AcDbEntity
  8
Dimensions
100
AcDbDimension
280
     0
  2
*D25
 10
5.217655
 20
4.007846
 30
0.0
 11
4.767655
 21
4.007846
 31
0.0
 70
    33
 71
     5
 42
22.86
 73
     0
 74
     0
 75
     0
  3
Standard
100
AcDbAlignedDimension
 13
4.317655
 23
4.367846
 33
0.0
 14
5.217655
 24
4.367846
 34
0.0
1001
ACAD_DIMASSOC_CALC_DIMLFAC
1040
-1.0
1001
ACAD_DIMASSOC_DIMLFAC
1040
-25.4
1001
ACAD_DIMASSOC_OVERRIDDEN_DIMLFAC
1040
0.0
1001
ACAD_TC
1000
DSTYLE_TC
1002
{
1070
   176
1004
18000000020000008C8C8CC2000000000000000000000000
1070
   177
1004
18000000020000008C8C8CC2000000000000000000000000
1002
}
1001
ACAD_DSTYLE_DIMJAG_POSITION
1070
   387
1070
     0
1070
   389
1010
0.0
1020
0.0
1030
0.0
1001
ACAD
1000
DSTYLE
1002
{
1070
   144
1040
25.4
1070
   176
1070
   256
1070
   177
1070
   256
1002
}
  0
INSERT
  5
1AC
330
70
100
AcDbEntity
  8
Center Lines
 48
0.75
100
AcDbBlockReference
  2
*U10
 10
3.947917
 20
6.267846
 30
0.0
  0
INSERT
  5
1B7
330
70
100
AcDbEntity
  8
Center Lines
 48
0.75
100
AcDbBlockReference
  2
*U11
 10
5.007917
 20
6.267846
 30
0.0
  0
INSERT
  5
1C1
330
70
100
AcDbEntity
  8
Center Lines
 48
0.75
100
AcDbBlockReference
  2
*U12
 10
5.907917
 20
6.267846
 30
0.0
  0
INSERT
  5
1CB
330
70
100
AcDbEntity
  8
Center Lines
 48
0.75
100
AcDbBlockReference
  2
*U13
 10
6.907917
 20
6.267846
 30
0.0
  0
INSERT
  5
1D5
330
70
100
AcDbEntity
  8
Center Lines
 48
0.75
100
AcDbBlockReference
  2
*U14
 10
7.017655
 20
4.567846
 30
0.0
  0
INSERT
  5
1DF
330
70
100
AcDbEntity
  8
Center Lines
 48
0.75
100
AcDbBlockReference
  2
*U15
 10
6.117655
 20
4.367846
 30
0.0
  0
INSERT
  5
1E9
330
70
100
AcDbEntity
  8
Center Lines
 48
0.75
100
AcDbBlockReference
  2
*U16
 10
5.217655
 20
4.367846
 30
0.0
  0
INSERT
  5
1F3
330
70
100
AcDbEntity
  8
Center Lines
 48
0.75
100
AcDbBlockReference
  2
*U17
 10
4.317655
 20
4.367846
 30
0.0
  0
DIMENSION
  5
1FD
330
70
100
AcDbEntity
  8
Dimensions
100
AcDbDimension
280
     0
  2
*D26
 10
7.017655
 20
4.007846
 30
0.0
 11
6.567655
 21
4.007846
 31
0.0
 70
    32
 71
     5
 42
22.86
 73
     0
 74
     0
 75
     0
  3
Standard
100
AcDbAlignedDimension
 13
6.117655
 23
4.367846
 33
0.0
 14
7.017655
 24
4.567846
 34
0.0
100
AcDbRotatedDimension
1001
ACAD_DIMASSOC_CALC_DIMLFAC
1040
-1.0
1001
ACAD_DIMASSOC_DIMLFAC
1040
-25.4
1001
ACAD_DIMASSOC_OVERRIDDEN_DIMLFAC
1040
0.0
1001
ACAD_TC
1000
DSTYLE_TC
1002
{
1070
   176
1004
18000000020000008C8C8CC2000000000000000000000000
1070
   177
1004
18000000020000008C8C8CC2000000000000000000000000
1002
}
1001
ACAD_DSTYLE_DIMJAG_POSITION
1070
   387
1070
     0
1070
   389
1010
0.0
1020
0.0
1030
0.0
1001
ACAD
1000
DSTYLE
1002
{
1070
   144
1040
25.4
1070
   176
1070
   256
1070
   177
1070
   256
1002
}
  0
DIMENSION
  5
20B
330
70
100
AcDbEntity
  8
Dimensions
100
AcDbDimension
280
     0
  2
*D27
 10
7.737655
 20
4.567846
 30
0.0
 11
8.06363
 21
4.807846
 31
0.0
 70
    32
 71
     5
 42
5.08
 73
     0
 74
     0
 75
     0
  3
Standard
100
AcDbAlignedDimension
 13
6.117655
 23
4.367846
 33
0.0
 14
7.017655
 24
4.567846
 34
0.0
 50
90.0
100
AcDbRotatedDimension
1001
ACAD_DIMASSOC_CALC_DIMLFAC
1040
-1.0
1001
ACAD_DIMASSOC_DIMLFAC
1040
-25.4
1001
ACAD_DIMASSOC_OVERRIDDEN_DIMLFAC
1040
0.0
1001
ACAD_TC
1000
DSTYLE_TC
1002
{
1070
   177
1004
18000000020000008C8C8CC2000000000000000000000000
1070
   176
1004
18000000020000008C8C8CC2000000000000000000000000
1002
}
1001
ACAD_DSTYLE_DIMJAG_POSITION
1070
   387
1070
     0
1070
   389
1010
0.0
1020
0.0
1030
0.0
1001
ACAD
1000
DSTYLE
1002
{
1070
   177
1070
   256
1070
   176
1070
   256
1070
   144
1040
25.4
1002
}
  0
CIRCLE
  5
378
330
70
100
AcDbEntity
  8
Visible
100
AcDbCircle
 10
-6.117655
 20
4.367846
 30
-0.019685
 40
0.0196850393700788
210
0.0
220
0.0
230
-1.0
  0
LINE
  5
379
330
70
100
AcDbEntity
  8
Visible
100
AcDbLine
 10
6.863337
 20
4.432675
 30
0.019685
 11
6.863337
 21
4.324951
 31
0.019685
210
-0.0000000000000001
220
-1.0
230
0.0
  0
LINE
  5
37A
330
70
100
AcDbEntity
  8
Visible
100
AcDbLine
 10
6.050021
 20
4.432675
 30
0.019685
 11
6.863337
 21
4.432675
 31
0.019685
210
-0.0000000000000001
220
-1.0
230
0.0
  0
LINE
  5
37B
330
70
100
AcDbEntity
  8
Visible
100
AcDbLine
 10
6.050021
 20
4.324951
 30
0.019685
 11
6.050021
 21
4.432675
 31
0.019685
210
-0.0000000000000001
220
-1.0
230
0.0
  0
LINE
  5
37C
330
70
100
AcDbEntity
  8
Visible
100
AcDbLine
 10
6.863337
 20
4.324951
 30
0.019685
 11
6.050021
 21
4.324951
 31
0.019685
210
-0.0000000000000001
220
-1.0
230
0.0
  0
CIRCLE
  5
37D
330
70
100
AcDbEntity
  8
Visible
100
AcDbCircle
 10
-3.947917
 20
6.267846
 30
-0.019685
 40
0.0196850393700788
210
0.0
220
0.0
230
-1.0
  0
LINE
  5
37E
330
70
100
AcDbEntity
  8
Visible
100
AcDbLine
 10
4.921279
 20
6.323051
 30
0.019685
 11
4.921279
 21
6.216551
 31
0.019685
210
-0.0000000000000001
220
-1.0
230
0.0
  0
LINE
  5
37F
330
70
100
AcDbEntity
  8
Visible
100
AcDbLine
 10
3.91059
 20
6.323051
 30
0.019685
 11
4.921279
 21
6.323051
 31
0.019685
210
-0.0000000000000001
220
-1.0
230
0.0
  0
LINE
  5
380
330
70
100
AcDbEntity
  8
Visible
100
AcDbLine
 10
3.91059
 20
6.216551
 30
0.019685
 11
3.91059
 21
6.323051
 31
0.019685
210
-0.0000000000000001
220
-1.0
230
0.0
  0
LINE
  5
381
330
70
100
AcDbEntity
  8
Visible
100
AcDbLine
 10
4.921279
 20
6.216551
 30
0.019685
 11
3.91059
 21
6.216551
 31
0.019685
210
-0.0000000000000001
220
-1.0
230
0.0
  0
CIRCLE
  5
382
330
70
100
AcDbEntity
  8
Visible
100
AcDbCircle
 10
-7.017655
 20
4.567846
 30
-0.019685
 40
0.0196850393700788
210
0.0
220
0.0
230
-1.0
  0
CIRCLE
  5
383
330
70
100
AcDbEntity
  8
Visible
100
AcDbCircle
 10
-6.907917
 20
6.267846
 30
-0.019685
 40
0.0196850393700788
210
0.0
220
0.0
230
-1.0
  0
LINE
  5
384
330
70
100
AcDbEntity
  8
Visible
100
AcDbLine
 10
7.057169
 20
6.31886
 30
0.019685
 11
7.057169
 21
4.509373
 31
0.019685
210
-0.0000000000000001
220
-1.0
230
0.0
  0
LINE
  5
385
330
70
100
AcDbEntity
  8
Visible
100
AcDbLine
 10
6.850539
 20
6.31886
 30
0.019685
 11
7.057169
 21
6.31886
 31
0.019685
210
-0.0000000000000001
220
-1.0
230
0.0
  0
LINE
  5
386
330
70
100
AcDbEntity
  8
Visible
100
AcDbLine
 10
6.850539
 20
4.509373
 30
0.019685
 11
6.850539
 21
6.31886
 31
0.019685
210
-0.0000000000000001
220
-1.0
230
0.0
  0
LINE
  5
387
330
70
100
AcDbEntity
  8
Visible
100
AcDbLine
 10
7.057169
 20
4.509373
 30
0.019685
 11
6.850539
 21
4.509373
 31
0.019685
210
-0.0000000000000001
220
-1.0
230
0.0
  0
CIRCLE
  5
388
330
70
100
AcDbEntity
  8
Visible
100
AcDbCircle
 10
-5.217655
 20
4.367846
 30
-0.019685
 40
0.0196850393700788
210
0.0
220
0.0
230
-1.0
  0
LINE
  5
389
330
70
100
AcDbEntity
  8
Visible
100
AcDbLine
 10
5.966685
 20
4.432675
 30
0.019685
 11
5.966685
 21
4.324951
 31
0.019685
210
-0.0000000000000001
220
-1.0
230
0.0
  0
LINE
  5
38A
330
70
100
AcDbEntity
  8
Visible
100
AcDbLine
 10
5.160297
 20
4.432675
 30
0.019685
 11
5.966685
 21
4.432675
 31
0.019685
210
-0.0000000000000001
220
-1.0
230
0.0
  0
LINE
  5
38B
330
70
100
AcDbEntity
  8
Visible
100
AcDbLine
 10
5.160297
 20
4.324951
 30
0.019685
 11
5.160297
 21
4.432675
 31
0.019685
210
-0.0000000000000001
220
-1.0
230
0.0
  0
LINE
  5
38C
330
70
100
AcDbEntity
  8
Visible
100
AcDbLine
 10
5.966685
 20
4.324951
 30
0.019685
 11
5.160297
 21
4.324951
 31
0.019685
210
-0.0000000000000001
220
-1.0
230
0.0
  0
CIRCLE
  5
38D
330
70
100
AcDbEntity
  8
Visible
100
AcDbCircle
 10
-5.007917
 20
6.267846
 30
-0.019685
 40
0.0196850393700788
210
0.0
220
0.0
230
-1.0
  0
LINE
  5
38E
330
70
100
AcDbEntity
  8
Visible
100
AcDbLine
 10
5.769253
 20
6.323051
 30
0.019685
 11
5.769253
 21
6.216551
 31
0.019685
210
-0.0000000000000001
220
-1.0
230
0.0
  0
LINE
  5
38F
330
70
100
AcDbEntity
  8
Visible
100
AcDbLine
 10
4.961793
 20
6.323051
 30
0.019685
 11
5.769253
 21
6.323051
 31
0.019685
210
-0.0000000000000001
220
-1.0
230
0.0
  0
LINE
  5
390
330
70
100
AcDbEntity
  8
Visible
100
AcDbLine
 10
4.961793
 20
6.216551
 30
0.019685
 11
4.961793
 21
6.323051
 31
0.019685
210
-0.0000000000000001
220
-1.0
230
0.0
  0
LINE
  5
391
330
70
100
AcDbEntity
  8
Visible
100
AcDbLine
 10
5.769253
 20
6.216551
 30
0.019685
 11
4.961793
 21
6.216551
 31
0.019685
210
-0.0000000000000001
220
-1.0
230
0.0
  0
CIRCLE
  5
392
330
70
100
AcDbEntity
  8
Visible
100
AcDbCircle
 10
-5.907917
 20
6.267846
 30
-0.019685
 40
0.0196850393700788
210
0.0
220
0.0
230
-1.0
  0
LINE
  5
393
330
70
100
AcDbEntity
  8
Visible
100
AcDbLine
 10
6.660838
 20
6.323051
 30
0.019685
 11
6.660838
 21
6.216551
 31
0.019685
210
-0.0000000000000001
220
-1.0
230
0.0
  0
LINE
  5
394
330
70
100
AcDbEntity
  8
Visible
100
AcDbLine
 10
5.854391
 20
6.323051
 30
0.019685
 11
6.660838
 21
6.323051
 31
0.019685
210
-0.0000000000000001
220
-1.0
230
0.0
  0
LINE
  5
395
330
70
100
AcDbEntity
  8
Visible
100
AcDbLine
 10
5.854391
 20
6.216551
 30
0.019685
 11
5.854391
 21
6.323051
 31
0.019685
210
-0.0000000000000001
220
-1.0
230
0.0
  0
LINE
  5
396
330
70
100
AcDbEntity
  8
Visible
100
AcDbLine
 10
6.660838
 20
6.216551
 30
0.019685
 11
5.854391
 21
6.216551
 31
0.019685
210
-0.0000000000000001
220
-1.0
230
0.0
  0
CIRCLE
  5
397
330
70
100
AcDbEntity
  8
Visible
100
AcDbCircle
 10
-4.317655
 20
4.367846
 30
-0.019685
 40
0.0196850393700788
210
0.0
220
0.0
230
-1.0
  0
LINE
  5
398
330
70
100
AcDbEntity
  8
Visible
100
AcDbLine
 10
5.074511
 20
4.432675
 30
0.019685
 11
5.074511
 21
4.324951
 31
0.019685
210
-0.0000000000000001
220
-1.0
230
0.0
  0
LINE
  5
399
330
70
100
AcDbEntity
  8
Visible
100
AcDbLine
 10
4.258764
 20
4.432675
 30
0.019685
 11
5.074511
 21
4.432675
 31
0.019685
210
-0.0000000000000001
220
-1.0
230
0.0
  0
LINE
  5
39A
330
70
100
AcDbEntity
  8
Visible
100
AcDbLine
 10
4.258764
 20
4.324951
 30
0.019685
 11
4.258764
 21
4.432675
 31
0.019685
210
-0.0000000000000001
220
-1.0
230
0.0
  0
LINE
  5
39B
330
70
100
AcDbEntity
  8
Visible
100
AcDbLine
 10
5.074511
 20
4.324951
 30
0.019685
 11
4.258764
 21
4.324951
 31
0.019685
210
-0.0000000000000001
220
-1.0
230
0.0
  0
ENDSEC
  0
SECTION
  2
OBJECTS
  0
DICTIONARY
  5
C
330
0
100
AcDbDictionary
281
     1
  3
ACAD_COLOR
350
63
  3
ACAD_DETAILVIEWSTYLE
350
6A
  3
ACAD_GROUP
350
D
  3
ACAD_LAYOUT
350
62
  3
ACAD_MATERIAL
350
10
  3
ACAD_MLEADERSTYLE
350
66
  3
ACAD_MLINESTYLE
350
5F
  3
ACAD_PLOTSETTINGS
350
61
  3
ACAD_PLOTSTYLENAME
350
E
  3
ACAD_SCALELIST
350
42
  3
ACAD_SECTIONVIEWSTYLE
350
68
  3
ACAD_TABLESTYLE
350
64
  3
ACAD_VISUALSTYLE
350
29
  3
ACDB_RECOMPOSE_DATA
350
3F6
  3
AcDbVariableDictionary
350
3ED
  0
DICTIONARY
  5
B4
330
70
100
AcDbDictionary
280
     1
281
     1
  3
ACAD_SORTENTS
360
B5
  0
DICTIONARY
  5
E3
330
E2
100
AcDbDictionary
280
     1
281
     1
  0
DICTIONARY
  5
105
330
104
100
AcDbDictionary
280
     1
281
     1
  3
ACAD_SORTENTS
360
377
  0
DICTIONARY
  5
123
330
122
100
AcDbDictionary
280
     1
281
     1
  0
DICTIONARY
  5
125
330
124
100
AcDbDictionary
280
     1
281
     1
  0
DICTIONARY
  5
127
330
126
100
AcDbDictionary
280
     1
281
     1
  0
DICTIONARY
  5
129
330
128
100
AcDbDictionary
280
     1
281
     1
  0
DICTIONARY
  5
12B
330
12A
100
AcDbDictionary
280
     1
281
     1
  0
DICTIONARY
  5
12D
330
12C
100
AcDbDictionary
280
     1
281
     1
  0
DICTIONARY
  5
12F
330
12E
100
AcDbDictionary
280
     1
281
     1
  0
DICTIONARY
  5
131
330
130
100
AcDbDictionary
280
     1
281
     1
  0
DICTIONARY
  5
133
330
132
100
AcDbDictionary
280
     1
281
     1
  0
DICTIONARY
  5
135
330
134
100
AcDbDictionary
280
     1
281
     1
  0
DICTIONARY
  5
137
330
136
100
AcDbDictionary
280
     1
281
     1
  0
DICTIONARY
  5
139
330
138
100
AcDbDictionary
280
     1
281
     1
  0
DICTIONARY
  5
13B
330
13A
100
AcDbDictionary
280
     1
281
     1
  0
DICTIONARY
  5
13D
330
13C
100
AcDbDictionary
280
     1
281
     1
  0
DICTIONARY
  5
13F
330
13E
100
AcDbDictionary
280
     1
281
     1
  0
DICTIONARY
  5
141
330
140
100
AcDbDictionary
280
     1
281
     1
  0
DICTIONARY
  5
143
330
142
100
AcDbDictionary
280
     1
281
     1
  0
DICTIONARY
  5
63
102
{ACAD_REACTORS
330
C
102
}
330
C
100
AcDbDictionary
281
     1
  0
DICTIONARY
  5
6A
102
{ACAD_REACTORS
330
C
102
}
330
C
100
AcDbDictionary
281
     1
  3
Imperial24
350
6B
  0
DICTIONARY
  5
D
102
{ACAD_REACTORS
330
C
102
}
330
C
100
AcDbDictionary
281
     1
  0
DICTIONARY
  5
62
102
{ACAD_REACTORS
330
C
102
}
330
C
100
AcDbDictionary
281
     1
  3
Model
350
73
  3
Sheet1
350
6F
  3
Sheet2
350
77
  0
DICTIONARY
  5
10
102
{ACAD_REACTORS
330
C
102
}
330
C
100
AcDbDictionary
281
     1
  3
ByBlock
350
19
  3
ByLayer
350
11
  3
Global
350
21
  0
DICTIONARY
  5
66
102
{ACAD_REACTORS
330
C
102
}
330
C
100
AcDbDictionary
281
     1
  3
Standard
350
67
  0
DICTIONARY
  5
5F
102
{ACAD_REACTORS
330
C
102
}
330
C
100
AcDbDictionary
281
     1
  3
Standard
350
60
  0
DICTIONARY
  5
61
102
{ACAD_REACTORS
330
C
102
}
330
C
100
AcDbDictionary
281
     1
  0
ACDBDICTIONARYWDFLT
  5
E
102
{ACAD_REACTORS
330
C
102
}
330
C
100
AcDbDictionary
281
     1
  3
Normal
350
F
100
AcDbDictionaryWithDefault
340
F
  0
DICTIONARY
  5
42
102
{ACAD_REACTORS
330
C
102
}
330
C
100
AcDbDictionary
281
     1
  3
*A1
350
A4
  3
*A10
350
AD
  3
*A11
350
AE
  3
*A12
350
AF
  3
*A13
350
B0
  3
*A14
350
B1
  3
*A15
350
B2
  3
*A16
350
B3
  3
*A2
350
A5
  3
*A3
350
A6
  3
*A4
350
A7
  3
*A5
350
A8
  3
*A6
350
A9
  3
*A7
350
AA
  3
*A8
350
AB
  3
*A9
350
AC
  3
A0
350
43
  3
A1
350
44
  3
A2
350
45
  3
A3
350
46
  3
A4
350
47
  3
A5
350
48
  3
A6
350
49
  3
A7
350
4A
  3
A8
350
4B
  3
A9
350
4C
  3
B0
350
4D
  3
B1
350
4E
  3
B2
350
4F
  3
B3
350
50
  3
B4
350
51
  3
B5
350
52
  3
B6
350
53
  0
DICTIONARY
  5
68
102
{ACAD_REACTORS
330
C
102
}
330
C
100
AcDbDictionary
281
     1
  3
Imperial24
350
69
  0
DICTIONARY
  5
64
102
{ACAD_REACTORS
330
C
102
}
330
C
100
AcDbDictionary
281
     1
  3
Standard
350
65
  0
DICTIONARY
  5
29
102
{ACAD_REACTORS
330
C
102
}
330
C
100
AcDbDictionary
281
     1
  3
2dWireframe
350
2F
  3
Basic
350
2E
  3
Brighten
350
35
  3
ColorChange
350
39
  3
Conceptual
350
32
  3
Dim
350
34
  3
EdgeColorOff
350
41
  3
Facepattern
350
38
  3
Flat
350
2A
  3
FlatWithEdges
350
2B
  3
Gouraud
350
2C
  3
GouraudWithEdges
350
2D
  3
Hidden
350
31
  3
JitterOff
350
3F
  3
Linepattern
350
37
  3
OverhangOff
350
40
  3
Realistic
350
33
  3
Shaded
350
3E
  3
Shaded with edges
350
3D
  3
Shades of Gray
350
3A
  3
Sketchy
350
3B
  3
Thicken
350
36
  3
Wireframe
350
30
  3
X-Ray
350
3C
  0
XRECORD
  5
3F6
102
{ACAD_REACTORS
330
C
102
}
330
C
100
AcDbXrecord
280
     1
 90
        1
330
65
  0
DICTIONARY
  5
3ED
102
{ACAD_REACTORS
330
C
102
}
330
C
100
AcDbDictionary
281
     1
  3
ANNOALLVISIBLE
350
3F2
  3
CANNOSCALE
350
3F3
  3
CMLEADERSTYLE
350
3EF
  3
CTABLESTYLE
350
3EE
  3
CVIEWDETAILSTYLE
350
3F0
  3
CVIEWSECTIONSTYLE
350
3F1
  0
SORTENTSTABLE
  5
B5
102
{ACAD_REACTORS
330
B4
102
}
330
B4
100
AcDbSortentsTable
330
70
  0
SORTENTSTABLE
  5
377
102
{ACAD_REACTORS
330
105
102
}
330
105
100
AcDbSortentsTable
330
104
  0
ACDBDETAILVIEWSTYLE
  5
6B
102
{ACAD_XDICTIONARY
360
3F9
102
}
102
{ACAD_REACTORS
330
6A
102
}
330
6A
100
AcDbModelDocViewStyle
 70
     0
  3
Imperial24
290
     0
100
AcDbDetailViewStyle
 70
     0
 71
     0
 90
        3
 71
     1
340
55
 62
   256
 40
0.24
340
0
 62
   256
 40
0.24
300

 40
0.36
280
     3
 71
     2
340
5D
 90
       25
 62
   256
 71
     3
340
55
 62
   256
 40
0.24
 90
        1
 40
0.75
 90
        1
300
%<\AcVar ViewType \f "%tc1">% %<\AcVar ViewDetailId>%\PSCALE %<\AcVar ViewScale \f "%sn">%
 71
     4
340
5D
 90
       25
 62
   256
340
5D
 90
       25
 62
   256
280
     0
  0
LAYOUT
  5
73
102
{ACAD_REACTORS
330
62
102
}
330
62
100
AcDbPlotSettings
  1

  2
AutoCAD PDF (High Quality Print).pc3
  4
ANSI_full_bleed_A_(11.00_x_8.50_Inches)
  6

 40
0.0
 41
0.0
 42
0.0
 43
0.0
 44
279.399994
 45
215.899994
 46
0.0
 47
0.0
 48
0.0
 49
0.0
140
0.0
141
0.0
142
1.0
143
1.655262
 70
 11952
 72
     0
 73
     0
 74
     0
  7

 75
     0
147
0.604134
 76
     0
 77
     2
 78
   300
148
100.836423
149
-17.2324
100
AcDbLayout
  1
Model
 70
     1
 71
     0
 10
0.0
 20
0.0
 11
12.0
 21
9.0
 12
0.0
 22
0.0
 32
0.0
 14
0.0
 24
0.0
 34
0.0
 15
0.0
 25
0.0
 35
0.0
146
0.0
 13
0.0
 23
0.0
 33
0.0
 16
1.0
 26
0.0
 36
0.0
 17
0.0
 27
1.0
 37
0.0
 76
     0
330
70
1001
ACAD_PSEXT
1000
AutoCAD PDF (High Quality Print).pc3
1000
DWG To PDF
1000
File
1000

1070
     0
  0
LAYOUT
  5
6F
102
{ACAD_REACTORS
330
62
102
}
330
62
100
AcDbPlotSettings
  1

  2
None
  4

  6

 40
0.0
 41
0.0
 42
0.0
 43
0.0
 44
0.0
 45
0.0
 46
0.0
 47
0.0
 48
0.0
 49
0.0
140
0.0
141
0.0
142
1.0
143
1.0
 70
   688
 72
     0
 73
     0
 74
     5
  7

 75
    16
147
1.0
 76
     0
 77
     2
 78
   300
148
0.0
149
0.0
100
AcDbLayout
  1
Sheet1
 70
     1
 71
     1
 10
0.0
 20
0.0
 11
12.0
 21
9.0
 12
0.0
 22
0.0
 32
0.0
 14
0.0
 24
0.0
 34
0.0
 15
0.0
 25
0.0
 35
0.0
146
0.0
 13
0.0
 23
0.0
 33
0.0
 16
1.0
 26
0.0
 36
0.0
 17
0.0
 27
1.0
 37
0.0
 76
     0
330
6C
  0
LAYOUT
  5
77
102
{ACAD_REACTORS
330
62
102
}
330
62
100
AcDbPlotSettings
  1

  2
None
  4

  6

 40
0.0
 41
0.0
 42
0.0
 43
0.0
 44
0.0
 45
0.0
 46
0.0
 47
0.0
 48
0.0
 49
0.0
140
0.0
141
0.0
142
1.0
143
1.0
 70
   688
 72
     0
 73
     0
 74
     5
  7

 75
    16
147
1.0
 76
     0
 77
     2
 78
   300
148
0.0
149
0.0
100
AcDbLayout
  1
Sheet2
 70
     1
 71
     2
 10
0.0
 20
0.0
 11
12.0
 21
9.0
 12
0.0
 22
0.0
 32
0.0
 14
0.0
 24
0.0
 34
0.0
 15
0.0
 25
0.0
 35
0.0
146
0.0
 13
0.0
 23
0.0
 33
0.0
 16
1.0
 26
0.0
 36
0.0
 17
0.0
 27
1.0
 37
0.0
 76
     0
330
74
  0
MATERIAL
  5
19
102
{ACAD_XDICTIONARY
360
1A
102
}
102
{ACAD_REACTORS
330
10
102
}
330
10
100
AcDbMaterial
  1
ByBlock
 72
     0
 43
0.020833
 43
0.0
 43
0.0
 43
0.0
 43
0.0
 43
0.020833
 43
0.0
 43
0.0
 43
0.0
 43
0.0
 43
1.0
 43
0.0
 43
0.0
 43
0.0
 43
0.0
 43
1.0
 77
     0
 47
0.020833
 47
0.0
 47
0.0
 47
0.0
 47
0.0
 47
0.020833
 47
0.0
 47
0.0
 47
0.0
 47
0.0
 47
1.0
 47
0.0
 47
0.0
 47
0.0
 47
0.0
 47
1.0
171
     0
 49
0.020833
 49
0.0
 49
0.0
 49
0.0
 49
0.0
 49
0.020833
 49
0.0
 49
0.0
 49
0.0
 49
0.0
 49
1.0
 49
0.0
 49
0.0
 49
0.0
 49
0.0
 49
1.0
175
     0
142
0.020833
142
0.0
142
0.0
142
0.0
142
0.0
142
0.020833
142
0.0
142
0.0
142
0.0
142
0.0
142
1.0
142
0.0
142
0.0
142
0.0
142
0.0
142
1.0
179
     0
144
0.020833
144
0.0
144
0.0
144
0.0
144
0.0
144
0.020833
144
0.0
144
0.0
144
0.0
144
0.0
144
1.0
144
0.0
144
0.0
144
0.0
144
0.0
144
1.0
147
0.020833
147
0.0
147
0.0
147
0.0
147
0.0
147
0.020833
147
0.0
147
0.0
147
0.0
147
0.0
147
1.0
147
0.0
147
0.0
147
0.0
147
0.0
147
1.0
  0
MATERIAL
  5
11
102
{ACAD_XDICTIONARY
360
12
102
}
102
{ACAD_REACTORS
330
10
102
}
330
10
100
AcDbMaterial
  1
ByLayer
 72
     0
 43
0.020833
 43
0.0
 43
0.0
 43
0.0
 43
0.0
 43
0.020833
 43
0.0
 43
0.0
 43
0.0
 43
0.0
 43
1.0
 43
0.0
 43
0.0
 43
0.0
 43
0.0
 43
1.0
 77
     0
 47
0.020833
 47
0.0
 47
0.0
 47
0.0
 47
0.0
 47
0.020833
 47
0.0
 47
0.0
 47
0.0
 47
0.0
 47
1.0
 47
0.0
 47
0.0
 47
0.0
 47
0.0
 47
1.0
171
     0
 49
0.020833
 49
0.0
 49
0.0
 49
0.0
 49
0.0
 49
0.020833
 49
0.0
 49
0.0
 49
0.0
 49
0.0
 49
1.0
 49
0.0
 49
0.0
 49
0.0
 49
0.0
 49
1.0
175
     0
142
0.020833
142
0.0
142
0.0
142
0.0
142
0.0
142
0.020833
142
0.0
142
0.0
142
0.0
142
0.0
142
1.0
142
0.0
142
0.0
142
0.0
142
0.0
142
1.0
179
     0
144
0.020833
144
0.0
144
0.0
144
0.0
144
0.0
144
0.020833
144
0.0
144
0.0
144
0.0
144
0.0
144
1.0
144
0.0
144
0.0
144
0.0
144
0.0
144
1.0
147
0.020833
147
0.0
147
0.0
147
0.0
147
0.0
147
0.020833
147
0.0
147
0.0
147
0.0
147
0.0
147
1.0
147
0.0
147
0.0
147
0.0
147
0.0
147
1.0
  0
MATERIAL
  5
21
102
{ACAD_XDICTIONARY
360
22
102
}
102
{ACAD_REACTORS
330
10
102
}
330
10
100
AcDbMaterial
  1
Global
 72
     0
 43
0.020833
 43
0.0
 43
0.0
 43
0.0
 43
0.0
 43
0.020833
 43
0.0
 43
0.0
 43
0.0
 43
0.0
 43
1.0
 43
0.0
 43
0.0
 43
0.0
 43
0.0
 43
1.0
 77
     0
 47
0.020833
 47
0.0
 47
0.0
 47
0.0
 47
0.0
 47
0.020833
 47
0.0
 47
0.0
 47
0.0
 47
0.0
 47
1.0
 47
0.0
 47
0.0
 47
0.0
 47
0.0
 47
1.0
171
     0
 49
0.020833
 49
0.0
 49
0.0
 49
0.0
 49
0.0
 49
0.020833
 49
0.0
 49
0.0
 49
0.0
 49
0.0
 49
1.0
 49
0.0
 49
0.0
 49
0.0
 49
0.0
 49
1.0
175
     0
142
0.020833
142
0.0
142
0.0
142
0.0
142
0.0
142
0.020833
142
0.0
142
0.0
142
0.0
142
0.0
142
1.0
142
0.0
142
0.0
142
0.0
142
0.0
142
1.0
179
     0
144
0.020833
144
0.0
144
0.0
144
0.0
144
0.0
144
0.020833
144
0.0
144
0.0
144
0.0
144
0.0
144
1.0
144
0.0
144
0.0
144
0.0
144
0.0
144
1.0
147
0.020833
147
0.0
147
0.0
147
0.0
147
0.0
147
0.020833
147
0.0
147
0.0
147
0.0
147
0.0
147
1.0
147
0.0
147
0.0
147
0.0
147
0.0
147
1.0
  0
MLEADERSTYLE
  5
67
102
{ACAD_REACTORS
330
66
102
}
330
66
100
AcDbMLeaderStyle
179
     2
170
     2
171
     1
172
     0
 90
        2
 40
0.0
 41
0.0
173
     1
 91
-1056964608
340
5B
 92
       -2
290
     1
 42
0.09
291
     1
 43
0.36
  3
Standard
 44
0.18
300

342
55
174
     1
178
     6
175
     1
176
     0
 93
-1056964608
 45
0.18
292
     0
297
     0
 46
0.18
 94
-1056964608
 47
1.0
 49
1.0
140
1.0
293
     1
141
0.0
294
     1
177
     0
142
1.0
295
     0
296
     0
143
0.125
271
     0
272
     9
273
     9
298
     1
  0
MLINESTYLE
  5
60
102
{ACAD_REACTORS
330
5F
102
}
330
5F
100
AcDbMlineStyle
  2
STANDARD
 70
     0
  3

 62
   256
 51
90.0
 52
90.0
 71
     0
  0
ACDBPLACEHOLDER
  5
F
102
{ACAD_REACTORS
330
E
102
}
330
E
  0
SCALE
  5
A4
102
{ACAD_REACTORS
330
42
102
}
330
42
100
AcDbScale
 70
     0
300
1:2
140
1.0
141
2.0
290
     0
  0
SCALE
  5
AD
102
{ACAD_REACTORS
330
42
102
}
330
42
100
AcDbScale
 70
     0
300
1:50
140
1.0
141
50.0
290
     0
  0
SCALE
  5
AE
102
{ACAD_REACTORS
330
42
102
}
330
42
100
AcDbScale
 70
     0
300
1:100
140
1.0
141
100.0
290
     0
  0
SCALE
  5
AF
102
{ACAD_REACTORS
330
42
102
}
330
42
100
AcDbScale
 70
     0
300
2:1
140
2.0
141
1.0
290
     0
  0
SCALE
  5
B0
102
{ACAD_REACTORS
330
42
102
}
330
42
100
AcDbScale
 70
     0
300
4:1
140
4.0
141
1.0
290
     0
  0
SCALE
  5
B1
102
{ACAD_REACTORS
330
42
102
}
330
42
100
AcDbScale
 70
     0
300
8:1
140
8.0
141
1.0
290
     0
  0
SCALE
  5
B2
102
{ACAD_REACTORS
330
42
102
}
330
42
100
AcDbScale
 70
     0
300
10:1
140
10.0
141
1.0
290
     0
  0
SCALE
  5
B3
102
{ACAD_REACTORS
330
42
102
}
330
42
100
AcDbScale
 70
     0
300
100:1
140
100.0
141
1.0
290
     0
  0
SCALE
  5
A5
102
{ACAD_REACTORS
330
42
102
}
330
42
100
AcDbScale
 70
     0
300
1:4
140
1.0
141
4.0
290
     0
  0
SCALE
  5
A6
102
{ACAD_REACTORS
330
42
102
}
330
42
100
AcDbScale
 70
     0
300
1:5
140
1.0
141
5.0
290
     0
  0
SCALE
  5
A7
102
{ACAD_REACTORS
330
42
102
}
330
42
100
AcDbScale
 70
     0
300
1:8
140
1.0
141
8.0
290
     0
  0
SCALE
  5
A8
102
{ACAD_REACTORS
330
42
102
}
330
42
100
AcDbScale
 70
     0
300
1:10
140
1.0
141
10.0
290
     0
  0
SCALE
  5
A9
102
{ACAD_REACTORS
330
42
102
}
330
42
100
AcDbScale
 70
     0
300
1:16
140
1.0
141
16.0
290
     0
  0
SCALE
  5
AA
102
{ACAD_REACTORS
330
42
102
}
330
42
100
AcDbScale
 70
     0
300
1:20
140
1.0
141
20.0
290
     0
  0
SCALE
  5
AB
102
{ACAD_REACTORS
330
42
102
}
330
42
100
AcDbScale
 70
     0
300
1:30
140
1.0
141
30.0
290
     0
  0
SCALE
  5
AC
102
{ACAD_REACTORS
330
42
102
}
330
42
100
AcDbScale
 70
     0
300
1:40
140
1.0
141
40.0
290
     0
  0
SCALE
  5
43
102
{ACAD_REACTORS
330
42
102
}
330
42
100
AcDbScale
 70
     0
300
1:1
140
1.0
141
1.0
290
     1
  0
SCALE
  5
44
102
{ACAD_REACTORS
330
42
102
}
330
42
100
AcDbScale
 70
     0
300
1/128" = 1'-0"
140
0.007813
141
12.0
290
     0
  0
SCALE
  5
45
102
{ACAD_REACTORS
330
42
102
}
330
42
100
AcDbScale
 70
     0
300
1/64" = 1'-0"
140
0.015625
141
12.0
290
     0
  0
SCALE
  5
46
102
{ACAD_REACTORS
330
42
102
}
330
42
100
AcDbScale
 70
     0
300
1/32" = 1'-0"
140
0.03125
141
12.0
290
     0
  0
SCALE
  5
47
102
{ACAD_REACTORS
330
42
102
}
330
42
100
AcDbScale
 70
     0
300
1/16" = 1'-0"
140
0.0625
141
12.0
290
     0
  0
SCALE
  5
48
102
{ACAD_REACTORS
330
42
102
}
330
42
100
AcDbScale
 70
     0
300
3/32" = 1'-0"
140
0.09375
141
12.0
290
     0
  0
SCALE
  5
49
102
{ACAD_REACTORS
330
42
102
}
330
42
100
AcDbScale
 70
     0
300
1/8" = 1'-0"
140
0.125
141
12.0
290
     0
  0
SCALE
  5
4A
102
{ACAD_REACTORS
330
42
102
}
330
42
100
AcDbScale
 70
     0
300
3/16" = 1'-0"
140
0.1875
141
12.0
290
     0
  0
SCALE
  5
4B
102
{ACAD_REACTORS
330
42
102
}
330
42
100
AcDbScale
 70
     0
300
1/4" = 1'-0"
140
0.25
141
12.0
290
     0
  0
SCALE
  5
4C
102
{ACAD_REACTORS
330
42
102
}
330
42
100
AcDbScale
 70
     0
300
3/8" = 1'-0"
140
0.375
141
12.0
290
     0
  0
SCALE
  5
4D
102
{ACAD_REACTORS
330
42
102
}
330
42
100
AcDbScale
 70
     0
300
1/2" = 1'-0"
140
0.5
141
12.0
290
     0
  0
SCALE
  5
4E
102
{ACAD_REACTORS
330
42
102
}
330
42
100
AcDbScale
 70
     0
300
3/4" = 1'-0"
140
0.75
141
12.0
290
     0
  0
SCALE
  5
4F
102
{ACAD_REACTORS
330
42
102
}
330
42
100
AcDbScale
 70
     0
300
1" = 1'-0"
140
1.0
141
12.0
290
     0
  0
SCALE
  5
50
102
{ACAD_REACTORS
330
42
102
}
330
42
100
AcDbScale
 70
     0
300
1-1/2" = 1'-0"
140
1.5
141
12.0
290
     0
  0
SCALE
  5
51
102
{ACAD_REACTORS
330
42
102
}
330
42
100
AcDbScale
 70
     0
300
3" = 1'-0"
140
3.0
141
12.0
290
     0
  0
SCALE
  5
52
102
{ACAD_REACTORS
330
42
102
}
330
42
100
AcDbScale
 70
     0
300
6" = 1'-0"
140
6.0
141
12.0
290
     0
  0
SCALE
  5
53
102
{ACAD_REACTORS
330
42
102
}
330
42
100
AcDbScale
 70
     0
300
1'-0" = 1'-0"
140
12.0
141
12.0
290
     0
  0
ACDBSECTIONVIEWSTYLE
  5
69
102
{ACAD_XDICTIONARY
360
3F7
102
}
102
{ACAD_REACTORS
330
68
102
}
330
68
100
AcDbModelDocViewStyle
 70
     0
  3
Imperial24
290
     0
100
AcDbSectionViewStyle
 70
     0
 71
     0
 90
       78
 71
     1
340
55
 62
   256
 40
0.24
340
0
340
0
 62
   256
 40
0.24
300
I, O, Q, S, X, Z
 40
0.48
 90
        3
 40
0.18
 90
        1
 71
     2
340
5D
 90
       25
 62
   256
340
5D
 90
       50
 62
   256
 40
0.24
 40
0.0
 40
0.24
 71
     3
340
55
 62
   256
 40
0.24
 90
        1
 40
0.75
 90
        1
300
%<\AcVar ViewType \f "%tc1">% %<\AcVar ViewSectionStartId>%-%<\AcVar ViewSectionEndId>%\PSCALE %<\AcVar ViewScale \f "%sn">%
 71
     4
 62
   256
 62
   257
300
ANSI31
 40
1.0
 90
        0
290
     0
290
     0
 90
        6
 40
0.0
 40
1.570796
 40
0.261799
 40
1.308997
 40
-0.261799
 40
1.832596
  0
TABLESTYLE
  5
65
102
{ACAD_XDICTIONARY
360
3F4
102
}
102
{ACAD_REACTORS
330
64
102
}
330
64
100
AcDbTableStyle
280
     0
  3
Standard
 70
     0
 71
     0
 40
0.06
 41
0.06
280
     0
281
     0
  7
Standard
140
0.18
170
     2
 62
     0
 63
     7
283
     0
 90
      512
 91
        0
  1

274
    -2
284
     1
 64
     0
275
    -2
285
     1
 65
     0
276
    -2
286
     1
 66
     0
277
    -2
287
     1
 67
     0
278
    -2
288
     1
 68
     0
279
    -2
289
     1
 69
     0
  7
Standard
140
0.25
170
     5
 62
     0
 63
     7
283
     0
 90
      512
 91
        0
  1

274
    -2
284
     1
 64
     0
275
    -2
285
     1
 65
     0
276
    -2
286
     1
 66
     0
277
    -2
287
     1
 67
     0
278
    -2
288
     1
 68
     0
279
    -2
289
     1
 69
     0
  7
Standard
140
0.18
170
     5
 62
     0
 63
     7
283
     0
 90
      512
 91
        0
  1

274
    -2
284
     1
 64
     0
275
    -2
285
     1
 65
     0
276
    -2
286
     1
 66
     0
277
    -2
287
     1
 67
     0
278
    -2
288
     1
 68
     0
279
    -2
289
     1
 69
     0
  0
VISUALSTYLE
  5
2F
102
{ACAD_REACTORS
330
29
102
}
330
29
100
AcDbVisualStyle
  2
2dWireframe
 70
     4
177
     3
291
     0
 70
    58
 90
        0
176
     1
 90
        2
176
     1
 90
        0
176
     1
 90
        0
176
     1
 40
0.6
176
     1
 40
30.0
176
     1
 62
     7
420
 16777215
176
     1
 90
        1
176
     1
 90
        4
176
     1
 62
     7
176
     1
 62
   257
176
     1
 90
        1
176
     1
 90
        1
176
     1
 40
1.0
176
     1
 90
        0
176
     1
 62
   257
176
     1
 40
1.0
176
     1
 90
        1
176
     1
 90
        6
176
     1
 90
        2
176
     1
 62
     7
176
     1
 90
        5
176
     1
 90
        0
176
     1
 90
        0
176
     1
290
     0
176
     1
 90
        1
176
     1
 40
0.0
176
     1
 90
        0
176
     1
290
     1
176
     1
290
     1
176
     1
290
     0
176
     1
290
     0
176
     1
290
     0
176
     1
290
     0
176
     1
290
     0
176
     1
290
     0
176
     1
290
     0
176
     1
 90
       50
176
     1
 40
0.0
176
     1
 40
1.0
176
     1
 90
        0
176
     1
 62
    18
420
        0
176
     1
 90
       50
176
     1
 90
        3
176
     1
 62
     5
420
      255
176
     1
290
     0
176
     1
 90
       50
176
     1
 90
       50
176
     1
 90
       50
176
     1
290
     0
176
     1
 90
       50
176
     1
 62
   256
176
     0
 40
1.0
176
     0
 90
        2
176
     1
  1
strokes_ogs.tif
176
     1
290
     0
176
     1
 40
1.0
176
     1
 40
1.0
176
     1
1001
ACAD
1000
AcDbSavedByObjectVersion
1070
     0
  0
VISUALSTYLE
  5
2E
102
{ACAD_REACTORS
330
29
102
}
330
29
100
AcDbVisualStyle
  2
Basic
 70
     7
177
     3
291
     1
 70
    58
 90
        1
176
     1
 90
        0
176
     1
 90
        1
176
     1
 90
        0
176
     1
 40
0.6
176
     1
 40
30.0
176
     1
 62
     7
420
 16777215
176
     1
 90
        0
176
     1
 90
        4
176
     1
 62
     7
176
     1
 62
   257
176
     1
 90
        1
176
     1
 90
        1
176
     1
 40
1.0
176
     1
 90
        8
176
     1
 62
     7
176
     1
 40
1.0
176
     1
 90
        1
176
     1
 90
        6
176
     1
 90
        2
176
     1
 62
     7
176
     1
 90
        5
176
     1
 90
        0
176
     1
 90
        0
176
     1
290
     0
176
     1
 90
        1
176
     1
 40
0.0
176
     1
 90
        0
176
     1
290
     0
176
     1
290
     1
176
     1
290
     1
176
     1
290
     0
176
     1
290
     0
176
     1
290
     0
176
     1
290
     0
176
     1
290
     0
176
     1
290
     0
176
     1
 90
       50
176
     1
 40
0.0
176
     1
 40
1.0
176
     1
 90
        0
176
     1
 62
    18
420
        0
176
     1
 90
       50
176
     1
 90
        3
176
     1
 62
     5
420
      255
176
     1
290
     0
176
     1
 90
       50
176
     1
 90
       50
176
     1
 90
       50
176
     1
290
     0
176
     1
 90
       50
176
     1
 62
   256
176
     0
 40
1.0
176
     0
 90
        2
176
     1
  1
strokes_ogs.tif
176
     1
290
     0
176
     1
 40
1.0
176
     1
 40
1.0
176
     1
1001
ACAD
1000
AcDbSavedByObjectVersion
1070
     0
  0
VISUALSTYLE
  5
35
102
{ACAD_REACTORS
330
29
102
}
330
29
100
AcDbVisualStyle
  2
Brighten
 70
    12
177
     3
291
     1
 70
    58
 90
        2
176
     1
 90
        2
176
     1
 90
        0
176
     1
 90
        0
176
     1
 40
0.6
176
     1
 40
30.0
176
     1
 62
     7
420
 16777215
176
     1
 90
        1
176
     1
 90
        4
176
     1
 62
     7
176
     1
 62
   257
176
     1
 90
        1
176
     1
 90
        1
176
     1
 40
1.0
176
     1
 90
        8
176
     1
 62
     7
176
     1
 40
1.0
176
     1
 90
        1
176
     1
 90
        6
176
     1
 90
        2
176
     1
 62
     7
176
     1
 90
        5
176
     1
 90
        0
176
     1
 90
        0
176
     1
290
     0
176
     1
 90
        1
176
     1
 40
50.0
176
     1
 90
        0
176
     1
290
     0
176
     1
290
     1
176
     1
290
     1
176
     1
290
     0
176
     1
290
     0
176
     1
290
     0
176
     1
290
     0
176
     1
290
     0
176
     1
290
     0
176
     1
 90
       50
176
     1
 40
0.0
176
     1
 40
1.0
176
     1
 90
        0
176
     1
 62
    18
420
        0
176
     1
 90
       50
176
     1
 90
        3
176
     1
 62
     5
420
      255
176
     1
290
     0
176
     1
 90
       50
176
     1
 90
       50
176
     1
 90
       50
176
     1
290
     0
176
     1
 90
       50
176
     1
 62
   256
176
     0
 40
1.0
176
     0
 90
        2
176
     1
  1
strokes_ogs.tif
176
     1
290
     0
176
     1
 40
1.0
176
     1
 40
1.0
176
     1
1001
ACAD
1000
AcDbSavedByObjectVersion
1070
     0
  0
VISUALSTYLE
  5
39
102
{ACAD_REACTORS
330
29
102
}
330
29
100
AcDbVisualStyle
  2
ColorChange
 70
    16
177
     3
291
     1
 70
    58
 90
        2
176
     1
 90
        2
176
     1
 90
        3
176
     1
 90
        0
176
     1
 40
0.6
176
     1
 40
30.0
176
     1
 62
     8
420
  8421504
176
     1
 90
        1
176
     1
 90
        4
176
     1
 62
     7
176
     1
 62
   257
176
     1
 90
        1
176
     1
 90
        1
176
     1
 40
1.0
176
     1
 90
        8
176
     1
 62
     8
420
  8421504
176
     1
 40
1.0
176
     1
 90
        1
176
     1
 90
        6
176
     1
 90
        2
176
     1
 62
     7
176
     1
 90
        5
176
     1
 90
        0
176
     1
 90
        0
176
     1
290
     0
176
     1
 90
        1
176
     1
 40
0.0
176
     1
 90
        0
176
     1
290
     0
176
     1
290
     1
176
     1
290
     1
176
     1
290
     0
176
     1
290
     0
176
     1
290
     0
176
     1
290
     0
176
     1
290
     0
176
     1
290
     0
176
     1
 90
       50
176
     1
 40
0.0
176
     1
 40
1.0
176
     1
 90
        0
176
     1
 62
    18
420
        0
176
     1
 90
       50
176
     1
 90
        3
176
     1
 62
     5
420
      255
176
     1
290
     0
176
     1
 90
       50
176
     1
 90
       50
176
     1
 90
       50
176
     1
290
     0
176
     1
 90
       50
176
     1
 62
   256
176
     0
 40
1.0
176
     0
 90
        2
176
     1
  1
strokes_ogs.tif
176
     1
290
     0
176
     1
 40
1.0
176
     1
 40
1.0
176
     1
1001
ACAD
1000
AcDbSavedByObjectVersion
1070
     0
  0
VISUALSTYLE
  5
32
102
{ACAD_REACTORS
330
29
102
}
330
29
100
AcDbVisualStyle
  2
Conceptual
 70
     9
177
     3
291
     0
 70
    58
 90
        3
176
     1
 90
        2
176
     1
 90
        0
176
     1
 90
        0
176
     1
 40
0.6
176
     1
 40
30.0
176
     1
 62
     7
420
 16777215
176
     1
 90
        2
176
     1
 90
        2
176
     1
 62
     7
176
     1
 62
   257
176
     1
 90
        1
176
     1
 90
        1
176
     1
 40
179.0
176
     1
 90
        8
176
     1
 62
     7
176
     1
 40
1.0
176
     1
 90
        1
176
     1
 90
        6
176
     1
 90
        2
176
     1
 62
     7
176
     1
 90
        3
176
     1
 90
        0
176
     1
 90
        0
176
     1
290
     0
176
     1
 90
        1
176
     1
 40
0.0
176
     1
 90
        0
176
     1
290
     0
176
     1
290
     1
176
     1
290
     1
176
     1
290
     0
176
     1
290
     0
176
     1
290
     0
176
     1
290
     0
176
     1
290
     0
176
     1
290
     0
176
     1
 90
       50
176
     1
 40
0.0
176
     1
 40
1.0
176
     1
 90
        0
176
     1
 62
    18
420
        0
176
     1
 90
       50
176
     1
 90
        3
176
     1
 62
     5
420
      255
176
     1
290
     0
176
     1
 90
       50
176
     1
 90
       50
176
     1
 90
       50
176
     1
290
     0
176
     1
 90
       50
176
     1
 62
   256
176
     0
 40
1.0
176
     0
 90
        2
176
     1
  1
strokes_ogs.tif
176
     1
290
     0
176
     1
 40
1.0
176
     1
 40
1.0
176
     1
1001
ACAD
1000
AcDbSavedByObjectVersion
1070
     0
  0
VISUALSTYLE
  5
34
102
{ACAD_REACTORS
330
29
102
}
330
29
100
AcDbVisualStyle
  2
Dim
 70
    11
177
     3
291
     1
 70
    58
 90
        2
176
     1
 90
        2
176
     1
 90
        0
176
     1
 90
        0
176
     1
 40
0.6
176
     1
 40
30.0
176
     1
 62
     7
420
 16777215
176
     1
 90
        1
176
     1
 90
        4
176
     1
 62
     7
176
     1
 62
   257
176
     1
 90
        1
176
     1
 90
        1
176
     1
 40
1.0
176
     1
 90
        8
176
     1
 62
     7
176
     1
 40
1.0
176
     1
 90
        1
176
     1
 90
        6
176
     1
 90
        2
176
     1
 62
     7
176
     1
 90
        5
176
     1
 90
        0
176
     1
 90
        0
176
     1
290
     0
176
     1
 90
        1
176
     1
 40
-50.0
176
     1
 90
        0
176
     1
290
     0
176
     1
290
     1
176
     1
290
     1
176
     1
290
     0
176
     1
290
     0
176
     1
290
     0
176
     1
290
     0
176
     1
290
     0
176
     1
290
     0
176
     1
 90
       50
176
     1
 40
0.0
176
     1
 40
1.0
176
     1
 90
        0
176
     1
 62
    18
420
        0
176
     1
 90
       50
176
     1
 90
        3
176
     1
 62
     5
420
      255
176
     1
290
     0
176
     1
 90
       50
176
     1
 90
       50
176
     1
 90
       50
176
     1
290
     0
176
     1
 90
       50
176
     1
 62
   256
176
     0
 40
1.0
176
     0
 90
        2
176
     1
  1
strokes_ogs.tif
176
     1
290
     0
176
     1
 40
1.0
176
     1
 40
1.0
176
     1
1001
ACAD
1000
AcDbSavedByObjectVersion
1070
     0
  0
VISUALSTYLE
  5
41
102
{ACAD_REACTORS
330
29
102
}
330
29
100
AcDbVisualStyle
  2
EdgeColorOff
 70
    22
177
     3
291
     1
 70
    58
 90
        2
176
     0
 90
        2
176
     0
 90
        0
176
     0
 90
        0
176
     0
 40
0.6
176
     0
 40
30.0
176
     0
 62
     7
420
 16777215
176
     0
 90
        1
176
     0
 90
        4
176
     0
 62
     7
176
     0
 62
   257
176
     0
 90
        1
176
     0
 90
        1
176
     0
 40
1.0
176
     0
 90
        8
176
     2
 62
     7
176
     0
 40
1.0
176
     0
 90
        1
176
     0
 90
        6
176
     0
 90
        2
176
     0
 62
     7
176
     0
 90
        5
176
     0
 90
        0
176
     0
 90
        0
176
     0
290
     0
176
     0
 90
        1
176
     0
 40
0.0
176
     0
 90
        0
176
     0
290
     0
176
     0
290
     1
176
     0
290
     1
176
     0
290
     0
176
     0
290
     0
176
     0
290
     0
176
     0
290
     0
176
     0
290
     0
176
     0
290
     0
176
     0
 90
       50
176
     0
 40
0.0
176
     0
 40
1.0
176
     0
 90
        0
176
     0
 62
    18
420
        0
176
     0
 90
       50
176
     0
 90
        3
176
     0
 62
     5
420
      255
176
     0
290
     0
176
     0
 90
       50
176
     0
 90
       50
176
     0
 90
       50
176
     0
290
     0
176
     0
 90
       50
176
     0
 62
   256
176
     0
 40
1.0
176
     0
 90
        2
176
     0
  1
strokes_ogs.tif
176
     0
290
     0
176
     0
 40
1.0
176
     0
 40
1.0
176
     0
1001
ACAD
1000
AcDbSavedByObjectVersion
1070
     0
  0
VISUALSTYLE
  5
38
102
{ACAD_REACTORS
330
29
102
}
330
29
100
AcDbVisualStyle
  2
Facepattern
 70
    15
177
     3
291
     1
 70
    58
 90
        2
176
     1
 90
        2
176
     1
 90
        0
176
     1
 90
        0
176
     1
 40
0.6
176
     1
 40
30.0
176
     1
 62
     7
420
 16777215
176
     1
 90
        1
176
     1
 90
        4
176
     1
 62
     7
176
     1
 62
   257
176
     1
 90
        1
176
     1
 90
        1
176
     1
 40
1.0
176
     1
 90
        8
176
     1
 62
     7
176
     1
 40
1.0
176
     1
 90
        1
176
     1
 90
        6
176
     1
 90
        2
176
     1
 62
     7
176
     1
 90
        5
176
     1
 90
        0
176
     1
 90
        0
176
     1
290
     0
176
     1
 90
        1
176
     1
 40
0.0
176
     1
 90
        0
176
     1
290
     0
176
     1
290
     1
176
     1
290
     1
176
     1
290
     0
176
     1
290
     0
176
     1
290
     0
176
     1
290
     0
176
     1
290
     0
176
     1
290
     0
176
     1
 90
       50
176
     1
 40
0.0
176
     1
 40
1.0
176
     1
 90
        0
176
     1
 62
    18
420
        0
176
     1
 90
       50
176
     1
 90
        3
176
     1
 62
     5
420
      255
176
     1
290
     0
176
     1
 90
       50
176
     1
 90
       50
176
     1
 90
       50
176
     1
290
     0
176
     1
 90
       50
176
     1
 62
   256
176
     0
 40
1.0
176
     0
 90
        2
176
     1
  1
strokes_ogs.tif
176
     1
290
     0
176
     1
 40
1.0
176
     1
 40
1.0
176
     1
1001
ACAD
1000
AcDbSavedByObjectVersion
1070
     0
  0
VISUALSTYLE
  5
2A
102
{ACAD_REACTORS
330
29
102
}
330
29
100
AcDbVisualStyle
  2
Flat
 70
     0
177
     3
291
     1
 70
    58
 90
        2
176
     1
 90
        1
176
     1
 90
        1
176
     1
 90
        2
176
     1
 40
0.6
176
     1
 40
30.0
176
     1
 62
     7
420
 16777215
176
     1
 90
        0
176
     1
 90
        0
176
     1
 62
     7
176
     1
 62
   257
176
     1
 90
        1
176
     1
 90
        1
176
     1
 40
1.0
176
     1
 90
        8
176
     1
 62
     7
176
     1
 40
1.0
176
     1
 90
        1
176
     1
 90
        6
176
     1
 90
        2
176
     1
 62
     7
176
     1
 90
        5
176
     1
 90
        0
176
     1
 90
        0
176
     1
290
     0
176
     1
 90
       13
176
     1
 40
0.0
176
     1
 90
        0
176
     1
290
     0
176
     1
290
     1
176
     1
290
     1
176
     1
290
     0
176
     1
290
     0
176
     1
290
     0
176
     1
290
     0
176
     1
290
     0
176
     1
290
     0
176
     1
 90
       50
176
     1
 40
0.0
176
     1
 40
1.0
176
     1
 90
        0
176
     1
 62
    18
420
        0
176
     1
 90
       50
176
     1
 90
        3
176
     1
 62
     5
420
      255
176
     1
290
     0
176
     1
 90
       50
176
     1
 90
       50
176
     1
 90
       50
176
     1
290
     0
176
     1
 90
       50
176
     1
 62
   256
176
     0
 40
1.0
176
     0
 90
        2
176
     1
  1
strokes_ogs.tif
176
     1
290
     0
176
     1
 40
1.0
176
     1
 40
1.0
176
     1
1001
ACAD
1000
AcDbSavedByObjectVersion
1070
     0
  0
VISUALSTYLE
  5
2B
102
{ACAD_REACTORS
330
29
102
}
330
29
100
AcDbVisualStyle
  2
FlatWithEdges
 70
     1
177
     3
291
     1
 70
    58
 90
        2
176
     1
 90
        1
176
     1
 90
        1
176
     1
 90
        2
176
     1
 40
0.6
176
     1
 40
30.0
176
     1
 62
     7
420
 16777215
176
     1
 90
        1
176
     1
 90
        0
176
     1
 62
     7
176
     1
 62
   257
176
     1
 90
        1
176
     1
 90
        1
176
     1
 40
1.0
176
     1
 90
        0
176
     1
 62
   257
176
     1
 40
1.0
176
     1
 90
        1
176
     1
 90
        6
176
     1
 90
        2
176
     1
 62
     7
176
     1
 90
        5
176
     1
 90
        0
176
     1
 90
        0
176
     1
290
     0
176
     1
 90
       13
176
     1
 40
0.0
176
     1
 90
        0
176
     1
290
     0
176
     1
290
     1
176
     1
290
     1
176
     1
290
     0
176
     1
290
     0
176
     1
290
     0
176
     1
290
     0
176
     1
290
     0
176
     1
290
     0
176
     1
 90
       50
176
     1
 40
0.0
176
     1
 40
1.0
176
     1
 90
        0
176
     1
 62
    18
420
        0
176
     1
 90
       50
176
     1
 90
        3
176
     1
 62
     5
420
      255
176
     1
290
     0
176
     1
 90
       50
176
     1
 90
       50
176
     1
 90
       50
176
     1
290
     0
176
     1
 90
       50
176
     1
 62
   256
176
     0
 40
1.0
176
     0
 90
        2
176
     1
  1
strokes_ogs.tif
176
     1
290
     0
176
     1
 40
1.0
176
     1
 40
1.0
176
     1
1001
ACAD
1000
AcDbSavedByObjectVersion
1070
     0
  0
VISUALSTYLE
  5
2C
102
{ACAD_REACTORS
330
29
102
}
330
29
100
AcDbVisualStyle
  2
Gouraud
 70
     2
177
     3
291
     1
 70
    58
 90
        2
176
     1
 90
        2
176
     1
 90
        1
176
     1
 90
        2
176
     1
 40
0.6
176
     1
 40
30.0
176
     1
 62
     7
420
 16777215
176
     1
 90
        0
176
     1
 90
        0
176
     1
 62
     7
176
     1
 62
   257
176
     1
 90
        1
176
     1
 90
        1
176
     1
 40
1.0
176
     1
 90
        0
176
     1
 62
     7
176
     1
 40
1.0
176
     1
 90
        1
176
     1
 90
        6
176
     1
 90
        2
176
     1
 62
     7
176
     1
 90
        5
176
     1
 90
        0
176
     1
 90
        0
176
     1
290
     0
176
     1
 90
       13
176
     1
 40
0.0
176
     1
 90
        0
176
     1
290
     0
176
     1
290
     1
176
     1
290
     1
176
     1
290
     0
176
     1
290
     0
176
     1
290
     0
176
     1
290
     0
176
     1
290
     0
176
     1
290
     0
176
     1
 90
       50
176
     1
 40
0.0
176
     1
 40
1.0
176
     1
 90
        0
176
     1
 62
    18
420
        0
176
     1
 90
       50
176
     1
 90
        3
176
     1
 62
     5
420
      255
176
     1
290
     0
176
     1
 90
       50
176
     1
 90
       50
176
     1
 90
       50
176
     1
290
     0
176
     1
 90
       50
176
     1
 62
   256
176
     0
 40
1.0
176
     0
 90
        2
176
     1
  1
strokes_ogs.tif
176
     1
290
     0
176
     1
 40
1.0
176
     1
 40
1.0
176
     1
1001
ACAD
1000
AcDbSavedByObjectVersion
1070
     0
  0
VISUALSTYLE
  5
2D
102
{ACAD_REACTORS
330
29
102
}
330
29
100
AcDbVisualStyle
  2
GouraudWithEdges
 70
     3
177
     3
291
     1
 70
    58
 90
        2
176
     1
 90
        2
176
     1
 90
        1
176
     1
 90
        2
176
     1
 40
0.6
176
     1
 40
30.0
176
     1
 62
     7
420
 16777215
176
     1
 90
        1
176
     1
 90
        0
176
     1
 62
     7
176
     1
 62
   257
176
     1
 90
        1
176
     1
 90
        1
176
     1
 40
1.0
176
     1
 90
        0
176
     1
 62
   257
176
     1
 40
1.0
176
     1
 90
        1
176
     1
 90
        6
176
     1
 90
        2
176
     1
 62
     7
176
     1
 90
        5
176
     1
 90
        0
176
     1
 90
        0
176
     1
290
     0
176
     1
 90
       13
176
     1
 40
0.0
176
     1
 90
        0
176
     1
290
     0
176
     1
290
     1
176
     1
290
     1
176
     1
290
     0
176
     1
290
     0
176
     1
290
     0
176
     1
290
     0
176
     1
290
     0
176
     1
290
     0
176
     1
 90
       50
176
     1
 40
0.0
176
     1
 40
1.0
176
     1
 90
        0
176
     1
 62
    18
420
        0
176
     1
 90
       50
176
     1
 90
        3
176
     1
 62
     5
420
      255
176
     1
290
     0
176
     1
 90
       50
176
     1
 90
       50
176
     1
 90
       50
176
     1
290
     0
176
     1
 90
       50
176
     1
 62
   256
176
     0
 40
1.0
176
     0
 90
        2
176
     1
  1
strokes_ogs.tif
176
     1
290
     0
176
     1
 40
1.0
176
     1
 40
1.0
176
     1
1001
ACAD
1000
AcDbSavedByObjectVersion
1070
     0
  0
VISUALSTYLE
  5
31
102
{ACAD_REACTORS
330
29
102
}
330
29
100
AcDbVisualStyle
  2
Hidden
 70
     6
177
     3
291
     0
 70
    58
 90
        1
176
     1
 90
        2
176
     1
 90
        2
176
     1
 90
        0
176
     1
 40
0.6
176
     1
 40
30.0
176
     1
 62
     7
420
 16777215
176
     1
 90
        2
176
     1
 90
        2
176
     1
 62
     7
176
     1
 62
   257
176
     1
 90
        2
176
     1
 90
        1
176
     1
 40
40.0
176
     1
 90
        0
176
     1
 62
   257
176
     1
 40
1.0
176
     1
 90
        1
176
     1
 90
        6
176
     1
 90
        2
176
     1
 62
     7
176
     1
 90
        3
176
     1
 90
        0
176
     1
 90
        0
176
     1
290
     0
176
     1
 90
        1
176
     1
 40
0.0
176
     1
 90
        0
176
     1
290
     0
176
     1
290
     1
176
     1
290
     1
176
     1
290
     0
176
     1
290
     0
176
     1
290
     0
176
     1
290
     0
176
     1
290
     0
176
     1
290
     0
176
     1
 90
       50
176
     1
 40
0.0
176
     1
 40
1.0
176
     1
 90
        0
176
     1
 62
    18
420
        0
176
     1
 90
       50
176
     1
 90
        3
176
     1
 62
     5
420
      255
176
     1
290
     0
176
     1
 90
       50
176
     1
 90
       50
176
     1
 90
       50
176
     1
290
     0
176
     1
 90
       50
176
     1
 62
   256
176
     0
 40
1.0
176
     0
 90
        2
176
     1
  1
strokes_ogs.tif
176
     1
290
     0
176
     1
 40
1.0
176
     1
 40
1.0
176
     1
1001
ACAD
1000
AcDbSavedByObjectVersion
1070
     0
  0
VISUALSTYLE
  5
3F
102
{ACAD_REACTORS
330
29
102
}
330
29
100
AcDbVisualStyle
  2
JitterOff
 70
    20
177
     3
291
     1
 70
    58
 90
        2
176
     0
 90
        2
176
     0
 90
        0
176
     0
 90
        0
176
     0
 40
0.6
176
     0
 40
30.0
176
     0
 62
     7
420
 16777215
176
     0
 90
        1
176
     0
 90
        4
176
     0
 62
     7
176
     0
 62
   257
176
     0
 90
        1
176
     0
 90
        1
176
     0
 40
1.0
176
     0
 90
       10
176
     2
 62
     7
176
     0
 40
1.0
176
     0
 90
        1
176
     0
 90
        6
176
     0
 90
        2
176
     0
 62
     7
176
     0
 90
        5
176
     0
 90
        0
176
     0
 90
        0
176
     0
290
     0
176
     0
 90
        1
176
     0
 40
0.0
176
     0
 90
        0
176
     0
290
     0
176
     0
290
     1
176
     0
290
     1
176
     0
290
     0
176
     0
290
     0
176
     0
290
     0
176
     0
290
     0
176
     0
290
     0
176
     0
290
     0
176
     0
 90
       50
176
     0
 40
0.0
176
     0
 40
1.0
176
     0
 90
        0
176
     0
 62
    18
420
        0
176
     0
 90
       50
176
     0
 90
        3
176
     0
 62
     5
420
      255
176
     0
290
     0
176
     0
 90
       50
176
     0
 90
       50
176
     0
 90
       50
176
     0
290
     0
176
     0
 90
       50
176
     0
 62
   256
176
     0
 40
1.0
176
     0
 90
        2
176
     0
  1
strokes_ogs.tif
176
     0
290
     0
176
     0
 40
1.0
176
     0
 40
1.0
176
     0
1001
ACAD
1000
AcDbSavedByObjectVersion
1070
     0
  0
VISUALSTYLE
  5
37
102
{ACAD_REACTORS
330
29
102
}
330
29
100
AcDbVisualStyle
  2
Linepattern
 70
    14
177
     3
291
     1
 70
    58
 90
        2
176
     1
 90
        2
176
     1
 90
        0
176
     1
 90
        0
176
     1
 40
0.6
176
     1
 40
30.0
176
     1
 62
     7
420
 16777215
176
     1
 90
        1
176
     1
 90
        4
176
     1
 62
     7
176
     1
 62
   257
176
     1
 90
        7
176
     1
 90
        7
176
     1
 40
1.0
176
     1
 90
        8
176
     1
 62
     7
176
     1
 40
1.0
176
     1
 90
        1
176
     1
 90
        6
176
     1
 90
        2
176
     1
 62
     7
176
     1
 90
        5
176
     1
 90
        0
176
     1
 90
        0
176
     1
290
     0
176
     1
 90
        1
176
     1
 40
0.0
176
     1
 90
        0
176
     1
290
     0
176
     1
290
     1
176
     1
290
     1
176
     1
290
     0
176
     1
290
     0
176
     1
290
     0
176
     1
290
     0
176
     1
290
     0
176
     1
290
     0
176
     1
 90
       50
176
     1
 40
0.0
176
     1
 40
1.0
176
     1
 90
        0
176
     1
 62
    18
420
        0
176
     1
 90
       50
176
     1
 90
        3
176
     1
 62
     5
420
      255
176
     1
290
     0
176
     1
 90
       50
176
     1
 90
       50
176
     1
 90
       50
176
     1
290
     0
176
     1
 90
       50
176
     1
 62
   256
176
     0
 40
1.0
176
     0
 90
        2
176
     1
  1
strokes_ogs.tif
176
     1
290
     0
176
     1
 40
1.0
176
     1
 40
1.0
176
     1
1001
ACAD
1000
AcDbSavedByObjectVersion
1070
     0
  0
VISUALSTYLE
  5
40
102
{ACAD_REACTORS
330
29
102
}
330
29
100
AcDbVisualStyle
  2
OverhangOff
 70
    21
177
     3
291
     1
 70
    58
 90
        2
176
     0
 90
        2
176
     0
 90
        0
176
     0
 90
        0
176
     0
 40
0.6
176
     0
 40
30.0
176
     0
 62
     7
420
 16777215
176
     0
 90
        1
176
     0
 90
        4
176
     0
 62
     7
176
     0
 62
   257
176
     0
 90
        1
176
     0
 90
        1
176
     0
 40
1.0
176
     0
 90
        9
176
     2
 62
     7
176
     0
 40
1.0
176
     0
 90
        1
176
     0
 90
        6
176
     0
 90
        2
176
     0
 62
     7
176
     0
 90
        5
176
     0
 90
        0
176
     0
 90
        0
176
     0
290
     0
176
     0
 90
        1
176
     0
 40
0.0
176
     0
 90
        0
176
     0
290
     0
176
     0
290
     1
176
     0
290
     1
176
     0
290
     0
176
     0
290
     0
176
     0
290
     0
176
     0
290
     0
176
     0
290
     0
176
     0
290
     0
176
     0
 90
       50
176
     0
 40
0.0
176
     0
 40
1.0
176
     0
 90
        0
176
     0
 62
    18
420
        0
176
     0
 90
       50
176
     0
 90
        3
176
     0
 62
     5
420
      255
176
     0
290
     0
176
     0
 90
       50
176
     0
 90
       50
176
     0
 90
       50
176
     0
290
     0
176
     0
 90
       50
176
     0
 62
   256
176
     0
 40
1.0
176
     0
 90
        2
176
     0
  1
strokes_ogs.tif
176
     0
290
     0
176
     0
 40
1.0
176
     0
 40
1.0
176
     0
1001
ACAD
1000
AcDbSavedByObjectVersion
1070
     0
  0
VISUALSTYLE
  5
33
102
{ACAD_REACTORS
330
29
102
}
330
29
100
AcDbVisualStyle
  2
Realistic
 70
     8
177
     3
291
     0
 70
    58
 90
        2
176
     1
 90
        3
176
     1
 90
        0
176
     1
 90
        2
176
     1
 40
0.6
176
     1
 40
30.0
176
     1
 62
     7
420
 16777215
176
     1
 90
        0
176
     1
 90
        0
176
     1
 62
     7
176
     1
 62
   257
176
     1
 90
        1
176
     1
 90
        1
176
     1
 40
1.0
176
     1
 90
        8
176
     1
 62
   257
176
     1
 40
1.0
176
     1
 90
        1
176
     1
 90
        6
176
     1
 90
        2
176
     1
 62
     7
176
     1
 90
        3
176
     1
 90
        0
176
     1
 90
        0
176
     1
290
     0
176
     1
 90
       13
176
     1
 40
0.0
176
     1
 90
        0
176
     1
290
     0
176
     1
290
     1
176
     1
290
     1
176
     1
290
     0
176
     1
290
     0
176
     1
290
     0
176
     1
290
     0
176
     1
290
     0
176
     1
290
     0
176
     1
 90
       50
176
     1
 40
0.0
176
     1
 40
1.0
176
     1
 90
        0
176
     1
 62
    18
420
        0
176
     1
 90
       50
176
     1
 90
        3
176
     1
 62
     5
420
      255
176
     1
290
     0
176
     1
 90
       50
176
     1
 90
       50
176
     1
 90
       50
176
     1
290
     0
176
     1
 90
       50
176
     1
 62
   256
176
     0
 40
1.0
176
     0
 90
        2
176
     1
  1
strokes_ogs.tif
176
     1
290
     0
176
     1
 40
1.0
176
     1
 40
1.0
176
     1
1001
ACAD
1000
AcDbSavedByObjectVersion
1070
     0
  0
VISUALSTYLE
  5
3E
102
{ACAD_REACTORS
330
29
102
}
330
29
100
AcDbVisualStyle
  2
Shaded
 70
    27
177
     3
291
     0
 70
    58
 90
        2
176
     1
 90
        2
176
     1
 90
        1
176
     1
 90
        2
176
     1
 40
0.6
176
     1
 40
30.0
176
     1
 62
     7
420
 16777215
176
     1
 90
        0
176
     1
 90
        4
176
     1
 62
     7
176
     1
 62
   257
176
     1
 90
        1
176
     1
 90
        1
176
     1
 40
1.0
176
     1
 90
        8
176
     1
 62
   257
176
     1
 40
1.0
176
     1
 90
        1
176
     1
 90
        6
176
     1
 90
        2
176
     1
 62
     8
420
  7895160
176
     1
 90
        3
176
     1
 90
        0
176
     1
 90
        0
176
     1
290
     0
176
     1
 90
        5
176
     1
 40
0.0
176
     1
 90
        0
176
     1
290
     0
176
     1
290
     1
176
     1
290
     1
176
     1
290
     0
176
     1
290
     0
176
     1
290
     0
176
     1
290
     0
176
     1
290
     0
176
     1
290
     0
176
     1
 90
       50
176
     1
 40
0.0
176
     1
 40
1.0
176
     1
 90
        0
176
     1
 62
    18
420
        0
176
     1
 90
       50
176
     1
 90
        3
176
     1
 62
     5
420
      255
176
     1
290
     0
176
     1
 90
       50
176
     1
 90
       50
176
     1
 90
       50
176
     1
290
     0
176
     1
 90
       50
176
     1
 62
   256
176
     0
 40
1.0
176
     0
 90
        2
176
     1
  1
strokes_ogs.tif
176
     1
290
     0
176
     1
 40
1.0
176
     1
 40
1.0
176
     1
1001
ACAD
1000
AcDbSavedByObjectVersion
1070
     0
  0
VISUALSTYLE
  5
3D
102
{ACAD_REACTORS
330
29
102
}
330
29
100
AcDbVisualStyle
  2
Shaded with edges
 70
    26
177
     3
291
     0
 70
    58
 90
        2
176
     1
 90
        2
176
     1
 90
        1
176
     1
 90
        2
176
     1
 40
0.6
176
     1
 40
30.0
176
     1
 62
     7
420
 16777215
176
     1
 90
        1
176
     1
 90
        2
176
     1
 62
     7
176
     1
 62
   257
176
     1
 90
        2
176
     1
 90
        1
176
     1
 40
1.0
176
     1
 90
        8
176
     1
 62
   257
176
     1
 40
1.0
176
     1
 90
        1
176
     1
 90
        6
176
     1
 90
        2
176
     1
 62
     7
176
     1
 90
        3
176
     1
 90
        0
176
     1
 90
        0
176
     1
290
     0
176
     1
 90
        5
176
     1
 40
0.0
176
     1
 90
        0
176
     1
290
     0
176
     1
290
     1
176
     1
290
     1
176
     1
290
     0
176
     1
290
     0
176
     1
290
     0
176
     1
290
     0
176
     1
290
     0
176
     1
290
     0
176
     1
 90
       50
176
     1
 40
0.0
176
     1
 40
1.0
176
     1
 90
        0
176
     1
 62
    18
420
        0
176
     1
 90
       50
176
     1
 90
        3
176
     1
 62
     5
420
      255
176
     1
290
     0
176
     1
 90
       50
176
     1
 90
       50
176
     1
 90
       50
176
     1
290
     0
176
     1
 90
       50
176
     1
 62
   256
176
     0
 40
1.0
176
     0
 90
        2
176
     1
  1
strokes_ogs.tif
176
     1
290
     0
176
     1
 40
1.0
176
     1
 40
1.0
176
     1
1001
ACAD
1000
AcDbSavedByObjectVersion
1070
     0
  0
VISUALSTYLE
  5
3A
102
{ACAD_REACTORS
330
29
102
}
330
29
100
AcDbVisualStyle
  2
Shades of Gray
 70
    23
177
     3
291
     0
 70
    58
 90
        2
176
     1
 90
        2
176
     1
 90
        3
176
     1
 90
        0
176
     1
 40
0.6
176
     1
 40
30.0
176
     1
 62
     7
420
 16777215
176
     1
 90
        2
176
     1
 90
        2
176
     1
 62
     7
176
     1
 62
     7
176
     1
 90
        1
176
     1
 90
        1
176
     1
 40
40.0
176
     1
 90
        8
176
     1
 62
     7
176
     1
 40
1.0
176
     1
 90
        1
176
     1
 90
        6
176
     1
 90
        2
176
     1
 62
     7
176
     1
 90
        3
176
     1
 90
        0
176
     1
 90
        0
176
     1
290
     0
176
     1
 90
        1
176
     1
 40
0.0
176
     1
 90
        0
176
     1
290
     0
176
     1
290
     1
176
     1
290
     1
176
     1
290
     0
176
     1
290
     0
176
     1
290
     0
176
     1
290
     0
176
     1
290
     0
176
     1
290
     0
176
     1
 90
       50
176
     1
 40
0.0
176
     1
 40
1.0
176
     1
 90
        0
176
     1
 62
    18
420
        0
176
     1
 90
       50
176
     1
 90
        3
176
     1
 62
     5
420
      255
176
     1
290
     0
176
     1
 90
       50
176
     1
 90
       50
176
     1
 90
       50
176
     1
290
     0
176
     1
 90
       50
176
     1
 62
   256
176
     0
 40
1.0
176
     0
 90
        2
176
     1
  1
strokes_ogs.tif
176
     1
290
     0
176
     1
 40
1.0
176
     1
 40
1.0
176
     1
1001
ACAD
1000
AcDbSavedByObjectVersion
1070
     0
  0
VISUALSTYLE
  5
3B
102
{ACAD_REACTORS
330
29
102
}
330
29
100
AcDbVisualStyle
  2
Sketchy
 70
    24
177
     3
291
     0
 70
    58
 90
        1
176
     1
 90
        2
176
     1
 90
        2
176
     1
 90
        0
176
     1
 40
0.6
176
     1
 40
30.0
176
     1
 62
     7
420
 16777215
176
     1
 90
        2
176
     1
 90
        2
176
     1
 62
     7
176
     1
 62
     7
176
     1
 90
        1
176
     1
 90
        1
176
     1
 40
40.0
176
     1
 90
       11
176
     1
 62
     7
176
     1
 40
1.0
176
     1
 90
        1
176
     1
 90
        6
176
     1
 90
        2
176
     1
 62
     7
176
     1
 90
        6
176
     1
 90
        0
176
     1
 90
        0
176
     1
290
     0
176
     1
 90
        1
176
     1
 40
0.0
176
     1
 90
        0
176
     1
290
     0
176
     1
290
     1
176
     1
290
     1
176
     1
290
     0
176
     1
290
     0
176
     1
290
     0
176
     1
290
     0
176
     1
290
     0
176
     1
290
     0
176
     1
 90
       50
176
     1
 40
0.0
176
     1
 40
1.0
176
     1
 90
        0
176
     1
 62
    18
420
        0
176
     1
 90
       50
176
     1
 90
        3
176
     1
 62
     5
420
      255
176
     1
290
     0
176
     1
 90
       50
176
     1
 90
       50
176
     1
 90
       50
176
     1
290
     0
176
     1
 90
       50
176
     1
 62
   256
176
     0
 40
1.0
176
     0
 90
        2
176
     1
  1
strokes_ogs.tif
176
     1
290
     0
176
     1
 40
1.0
176
     1
 40
1.0
176
     1
1001
ACAD
1000
AcDbSavedByObjectVersion
1070
     0
  0
VISUALSTYLE
  5
36
102
{ACAD_REACTORS
330
29
102
}
330
29
100
AcDbVisualStyle
  2
Thicken
 70
    13
177
     3
291
     1
 70
    58
 90
        2
176
     1
 90
        2
176
     1
 90
        0
176
     1
 90
        0
176
     1
 40
0.6
176
     1
 40
30.0
176
     1
 62
     7
420
 16777215
176
     1
 90
        1
176
     1
 90
        4
176
     1
 62
     7
176
     1
 62
   257
176
     1
 90
        1
176
     1
 90
        1
176
     1
 40
1.0
176
     1
 90
       12
176
     1
 62
     7
176
     1
 40
1.0
176
     1
 90
        1
176
     1
 90
        6
176
     1
 90
        2
176
     1
 62
     7
176
     1
 90
        5
176
     1
 90
        0
176
     1
 90
        0
176
     1
290
     0
176
     1
 90
        1
176
     1
 40
0.0
176
     1
 90
        0
176
     1
290
     0
176
     1
290
     1
176
     1
290
     1
176
     1
290
     0
176
     1
290
     0
176
     1
290
     0
176
     1
290
     0
176
     1
290
     0
176
     1
290
     0
176
     1
 90
       50
176
     1
 40
0.0
176
     1
 40
1.0
176
     1
 90
        0
176
     1
 62
    18
420
        0
176
     1
 90
       50
176
     1
 90
        3
176
     1
 62
     5
420
      255
176
     1
290
     0
176
     1
 90
       50
176
     1
 90
       50
176
     1
 90
       50
176
     1
290
     0
176
     1
 90
       50
176
     1
 62
   256
176
     0
 40
1.0
176
     0
 90
        2
176
     1
  1
strokes_ogs.tif
176
     1
290
     0
176
     1
 40
1.0
176
     1
 40
1.0
176
     1
1001
ACAD
1000
AcDbSavedByObjectVersion
1070
     0
  0
VISUALSTYLE
  5
30
102
{ACAD_REACTORS
330
29
102
}
330
29
100
AcDbVisualStyle
  2
Wireframe
 70
     5
177
     3
291
     0
 70
    58
 90
        0
176
     1
 90
        2
176
     1
 90
        0
176
     1
 90
        0
176
     1
 40
0.6
176
     1
 40
30.0
176
     1
 62
     7
420
 16777215
176
     1
 90
        1
176
     1
 90
        4
176
     1
 62
     7
176
     1
 62
   257
176
     1
 90
        1
176
     1
 90
        1
176
     1
 40
1.0
176
     1
 90
        0
176
     1
 62
   257
176
     1
 40
1.0
176
     1
 90
        1
176
     1
 90
        6
176
     1
 90
        2
176
     1
 62
     7
176
     1
 90
        3
176
     1
 90
        0
176
     1
 90
        0
176
     1
290
     0
176
     1
 90
        1
176
     1
 40
0.0
176
     1
 90
        0
176
     1
290
     0
176
     1
290
     1
176
     1
290
     1
176
     1
290
     0
176
     1
290
     0
176
     1
290
     0
176
     1
290
     0
176
     1
290
     0
176
     1
290
     0
176
     1
 90
       50
176
     1
 40
0.0
176
     1
 40
1.0
176
     1
 90
        0
176
     1
 62
    18
420
        0
176
     1
 90
       50
176
     1
 90
        3
176
     1
 62
     5
420
      255
176
     1
290
     0
176
     1
 90
       50
176
     1
 90
       50
176
     1
 90
       50
176
     1
290
     0
176
     1
 90
       50
176
     1
 62
   256
176
     0
 40
1.0
176
     0
 90
        2
176
     1
  1
strokes_ogs.tif
176
     1
290
     0
176
     1
 40
1.0
176
     1
 40
1.0
176
     1
1001
ACAD
1000
AcDbSavedByObjectVersion
1070
     0
  0
VISUALSTYLE
  5
3C
102
{ACAD_REACTORS
330
29
102
}
330
29
100
AcDbVisualStyle
  2
X-Ray
 70
    25
177
     3
291
     0
 70
    58
 90
        2
176
     1
 90
        2
176
     1
 90
        1
176
     1
 90
        1
176
     1
 40
0.5
176
     1
 40
30.0
176
     1
 62
     7
420
 16777215
176
     1
 90
        1
176
     1
 90
        0
176
     1
 62
     7
176
     1
 62
   257
176
     1
 90
        1
176
     1
 90
        1
176
     1
 40
1.0
176
     1
 90
        8
176
     1
 62
     7
176
     1
 40
1.0
176
     1
 90
        1
176
     1
 90
        6
176
     1
 90
        2
176
     1
 62
     7
176
     1
 90
        3
176
     1
 90
        0
176
     1
 90
        0
176
     1
290
     0
176
     1
 90
       13
176
     1
 40
0.0
176
     1
 90
        0
176
     1
290
     0
176
     1
290
     1
176
     1
290
     1
176
     1
290
     0
176
     1
290
     0
176
     1
290
     0
176
     1
290
     0
176
     1
290
     0
176
     1
290
     0
176
     1
 90
       50
176
     1
 40
0.0
176
     1
 40
1.0
176
     1
 90
        0
176
     1
 62
    18
420
        0
176
     1
 90
       50
176
     1
 90
        3
176
     1
 62
     5
420
      255
176
     1
290
     0
176
     1
 90
       50
176
     1
 90
       50
176
     1
 90
       50
176
     1
290
     0
176
     1
 90
       50
176
     1
 62
   256
176
     0
 40
1.0
176
     0
 90
        2
176
     1
  1
strokes_ogs.tif
176
     1
290
     0
176
     1
 40
1.0
176
     1
 40
1.0
176
     1
1001
ACAD
1000
AcDbSavedByObjectVersion
1070
     0
  0
DICTIONARYVAR
  5
3F2
102
{ACAD_REACTORS
330
3ED
102
}
330
3ED
100
DictionaryVariables
280
     0
  1
0
  0
DICTIONARYVAR
  5
3F3
102
{ACAD_REACTORS
330
3ED
102
}
330
3ED
100
DictionaryVariables
280
     0
  1
1:1
  0
DICTIONARYVAR
  5
3EF
102
{ACAD_REACTORS
330
3ED
102
}
330
3ED
100
DictionaryVariables
280
     0
  1
STANDARD
  0
DICTIONARYVAR
  5
3EE
102
{ACAD_REACTORS
330
3ED
102
}
330
3ED
100
DictionaryVariables
280
     0
  1
STANDARD
  0
DICTIONARYVAR
  5
3F0
102
{ACAD_REACTORS
330
3ED
102
}
330
3ED
100
DictionaryVariables
280
     0
  1
Imperial24
  0
DICTIONARYVAR
  5
3F1
102
{ACAD_REACTORS
330
3ED
102
}
330
3ED
100
DictionaryVariables
280
     0
  1
Imperial24
  0
DICTIONARY
  5
3F9
330
6B
100
AcDbDictionary
280
     1
281
     1
  3
ACAD_XREC_ROUNDTRIP
360
3FA
  0
DICTIONARY
  5
1A
330
19
100
AcDbDictionary
280
     1
281
     1
  3
BUMPTILE
360
1C
  3
DIFFUSETILE
360
1B
  3
OPACITYTILE
360
1F
  3
REFLECTIONTILE
360
1E
  3
REFRACTIONTILE
360
20
  3
SPECULARTILE
360
1D
  0
DICTIONARY
  5
12
330
11
100
AcDbDictionary
280
     1
281
     1
  3
BUMPTILE
360
14
  3
DIFFUSETILE
360
13
  3
OPACITYTILE
360
17
  3
REFLECTIONTILE
360
16
  3
REFRACTIONTILE
360
18
  3
SPECULARTILE
360
15
  0
DICTIONARY
  5
22
330
21
100
AcDbDictionary
280
     1
281
     1
  3
BUMPTILE
360
24
  3
DIFFUSETILE
360
23
  3
OPACITYTILE
360
27
  3
REFLECTIONTILE
360
26
  3
REFRACTIONTILE
360
28
  3
SPECULARTILE
360
25
  0
DICTIONARY
  5
3F7
330
69
100
AcDbDictionary
280
     1
281
     1
  3
ACAD_XREC_ROUNDTRIP
360
3F8
  0
DICTIONARY
  5
3F4
330
65
100
AcDbDictionary
280
     1
281
     1
  3
ACAD_ROUNDTRIP_2008_TABLESTYLE_CELLSTYLEMAP
360
3F5
  0
XRECORD
  5
3FA
102
{ACAD_REACTORS
330
3F9
102
}
330
3F9
100
AcDbXrecord
280
     1
102
DISPLAYNAME
  1
Imperial24
102
FLAGS
 90
        0
  0
XRECORD
  5
1C
102
{ACAD_REACTORS
330
1A
102
}
330
1A
100
AcDbXrecord
280
     1
270
     1
271
     1
  0
XRECORD
  5
1B
102
{ACAD_REACTORS
330
1A
102
}
330
1A
100
AcDbXrecord
280
     1
270
     1
271
     1
  0
XRECORD
  5
1F
102
{ACAD_REACTORS
330
1A
102
}
330
1A
100
AcDbXrecord
280
     1
270
     1
271
     1
  0
XRECORD
  5
1E
102
{ACAD_REACTORS
330
1A
102
}
330
1A
100
AcDbXrecord
280
     1
270
     1
271
     1
  0
XRECORD
  5
20
102
{ACAD_REACTORS
330
1A
102
}
330
1A
100
AcDbXrecord
280
     1
270
     1
271
     1
  0
XRECORD
  5
1D
102
{ACAD_REACTORS
330
1A
102
}
330
1A
100
AcDbXrecord
280
     1
270
     1
271
     1
  0
XRECORD
  5
14
102
{ACAD_REACTORS
330
12
102
}
330
12
100
AcDbXrecord
280
     1
270
     1
271
     1
  0
XRECORD
  5
13
102
{ACAD_REACTORS
330
12
102
}
330
12
100
AcDbXrecord
280
     1
270
     1
271
     1
  0
XRECORD
  5
17
102
{ACAD_REACTORS
330
12
102
}
330
12
100
AcDbXrecord
280
     1
270
     1
271
     1
  0
XRECORD
  5
16
102
{ACAD_REACTORS
330
12
102
}
330
12
100
AcDbXrecord
280
     1
270
     1
271
     1
  0
XRECORD
  5
18
102
{ACAD_REACTORS
330
12
102
}
330
12
100
AcDbXrecord
280
     1
270
     1
271
     1
  0
XRECORD
  5
15
102
{ACAD_REACTORS
330
12
102
}
330
12
100
AcDbXrecord
280
     1
270
     1
271
     1
  0
XRECORD
  5
24
102
{ACAD_REACTORS
330
22
102
}
330
22
100
AcDbXrecord
280
     1
270
     1
271
     1
  0
XRECORD
  5
23
102
{ACAD_REACTORS
330
22
102
}
330
22
100
AcDbXrecord
280
     1
270
     1
271
     1
  0
XRECORD
  5
27
102
{ACAD_REACTORS
330
22
102
}
330
22
100
AcDbXrecord
280
     1
270
     1
271
     1
  0
XRECORD
  5
26
102
{ACAD_REACTORS
330
22
102
}
330
22
100
AcDbXrecord
280
     1
270
     1
271
     1
  0
XRECORD
  5
28
102
{ACAD_REACTORS
330
22
102
}
330
22
100
AcDbXrecord
280
     1
270
     1
271
     1
  0
XRECORD
  5
25
102
{ACAD_REACTORS
330
22
102
}
330
22
100
AcDbXrecord
280
     1
270
     1
271
     1
  0
XRECORD
  5
3F8
102
{ACAD_REACTORS
330
3F7
102
}
330
3F7
100
AcDbXrecord
280
     1
102
DISPLAYNAME
  1
Imperial24
102
FLAGS
 90
        0
  0
CELLSTYLEMAP
  5
3F5
102
{ACAD_REACTORS
330
3F4
102
}
330
3F4
100
AcDbCellStyleMap
 90
        3
300
CELLSTYLE
  1
TABLEFORMAT_BEGIN
 90
        5
170
     1
 91
        0
 92
    32768
 62
   257
 93
        1
300
CONTENTFORMAT
  1
CONTENTFORMAT_BEGIN
 90
        0
 91
        0
 92
      512
 93
        0
300

 40
0.0
140
1.0
 94
        5
 62
     0
340
55
144
0.25
309
CONTENTFORMAT_END
171
     0
 94
        0
309
TABLEFORMAT_END
  1
CELLSTYLE_BEGIN
 90
        1
 91
        1
300
_TITLE
309
CELLSTYLE_END
300
CELLSTYLE
  1
TABLEFORMAT_BEGIN
 90
        5
170
     1
 91
        0
 92
        0
 62
   257
 93
        1
300
CONTENTFORMAT
  1
CONTENTFORMAT_BEGIN
 90
        0
 91
        0
 92
      512
 93
        0
300

 40
0.0
140
1.0
 94
        5
 62
     0
340
55
144
0.18
309
CONTENTFORMAT_END
171
     0
 94
        0
309
TABLEFORMAT_END
  1
CELLSTYLE_BEGIN
 90
        2
 91
        1
300
_HEADER
309
CELLSTYLE_END
300
CELLSTYLE
  1
TABLEFORMAT_BEGIN
 90
        5
170
     1
 91
        0
 92
        0
 62
   257
 93
        1
300
CONTENTFORMAT
  1
CONTENTFORMAT_BEGIN
 90
        0
 91
        0
 92
      512
 93
        0
300

 40
0.0
140
1.0
 94
        2
 62
     0
340
55
144
0.18
309
CONTENTFORMAT_END
171
     0
 94
        0
309
TABLEFORMAT_END
  1
CELLSTYLE_BEGIN
 90
        3
 91
        2
300
_DATA
309
CELLSTYLE_END
  0
ENDSEC
  0
EOF
